{"tracks": [{"channel": null, "length": 1920, "track_name": "(\u008e\u00a8\u0083R\u0083s)\u008e\u00c4\u0096\u0094", "events": [{"type": "track_name", "name": "(\u008e\u00a8\u0083R\u0083s)\u008e\u00c4\u0096\u0094", "tick": 0}, {"type": "marker", "text": "Setup", "tick": 0}, {"type": "set_tempo", "tempo": 500000, "tick": 0}, {"type": "time_signature", "numerator": 4, "denominator": 4, "clocks_per_click": 24, "notated_32nd_notes_per_beat": 8, "tick": 0}, {"type": "marker", "text": "Start", "tick": 1920}, {"type": "set_tempo", "tempo": 312500, "tick": 1920}, {"type": "time_signature", "numerator": 4, "denominator": 4, "clocks_per_click": 24, "notated_32nd_notes_per_beat": 8, "tick": 1920}, {"type": "end_of_track", "tick": 1920}], "notes": []}, {"channel": null, "length": 542400, "track_name": "System Setup", "events": [{"type": "track_name", "name": "System Setup", "tick": 0}, {"type": "midi_port", "port": 0, "tick": 0}, {"type": "sysex", "data": [126, 127, 9, 1], "tick": 0}, {"type": "sysex", "data": [127, 127, 4, 1, 0, 127], "tick": 240}, {"type": "sysex", "data": [127, 127, 4, 3, 66, 66], "tick": 244}, {"type": "sysex", "data": [65, 16, 0, 72, 18, 1, 0, 2, 0, 0, 125], "tick": 248}, {"type": "sysex", "data": [127, 127, 4, 1, 0, 127], "tick": 541440}, {"type": "sysex", "data": [127, 127, 4, 1, 0, 119], "tick": 541500}, {"type": "sysex", "data": [127, 127, 4, 1, 0, 111], "tick": 541560}, {"type": "sysex", "data": [127, 127, 4, 1, 0, 103], "tick": 541620}, {"type": "sysex", "data": [127, 127, 4, 1, 0, 95], "tick": 541680}, {"type": "sysex", "data": [127, 127, 4, 1, 0, 87], "tick": 541740}, {"type": "sysex", "data": [127, 127, 4, 1, 0, 79], "tick": 541800}, {"type": "sysex", "data": [127, 127, 4, 1, 0, 71], "tick": 541860}, {"type": "sysex", "data": [127, 127, 4, 1, 0, 64], "tick": 541920}, {"type": "sysex", "data": [127, 127, 4, 1, 0, 56], "tick": 541980}, {"type": "sysex", "data": [127, 127, 4, 1, 0, 48], "tick": 542040}, {"type": "sysex", "data": [127, 127, 4, 1, 0, 40], "tick": 542100}, {"type": "sysex", "data": [127, 127, 4, 1, 0, 32], "tick": 542160}, {"type": "sysex", "data": [127, 127, 4, 1, 0, 24], "tick": 542220}, {"type": "sysex", "data": [127, 127, 4, 1, 0, 16], "tick": 542280}, {"type": "sysex", "data": [127, 127, 4, 1, 0, 8], "tick": 542340}, {"type": "sysex", "data": [127, 127, 4, 1, 0, 0], "tick": 542400}, {"type": "end_of_track", "tick": 542400}], "notes": []}, {"channel": 0, "length": 406980, "track_name": "\u0083\u0081\u0083\u008d\u0083f\u0083B\u0081[\u0083V\u0083\u0093\u0083Z\u0083\u008a\u0081[\u0083h", "events": [{"type": "track_name", "name": "\u0083\u0081\u0083\u008d\u0083f\u0083B\u0081[\u0083V\u0083\u0093\u0083Z\u0083\u008a\u0081[\u0083h", "tick": 0}, {"type": "midi_port", "port": 0, "tick": 0}, {"type": "control_change", "control": 0, "value": 121, "channel": 0, "tick": 480}, {"type": "control_change", "control": 32, "value": 0, "channel": 0, "tick": 480}, {"type": "program_change", "program": 81, "channel": 0, "tick": 480}, {"type": "sysex", "data": [65, 16, 0, 72, 18, 16, 0, 32, 63, 2, 15], "tick": 540}, {"type": "control_change", "control": 7, "value": 84, "channel": 0, "tick": 600}, {"type": "control_change", "control": 10, "value": 64, "channel": 0, "tick": 660}, {"type": "control_change", "control": 91, "value": 16, "channel": 0, "tick": 720}, {"type": "control_change", "control": 93, "value": 0, "channel": 0, "tick": 780}, {"type": "control_change", "control": 74, "value": 76, "channel": 0, "tick": 840}, {"type": "control_change", "control": 71, "value": 72, "channel": 0, "tick": 900}, {"type": "control_change", "control": 73, "value": 64, "channel": 0, "tick": 960}, {"type": "control_change", "control": 75, "value": 64, "channel": 0, "tick": 1020}, {"type": "control_change", "control": 72, "value": 64, "channel": 0, "tick": 1080}, {"type": "control_change", "control": 101, "value": 0, "channel": 0, "tick": 1140}, {"type": "control_change", "control": 100, "value": 0, "channel": 0, "tick": 1140}, {"type": "control_change", "control": 6, "value": 12, "channel": 0, "tick": 1140}, {"type": "control_change", "control": 38, "value": 0, "channel": 0, "tick": 1140}, {"type": "pitchwheel", "channel": 0, "pitch": 0, "tick": 1200}, {"type": "control_change", "control": 1, "value": 0, "channel": 0, "tick": 1260}, {"type": "control_change", "control": 11, "value": 127, "channel": 0, "tick": 1320}, {"type": "control_change", "control": 101, "value": 127, "channel": 0, "tick": 1380}, {"type": "control_change", "control": 100, "value": 127, "channel": 0, "tick": 1380}, {"type": "control_change", "control": 6, "value": 0, "channel": 0, "tick": 1380}, {"type": "control_change", "control": 38, "value": 0, "channel": 0, "tick": 1380}, {"type": "end_of_track", "tick": 406980}], "notes": [{"pitch": 72, "tick": 94080, "length": 660, "velocity": 112}, {"pitch": 70, "tick": 94800, "length": 660, "velocity": 112}, {"pitch": 67, "tick": 95520, "length": 180, "velocity": 112}, {"pitch": 70, "tick": 95760, "length": 180, "velocity": 112}, {"pitch": 72, "tick": 96000, "length": 420, "velocity": 112}, {"pitch": 72, "tick": 96480, "length": 180, "velocity": 112}, {"pitch": 70, "tick": 96720, "length": 660, "velocity": 112}, {"pitch": 67, "tick": 97440, "length": 180, "velocity": 112}, {"pitch": 66, "tick": 97680, "length": 180, "velocity": 112}, {"pitch": 65, "tick": 97920, "length": 180, "velocity": 112}, {"pitch": 65, "tick": 98160, "length": 60, "velocity": 112}, {"pitch": 65, "tick": 98280, "length": 60, "velocity": 112}, {"pitch": 65, "tick": 98400, "length": 180, "velocity": 112}, {"pitch": 63, "tick": 98640, "length": 180, "velocity": 112}, {"pitch": 65, "tick": 98880, "length": 420, "velocity": 112}, {"pitch": 70, "tick": 99360, "length": 420, "velocity": 112}, {"pitch": 67, "tick": 99840, "length": 180, "velocity": 112}, {"pitch": 67, "tick": 100080, "length": 60, "velocity": 112}, {"pitch": 67, "tick": 100200, "length": 60, "velocity": 112}, {"pitch": 67, "tick": 100320, "length": 60, "velocity": 112}, {"pitch": 67, "tick": 100440, "length": 60, "velocity": 112}, {"pitch": 67, "tick": 100560, "length": 180, "velocity": 112}, {"pitch": 63, "tick": 100800, "length": 420, "velocity": 112}, {"pitch": 62, "tick": 101280, "length": 420, "velocity": 112}, {"pitch": 63, "tick": 101760, "length": 180, "velocity": 112}, {"pitch": 63, "tick": 102000, "length": 60, "velocity": 112}, {"pitch": 63, "tick": 102120, "length": 60, "velocity": 112}, {"pitch": 63, "tick": 102240, "length": 180, "velocity": 112}, {"pitch": 65, "tick": 102480, "length": 180, "velocity": 112}, {"pitch": 67, "tick": 102720, "length": 420, "velocity": 112}, {"pitch": 70, "tick": 103200, "length": 420, "velocity": 112}, {"pitch": 72, "tick": 103680, "length": 180, "velocity": 112}, {"pitch": 72, "tick": 103920, "length": 60, "velocity": 112}, {"pitch": 72, "tick": 104040, "length": 60, "velocity": 112}, {"pitch": 72, "tick": 104160, "length": 180, "velocity": 112}, {"pitch": 67, "tick": 104400, "length": 180, "velocity": 112}, {"pitch": 70, "tick": 104640, "length": 420, "velocity": 112}, {"pitch": 67, "tick": 105120, "length": 420, "velocity": 112}, {"pitch": 72, "tick": 105600, "length": 420, "velocity": 112}, {"pitch": 72, "tick": 106080, "length": 180, "velocity": 112}, {"pitch": 67, "tick": 106320, "length": 180, "velocity": 112}, {"pitch": 74, "tick": 106560, "length": 420, "velocity": 112}, {"pitch": 67, "tick": 107040, "length": 180, "velocity": 112}, {"pitch": 74, "tick": 107280, "length": 180, "velocity": 112}, {"pitch": 75, "tick": 107520, "length": 180, "velocity": 112}, {"pitch": 74, "tick": 107760, "length": 180, "velocity": 112}, {"pitch": 70, "tick": 108000, "length": 180, "velocity": 112}, {"pitch": 65, "tick": 108240, "length": 180, "velocity": 112}, {"pitch": 67, "tick": 108480, "length": 420, "velocity": 112}, {"pitch": 74, "tick": 108960, "length": 420, "velocity": 112}, {"pitch": 72, "tick": 109440, "length": 660, "velocity": 112}, {"pitch": 70, "tick": 110160, "length": 420, "velocity": 112}, {"pitch": 70, "tick": 110640, "length": 60, "velocity": 112}, {"pitch": 70, "tick": 110760, "length": 60, "velocity": 112}, {"pitch": 67, "tick": 110880, "length": 180, "velocity": 112}, {"pitch": 70, "tick": 111120, "length": 180, "velocity": 112}, {"pitch": 72, "tick": 111360, "length": 180, "velocity": 112}, {"pitch": 72, "tick": 111600, "length": 60, "velocity": 112}, {"pitch": 72, "tick": 111720, "length": 60, "velocity": 112}, {"pitch": 72, "tick": 111840, "length": 180, "velocity": 112}, {"pitch": 70, "tick": 112080, "length": 660, "velocity": 112}, {"pitch": 67, "tick": 112800, "length": 180, "velocity": 112}, {"pitch": 66, "tick": 113040, "length": 180, "velocity": 112}, {"pitch": 65, "tick": 113280, "length": 180, "velocity": 112}, {"pitch": 65, "tick": 113520, "length": 60, "velocity": 112}, {"pitch": 65, "tick": 113640, "length": 60, "velocity": 112}, {"pitch": 65, "tick": 113760, "length": 180, "velocity": 112}, {"pitch": 63, "tick": 114000, "length": 180, "velocity": 112}, {"pitch": 65, "tick": 114240, "length": 420, "velocity": 112}, {"pitch": 70, "tick": 114720, "length": 420, "velocity": 112}, {"pitch": 67, "tick": 115200, "length": 180, "velocity": 112}, {"pitch": 67, "tick": 115440, "length": 60, "velocity": 112}, {"pitch": 67, "tick": 115560, "length": 60, "velocity": 112}, {"pitch": 67, "tick": 115680, "length": 180, "velocity": 112}, {"pitch": 67, "tick": 115920, "length": 180, "velocity": 112}, {"pitch": 63, "tick": 116160, "length": 420, "velocity": 112}, {"pitch": 65, "tick": 116640, "length": 420, "velocity": 112}, {"pitch": 67, "tick": 117120, "length": 180, "velocity": 112}, {"pitch": 67, "tick": 117360, "length": 60, "velocity": 112}, {"pitch": 67, "tick": 117480, "length": 60, "velocity": 112}, {"pitch": 67, "tick": 117600, "length": 180, "velocity": 112}, {"pitch": 65, "tick": 117840, "length": 180, "velocity": 112}, {"pitch": 67, "tick": 118080, "length": 420, "velocity": 112}, {"pitch": 70, "tick": 118560, "length": 420, "velocity": 112}, {"pitch": 72, "tick": 119040, "length": 180, "velocity": 112}, {"pitch": 72, "tick": 119280, "length": 60, "velocity": 112}, {"pitch": 72, "tick": 119400, "length": 60, "velocity": 112}, {"pitch": 72, "tick": 119520, "length": 180, "velocity": 112}, {"pitch": 70, "tick": 119760, "length": 180, "velocity": 112}, {"pitch": 72, "tick": 120000, "length": 180, "velocity": 112}, {"pitch": 72, "tick": 120240, "length": 60, "velocity": 112}, {"pitch": 72, "tick": 120360, "length": 60, "velocity": 112}, {"pitch": 74, "tick": 120480, "length": 60, "velocity": 112}, {"pitch": 74, "tick": 120600, "length": 60, "velocity": 112}, {"pitch": 74, "tick": 120720, "length": 180, "velocity": 112}, {"pitch": 75, "tick": 120960, "length": 180, "velocity": 112}, {"pitch": 75, "tick": 121200, "length": 60, "velocity": 112}, {"pitch": 75, "tick": 121320, "length": 60, "velocity": 112}, {"pitch": 75, "tick": 121440, "length": 180, "velocity": 112}, {"pitch": 74, "tick": 121680, "length": 180, "velocity": 112}, {"pitch": 75, "tick": 121920, "length": 180, "velocity": 112}, {"pitch": 75, "tick": 122160, "length": 60, "velocity": 112}, {"pitch": 75, "tick": 122280, "length": 60, "velocity": 112}, {"pitch": 77, "tick": 122400, "length": 180, "velocity": 112}, {"pitch": 77, "tick": 122640, "length": 60, "velocity": 112}, {"pitch": 77, "tick": 122760, "length": 60, "velocity": 112}, {"pitch": 79, "tick": 122880, "length": 180, "velocity": 112}, {"pitch": 77, "tick": 123120, "length": 180, "velocity": 112}, {"pitch": 79, "tick": 123360, "length": 180, "velocity": 112}, {"pitch": 82, "tick": 123600, "length": 180, "velocity": 112}, {"pitch": 79, "tick": 123840, "length": 180, "velocity": 112}, {"pitch": 79, "tick": 124080, "length": 60, "velocity": 112}, {"pitch": 79, "tick": 124200, "length": 60, "velocity": 112}, {"pitch": 77, "tick": 124320, "length": 420, "velocity": 112}, {"pitch": 72, "tick": 124800, "length": 660, "velocity": 112}, {"pitch": 70, "tick": 125520, "length": 660, "velocity": 112}, {"pitch": 67, "tick": 126240, "length": 180, "velocity": 112}, {"pitch": 70, "tick": 126480, "length": 180, "velocity": 112}, {"pitch": 72, "tick": 126720, "length": 420, "velocity": 112}, {"pitch": 72, "tick": 127200, "length": 180, "velocity": 112}, {"pitch": 70, "tick": 127440, "length": 660, "velocity": 112}, {"pitch": 67, "tick": 128160, "length": 180, "velocity": 112}, {"pitch": 66, "tick": 128400, "length": 180, "velocity": 112}, {"pitch": 65, "tick": 128640, "length": 180, "velocity": 112}, {"pitch": 65, "tick": 128880, "length": 60, "velocity": 112}, {"pitch": 65, "tick": 129000, "length": 60, "velocity": 112}, {"pitch": 65, "tick": 129120, "length": 180, "velocity": 112}, {"pitch": 63, "tick": 129360, "length": 180, "velocity": 112}, {"pitch": 65, "tick": 129600, "length": 420, "velocity": 112}, {"pitch": 70, "tick": 130080, "length": 420, "velocity": 112}, {"pitch": 67, "tick": 130560, "length": 180, "velocity": 112}, {"pitch": 67, "tick": 130800, "length": 60, "velocity": 112}, {"pitch": 67, "tick": 130920, "length": 60, "velocity": 112}, {"pitch": 67, "tick": 131040, "length": 60, "velocity": 112}, {"pitch": 67, "tick": 131160, "length": 60, "velocity": 112}, {"pitch": 67, "tick": 131280, "length": 180, "velocity": 112}, {"pitch": 63, "tick": 131520, "length": 420, "velocity": 112}, {"pitch": 62, "tick": 132000, "length": 420, "velocity": 112}, {"pitch": 63, "tick": 132480, "length": 180, "velocity": 112}, {"pitch": 63, "tick": 132720, "length": 60, "velocity": 112}, {"pitch": 63, "tick": 132840, "length": 60, "velocity": 112}, {"pitch": 63, "tick": 132960, "length": 180, "velocity": 112}, {"pitch": 65, "tick": 133200, "length": 180, "velocity": 112}, {"pitch": 67, "tick": 133440, "length": 420, "velocity": 112}, {"pitch": 70, "tick": 133920, "length": 420, "velocity": 112}, {"pitch": 72, "tick": 134400, "length": 180, "velocity": 112}, {"pitch": 72, "tick": 134640, "length": 60, "velocity": 112}, {"pitch": 72, "tick": 134760, "length": 60, "velocity": 112}, {"pitch": 72, "tick": 134880, "length": 180, "velocity": 112}, {"pitch": 67, "tick": 135120, "length": 180, "velocity": 112}, {"pitch": 70, "tick": 135360, "length": 420, "velocity": 112}, {"pitch": 67, "tick": 135840, "length": 420, "velocity": 112}, {"pitch": 72, "tick": 136320, "length": 420, "velocity": 112}, {"pitch": 72, "tick": 136800, "length": 180, "velocity": 112}, {"pitch": 67, "tick": 137040, "length": 180, "velocity": 112}, {"pitch": 74, "tick": 137280, "length": 420, "velocity": 112}, {"pitch": 67, "tick": 137760, "length": 180, "velocity": 112}, {"pitch": 74, "tick": 138000, "length": 180, "velocity": 112}, {"pitch": 75, "tick": 138240, "length": 180, "velocity": 112}, {"pitch": 74, "tick": 138480, "length": 180, "velocity": 112}, {"pitch": 70, "tick": 138720, "length": 180, "velocity": 112}, {"pitch": 65, "tick": 138960, "length": 180, "velocity": 112}, {"pitch": 67, "tick": 139200, "length": 420, "velocity": 112}, {"pitch": 74, "tick": 139680, "length": 420, "velocity": 112}, {"pitch": 72, "tick": 140160, "length": 660, "velocity": 112}, {"pitch": 70, "tick": 140880, "length": 420, "velocity": 112}, {"pitch": 70, "tick": 141360, "length": 60, "velocity": 112}, {"pitch": 70, "tick": 141480, "length": 60, "velocity": 112}, {"pitch": 67, "tick": 141600, "length": 180, "velocity": 112}, {"pitch": 70, "tick": 141840, "length": 180, "velocity": 112}, {"pitch": 72, "tick": 142080, "length": 180, "velocity": 112}, {"pitch": 72, "tick": 142320, "length": 60, "velocity": 112}, {"pitch": 72, "tick": 142440, "length": 60, "velocity": 112}, {"pitch": 72, "tick": 142560, "length": 180, "velocity": 112}, {"pitch": 70, "tick": 142800, "length": 660, "velocity": 112}, {"pitch": 67, "tick": 143520, "length": 180, "velocity": 112}, {"pitch": 66, "tick": 143760, "length": 180, "velocity": 112}, {"pitch": 65, "tick": 144000, "length": 180, "velocity": 112}, {"pitch": 65, "tick": 144240, "length": 60, "velocity": 112}, {"pitch": 65, "tick": 144360, "length": 60, "velocity": 112}, {"pitch": 65, "tick": 144480, "length": 180, "velocity": 112}, {"pitch": 63, "tick": 144720, "length": 180, "velocity": 112}, {"pitch": 65, "tick": 144960, "length": 420, "velocity": 112}, {"pitch": 70, "tick": 145440, "length": 420, "velocity": 112}, {"pitch": 67, "tick": 145920, "length": 180, "velocity": 112}, {"pitch": 67, "tick": 146160, "length": 60, "velocity": 112}, {"pitch": 67, "tick": 146280, "length": 60, "velocity": 112}, {"pitch": 67, "tick": 146400, "length": 180, "velocity": 112}, {"pitch": 67, "tick": 146640, "length": 180, "velocity": 112}, {"pitch": 63, "tick": 146880, "length": 420, "velocity": 112}, {"pitch": 65, "tick": 147360, "length": 420, "velocity": 112}, {"pitch": 67, "tick": 147840, "length": 180, "velocity": 112}, {"pitch": 67, "tick": 148080, "length": 60, "velocity": 112}, {"pitch": 67, "tick": 148200, "length": 60, "velocity": 112}, {"pitch": 67, "tick": 148320, "length": 180, "velocity": 112}, {"pitch": 65, "tick": 148560, "length": 180, "velocity": 112}, {"pitch": 67, "tick": 148800, "length": 420, "velocity": 112}, {"pitch": 70, "tick": 149280, "length": 420, "velocity": 112}, {"pitch": 72, "tick": 149760, "length": 180, "velocity": 112}, {"pitch": 72, "tick": 150000, "length": 60, "velocity": 112}, {"pitch": 72, "tick": 150120, "length": 60, "velocity": 112}, {"pitch": 72, "tick": 150240, "length": 180, "velocity": 112}, {"pitch": 70, "tick": 150480, "length": 180, "velocity": 112}, {"pitch": 72, "tick": 150720, "length": 180, "velocity": 112}, {"pitch": 72, "tick": 150960, "length": 60, "velocity": 112}, {"pitch": 72, "tick": 151080, "length": 60, "velocity": 112}, {"pitch": 74, "tick": 151200, "length": 60, "velocity": 112}, {"pitch": 74, "tick": 151320, "length": 60, "velocity": 112}, {"pitch": 74, "tick": 151440, "length": 180, "velocity": 112}, {"pitch": 75, "tick": 151680, "length": 180, "velocity": 112}, {"pitch": 75, "tick": 151920, "length": 60, "velocity": 112}, {"pitch": 75, "tick": 152040, "length": 60, "velocity": 112}, {"pitch": 75, "tick": 152160, "length": 180, "velocity": 112}, {"pitch": 74, "tick": 152400, "length": 180, "velocity": 112}, {"pitch": 75, "tick": 152640, "length": 180, "velocity": 112}, {"pitch": 75, "tick": 152880, "length": 60, "velocity": 112}, {"pitch": 75, "tick": 153000, "length": 60, "velocity": 112}, {"pitch": 77, "tick": 153120, "length": 180, "velocity": 112}, {"pitch": 77, "tick": 153360, "length": 60, "velocity": 112}, {"pitch": 77, "tick": 153480, "length": 60, "velocity": 112}, {"pitch": 79, "tick": 153600, "length": 180, "velocity": 112}, {"pitch": 77, "tick": 153840, "length": 180, "velocity": 112}, {"pitch": 79, "tick": 154080, "length": 180, "velocity": 112}, {"pitch": 82, "tick": 154320, "length": 180, "velocity": 112}, {"pitch": 79, "tick": 154560, "length": 180, "velocity": 112}, {"pitch": 79, "tick": 154800, "length": 60, "velocity": 112}, {"pitch": 79, "tick": 154920, "length": 60, "velocity": 112}, {"pitch": 77, "tick": 155040, "length": 420, "velocity": 112}, {"pitch": 75, "tick": 155520, "length": 960, "velocity": 112}, {"pitch": 72, "tick": 155520, "length": 960, "velocity": 96}, {"pitch": 74, "tick": 156480, "length": 480, "velocity": 112}, {"pitch": 70, "tick": 156480, "length": 480, "velocity": 96}, {"pitch": 75, "tick": 156960, "length": 480, "velocity": 112}, {"pitch": 72, "tick": 156960, "length": 480, "velocity": 96}, {"pitch": 77, "tick": 157440, "length": 960, "velocity": 112}, {"pitch": 70, "tick": 157440, "length": 960, "velocity": 96}, {"pitch": 75, "tick": 158400, "length": 480, "velocity": 112}, {"pitch": 70, "tick": 158400, "length": 480, "velocity": 96}, {"pitch": 77, "tick": 158880, "length": 480, "velocity": 112}, {"pitch": 70, "tick": 158880, "length": 480, "velocity": 96}, {"pitch": 79, "tick": 159360, "length": 660, "velocity": 112}, {"pitch": 72, "tick": 159360, "length": 660, "velocity": 96}, {"pitch": 79, "tick": 160080, "length": 180, "velocity": 112}, {"pitch": 72, "tick": 160080, "length": 180, "velocity": 96}, {"pitch": 79, "tick": 160320, "length": 60, "velocity": 112}, {"pitch": 72, "tick": 160320, "length": 60, "velocity": 96}, {"pitch": 79, "tick": 160440, "length": 60, "velocity": 112}, {"pitch": 72, "tick": 160440, "length": 60, "velocity": 96}, {"pitch": 79, "tick": 160560, "length": 180, "velocity": 112}, {"pitch": 72, "tick": 160560, "length": 180, "velocity": 96}, {"pitch": 82, "tick": 160800, "length": 60, "velocity": 112}, {"pitch": 77, "tick": 160800, "length": 60, "velocity": 96}, {"pitch": 82, "tick": 160920, "length": 60, "velocity": 112}, {"pitch": 77, "tick": 160920, "length": 60, "velocity": 96}, {"pitch": 82, "tick": 161040, "length": 180, "velocity": 112}, {"pitch": 77, "tick": 161040, "length": 180, "velocity": 96}, {"pitch": 84, "tick": 161280, "length": 480, "velocity": 112}, {"pitch": 79, "tick": 161280, "length": 480, "velocity": 96}, {"pitch": 82, "tick": 161760, "length": 480, "velocity": 112}, {"pitch": 77, "tick": 161760, "length": 480, "velocity": 96}, {"pitch": 79, "tick": 162240, "length": 480, "velocity": 112}, {"pitch": 75, "tick": 162240, "length": 480, "velocity": 96}, {"pitch": 77, "tick": 162720, "length": 480, "velocity": 112}, {"pitch": 72, "tick": 162720, "length": 480, "velocity": 96}, {"pitch": 75, "tick": 163200, "length": 660, "velocity": 112}, {"pitch": 72, "tick": 163200, "length": 660, "velocity": 96}, {"pitch": 75, "tick": 163920, "length": 60, "velocity": 112}, {"pitch": 72, "tick": 163920, "length": 60, "velocity": 96}, {"pitch": 75, "tick": 164040, "length": 60, "velocity": 112}, {"pitch": 72, "tick": 164040, "length": 60, "velocity": 96}, {"pitch": 75, "tick": 164160, "length": 180, "velocity": 112}, {"pitch": 72, "tick": 164160, "length": 180, "velocity": 96}, {"pitch": 75, "tick": 164400, "length": 60, "velocity": 112}, {"pitch": 72, "tick": 164400, "length": 60, "velocity": 96}, {"pitch": 75, "tick": 164520, "length": 60, "velocity": 112}, {"pitch": 72, "tick": 164520, "length": 60, "velocity": 96}, {"pitch": 74, "tick": 164640, "length": 480, "velocity": 112}, {"pitch": 70, "tick": 164640, "length": 480, "velocity": 96}, {"pitch": 72, "tick": 165120, "length": 480, "velocity": 112}, {"pitch": 65, "tick": 165120, "length": 480, "velocity": 96}, {"pitch": 74, "tick": 165600, "length": 240, "velocity": 112}, {"pitch": 70, "tick": 165600, "length": 240, "velocity": 96}, {"pitch": 75, "tick": 165840, "length": 240, "velocity": 112}, {"pitch": 72, "tick": 165840, "length": 240, "velocity": 96}, {"pitch": 74, "tick": 166080, "length": 480, "velocity": 112}, {"pitch": 70, "tick": 166080, "length": 480, "velocity": 96}, {"pitch": 70, "tick": 166560, "length": 480, "velocity": 112}, {"pitch": 65, "tick": 166560, "length": 480, "velocity": 96}, {"pitch": 72, "tick": 167040, "length": 660, "velocity": 112}, {"pitch": 67, "tick": 167040, "length": 660, "velocity": 96}, {"pitch": 72, "tick": 167760, "length": 180, "velocity": 112}, {"pitch": 67, "tick": 167760, "length": 180, "velocity": 96}, {"pitch": 72, "tick": 168000, "length": 60, "velocity": 112}, {"pitch": 67, "tick": 168000, "length": 60, "velocity": 96}, {"pitch": 72, "tick": 168120, "length": 60, "velocity": 112}, {"pitch": 67, "tick": 168120, "length": 60, "velocity": 96}, {"pitch": 72, "tick": 168240, "length": 180, "velocity": 112}, {"pitch": 67, "tick": 168240, "length": 180, "velocity": 96}, {"pitch": 74, "tick": 168480, "length": 180, "velocity": 112}, {"pitch": 70, "tick": 168480, "length": 180, "velocity": 96}, {"pitch": 74, "tick": 168720, "length": 60, "velocity": 112}, {"pitch": 70, "tick": 168720, "length": 60, "velocity": 96}, {"pitch": 74, "tick": 168840, "length": 60, "velocity": 112}, {"pitch": 70, "tick": 168840, "length": 60, "velocity": 96}, {"pitch": 75, "tick": 168960, "length": 60, "velocity": 112}, {"pitch": 72, "tick": 168960, "length": 60, "velocity": 96}, {"pitch": 75, "tick": 169080, "length": 60, "velocity": 112}, {"pitch": 72, "tick": 169080, "length": 60, "velocity": 96}, {"pitch": 75, "tick": 169200, "length": 180, "velocity": 112}, {"pitch": 72, "tick": 169200, "length": 180, "velocity": 96}, {"pitch": 74, "tick": 169440, "length": 240, "velocity": 112}, {"pitch": 70, "tick": 169440, "length": 240, "velocity": 96}, {"pitch": 75, "tick": 169680, "length": 120, "velocity": 112}, {"pitch": 72, "tick": 169680, "length": 120, "velocity": 96}, {"pitch": 77, "tick": 169800, "length": 120, "velocity": 112}, {"pitch": 74, "tick": 169800, "length": 120, "velocity": 96}, {"pitch": 79, "tick": 169920, "length": 480, "velocity": 112}, {"pitch": 75, "tick": 169920, "length": 480, "velocity": 96}, {"pitch": 82, "tick": 170400, "length": 480, "velocity": 112}, {"pitch": 79, "tick": 170400, "length": 480, "velocity": 96}, {"pitch": 84, "tick": 170880, "length": 420, "velocity": 112}, {"pitch": 77, "tick": 170880, "length": 420, "velocity": 96}, {"pitch": 84, "tick": 171360, "length": 60, "velocity": 112}, {"pitch": 77, "tick": 171360, "length": 60, "velocity": 96}, {"pitch": 84, "tick": 171480, "length": 60, "velocity": 112}, {"pitch": 77, "tick": 171480, "length": 60, "velocity": 96}, {"pitch": 84, "tick": 171600, "length": 180, "velocity": 112}, {"pitch": 77, "tick": 171600, "length": 180, "velocity": 96}, {"pitch": 84, "tick": 171840, "length": 60, "velocity": 112}, {"pitch": 77, "tick": 171840, "length": 60, "velocity": 96}, {"pitch": 84, "tick": 171960, "length": 60, "velocity": 112}, {"pitch": 77, "tick": 171960, "length": 60, "velocity": 96}, {"pitch": 84, "tick": 172080, "length": 180, "velocity": 112}, {"pitch": 77, "tick": 172080, "length": 180, "velocity": 96}, {"pitch": 82, "tick": 172320, "length": 480, "velocity": 112}, {"pitch": 77, "tick": 172320, "length": 480, "velocity": 96}, {"pitch": 79, "tick": 172800, "length": 240, "velocity": 112}, {"pitch": 75, "tick": 172800, "length": 240, "velocity": 96}, {"pitch": 77, "tick": 173040, "length": 240, "velocity": 112}, {"pitch": 72, "tick": 173040, "length": 240, "velocity": 96}, {"pitch": 79, "tick": 173280, "length": 240, "velocity": 112}, {"pitch": 75, "tick": 173280, "length": 240, "velocity": 96}, {"pitch": 82, "tick": 173520, "length": 240, "velocity": 112}, {"pitch": 77, "tick": 173520, "length": 240, "velocity": 96}, {"pitch": 79, "tick": 173760, "length": 480, "velocity": 112}, {"pitch": 75, "tick": 173760, "length": 480, "velocity": 96}, {"pitch": 77, "tick": 174240, "length": 480, "velocity": 112}, {"pitch": 72, "tick": 174240, "length": 480, "velocity": 96}, {"pitch": 75, "tick": 174720, "length": 420, "velocity": 112}, {"pitch": 72, "tick": 174720, "length": 420, "velocity": 96}, {"pitch": 75, "tick": 175200, "length": 180, "velocity": 112}, {"pitch": 72, "tick": 175200, "length": 180, "velocity": 96}, {"pitch": 75, "tick": 175440, "length": 60, "velocity": 112}, {"pitch": 72, "tick": 175440, "length": 60, "velocity": 96}, {"pitch": 75, "tick": 175560, "length": 60, "velocity": 112}, {"pitch": 72, "tick": 175560, "length": 60, "velocity": 96}, {"pitch": 75, "tick": 175680, "length": 60, "velocity": 112}, {"pitch": 72, "tick": 175680, "length": 60, "velocity": 96}, {"pitch": 75, "tick": 175800, "length": 60, "velocity": 112}, {"pitch": 72, "tick": 175800, "length": 60, "velocity": 96}, {"pitch": 75, "tick": 175920, "length": 180, "velocity": 112}, {"pitch": 72, "tick": 175920, "length": 180, "velocity": 96}, {"pitch": 72, "tick": 176160, "length": 240, "velocity": 112}, {"pitch": 67, "tick": 176160, "length": 240, "velocity": 96}, {"pitch": 75, "tick": 176400, "length": 240, "velocity": 112}, {"pitch": 70, "tick": 176400, "length": 240, "velocity": 96}, {"pitch": 77, "tick": 176640, "length": 240, "velocity": 112}, {"pitch": 73, "tick": 176640, "length": 240, "velocity": 96}, {"pitch": 75, "tick": 176880, "length": 240, "velocity": 112}, {"pitch": 72, "tick": 176880, "length": 240, "velocity": 96}, {"pitch": 77, "tick": 177120, "length": 240, "velocity": 112}, {"pitch": 73, "tick": 177120, "length": 240, "velocity": 96}, {"pitch": 79, "tick": 177360, "length": 240, "velocity": 112}, {"pitch": 75, "tick": 177360, "length": 240, "velocity": 112}, {"pitch": 77, "tick": 177600, "length": 480, "velocity": 112}, {"pitch": 73, "tick": 177600, "length": 480, "velocity": 96}, {"pitch": 75, "tick": 178080, "length": 480, "velocity": 112}, {"pitch": 70, "tick": 178080, "length": 480, "velocity": 96}, {"pitch": 72, "tick": 178560, "length": 420, "velocity": 112}, {"pitch": 67, "tick": 178560, "length": 420, "velocity": 96}, {"pitch": 72, "tick": 179040, "length": 60, "velocity": 112}, {"pitch": 67, "tick": 179040, "length": 60, "velocity": 96}, {"pitch": 72, "tick": 179160, "length": 60, "velocity": 112}, {"pitch": 67, "tick": 179160, "length": 60, "velocity": 96}, {"pitch": 72, "tick": 179280, "length": 180, "velocity": 112}, {"pitch": 67, "tick": 179280, "length": 180, "velocity": 96}, {"pitch": 70, "tick": 179520, "length": 180, "velocity": 112}, {"pitch": 67, "tick": 179520, "length": 180, "velocity": 96}, {"pitch": 70, "tick": 179760, "length": 60, "velocity": 112}, {"pitch": 67, "tick": 179760, "length": 60, "velocity": 96}, {"pitch": 70, "tick": 179880, "length": 60, "velocity": 112}, {"pitch": 67, "tick": 179880, "length": 60, "velocity": 96}, {"pitch": 67, "tick": 180000, "length": 120, "velocity": 112}, {"pitch": 63, "tick": 180000, "length": 120, "velocity": 96}, {"pitch": 67, "tick": 180120, "length": 120, "velocity": 112}, {"pitch": 63, "tick": 180120, "length": 120, "velocity": 96}, {"pitch": 70, "tick": 180240, "length": 240, "velocity": 112}, {"pitch": 67, "tick": 180240, "length": 240, "velocity": 96}, {"pitch": 72, "tick": 180480, "length": 480, "velocity": 112}, {"pitch": 67, "tick": 180480, "length": 480, "velocity": 96}, {"pitch": 74, "tick": 180960, "length": 240, "velocity": 112}, {"pitch": 70, "tick": 180960, "length": 240, "velocity": 96}, {"pitch": 75, "tick": 181200, "length": 240, "velocity": 112}, {"pitch": 72, "tick": 181200, "length": 240, "velocity": 96}, {"pitch": 74, "tick": 181440, "length": 480, "velocity": 112}, {"pitch": 70, "tick": 181440, "length": 480, "velocity": 96}, {"pitch": 70, "tick": 181920, "length": 480, "velocity": 112}, {"pitch": 67, "tick": 181920, "length": 480, "velocity": 96}, {"pitch": 72, "tick": 182400, "length": 420, "velocity": 112}, {"pitch": 65, "tick": 182400, "length": 420, "velocity": 96}, {"pitch": 72, "tick": 182880, "length": 60, "velocity": 112}, {"pitch": 65, "tick": 182880, "length": 60, "velocity": 96}, {"pitch": 72, "tick": 183000, "length": 60, "velocity": 112}, {"pitch": 65, "tick": 183000, "length": 60, "velocity": 96}, {"pitch": 72, "tick": 183120, "length": 180, "velocity": 112}, {"pitch": 65, "tick": 183120, "length": 180, "velocity": 96}, {"pitch": 72, "tick": 183360, "length": 180, "velocity": 112}, {"pitch": 65, "tick": 183360, "length": 180, "velocity": 96}, {"pitch": 72, "tick": 183600, "length": 60, "velocity": 112}, {"pitch": 65, "tick": 183600, "length": 60, "velocity": 96}, {"pitch": 72, "tick": 183720, "length": 60, "velocity": 112}, {"pitch": 65, "tick": 183720, "length": 60, "velocity": 96}, {"pitch": 72, "tick": 183840, "length": 60, "velocity": 112}, {"pitch": 65, "tick": 183840, "length": 60, "velocity": 96}, {"pitch": 72, "tick": 183960, "length": 60, "velocity": 112}, {"pitch": 65, "tick": 183960, "length": 60, "velocity": 96}, {"pitch": 72, "tick": 184080, "length": 180, "velocity": 112}, {"pitch": 65, "tick": 184080, "length": 180, "velocity": 96}, {"pitch": 67, "tick": 184320, "length": 180, "velocity": 112}, {"pitch": 63, "tick": 184320, "length": 180, "velocity": 96}, {"pitch": 67, "tick": 184560, "length": 60, "velocity": 112}, {"pitch": 63, "tick": 184560, "length": 60, "velocity": 96}, {"pitch": 67, "tick": 184680, "length": 60, "velocity": 112}, {"pitch": 63, "tick": 184680, "length": 60, "velocity": 96}, {"pitch": 67, "tick": 184800, "length": 60, "velocity": 112}, {"pitch": 63, "tick": 184800, "length": 60, "velocity": 96}, {"pitch": 67, "tick": 184920, "length": 60, "velocity": 112}, {"pitch": 63, "tick": 184920, "length": 60, "velocity": 96}, {"pitch": 67, "tick": 185040, "length": 180, "velocity": 112}, {"pitch": 63, "tick": 185040, "length": 180, "velocity": 96}, {"pitch": 72, "tick": 185280, "length": 480, "velocity": 112}, {"pitch": 67, "tick": 185280, "length": 480, "velocity": 96}, {"pitch": 74, "tick": 185760, "length": 480, "velocity": 112}, {"pitch": 70, "tick": 185760, "length": 480, "velocity": 96}, {"pitch": 75, "tick": 186240, "length": 960, "velocity": 112}, {"pitch": 72, "tick": 186240, "length": 960, "velocity": 96}, {"pitch": 74, "tick": 187200, "length": 480, "velocity": 112}, {"pitch": 70, "tick": 187200, "length": 480, "velocity": 96}, {"pitch": 75, "tick": 187680, "length": 480, "velocity": 112}, {"pitch": 72, "tick": 187680, "length": 480, "velocity": 96}, {"pitch": 77, "tick": 188160, "length": 960, "velocity": 112}, {"pitch": 70, "tick": 188160, "length": 960, "velocity": 96}, {"pitch": 75, "tick": 189120, "length": 480, "velocity": 112}, {"pitch": 70, "tick": 189120, "length": 480, "velocity": 96}, {"pitch": 77, "tick": 189600, "length": 480, "velocity": 112}, {"pitch": 70, "tick": 189600, "length": 480, "velocity": 96}, {"pitch": 79, "tick": 190080, "length": 660, "velocity": 112}, {"pitch": 72, "tick": 190080, "length": 660, "velocity": 96}, {"pitch": 79, "tick": 190800, "length": 180, "velocity": 112}, {"pitch": 72, "tick": 190800, "length": 180, "velocity": 96}, {"pitch": 79, "tick": 191040, "length": 60, "velocity": 112}, {"pitch": 72, "tick": 191040, "length": 60, "velocity": 96}, {"pitch": 79, "tick": 191160, "length": 60, "velocity": 112}, {"pitch": 72, "tick": 191160, "length": 60, "velocity": 96}, {"pitch": 79, "tick": 191280, "length": 180, "velocity": 112}, {"pitch": 72, "tick": 191280, "length": 180, "velocity": 96}, {"pitch": 82, "tick": 191520, "length": 60, "velocity": 112}, {"pitch": 77, "tick": 191520, "length": 60, "velocity": 96}, {"pitch": 82, "tick": 191640, "length": 60, "velocity": 112}, {"pitch": 77, "tick": 191640, "length": 60, "velocity": 96}, {"pitch": 82, "tick": 191760, "length": 180, "velocity": 112}, {"pitch": 77, "tick": 191760, "length": 180, "velocity": 96}, {"pitch": 84, "tick": 192000, "length": 480, "velocity": 112}, {"pitch": 79, "tick": 192000, "length": 480, "velocity": 96}, {"pitch": 82, "tick": 192480, "length": 480, "velocity": 112}, {"pitch": 77, "tick": 192480, "length": 480, "velocity": 96}, {"pitch": 79, "tick": 192960, "length": 480, "velocity": 112}, {"pitch": 75, "tick": 192960, "length": 480, "velocity": 96}, {"pitch": 77, "tick": 193440, "length": 480, "velocity": 112}, {"pitch": 72, "tick": 193440, "length": 480, "velocity": 96}, {"pitch": 75, "tick": 193920, "length": 660, "velocity": 112}, {"pitch": 72, "tick": 193920, "length": 660, "velocity": 96}, {"pitch": 75, "tick": 194640, "length": 60, "velocity": 112}, {"pitch": 72, "tick": 194640, "length": 60, "velocity": 96}, {"pitch": 75, "tick": 194760, "length": 60, "velocity": 112}, {"pitch": 72, "tick": 194760, "length": 60, "velocity": 96}, {"pitch": 75, "tick": 194880, "length": 180, "velocity": 112}, {"pitch": 72, "tick": 194880, "length": 180, "velocity": 96}, {"pitch": 75, "tick": 195120, "length": 60, "velocity": 112}, {"pitch": 72, "tick": 195120, "length": 60, "velocity": 96}, {"pitch": 75, "tick": 195240, "length": 60, "velocity": 112}, {"pitch": 72, "tick": 195240, "length": 60, "velocity": 96}, {"pitch": 74, "tick": 195360, "length": 480, "velocity": 112}, {"pitch": 70, "tick": 195360, "length": 480, "velocity": 96}, {"pitch": 72, "tick": 195840, "length": 480, "velocity": 112}, {"pitch": 65, "tick": 195840, "length": 480, "velocity": 96}, {"pitch": 74, "tick": 196320, "length": 240, "velocity": 112}, {"pitch": 70, "tick": 196320, "length": 240, "velocity": 96}, {"pitch": 75, "tick": 196560, "length": 240, "velocity": 112}, {"pitch": 72, "tick": 196560, "length": 240, "velocity": 96}, {"pitch": 74, "tick": 196800, "length": 480, "velocity": 112}, {"pitch": 70, "tick": 196800, "length": 480, "velocity": 96}, {"pitch": 70, "tick": 197280, "length": 480, "velocity": 112}, {"pitch": 65, "tick": 197280, "length": 480, "velocity": 96}, {"pitch": 72, "tick": 197760, "length": 660, "velocity": 112}, {"pitch": 67, "tick": 197760, "length": 660, "velocity": 96}, {"pitch": 72, "tick": 198480, "length": 180, "velocity": 112}, {"pitch": 67, "tick": 198480, "length": 180, "velocity": 96}, {"pitch": 72, "tick": 198720, "length": 60, "velocity": 112}, {"pitch": 67, "tick": 198720, "length": 60, "velocity": 96}, {"pitch": 72, "tick": 198840, "length": 60, "velocity": 112}, {"pitch": 67, "tick": 198840, "length": 60, "velocity": 96}, {"pitch": 72, "tick": 198960, "length": 180, "velocity": 112}, {"pitch": 67, "tick": 198960, "length": 180, "velocity": 96}, {"pitch": 74, "tick": 199200, "length": 180, "velocity": 112}, {"pitch": 70, "tick": 199200, "length": 180, "velocity": 96}, {"pitch": 74, "tick": 199440, "length": 60, "velocity": 112}, {"pitch": 70, "tick": 199440, "length": 60, "velocity": 96}, {"pitch": 74, "tick": 199560, "length": 60, "velocity": 112}, {"pitch": 70, "tick": 199560, "length": 60, "velocity": 96}, {"pitch": 75, "tick": 199680, "length": 60, "velocity": 112}, {"pitch": 72, "tick": 199680, "length": 60, "velocity": 96}, {"pitch": 75, "tick": 199800, "length": 60, "velocity": 112}, {"pitch": 72, "tick": 199800, "length": 60, "velocity": 96}, {"pitch": 75, "tick": 199920, "length": 180, "velocity": 112}, {"pitch": 72, "tick": 199920, "length": 180, "velocity": 96}, {"pitch": 74, "tick": 200160, "length": 240, "velocity": 112}, {"pitch": 70, "tick": 200160, "length": 240, "velocity": 96}, {"pitch": 75, "tick": 200400, "length": 120, "velocity": 112}, {"pitch": 72, "tick": 200400, "length": 120, "velocity": 96}, {"pitch": 77, "tick": 200520, "length": 120, "velocity": 112}, {"pitch": 74, "tick": 200520, "length": 120, "velocity": 96}, {"pitch": 79, "tick": 200640, "length": 480, "velocity": 112}, {"pitch": 75, "tick": 200640, "length": 480, "velocity": 96}, {"pitch": 82, "tick": 201120, "length": 480, "velocity": 112}, {"pitch": 79, "tick": 201120, "length": 480, "velocity": 96}, {"pitch": 84, "tick": 201600, "length": 420, "velocity": 112}, {"pitch": 77, "tick": 201600, "length": 420, "velocity": 96}, {"pitch": 84, "tick": 202080, "length": 60, "velocity": 112}, {"pitch": 77, "tick": 202080, "length": 60, "velocity": 96}, {"pitch": 84, "tick": 202200, "length": 60, "velocity": 112}, {"pitch": 77, "tick": 202200, "length": 60, "velocity": 96}, {"pitch": 84, "tick": 202320, "length": 180, "velocity": 112}, {"pitch": 77, "tick": 202320, "length": 180, "velocity": 96}, {"pitch": 84, "tick": 202560, "length": 60, "velocity": 112}, {"pitch": 77, "tick": 202560, "length": 60, "velocity": 96}, {"pitch": 84, "tick": 202680, "length": 60, "velocity": 112}, {"pitch": 77, "tick": 202680, "length": 60, "velocity": 96}, {"pitch": 84, "tick": 202800, "length": 180, "velocity": 112}, {"pitch": 77, "tick": 202800, "length": 180, "velocity": 96}, {"pitch": 82, "tick": 203040, "length": 480, "velocity": 112}, {"pitch": 77, "tick": 203040, "length": 480, "velocity": 96}, {"pitch": 79, "tick": 203520, "length": 240, "velocity": 112}, {"pitch": 75, "tick": 203520, "length": 240, "velocity": 96}, {"pitch": 77, "tick": 203760, "length": 240, "velocity": 112}, {"pitch": 72, "tick": 203760, "length": 240, "velocity": 96}, {"pitch": 79, "tick": 204000, "length": 240, "velocity": 112}, {"pitch": 75, "tick": 204000, "length": 240, "velocity": 96}, {"pitch": 82, "tick": 204240, "length": 240, "velocity": 112}, {"pitch": 77, "tick": 204240, "length": 240, "velocity": 96}, {"pitch": 79, "tick": 204480, "length": 480, "velocity": 112}, {"pitch": 75, "tick": 204480, "length": 480, "velocity": 96}, {"pitch": 77, "tick": 204960, "length": 480, "velocity": 112}, {"pitch": 72, "tick": 204960, "length": 480, "velocity": 96}, {"pitch": 75, "tick": 205440, "length": 420, "velocity": 112}, {"pitch": 72, "tick": 205440, "length": 420, "velocity": 96}, {"pitch": 75, "tick": 205920, "length": 180, "velocity": 112}, {"pitch": 72, "tick": 205920, "length": 180, "velocity": 96}, {"pitch": 75, "tick": 206160, "length": 60, "velocity": 112}, {"pitch": 72, "tick": 206160, "length": 60, "velocity": 96}, {"pitch": 75, "tick": 206280, "length": 60, "velocity": 112}, {"pitch": 72, "tick": 206280, "length": 60, "velocity": 96}, {"pitch": 75, "tick": 206400, "length": 60, "velocity": 112}, {"pitch": 72, "tick": 206400, "length": 60, "velocity": 96}, {"pitch": 75, "tick": 206520, "length": 60, "velocity": 112}, {"pitch": 72, "tick": 206520, "length": 60, "velocity": 96}, {"pitch": 75, "tick": 206640, "length": 180, "velocity": 112}, {"pitch": 72, "tick": 206640, "length": 180, "velocity": 96}, {"pitch": 72, "tick": 206880, "length": 240, "velocity": 112}, {"pitch": 67, "tick": 206880, "length": 240, "velocity": 96}, {"pitch": 75, "tick": 207120, "length": 240, "velocity": 112}, {"pitch": 70, "tick": 207120, "length": 240, "velocity": 96}, {"pitch": 77, "tick": 207360, "length": 240, "velocity": 112}, {"pitch": 73, "tick": 207360, "length": 240, "velocity": 96}, {"pitch": 75, "tick": 207600, "length": 240, "velocity": 112}, {"pitch": 72, "tick": 207600, "length": 240, "velocity": 96}, {"pitch": 77, "tick": 207840, "length": 240, "velocity": 112}, {"pitch": 73, "tick": 207840, "length": 240, "velocity": 96}, {"pitch": 79, "tick": 208080, "length": 240, "velocity": 112}, {"pitch": 75, "tick": 208080, "length": 240, "velocity": 112}, {"pitch": 77, "tick": 208320, "length": 480, "velocity": 112}, {"pitch": 73, "tick": 208320, "length": 480, "velocity": 96}, {"pitch": 75, "tick": 208800, "length": 480, "velocity": 112}, {"pitch": 70, "tick": 208800, "length": 480, "velocity": 96}, {"pitch": 72, "tick": 209280, "length": 420, "velocity": 112}, {"pitch": 67, "tick": 209280, "length": 420, "velocity": 96}, {"pitch": 72, "tick": 209760, "length": 60, "velocity": 112}, {"pitch": 67, "tick": 209760, "length": 60, "velocity": 96}, {"pitch": 72, "tick": 209880, "length": 60, "velocity": 112}, {"pitch": 67, "tick": 209880, "length": 60, "velocity": 96}, {"pitch": 72, "tick": 210000, "length": 180, "velocity": 112}, {"pitch": 67, "tick": 210000, "length": 180, "velocity": 96}, {"pitch": 70, "tick": 210240, "length": 180, "velocity": 112}, {"pitch": 67, "tick": 210240, "length": 180, "velocity": 96}, {"pitch": 70, "tick": 210480, "length": 60, "velocity": 112}, {"pitch": 67, "tick": 210480, "length": 60, "velocity": 96}, {"pitch": 70, "tick": 210600, "length": 60, "velocity": 112}, {"pitch": 67, "tick": 210600, "length": 60, "velocity": 96}, {"pitch": 67, "tick": 210720, "length": 120, "velocity": 112}, {"pitch": 63, "tick": 210720, "length": 120, "velocity": 96}, {"pitch": 67, "tick": 210840, "length": 120, "velocity": 112}, {"pitch": 63, "tick": 210840, "length": 120, "velocity": 96}, {"pitch": 70, "tick": 210960, "length": 240, "velocity": 112}, {"pitch": 67, "tick": 210960, "length": 240, "velocity": 96}, {"pitch": 72, "tick": 211200, "length": 480, "velocity": 112}, {"pitch": 67, "tick": 211200, "length": 480, "velocity": 96}, {"pitch": 74, "tick": 211680, "length": 240, "velocity": 112}, {"pitch": 70, "tick": 211680, "length": 240, "velocity": 96}, {"pitch": 75, "tick": 211920, "length": 240, "velocity": 112}, {"pitch": 72, "tick": 211920, "length": 240, "velocity": 96}, {"pitch": 74, "tick": 212160, "length": 480, "velocity": 112}, {"pitch": 70, "tick": 212160, "length": 480, "velocity": 96}, {"pitch": 70, "tick": 212640, "length": 480, "velocity": 112}, {"pitch": 67, "tick": 212640, "length": 480, "velocity": 96}, {"pitch": 72, "tick": 213120, "length": 420, "velocity": 112}, {"pitch": 65, "tick": 213120, "length": 420, "velocity": 96}, {"pitch": 72, "tick": 213600, "length": 60, "velocity": 112}, {"pitch": 65, "tick": 213600, "length": 60, "velocity": 96}, {"pitch": 72, "tick": 213720, "length": 60, "velocity": 112}, {"pitch": 65, "tick": 213720, "length": 60, "velocity": 96}, {"pitch": 72, "tick": 213840, "length": 180, "velocity": 112}, {"pitch": 65, "tick": 213840, "length": 180, "velocity": 96}, {"pitch": 72, "tick": 214080, "length": 180, "velocity": 112}, {"pitch": 65, "tick": 214080, "length": 180, "velocity": 96}, {"pitch": 72, "tick": 214320, "length": 60, "velocity": 112}, {"pitch": 65, "tick": 214320, "length": 60, "velocity": 96}, {"pitch": 72, "tick": 214440, "length": 60, "velocity": 112}, {"pitch": 65, "tick": 214440, "length": 60, "velocity": 96}, {"pitch": 72, "tick": 214560, "length": 60, "velocity": 112}, {"pitch": 65, "tick": 214560, "length": 60, "velocity": 96}, {"pitch": 72, "tick": 214680, "length": 60, "velocity": 112}, {"pitch": 65, "tick": 214680, "length": 60, "velocity": 96}, {"pitch": 72, "tick": 214800, "length": 180, "velocity": 112}, {"pitch": 65, "tick": 214800, "length": 180, "velocity": 96}, {"pitch": 72, "tick": 285120, "length": 480, "velocity": 112}, {"pitch": 67, "tick": 285120, "length": 480, "velocity": 96}, {"pitch": 74, "tick": 285600, "length": 480, "velocity": 112}, {"pitch": 70, "tick": 285600, "length": 480, "velocity": 96}, {"pitch": 75, "tick": 286080, "length": 960, "velocity": 112}, {"pitch": 72, "tick": 286080, "length": 960, "velocity": 96}, {"pitch": 74, "tick": 287040, "length": 480, "velocity": 112}, {"pitch": 70, "tick": 287040, "length": 480, "velocity": 96}, {"pitch": 75, "tick": 287520, "length": 480, "velocity": 112}, {"pitch": 72, "tick": 287520, "length": 480, "velocity": 96}, {"pitch": 77, "tick": 288000, "length": 960, "velocity": 112}, {"pitch": 70, "tick": 288000, "length": 960, "velocity": 96}, {"pitch": 75, "tick": 288960, "length": 480, "velocity": 112}, {"pitch": 70, "tick": 288960, "length": 480, "velocity": 96}, {"pitch": 77, "tick": 289440, "length": 480, "velocity": 112}, {"pitch": 70, "tick": 289440, "length": 480, "velocity": 96}, {"pitch": 79, "tick": 289920, "length": 660, "velocity": 112}, {"pitch": 72, "tick": 289920, "length": 660, "velocity": 96}, {"pitch": 79, "tick": 290640, "length": 180, "velocity": 112}, {"pitch": 72, "tick": 290640, "length": 180, "velocity": 96}, {"pitch": 79, "tick": 290880, "length": 60, "velocity": 112}, {"pitch": 72, "tick": 290880, "length": 60, "velocity": 96}, {"pitch": 79, "tick": 291000, "length": 60, "velocity": 112}, {"pitch": 72, "tick": 291000, "length": 60, "velocity": 96}, {"pitch": 79, "tick": 291120, "length": 180, "velocity": 112}, {"pitch": 72, "tick": 291120, "length": 180, "velocity": 96}, {"pitch": 82, "tick": 291360, "length": 60, "velocity": 112}, {"pitch": 77, "tick": 291360, "length": 60, "velocity": 96}, {"pitch": 82, "tick": 291480, "length": 60, "velocity": 112}, {"pitch": 77, "tick": 291480, "length": 60, "velocity": 96}, {"pitch": 82, "tick": 291600, "length": 180, "velocity": 112}, {"pitch": 77, "tick": 291600, "length": 180, "velocity": 96}, {"pitch": 84, "tick": 291840, "length": 480, "velocity": 112}, {"pitch": 79, "tick": 291840, "length": 480, "velocity": 96}, {"pitch": 82, "tick": 292320, "length": 480, "velocity": 112}, {"pitch": 77, "tick": 292320, "length": 480, "velocity": 96}, {"pitch": 79, "tick": 292800, "length": 480, "velocity": 112}, {"pitch": 75, "tick": 292800, "length": 480, "velocity": 96}, {"pitch": 77, "tick": 293280, "length": 480, "velocity": 112}, {"pitch": 72, "tick": 293280, "length": 480, "velocity": 96}, {"pitch": 75, "tick": 293760, "length": 660, "velocity": 112}, {"pitch": 72, "tick": 293760, "length": 660, "velocity": 96}, {"pitch": 75, "tick": 294480, "length": 60, "velocity": 112}, {"pitch": 72, "tick": 294480, "length": 60, "velocity": 96}, {"pitch": 75, "tick": 294600, "length": 60, "velocity": 112}, {"pitch": 72, "tick": 294600, "length": 60, "velocity": 96}, {"pitch": 75, "tick": 294720, "length": 180, "velocity": 112}, {"pitch": 72, "tick": 294720, "length": 180, "velocity": 96}, {"pitch": 75, "tick": 294960, "length": 60, "velocity": 112}, {"pitch": 72, "tick": 294960, "length": 60, "velocity": 96}, {"pitch": 75, "tick": 295080, "length": 60, "velocity": 112}, {"pitch": 72, "tick": 295080, "length": 60, "velocity": 96}, {"pitch": 74, "tick": 295200, "length": 480, "velocity": 112}, {"pitch": 70, "tick": 295200, "length": 480, "velocity": 96}, {"pitch": 72, "tick": 295680, "length": 480, "velocity": 112}, {"pitch": 65, "tick": 295680, "length": 480, "velocity": 96}, {"pitch": 74, "tick": 296160, "length": 240, "velocity": 112}, {"pitch": 70, "tick": 296160, "length": 240, "velocity": 96}, {"pitch": 75, "tick": 296400, "length": 240, "velocity": 112}, {"pitch": 72, "tick": 296400, "length": 240, "velocity": 96}, {"pitch": 74, "tick": 296640, "length": 480, "velocity": 112}, {"pitch": 70, "tick": 296640, "length": 480, "velocity": 96}, {"pitch": 70, "tick": 297120, "length": 480, "velocity": 112}, {"pitch": 65, "tick": 297120, "length": 480, "velocity": 96}, {"pitch": 72, "tick": 297600, "length": 660, "velocity": 112}, {"pitch": 67, "tick": 297600, "length": 660, "velocity": 96}, {"pitch": 72, "tick": 298320, "length": 180, "velocity": 112}, {"pitch": 67, "tick": 298320, "length": 180, "velocity": 96}, {"pitch": 72, "tick": 298560, "length": 60, "velocity": 112}, {"pitch": 67, "tick": 298560, "length": 60, "velocity": 96}, {"pitch": 72, "tick": 298680, "length": 60, "velocity": 112}, {"pitch": 67, "tick": 298680, "length": 60, "velocity": 96}, {"pitch": 72, "tick": 298800, "length": 180, "velocity": 112}, {"pitch": 67, "tick": 298800, "length": 180, "velocity": 96}, {"pitch": 74, "tick": 299040, "length": 180, "velocity": 112}, {"pitch": 70, "tick": 299040, "length": 180, "velocity": 96}, {"pitch": 74, "tick": 299280, "length": 60, "velocity": 112}, {"pitch": 70, "tick": 299280, "length": 60, "velocity": 96}, {"pitch": 74, "tick": 299400, "length": 60, "velocity": 112}, {"pitch": 70, "tick": 299400, "length": 60, "velocity": 96}, {"pitch": 75, "tick": 299520, "length": 60, "velocity": 112}, {"pitch": 72, "tick": 299520, "length": 60, "velocity": 96}, {"pitch": 75, "tick": 299640, "length": 60, "velocity": 112}, {"pitch": 72, "tick": 299640, "length": 60, "velocity": 96}, {"pitch": 75, "tick": 299760, "length": 180, "velocity": 112}, {"pitch": 72, "tick": 299760, "length": 180, "velocity": 96}, {"pitch": 74, "tick": 300000, "length": 240, "velocity": 112}, {"pitch": 70, "tick": 300000, "length": 240, "velocity": 96}, {"pitch": 75, "tick": 300240, "length": 120, "velocity": 112}, {"pitch": 72, "tick": 300240, "length": 120, "velocity": 96}, {"pitch": 77, "tick": 300360, "length": 120, "velocity": 112}, {"pitch": 74, "tick": 300360, "length": 120, "velocity": 96}, {"pitch": 79, "tick": 300480, "length": 480, "velocity": 112}, {"pitch": 75, "tick": 300480, "length": 480, "velocity": 96}, {"pitch": 82, "tick": 300960, "length": 480, "velocity": 112}, {"pitch": 79, "tick": 300960, "length": 480, "velocity": 96}, {"pitch": 84, "tick": 301440, "length": 420, "velocity": 112}, {"pitch": 77, "tick": 301440, "length": 420, "velocity": 96}, {"pitch": 84, "tick": 301920, "length": 60, "velocity": 112}, {"pitch": 77, "tick": 301920, "length": 60, "velocity": 96}, {"pitch": 84, "tick": 302040, "length": 60, "velocity": 112}, {"pitch": 77, "tick": 302040, "length": 60, "velocity": 96}, {"pitch": 84, "tick": 302160, "length": 180, "velocity": 112}, {"pitch": 77, "tick": 302160, "length": 180, "velocity": 96}, {"pitch": 84, "tick": 302400, "length": 60, "velocity": 112}, {"pitch": 77, "tick": 302400, "length": 60, "velocity": 96}, {"pitch": 84, "tick": 302520, "length": 60, "velocity": 112}, {"pitch": 77, "tick": 302520, "length": 60, "velocity": 96}, {"pitch": 84, "tick": 302640, "length": 180, "velocity": 112}, {"pitch": 77, "tick": 302640, "length": 180, "velocity": 96}, {"pitch": 82, "tick": 302880, "length": 480, "velocity": 112}, {"pitch": 77, "tick": 302880, "length": 480, "velocity": 96}, {"pitch": 79, "tick": 303360, "length": 240, "velocity": 112}, {"pitch": 75, "tick": 303360, "length": 240, "velocity": 96}, {"pitch": 77, "tick": 303600, "length": 240, "velocity": 112}, {"pitch": 72, "tick": 303600, "length": 240, "velocity": 96}, {"pitch": 79, "tick": 303840, "length": 240, "velocity": 112}, {"pitch": 75, "tick": 303840, "length": 240, "velocity": 96}, {"pitch": 82, "tick": 304080, "length": 240, "velocity": 112}, {"pitch": 77, "tick": 304080, "length": 240, "velocity": 96}, {"pitch": 79, "tick": 304320, "length": 480, "velocity": 112}, {"pitch": 75, "tick": 304320, "length": 480, "velocity": 96}, {"pitch": 77, "tick": 304800, "length": 480, "velocity": 112}, {"pitch": 72, "tick": 304800, "length": 480, "velocity": 96}, {"pitch": 75, "tick": 305280, "length": 420, "velocity": 112}, {"pitch": 72, "tick": 305280, "length": 420, "velocity": 96}, {"pitch": 75, "tick": 305760, "length": 180, "velocity": 112}, {"pitch": 72, "tick": 305760, "length": 180, "velocity": 96}, {"pitch": 75, "tick": 306000, "length": 60, "velocity": 112}, {"pitch": 72, "tick": 306000, "length": 60, "velocity": 96}, {"pitch": 75, "tick": 306120, "length": 60, "velocity": 112}, {"pitch": 72, "tick": 306120, "length": 60, "velocity": 96}, {"pitch": 75, "tick": 306240, "length": 60, "velocity": 112}, {"pitch": 72, "tick": 306240, "length": 60, "velocity": 96}, {"pitch": 75, "tick": 306360, "length": 60, "velocity": 112}, {"pitch": 72, "tick": 306360, "length": 60, "velocity": 96}, {"pitch": 75, "tick": 306480, "length": 180, "velocity": 112}, {"pitch": 72, "tick": 306480, "length": 180, "velocity": 96}, {"pitch": 72, "tick": 306720, "length": 240, "velocity": 112}, {"pitch": 67, "tick": 306720, "length": 240, "velocity": 96}, {"pitch": 75, "tick": 306960, "length": 240, "velocity": 112}, {"pitch": 70, "tick": 306960, "length": 240, "velocity": 96}, {"pitch": 77, "tick": 307200, "length": 240, "velocity": 112}, {"pitch": 73, "tick": 307200, "length": 240, "velocity": 96}, {"pitch": 75, "tick": 307440, "length": 240, "velocity": 112}, {"pitch": 72, "tick": 307440, "length": 240, "velocity": 96}, {"pitch": 77, "tick": 307680, "length": 240, "velocity": 112}, {"pitch": 73, "tick": 307680, "length": 240, "velocity": 96}, {"pitch": 79, "tick": 307920, "length": 240, "velocity": 112}, {"pitch": 75, "tick": 307920, "length": 240, "velocity": 112}, {"pitch": 77, "tick": 308160, "length": 480, "velocity": 112}, {"pitch": 73, "tick": 308160, "length": 480, "velocity": 96}, {"pitch": 75, "tick": 308640, "length": 480, "velocity": 112}, {"pitch": 70, "tick": 308640, "length": 480, "velocity": 96}, {"pitch": 72, "tick": 309120, "length": 420, "velocity": 112}, {"pitch": 67, "tick": 309120, "length": 420, "velocity": 96}, {"pitch": 72, "tick": 309600, "length": 60, "velocity": 112}, {"pitch": 67, "tick": 309600, "length": 60, "velocity": 96}, {"pitch": 72, "tick": 309720, "length": 60, "velocity": 112}, {"pitch": 67, "tick": 309720, "length": 60, "velocity": 96}, {"pitch": 72, "tick": 309840, "length": 180, "velocity": 112}, {"pitch": 67, "tick": 309840, "length": 180, "velocity": 96}, {"pitch": 70, "tick": 310080, "length": 180, "velocity": 112}, {"pitch": 67, "tick": 310080, "length": 180, "velocity": 96}, {"pitch": 70, "tick": 310320, "length": 60, "velocity": 112}, {"pitch": 67, "tick": 310320, "length": 60, "velocity": 96}, {"pitch": 70, "tick": 310440, "length": 60, "velocity": 112}, {"pitch": 67, "tick": 310440, "length": 60, "velocity": 96}, {"pitch": 67, "tick": 310560, "length": 120, "velocity": 112}, {"pitch": 63, "tick": 310560, "length": 120, "velocity": 96}, {"pitch": 67, "tick": 310680, "length": 120, "velocity": 112}, {"pitch": 63, "tick": 310680, "length": 120, "velocity": 96}, {"pitch": 70, "tick": 310800, "length": 240, "velocity": 112}, {"pitch": 67, "tick": 310800, "length": 240, "velocity": 96}, {"pitch": 72, "tick": 311040, "length": 480, "velocity": 112}, {"pitch": 67, "tick": 311040, "length": 480, "velocity": 96}, {"pitch": 74, "tick": 311520, "length": 240, "velocity": 112}, {"pitch": 70, "tick": 311520, "length": 240, "velocity": 96}, {"pitch": 75, "tick": 311760, "length": 240, "velocity": 112}, {"pitch": 72, "tick": 311760, "length": 240, "velocity": 96}, {"pitch": 74, "tick": 312000, "length": 480, "velocity": 112}, {"pitch": 70, "tick": 312000, "length": 480, "velocity": 96}, {"pitch": 70, "tick": 312480, "length": 480, "velocity": 112}, {"pitch": 67, "tick": 312480, "length": 480, "velocity": 96}, {"pitch": 72, "tick": 312960, "length": 420, "velocity": 112}, {"pitch": 65, "tick": 312960, "length": 420, "velocity": 96}, {"pitch": 72, "tick": 313440, "length": 60, "velocity": 112}, {"pitch": 65, "tick": 313440, "length": 60, "velocity": 96}, {"pitch": 72, "tick": 313560, "length": 60, "velocity": 112}, {"pitch": 65, "tick": 313560, "length": 60, "velocity": 96}, {"pitch": 72, "tick": 313680, "length": 180, "velocity": 112}, {"pitch": 65, "tick": 313680, "length": 180, "velocity": 96}, {"pitch": 72, "tick": 313920, "length": 180, "velocity": 112}, {"pitch": 65, "tick": 313920, "length": 180, "velocity": 96}, {"pitch": 72, "tick": 314160, "length": 60, "velocity": 112}, {"pitch": 65, "tick": 314160, "length": 60, "velocity": 96}, {"pitch": 72, "tick": 314280, "length": 60, "velocity": 112}, {"pitch": 65, "tick": 314280, "length": 60, "velocity": 96}, {"pitch": 72, "tick": 314400, "length": 60, "velocity": 112}, {"pitch": 65, "tick": 314400, "length": 60, "velocity": 96}, {"pitch": 72, "tick": 314520, "length": 60, "velocity": 112}, {"pitch": 65, "tick": 314520, "length": 60, "velocity": 96}, {"pitch": 72, "tick": 314640, "length": 180, "velocity": 112}, {"pitch": 65, "tick": 314640, "length": 180, "velocity": 96}, {"pitch": 67, "tick": 314880, "length": 180, "velocity": 112}, {"pitch": 63, "tick": 314880, "length": 180, "velocity": 96}, {"pitch": 67, "tick": 315120, "length": 60, "velocity": 112}, {"pitch": 63, "tick": 315120, "length": 60, "velocity": 96}, {"pitch": 67, "tick": 315240, "length": 60, "velocity": 112}, {"pitch": 63, "tick": 315240, "length": 60, "velocity": 96}, {"pitch": 67, "tick": 315360, "length": 60, "velocity": 112}, {"pitch": 63, "tick": 315360, "length": 60, "velocity": 96}, {"pitch": 67, "tick": 315480, "length": 60, "velocity": 112}, {"pitch": 63, "tick": 315480, "length": 60, "velocity": 96}, {"pitch": 67, "tick": 315600, "length": 180, "velocity": 112}, {"pitch": 63, "tick": 315600, "length": 180, "velocity": 96}, {"pitch": 72, "tick": 315840, "length": 480, "velocity": 112}, {"pitch": 67, "tick": 315840, "length": 480, "velocity": 96}, {"pitch": 74, "tick": 316320, "length": 480, "velocity": 112}, {"pitch": 70, "tick": 316320, "length": 480, "velocity": 96}, {"pitch": 75, "tick": 316800, "length": 960, "velocity": 112}, {"pitch": 72, "tick": 316800, "length": 960, "velocity": 96}, {"pitch": 74, "tick": 317760, "length": 480, "velocity": 112}, {"pitch": 70, "tick": 317760, "length": 480, "velocity": 96}, {"pitch": 75, "tick": 318240, "length": 480, "velocity": 112}, {"pitch": 72, "tick": 318240, "length": 480, "velocity": 96}, {"pitch": 77, "tick": 318720, "length": 960, "velocity": 112}, {"pitch": 70, "tick": 318720, "length": 960, "velocity": 96}, {"pitch": 75, "tick": 319680, "length": 480, "velocity": 112}, {"pitch": 70, "tick": 319680, "length": 480, "velocity": 96}, {"pitch": 77, "tick": 320160, "length": 480, "velocity": 112}, {"pitch": 70, "tick": 320160, "length": 480, "velocity": 96}, {"pitch": 79, "tick": 320640, "length": 660, "velocity": 112}, {"pitch": 72, "tick": 320640, "length": 660, "velocity": 96}, {"pitch": 79, "tick": 321360, "length": 180, "velocity": 112}, {"pitch": 72, "tick": 321360, "length": 180, "velocity": 96}, {"pitch": 79, "tick": 321600, "length": 60, "velocity": 112}, {"pitch": 72, "tick": 321600, "length": 60, "velocity": 96}, {"pitch": 79, "tick": 321720, "length": 60, "velocity": 112}, {"pitch": 72, "tick": 321720, "length": 60, "velocity": 96}, {"pitch": 79, "tick": 321840, "length": 180, "velocity": 112}, {"pitch": 72, "tick": 321840, "length": 180, "velocity": 96}, {"pitch": 82, "tick": 322080, "length": 60, "velocity": 112}, {"pitch": 77, "tick": 322080, "length": 60, "velocity": 96}, {"pitch": 82, "tick": 322200, "length": 60, "velocity": 112}, {"pitch": 77, "tick": 322200, "length": 60, "velocity": 96}, {"pitch": 82, "tick": 322320, "length": 180, "velocity": 112}, {"pitch": 77, "tick": 322320, "length": 180, "velocity": 96}, {"pitch": 84, "tick": 322560, "length": 480, "velocity": 112}, {"pitch": 79, "tick": 322560, "length": 480, "velocity": 96}, {"pitch": 82, "tick": 323040, "length": 480, "velocity": 112}, {"pitch": 77, "tick": 323040, "length": 480, "velocity": 96}, {"pitch": 79, "tick": 323520, "length": 480, "velocity": 112}, {"pitch": 75, "tick": 323520, "length": 480, "velocity": 96}, {"pitch": 77, "tick": 324000, "length": 480, "velocity": 112}, {"pitch": 72, "tick": 324000, "length": 480, "velocity": 96}, {"pitch": 75, "tick": 324480, "length": 660, "velocity": 112}, {"pitch": 72, "tick": 324480, "length": 660, "velocity": 96}, {"pitch": 75, "tick": 325200, "length": 60, "velocity": 112}, {"pitch": 72, "tick": 325200, "length": 60, "velocity": 96}, {"pitch": 75, "tick": 325320, "length": 60, "velocity": 112}, {"pitch": 72, "tick": 325320, "length": 60, "velocity": 96}, {"pitch": 75, "tick": 325440, "length": 180, "velocity": 112}, {"pitch": 72, "tick": 325440, "length": 180, "velocity": 96}, {"pitch": 75, "tick": 325680, "length": 60, "velocity": 112}, {"pitch": 72, "tick": 325680, "length": 60, "velocity": 96}, {"pitch": 75, "tick": 325800, "length": 60, "velocity": 112}, {"pitch": 72, "tick": 325800, "length": 60, "velocity": 96}, {"pitch": 74, "tick": 325920, "length": 480, "velocity": 112}, {"pitch": 70, "tick": 325920, "length": 480, "velocity": 96}, {"pitch": 72, "tick": 326400, "length": 480, "velocity": 112}, {"pitch": 65, "tick": 326400, "length": 480, "velocity": 96}, {"pitch": 74, "tick": 326880, "length": 240, "velocity": 112}, {"pitch": 70, "tick": 326880, "length": 240, "velocity": 96}, {"pitch": 75, "tick": 327120, "length": 240, "velocity": 112}, {"pitch": 72, "tick": 327120, "length": 240, "velocity": 96}, {"pitch": 74, "tick": 327360, "length": 480, "velocity": 112}, {"pitch": 70, "tick": 327360, "length": 480, "velocity": 96}, {"pitch": 70, "tick": 327840, "length": 480, "velocity": 112}, {"pitch": 65, "tick": 327840, "length": 480, "velocity": 96}, {"pitch": 72, "tick": 328320, "length": 660, "velocity": 112}, {"pitch": 67, "tick": 328320, "length": 660, "velocity": 96}, {"pitch": 72, "tick": 329040, "length": 180, "velocity": 112}, {"pitch": 67, "tick": 329040, "length": 180, "velocity": 96}, {"pitch": 72, "tick": 329280, "length": 60, "velocity": 112}, {"pitch": 67, "tick": 329280, "length": 60, "velocity": 96}, {"pitch": 72, "tick": 329400, "length": 60, "velocity": 112}, {"pitch": 67, "tick": 329400, "length": 60, "velocity": 96}, {"pitch": 72, "tick": 329520, "length": 180, "velocity": 112}, {"pitch": 67, "tick": 329520, "length": 180, "velocity": 96}, {"pitch": 74, "tick": 329760, "length": 180, "velocity": 112}, {"pitch": 70, "tick": 329760, "length": 180, "velocity": 96}, {"pitch": 74, "tick": 330000, "length": 60, "velocity": 112}, {"pitch": 70, "tick": 330000, "length": 60, "velocity": 96}, {"pitch": 74, "tick": 330120, "length": 60, "velocity": 112}, {"pitch": 70, "tick": 330120, "length": 60, "velocity": 96}, {"pitch": 75, "tick": 330240, "length": 60, "velocity": 112}, {"pitch": 72, "tick": 330240, "length": 60, "velocity": 96}, {"pitch": 75, "tick": 330360, "length": 60, "velocity": 112}, {"pitch": 72, "tick": 330360, "length": 60, "velocity": 96}, {"pitch": 75, "tick": 330480, "length": 180, "velocity": 112}, {"pitch": 72, "tick": 330480, "length": 180, "velocity": 96}, {"pitch": 74, "tick": 330720, "length": 240, "velocity": 112}, {"pitch": 70, "tick": 330720, "length": 240, "velocity": 96}, {"pitch": 75, "tick": 330960, "length": 120, "velocity": 112}, {"pitch": 72, "tick": 330960, "length": 120, "velocity": 96}, {"pitch": 77, "tick": 331080, "length": 120, "velocity": 112}, {"pitch": 74, "tick": 331080, "length": 120, "velocity": 96}, {"pitch": 79, "tick": 331200, "length": 480, "velocity": 112}, {"pitch": 75, "tick": 331200, "length": 480, "velocity": 96}, {"pitch": 82, "tick": 331680, "length": 480, "velocity": 112}, {"pitch": 79, "tick": 331680, "length": 480, "velocity": 96}, {"pitch": 84, "tick": 332160, "length": 420, "velocity": 112}, {"pitch": 77, "tick": 332160, "length": 420, "velocity": 96}, {"pitch": 84, "tick": 332640, "length": 60, "velocity": 112}, {"pitch": 77, "tick": 332640, "length": 60, "velocity": 96}, {"pitch": 84, "tick": 332760, "length": 60, "velocity": 112}, {"pitch": 77, "tick": 332760, "length": 60, "velocity": 96}, {"pitch": 84, "tick": 332880, "length": 180, "velocity": 112}, {"pitch": 77, "tick": 332880, "length": 180, "velocity": 96}, {"pitch": 84, "tick": 333120, "length": 60, "velocity": 112}, {"pitch": 77, "tick": 333120, "length": 60, "velocity": 96}, {"pitch": 84, "tick": 333240, "length": 60, "velocity": 112}, {"pitch": 77, "tick": 333240, "length": 60, "velocity": 96}, {"pitch": 84, "tick": 333360, "length": 180, "velocity": 112}, {"pitch": 77, "tick": 333360, "length": 180, "velocity": 96}, {"pitch": 82, "tick": 333600, "length": 480, "velocity": 112}, {"pitch": 77, "tick": 333600, "length": 480, "velocity": 96}, {"pitch": 79, "tick": 334080, "length": 240, "velocity": 112}, {"pitch": 75, "tick": 334080, "length": 240, "velocity": 96}, {"pitch": 77, "tick": 334320, "length": 240, "velocity": 112}, {"pitch": 72, "tick": 334320, "length": 240, "velocity": 96}, {"pitch": 79, "tick": 334560, "length": 240, "velocity": 112}, {"pitch": 75, "tick": 334560, "length": 240, "velocity": 96}, {"pitch": 82, "tick": 334800, "length": 240, "velocity": 112}, {"pitch": 77, "tick": 334800, "length": 240, "velocity": 96}, {"pitch": 79, "tick": 335040, "length": 480, "velocity": 112}, {"pitch": 75, "tick": 335040, "length": 480, "velocity": 96}, {"pitch": 77, "tick": 335520, "length": 480, "velocity": 112}, {"pitch": 72, "tick": 335520, "length": 480, "velocity": 96}, {"pitch": 75, "tick": 336000, "length": 420, "velocity": 112}, {"pitch": 72, "tick": 336000, "length": 420, "velocity": 96}, {"pitch": 75, "tick": 336480, "length": 180, "velocity": 112}, {"pitch": 72, "tick": 336480, "length": 180, "velocity": 96}, {"pitch": 75, "tick": 336720, "length": 60, "velocity": 112}, {"pitch": 72, "tick": 336720, "length": 60, "velocity": 96}, {"pitch": 75, "tick": 336840, "length": 60, "velocity": 112}, {"pitch": 72, "tick": 336840, "length": 60, "velocity": 96}, {"pitch": 75, "tick": 336960, "length": 60, "velocity": 112}, {"pitch": 72, "tick": 336960, "length": 60, "velocity": 96}, {"pitch": 75, "tick": 337080, "length": 60, "velocity": 112}, {"pitch": 72, "tick": 337080, "length": 60, "velocity": 96}, {"pitch": 75, "tick": 337200, "length": 180, "velocity": 112}, {"pitch": 72, "tick": 337200, "length": 180, "velocity": 96}, {"pitch": 72, "tick": 337440, "length": 240, "velocity": 112}, {"pitch": 67, "tick": 337440, "length": 240, "velocity": 96}, {"pitch": 75, "tick": 337680, "length": 240, "velocity": 112}, {"pitch": 70, "tick": 337680, "length": 240, "velocity": 96}, {"pitch": 77, "tick": 337920, "length": 240, "velocity": 112}, {"pitch": 73, "tick": 337920, "length": 240, "velocity": 96}, {"pitch": 75, "tick": 338160, "length": 240, "velocity": 112}, {"pitch": 72, "tick": 338160, "length": 240, "velocity": 96}, {"pitch": 77, "tick": 338400, "length": 240, "velocity": 112}, {"pitch": 73, "tick": 338400, "length": 240, "velocity": 96}, {"pitch": 79, "tick": 338640, "length": 240, "velocity": 112}, {"pitch": 75, "tick": 338640, "length": 240, "velocity": 112}, {"pitch": 77, "tick": 338880, "length": 480, "velocity": 112}, {"pitch": 73, "tick": 338880, "length": 480, "velocity": 96}, {"pitch": 75, "tick": 339360, "length": 480, "velocity": 112}, {"pitch": 70, "tick": 339360, "length": 480, "velocity": 96}, {"pitch": 72, "tick": 339840, "length": 420, "velocity": 112}, {"pitch": 67, "tick": 339840, "length": 420, "velocity": 96}, {"pitch": 72, "tick": 340320, "length": 60, "velocity": 112}, {"pitch": 67, "tick": 340320, "length": 60, "velocity": 96}, {"pitch": 72, "tick": 340440, "length": 60, "velocity": 112}, {"pitch": 67, "tick": 340440, "length": 60, "velocity": 96}, {"pitch": 72, "tick": 340560, "length": 180, "velocity": 112}, {"pitch": 67, "tick": 340560, "length": 180, "velocity": 96}, {"pitch": 70, "tick": 340800, "length": 180, "velocity": 112}, {"pitch": 67, "tick": 340800, "length": 180, "velocity": 96}, {"pitch": 70, "tick": 341040, "length": 60, "velocity": 112}, {"pitch": 67, "tick": 341040, "length": 60, "velocity": 96}, {"pitch": 70, "tick": 341160, "length": 60, "velocity": 112}, {"pitch": 67, "tick": 341160, "length": 60, "velocity": 96}, {"pitch": 67, "tick": 341280, "length": 120, "velocity": 112}, {"pitch": 63, "tick": 341280, "length": 120, "velocity": 96}, {"pitch": 67, "tick": 341400, "length": 120, "velocity": 112}, {"pitch": 63, "tick": 341400, "length": 120, "velocity": 96}, {"pitch": 70, "tick": 341520, "length": 240, "velocity": 112}, {"pitch": 67, "tick": 341520, "length": 240, "velocity": 96}, {"pitch": 72, "tick": 341760, "length": 480, "velocity": 112}, {"pitch": 67, "tick": 341760, "length": 480, "velocity": 96}, {"pitch": 74, "tick": 342240, "length": 240, "velocity": 112}, {"pitch": 70, "tick": 342240, "length": 240, "velocity": 96}, {"pitch": 75, "tick": 342480, "length": 240, "velocity": 112}, {"pitch": 72, "tick": 342480, "length": 240, "velocity": 96}, {"pitch": 74, "tick": 342720, "length": 480, "velocity": 112}, {"pitch": 70, "tick": 342720, "length": 480, "velocity": 96}, {"pitch": 70, "tick": 343200, "length": 480, "velocity": 112}, {"pitch": 67, "tick": 343200, "length": 480, "velocity": 96}, {"pitch": 72, "tick": 343680, "length": 420, "velocity": 112}, {"pitch": 65, "tick": 343680, "length": 420, "velocity": 96}, {"pitch": 72, "tick": 344160, "length": 60, "velocity": 112}, {"pitch": 65, "tick": 344160, "length": 60, "velocity": 96}, {"pitch": 72, "tick": 344280, "length": 60, "velocity": 112}, {"pitch": 65, "tick": 344280, "length": 60, "velocity": 96}, {"pitch": 72, "tick": 344400, "length": 180, "velocity": 112}, {"pitch": 65, "tick": 344400, "length": 180, "velocity": 96}, {"pitch": 72, "tick": 344640, "length": 180, "velocity": 112}, {"pitch": 65, "tick": 344640, "length": 180, "velocity": 96}, {"pitch": 72, "tick": 344880, "length": 60, "velocity": 112}, {"pitch": 65, "tick": 344880, "length": 60, "velocity": 96}, {"pitch": 72, "tick": 345000, "length": 60, "velocity": 112}, {"pitch": 65, "tick": 345000, "length": 60, "velocity": 96}, {"pitch": 72, "tick": 345120, "length": 60, "velocity": 112}, {"pitch": 65, "tick": 345120, "length": 60, "velocity": 96}, {"pitch": 72, "tick": 345240, "length": 60, "velocity": 112}, {"pitch": 65, "tick": 345240, "length": 60, "velocity": 96}, {"pitch": 72, "tick": 345360, "length": 180, "velocity": 112}, {"pitch": 65, "tick": 345360, "length": 180, "velocity": 96}, {"pitch": 67, "tick": 345600, "length": 180, "velocity": 112}, {"pitch": 63, "tick": 345600, "length": 180, "velocity": 96}, {"pitch": 67, "tick": 345840, "length": 60, "velocity": 112}, {"pitch": 63, "tick": 345840, "length": 60, "velocity": 96}, {"pitch": 67, "tick": 345960, "length": 60, "velocity": 112}, {"pitch": 63, "tick": 345960, "length": 60, "velocity": 96}, {"pitch": 67, "tick": 346080, "length": 60, "velocity": 112}, {"pitch": 63, "tick": 346080, "length": 60, "velocity": 96}, {"pitch": 67, "tick": 346200, "length": 60, "velocity": 112}, {"pitch": 63, "tick": 346200, "length": 60, "velocity": 96}, {"pitch": 67, "tick": 346320, "length": 180, "velocity": 112}, {"pitch": 63, "tick": 346320, "length": 180, "velocity": 96}, {"pitch": 72, "tick": 346560, "length": 480, "velocity": 112}, {"pitch": 67, "tick": 346560, "length": 480, "velocity": 96}, {"pitch": 74, "tick": 347040, "length": 480, "velocity": 112}, {"pitch": 70, "tick": 347040, "length": 480, "velocity": 96}, {"pitch": 75, "tick": 347520, "length": 960, "velocity": 112}, {"pitch": 72, "tick": 347520, "length": 960, "velocity": 96}, {"pitch": 74, "tick": 348480, "length": 480, "velocity": 112}, {"pitch": 70, "tick": 348480, "length": 480, "velocity": 96}, {"pitch": 75, "tick": 348960, "length": 480, "velocity": 112}, {"pitch": 72, "tick": 348960, "length": 480, "velocity": 96}, {"pitch": 77, "tick": 349440, "length": 960, "velocity": 112}, {"pitch": 70, "tick": 349440, "length": 960, "velocity": 96}, {"pitch": 75, "tick": 350400, "length": 480, "velocity": 112}, {"pitch": 70, "tick": 350400, "length": 480, "velocity": 96}, {"pitch": 77, "tick": 350880, "length": 480, "velocity": 112}, {"pitch": 70, "tick": 350880, "length": 480, "velocity": 96}, {"pitch": 79, "tick": 351360, "length": 660, "velocity": 112}, {"pitch": 72, "tick": 351360, "length": 660, "velocity": 96}, {"pitch": 79, "tick": 352080, "length": 180, "velocity": 112}, {"pitch": 72, "tick": 352080, "length": 180, "velocity": 96}, {"pitch": 79, "tick": 352320, "length": 60, "velocity": 112}, {"pitch": 72, "tick": 352320, "length": 60, "velocity": 96}, {"pitch": 79, "tick": 352440, "length": 60, "velocity": 112}, {"pitch": 72, "tick": 352440, "length": 60, "velocity": 96}, {"pitch": 79, "tick": 352560, "length": 180, "velocity": 112}, {"pitch": 72, "tick": 352560, "length": 180, "velocity": 96}, {"pitch": 82, "tick": 352800, "length": 60, "velocity": 112}, {"pitch": 77, "tick": 352800, "length": 60, "velocity": 96}, {"pitch": 82, "tick": 352920, "length": 60, "velocity": 112}, {"pitch": 77, "tick": 352920, "length": 60, "velocity": 96}, {"pitch": 82, "tick": 353040, "length": 180, "velocity": 112}, {"pitch": 77, "tick": 353040, "length": 180, "velocity": 96}, {"pitch": 84, "tick": 353280, "length": 480, "velocity": 112}, {"pitch": 79, "tick": 353280, "length": 480, "velocity": 96}, {"pitch": 82, "tick": 353760, "length": 480, "velocity": 112}, {"pitch": 77, "tick": 353760, "length": 480, "velocity": 96}, {"pitch": 79, "tick": 354240, "length": 480, "velocity": 112}, {"pitch": 75, "tick": 354240, "length": 480, "velocity": 96}, {"pitch": 77, "tick": 354720, "length": 480, "velocity": 112}, {"pitch": 72, "tick": 354720, "length": 480, "velocity": 96}, {"pitch": 75, "tick": 355200, "length": 660, "velocity": 112}, {"pitch": 72, "tick": 355200, "length": 660, "velocity": 96}, {"pitch": 75, "tick": 355920, "length": 60, "velocity": 112}, {"pitch": 72, "tick": 355920, "length": 60, "velocity": 96}, {"pitch": 75, "tick": 356040, "length": 60, "velocity": 112}, {"pitch": 72, "tick": 356040, "length": 60, "velocity": 96}, {"pitch": 75, "tick": 356160, "length": 180, "velocity": 112}, {"pitch": 72, "tick": 356160, "length": 180, "velocity": 96}, {"pitch": 75, "tick": 356400, "length": 60, "velocity": 112}, {"pitch": 72, "tick": 356400, "length": 60, "velocity": 96}, {"pitch": 75, "tick": 356520, "length": 60, "velocity": 112}, {"pitch": 72, "tick": 356520, "length": 60, "velocity": 96}, {"pitch": 74, "tick": 356640, "length": 480, "velocity": 112}, {"pitch": 70, "tick": 356640, "length": 480, "velocity": 96}, {"pitch": 72, "tick": 357120, "length": 480, "velocity": 112}, {"pitch": 65, "tick": 357120, "length": 480, "velocity": 96}, {"pitch": 74, "tick": 357600, "length": 240, "velocity": 112}, {"pitch": 70, "tick": 357600, "length": 240, "velocity": 96}, {"pitch": 75, "tick": 357840, "length": 240, "velocity": 112}, {"pitch": 72, "tick": 357840, "length": 240, "velocity": 96}, {"pitch": 74, "tick": 358080, "length": 480, "velocity": 112}, {"pitch": 70, "tick": 358080, "length": 480, "velocity": 96}, {"pitch": 70, "tick": 358560, "length": 480, "velocity": 112}, {"pitch": 65, "tick": 358560, "length": 480, "velocity": 96}, {"pitch": 72, "tick": 359040, "length": 660, "velocity": 112}, {"pitch": 67, "tick": 359040, "length": 660, "velocity": 96}, {"pitch": 72, "tick": 359760, "length": 180, "velocity": 112}, {"pitch": 67, "tick": 359760, "length": 180, "velocity": 96}, {"pitch": 72, "tick": 360000, "length": 60, "velocity": 112}, {"pitch": 67, "tick": 360000, "length": 60, "velocity": 96}, {"pitch": 72, "tick": 360120, "length": 60, "velocity": 112}, {"pitch": 67, "tick": 360120, "length": 60, "velocity": 96}, {"pitch": 72, "tick": 360240, "length": 180, "velocity": 112}, {"pitch": 67, "tick": 360240, "length": 180, "velocity": 96}, {"pitch": 74, "tick": 360480, "length": 180, "velocity": 112}, {"pitch": 70, "tick": 360480, "length": 180, "velocity": 96}, {"pitch": 74, "tick": 360720, "length": 60, "velocity": 112}, {"pitch": 70, "tick": 360720, "length": 60, "velocity": 96}, {"pitch": 74, "tick": 360840, "length": 60, "velocity": 112}, {"pitch": 70, "tick": 360840, "length": 60, "velocity": 96}, {"pitch": 75, "tick": 360960, "length": 60, "velocity": 112}, {"pitch": 72, "tick": 360960, "length": 60, "velocity": 96}, {"pitch": 75, "tick": 361080, "length": 60, "velocity": 112}, {"pitch": 72, "tick": 361080, "length": 60, "velocity": 96}, {"pitch": 75, "tick": 361200, "length": 180, "velocity": 112}, {"pitch": 72, "tick": 361200, "length": 180, "velocity": 96}, {"pitch": 74, "tick": 361440, "length": 240, "velocity": 112}, {"pitch": 70, "tick": 361440, "length": 240, "velocity": 96}, {"pitch": 75, "tick": 361680, "length": 120, "velocity": 112}, {"pitch": 72, "tick": 361680, "length": 120, "velocity": 96}, {"pitch": 77, "tick": 361800, "length": 120, "velocity": 112}, {"pitch": 74, "tick": 361800, "length": 120, "velocity": 96}, {"pitch": 79, "tick": 361920, "length": 480, "velocity": 112}, {"pitch": 75, "tick": 361920, "length": 480, "velocity": 96}, {"pitch": 82, "tick": 362400, "length": 480, "velocity": 112}, {"pitch": 79, "tick": 362400, "length": 480, "velocity": 96}, {"pitch": 84, "tick": 362880, "length": 420, "velocity": 112}, {"pitch": 77, "tick": 362880, "length": 420, "velocity": 96}, {"pitch": 84, "tick": 363360, "length": 60, "velocity": 112}, {"pitch": 77, "tick": 363360, "length": 60, "velocity": 96}, {"pitch": 84, "tick": 363480, "length": 60, "velocity": 112}, {"pitch": 77, "tick": 363480, "length": 60, "velocity": 96}, {"pitch": 84, "tick": 363600, "length": 180, "velocity": 112}, {"pitch": 77, "tick": 363600, "length": 180, "velocity": 96}, {"pitch": 84, "tick": 363840, "length": 60, "velocity": 112}, {"pitch": 77, "tick": 363840, "length": 60, "velocity": 96}, {"pitch": 84, "tick": 363960, "length": 60, "velocity": 112}, {"pitch": 77, "tick": 363960, "length": 60, "velocity": 96}, {"pitch": 84, "tick": 364080, "length": 180, "velocity": 112}, {"pitch": 77, "tick": 364080, "length": 180, "velocity": 96}, {"pitch": 82, "tick": 364320, "length": 480, "velocity": 112}, {"pitch": 77, "tick": 364320, "length": 480, "velocity": 96}, {"pitch": 79, "tick": 364800, "length": 240, "velocity": 112}, {"pitch": 75, "tick": 364800, "length": 240, "velocity": 96}, {"pitch": 77, "tick": 365040, "length": 240, "velocity": 112}, {"pitch": 72, "tick": 365040, "length": 240, "velocity": 96}, {"pitch": 79, "tick": 365280, "length": 240, "velocity": 112}, {"pitch": 75, "tick": 365280, "length": 240, "velocity": 96}, {"pitch": 82, "tick": 365520, "length": 240, "velocity": 112}, {"pitch": 77, "tick": 365520, "length": 240, "velocity": 96}, {"pitch": 79, "tick": 365760, "length": 480, "velocity": 112}, {"pitch": 75, "tick": 365760, "length": 480, "velocity": 96}, {"pitch": 77, "tick": 366240, "length": 480, "velocity": 112}, {"pitch": 72, "tick": 366240, "length": 480, "velocity": 96}, {"pitch": 75, "tick": 366720, "length": 420, "velocity": 112}, {"pitch": 72, "tick": 366720, "length": 420, "velocity": 96}, {"pitch": 75, "tick": 367200, "length": 180, "velocity": 112}, {"pitch": 72, "tick": 367200, "length": 180, "velocity": 96}, {"pitch": 75, "tick": 367440, "length": 60, "velocity": 112}, {"pitch": 72, "tick": 367440, "length": 60, "velocity": 96}, {"pitch": 75, "tick": 367560, "length": 60, "velocity": 112}, {"pitch": 72, "tick": 367560, "length": 60, "velocity": 96}, {"pitch": 75, "tick": 367680, "length": 60, "velocity": 112}, {"pitch": 72, "tick": 367680, "length": 60, "velocity": 96}, {"pitch": 75, "tick": 367800, "length": 60, "velocity": 112}, {"pitch": 72, "tick": 367800, "length": 60, "velocity": 96}, {"pitch": 75, "tick": 367920, "length": 180, "velocity": 112}, {"pitch": 72, "tick": 367920, "length": 180, "velocity": 96}, {"pitch": 72, "tick": 368160, "length": 240, "velocity": 112}, {"pitch": 67, "tick": 368160, "length": 240, "velocity": 96}, {"pitch": 75, "tick": 368400, "length": 240, "velocity": 112}, {"pitch": 70, "tick": 368400, "length": 240, "velocity": 96}, {"pitch": 77, "tick": 368640, "length": 240, "velocity": 112}, {"pitch": 73, "tick": 368640, "length": 240, "velocity": 96}, {"pitch": 75, "tick": 368880, "length": 240, "velocity": 112}, {"pitch": 72, "tick": 368880, "length": 240, "velocity": 96}, {"pitch": 77, "tick": 369120, "length": 240, "velocity": 112}, {"pitch": 73, "tick": 369120, "length": 240, "velocity": 96}, {"pitch": 79, "tick": 369360, "length": 240, "velocity": 112}, {"pitch": 75, "tick": 369360, "length": 240, "velocity": 112}, {"pitch": 77, "tick": 369600, "length": 480, "velocity": 112}, {"pitch": 73, "tick": 369600, "length": 480, "velocity": 96}, {"pitch": 75, "tick": 370080, "length": 480, "velocity": 112}, {"pitch": 70, "tick": 370080, "length": 480, "velocity": 96}, {"pitch": 72, "tick": 370560, "length": 420, "velocity": 112}, {"pitch": 67, "tick": 370560, "length": 420, "velocity": 96}, {"pitch": 72, "tick": 371040, "length": 60, "velocity": 112}, {"pitch": 67, "tick": 371040, "length": 60, "velocity": 96}, {"pitch": 72, "tick": 371160, "length": 60, "velocity": 112}, {"pitch": 67, "tick": 371160, "length": 60, "velocity": 96}, {"pitch": 72, "tick": 371280, "length": 180, "velocity": 112}, {"pitch": 67, "tick": 371280, "length": 180, "velocity": 96}, {"pitch": 70, "tick": 371520, "length": 180, "velocity": 112}, {"pitch": 67, "tick": 371520, "length": 180, "velocity": 96}, {"pitch": 70, "tick": 371760, "length": 60, "velocity": 112}, {"pitch": 67, "tick": 371760, "length": 60, "velocity": 96}, {"pitch": 70, "tick": 371880, "length": 60, "velocity": 112}, {"pitch": 67, "tick": 371880, "length": 60, "velocity": 96}, {"pitch": 67, "tick": 372000, "length": 120, "velocity": 112}, {"pitch": 63, "tick": 372000, "length": 120, "velocity": 96}, {"pitch": 67, "tick": 372120, "length": 120, "velocity": 112}, {"pitch": 63, "tick": 372120, "length": 120, "velocity": 96}, {"pitch": 70, "tick": 372240, "length": 240, "velocity": 112}, {"pitch": 67, "tick": 372240, "length": 240, "velocity": 96}, {"pitch": 72, "tick": 372480, "length": 480, "velocity": 112}, {"pitch": 67, "tick": 372480, "length": 480, "velocity": 96}, {"pitch": 74, "tick": 372960, "length": 240, "velocity": 112}, {"pitch": 70, "tick": 372960, "length": 240, "velocity": 96}, {"pitch": 75, "tick": 373200, "length": 240, "velocity": 112}, {"pitch": 72, "tick": 373200, "length": 240, "velocity": 96}, {"pitch": 74, "tick": 373440, "length": 480, "velocity": 112}, {"pitch": 70, "tick": 373440, "length": 480, "velocity": 96}, {"pitch": 70, "tick": 373920, "length": 480, "velocity": 112}, {"pitch": 67, "tick": 373920, "length": 480, "velocity": 96}, {"pitch": 72, "tick": 374400, "length": 420, "velocity": 112}, {"pitch": 65, "tick": 374400, "length": 420, "velocity": 96}, {"pitch": 72, "tick": 374880, "length": 60, "velocity": 112}, {"pitch": 65, "tick": 374880, "length": 60, "velocity": 96}, {"pitch": 72, "tick": 375000, "length": 60, "velocity": 112}, {"pitch": 65, "tick": 375000, "length": 60, "velocity": 96}, {"pitch": 72, "tick": 375120, "length": 180, "velocity": 112}, {"pitch": 65, "tick": 375120, "length": 180, "velocity": 96}, {"pitch": 72, "tick": 375360, "length": 180, "velocity": 112}, {"pitch": 65, "tick": 375360, "length": 180, "velocity": 96}, {"pitch": 72, "tick": 375600, "length": 60, "velocity": 112}, {"pitch": 65, "tick": 375600, "length": 60, "velocity": 96}, {"pitch": 72, "tick": 375720, "length": 60, "velocity": 112}, {"pitch": 65, "tick": 375720, "length": 60, "velocity": 96}, {"pitch": 72, "tick": 375840, "length": 60, "velocity": 112}, {"pitch": 65, "tick": 375840, "length": 60, "velocity": 96}, {"pitch": 72, "tick": 375960, "length": 60, "velocity": 112}, {"pitch": 65, "tick": 375960, "length": 60, "velocity": 96}, {"pitch": 72, "tick": 376080, "length": 180, "velocity": 112}, {"pitch": 65, "tick": 376080, "length": 180, "velocity": 96}, {"pitch": 67, "tick": 376320, "length": 180, "velocity": 112}, {"pitch": 63, "tick": 376320, "length": 180, "velocity": 96}, {"pitch": 67, "tick": 376560, "length": 60, "velocity": 112}, {"pitch": 63, "tick": 376560, "length": 60, "velocity": 96}, {"pitch": 67, "tick": 376680, "length": 60, "velocity": 112}, {"pitch": 63, "tick": 376680, "length": 60, "velocity": 96}, {"pitch": 67, "tick": 376800, "length": 60, "velocity": 112}, {"pitch": 63, "tick": 376800, "length": 60, "velocity": 96}, {"pitch": 67, "tick": 376920, "length": 60, "velocity": 112}, {"pitch": 63, "tick": 376920, "length": 60, "velocity": 96}, {"pitch": 67, "tick": 377040, "length": 180, "velocity": 112}, {"pitch": 63, "tick": 377040, "length": 180, "velocity": 96}, {"pitch": 72, "tick": 377280, "length": 480, "velocity": 104}, {"pitch": 67, "tick": 377280, "length": 480, "velocity": 88}, {"pitch": 84, "tick": 377280, "length": 480, "velocity": 80}, {"pitch": 79, "tick": 377280, "length": 480, "velocity": 64}, {"pitch": 74, "tick": 377760, "length": 480, "velocity": 104}, {"pitch": 70, "tick": 377760, "length": 480, "velocity": 88}, {"pitch": 86, "tick": 377760, "length": 480, "velocity": 80}, {"pitch": 82, "tick": 377760, "length": 480, "velocity": 64}, {"pitch": 87, "tick": 378240, "length": 960, "velocity": 80}, {"pitch": 84, "tick": 378240, "length": 960, "velocity": 64}, {"pitch": 75, "tick": 378240, "length": 960, "velocity": 104}, {"pitch": 72, "tick": 378240, "length": 960, "velocity": 88}, {"pitch": 86, "tick": 379200, "length": 480, "velocity": 80}, {"pitch": 82, "tick": 379200, "length": 480, "velocity": 64}, {"pitch": 74, "tick": 379200, "length": 480, "velocity": 104}, {"pitch": 70, "tick": 379200, "length": 480, "velocity": 88}, {"pitch": 87, "tick": 379680, "length": 480, "velocity": 80}, {"pitch": 84, "tick": 379680, "length": 480, "velocity": 64}, {"pitch": 75, "tick": 379680, "length": 480, "velocity": 104}, {"pitch": 72, "tick": 379680, "length": 480, "velocity": 88}, {"pitch": 89, "tick": 380160, "length": 960, "velocity": 80}, {"pitch": 82, "tick": 380160, "length": 960, "velocity": 64}, {"pitch": 77, "tick": 380160, "length": 960, "velocity": 104}, {"pitch": 70, "tick": 380160, "length": 960, "velocity": 88}, {"pitch": 87, "tick": 381120, "length": 480, "velocity": 80}, {"pitch": 82, "tick": 381120, "length": 480, "velocity": 64}, {"pitch": 75, "tick": 381120, "length": 480, "velocity": 104}, {"pitch": 70, "tick": 381120, "length": 480, "velocity": 88}, {"pitch": 89, "tick": 381600, "length": 480, "velocity": 80}, {"pitch": 82, "tick": 381600, "length": 480, "velocity": 64}, {"pitch": 77, "tick": 381600, "length": 480, "velocity": 104}, {"pitch": 70, "tick": 381600, "length": 480, "velocity": 88}, {"pitch": 91, "tick": 382080, "length": 660, "velocity": 80}, {"pitch": 84, "tick": 382080, "length": 660, "velocity": 64}, {"pitch": 79, "tick": 382080, "length": 660, "velocity": 104}, {"pitch": 72, "tick": 382080, "length": 660, "velocity": 88}, {"pitch": 91, "tick": 382800, "length": 180, "velocity": 80}, {"pitch": 84, "tick": 382800, "length": 180, "velocity": 64}, {"pitch": 79, "tick": 382800, "length": 180, "velocity": 104}, {"pitch": 72, "tick": 382800, "length": 180, "velocity": 88}, {"pitch": 91, "tick": 383040, "length": 60, "velocity": 80}, {"pitch": 84, "tick": 383040, "length": 60, "velocity": 64}, {"pitch": 79, "tick": 383040, "length": 60, "velocity": 104}, {"pitch": 72, "tick": 383040, "length": 60, "velocity": 88}, {"pitch": 91, "tick": 383160, "length": 60, "velocity": 80}, {"pitch": 84, "tick": 383160, "length": 60, "velocity": 64}, {"pitch": 79, "tick": 383160, "length": 60, "velocity": 104}, {"pitch": 72, "tick": 383160, "length": 60, "velocity": 88}, {"pitch": 91, "tick": 383280, "length": 180, "velocity": 80}, {"pitch": 84, "tick": 383280, "length": 180, "velocity": 64}, {"pitch": 79, "tick": 383280, "length": 180, "velocity": 104}, {"pitch": 72, "tick": 383280, "length": 180, "velocity": 88}, {"pitch": 94, "tick": 383520, "length": 60, "velocity": 80}, {"pitch": 89, "tick": 383520, "length": 60, "velocity": 64}, {"pitch": 82, "tick": 383520, "length": 60, "velocity": 104}, {"pitch": 77, "tick": 383520, "length": 60, "velocity": 88}, {"pitch": 94, "tick": 383640, "length": 60, "velocity": 80}, {"pitch": 89, "tick": 383640, "length": 60, "velocity": 64}, {"pitch": 82, "tick": 383640, "length": 60, "velocity": 104}, {"pitch": 77, "tick": 383640, "length": 60, "velocity": 88}, {"pitch": 94, "tick": 383760, "length": 180, "velocity": 80}, {"pitch": 89, "tick": 383760, "length": 180, "velocity": 64}, {"pitch": 82, "tick": 383760, "length": 180, "velocity": 104}, {"pitch": 77, "tick": 383760, "length": 180, "velocity": 88}, {"pitch": 96, "tick": 384000, "length": 480, "velocity": 80}, {"pitch": 91, "tick": 384000, "length": 480, "velocity": 64}, {"pitch": 84, "tick": 384000, "length": 480, "velocity": 104}, {"pitch": 79, "tick": 384000, "length": 480, "velocity": 88}, {"pitch": 94, "tick": 384480, "length": 480, "velocity": 80}, {"pitch": 89, "tick": 384480, "length": 480, "velocity": 64}, {"pitch": 82, "tick": 384480, "length": 480, "velocity": 104}, {"pitch": 77, "tick": 384480, "length": 480, "velocity": 88}, {"pitch": 91, "tick": 384960, "length": 480, "velocity": 80}, {"pitch": 87, "tick": 384960, "length": 480, "velocity": 64}, {"pitch": 79, "tick": 384960, "length": 480, "velocity": 104}, {"pitch": 75, "tick": 384960, "length": 480, "velocity": 88}, {"pitch": 89, "tick": 385440, "length": 480, "velocity": 80}, {"pitch": 84, "tick": 385440, "length": 480, "velocity": 64}, {"pitch": 77, "tick": 385440, "length": 480, "velocity": 104}, {"pitch": 72, "tick": 385440, "length": 480, "velocity": 88}, {"pitch": 87, "tick": 385920, "length": 660, "velocity": 80}, {"pitch": 84, "tick": 385920, "length": 660, "velocity": 64}, {"pitch": 75, "tick": 385920, "length": 660, "velocity": 104}, {"pitch": 72, "tick": 385920, "length": 660, "velocity": 88}, {"pitch": 87, "tick": 386640, "length": 60, "velocity": 80}, {"pitch": 84, "tick": 386640, "length": 60, "velocity": 64}, {"pitch": 75, "tick": 386640, "length": 60, "velocity": 104}, {"pitch": 72, "tick": 386640, "length": 60, "velocity": 88}, {"pitch": 87, "tick": 386760, "length": 60, "velocity": 80}, {"pitch": 84, "tick": 386760, "length": 60, "velocity": 64}, {"pitch": 75, "tick": 386760, "length": 60, "velocity": 104}, {"pitch": 72, "tick": 386760, "length": 60, "velocity": 88}, {"pitch": 87, "tick": 386880, "length": 180, "velocity": 80}, {"pitch": 84, "tick": 386880, "length": 180, "velocity": 64}, {"pitch": 75, "tick": 386880, "length": 180, "velocity": 104}, {"pitch": 72, "tick": 386880, "length": 180, "velocity": 88}, {"pitch": 87, "tick": 387120, "length": 60, "velocity": 80}, {"pitch": 84, "tick": 387120, "length": 60, "velocity": 64}, {"pitch": 75, "tick": 387120, "length": 60, "velocity": 104}, {"pitch": 72, "tick": 387120, "length": 60, "velocity": 88}, {"pitch": 87, "tick": 387240, "length": 60, "velocity": 80}, {"pitch": 84, "tick": 387240, "length": 60, "velocity": 64}, {"pitch": 75, "tick": 387240, "length": 60, "velocity": 104}, {"pitch": 72, "tick": 387240, "length": 60, "velocity": 88}, {"pitch": 86, "tick": 387360, "length": 480, "velocity": 80}, {"pitch": 82, "tick": 387360, "length": 480, "velocity": 64}, {"pitch": 74, "tick": 387360, "length": 480, "velocity": 104}, {"pitch": 70, "tick": 387360, "length": 480, "velocity": 88}, {"pitch": 84, "tick": 387840, "length": 480, "velocity": 80}, {"pitch": 77, "tick": 387840, "length": 480, "velocity": 64}, {"pitch": 72, "tick": 387840, "length": 480, "velocity": 104}, {"pitch": 65, "tick": 387840, "length": 480, "velocity": 88}, {"pitch": 86, "tick": 388320, "length": 240, "velocity": 80}, {"pitch": 82, "tick": 388320, "length": 240, "velocity": 64}, {"pitch": 74, "tick": 388320, "length": 240, "velocity": 104}, {"pitch": 70, "tick": 388320, "length": 240, "velocity": 88}, {"pitch": 87, "tick": 388560, "length": 240, "velocity": 80}, {"pitch": 84, "tick": 388560, "length": 240, "velocity": 64}, {"pitch": 75, "tick": 388560, "length": 240, "velocity": 104}, {"pitch": 72, "tick": 388560, "length": 240, "velocity": 88}, {"pitch": 86, "tick": 388800, "length": 480, "velocity": 80}, {"pitch": 82, "tick": 388800, "length": 480, "velocity": 64}, {"pitch": 74, "tick": 388800, "length": 480, "velocity": 104}, {"pitch": 70, "tick": 388800, "length": 480, "velocity": 88}, {"pitch": 82, "tick": 389280, "length": 480, "velocity": 80}, {"pitch": 77, "tick": 389280, "length": 480, "velocity": 64}, {"pitch": 70, "tick": 389280, "length": 480, "velocity": 104}, {"pitch": 65, "tick": 389280, "length": 480, "velocity": 88}, {"pitch": 84, "tick": 389760, "length": 660, "velocity": 80}, {"pitch": 79, "tick": 389760, "length": 660, "velocity": 64}, {"pitch": 72, "tick": 389760, "length": 660, "velocity": 104}, {"pitch": 67, "tick": 389760, "length": 660, "velocity": 88}, {"pitch": 84, "tick": 390480, "length": 180, "velocity": 80}, {"pitch": 79, "tick": 390480, "length": 180, "velocity": 64}, {"pitch": 72, "tick": 390480, "length": 180, "velocity": 104}, {"pitch": 67, "tick": 390480, "length": 180, "velocity": 88}, {"pitch": 84, "tick": 390720, "length": 60, "velocity": 80}, {"pitch": 79, "tick": 390720, "length": 60, "velocity": 64}, {"pitch": 72, "tick": 390720, "length": 60, "velocity": 104}, {"pitch": 67, "tick": 390720, "length": 60, "velocity": 88}, {"pitch": 84, "tick": 390840, "length": 60, "velocity": 80}, {"pitch": 79, "tick": 390840, "length": 60, "velocity": 64}, {"pitch": 72, "tick": 390840, "length": 60, "velocity": 104}, {"pitch": 67, "tick": 390840, "length": 60, "velocity": 88}, {"pitch": 84, "tick": 390960, "length": 180, "velocity": 80}, {"pitch": 79, "tick": 390960, "length": 180, "velocity": 64}, {"pitch": 72, "tick": 390960, "length": 180, "velocity": 104}, {"pitch": 67, "tick": 390960, "length": 180, "velocity": 88}, {"pitch": 86, "tick": 391200, "length": 180, "velocity": 80}, {"pitch": 82, "tick": 391200, "length": 180, "velocity": 64}, {"pitch": 74, "tick": 391200, "length": 180, "velocity": 104}, {"pitch": 70, "tick": 391200, "length": 180, "velocity": 88}, {"pitch": 86, "tick": 391440, "length": 60, "velocity": 80}, {"pitch": 82, "tick": 391440, "length": 60, "velocity": 64}, {"pitch": 74, "tick": 391440, "length": 60, "velocity": 104}, {"pitch": 70, "tick": 391440, "length": 60, "velocity": 88}, {"pitch": 86, "tick": 391560, "length": 60, "velocity": 80}, {"pitch": 82, "tick": 391560, "length": 60, "velocity": 64}, {"pitch": 74, "tick": 391560, "length": 60, "velocity": 104}, {"pitch": 70, "tick": 391560, "length": 60, "velocity": 88}, {"pitch": 87, "tick": 391680, "length": 60, "velocity": 80}, {"pitch": 84, "tick": 391680, "length": 60, "velocity": 64}, {"pitch": 75, "tick": 391680, "length": 60, "velocity": 104}, {"pitch": 72, "tick": 391680, "length": 60, "velocity": 88}, {"pitch": 87, "tick": 391800, "length": 60, "velocity": 80}, {"pitch": 84, "tick": 391800, "length": 60, "velocity": 64}, {"pitch": 75, "tick": 391800, "length": 60, "velocity": 104}, {"pitch": 72, "tick": 391800, "length": 60, "velocity": 88}, {"pitch": 87, "tick": 391920, "length": 180, "velocity": 80}, {"pitch": 84, "tick": 391920, "length": 180, "velocity": 64}, {"pitch": 75, "tick": 391920, "length": 180, "velocity": 104}, {"pitch": 72, "tick": 391920, "length": 180, "velocity": 88}, {"pitch": 86, "tick": 392160, "length": 240, "velocity": 80}, {"pitch": 82, "tick": 392160, "length": 240, "velocity": 64}, {"pitch": 74, "tick": 392160, "length": 240, "velocity": 104}, {"pitch": 70, "tick": 392160, "length": 240, "velocity": 88}, {"pitch": 87, "tick": 392400, "length": 120, "velocity": 80}, {"pitch": 84, "tick": 392400, "length": 120, "velocity": 64}, {"pitch": 75, "tick": 392400, "length": 120, "velocity": 104}, {"pitch": 72, "tick": 392400, "length": 120, "velocity": 88}, {"pitch": 89, "tick": 392520, "length": 120, "velocity": 80}, {"pitch": 86, "tick": 392520, "length": 120, "velocity": 64}, {"pitch": 77, "tick": 392520, "length": 120, "velocity": 104}, {"pitch": 74, "tick": 392520, "length": 120, "velocity": 88}, {"pitch": 91, "tick": 392640, "length": 480, "velocity": 80}, {"pitch": 87, "tick": 392640, "length": 480, "velocity": 64}, {"pitch": 79, "tick": 392640, "length": 480, "velocity": 104}, {"pitch": 75, "tick": 392640, "length": 480, "velocity": 88}, {"pitch": 94, "tick": 393120, "length": 480, "velocity": 80}, {"pitch": 91, "tick": 393120, "length": 480, "velocity": 64}, {"pitch": 82, "tick": 393120, "length": 480, "velocity": 104}, {"pitch": 79, "tick": 393120, "length": 480, "velocity": 88}, {"pitch": 96, "tick": 393600, "length": 420, "velocity": 80}, {"pitch": 89, "tick": 393600, "length": 420, "velocity": 64}, {"pitch": 84, "tick": 393600, "length": 420, "velocity": 104}, {"pitch": 77, "tick": 393600, "length": 420, "velocity": 88}, {"pitch": 96, "tick": 394080, "length": 60, "velocity": 80}, {"pitch": 89, "tick": 394080, "length": 60, "velocity": 64}, {"pitch": 84, "tick": 394080, "length": 60, "velocity": 104}, {"pitch": 77, "tick": 394080, "length": 60, "velocity": 88}, {"pitch": 96, "tick": 394200, "length": 60, "velocity": 80}, {"pitch": 89, "tick": 394200, "length": 60, "velocity": 64}, {"pitch": 84, "tick": 394200, "length": 60, "velocity": 104}, {"pitch": 77, "tick": 394200, "length": 60, "velocity": 88}, {"pitch": 96, "tick": 394320, "length": 180, "velocity": 80}, {"pitch": 89, "tick": 394320, "length": 180, "velocity": 64}, {"pitch": 84, "tick": 394320, "length": 180, "velocity": 104}, {"pitch": 77, "tick": 394320, "length": 180, "velocity": 88}, {"pitch": 96, "tick": 394560, "length": 60, "velocity": 80}, {"pitch": 89, "tick": 394560, "length": 60, "velocity": 64}, {"pitch": 84, "tick": 394560, "length": 60, "velocity": 104}, {"pitch": 77, "tick": 394560, "length": 60, "velocity": 88}, {"pitch": 96, "tick": 394680, "length": 60, "velocity": 80}, {"pitch": 89, "tick": 394680, "length": 60, "velocity": 64}, {"pitch": 84, "tick": 394680, "length": 60, "velocity": 104}, {"pitch": 77, "tick": 394680, "length": 60, "velocity": 88}, {"pitch": 96, "tick": 394800, "length": 180, "velocity": 80}, {"pitch": 89, "tick": 394800, "length": 180, "velocity": 64}, {"pitch": 84, "tick": 394800, "length": 180, "velocity": 104}, {"pitch": 77, "tick": 394800, "length": 180, "velocity": 88}, {"pitch": 94, "tick": 395040, "length": 480, "velocity": 80}, {"pitch": 89, "tick": 395040, "length": 480, "velocity": 64}, {"pitch": 82, "tick": 395040, "length": 480, "velocity": 104}, {"pitch": 77, "tick": 395040, "length": 480, "velocity": 88}, {"pitch": 91, "tick": 395520, "length": 240, "velocity": 80}, {"pitch": 87, "tick": 395520, "length": 240, "velocity": 64}, {"pitch": 79, "tick": 395520, "length": 240, "velocity": 104}, {"pitch": 75, "tick": 395520, "length": 240, "velocity": 88}, {"pitch": 89, "tick": 395760, "length": 240, "velocity": 80}, {"pitch": 84, "tick": 395760, "length": 240, "velocity": 64}, {"pitch": 77, "tick": 395760, "length": 240, "velocity": 104}, {"pitch": 72, "tick": 395760, "length": 240, "velocity": 88}, {"pitch": 91, "tick": 396000, "length": 240, "velocity": 80}, {"pitch": 87, "tick": 396000, "length": 240, "velocity": 64}, {"pitch": 79, "tick": 396000, "length": 240, "velocity": 104}, {"pitch": 75, "tick": 396000, "length": 240, "velocity": 88}, {"pitch": 94, "tick": 396240, "length": 240, "velocity": 80}, {"pitch": 89, "tick": 396240, "length": 240, "velocity": 64}, {"pitch": 82, "tick": 396240, "length": 240, "velocity": 104}, {"pitch": 77, "tick": 396240, "length": 240, "velocity": 88}, {"pitch": 91, "tick": 396480, "length": 480, "velocity": 80}, {"pitch": 87, "tick": 396480, "length": 480, "velocity": 64}, {"pitch": 79, "tick": 396480, "length": 480, "velocity": 104}, {"pitch": 75, "tick": 396480, "length": 480, "velocity": 88}, {"pitch": 89, "tick": 396960, "length": 480, "velocity": 80}, {"pitch": 84, "tick": 396960, "length": 480, "velocity": 64}, {"pitch": 77, "tick": 396960, "length": 480, "velocity": 104}, {"pitch": 72, "tick": 396960, "length": 480, "velocity": 88}, {"pitch": 87, "tick": 397440, "length": 420, "velocity": 80}, {"pitch": 84, "tick": 397440, "length": 420, "velocity": 64}, {"pitch": 75, "tick": 397440, "length": 420, "velocity": 104}, {"pitch": 72, "tick": 397440, "length": 420, "velocity": 88}, {"pitch": 87, "tick": 397920, "length": 180, "velocity": 80}, {"pitch": 84, "tick": 397920, "length": 180, "velocity": 64}, {"pitch": 75, "tick": 397920, "length": 180, "velocity": 104}, {"pitch": 72, "tick": 397920, "length": 180, "velocity": 88}, {"pitch": 87, "tick": 398160, "length": 60, "velocity": 80}, {"pitch": 84, "tick": 398160, "length": 60, "velocity": 64}, {"pitch": 75, "tick": 398160, "length": 60, "velocity": 104}, {"pitch": 72, "tick": 398160, "length": 60, "velocity": 88}, {"pitch": 87, "tick": 398280, "length": 60, "velocity": 80}, {"pitch": 84, "tick": 398280, "length": 60, "velocity": 64}, {"pitch": 75, "tick": 398280, "length": 60, "velocity": 104}, {"pitch": 72, "tick": 398280, "length": 60, "velocity": 88}, {"pitch": 87, "tick": 398400, "length": 60, "velocity": 80}, {"pitch": 84, "tick": 398400, "length": 60, "velocity": 64}, {"pitch": 75, "tick": 398400, "length": 60, "velocity": 104}, {"pitch": 72, "tick": 398400, "length": 60, "velocity": 88}, {"pitch": 87, "tick": 398520, "length": 60, "velocity": 80}, {"pitch": 84, "tick": 398520, "length": 60, "velocity": 64}, {"pitch": 75, "tick": 398520, "length": 60, "velocity": 104}, {"pitch": 72, "tick": 398520, "length": 60, "velocity": 88}, {"pitch": 87, "tick": 398640, "length": 180, "velocity": 80}, {"pitch": 84, "tick": 398640, "length": 180, "velocity": 64}, {"pitch": 75, "tick": 398640, "length": 180, "velocity": 104}, {"pitch": 72, "tick": 398640, "length": 180, "velocity": 88}, {"pitch": 84, "tick": 398880, "length": 240, "velocity": 80}, {"pitch": 79, "tick": 398880, "length": 240, "velocity": 64}, {"pitch": 72, "tick": 398880, "length": 240, "velocity": 104}, {"pitch": 67, "tick": 398880, "length": 240, "velocity": 88}, {"pitch": 87, "tick": 399120, "length": 240, "velocity": 80}, {"pitch": 82, "tick": 399120, "length": 240, "velocity": 64}, {"pitch": 75, "tick": 399120, "length": 240, "velocity": 104}, {"pitch": 70, "tick": 399120, "length": 240, "velocity": 88}, {"pitch": 89, "tick": 399360, "length": 240, "velocity": 80}, {"pitch": 85, "tick": 399360, "length": 240, "velocity": 64}, {"pitch": 77, "tick": 399360, "length": 240, "velocity": 104}, {"pitch": 73, "tick": 399360, "length": 240, "velocity": 88}, {"pitch": 87, "tick": 399600, "length": 240, "velocity": 80}, {"pitch": 84, "tick": 399600, "length": 240, "velocity": 64}, {"pitch": 75, "tick": 399600, "length": 240, "velocity": 104}, {"pitch": 72, "tick": 399600, "length": 240, "velocity": 88}, {"pitch": 89, "tick": 399840, "length": 240, "velocity": 80}, {"pitch": 85, "tick": 399840, "length": 240, "velocity": 64}, {"pitch": 77, "tick": 399840, "length": 240, "velocity": 104}, {"pitch": 73, "tick": 399840, "length": 240, "velocity": 88}, {"pitch": 91, "tick": 400080, "length": 240, "velocity": 80}, {"pitch": 87, "tick": 400080, "length": 240, "velocity": 80}, {"pitch": 79, "tick": 400080, "length": 240, "velocity": 104}, {"pitch": 75, "tick": 400080, "length": 240, "velocity": 104}, {"pitch": 89, "tick": 400320, "length": 480, "velocity": 80}, {"pitch": 85, "tick": 400320, "length": 480, "velocity": 64}, {"pitch": 77, "tick": 400320, "length": 480, "velocity": 104}, {"pitch": 73, "tick": 400320, "length": 480, "velocity": 88}, {"pitch": 87, "tick": 400800, "length": 480, "velocity": 80}, {"pitch": 82, "tick": 400800, "length": 480, "velocity": 64}, {"pitch": 75, "tick": 400800, "length": 480, "velocity": 104}, {"pitch": 70, "tick": 400800, "length": 480, "velocity": 88}, {"pitch": 84, "tick": 401280, "length": 420, "velocity": 80}, {"pitch": 79, "tick": 401280, "length": 420, "velocity": 64}, {"pitch": 72, "tick": 401280, "length": 420, "velocity": 104}, {"pitch": 67, "tick": 401280, "length": 420, "velocity": 88}, {"pitch": 84, "tick": 401760, "length": 60, "velocity": 80}, {"pitch": 79, "tick": 401760, "length": 60, "velocity": 64}, {"pitch": 72, "tick": 401760, "length": 60, "velocity": 104}, {"pitch": 67, "tick": 401760, "length": 60, "velocity": 88}, {"pitch": 84, "tick": 401880, "length": 60, "velocity": 80}, {"pitch": 79, "tick": 401880, "length": 60, "velocity": 64}, {"pitch": 72, "tick": 401880, "length": 60, "velocity": 104}, {"pitch": 67, "tick": 401880, "length": 60, "velocity": 88}, {"pitch": 84, "tick": 402000, "length": 180, "velocity": 80}, {"pitch": 79, "tick": 402000, "length": 180, "velocity": 64}, {"pitch": 72, "tick": 402000, "length": 180, "velocity": 104}, {"pitch": 67, "tick": 402000, "length": 180, "velocity": 88}, {"pitch": 82, "tick": 402240, "length": 180, "velocity": 80}, {"pitch": 79, "tick": 402240, "length": 180, "velocity": 64}, {"pitch": 70, "tick": 402240, "length": 180, "velocity": 104}, {"pitch": 67, "tick": 402240, "length": 180, "velocity": 88}, {"pitch": 82, "tick": 402480, "length": 60, "velocity": 80}, {"pitch": 79, "tick": 402480, "length": 60, "velocity": 64}, {"pitch": 70, "tick": 402480, "length": 60, "velocity": 104}, {"pitch": 67, "tick": 402480, "length": 60, "velocity": 88}, {"pitch": 82, "tick": 402600, "length": 60, "velocity": 80}, {"pitch": 79, "tick": 402600, "length": 60, "velocity": 64}, {"pitch": 70, "tick": 402600, "length": 60, "velocity": 104}, {"pitch": 67, "tick": 402600, "length": 60, "velocity": 88}, {"pitch": 79, "tick": 402720, "length": 120, "velocity": 80}, {"pitch": 75, "tick": 402720, "length": 120, "velocity": 64}, {"pitch": 67, "tick": 402720, "length": 120, "velocity": 104}, {"pitch": 63, "tick": 402720, "length": 120, "velocity": 88}, {"pitch": 79, "tick": 402840, "length": 120, "velocity": 80}, {"pitch": 75, "tick": 402840, "length": 120, "velocity": 64}, {"pitch": 67, "tick": 402840, "length": 120, "velocity": 104}, {"pitch": 63, "tick": 402840, "length": 120, "velocity": 88}, {"pitch": 82, "tick": 402960, "length": 240, "velocity": 80}, {"pitch": 79, "tick": 402960, "length": 240, "velocity": 64}, {"pitch": 70, "tick": 402960, "length": 240, "velocity": 104}, {"pitch": 67, "tick": 402960, "length": 240, "velocity": 88}, {"pitch": 84, "tick": 403200, "length": 480, "velocity": 80}, {"pitch": 79, "tick": 403200, "length": 480, "velocity": 64}, {"pitch": 72, "tick": 403200, "length": 480, "velocity": 104}, {"pitch": 67, "tick": 403200, "length": 480, "velocity": 88}, {"pitch": 86, "tick": 403680, "length": 240, "velocity": 80}, {"pitch": 82, "tick": 403680, "length": 240, "velocity": 64}, {"pitch": 74, "tick": 403680, "length": 240, "velocity": 104}, {"pitch": 70, "tick": 403680, "length": 240, "velocity": 88}, {"pitch": 87, "tick": 403920, "length": 240, "velocity": 80}, {"pitch": 84, "tick": 403920, "length": 240, "velocity": 64}, {"pitch": 75, "tick": 403920, "length": 240, "velocity": 104}, {"pitch": 72, "tick": 403920, "length": 240, "velocity": 88}, {"pitch": 86, "tick": 404160, "length": 480, "velocity": 80}, {"pitch": 82, "tick": 404160, "length": 480, "velocity": 64}, {"pitch": 74, "tick": 404160, "length": 480, "velocity": 104}, {"pitch": 70, "tick": 404160, "length": 480, "velocity": 88}, {"pitch": 82, "tick": 404640, "length": 480, "velocity": 80}, {"pitch": 79, "tick": 404640, "length": 480, "velocity": 64}, {"pitch": 70, "tick": 404640, "length": 480, "velocity": 104}, {"pitch": 67, "tick": 404640, "length": 480, "velocity": 88}, {"pitch": 84, "tick": 405120, "length": 420, "velocity": 80}, {"pitch": 77, "tick": 405120, "length": 420, "velocity": 64}, {"pitch": 72, "tick": 405120, "length": 420, "velocity": 104}, {"pitch": 65, "tick": 405120, "length": 420, "velocity": 88}, {"pitch": 84, "tick": 405600, "length": 60, "velocity": 80}, {"pitch": 77, "tick": 405600, "length": 60, "velocity": 64}, {"pitch": 72, "tick": 405600, "length": 60, "velocity": 104}, {"pitch": 65, "tick": 405600, "length": 60, "velocity": 88}, {"pitch": 84, "tick": 405720, "length": 60, "velocity": 80}, {"pitch": 77, "tick": 405720, "length": 60, "velocity": 64}, {"pitch": 72, "tick": 405720, "length": 60, "velocity": 104}, {"pitch": 65, "tick": 405720, "length": 60, "velocity": 88}, {"pitch": 84, "tick": 405840, "length": 180, "velocity": 80}, {"pitch": 77, "tick": 405840, "length": 180, "velocity": 64}, {"pitch": 72, "tick": 405840, "length": 180, "velocity": 104}, {"pitch": 65, "tick": 405840, "length": 180, "velocity": 88}, {"pitch": 84, "tick": 406080, "length": 180, "velocity": 80}, {"pitch": 77, "tick": 406080, "length": 180, "velocity": 64}, {"pitch": 72, "tick": 406080, "length": 180, "velocity": 104}, {"pitch": 65, "tick": 406080, "length": 180, "velocity": 88}, {"pitch": 84, "tick": 406320, "length": 60, "velocity": 80}, {"pitch": 77, "tick": 406320, "length": 60, "velocity": 64}, {"pitch": 72, "tick": 406320, "length": 60, "velocity": 104}, {"pitch": 65, "tick": 406320, "length": 60, "velocity": 88}, {"pitch": 84, "tick": 406440, "length": 60, "velocity": 80}, {"pitch": 77, "tick": 406440, "length": 60, "velocity": 64}, {"pitch": 72, "tick": 406440, "length": 60, "velocity": 104}, {"pitch": 65, "tick": 406440, "length": 60, "velocity": 88}, {"pitch": 84, "tick": 406560, "length": 60, "velocity": 80}, {"pitch": 77, "tick": 406560, "length": 60, "velocity": 64}, {"pitch": 72, "tick": 406560, "length": 60, "velocity": 104}, {"pitch": 65, "tick": 406560, "length": 60, "velocity": 88}, {"pitch": 84, "tick": 406680, "length": 60, "velocity": 80}, {"pitch": 77, "tick": 406680, "length": 60, "velocity": 64}, {"pitch": 72, "tick": 406680, "length": 60, "velocity": 104}, {"pitch": 65, "tick": 406680, "length": 60, "velocity": 88}, {"pitch": 84, "tick": 406800, "length": 180, "velocity": 80}, {"pitch": 77, "tick": 406800, "length": 180, "velocity": 64}, {"pitch": 72, "tick": 406800, "length": 180, "velocity": 104}, {"pitch": 65, "tick": 406800, "length": 180, "velocity": 88}]}, {"channel": 1, "length": 408900, "track_name": "\u0083\u0081\u0083\u008d\u0083f\u0083B\u0081[\u0083G\u0083\u008c\u0083s\u0095\u0097\u0083V\u0083\u0093\u0083Z/\u0083A\u0083\u008b\u0083y\u0083W\u0083I\u0083V\u0083\u0093\u0083Z\u008d\u00b6", "events": [{"type": "track_name", "name": "\u0083\u0081\u0083\u008d\u0083f\u0083B\u0081[\u0083G\u0083\u008c\u0083s\u0095\u0097\u0083V\u0083\u0093\u0083Z/\u0083A\u0083\u008b\u0083y\u0083W\u0083I\u0083V\u0083\u0093\u0083Z\u008d\u00b6", "tick": 0}, {"type": "midi_port", "port": 0, "tick": 0}, {"type": "control_change", "control": 0, "value": 121, "channel": 1, "tick": 480}, {"type": "control_change", "control": 32, "value": 1, "channel": 1, "tick": 480}, {"type": "program_change", "program": 98, "channel": 1, "tick": 480}, {"type": "sysex", "data": [65, 16, 0, 72, 18, 16, 0, 33, 63, 0, 16], "tick": 540}, {"type": "control_change", "control": 7, "value": 72, "channel": 1, "tick": 600}, {"type": "control_change", "control": 10, "value": 64, "channel": 1, "tick": 660}, {"type": "control_change", "control": 91, "value": 16, "channel": 1, "tick": 720}, {"type": "control_change", "control": 93, "value": 0, "channel": 1, "tick": 780}, {"type": "control_change", "control": 74, "value": 88, "channel": 1, "tick": 840}, {"type": "control_change", "control": 71, "value": 72, "channel": 1, "tick": 900}, {"type": "control_change", "control": 73, "value": 64, "channel": 1, "tick": 960}, {"type": "control_change", "control": 75, "value": 54, "channel": 1, "tick": 1020}, {"type": "control_change", "control": 72, "value": 36, "channel": 1, "tick": 1080}, {"type": "control_change", "control": 101, "value": 0, "channel": 1, "tick": 1140}, {"type": "control_change", "control": 100, "value": 0, "channel": 1, "tick": 1140}, {"type": "control_change", "control": 6, "value": 12, "channel": 1, "tick": 1140}, {"type": "control_change", "control": 38, "value": 0, "channel": 1, "tick": 1140}, {"type": "pitchwheel", "channel": 1, "pitch": 0, "tick": 1200}, {"type": "control_change", "control": 1, "value": 0, "channel": 1, "tick": 1260}, {"type": "control_change", "control": 11, "value": 127, "channel": 1, "tick": 1320}, {"type": "control_change", "control": 101, "value": 127, "channel": 1, "tick": 1380}, {"type": "control_change", "control": 100, "value": 127, "channel": 1, "tick": 1380}, {"type": "control_change", "control": 6, "value": 0, "channel": 1, "tick": 1380}, {"type": "control_change", "control": 38, "value": 0, "channel": 1, "tick": 1380}, {"type": "control_change", "control": 0, "value": 121, "channel": 1, "tick": 345600}, {"type": "control_change", "control": 32, "value": 0, "channel": 1, "tick": 345600}, {"type": "program_change", "program": 87, "channel": 1, "tick": 345600}, {"type": "sysex", "data": [65, 16, 0, 72, 18, 16, 0, 33, 63, 0, 16], "tick": 345660}, {"type": "control_change", "control": 7, "value": 56, "channel": 1, "tick": 345720}, {"type": "control_change", "control": 10, "value": 16, "channel": 1, "tick": 345780}, {"type": "control_change", "control": 91, "value": 0, "channel": 1, "tick": 345840}, {"type": "control_change", "control": 93, "value": 0, "channel": 1, "tick": 345900}, {"type": "control_change", "control": 74, "value": 72, "channel": 1, "tick": 345960}, {"type": "control_change", "control": 71, "value": 64, "channel": 1, "tick": 346020}, {"type": "control_change", "control": 73, "value": 64, "channel": 1, "tick": 346080}, {"type": "control_change", "control": 75, "value": 64, "channel": 1, "tick": 346140}, {"type": "control_change", "control": 72, "value": 64, "channel": 1, "tick": 346200}, {"type": "control_change", "control": 101, "value": 0, "channel": 1, "tick": 346260}, {"type": "control_change", "control": 100, "value": 0, "channel": 1, "tick": 346260}, {"type": "control_change", "control": 6, "value": 12, "channel": 1, "tick": 346260}, {"type": "control_change", "control": 38, "value": 0, "channel": 1, "tick": 346260}, {"type": "pitchwheel", "channel": 1, "pitch": 0, "tick": 346320}, {"type": "control_change", "control": 1, "value": 0, "channel": 1, "tick": 346380}, {"type": "control_change", "control": 11, "value": 127, "channel": 1, "tick": 346440}, {"type": "control_change", "control": 101, "value": 127, "channel": 1, "tick": 346500}, {"type": "control_change", "control": 100, "value": 127, "channel": 1, "tick": 346500}, {"type": "control_change", "control": 6, "value": 0, "channel": 1, "tick": 346500}, {"type": "control_change", "control": 38, "value": 0, "channel": 1, "tick": 346500}, {"type": "end_of_track", "tick": 408900}], "notes": [{"pitch": 72, "tick": 221520, "length": 1320, "velocity": 96}, {"pitch": 74, "tick": 222840, "length": 1320, "velocity": 96}, {"pitch": 75, "tick": 224160, "length": 1200, "velocity": 96}, {"pitch": 74, "tick": 225360, "length": 600, "velocity": 96}, {"pitch": 75, "tick": 225960, "length": 600, "velocity": 96}, {"pitch": 77, "tick": 226560, "length": 960, "velocity": 96}, {"pitch": 75, "tick": 227520, "length": 480, "velocity": 96}, {"pitch": 77, "tick": 228000, "length": 480, "velocity": 96}, {"pitch": 79, "tick": 228480, "length": 1440, "velocity": 96}, {"pitch": 82, "tick": 229920, "length": 480, "velocity": 96}, {"pitch": 84, "tick": 230400, "length": 480, "velocity": 96}, {"pitch": 82, "tick": 230880, "length": 480, "velocity": 96}, {"pitch": 79, "tick": 231360, "length": 480, "velocity": 96}, {"pitch": 77, "tick": 231840, "length": 480, "velocity": 96}, {"pitch": 75, "tick": 232320, "length": 1440, "velocity": 96}, {"pitch": 72, "tick": 233760, "length": 480, "velocity": 96}, {"pitch": 74, "tick": 234240, "length": 480, "velocity": 96}, {"pitch": 75, "tick": 234720, "length": 240, "velocity": 96}, {"pitch": 74, "tick": 234960, "length": 120, "velocity": 96}, {"pitch": 75, "tick": 235080, "length": 120, "velocity": 96}, {"pitch": 74, "tick": 235200, "length": 480, "velocity": 96}, {"pitch": 70, "tick": 235680, "length": 480, "velocity": 96}, {"pitch": 72, "tick": 236160, "length": 1200, "velocity": 96}, {"pitch": 72, "tick": 237360, "length": 240, "velocity": 96}, {"pitch": 74, "tick": 237600, "length": 480, "velocity": 96}, {"pitch": 75, "tick": 238080, "length": 480, "velocity": 96}, {"pitch": 74, "tick": 238560, "length": 240, "velocity": 96}, {"pitch": 75, "tick": 238800, "length": 240, "velocity": 96}, {"pitch": 79, "tick": 239040, "length": 480, "velocity": 96}, {"pitch": 82, "tick": 239520, "length": 480, "velocity": 96}, {"pitch": 84, "tick": 240000, "length": 720, "velocity": 96}, {"pitch": 84, "tick": 240720, "length": 480, "velocity": 96}, {"pitch": 84, "tick": 241200, "length": 240, "velocity": 96}, {"pitch": 82, "tick": 241440, "length": 480, "velocity": 96}, {"pitch": 79, "tick": 241920, "length": 240, "velocity": 96}, {"pitch": 77, "tick": 242160, "length": 180, "velocity": 96}, {"pitch": 78, "tick": 242340, "length": 60, "velocity": 96}, {"pitch": 79, "tick": 242400, "length": 240, "velocity": 96}, {"pitch": 82, "tick": 242640, "length": 240, "velocity": 96}, {"pitch": 79, "tick": 242880, "length": 480, "velocity": 96}, {"pitch": 77, "tick": 243360, "length": 480, "velocity": 96}, {"pitch": 75, "tick": 243840, "length": 720, "velocity": 96}, {"pitch": 75, "tick": 244560, "length": 480, "velocity": 96}, {"pitch": 75, "tick": 245040, "length": 240, "velocity": 96}, {"pitch": 72, "tick": 245280, "length": 240, "velocity": 96}, {"pitch": 75, "tick": 245520, "length": 240, "velocity": 96}, {"pitch": 77, "tick": 245760, "length": 240, "velocity": 96}, {"pitch": 75, "tick": 246000, "length": 240, "velocity": 96}, {"pitch": 77, "tick": 246240, "length": 240, "velocity": 96}, {"pitch": 79, "tick": 246480, "length": 240, "velocity": 96}, {"pitch": 77, "tick": 246720, "length": 480, "velocity": 96}, {"pitch": 75, "tick": 247200, "length": 480, "velocity": 96}, {"pitch": 72, "tick": 247680, "length": 960, "velocity": 96}, {"pitch": 70, "tick": 248640, "length": 480, "velocity": 96}, {"pitch": 67, "tick": 249120, "length": 240, "velocity": 96}, {"pitch": 70, "tick": 249360, "length": 240, "velocity": 96}, {"pitch": 72, "tick": 249600, "length": 480, "velocity": 96}, {"pitch": 74, "tick": 250080, "length": 240, "velocity": 96}, {"pitch": 75, "tick": 250320, "length": 240, "velocity": 96}, {"pitch": 74, "tick": 250560, "length": 480, "velocity": 96}, {"pitch": 70, "tick": 251040, "length": 480, "velocity": 96}, {"pitch": 72, "tick": 251520, "length": 1920, "velocity": 96}, {"pitch": 72, "tick": 254400, "length": 480, "velocity": 96}, {"pitch": 74, "tick": 254880, "length": 480, "velocity": 96}, {"pitch": 75, "tick": 255360, "length": 960, "velocity": 96}, {"pitch": 74, "tick": 256320, "length": 480, "velocity": 96}, {"pitch": 75, "tick": 256800, "length": 480, "velocity": 96}, {"pitch": 77, "tick": 257280, "length": 960, "velocity": 96}, {"pitch": 75, "tick": 258240, "length": 480, "velocity": 96}, {"pitch": 77, "tick": 258720, "length": 480, "velocity": 96}, {"pitch": 79, "tick": 259200, "length": 1440, "velocity": 96}, {"pitch": 82, "tick": 260640, "length": 480, "velocity": 96}, {"pitch": 84, "tick": 261120, "length": 480, "velocity": 96}, {"pitch": 82, "tick": 261600, "length": 480, "velocity": 96}, {"pitch": 79, "tick": 262080, "length": 480, "velocity": 96}, {"pitch": 77, "tick": 262560, "length": 480, "velocity": 96}, {"pitch": 75, "tick": 263040, "length": 1440, "velocity": 96}, {"pitch": 72, "tick": 264480, "length": 480, "velocity": 96}, {"pitch": 74, "tick": 264960, "length": 480, "velocity": 96}, {"pitch": 75, "tick": 265440, "length": 240, "velocity": 96}, {"pitch": 74, "tick": 265680, "length": 120, "velocity": 96}, {"pitch": 75, "tick": 265800, "length": 120, "velocity": 96}, {"pitch": 74, "tick": 265920, "length": 480, "velocity": 96}, {"pitch": 70, "tick": 266400, "length": 480, "velocity": 96}, {"pitch": 72, "tick": 266880, "length": 1200, "velocity": 96}, {"pitch": 72, "tick": 268080, "length": 240, "velocity": 96}, {"pitch": 74, "tick": 268320, "length": 480, "velocity": 96}, {"pitch": 75, "tick": 268800, "length": 480, "velocity": 96}, {"pitch": 74, "tick": 269280, "length": 240, "velocity": 96}, {"pitch": 75, "tick": 269520, "length": 240, "velocity": 96}, {"pitch": 79, "tick": 269760, "length": 480, "velocity": 96}, {"pitch": 82, "tick": 270240, "length": 480, "velocity": 96}, {"pitch": 84, "tick": 270720, "length": 720, "velocity": 96}, {"pitch": 84, "tick": 271440, "length": 480, "velocity": 96}, {"pitch": 84, "tick": 271920, "length": 240, "velocity": 96}, {"pitch": 82, "tick": 272160, "length": 480, "velocity": 96}, {"pitch": 79, "tick": 272640, "length": 240, "velocity": 96}, {"pitch": 77, "tick": 272880, "length": 240, "velocity": 96}, {"pitch": 79, "tick": 273120, "length": 240, "velocity": 96}, {"pitch": 82, "tick": 273360, "length": 240, "velocity": 96}, {"pitch": 79, "tick": 273600, "length": 480, "velocity": 96}, {"pitch": 77, "tick": 274080, "length": 480, "velocity": 96}, {"pitch": 75, "tick": 274560, "length": 720, "velocity": 96}, {"pitch": 75, "tick": 275280, "length": 480, "velocity": 96}, {"pitch": 75, "tick": 275760, "length": 240, "velocity": 96}, {"pitch": 72, "tick": 276000, "length": 240, "velocity": 96}, {"pitch": 75, "tick": 276240, "length": 240, "velocity": 96}, {"pitch": 77, "tick": 276480, "length": 240, "velocity": 96}, {"pitch": 75, "tick": 276720, "length": 240, "velocity": 96}, {"pitch": 77, "tick": 276960, "length": 240, "velocity": 96}, {"pitch": 79, "tick": 277200, "length": 240, "velocity": 96}, {"pitch": 77, "tick": 277440, "length": 480, "velocity": 96}, {"pitch": 75, "tick": 277920, "length": 480, "velocity": 96}, {"pitch": 72, "tick": 278400, "length": 960, "velocity": 96}, {"pitch": 70, "tick": 279360, "length": 480, "velocity": 96}, {"pitch": 67, "tick": 279840, "length": 240, "velocity": 96}, {"pitch": 70, "tick": 280080, "length": 240, "velocity": 96}, {"pitch": 72, "tick": 280320, "length": 480, "velocity": 96}, {"pitch": 74, "tick": 280800, "length": 240, "velocity": 96}, {"pitch": 75, "tick": 281040, "length": 240, "velocity": 96}, {"pitch": 74, "tick": 281280, "length": 480, "velocity": 96}, {"pitch": 70, "tick": 281760, "length": 480, "velocity": 96}, {"pitch": 72, "tick": 282240, "length": 1920, "velocity": 96}, {"pitch": 65, "tick": 347520, "length": 60, "velocity": 112}, {"pitch": 68, "tick": 347640, "length": 60, "velocity": 112}, {"pitch": 72, "tick": 347760, "length": 60, "velocity": 112}, {"pitch": 75, "tick": 347880, "length": 60, "velocity": 112}, {"pitch": 75, "tick": 348000, "length": 60, "velocity": 112}, {"pitch": 75, "tick": 348120, "length": 60, "velocity": 112}, {"pitch": 72, "tick": 348240, "length": 60, "velocity": 112}, {"pitch": 68, "tick": 348360, "length": 60, "velocity": 112}, {"pitch": 65, "tick": 348480, "length": 60, "velocity": 112}, {"pitch": 68, "tick": 348600, "length": 60, "velocity": 112}, {"pitch": 72, "tick": 348720, "length": 60, "velocity": 112}, {"pitch": 75, "tick": 348840, "length": 60, "velocity": 112}, {"pitch": 75, "tick": 348960, "length": 60, "velocity": 112}, {"pitch": 75, "tick": 349080, "length": 60, "velocity": 112}, {"pitch": 72, "tick": 349200, "length": 60, "velocity": 112}, {"pitch": 68, "tick": 349320, "length": 60, "velocity": 112}, {"pitch": 67, "tick": 349440, "length": 60, "velocity": 112}, {"pitch": 70, "tick": 349560, "length": 60, "velocity": 112}, {"pitch": 71, "tick": 349680, "length": 60, "velocity": 112}, {"pitch": 75, "tick": 349800, "length": 60, "velocity": 112}, {"pitch": 79, "tick": 349920, "length": 60, "velocity": 112}, {"pitch": 75, "tick": 350040, "length": 60, "velocity": 112}, {"pitch": 71, "tick": 350160, "length": 60, "velocity": 112}, {"pitch": 70, "tick": 350280, "length": 60, "velocity": 112}, {"pitch": 67, "tick": 350400, "length": 60, "velocity": 112}, {"pitch": 70, "tick": 350520, "length": 60, "velocity": 112}, {"pitch": 71, "tick": 350640, "length": 60, "velocity": 112}, {"pitch": 75, "tick": 350760, "length": 60, "velocity": 112}, {"pitch": 79, "tick": 350880, "length": 60, "velocity": 112}, {"pitch": 75, "tick": 351000, "length": 60, "velocity": 112}, {"pitch": 71, "tick": 351120, "length": 60, "velocity": 112}, {"pitch": 70, "tick": 351240, "length": 60, "velocity": 112}, {"pitch": 63, "tick": 351360, "length": 60, "velocity": 112}, {"pitch": 67, "tick": 351480, "length": 60, "velocity": 112}, {"pitch": 70, "tick": 351600, "length": 60, "velocity": 112}, {"pitch": 74, "tick": 351720, "length": 60, "velocity": 112}, {"pitch": 75, "tick": 351840, "length": 60, "velocity": 112}, {"pitch": 74, "tick": 351960, "length": 60, "velocity": 112}, {"pitch": 70, "tick": 352080, "length": 60, "velocity": 112}, {"pitch": 67, "tick": 352200, "length": 60, "velocity": 112}, {"pitch": 63, "tick": 352320, "length": 60, "velocity": 112}, {"pitch": 67, "tick": 352440, "length": 60, "velocity": 112}, {"pitch": 70, "tick": 352560, "length": 60, "velocity": 112}, {"pitch": 74, "tick": 352680, "length": 60, "velocity": 112}, {"pitch": 75, "tick": 352800, "length": 60, "velocity": 112}, {"pitch": 74, "tick": 352920, "length": 60, "velocity": 112}, {"pitch": 70, "tick": 353040, "length": 60, "velocity": 112}, {"pitch": 67, "tick": 353160, "length": 60, "velocity": 112}, {"pitch": 67, "tick": 353280, "length": 60, "velocity": 112}, {"pitch": 70, "tick": 353400, "length": 60, "velocity": 112}, {"pitch": 74, "tick": 353520, "length": 60, "velocity": 112}, {"pitch": 75, "tick": 353640, "length": 60, "velocity": 112}, {"pitch": 79, "tick": 353760, "length": 60, "velocity": 112}, {"pitch": 75, "tick": 353880, "length": 60, "velocity": 112}, {"pitch": 74, "tick": 354000, "length": 60, "velocity": 112}, {"pitch": 70, "tick": 354120, "length": 60, "velocity": 112}, {"pitch": 67, "tick": 354240, "length": 60, "velocity": 112}, {"pitch": 70, "tick": 354360, "length": 60, "velocity": 112}, {"pitch": 74, "tick": 354480, "length": 60, "velocity": 112}, {"pitch": 75, "tick": 354600, "length": 60, "velocity": 112}, {"pitch": 79, "tick": 354720, "length": 60, "velocity": 112}, {"pitch": 75, "tick": 354840, "length": 60, "velocity": 112}, {"pitch": 74, "tick": 354960, "length": 60, "velocity": 112}, {"pitch": 70, "tick": 355080, "length": 60, "velocity": 112}, {"pitch": 67, "tick": 355200, "length": 60, "velocity": 112}, {"pitch": 68, "tick": 355320, "length": 60, "velocity": 112}, {"pitch": 72, "tick": 355440, "length": 60, "velocity": 112}, {"pitch": 75, "tick": 355560, "length": 60, "velocity": 112}, {"pitch": 79, "tick": 355680, "length": 60, "velocity": 112}, {"pitch": 75, "tick": 355800, "length": 60, "velocity": 112}, {"pitch": 72, "tick": 355920, "length": 60, "velocity": 112}, {"pitch": 68, "tick": 356040, "length": 60, "velocity": 112}, {"pitch": 67, "tick": 356160, "length": 60, "velocity": 112}, {"pitch": 68, "tick": 356280, "length": 60, "velocity": 112}, {"pitch": 72, "tick": 356400, "length": 60, "velocity": 112}, {"pitch": 75, "tick": 356520, "length": 60, "velocity": 112}, {"pitch": 79, "tick": 356640, "length": 60, "velocity": 112}, {"pitch": 75, "tick": 356760, "length": 60, "velocity": 112}, {"pitch": 72, "tick": 356880, "length": 60, "velocity": 112}, {"pitch": 68, "tick": 357000, "length": 60, "velocity": 112}, {"pitch": 65, "tick": 357120, "length": 60, "velocity": 112}, {"pitch": 67, "tick": 357240, "length": 60, "velocity": 112}, {"pitch": 70, "tick": 357360, "length": 60, "velocity": 112}, {"pitch": 74, "tick": 357480, "length": 60, "velocity": 112}, {"pitch": 77, "tick": 357600, "length": 60, "velocity": 112}, {"pitch": 74, "tick": 357720, "length": 60, "velocity": 112}, {"pitch": 70, "tick": 357840, "length": 60, "velocity": 112}, {"pitch": 67, "tick": 357960, "length": 60, "velocity": 112}, {"pitch": 65, "tick": 358080, "length": 60, "velocity": 112}, {"pitch": 67, "tick": 358200, "length": 60, "velocity": 112}, {"pitch": 70, "tick": 358320, "length": 60, "velocity": 112}, {"pitch": 74, "tick": 358440, "length": 60, "velocity": 112}, {"pitch": 77, "tick": 358560, "length": 60, "velocity": 112}, {"pitch": 74, "tick": 358680, "length": 60, "velocity": 112}, {"pitch": 70, "tick": 358800, "length": 60, "velocity": 112}, {"pitch": 67, "tick": 358920, "length": 60, "velocity": 112}, {"pitch": 67, "tick": 359040, "length": 60, "velocity": 112}, {"pitch": 70, "tick": 359160, "length": 60, "velocity": 112}, {"pitch": 72, "tick": 359280, "length": 60, "velocity": 112}, {"pitch": 75, "tick": 359400, "length": 60, "velocity": 112}, {"pitch": 79, "tick": 359520, "length": 60, "velocity": 112}, {"pitch": 75, "tick": 359640, "length": 60, "velocity": 112}, {"pitch": 72, "tick": 359760, "length": 60, "velocity": 112}, {"pitch": 70, "tick": 359880, "length": 60, "velocity": 112}, {"pitch": 67, "tick": 360000, "length": 60, "velocity": 112}, {"pitch": 70, "tick": 360120, "length": 60, "velocity": 112}, {"pitch": 72, "tick": 360240, "length": 60, "velocity": 112}, {"pitch": 75, "tick": 360360, "length": 60, "velocity": 112}, {"pitch": 79, "tick": 360480, "length": 60, "velocity": 112}, {"pitch": 75, "tick": 360600, "length": 60, "velocity": 112}, {"pitch": 72, "tick": 360720, "length": 60, "velocity": 112}, {"pitch": 70, "tick": 360840, "length": 60, "velocity": 112}, {"pitch": 67, "tick": 360960, "length": 60, "velocity": 112}, {"pitch": 70, "tick": 361080, "length": 60, "velocity": 112}, {"pitch": 72, "tick": 361200, "length": 60, "velocity": 112}, {"pitch": 75, "tick": 361320, "length": 60, "velocity": 112}, {"pitch": 79, "tick": 361440, "length": 60, "velocity": 112}, {"pitch": 75, "tick": 361560, "length": 60, "velocity": 112}, {"pitch": 72, "tick": 361680, "length": 60, "velocity": 112}, {"pitch": 70, "tick": 361800, "length": 60, "velocity": 112}, {"pitch": 67, "tick": 361920, "length": 60, "velocity": 112}, {"pitch": 70, "tick": 362040, "length": 60, "velocity": 112}, {"pitch": 72, "tick": 362160, "length": 60, "velocity": 112}, {"pitch": 75, "tick": 362280, "length": 60, "velocity": 112}, {"pitch": 79, "tick": 362400, "length": 60, "velocity": 112}, {"pitch": 75, "tick": 362520, "length": 60, "velocity": 112}, {"pitch": 72, "tick": 362640, "length": 60, "velocity": 112}, {"pitch": 70, "tick": 362760, "length": 60, "velocity": 112}, {"pitch": 65, "tick": 362880, "length": 60, "velocity": 112}, {"pitch": 68, "tick": 363000, "length": 60, "velocity": 112}, {"pitch": 70, "tick": 363120, "length": 60, "velocity": 112}, {"pitch": 74, "tick": 363240, "length": 60, "velocity": 112}, {"pitch": 77, "tick": 363360, "length": 60, "velocity": 112}, {"pitch": 74, "tick": 363480, "length": 60, "velocity": 112}, {"pitch": 70, "tick": 363600, "length": 60, "velocity": 112}, {"pitch": 68, "tick": 363720, "length": 60, "velocity": 112}, {"pitch": 65, "tick": 363840, "length": 60, "velocity": 112}, {"pitch": 68, "tick": 363960, "length": 60, "velocity": 112}, {"pitch": 70, "tick": 364080, "length": 60, "velocity": 112}, {"pitch": 74, "tick": 364200, "length": 60, "velocity": 112}, {"pitch": 77, "tick": 364320, "length": 60, "velocity": 112}, {"pitch": 74, "tick": 364440, "length": 60, "velocity": 112}, {"pitch": 70, "tick": 364560, "length": 60, "velocity": 112}, {"pitch": 68, "tick": 364680, "length": 60, "velocity": 112}, {"pitch": 67, "tick": 364800, "length": 60, "velocity": 112}, {"pitch": 70, "tick": 364920, "length": 60, "velocity": 112}, {"pitch": 71, "tick": 365040, "length": 60, "velocity": 112}, {"pitch": 75, "tick": 365160, "length": 60, "velocity": 112}, {"pitch": 77, "tick": 365280, "length": 60, "velocity": 112}, {"pitch": 75, "tick": 365400, "length": 60, "velocity": 112}, {"pitch": 71, "tick": 365520, "length": 60, "velocity": 112}, {"pitch": 70, "tick": 365640, "length": 60, "velocity": 112}, {"pitch": 67, "tick": 365760, "length": 60, "velocity": 112}, {"pitch": 70, "tick": 365880, "length": 60, "velocity": 112}, {"pitch": 71, "tick": 366000, "length": 60, "velocity": 112}, {"pitch": 75, "tick": 366120, "length": 60, "velocity": 112}, {"pitch": 77, "tick": 366240, "length": 60, "velocity": 112}, {"pitch": 75, "tick": 366360, "length": 60, "velocity": 112}, {"pitch": 71, "tick": 366480, "length": 60, "velocity": 112}, {"pitch": 70, "tick": 366600, "length": 60, "velocity": 112}, {"pitch": 63, "tick": 366720, "length": 60, "velocity": 112}, {"pitch": 67, "tick": 366840, "length": 60, "velocity": 112}, {"pitch": 70, "tick": 366960, "length": 60, "velocity": 112}, {"pitch": 74, "tick": 367080, "length": 60, "velocity": 112}, {"pitch": 75, "tick": 367200, "length": 60, "velocity": 112}, {"pitch": 74, "tick": 367320, "length": 60, "velocity": 112}, {"pitch": 70, "tick": 367440, "length": 60, "velocity": 112}, {"pitch": 67, "tick": 367560, "length": 60, "velocity": 112}, {"pitch": 63, "tick": 367680, "length": 60, "velocity": 112}, {"pitch": 67, "tick": 367800, "length": 60, "velocity": 112}, {"pitch": 70, "tick": 367920, "length": 60, "velocity": 112}, {"pitch": 74, "tick": 368040, "length": 60, "velocity": 112}, {"pitch": 75, "tick": 368160, "length": 60, "velocity": 112}, {"pitch": 74, "tick": 368280, "length": 60, "velocity": 112}, {"pitch": 70, "tick": 368400, "length": 60, "velocity": 112}, {"pitch": 67, "tick": 368520, "length": 60, "velocity": 112}, {"pitch": 64, "tick": 368640, "length": 60, "velocity": 112}, {"pitch": 67, "tick": 368760, "length": 60, "velocity": 112}, {"pitch": 70, "tick": 368880, "length": 60, "velocity": 112}, {"pitch": 73, "tick": 369000, "length": 60, "velocity": 112}, {"pitch": 75, "tick": 369120, "length": 60, "velocity": 112}, {"pitch": 73, "tick": 369240, "length": 60, "velocity": 112}, {"pitch": 70, "tick": 369360, "length": 60, "velocity": 112}, {"pitch": 67, "tick": 369480, "length": 60, "velocity": 112}, {"pitch": 64, "tick": 369600, "length": 60, "velocity": 112}, {"pitch": 67, "tick": 369720, "length": 60, "velocity": 112}, {"pitch": 70, "tick": 369840, "length": 60, "velocity": 112}, {"pitch": 73, "tick": 369960, "length": 60, "velocity": 112}, {"pitch": 75, "tick": 370080, "length": 60, "velocity": 112}, {"pitch": 73, "tick": 370200, "length": 60, "velocity": 112}, {"pitch": 70, "tick": 370320, "length": 60, "velocity": 112}, {"pitch": 67, "tick": 370440, "length": 60, "velocity": 112}, {"pitch": 67, "tick": 370560, "length": 60, "velocity": 112}, {"pitch": 68, "tick": 370680, "length": 60, "velocity": 112}, {"pitch": 72, "tick": 370800, "length": 60, "velocity": 112}, {"pitch": 75, "tick": 370920, "length": 60, "velocity": 112}, {"pitch": 79, "tick": 371040, "length": 60, "velocity": 112}, {"pitch": 75, "tick": 371160, "length": 60, "velocity": 112}, {"pitch": 72, "tick": 371280, "length": 60, "velocity": 112}, {"pitch": 68, "tick": 371400, "length": 60, "velocity": 112}, {"pitch": 67, "tick": 371520, "length": 60, "velocity": 112}, {"pitch": 68, "tick": 371640, "length": 60, "velocity": 112}, {"pitch": 72, "tick": 371760, "length": 60, "velocity": 112}, {"pitch": 75, "tick": 371880, "length": 60, "velocity": 112}, {"pitch": 79, "tick": 372000, "length": 60, "velocity": 112}, {"pitch": 75, "tick": 372120, "length": 60, "velocity": 112}, {"pitch": 72, "tick": 372240, "length": 60, "velocity": 112}, {"pitch": 68, "tick": 372360, "length": 60, "velocity": 112}, {"pitch": 67, "tick": 372480, "length": 60, "velocity": 112}, {"pitch": 70, "tick": 372600, "length": 60, "velocity": 112}, {"pitch": 71, "tick": 372720, "length": 60, "velocity": 112}, {"pitch": 75, "tick": 372840, "length": 60, "velocity": 112}, {"pitch": 77, "tick": 372960, "length": 60, "velocity": 112}, {"pitch": 75, "tick": 373080, "length": 60, "velocity": 112}, {"pitch": 71, "tick": 373200, "length": 60, "velocity": 112}, {"pitch": 70, "tick": 373320, "length": 60, "velocity": 112}, {"pitch": 67, "tick": 373440, "length": 60, "velocity": 112}, {"pitch": 70, "tick": 373560, "length": 60, "velocity": 112}, {"pitch": 71, "tick": 373680, "length": 60, "velocity": 112}, {"pitch": 75, "tick": 373800, "length": 60, "velocity": 112}, {"pitch": 77, "tick": 373920, "length": 60, "velocity": 112}, {"pitch": 75, "tick": 374040, "length": 60, "velocity": 112}, {"pitch": 71, "tick": 374160, "length": 60, "velocity": 112}, {"pitch": 70, "tick": 374280, "length": 60, "velocity": 112}, {"pitch": 63, "tick": 374400, "length": 60, "velocity": 112}, {"pitch": 67, "tick": 374520, "length": 60, "velocity": 112}, {"pitch": 70, "tick": 374640, "length": 60, "velocity": 112}, {"pitch": 74, "tick": 374760, "length": 60, "velocity": 112}, {"pitch": 75, "tick": 374880, "length": 60, "velocity": 112}, {"pitch": 74, "tick": 375000, "length": 60, "velocity": 112}, {"pitch": 70, "tick": 375120, "length": 60, "velocity": 112}, {"pitch": 67, "tick": 375240, "length": 60, "velocity": 112}, {"pitch": 63, "tick": 375360, "length": 60, "velocity": 112}, {"pitch": 67, "tick": 375480, "length": 60, "velocity": 112}, {"pitch": 70, "tick": 375600, "length": 60, "velocity": 112}, {"pitch": 74, "tick": 375720, "length": 60, "velocity": 112}, {"pitch": 75, "tick": 375840, "length": 60, "velocity": 112}, {"pitch": 74, "tick": 375960, "length": 60, "velocity": 112}, {"pitch": 70, "tick": 376080, "length": 60, "velocity": 112}, {"pitch": 67, "tick": 376200, "length": 60, "velocity": 112}, {"pitch": 63, "tick": 376320, "length": 60, "velocity": 112}, {"pitch": 67, "tick": 376440, "length": 60, "velocity": 112}, {"pitch": 70, "tick": 376560, "length": 60, "velocity": 112}, {"pitch": 74, "tick": 376680, "length": 60, "velocity": 112}, {"pitch": 75, "tick": 376800, "length": 60, "velocity": 112}, {"pitch": 74, "tick": 376920, "length": 60, "velocity": 112}, {"pitch": 70, "tick": 377040, "length": 60, "velocity": 112}, {"pitch": 67, "tick": 377160, "length": 60, "velocity": 112}, {"pitch": 63, "tick": 377280, "length": 60, "velocity": 112}, {"pitch": 67, "tick": 377400, "length": 60, "velocity": 112}, {"pitch": 70, "tick": 377520, "length": 60, "velocity": 112}, {"pitch": 74, "tick": 377640, "length": 60, "velocity": 112}, {"pitch": 75, "tick": 377760, "length": 60, "velocity": 112}, {"pitch": 74, "tick": 377880, "length": 60, "velocity": 112}, {"pitch": 70, "tick": 378000, "length": 60, "velocity": 112}, {"pitch": 67, "tick": 378120, "length": 60, "velocity": 112}, {"pitch": 65, "tick": 378240, "length": 60, "velocity": 112}, {"pitch": 68, "tick": 378360, "length": 60, "velocity": 112}, {"pitch": 72, "tick": 378480, "length": 60, "velocity": 112}, {"pitch": 75, "tick": 378600, "length": 60, "velocity": 112}, {"pitch": 75, "tick": 378720, "length": 60, "velocity": 112}, {"pitch": 75, "tick": 378840, "length": 60, "velocity": 112}, {"pitch": 72, "tick": 378960, "length": 60, "velocity": 112}, {"pitch": 68, "tick": 379080, "length": 60, "velocity": 112}, {"pitch": 65, "tick": 379200, "length": 60, "velocity": 112}, {"pitch": 68, "tick": 379320, "length": 60, "velocity": 112}, {"pitch": 72, "tick": 379440, "length": 60, "velocity": 112}, {"pitch": 75, "tick": 379560, "length": 60, "velocity": 112}, {"pitch": 75, "tick": 379680, "length": 60, "velocity": 112}, {"pitch": 75, "tick": 379800, "length": 60, "velocity": 112}, {"pitch": 72, "tick": 379920, "length": 60, "velocity": 112}, {"pitch": 68, "tick": 380040, "length": 60, "velocity": 112}, {"pitch": 67, "tick": 380160, "length": 60, "velocity": 112}, {"pitch": 70, "tick": 380280, "length": 60, "velocity": 112}, {"pitch": 71, "tick": 380400, "length": 60, "velocity": 112}, {"pitch": 75, "tick": 380520, "length": 60, "velocity": 112}, {"pitch": 79, "tick": 380640, "length": 60, "velocity": 112}, {"pitch": 75, "tick": 380760, "length": 60, "velocity": 112}, {"pitch": 71, "tick": 380880, "length": 60, "velocity": 112}, {"pitch": 70, "tick": 381000, "length": 60, "velocity": 112}, {"pitch": 67, "tick": 381120, "length": 60, "velocity": 112}, {"pitch": 70, "tick": 381240, "length": 60, "velocity": 112}, {"pitch": 71, "tick": 381360, "length": 60, "velocity": 112}, {"pitch": 75, "tick": 381480, "length": 60, "velocity": 112}, {"pitch": 79, "tick": 381600, "length": 60, "velocity": 112}, {"pitch": 75, "tick": 381720, "length": 60, "velocity": 112}, {"pitch": 71, "tick": 381840, "length": 60, "velocity": 112}, {"pitch": 70, "tick": 381960, "length": 60, "velocity": 112}, {"pitch": 63, "tick": 382080, "length": 60, "velocity": 112}, {"pitch": 67, "tick": 382200, "length": 60, "velocity": 112}, {"pitch": 70, "tick": 382320, "length": 60, "velocity": 112}, {"pitch": 74, "tick": 382440, "length": 60, "velocity": 112}, {"pitch": 75, "tick": 382560, "length": 60, "velocity": 112}, {"pitch": 74, "tick": 382680, "length": 60, "velocity": 112}, {"pitch": 70, "tick": 382800, "length": 60, "velocity": 112}, {"pitch": 67, "tick": 382920, "length": 60, "velocity": 112}, {"pitch": 63, "tick": 383040, "length": 60, "velocity": 112}, {"pitch": 67, "tick": 383160, "length": 60, "velocity": 112}, {"pitch": 70, "tick": 383280, "length": 60, "velocity": 112}, {"pitch": 74, "tick": 383400, "length": 60, "velocity": 112}, {"pitch": 75, "tick": 383520, "length": 60, "velocity": 112}, {"pitch": 74, "tick": 383640, "length": 60, "velocity": 112}, {"pitch": 70, "tick": 383760, "length": 60, "velocity": 112}, {"pitch": 67, "tick": 383880, "length": 60, "velocity": 112}, {"pitch": 67, "tick": 384000, "length": 60, "velocity": 112}, {"pitch": 70, "tick": 384120, "length": 60, "velocity": 112}, {"pitch": 74, "tick": 384240, "length": 60, "velocity": 112}, {"pitch": 75, "tick": 384360, "length": 60, "velocity": 112}, {"pitch": 79, "tick": 384480, "length": 60, "velocity": 112}, {"pitch": 75, "tick": 384600, "length": 60, "velocity": 112}, {"pitch": 74, "tick": 384720, "length": 60, "velocity": 112}, {"pitch": 70, "tick": 384840, "length": 60, "velocity": 112}, {"pitch": 67, "tick": 384960, "length": 60, "velocity": 112}, {"pitch": 70, "tick": 385080, "length": 60, "velocity": 112}, {"pitch": 74, "tick": 385200, "length": 60, "velocity": 112}, {"pitch": 75, "tick": 385320, "length": 60, "velocity": 112}, {"pitch": 79, "tick": 385440, "length": 60, "velocity": 112}, {"pitch": 75, "tick": 385560, "length": 60, "velocity": 112}, {"pitch": 74, "tick": 385680, "length": 60, "velocity": 112}, {"pitch": 70, "tick": 385800, "length": 60, "velocity": 112}, {"pitch": 67, "tick": 385920, "length": 60, "velocity": 112}, {"pitch": 68, "tick": 386040, "length": 60, "velocity": 112}, {"pitch": 72, "tick": 386160, "length": 60, "velocity": 112}, {"pitch": 75, "tick": 386280, "length": 60, "velocity": 112}, {"pitch": 79, "tick": 386400, "length": 60, "velocity": 112}, {"pitch": 75, "tick": 386520, "length": 60, "velocity": 112}, {"pitch": 72, "tick": 386640, "length": 60, "velocity": 112}, {"pitch": 68, "tick": 386760, "length": 60, "velocity": 112}, {"pitch": 67, "tick": 386880, "length": 60, "velocity": 112}, {"pitch": 68, "tick": 387000, "length": 60, "velocity": 112}, {"pitch": 72, "tick": 387120, "length": 60, "velocity": 112}, {"pitch": 75, "tick": 387240, "length": 60, "velocity": 112}, {"pitch": 79, "tick": 387360, "length": 60, "velocity": 112}, {"pitch": 75, "tick": 387480, "length": 60, "velocity": 112}, {"pitch": 72, "tick": 387600, "length": 60, "velocity": 112}, {"pitch": 68, "tick": 387720, "length": 60, "velocity": 112}, {"pitch": 65, "tick": 387840, "length": 60, "velocity": 112}, {"pitch": 67, "tick": 387960, "length": 60, "velocity": 112}, {"pitch": 70, "tick": 388080, "length": 60, "velocity": 112}, {"pitch": 74, "tick": 388200, "length": 60, "velocity": 112}, {"pitch": 77, "tick": 388320, "length": 60, "velocity": 112}, {"pitch": 74, "tick": 388440, "length": 60, "velocity": 112}, {"pitch": 70, "tick": 388560, "length": 60, "velocity": 112}, {"pitch": 67, "tick": 388680, "length": 60, "velocity": 112}, {"pitch": 65, "tick": 388800, "length": 60, "velocity": 112}, {"pitch": 67, "tick": 388920, "length": 60, "velocity": 112}, {"pitch": 70, "tick": 389040, "length": 60, "velocity": 112}, {"pitch": 74, "tick": 389160, "length": 60, "velocity": 112}, {"pitch": 77, "tick": 389280, "length": 60, "velocity": 112}, {"pitch": 74, "tick": 389400, "length": 60, "velocity": 112}, {"pitch": 70, "tick": 389520, "length": 60, "velocity": 112}, {"pitch": 67, "tick": 389640, "length": 60, "velocity": 112}, {"pitch": 67, "tick": 389760, "length": 60, "velocity": 112}, {"pitch": 70, "tick": 389880, "length": 60, "velocity": 112}, {"pitch": 72, "tick": 390000, "length": 60, "velocity": 112}, {"pitch": 75, "tick": 390120, "length": 60, "velocity": 112}, {"pitch": 79, "tick": 390240, "length": 60, "velocity": 112}, {"pitch": 75, "tick": 390360, "length": 60, "velocity": 112}, {"pitch": 72, "tick": 390480, "length": 60, "velocity": 112}, {"pitch": 70, "tick": 390600, "length": 60, "velocity": 112}, {"pitch": 67, "tick": 390720, "length": 60, "velocity": 112}, {"pitch": 70, "tick": 390840, "length": 60, "velocity": 112}, {"pitch": 72, "tick": 390960, "length": 60, "velocity": 112}, {"pitch": 75, "tick": 391080, "length": 60, "velocity": 112}, {"pitch": 79, "tick": 391200, "length": 60, "velocity": 112}, {"pitch": 75, "tick": 391320, "length": 60, "velocity": 112}, {"pitch": 72, "tick": 391440, "length": 60, "velocity": 112}, {"pitch": 70, "tick": 391560, "length": 60, "velocity": 112}, {"pitch": 67, "tick": 391680, "length": 60, "velocity": 112}, {"pitch": 70, "tick": 391800, "length": 60, "velocity": 112}, {"pitch": 72, "tick": 391920, "length": 60, "velocity": 112}, {"pitch": 75, "tick": 392040, "length": 60, "velocity": 112}, {"pitch": 79, "tick": 392160, "length": 60, "velocity": 112}, {"pitch": 75, "tick": 392280, "length": 60, "velocity": 112}, {"pitch": 72, "tick": 392400, "length": 60, "velocity": 112}, {"pitch": 70, "tick": 392520, "length": 60, "velocity": 112}, {"pitch": 67, "tick": 392640, "length": 60, "velocity": 112}, {"pitch": 70, "tick": 392760, "length": 60, "velocity": 112}, {"pitch": 72, "tick": 392880, "length": 60, "velocity": 112}, {"pitch": 75, "tick": 393000, "length": 60, "velocity": 112}, {"pitch": 79, "tick": 393120, "length": 60, "velocity": 112}, {"pitch": 75, "tick": 393240, "length": 60, "velocity": 112}, {"pitch": 72, "tick": 393360, "length": 60, "velocity": 112}, {"pitch": 70, "tick": 393480, "length": 60, "velocity": 112}, {"pitch": 65, "tick": 393600, "length": 60, "velocity": 112}, {"pitch": 68, "tick": 393720, "length": 60, "velocity": 112}, {"pitch": 70, "tick": 393840, "length": 60, "velocity": 112}, {"pitch": 74, "tick": 393960, "length": 60, "velocity": 112}, {"pitch": 77, "tick": 394080, "length": 60, "velocity": 112}, {"pitch": 74, "tick": 394200, "length": 60, "velocity": 112}, {"pitch": 70, "tick": 394320, "length": 60, "velocity": 112}, {"pitch": 68, "tick": 394440, "length": 60, "velocity": 112}, {"pitch": 65, "tick": 394560, "length": 60, "velocity": 112}, {"pitch": 68, "tick": 394680, "length": 60, "velocity": 112}, {"pitch": 70, "tick": 394800, "length": 60, "velocity": 112}, {"pitch": 74, "tick": 394920, "length": 60, "velocity": 112}, {"pitch": 77, "tick": 395040, "length": 60, "velocity": 112}, {"pitch": 74, "tick": 395160, "length": 60, "velocity": 112}, {"pitch": 70, "tick": 395280, "length": 60, "velocity": 112}, {"pitch": 68, "tick": 395400, "length": 60, "velocity": 112}, {"pitch": 67, "tick": 395520, "length": 60, "velocity": 112}, {"pitch": 70, "tick": 395640, "length": 60, "velocity": 112}, {"pitch": 71, "tick": 395760, "length": 60, "velocity": 112}, {"pitch": 75, "tick": 395880, "length": 60, "velocity": 112}, {"pitch": 77, "tick": 396000, "length": 60, "velocity": 112}, {"pitch": 75, "tick": 396120, "length": 60, "velocity": 112}, {"pitch": 71, "tick": 396240, "length": 60, "velocity": 112}, {"pitch": 70, "tick": 396360, "length": 60, "velocity": 112}, {"pitch": 67, "tick": 396480, "length": 60, "velocity": 112}, {"pitch": 70, "tick": 396600, "length": 60, "velocity": 112}, {"pitch": 71, "tick": 396720, "length": 60, "velocity": 112}, {"pitch": 75, "tick": 396840, "length": 60, "velocity": 112}, {"pitch": 77, "tick": 396960, "length": 60, "velocity": 112}, {"pitch": 75, "tick": 397080, "length": 60, "velocity": 112}, {"pitch": 71, "tick": 397200, "length": 60, "velocity": 112}, {"pitch": 70, "tick": 397320, "length": 60, "velocity": 112}, {"pitch": 63, "tick": 397440, "length": 60, "velocity": 112}, {"pitch": 67, "tick": 397560, "length": 60, "velocity": 112}, {"pitch": 70, "tick": 397680, "length": 60, "velocity": 112}, {"pitch": 74, "tick": 397800, "length": 60, "velocity": 112}, {"pitch": 75, "tick": 397920, "length": 60, "velocity": 112}, {"pitch": 74, "tick": 398040, "length": 60, "velocity": 112}, {"pitch": 70, "tick": 398160, "length": 60, "velocity": 112}, {"pitch": 67, "tick": 398280, "length": 60, "velocity": 112}, {"pitch": 63, "tick": 398400, "length": 60, "velocity": 112}, {"pitch": 67, "tick": 398520, "length": 60, "velocity": 112}, {"pitch": 70, "tick": 398640, "length": 60, "velocity": 112}, {"pitch": 74, "tick": 398760, "length": 60, "velocity": 112}, {"pitch": 75, "tick": 398880, "length": 60, "velocity": 112}, {"pitch": 74, "tick": 399000, "length": 60, "velocity": 112}, {"pitch": 70, "tick": 399120, "length": 60, "velocity": 112}, {"pitch": 67, "tick": 399240, "length": 60, "velocity": 112}, {"pitch": 64, "tick": 399360, "length": 60, "velocity": 112}, {"pitch": 67, "tick": 399480, "length": 60, "velocity": 112}, {"pitch": 70, "tick": 399600, "length": 60, "velocity": 112}, {"pitch": 73, "tick": 399720, "length": 60, "velocity": 112}, {"pitch": 75, "tick": 399840, "length": 60, "velocity": 112}, {"pitch": 73, "tick": 399960, "length": 60, "velocity": 112}, {"pitch": 70, "tick": 400080, "length": 60, "velocity": 112}, {"pitch": 67, "tick": 400200, "length": 60, "velocity": 112}, {"pitch": 64, "tick": 400320, "length": 60, "velocity": 112}, {"pitch": 67, "tick": 400440, "length": 60, "velocity": 112}, {"pitch": 70, "tick": 400560, "length": 60, "velocity": 112}, {"pitch": 73, "tick": 400680, "length": 60, "velocity": 112}, {"pitch": 75, "tick": 400800, "length": 60, "velocity": 112}, {"pitch": 73, "tick": 400920, "length": 60, "velocity": 112}, {"pitch": 70, "tick": 401040, "length": 60, "velocity": 112}, {"pitch": 67, "tick": 401160, "length": 60, "velocity": 112}, {"pitch": 67, "tick": 401280, "length": 60, "velocity": 112}, {"pitch": 68, "tick": 401400, "length": 60, "velocity": 112}, {"pitch": 72, "tick": 401520, "length": 60, "velocity": 112}, {"pitch": 75, "tick": 401640, "length": 60, "velocity": 112}, {"pitch": 79, "tick": 401760, "length": 60, "velocity": 112}, {"pitch": 75, "tick": 401880, "length": 60, "velocity": 112}, {"pitch": 72, "tick": 402000, "length": 60, "velocity": 112}, {"pitch": 68, "tick": 402120, "length": 60, "velocity": 112}, {"pitch": 67, "tick": 402240, "length": 60, "velocity": 112}, {"pitch": 68, "tick": 402360, "length": 60, "velocity": 112}, {"pitch": 72, "tick": 402480, "length": 60, "velocity": 112}, {"pitch": 75, "tick": 402600, "length": 60, "velocity": 112}, {"pitch": 79, "tick": 402720, "length": 60, "velocity": 112}, {"pitch": 75, "tick": 402840, "length": 60, "velocity": 112}, {"pitch": 72, "tick": 402960, "length": 60, "velocity": 112}, {"pitch": 68, "tick": 403080, "length": 60, "velocity": 112}, {"pitch": 67, "tick": 403200, "length": 60, "velocity": 112}, {"pitch": 70, "tick": 403320, "length": 60, "velocity": 112}, {"pitch": 71, "tick": 403440, "length": 60, "velocity": 112}, {"pitch": 75, "tick": 403560, "length": 60, "velocity": 112}, {"pitch": 77, "tick": 403680, "length": 60, "velocity": 112}, {"pitch": 75, "tick": 403800, "length": 60, "velocity": 112}, {"pitch": 71, "tick": 403920, "length": 60, "velocity": 112}, {"pitch": 70, "tick": 404040, "length": 60, "velocity": 112}, {"pitch": 67, "tick": 404160, "length": 60, "velocity": 112}, {"pitch": 70, "tick": 404280, "length": 60, "velocity": 112}, {"pitch": 71, "tick": 404400, "length": 60, "velocity": 112}, {"pitch": 75, "tick": 404520, "length": 60, "velocity": 112}, {"pitch": 77, "tick": 404640, "length": 60, "velocity": 112}, {"pitch": 75, "tick": 404760, "length": 60, "velocity": 112}, {"pitch": 71, "tick": 404880, "length": 60, "velocity": 112}, {"pitch": 70, "tick": 405000, "length": 60, "velocity": 112}, {"pitch": 63, "tick": 405120, "length": 60, "velocity": 112}, {"pitch": 67, "tick": 405240, "length": 60, "velocity": 112}, {"pitch": 70, "tick": 405360, "length": 60, "velocity": 112}, {"pitch": 74, "tick": 405480, "length": 60, "velocity": 112}, {"pitch": 75, "tick": 405600, "length": 60, "velocity": 112}, {"pitch": 74, "tick": 405720, "length": 60, "velocity": 112}, {"pitch": 70, "tick": 405840, "length": 60, "velocity": 112}, {"pitch": 67, "tick": 405960, "length": 60, "velocity": 112}, {"pitch": 63, "tick": 406080, "length": 60, "velocity": 112}, {"pitch": 67, "tick": 406200, "length": 60, "velocity": 112}, {"pitch": 70, "tick": 406320, "length": 60, "velocity": 112}, {"pitch": 74, "tick": 406440, "length": 60, "velocity": 112}, {"pitch": 75, "tick": 406560, "length": 60, "velocity": 112}, {"pitch": 74, "tick": 406680, "length": 60, "velocity": 112}, {"pitch": 70, "tick": 406800, "length": 60, "velocity": 112}, {"pitch": 67, "tick": 406920, "length": 60, "velocity": 112}, {"pitch": 63, "tick": 407040, "length": 60, "velocity": 112}, {"pitch": 67, "tick": 407160, "length": 60, "velocity": 112}, {"pitch": 70, "tick": 407280, "length": 60, "velocity": 112}, {"pitch": 74, "tick": 407400, "length": 60, "velocity": 112}, {"pitch": 75, "tick": 407520, "length": 60, "velocity": 112}, {"pitch": 74, "tick": 407640, "length": 60, "velocity": 112}, {"pitch": 70, "tick": 407760, "length": 60, "velocity": 112}, {"pitch": 67, "tick": 407880, "length": 60, "velocity": 112}, {"pitch": 63, "tick": 408000, "length": 60, "velocity": 112}, {"pitch": 67, "tick": 408120, "length": 60, "velocity": 112}, {"pitch": 70, "tick": 408240, "length": 60, "velocity": 112}, {"pitch": 74, "tick": 408360, "length": 60, "velocity": 112}, {"pitch": 75, "tick": 408480, "length": 60, "velocity": 112}, {"pitch": 79, "tick": 408600, "length": 60, "velocity": 112}, {"pitch": 82, "tick": 408720, "length": 60, "velocity": 112}, {"pitch": 86, "tick": 408840, "length": 60, "velocity": 112}]}, {"channel": 2, "length": 408600, "track_name": "\u0097\u00a0\u0083\u0081\u0083\u008d\u0083V\u0083\u0093\u0083Z", "events": [{"type": "track_name", "name": "\u0097\u00a0\u0083\u0081\u0083\u008d\u0083V\u0083\u0093\u0083Z", "tick": 0}, {"type": "midi_port", "port": 0, "tick": 0}, {"type": "control_change", "control": 0, "value": 121, "channel": 2, "tick": 480}, {"type": "control_change", "control": 32, "value": 1, "channel": 2, "tick": 480}, {"type": "program_change", "program": 98, "channel": 2, "tick": 480}, {"type": "sysex", "data": [65, 16, 0, 72, 18, 16, 0, 34, 63, 0, 15], "tick": 540}, {"type": "control_change", "control": 7, "value": 72, "channel": 2, "tick": 600}, {"type": "control_change", "control": 10, "value": 64, "channel": 2, "tick": 660}, {"type": "control_change", "control": 91, "value": 16, "channel": 2, "tick": 720}, {"type": "control_change", "control": 93, "value": 0, "channel": 2, "tick": 780}, {"type": "control_change", "control": 74, "value": 96, "channel": 2, "tick": 840}, {"type": "control_change", "control": 71, "value": 64, "channel": 2, "tick": 900}, {"type": "control_change", "control": 73, "value": 64, "channel": 2, "tick": 960}, {"type": "control_change", "control": 75, "value": 48, "channel": 2, "tick": 1020}, {"type": "control_change", "control": 72, "value": 56, "channel": 2, "tick": 1080}, {"type": "control_change", "control": 101, "value": 0, "channel": 2, "tick": 1140}, {"type": "control_change", "control": 100, "value": 0, "channel": 2, "tick": 1140}, {"type": "control_change", "control": 6, "value": 12, "channel": 2, "tick": 1140}, {"type": "control_change", "control": 38, "value": 0, "channel": 2, "tick": 1140}, {"type": "pitchwheel", "channel": 2, "pitch": 0, "tick": 1200}, {"type": "control_change", "control": 1, "value": 0, "channel": 2, "tick": 1260}, {"type": "control_change", "control": 11, "value": 127, "channel": 2, "tick": 1320}, {"type": "control_change", "control": 101, "value": 127, "channel": 2, "tick": 1380}, {"type": "control_change", "control": 100, "value": 127, "channel": 2, "tick": 1380}, {"type": "control_change", "control": 6, "value": 0, "channel": 2, "tick": 1380}, {"type": "control_change", "control": 38, "value": 0, "channel": 2, "tick": 1380}, {"type": "end_of_track", "tick": 408600}], "notes": [{"pitch": 79, "tick": 186480, "length": 120, "velocity": 96}, {"pitch": 82, "tick": 186720, "length": 120, "velocity": 96}, {"pitch": 84, "tick": 186960, "length": 120, "velocity": 96}, {"pitch": 86, "tick": 187200, "length": 120, "velocity": 96}, {"pitch": 87, "tick": 187440, "length": 120, "velocity": 96}, {"pitch": 94, "tick": 187680, "length": 120, "velocity": 96}, {"pitch": 79, "tick": 188400, "length": 120, "velocity": 96}, {"pitch": 84, "tick": 188640, "length": 120, "velocity": 96}, {"pitch": 87, "tick": 188880, "length": 120, "velocity": 96}, {"pitch": 89, "tick": 189120, "length": 120, "velocity": 96}, {"pitch": 91, "tick": 189360, "length": 120, "velocity": 96}, {"pitch": 87, "tick": 189840, "length": 120, "velocity": 96}, {"pitch": 89, "tick": 190320, "length": 120, "velocity": 96}, {"pitch": 91, "tick": 190800, "length": 120, "velocity": 96}, {"pitch": 89, "tick": 191040, "length": 120, "velocity": 96}, {"pitch": 87, "tick": 191280, "length": 120, "velocity": 96}, {"pitch": 84, "tick": 191520, "length": 120, "velocity": 96}, {"pitch": 87, "tick": 191760, "length": 120, "velocity": 96}, {"pitch": 96, "tick": 192240, "length": 120, "velocity": 96}, {"pitch": 94, "tick": 192480, "length": 120, "velocity": 96}, {"pitch": 91, "tick": 192960, "length": 120, "velocity": 96}, {"pitch": 89, "tick": 193440, "length": 120, "velocity": 96}, {"pitch": 87, "tick": 193920, "length": 120, "velocity": 96}, {"pitch": 84, "tick": 194400, "length": 120, "velocity": 96}, {"pitch": 86, "tick": 194880, "length": 120, "velocity": 96}, {"pitch": 87, "tick": 195120, "length": 120, "velocity": 96}, {"pitch": 86, "tick": 195600, "length": 120, "velocity": 96}, {"pitch": 86, "tick": 196080, "length": 120, "velocity": 96}, {"pitch": 87, "tick": 196320, "length": 120, "velocity": 96}, {"pitch": 86, "tick": 196560, "length": 120, "velocity": 96}, {"pitch": 84, "tick": 196800, "length": 120, "velocity": 96}, {"pitch": 82, "tick": 197040, "length": 120, "velocity": 96}, {"pitch": 79, "tick": 197280, "length": 120, "velocity": 96}, {"pitch": 84, "tick": 198000, "length": 120, "velocity": 96}, {"pitch": 79, "tick": 198240, "length": 120, "velocity": 96}, {"pitch": 84, "tick": 198720, "length": 120, "velocity": 96}, {"pitch": 86, "tick": 198960, "length": 120, "velocity": 96}, {"pitch": 87, "tick": 199440, "length": 120, "velocity": 96}, {"pitch": 86, "tick": 199680, "length": 120, "velocity": 96}, {"pitch": 87, "tick": 200160, "length": 120, "velocity": 96}, {"pitch": 89, "tick": 200400, "length": 120, "velocity": 96}, {"pitch": 91, "tick": 200880, "length": 120, "velocity": 96}, {"pitch": 94, "tick": 201120, "length": 120, "velocity": 96}, {"pitch": 96, "tick": 201600, "length": 120, "velocity": 96}, {"pitch": 94, "tick": 201840, "length": 120, "velocity": 96}, {"pitch": 91, "tick": 202080, "length": 120, "velocity": 96}, {"pitch": 96, "tick": 202320, "length": 120, "velocity": 96}, {"pitch": 94, "tick": 202560, "length": 120, "velocity": 96}, {"pitch": 91, "tick": 202800, "length": 120, "velocity": 96}, {"pitch": 96, "tick": 203040, "length": 120, "velocity": 96}, {"pitch": 94, "tick": 203280, "length": 120, "velocity": 96}, {"pitch": 91, "tick": 203520, "length": 120, "velocity": 96}, {"pitch": 89, "tick": 203760, "length": 120, "velocity": 96}, {"pitch": 91, "tick": 204000, "length": 120, "velocity": 96}, {"pitch": 94, "tick": 204240, "length": 120, "velocity": 96}, {"pitch": 91, "tick": 204480, "length": 120, "velocity": 96}, {"pitch": 89, "tick": 204960, "length": 120, "velocity": 96}, {"pitch": 84, "tick": 205440, "length": 120, "velocity": 96}, {"pitch": 86, "tick": 205680, "length": 120, "velocity": 96}, {"pitch": 87, "tick": 205920, "length": 120, "velocity": 96}, {"pitch": 84, "tick": 206160, "length": 120, "velocity": 96}, {"pitch": 86, "tick": 206400, "length": 120, "velocity": 96}, {"pitch": 87, "tick": 206640, "length": 120, "velocity": 96}, {"pitch": 84, "tick": 206880, "length": 120, "velocity": 96}, {"pitch": 87, "tick": 207120, "length": 120, "velocity": 96}, {"pitch": 89, "tick": 207360, "length": 120, "velocity": 96}, {"pitch": 87, "tick": 207600, "length": 120, "velocity": 96}, {"pitch": 89, "tick": 207840, "length": 120, "velocity": 96}, {"pitch": 91, "tick": 208080, "length": 120, "velocity": 96}, {"pitch": 89, "tick": 208320, "length": 120, "velocity": 96}, {"pitch": 87, "tick": 208800, "length": 120, "velocity": 96}, {"pitch": 79, "tick": 209280, "length": 120, "velocity": 96}, {"pitch": 84, "tick": 209520, "length": 120, "velocity": 96}, {"pitch": 82, "tick": 209760, "length": 120, "velocity": 96}, {"pitch": 79, "tick": 210000, "length": 120, "velocity": 96}, {"pitch": 82, "tick": 210240, "length": 120, "velocity": 96}, {"pitch": 84, "tick": 210480, "length": 120, "velocity": 96}, {"pitch": 79, "tick": 210720, "length": 120, "velocity": 96}, {"pitch": 82, "tick": 210960, "length": 120, "velocity": 96}, {"pitch": 84, "tick": 211200, "length": 120, "velocity": 96}, {"pitch": 79, "tick": 211440, "length": 120, "velocity": 96}, {"pitch": 86, "tick": 211680, "length": 120, "velocity": 96}, {"pitch": 87, "tick": 211920, "length": 120, "velocity": 96}, {"pitch": 86, "tick": 212160, "length": 120, "velocity": 96}, {"pitch": 79, "tick": 212400, "length": 120, "velocity": 96}, {"pitch": 82, "tick": 212640, "length": 120, "velocity": 96}, {"pitch": 79, "tick": 212880, "length": 120, "velocity": 96}, {"pitch": 84, "tick": 213120, "length": 120, "velocity": 96}, {"pitch": 79, "tick": 213360, "length": 120, "velocity": 96}, {"pitch": 84, "tick": 213600, "length": 120, "velocity": 96}, {"pitch": 86, "tick": 213840, "length": 120, "velocity": 96}, {"pitch": 87, "tick": 214080, "length": 120, "velocity": 96}, {"pitch": 84, "tick": 214320, "length": 120, "velocity": 96}, {"pitch": 89, "tick": 214560, "length": 120, "velocity": 96}, {"pitch": 84, "tick": 214800, "length": 120, "velocity": 96}, {"pitch": 87, "tick": 215040, "length": 120, "velocity": 96}, {"pitch": 84, "tick": 215520, "length": 120, "velocity": 96}, {"pitch": 86, "tick": 215760, "length": 120, "velocity": 96}, {"pitch": 87, "tick": 216000, "length": 120, "velocity": 96}, {"pitch": 84, "tick": 216480, "length": 120, "velocity": 96}, {"pitch": 79, "tick": 255600, "length": 120, "velocity": 48}, {"pitch": 82, "tick": 255840, "length": 120, "velocity": 48}, {"pitch": 84, "tick": 256080, "length": 120, "velocity": 48}, {"pitch": 86, "tick": 256320, "length": 120, "velocity": 48}, {"pitch": 87, "tick": 256560, "length": 120, "velocity": 48}, {"pitch": 94, "tick": 256800, "length": 120, "velocity": 48}, {"pitch": 79, "tick": 257520, "length": 120, "velocity": 48}, {"pitch": 84, "tick": 257760, "length": 120, "velocity": 48}, {"pitch": 87, "tick": 258000, "length": 120, "velocity": 48}, {"pitch": 89, "tick": 258240, "length": 120, "velocity": 48}, {"pitch": 91, "tick": 258480, "length": 120, "velocity": 48}, {"pitch": 87, "tick": 258960, "length": 120, "velocity": 48}, {"pitch": 89, "tick": 259440, "length": 120, "velocity": 48}, {"pitch": 91, "tick": 259920, "length": 120, "velocity": 48}, {"pitch": 89, "tick": 260160, "length": 120, "velocity": 48}, {"pitch": 87, "tick": 260400, "length": 120, "velocity": 48}, {"pitch": 84, "tick": 260640, "length": 120, "velocity": 48}, {"pitch": 87, "tick": 260880, "length": 120, "velocity": 48}, {"pitch": 96, "tick": 261360, "length": 120, "velocity": 48}, {"pitch": 94, "tick": 261600, "length": 120, "velocity": 48}, {"pitch": 91, "tick": 262080, "length": 120, "velocity": 48}, {"pitch": 89, "tick": 262560, "length": 120, "velocity": 48}, {"pitch": 87, "tick": 263040, "length": 120, "velocity": 48}, {"pitch": 84, "tick": 263520, "length": 120, "velocity": 48}, {"pitch": 86, "tick": 264000, "length": 120, "velocity": 48}, {"pitch": 87, "tick": 264240, "length": 120, "velocity": 48}, {"pitch": 86, "tick": 264720, "length": 120, "velocity": 48}, {"pitch": 86, "tick": 265200, "length": 120, "velocity": 48}, {"pitch": 87, "tick": 265440, "length": 120, "velocity": 48}, {"pitch": 86, "tick": 265680, "length": 120, "velocity": 48}, {"pitch": 84, "tick": 265920, "length": 120, "velocity": 48}, {"pitch": 82, "tick": 266160, "length": 120, "velocity": 48}, {"pitch": 79, "tick": 266400, "length": 120, "velocity": 48}, {"pitch": 84, "tick": 267120, "length": 120, "velocity": 48}, {"pitch": 79, "tick": 267360, "length": 120, "velocity": 48}, {"pitch": 84, "tick": 267840, "length": 120, "velocity": 48}, {"pitch": 86, "tick": 268080, "length": 120, "velocity": 48}, {"pitch": 87, "tick": 268560, "length": 120, "velocity": 48}, {"pitch": 86, "tick": 268800, "length": 120, "velocity": 48}, {"pitch": 87, "tick": 269280, "length": 120, "velocity": 48}, {"pitch": 89, "tick": 269520, "length": 120, "velocity": 48}, {"pitch": 91, "tick": 270000, "length": 120, "velocity": 48}, {"pitch": 94, "tick": 270240, "length": 120, "velocity": 48}, {"pitch": 96, "tick": 270720, "length": 120, "velocity": 48}, {"pitch": 94, "tick": 270960, "length": 120, "velocity": 48}, {"pitch": 91, "tick": 271200, "length": 120, "velocity": 48}, {"pitch": 96, "tick": 271440, "length": 120, "velocity": 48}, {"pitch": 94, "tick": 271680, "length": 120, "velocity": 48}, {"pitch": 91, "tick": 271920, "length": 120, "velocity": 48}, {"pitch": 96, "tick": 272160, "length": 120, "velocity": 48}, {"pitch": 94, "tick": 272400, "length": 120, "velocity": 48}, {"pitch": 91, "tick": 272640, "length": 120, "velocity": 48}, {"pitch": 89, "tick": 272880, "length": 120, "velocity": 48}, {"pitch": 91, "tick": 273120, "length": 120, "velocity": 48}, {"pitch": 94, "tick": 273360, "length": 120, "velocity": 48}, {"pitch": 91, "tick": 273600, "length": 120, "velocity": 48}, {"pitch": 89, "tick": 274080, "length": 120, "velocity": 48}, {"pitch": 84, "tick": 274560, "length": 120, "velocity": 48}, {"pitch": 86, "tick": 274800, "length": 120, "velocity": 48}, {"pitch": 87, "tick": 275040, "length": 120, "velocity": 48}, {"pitch": 84, "tick": 275280, "length": 120, "velocity": 48}, {"pitch": 86, "tick": 275520, "length": 120, "velocity": 48}, {"pitch": 87, "tick": 275760, "length": 120, "velocity": 48}, {"pitch": 84, "tick": 276000, "length": 120, "velocity": 48}, {"pitch": 87, "tick": 276240, "length": 120, "velocity": 48}, {"pitch": 89, "tick": 276480, "length": 120, "velocity": 48}, {"pitch": 87, "tick": 276720, "length": 120, "velocity": 48}, {"pitch": 89, "tick": 276960, "length": 120, "velocity": 48}, {"pitch": 91, "tick": 277200, "length": 120, "velocity": 48}, {"pitch": 89, "tick": 277440, "length": 120, "velocity": 48}, {"pitch": 87, "tick": 277920, "length": 120, "velocity": 48}, {"pitch": 79, "tick": 278400, "length": 120, "velocity": 48}, {"pitch": 84, "tick": 278640, "length": 120, "velocity": 48}, {"pitch": 82, "tick": 278880, "length": 120, "velocity": 48}, {"pitch": 79, "tick": 279120, "length": 120, "velocity": 48}, {"pitch": 82, "tick": 279360, "length": 120, "velocity": 48}, {"pitch": 84, "tick": 279600, "length": 120, "velocity": 48}, {"pitch": 79, "tick": 279840, "length": 120, "velocity": 48}, {"pitch": 82, "tick": 280080, "length": 120, "velocity": 48}, {"pitch": 84, "tick": 280320, "length": 120, "velocity": 48}, {"pitch": 79, "tick": 280560, "length": 120, "velocity": 48}, {"pitch": 86, "tick": 280800, "length": 120, "velocity": 48}, {"pitch": 87, "tick": 281040, "length": 120, "velocity": 48}, {"pitch": 86, "tick": 281280, "length": 120, "velocity": 48}, {"pitch": 79, "tick": 281520, "length": 120, "velocity": 48}, {"pitch": 82, "tick": 281760, "length": 120, "velocity": 48}, {"pitch": 79, "tick": 282000, "length": 120, "velocity": 48}, {"pitch": 84, "tick": 282240, "length": 120, "velocity": 48}, {"pitch": 79, "tick": 282480, "length": 120, "velocity": 48}, {"pitch": 84, "tick": 282720, "length": 120, "velocity": 48}, {"pitch": 86, "tick": 282960, "length": 120, "velocity": 48}, {"pitch": 87, "tick": 283200, "length": 120, "velocity": 48}, {"pitch": 84, "tick": 283440, "length": 120, "velocity": 48}, {"pitch": 89, "tick": 283680, "length": 120, "velocity": 48}, {"pitch": 84, "tick": 283920, "length": 120, "velocity": 48}, {"pitch": 87, "tick": 284160, "length": 120, "velocity": 48}, {"pitch": 84, "tick": 284640, "length": 120, "velocity": 48}, {"pitch": 86, "tick": 284880, "length": 120, "velocity": 48}, {"pitch": 87, "tick": 285120, "length": 120, "velocity": 48}, {"pitch": 84, "tick": 285600, "length": 120, "velocity": 48}, {"pitch": 79, "tick": 317040, "length": 120, "velocity": 96}, {"pitch": 82, "tick": 317280, "length": 120, "velocity": 96}, {"pitch": 84, "tick": 317520, "length": 120, "velocity": 96}, {"pitch": 86, "tick": 317760, "length": 120, "velocity": 96}, {"pitch": 87, "tick": 318000, "length": 120, "velocity": 96}, {"pitch": 94, "tick": 318240, "length": 120, "velocity": 96}, {"pitch": 79, "tick": 318960, "length": 120, "velocity": 96}, {"pitch": 84, "tick": 319200, "length": 120, "velocity": 96}, {"pitch": 87, "tick": 319440, "length": 120, "velocity": 96}, {"pitch": 89, "tick": 319680, "length": 120, "velocity": 96}, {"pitch": 91, "tick": 319920, "length": 120, "velocity": 96}, {"pitch": 87, "tick": 320400, "length": 120, "velocity": 96}, {"pitch": 89, "tick": 320880, "length": 120, "velocity": 96}, {"pitch": 91, "tick": 321360, "length": 120, "velocity": 96}, {"pitch": 89, "tick": 321600, "length": 120, "velocity": 96}, {"pitch": 87, "tick": 321840, "length": 120, "velocity": 96}, {"pitch": 84, "tick": 322080, "length": 120, "velocity": 96}, {"pitch": 87, "tick": 322320, "length": 120, "velocity": 96}, {"pitch": 96, "tick": 322800, "length": 120, "velocity": 96}, {"pitch": 94, "tick": 323040, "length": 120, "velocity": 96}, {"pitch": 91, "tick": 323520, "length": 120, "velocity": 96}, {"pitch": 89, "tick": 324000, "length": 120, "velocity": 96}, {"pitch": 87, "tick": 324480, "length": 120, "velocity": 96}, {"pitch": 84, "tick": 324960, "length": 120, "velocity": 96}, {"pitch": 86, "tick": 325440, "length": 120, "velocity": 96}, {"pitch": 87, "tick": 325680, "length": 120, "velocity": 96}, {"pitch": 86, "tick": 326160, "length": 120, "velocity": 96}, {"pitch": 86, "tick": 326640, "length": 120, "velocity": 96}, {"pitch": 87, "tick": 326880, "length": 120, "velocity": 96}, {"pitch": 86, "tick": 327120, "length": 120, "velocity": 96}, {"pitch": 84, "tick": 327360, "length": 120, "velocity": 96}, {"pitch": 82, "tick": 327600, "length": 120, "velocity": 96}, {"pitch": 79, "tick": 327840, "length": 120, "velocity": 96}, {"pitch": 84, "tick": 328560, "length": 120, "velocity": 96}, {"pitch": 79, "tick": 328800, "length": 120, "velocity": 96}, {"pitch": 84, "tick": 329280, "length": 120, "velocity": 96}, {"pitch": 86, "tick": 329520, "length": 120, "velocity": 96}, {"pitch": 87, "tick": 330000, "length": 120, "velocity": 96}, {"pitch": 86, "tick": 330240, "length": 120, "velocity": 96}, {"pitch": 87, "tick": 330720, "length": 120, "velocity": 96}, {"pitch": 89, "tick": 330960, "length": 120, "velocity": 96}, {"pitch": 91, "tick": 331440, "length": 120, "velocity": 96}, {"pitch": 94, "tick": 331680, "length": 120, "velocity": 96}, {"pitch": 96, "tick": 332160, "length": 120, "velocity": 96}, {"pitch": 94, "tick": 332400, "length": 120, "velocity": 96}, {"pitch": 91, "tick": 332640, "length": 120, "velocity": 96}, {"pitch": 96, "tick": 332880, "length": 120, "velocity": 96}, {"pitch": 94, "tick": 333120, "length": 120, "velocity": 96}, {"pitch": 91, "tick": 333360, "length": 120, "velocity": 96}, {"pitch": 96, "tick": 333600, "length": 120, "velocity": 96}, {"pitch": 94, "tick": 333840, "length": 120, "velocity": 96}, {"pitch": 91, "tick": 334080, "length": 120, "velocity": 96}, {"pitch": 89, "tick": 334320, "length": 120, "velocity": 96}, {"pitch": 91, "tick": 334560, "length": 120, "velocity": 96}, {"pitch": 94, "tick": 334800, "length": 120, "velocity": 96}, {"pitch": 91, "tick": 335040, "length": 120, "velocity": 96}, {"pitch": 89, "tick": 335520, "length": 120, "velocity": 96}, {"pitch": 84, "tick": 336000, "length": 120, "velocity": 96}, {"pitch": 86, "tick": 336240, "length": 120, "velocity": 96}, {"pitch": 87, "tick": 336480, "length": 120, "velocity": 96}, {"pitch": 84, "tick": 336720, "length": 120, "velocity": 96}, {"pitch": 86, "tick": 336960, "length": 120, "velocity": 96}, {"pitch": 87, "tick": 337200, "length": 120, "velocity": 96}, {"pitch": 84, "tick": 337440, "length": 120, "velocity": 96}, {"pitch": 87, "tick": 337680, "length": 120, "velocity": 96}, {"pitch": 89, "tick": 337920, "length": 120, "velocity": 96}, {"pitch": 87, "tick": 338160, "length": 120, "velocity": 96}, {"pitch": 89, "tick": 338400, "length": 120, "velocity": 96}, {"pitch": 91, "tick": 338640, "length": 120, "velocity": 96}, {"pitch": 89, "tick": 338880, "length": 120, "velocity": 96}, {"pitch": 87, "tick": 339360, "length": 120, "velocity": 96}, {"pitch": 79, "tick": 339840, "length": 120, "velocity": 96}, {"pitch": 84, "tick": 340080, "length": 120, "velocity": 96}, {"pitch": 82, "tick": 340320, "length": 120, "velocity": 96}, {"pitch": 79, "tick": 340560, "length": 120, "velocity": 96}, {"pitch": 82, "tick": 340800, "length": 120, "velocity": 96}, {"pitch": 84, "tick": 341040, "length": 120, "velocity": 96}, {"pitch": 79, "tick": 341280, "length": 120, "velocity": 96}, {"pitch": 82, "tick": 341520, "length": 120, "velocity": 96}, {"pitch": 84, "tick": 341760, "length": 120, "velocity": 96}, {"pitch": 79, "tick": 342000, "length": 120, "velocity": 96}, {"pitch": 86, "tick": 342240, "length": 120, "velocity": 96}, {"pitch": 87, "tick": 342480, "length": 120, "velocity": 96}, {"pitch": 86, "tick": 342720, "length": 120, "velocity": 96}, {"pitch": 79, "tick": 342960, "length": 120, "velocity": 96}, {"pitch": 82, "tick": 343200, "length": 120, "velocity": 96}, {"pitch": 79, "tick": 343440, "length": 120, "velocity": 96}, {"pitch": 84, "tick": 343680, "length": 120, "velocity": 96}, {"pitch": 79, "tick": 343920, "length": 120, "velocity": 96}, {"pitch": 84, "tick": 344160, "length": 120, "velocity": 96}, {"pitch": 86, "tick": 344400, "length": 120, "velocity": 96}, {"pitch": 87, "tick": 344640, "length": 120, "velocity": 96}, {"pitch": 84, "tick": 344880, "length": 120, "velocity": 96}, {"pitch": 89, "tick": 345120, "length": 120, "velocity": 96}, {"pitch": 84, "tick": 345360, "length": 120, "velocity": 96}, {"pitch": 87, "tick": 345600, "length": 120, "velocity": 96}, {"pitch": 84, "tick": 346080, "length": 120, "velocity": 96}, {"pitch": 79, "tick": 346320, "length": 120, "velocity": 96}, {"pitch": 84, "tick": 346560, "length": 120, "velocity": 96}, {"pitch": 86, "tick": 347040, "length": 120, "velocity": 96}, {"pitch": 79, "tick": 347760, "length": 120, "velocity": 96}, {"pitch": 82, "tick": 348000, "length": 120, "velocity": 96}, {"pitch": 84, "tick": 348240, "length": 120, "velocity": 96}, {"pitch": 86, "tick": 348480, "length": 120, "velocity": 96}, {"pitch": 87, "tick": 348720, "length": 120, "velocity": 96}, {"pitch": 94, "tick": 348960, "length": 120, "velocity": 96}, {"pitch": 79, "tick": 349680, "length": 120, "velocity": 96}, {"pitch": 84, "tick": 349920, "length": 120, "velocity": 96}, {"pitch": 87, "tick": 350160, "length": 120, "velocity": 96}, {"pitch": 89, "tick": 350400, "length": 120, "velocity": 96}, {"pitch": 91, "tick": 350640, "length": 120, "velocity": 96}, {"pitch": 87, "tick": 351120, "length": 120, "velocity": 96}, {"pitch": 89, "tick": 351600, "length": 120, "velocity": 96}, {"pitch": 91, "tick": 352080, "length": 120, "velocity": 96}, {"pitch": 89, "tick": 352320, "length": 120, "velocity": 96}, {"pitch": 87, "tick": 352560, "length": 120, "velocity": 96}, {"pitch": 84, "tick": 352800, "length": 120, "velocity": 96}, {"pitch": 87, "tick": 353040, "length": 120, "velocity": 96}, {"pitch": 96, "tick": 353520, "length": 120, "velocity": 96}, {"pitch": 94, "tick": 353760, "length": 120, "velocity": 96}, {"pitch": 91, "tick": 354240, "length": 120, "velocity": 96}, {"pitch": 89, "tick": 354720, "length": 120, "velocity": 96}, {"pitch": 87, "tick": 355200, "length": 120, "velocity": 96}, {"pitch": 84, "tick": 355680, "length": 120, "velocity": 96}, {"pitch": 86, "tick": 356160, "length": 120, "velocity": 96}, {"pitch": 87, "tick": 356400, "length": 120, "velocity": 96}, {"pitch": 86, "tick": 356880, "length": 120, "velocity": 96}, {"pitch": 86, "tick": 357360, "length": 120, "velocity": 96}, {"pitch": 87, "tick": 357600, "length": 120, "velocity": 96}, {"pitch": 86, "tick": 357840, "length": 120, "velocity": 96}, {"pitch": 84, "tick": 358080, "length": 120, "velocity": 96}, {"pitch": 82, "tick": 358320, "length": 120, "velocity": 96}, {"pitch": 79, "tick": 358560, "length": 120, "velocity": 96}, {"pitch": 84, "tick": 359280, "length": 120, "velocity": 96}, {"pitch": 79, "tick": 359520, "length": 120, "velocity": 96}, {"pitch": 84, "tick": 360000, "length": 120, "velocity": 96}, {"pitch": 86, "tick": 360240, "length": 120, "velocity": 96}, {"pitch": 87, "tick": 360720, "length": 120, "velocity": 96}, {"pitch": 86, "tick": 360960, "length": 120, "velocity": 96}, {"pitch": 87, "tick": 361440, "length": 120, "velocity": 96}, {"pitch": 89, "tick": 361680, "length": 120, "velocity": 96}, {"pitch": 91, "tick": 362160, "length": 120, "velocity": 96}, {"pitch": 94, "tick": 362400, "length": 120, "velocity": 96}, {"pitch": 96, "tick": 362880, "length": 120, "velocity": 96}, {"pitch": 94, "tick": 363120, "length": 120, "velocity": 96}, {"pitch": 91, "tick": 363360, "length": 120, "velocity": 96}, {"pitch": 96, "tick": 363600, "length": 120, "velocity": 96}, {"pitch": 94, "tick": 363840, "length": 120, "velocity": 96}, {"pitch": 91, "tick": 364080, "length": 120, "velocity": 96}, {"pitch": 96, "tick": 364320, "length": 120, "velocity": 96}, {"pitch": 94, "tick": 364560, "length": 120, "velocity": 96}, {"pitch": 91, "tick": 364800, "length": 120, "velocity": 96}, {"pitch": 89, "tick": 365040, "length": 120, "velocity": 96}, {"pitch": 91, "tick": 365280, "length": 120, "velocity": 96}, {"pitch": 94, "tick": 365520, "length": 120, "velocity": 96}, {"pitch": 91, "tick": 365760, "length": 120, "velocity": 96}, {"pitch": 89, "tick": 366240, "length": 120, "velocity": 96}, {"pitch": 84, "tick": 366720, "length": 120, "velocity": 96}, {"pitch": 86, "tick": 366960, "length": 120, "velocity": 96}, {"pitch": 87, "tick": 367200, "length": 120, "velocity": 96}, {"pitch": 84, "tick": 367440, "length": 120, "velocity": 96}, {"pitch": 86, "tick": 367680, "length": 120, "velocity": 96}, {"pitch": 87, "tick": 367920, "length": 120, "velocity": 96}, {"pitch": 84, "tick": 368160, "length": 120, "velocity": 96}, {"pitch": 87, "tick": 368400, "length": 120, "velocity": 96}, {"pitch": 89, "tick": 368640, "length": 120, "velocity": 96}, {"pitch": 87, "tick": 368880, "length": 120, "velocity": 96}, {"pitch": 89, "tick": 369120, "length": 120, "velocity": 96}, {"pitch": 91, "tick": 369360, "length": 120, "velocity": 96}, {"pitch": 89, "tick": 369600, "length": 120, "velocity": 96}, {"pitch": 87, "tick": 370080, "length": 120, "velocity": 96}, {"pitch": 79, "tick": 370560, "length": 120, "velocity": 96}, {"pitch": 84, "tick": 370800, "length": 120, "velocity": 96}, {"pitch": 82, "tick": 371040, "length": 120, "velocity": 96}, {"pitch": 79, "tick": 371280, "length": 120, "velocity": 96}, {"pitch": 82, "tick": 371520, "length": 120, "velocity": 96}, {"pitch": 84, "tick": 371760, "length": 120, "velocity": 96}, {"pitch": 79, "tick": 372000, "length": 120, "velocity": 96}, {"pitch": 82, "tick": 372240, "length": 120, "velocity": 96}, {"pitch": 84, "tick": 372480, "length": 120, "velocity": 96}, {"pitch": 79, "tick": 372720, "length": 120, "velocity": 96}, {"pitch": 86, "tick": 372960, "length": 120, "velocity": 96}, {"pitch": 87, "tick": 373200, "length": 120, "velocity": 96}, {"pitch": 86, "tick": 373440, "length": 120, "velocity": 96}, {"pitch": 79, "tick": 373680, "length": 120, "velocity": 96}, {"pitch": 82, "tick": 373920, "length": 120, "velocity": 96}, {"pitch": 79, "tick": 374160, "length": 120, "velocity": 96}, {"pitch": 84, "tick": 374400, "length": 120, "velocity": 96}, {"pitch": 79, "tick": 374640, "length": 120, "velocity": 96}, {"pitch": 84, "tick": 374880, "length": 120, "velocity": 96}, {"pitch": 86, "tick": 375120, "length": 120, "velocity": 96}, {"pitch": 87, "tick": 375360, "length": 120, "velocity": 96}, {"pitch": 84, "tick": 375600, "length": 120, "velocity": 96}, {"pitch": 89, "tick": 375840, "length": 120, "velocity": 96}, {"pitch": 84, "tick": 376080, "length": 120, "velocity": 96}, {"pitch": 87, "tick": 376320, "length": 120, "velocity": 96}, {"pitch": 84, "tick": 376800, "length": 120, "velocity": 96}, {"pitch": 79, "tick": 377040, "length": 120, "velocity": 96}, {"pitch": 84, "tick": 377280, "length": 120, "velocity": 96}, {"pitch": 86, "tick": 377760, "length": 120, "velocity": 96}, {"pitch": 79, "tick": 378480, "length": 120, "velocity": 96}, {"pitch": 82, "tick": 378720, "length": 120, "velocity": 96}, {"pitch": 84, "tick": 378960, "length": 120, "velocity": 96}, {"pitch": 86, "tick": 379200, "length": 120, "velocity": 96}, {"pitch": 87, "tick": 379440, "length": 120, "velocity": 96}, {"pitch": 94, "tick": 379680, "length": 120, "velocity": 96}, {"pitch": 79, "tick": 380400, "length": 120, "velocity": 96}, {"pitch": 84, "tick": 380640, "length": 120, "velocity": 96}, {"pitch": 87, "tick": 380880, "length": 120, "velocity": 96}, {"pitch": 89, "tick": 381120, "length": 120, "velocity": 96}, {"pitch": 91, "tick": 381360, "length": 120, "velocity": 96}, {"pitch": 87, "tick": 381840, "length": 120, "velocity": 96}, {"pitch": 89, "tick": 382320, "length": 120, "velocity": 96}, {"pitch": 91, "tick": 382800, "length": 120, "velocity": 96}, {"pitch": 89, "tick": 383040, "length": 120, "velocity": 96}, {"pitch": 87, "tick": 383280, "length": 120, "velocity": 96}, {"pitch": 84, "tick": 383520, "length": 120, "velocity": 96}, {"pitch": 87, "tick": 383760, "length": 120, "velocity": 96}, {"pitch": 96, "tick": 384240, "length": 120, "velocity": 96}, {"pitch": 94, "tick": 384480, "length": 120, "velocity": 96}, {"pitch": 91, "tick": 384960, "length": 120, "velocity": 96}, {"pitch": 89, "tick": 385440, "length": 120, "velocity": 96}, {"pitch": 87, "tick": 385920, "length": 120, "velocity": 96}, {"pitch": 84, "tick": 386400, "length": 120, "velocity": 96}, {"pitch": 86, "tick": 386880, "length": 120, "velocity": 96}, {"pitch": 87, "tick": 387120, "length": 120, "velocity": 96}, {"pitch": 86, "tick": 387600, "length": 120, "velocity": 96}, {"pitch": 86, "tick": 388080, "length": 120, "velocity": 96}, {"pitch": 87, "tick": 388320, "length": 120, "velocity": 96}, {"pitch": 86, "tick": 388560, "length": 120, "velocity": 96}, {"pitch": 84, "tick": 388800, "length": 120, "velocity": 96}, {"pitch": 82, "tick": 389040, "length": 120, "velocity": 96}, {"pitch": 79, "tick": 389280, "length": 120, "velocity": 96}, {"pitch": 84, "tick": 390000, "length": 120, "velocity": 96}, {"pitch": 79, "tick": 390240, "length": 120, "velocity": 96}, {"pitch": 84, "tick": 390720, "length": 120, "velocity": 96}, {"pitch": 86, "tick": 390960, "length": 120, "velocity": 96}, {"pitch": 87, "tick": 391440, "length": 120, "velocity": 96}, {"pitch": 86, "tick": 391680, "length": 120, "velocity": 96}, {"pitch": 87, "tick": 392160, "length": 120, "velocity": 96}, {"pitch": 89, "tick": 392400, "length": 120, "velocity": 96}, {"pitch": 91, "tick": 392880, "length": 120, "velocity": 96}, {"pitch": 94, "tick": 393120, "length": 120, "velocity": 96}, {"pitch": 96, "tick": 393600, "length": 120, "velocity": 96}, {"pitch": 94, "tick": 393840, "length": 120, "velocity": 96}, {"pitch": 91, "tick": 394080, "length": 120, "velocity": 96}, {"pitch": 96, "tick": 394320, "length": 120, "velocity": 96}, {"pitch": 94, "tick": 394560, "length": 120, "velocity": 96}, {"pitch": 91, "tick": 394800, "length": 120, "velocity": 96}, {"pitch": 96, "tick": 395040, "length": 120, "velocity": 96}, {"pitch": 94, "tick": 395280, "length": 120, "velocity": 96}, {"pitch": 91, "tick": 395520, "length": 120, "velocity": 96}, {"pitch": 89, "tick": 395760, "length": 120, "velocity": 96}, {"pitch": 91, "tick": 396000, "length": 120, "velocity": 96}, {"pitch": 94, "tick": 396240, "length": 120, "velocity": 96}, {"pitch": 91, "tick": 396480, "length": 120, "velocity": 96}, {"pitch": 89, "tick": 396960, "length": 120, "velocity": 96}, {"pitch": 84, "tick": 397440, "length": 120, "velocity": 96}, {"pitch": 86, "tick": 397680, "length": 120, "velocity": 96}, {"pitch": 87, "tick": 397920, "length": 120, "velocity": 96}, {"pitch": 84, "tick": 398160, "length": 120, "velocity": 96}, {"pitch": 86, "tick": 398400, "length": 120, "velocity": 96}, {"pitch": 87, "tick": 398640, "length": 120, "velocity": 96}, {"pitch": 84, "tick": 398880, "length": 120, "velocity": 96}, {"pitch": 87, "tick": 399120, "length": 120, "velocity": 96}, {"pitch": 89, "tick": 399360, "length": 120, "velocity": 96}, {"pitch": 87, "tick": 399600, "length": 120, "velocity": 96}, {"pitch": 89, "tick": 399840, "length": 120, "velocity": 96}, {"pitch": 91, "tick": 400080, "length": 120, "velocity": 96}, {"pitch": 89, "tick": 400320, "length": 120, "velocity": 96}, {"pitch": 87, "tick": 400800, "length": 120, "velocity": 96}, {"pitch": 79, "tick": 401280, "length": 120, "velocity": 96}, {"pitch": 84, "tick": 401520, "length": 120, "velocity": 96}, {"pitch": 82, "tick": 401760, "length": 120, "velocity": 96}, {"pitch": 79, "tick": 402000, "length": 120, "velocity": 96}, {"pitch": 82, "tick": 402240, "length": 120, "velocity": 96}, {"pitch": 84, "tick": 402480, "length": 120, "velocity": 96}, {"pitch": 79, "tick": 402720, "length": 120, "velocity": 96}, {"pitch": 82, "tick": 402960, "length": 120, "velocity": 96}, {"pitch": 84, "tick": 403200, "length": 120, "velocity": 96}, {"pitch": 79, "tick": 403440, "length": 120, "velocity": 96}, {"pitch": 86, "tick": 403680, "length": 120, "velocity": 96}, {"pitch": 87, "tick": 403920, "length": 120, "velocity": 96}, {"pitch": 86, "tick": 404160, "length": 120, "velocity": 96}, {"pitch": 79, "tick": 404400, "length": 120, "velocity": 96}, {"pitch": 82, "tick": 404640, "length": 120, "velocity": 96}, {"pitch": 79, "tick": 404880, "length": 120, "velocity": 96}, {"pitch": 84, "tick": 405120, "length": 120, "velocity": 96}, {"pitch": 79, "tick": 405360, "length": 120, "velocity": 96}, {"pitch": 84, "tick": 405600, "length": 120, "velocity": 96}, {"pitch": 86, "tick": 405840, "length": 120, "velocity": 96}, {"pitch": 87, "tick": 406080, "length": 120, "velocity": 96}, {"pitch": 84, "tick": 406320, "length": 120, "velocity": 96}, {"pitch": 89, "tick": 406560, "length": 120, "velocity": 96}, {"pitch": 84, "tick": 406800, "length": 120, "velocity": 96}, {"pitch": 87, "tick": 407040, "length": 120, "velocity": 96}, {"pitch": 84, "tick": 407520, "length": 120, "velocity": 96}, {"pitch": 86, "tick": 407760, "length": 120, "velocity": 96}, {"pitch": 87, "tick": 408000, "length": 120, "velocity": 96}, {"pitch": 84, "tick": 408480, "length": 120, "velocity": 96}]}, {"channel": 3, "length": 470400, "track_name": "\u0083V\u0083\u0093\u0083Z", "events": [{"type": "track_name", "name": "\u0083V\u0083\u0093\u0083Z", "tick": 0}, {"type": "midi_port", "port": 0, "tick": 0}, {"type": "control_change", "control": 0, "value": 121, "channel": 3, "tick": 480}, {"type": "control_change", "control": 32, "value": 0, "channel": 3, "tick": 480}, {"type": "program_change", "program": 39, "channel": 3, "tick": 480}, {"type": "sysex", "data": [65, 16, 0, 72, 18, 16, 0, 35, 63, 0, 14], "tick": 540}, {"type": "control_change", "control": 7, "value": 32, "channel": 3, "tick": 600}, {"type": "control_change", "control": 10, "value": 64, "channel": 3, "tick": 660}, {"type": "control_change", "control": 91, "value": 8, "channel": 3, "tick": 720}, {"type": "control_change", "control": 93, "value": 127, "channel": 3, "tick": 780}, {"type": "control_change", "control": 74, "value": 72, "channel": 3, "tick": 840}, {"type": "control_change", "control": 71, "value": 80, "channel": 3, "tick": 900}, {"type": "control_change", "control": 73, "value": 64, "channel": 3, "tick": 960}, {"type": "control_change", "control": 75, "value": 60, "channel": 3, "tick": 1020}, {"type": "control_change", "control": 72, "value": 60, "channel": 3, "tick": 1080}, {"type": "control_change", "control": 101, "value": 0, "channel": 3, "tick": 1140}, {"type": "control_change", "control": 100, "value": 0, "channel": 3, "tick": 1140}, {"type": "control_change", "control": 6, "value": 12, "channel": 3, "tick": 1140}, {"type": "control_change", "control": 38, "value": 0, "channel": 3, "tick": 1140}, {"type": "pitchwheel", "channel": 3, "pitch": 0, "tick": 1200}, {"type": "control_change", "control": 1, "value": 0, "channel": 3, "tick": 1260}, {"type": "control_change", "control": 11, "value": 127, "channel": 3, "tick": 1320}, {"type": "control_change", "control": 101, "value": 127, "channel": 3, "tick": 1380}, {"type": "control_change", "control": 100, "value": 127, "channel": 3, "tick": 1380}, {"type": "control_change", "control": 6, "value": 0, "channel": 3, "tick": 1380}, {"type": "control_change", "control": 38, "value": 0, "channel": 3, "tick": 1380}, {"type": "end_of_track", "tick": 470400}], "notes": [{"pitch": 48, "tick": 32880, "length": 240, "velocity": 104}, {"pitch": 36, "tick": 32880, "length": 240, "velocity": 104}, {"pitch": 48, "tick": 33360, "length": 240, "velocity": 104}, {"pitch": 36, "tick": 33360, "length": 240, "velocity": 104}, {"pitch": 48, "tick": 33840, "length": 240, "velocity": 104}, {"pitch": 36, "tick": 33840, "length": 240, "velocity": 104}, {"pitch": 48, "tick": 34320, "length": 240, "velocity": 104}, {"pitch": 36, "tick": 34320, "length": 240, "velocity": 104}, {"pitch": 48, "tick": 34800, "length": 240, "velocity": 104}, {"pitch": 36, "tick": 34800, "length": 240, "velocity": 104}, {"pitch": 48, "tick": 35280, "length": 240, "velocity": 104}, {"pitch": 36, "tick": 35280, "length": 240, "velocity": 104}, {"pitch": 48, "tick": 35760, "length": 240, "velocity": 104}, {"pitch": 36, "tick": 35760, "length": 240, "velocity": 104}, {"pitch": 48, "tick": 36240, "length": 240, "velocity": 104}, {"pitch": 36, "tick": 36240, "length": 240, "velocity": 104}, {"pitch": 48, "tick": 36720, "length": 240, "velocity": 104}, {"pitch": 36, "tick": 36720, "length": 240, "velocity": 104}, {"pitch": 48, "tick": 37200, "length": 240, "velocity": 104}, {"pitch": 36, "tick": 37200, "length": 240, "velocity": 104}, {"pitch": 48, "tick": 37680, "length": 240, "velocity": 104}, {"pitch": 36, "tick": 37680, "length": 240, "velocity": 104}, {"pitch": 48, "tick": 38160, "length": 240, "velocity": 104}, {"pitch": 36, "tick": 38160, "length": 240, "velocity": 104}, {"pitch": 48, "tick": 38640, "length": 240, "velocity": 104}, {"pitch": 36, "tick": 38640, "length": 240, "velocity": 104}, {"pitch": 48, "tick": 39120, "length": 240, "velocity": 104}, {"pitch": 36, "tick": 39120, "length": 240, "velocity": 104}, {"pitch": 48, "tick": 39600, "length": 240, "velocity": 104}, {"pitch": 36, "tick": 39600, "length": 240, "velocity": 104}, {"pitch": 48, "tick": 40080, "length": 240, "velocity": 104}, {"pitch": 36, "tick": 40080, "length": 240, "velocity": 104}, {"pitch": 48, "tick": 40560, "length": 240, "velocity": 104}, {"pitch": 36, "tick": 40560, "length": 240, "velocity": 104}, {"pitch": 48, "tick": 41040, "length": 240, "velocity": 104}, {"pitch": 36, "tick": 41040, "length": 240, "velocity": 104}, {"pitch": 48, "tick": 41520, "length": 240, "velocity": 104}, {"pitch": 36, "tick": 41520, "length": 240, "velocity": 104}, {"pitch": 48, "tick": 42000, "length": 240, "velocity": 104}, {"pitch": 36, "tick": 42000, "length": 240, "velocity": 104}, {"pitch": 48, "tick": 42480, "length": 240, "velocity": 104}, {"pitch": 36, "tick": 42480, "length": 240, "velocity": 104}, {"pitch": 48, "tick": 42960, "length": 240, "velocity": 104}, {"pitch": 36, "tick": 42960, "length": 240, "velocity": 104}, {"pitch": 48, "tick": 43440, "length": 240, "velocity": 104}, {"pitch": 36, "tick": 43440, "length": 240, "velocity": 104}, {"pitch": 48, "tick": 43920, "length": 240, "velocity": 104}, {"pitch": 36, "tick": 43920, "length": 240, "velocity": 104}, {"pitch": 48, "tick": 44400, "length": 240, "velocity": 104}, {"pitch": 36, "tick": 44400, "length": 240, "velocity": 104}, {"pitch": 48, "tick": 44880, "length": 240, "velocity": 104}, {"pitch": 36, "tick": 44880, "length": 240, "velocity": 104}, {"pitch": 48, "tick": 45360, "length": 240, "velocity": 104}, {"pitch": 36, "tick": 45360, "length": 240, "velocity": 104}, {"pitch": 48, "tick": 45840, "length": 240, "velocity": 104}, {"pitch": 36, "tick": 45840, "length": 240, "velocity": 104}, {"pitch": 48, "tick": 46320, "length": 240, "velocity": 104}, {"pitch": 36, "tick": 46320, "length": 240, "velocity": 104}, {"pitch": 48, "tick": 46800, "length": 240, "velocity": 104}, {"pitch": 36, "tick": 46800, "length": 240, "velocity": 104}, {"pitch": 48, "tick": 47280, "length": 240, "velocity": 104}, {"pitch": 36, "tick": 47280, "length": 240, "velocity": 104}, {"pitch": 48, "tick": 47760, "length": 240, "velocity": 104}, {"pitch": 36, "tick": 47760, "length": 240, "velocity": 104}, {"pitch": 48, "tick": 48240, "length": 240, "velocity": 104}, {"pitch": 36, "tick": 48240, "length": 240, "velocity": 104}, {"pitch": 48, "tick": 48720, "length": 240, "velocity": 104}, {"pitch": 36, "tick": 48720, "length": 240, "velocity": 104}, {"pitch": 48, "tick": 49200, "length": 240, "velocity": 104}, {"pitch": 36, "tick": 49200, "length": 240, "velocity": 104}, {"pitch": 48, "tick": 49680, "length": 240, "velocity": 104}, {"pitch": 36, "tick": 49680, "length": 240, "velocity": 104}, {"pitch": 48, "tick": 50160, "length": 240, "velocity": 104}, {"pitch": 36, "tick": 50160, "length": 240, "velocity": 104}, {"pitch": 48, "tick": 50640, "length": 240, "velocity": 104}, {"pitch": 36, "tick": 50640, "length": 240, "velocity": 104}, {"pitch": 48, "tick": 51120, "length": 240, "velocity": 104}, {"pitch": 36, "tick": 51120, "length": 240, "velocity": 104}, {"pitch": 48, "tick": 51600, "length": 240, "velocity": 104}, {"pitch": 36, "tick": 51600, "length": 240, "velocity": 104}, {"pitch": 48, "tick": 52080, "length": 240, "velocity": 104}, {"pitch": 36, "tick": 52080, "length": 240, "velocity": 104}, {"pitch": 48, "tick": 52560, "length": 240, "velocity": 104}, {"pitch": 36, "tick": 52560, "length": 240, "velocity": 104}, {"pitch": 48, "tick": 53040, "length": 240, "velocity": 104}, {"pitch": 36, "tick": 53040, "length": 240, "velocity": 104}, {"pitch": 48, "tick": 53520, "length": 240, "velocity": 104}, {"pitch": 36, "tick": 53520, "length": 240, "velocity": 104}, {"pitch": 48, "tick": 54000, "length": 240, "velocity": 104}, {"pitch": 36, "tick": 54000, "length": 240, "velocity": 104}, {"pitch": 48, "tick": 54480, "length": 240, "velocity": 104}, {"pitch": 36, "tick": 54480, "length": 240, "velocity": 104}, {"pitch": 48, "tick": 54960, "length": 240, "velocity": 104}, {"pitch": 36, "tick": 54960, "length": 240, "velocity": 104}, {"pitch": 48, "tick": 55440, "length": 240, "velocity": 104}, {"pitch": 36, "tick": 55440, "length": 240, "velocity": 104}, {"pitch": 48, "tick": 55920, "length": 240, "velocity": 104}, {"pitch": 36, "tick": 55920, "length": 240, "velocity": 104}, {"pitch": 48, "tick": 56400, "length": 240, "velocity": 104}, {"pitch": 36, "tick": 56400, "length": 240, "velocity": 104}, {"pitch": 48, "tick": 56880, "length": 240, "velocity": 104}, {"pitch": 36, "tick": 56880, "length": 240, "velocity": 104}, {"pitch": 48, "tick": 57360, "length": 240, "velocity": 104}, {"pitch": 36, "tick": 57360, "length": 240, "velocity": 104}, {"pitch": 48, "tick": 57840, "length": 240, "velocity": 104}, {"pitch": 36, "tick": 57840, "length": 240, "velocity": 104}, {"pitch": 48, "tick": 58320, "length": 240, "velocity": 104}, {"pitch": 36, "tick": 58320, "length": 240, "velocity": 104}, {"pitch": 48, "tick": 58800, "length": 240, "velocity": 104}, {"pitch": 36, "tick": 58800, "length": 240, "velocity": 104}, {"pitch": 48, "tick": 59280, "length": 240, "velocity": 104}, {"pitch": 36, "tick": 59280, "length": 240, "velocity": 104}, {"pitch": 48, "tick": 59760, "length": 240, "velocity": 104}, {"pitch": 36, "tick": 59760, "length": 240, "velocity": 104}, {"pitch": 48, "tick": 60240, "length": 240, "velocity": 104}, {"pitch": 36, "tick": 60240, "length": 240, "velocity": 104}, {"pitch": 48, "tick": 60720, "length": 240, "velocity": 104}, {"pitch": 36, "tick": 60720, "length": 240, "velocity": 104}, {"pitch": 48, "tick": 61200, "length": 240, "velocity": 104}, {"pitch": 36, "tick": 61200, "length": 240, "velocity": 104}, {"pitch": 48, "tick": 61680, "length": 240, "velocity": 104}, {"pitch": 36, "tick": 61680, "length": 240, "velocity": 104}, {"pitch": 48, "tick": 62160, "length": 240, "velocity": 104}, {"pitch": 36, "tick": 62160, "length": 240, "velocity": 104}, {"pitch": 48, "tick": 62640, "length": 240, "velocity": 104}, {"pitch": 36, "tick": 62640, "length": 240, "velocity": 104}, {"pitch": 48, "tick": 63120, "length": 240, "velocity": 104}, {"pitch": 36, "tick": 63120, "length": 240, "velocity": 104}, {"pitch": 48, "tick": 63600, "length": 240, "velocity": 104}, {"pitch": 36, "tick": 63600, "length": 240, "velocity": 104}, {"pitch": 48, "tick": 64080, "length": 240, "velocity": 104}, {"pitch": 36, "tick": 64080, "length": 240, "velocity": 104}, {"pitch": 48, "tick": 64560, "length": 240, "velocity": 104}, {"pitch": 36, "tick": 64560, "length": 240, "velocity": 104}, {"pitch": 48, "tick": 65040, "length": 240, "velocity": 104}, {"pitch": 36, "tick": 65040, "length": 240, "velocity": 104}, {"pitch": 48, "tick": 65520, "length": 240, "velocity": 104}, {"pitch": 36, "tick": 65520, "length": 240, "velocity": 104}, {"pitch": 48, "tick": 66000, "length": 240, "velocity": 104}, {"pitch": 36, "tick": 66000, "length": 240, "velocity": 104}, {"pitch": 48, "tick": 66480, "length": 240, "velocity": 104}, {"pitch": 36, "tick": 66480, "length": 240, "velocity": 104}, {"pitch": 48, "tick": 66960, "length": 240, "velocity": 104}, {"pitch": 36, "tick": 66960, "length": 240, "velocity": 104}, {"pitch": 48, "tick": 67440, "length": 240, "velocity": 104}, {"pitch": 36, "tick": 67440, "length": 240, "velocity": 104}, {"pitch": 48, "tick": 67920, "length": 240, "velocity": 104}, {"pitch": 36, "tick": 67920, "length": 240, "velocity": 104}, {"pitch": 48, "tick": 68400, "length": 240, "velocity": 104}, {"pitch": 36, "tick": 68400, "length": 240, "velocity": 104}, {"pitch": 48, "tick": 68880, "length": 240, "velocity": 104}, {"pitch": 36, "tick": 68880, "length": 240, "velocity": 104}, {"pitch": 48, "tick": 69360, "length": 240, "velocity": 104}, {"pitch": 36, "tick": 69360, "length": 240, "velocity": 104}, {"pitch": 48, "tick": 69840, "length": 240, "velocity": 104}, {"pitch": 36, "tick": 69840, "length": 240, "velocity": 104}, {"pitch": 48, "tick": 70320, "length": 240, "velocity": 104}, {"pitch": 36, "tick": 70320, "length": 240, "velocity": 104}, {"pitch": 48, "tick": 70800, "length": 240, "velocity": 104}, {"pitch": 36, "tick": 70800, "length": 240, "velocity": 104}, {"pitch": 48, "tick": 71280, "length": 240, "velocity": 104}, {"pitch": 36, "tick": 71280, "length": 240, "velocity": 104}, {"pitch": 48, "tick": 71760, "length": 240, "velocity": 104}, {"pitch": 36, "tick": 71760, "length": 240, "velocity": 104}, {"pitch": 48, "tick": 72240, "length": 240, "velocity": 104}, {"pitch": 36, "tick": 72240, "length": 240, "velocity": 104}, {"pitch": 48, "tick": 72720, "length": 240, "velocity": 104}, {"pitch": 36, "tick": 72720, "length": 240, "velocity": 104}, {"pitch": 48, "tick": 73200, "length": 240, "velocity": 104}, {"pitch": 36, "tick": 73200, "length": 240, "velocity": 104}, {"pitch": 48, "tick": 73680, "length": 240, "velocity": 104}, {"pitch": 36, "tick": 73680, "length": 240, "velocity": 104}, {"pitch": 48, "tick": 74160, "length": 240, "velocity": 104}, {"pitch": 36, "tick": 74160, "length": 240, "velocity": 104}, {"pitch": 48, "tick": 74640, "length": 240, "velocity": 104}, {"pitch": 36, "tick": 74640, "length": 240, "velocity": 104}, {"pitch": 48, "tick": 75120, "length": 240, "velocity": 104}, {"pitch": 36, "tick": 75120, "length": 240, "velocity": 104}, {"pitch": 48, "tick": 75600, "length": 240, "velocity": 104}, {"pitch": 36, "tick": 75600, "length": 240, "velocity": 104}, {"pitch": 48, "tick": 76080, "length": 240, "velocity": 104}, {"pitch": 36, "tick": 76080, "length": 240, "velocity": 104}, {"pitch": 48, "tick": 76560, "length": 240, "velocity": 104}, {"pitch": 36, "tick": 76560, "length": 240, "velocity": 104}, {"pitch": 48, "tick": 77040, "length": 240, "velocity": 104}, {"pitch": 36, "tick": 77040, "length": 240, "velocity": 104}, {"pitch": 48, "tick": 77520, "length": 240, "velocity": 104}, {"pitch": 36, "tick": 77520, "length": 240, "velocity": 104}, {"pitch": 48, "tick": 78000, "length": 240, "velocity": 104}, {"pitch": 36, "tick": 78000, "length": 240, "velocity": 104}, {"pitch": 48, "tick": 78480, "length": 240, "velocity": 104}, {"pitch": 36, "tick": 78480, "length": 240, "velocity": 104}, {"pitch": 48, "tick": 78960, "length": 240, "velocity": 104}, {"pitch": 36, "tick": 78960, "length": 240, "velocity": 104}, {"pitch": 48, "tick": 79440, "length": 240, "velocity": 104}, {"pitch": 36, "tick": 79440, "length": 240, "velocity": 104}, {"pitch": 48, "tick": 79920, "length": 240, "velocity": 104}, {"pitch": 36, "tick": 79920, "length": 240, "velocity": 104}, {"pitch": 48, "tick": 80400, "length": 240, "velocity": 104}, {"pitch": 36, "tick": 80400, "length": 240, "velocity": 104}, {"pitch": 48, "tick": 80880, "length": 240, "velocity": 104}, {"pitch": 36, "tick": 80880, "length": 240, "velocity": 104}, {"pitch": 48, "tick": 81360, "length": 240, "velocity": 104}, {"pitch": 36, "tick": 81360, "length": 240, "velocity": 104}, {"pitch": 48, "tick": 81840, "length": 240, "velocity": 104}, {"pitch": 36, "tick": 81840, "length": 240, "velocity": 104}, {"pitch": 48, "tick": 82320, "length": 240, "velocity": 104}, {"pitch": 36, "tick": 82320, "length": 240, "velocity": 104}, {"pitch": 48, "tick": 82800, "length": 240, "velocity": 104}, {"pitch": 36, "tick": 82800, "length": 240, "velocity": 104}, {"pitch": 48, "tick": 83280, "length": 240, "velocity": 104}, {"pitch": 36, "tick": 83280, "length": 240, "velocity": 104}, {"pitch": 48, "tick": 83760, "length": 240, "velocity": 104}, {"pitch": 36, "tick": 83760, "length": 240, "velocity": 104}, {"pitch": 48, "tick": 84240, "length": 240, "velocity": 104}, {"pitch": 36, "tick": 84240, "length": 240, "velocity": 104}, {"pitch": 48, "tick": 84720, "length": 240, "velocity": 104}, {"pitch": 36, "tick": 84720, "length": 240, "velocity": 104}, {"pitch": 48, "tick": 85200, "length": 240, "velocity": 104}, {"pitch": 36, "tick": 85200, "length": 240, "velocity": 104}, {"pitch": 48, "tick": 85680, "length": 240, "velocity": 104}, {"pitch": 36, "tick": 85680, "length": 240, "velocity": 104}, {"pitch": 48, "tick": 86160, "length": 240, "velocity": 104}, {"pitch": 36, "tick": 86160, "length": 240, "velocity": 104}, {"pitch": 48, "tick": 86640, "length": 240, "velocity": 104}, {"pitch": 36, "tick": 86640, "length": 240, "velocity": 104}, {"pitch": 48, "tick": 87120, "length": 240, "velocity": 104}, {"pitch": 36, "tick": 87120, "length": 240, "velocity": 104}, {"pitch": 48, "tick": 87600, "length": 240, "velocity": 104}, {"pitch": 36, "tick": 87600, "length": 240, "velocity": 104}, {"pitch": 48, "tick": 88080, "length": 240, "velocity": 104}, {"pitch": 36, "tick": 88080, "length": 240, "velocity": 104}, {"pitch": 48, "tick": 88560, "length": 240, "velocity": 104}, {"pitch": 36, "tick": 88560, "length": 240, "velocity": 104}, {"pitch": 48, "tick": 89040, "length": 240, "velocity": 104}, {"pitch": 36, "tick": 89040, "length": 240, "velocity": 104}, {"pitch": 48, "tick": 89520, "length": 240, "velocity": 104}, {"pitch": 36, "tick": 89520, "length": 240, "velocity": 104}, {"pitch": 48, "tick": 90000, "length": 240, "velocity": 104}, {"pitch": 36, "tick": 90000, "length": 240, "velocity": 104}, {"pitch": 48, "tick": 90480, "length": 240, "velocity": 104}, {"pitch": 36, "tick": 90480, "length": 240, "velocity": 104}, {"pitch": 48, "tick": 90960, "length": 240, "velocity": 104}, {"pitch": 36, "tick": 90960, "length": 240, "velocity": 104}, {"pitch": 48, "tick": 91440, "length": 240, "velocity": 104}, {"pitch": 36, "tick": 91440, "length": 240, "velocity": 104}, {"pitch": 48, "tick": 91920, "length": 240, "velocity": 104}, {"pitch": 36, "tick": 91920, "length": 240, "velocity": 104}, {"pitch": 48, "tick": 92400, "length": 240, "velocity": 104}, {"pitch": 36, "tick": 92400, "length": 240, "velocity": 104}, {"pitch": 48, "tick": 92880, "length": 240, "velocity": 104}, {"pitch": 36, "tick": 92880, "length": 240, "velocity": 104}, {"pitch": 48, "tick": 93360, "length": 240, "velocity": 104}, {"pitch": 36, "tick": 93360, "length": 240, "velocity": 104}, {"pitch": 48, "tick": 93840, "length": 240, "velocity": 104}, {"pitch": 36, "tick": 93840, "length": 240, "velocity": 104}, {"pitch": 48, "tick": 94320, "length": 240, "velocity": 104}, {"pitch": 36, "tick": 94320, "length": 240, "velocity": 104}, {"pitch": 48, "tick": 94800, "length": 240, "velocity": 104}, {"pitch": 36, "tick": 94800, "length": 240, "velocity": 104}, {"pitch": 48, "tick": 95280, "length": 240, "velocity": 104}, {"pitch": 36, "tick": 95280, "length": 240, "velocity": 104}, {"pitch": 48, "tick": 95760, "length": 240, "velocity": 104}, {"pitch": 36, "tick": 95760, "length": 240, "velocity": 104}, {"pitch": 48, "tick": 96240, "length": 240, "velocity": 104}, {"pitch": 36, "tick": 96240, "length": 240, "velocity": 104}, {"pitch": 48, "tick": 96720, "length": 240, "velocity": 104}, {"pitch": 36, "tick": 96720, "length": 240, "velocity": 104}, {"pitch": 48, "tick": 97200, "length": 240, "velocity": 104}, {"pitch": 36, "tick": 97200, "length": 240, "velocity": 104}, {"pitch": 48, "tick": 97680, "length": 240, "velocity": 104}, {"pitch": 36, "tick": 97680, "length": 240, "velocity": 104}, {"pitch": 41, "tick": 98160, "length": 240, "velocity": 104}, {"pitch": 29, "tick": 98160, "length": 240, "velocity": 104}, {"pitch": 41, "tick": 98640, "length": 240, "velocity": 104}, {"pitch": 29, "tick": 98640, "length": 240, "velocity": 104}, {"pitch": 41, "tick": 99120, "length": 240, "velocity": 104}, {"pitch": 29, "tick": 99120, "length": 240, "velocity": 104}, {"pitch": 41, "tick": 99600, "length": 240, "velocity": 104}, {"pitch": 29, "tick": 99600, "length": 240, "velocity": 104}, {"pitch": 43, "tick": 100080, "length": 240, "velocity": 104}, {"pitch": 31, "tick": 100080, "length": 240, "velocity": 104}, {"pitch": 43, "tick": 100560, "length": 240, "velocity": 104}, {"pitch": 31, "tick": 100560, "length": 240, "velocity": 104}, {"pitch": 43, "tick": 101040, "length": 240, "velocity": 104}, {"pitch": 31, "tick": 101040, "length": 240, "velocity": 104}, {"pitch": 43, "tick": 101520, "length": 240, "velocity": 104}, {"pitch": 31, "tick": 101520, "length": 240, "velocity": 104}, {"pitch": 44, "tick": 102000, "length": 240, "velocity": 104}, {"pitch": 32, "tick": 102000, "length": 240, "velocity": 104}, {"pitch": 44, "tick": 102480, "length": 240, "velocity": 104}, {"pitch": 32, "tick": 102480, "length": 240, "velocity": 104}, {"pitch": 44, "tick": 102960, "length": 240, "velocity": 104}, {"pitch": 32, "tick": 102960, "length": 240, "velocity": 104}, {"pitch": 44, "tick": 103440, "length": 240, "velocity": 104}, {"pitch": 32, "tick": 103440, "length": 240, "velocity": 104}, {"pitch": 44, "tick": 103920, "length": 240, "velocity": 104}, {"pitch": 32, "tick": 103920, "length": 240, "velocity": 104}, {"pitch": 44, "tick": 104400, "length": 240, "velocity": 104}, {"pitch": 32, "tick": 104400, "length": 240, "velocity": 104}, {"pitch": 44, "tick": 104880, "length": 240, "velocity": 104}, {"pitch": 32, "tick": 104880, "length": 240, "velocity": 104}, {"pitch": 44, "tick": 105360, "length": 240, "velocity": 104}, {"pitch": 32, "tick": 105360, "length": 240, "velocity": 104}, {"pitch": 41, "tick": 105840, "length": 240, "velocity": 104}, {"pitch": 29, "tick": 105840, "length": 240, "velocity": 104}, {"pitch": 41, "tick": 106320, "length": 240, "velocity": 104}, {"pitch": 29, "tick": 106320, "length": 240, "velocity": 104}, {"pitch": 41, "tick": 106800, "length": 240, "velocity": 104}, {"pitch": 29, "tick": 106800, "length": 240, "velocity": 104}, {"pitch": 41, "tick": 107280, "length": 240, "velocity": 104}, {"pitch": 29, "tick": 107280, "length": 240, "velocity": 104}, {"pitch": 43, "tick": 107760, "length": 240, "velocity": 104}, {"pitch": 31, "tick": 107760, "length": 240, "velocity": 104}, {"pitch": 43, "tick": 108240, "length": 240, "velocity": 104}, {"pitch": 31, "tick": 108240, "length": 240, "velocity": 104}, {"pitch": 43, "tick": 108720, "length": 240, "velocity": 104}, {"pitch": 31, "tick": 108720, "length": 240, "velocity": 104}, {"pitch": 43, "tick": 109200, "length": 240, "velocity": 104}, {"pitch": 31, "tick": 109200, "length": 240, "velocity": 104}, {"pitch": 48, "tick": 109680, "length": 240, "velocity": 104}, {"pitch": 36, "tick": 109680, "length": 240, "velocity": 104}, {"pitch": 48, "tick": 110160, "length": 240, "velocity": 104}, {"pitch": 36, "tick": 110160, "length": 240, "velocity": 104}, {"pitch": 48, "tick": 110640, "length": 240, "velocity": 104}, {"pitch": 36, "tick": 110640, "length": 240, "velocity": 104}, {"pitch": 48, "tick": 111120, "length": 240, "velocity": 104}, {"pitch": 36, "tick": 111120, "length": 240, "velocity": 104}, {"pitch": 48, "tick": 111600, "length": 240, "velocity": 104}, {"pitch": 36, "tick": 111600, "length": 240, "velocity": 104}, {"pitch": 48, "tick": 112080, "length": 240, "velocity": 104}, {"pitch": 36, "tick": 112080, "length": 240, "velocity": 104}, {"pitch": 48, "tick": 112560, "length": 240, "velocity": 104}, {"pitch": 36, "tick": 112560, "length": 240, "velocity": 104}, {"pitch": 48, "tick": 113040, "length": 240, "velocity": 104}, {"pitch": 36, "tick": 113040, "length": 240, "velocity": 104}, {"pitch": 41, "tick": 113520, "length": 240, "velocity": 104}, {"pitch": 29, "tick": 113520, "length": 240, "velocity": 104}, {"pitch": 41, "tick": 114000, "length": 240, "velocity": 104}, {"pitch": 29, "tick": 114000, "length": 240, "velocity": 104}, {"pitch": 41, "tick": 114480, "length": 240, "velocity": 104}, {"pitch": 29, "tick": 114480, "length": 240, "velocity": 104}, {"pitch": 41, "tick": 114960, "length": 240, "velocity": 104}, {"pitch": 29, "tick": 114960, "length": 240, "velocity": 104}, {"pitch": 43, "tick": 115440, "length": 240, "velocity": 104}, {"pitch": 31, "tick": 115440, "length": 240, "velocity": 104}, {"pitch": 43, "tick": 115920, "length": 240, "velocity": 104}, {"pitch": 31, "tick": 115920, "length": 240, "velocity": 104}, {"pitch": 43, "tick": 116400, "length": 240, "velocity": 104}, {"pitch": 31, "tick": 116400, "length": 240, "velocity": 104}, {"pitch": 43, "tick": 116880, "length": 240, "velocity": 104}, {"pitch": 31, "tick": 116880, "length": 240, "velocity": 104}, {"pitch": 44, "tick": 117360, "length": 240, "velocity": 104}, {"pitch": 32, "tick": 117360, "length": 240, "velocity": 104}, {"pitch": 44, "tick": 117840, "length": 240, "velocity": 104}, {"pitch": 32, "tick": 117840, "length": 240, "velocity": 104}, {"pitch": 44, "tick": 118320, "length": 240, "velocity": 104}, {"pitch": 32, "tick": 118320, "length": 240, "velocity": 104}, {"pitch": 44, "tick": 118800, "length": 240, "velocity": 104}, {"pitch": 32, "tick": 118800, "length": 240, "velocity": 104}, {"pitch": 44, "tick": 119280, "length": 240, "velocity": 104}, {"pitch": 32, "tick": 119280, "length": 240, "velocity": 104}, {"pitch": 44, "tick": 119760, "length": 240, "velocity": 104}, {"pitch": 32, "tick": 119760, "length": 240, "velocity": 104}, {"pitch": 44, "tick": 120240, "length": 240, "velocity": 104}, {"pitch": 32, "tick": 120240, "length": 240, "velocity": 104}, {"pitch": 44, "tick": 120720, "length": 240, "velocity": 104}, {"pitch": 32, "tick": 120720, "length": 240, "velocity": 104}, {"pitch": 41, "tick": 121200, "length": 240, "velocity": 104}, {"pitch": 29, "tick": 121200, "length": 240, "velocity": 104}, {"pitch": 41, "tick": 121680, "length": 240, "velocity": 104}, {"pitch": 29, "tick": 121680, "length": 240, "velocity": 104}, {"pitch": 41, "tick": 122160, "length": 240, "velocity": 104}, {"pitch": 29, "tick": 122160, "length": 240, "velocity": 104}, {"pitch": 41, "tick": 122640, "length": 240, "velocity": 104}, {"pitch": 29, "tick": 122640, "length": 240, "velocity": 104}, {"pitch": 43, "tick": 123120, "length": 240, "velocity": 104}, {"pitch": 31, "tick": 123120, "length": 240, "velocity": 104}, {"pitch": 43, "tick": 123600, "length": 240, "velocity": 104}, {"pitch": 31, "tick": 123600, "length": 240, "velocity": 104}, {"pitch": 43, "tick": 124080, "length": 240, "velocity": 104}, {"pitch": 31, "tick": 124080, "length": 240, "velocity": 104}, {"pitch": 43, "tick": 124560, "length": 240, "velocity": 104}, {"pitch": 31, "tick": 124560, "length": 240, "velocity": 104}, {"pitch": 48, "tick": 125040, "length": 240, "velocity": 104}, {"pitch": 36, "tick": 125040, "length": 240, "velocity": 104}, {"pitch": 48, "tick": 125520, "length": 240, "velocity": 104}, {"pitch": 36, "tick": 125520, "length": 240, "velocity": 104}, {"pitch": 48, "tick": 126000, "length": 240, "velocity": 104}, {"pitch": 36, "tick": 126000, "length": 240, "velocity": 104}, {"pitch": 48, "tick": 126480, "length": 240, "velocity": 104}, {"pitch": 36, "tick": 126480, "length": 240, "velocity": 104}, {"pitch": 48, "tick": 126960, "length": 240, "velocity": 104}, {"pitch": 36, "tick": 126960, "length": 240, "velocity": 104}, {"pitch": 48, "tick": 127440, "length": 240, "velocity": 104}, {"pitch": 36, "tick": 127440, "length": 240, "velocity": 104}, {"pitch": 48, "tick": 127920, "length": 240, "velocity": 104}, {"pitch": 36, "tick": 127920, "length": 240, "velocity": 104}, {"pitch": 48, "tick": 128400, "length": 240, "velocity": 104}, {"pitch": 36, "tick": 128400, "length": 240, "velocity": 104}, {"pitch": 41, "tick": 128880, "length": 240, "velocity": 104}, {"pitch": 29, "tick": 128880, "length": 240, "velocity": 104}, {"pitch": 41, "tick": 129360, "length": 240, "velocity": 104}, {"pitch": 29, "tick": 129360, "length": 240, "velocity": 104}, {"pitch": 41, "tick": 129840, "length": 240, "velocity": 104}, {"pitch": 29, "tick": 129840, "length": 240, "velocity": 104}, {"pitch": 41, "tick": 130320, "length": 240, "velocity": 104}, {"pitch": 29, "tick": 130320, "length": 240, "velocity": 104}, {"pitch": 43, "tick": 130800, "length": 240, "velocity": 104}, {"pitch": 31, "tick": 130800, "length": 240, "velocity": 104}, {"pitch": 43, "tick": 131280, "length": 240, "velocity": 104}, {"pitch": 31, "tick": 131280, "length": 240, "velocity": 104}, {"pitch": 43, "tick": 131760, "length": 240, "velocity": 104}, {"pitch": 31, "tick": 131760, "length": 240, "velocity": 104}, {"pitch": 43, "tick": 132240, "length": 240, "velocity": 104}, {"pitch": 31, "tick": 132240, "length": 240, "velocity": 104}, {"pitch": 44, "tick": 132720, "length": 240, "velocity": 104}, {"pitch": 32, "tick": 132720, "length": 240, "velocity": 104}, {"pitch": 44, "tick": 133200, "length": 240, "velocity": 104}, {"pitch": 32, "tick": 133200, "length": 240, "velocity": 104}, {"pitch": 44, "tick": 133680, "length": 240, "velocity": 104}, {"pitch": 32, "tick": 133680, "length": 240, "velocity": 104}, {"pitch": 44, "tick": 134160, "length": 240, "velocity": 104}, {"pitch": 32, "tick": 134160, "length": 240, "velocity": 104}, {"pitch": 44, "tick": 134640, "length": 240, "velocity": 104}, {"pitch": 32, "tick": 134640, "length": 240, "velocity": 104}, {"pitch": 44, "tick": 135120, "length": 240, "velocity": 104}, {"pitch": 32, "tick": 135120, "length": 240, "velocity": 104}, {"pitch": 44, "tick": 135600, "length": 240, "velocity": 104}, {"pitch": 32, "tick": 135600, "length": 240, "velocity": 104}, {"pitch": 44, "tick": 136080, "length": 240, "velocity": 104}, {"pitch": 32, "tick": 136080, "length": 240, "velocity": 104}, {"pitch": 41, "tick": 136560, "length": 240, "velocity": 104}, {"pitch": 29, "tick": 136560, "length": 240, "velocity": 104}, {"pitch": 41, "tick": 137040, "length": 240, "velocity": 104}, {"pitch": 29, "tick": 137040, "length": 240, "velocity": 104}, {"pitch": 41, "tick": 137520, "length": 240, "velocity": 104}, {"pitch": 29, "tick": 137520, "length": 240, "velocity": 104}, {"pitch": 41, "tick": 138000, "length": 240, "velocity": 104}, {"pitch": 29, "tick": 138000, "length": 240, "velocity": 104}, {"pitch": 43, "tick": 138480, "length": 240, "velocity": 104}, {"pitch": 31, "tick": 138480, "length": 240, "velocity": 104}, {"pitch": 43, "tick": 138960, "length": 240, "velocity": 104}, {"pitch": 31, "tick": 138960, "length": 240, "velocity": 104}, {"pitch": 43, "tick": 139440, "length": 240, "velocity": 104}, {"pitch": 31, "tick": 139440, "length": 240, "velocity": 104}, {"pitch": 43, "tick": 139920, "length": 240, "velocity": 104}, {"pitch": 31, "tick": 139920, "length": 240, "velocity": 104}, {"pitch": 48, "tick": 140400, "length": 240, "velocity": 104}, {"pitch": 36, "tick": 140400, "length": 240, "velocity": 104}, {"pitch": 48, "tick": 140880, "length": 240, "velocity": 104}, {"pitch": 36, "tick": 140880, "length": 240, "velocity": 104}, {"pitch": 48, "tick": 141360, "length": 240, "velocity": 104}, {"pitch": 36, "tick": 141360, "length": 240, "velocity": 104}, {"pitch": 48, "tick": 141840, "length": 240, "velocity": 104}, {"pitch": 36, "tick": 141840, "length": 240, "velocity": 104}, {"pitch": 48, "tick": 142320, "length": 240, "velocity": 104}, {"pitch": 36, "tick": 142320, "length": 240, "velocity": 104}, {"pitch": 48, "tick": 142800, "length": 240, "velocity": 104}, {"pitch": 36, "tick": 142800, "length": 240, "velocity": 104}, {"pitch": 48, "tick": 143280, "length": 240, "velocity": 104}, {"pitch": 36, "tick": 143280, "length": 240, "velocity": 104}, {"pitch": 48, "tick": 143760, "length": 240, "velocity": 104}, {"pitch": 36, "tick": 143760, "length": 240, "velocity": 104}, {"pitch": 41, "tick": 144240, "length": 240, "velocity": 104}, {"pitch": 29, "tick": 144240, "length": 240, "velocity": 104}, {"pitch": 41, "tick": 144720, "length": 240, "velocity": 104}, {"pitch": 29, "tick": 144720, "length": 240, "velocity": 104}, {"pitch": 41, "tick": 145200, "length": 240, "velocity": 104}, {"pitch": 29, "tick": 145200, "length": 240, "velocity": 104}, {"pitch": 41, "tick": 145680, "length": 240, "velocity": 104}, {"pitch": 29, "tick": 145680, "length": 240, "velocity": 104}, {"pitch": 43, "tick": 146160, "length": 240, "velocity": 104}, {"pitch": 31, "tick": 146160, "length": 240, "velocity": 104}, {"pitch": 43, "tick": 146640, "length": 240, "velocity": 104}, {"pitch": 31, "tick": 146640, "length": 240, "velocity": 104}, {"pitch": 43, "tick": 147120, "length": 240, "velocity": 104}, {"pitch": 31, "tick": 147120, "length": 240, "velocity": 104}, {"pitch": 43, "tick": 147600, "length": 240, "velocity": 104}, {"pitch": 31, "tick": 147600, "length": 240, "velocity": 104}, {"pitch": 44, "tick": 148080, "length": 240, "velocity": 104}, {"pitch": 32, "tick": 148080, "length": 240, "velocity": 104}, {"pitch": 44, "tick": 148560, "length": 240, "velocity": 104}, {"pitch": 32, "tick": 148560, "length": 240, "velocity": 104}, {"pitch": 44, "tick": 149040, "length": 240, "velocity": 104}, {"pitch": 32, "tick": 149040, "length": 240, "velocity": 104}, {"pitch": 44, "tick": 149520, "length": 240, "velocity": 104}, {"pitch": 32, "tick": 149520, "length": 240, "velocity": 104}, {"pitch": 44, "tick": 150000, "length": 240, "velocity": 104}, {"pitch": 32, "tick": 150000, "length": 240, "velocity": 104}, {"pitch": 44, "tick": 150480, "length": 240, "velocity": 104}, {"pitch": 32, "tick": 150480, "length": 240, "velocity": 104}, {"pitch": 44, "tick": 150960, "length": 240, "velocity": 104}, {"pitch": 32, "tick": 150960, "length": 240, "velocity": 104}, {"pitch": 44, "tick": 151440, "length": 240, "velocity": 104}, {"pitch": 32, "tick": 151440, "length": 240, "velocity": 104}, {"pitch": 41, "tick": 151920, "length": 240, "velocity": 104}, {"pitch": 29, "tick": 151920, "length": 240, "velocity": 104}, {"pitch": 41, "tick": 152400, "length": 240, "velocity": 104}, {"pitch": 29, "tick": 152400, "length": 240, "velocity": 104}, {"pitch": 41, "tick": 152880, "length": 240, "velocity": 104}, {"pitch": 29, "tick": 152880, "length": 240, "velocity": 104}, {"pitch": 41, "tick": 153360, "length": 240, "velocity": 104}, {"pitch": 29, "tick": 153360, "length": 240, "velocity": 104}, {"pitch": 43, "tick": 153840, "length": 240, "velocity": 104}, {"pitch": 31, "tick": 153840, "length": 240, "velocity": 104}, {"pitch": 43, "tick": 154320, "length": 240, "velocity": 104}, {"pitch": 31, "tick": 154320, "length": 240, "velocity": 104}, {"pitch": 43, "tick": 154800, "length": 240, "velocity": 104}, {"pitch": 31, "tick": 154800, "length": 240, "velocity": 104}, {"pitch": 43, "tick": 155280, "length": 240, "velocity": 104}, {"pitch": 31, "tick": 155280, "length": 240, "velocity": 104}, {"pitch": 41, "tick": 155760, "length": 240, "velocity": 104}, {"pitch": 29, "tick": 155760, "length": 240, "velocity": 104}, {"pitch": 41, "tick": 156240, "length": 240, "velocity": 104}, {"pitch": 29, "tick": 156240, "length": 240, "velocity": 104}, {"pitch": 41, "tick": 156720, "length": 240, "velocity": 104}, {"pitch": 29, "tick": 156720, "length": 240, "velocity": 104}, {"pitch": 41, "tick": 157200, "length": 240, "velocity": 104}, {"pitch": 29, "tick": 157200, "length": 240, "velocity": 104}, {"pitch": 43, "tick": 157680, "length": 240, "velocity": 104}, {"pitch": 31, "tick": 157680, "length": 240, "velocity": 104}, {"pitch": 43, "tick": 158160, "length": 240, "velocity": 104}, {"pitch": 31, "tick": 158160, "length": 240, "velocity": 104}, {"pitch": 43, "tick": 158640, "length": 240, "velocity": 104}, {"pitch": 31, "tick": 158640, "length": 240, "velocity": 104}, {"pitch": 43, "tick": 159120, "length": 240, "velocity": 104}, {"pitch": 31, "tick": 159120, "length": 240, "velocity": 104}, {"pitch": 48, "tick": 159600, "length": 240, "velocity": 104}, {"pitch": 36, "tick": 159600, "length": 240, "velocity": 104}, {"pitch": 48, "tick": 160080, "length": 240, "velocity": 104}, {"pitch": 36, "tick": 160080, "length": 240, "velocity": 104}, {"pitch": 48, "tick": 160560, "length": 240, "velocity": 104}, {"pitch": 36, "tick": 160560, "length": 240, "velocity": 104}, {"pitch": 48, "tick": 161040, "length": 240, "velocity": 104}, {"pitch": 36, "tick": 161040, "length": 240, "velocity": 104}, {"pitch": 51, "tick": 161520, "length": 240, "velocity": 104}, {"pitch": 39, "tick": 161520, "length": 240, "velocity": 104}, {"pitch": 51, "tick": 162000, "length": 240, "velocity": 104}, {"pitch": 39, "tick": 162000, "length": 240, "velocity": 104}, {"pitch": 51, "tick": 162480, "length": 240, "velocity": 104}, {"pitch": 39, "tick": 162480, "length": 240, "velocity": 104}, {"pitch": 51, "tick": 162960, "length": 240, "velocity": 104}, {"pitch": 39, "tick": 162960, "length": 240, "velocity": 104}, {"pitch": 44, "tick": 163440, "length": 240, "velocity": 104}, {"pitch": 32, "tick": 163440, "length": 240, "velocity": 104}, {"pitch": 44, "tick": 163920, "length": 240, "velocity": 104}, {"pitch": 32, "tick": 163920, "length": 240, "velocity": 104}, {"pitch": 44, "tick": 164400, "length": 240, "velocity": 104}, {"pitch": 32, "tick": 164400, "length": 240, "velocity": 104}, {"pitch": 44, "tick": 164880, "length": 240, "velocity": 104}, {"pitch": 32, "tick": 164880, "length": 240, "velocity": 104}, {"pitch": 43, "tick": 165360, "length": 240, "velocity": 104}, {"pitch": 31, "tick": 165360, "length": 240, "velocity": 104}, {"pitch": 43, "tick": 165840, "length": 240, "velocity": 104}, {"pitch": 31, "tick": 165840, "length": 240, "velocity": 104}, {"pitch": 43, "tick": 166320, "length": 240, "velocity": 104}, {"pitch": 31, "tick": 166320, "length": 240, "velocity": 104}, {"pitch": 43, "tick": 166800, "length": 240, "velocity": 104}, {"pitch": 31, "tick": 166800, "length": 240, "velocity": 104}, {"pitch": 48, "tick": 167280, "length": 240, "velocity": 104}, {"pitch": 36, "tick": 167280, "length": 240, "velocity": 104}, {"pitch": 48, "tick": 167760, "length": 240, "velocity": 104}, {"pitch": 36, "tick": 167760, "length": 240, "velocity": 104}, {"pitch": 48, "tick": 168240, "length": 240, "velocity": 104}, {"pitch": 36, "tick": 168240, "length": 240, "velocity": 104}, {"pitch": 48, "tick": 168720, "length": 240, "velocity": 104}, {"pitch": 36, "tick": 168720, "length": 240, "velocity": 104}, {"pitch": 48, "tick": 169200, "length": 240, "velocity": 104}, {"pitch": 36, "tick": 169200, "length": 240, "velocity": 104}, {"pitch": 48, "tick": 169680, "length": 240, "velocity": 104}, {"pitch": 36, "tick": 169680, "length": 240, "velocity": 104}, {"pitch": 48, "tick": 170160, "length": 240, "velocity": 104}, {"pitch": 36, "tick": 170160, "length": 240, "velocity": 104}, {"pitch": 48, "tick": 170640, "length": 240, "velocity": 104}, {"pitch": 36, "tick": 170640, "length": 240, "velocity": 104}, {"pitch": 50, "tick": 171120, "length": 240, "velocity": 104}, {"pitch": 38, "tick": 171120, "length": 240, "velocity": 104}, {"pitch": 50, "tick": 171600, "length": 240, "velocity": 104}, {"pitch": 38, "tick": 171600, "length": 240, "velocity": 104}, {"pitch": 50, "tick": 172080, "length": 240, "velocity": 104}, {"pitch": 38, "tick": 172080, "length": 240, "velocity": 104}, {"pitch": 50, "tick": 172560, "length": 240, "velocity": 104}, {"pitch": 38, "tick": 172560, "length": 240, "velocity": 104}, {"pitch": 43, "tick": 173040, "length": 240, "velocity": 104}, {"pitch": 31, "tick": 173040, "length": 240, "velocity": 104}, {"pitch": 43, "tick": 173520, "length": 240, "velocity": 104}, {"pitch": 31, "tick": 173520, "length": 240, "velocity": 104}, {"pitch": 43, "tick": 174000, "length": 240, "velocity": 104}, {"pitch": 31, "tick": 174000, "length": 240, "velocity": 104}, {"pitch": 43, "tick": 174480, "length": 240, "velocity": 104}, {"pitch": 31, "tick": 174480, "length": 240, "velocity": 104}, {"pitch": 48, "tick": 174960, "length": 240, "velocity": 104}, {"pitch": 36, "tick": 174960, "length": 240, "velocity": 104}, {"pitch": 48, "tick": 175440, "length": 240, "velocity": 104}, {"pitch": 36, "tick": 175440, "length": 240, "velocity": 104}, {"pitch": 48, "tick": 175920, "length": 240, "velocity": 104}, {"pitch": 36, "tick": 175920, "length": 240, "velocity": 104}, {"pitch": 48, "tick": 176400, "length": 240, "velocity": 104}, {"pitch": 36, "tick": 176400, "length": 240, "velocity": 104}, {"pitch": 39, "tick": 176880, "length": 240, "velocity": 104}, {"pitch": 51, "tick": 176880, "length": 240, "velocity": 104}, {"pitch": 39, "tick": 177360, "length": 240, "velocity": 104}, {"pitch": 51, "tick": 177360, "length": 240, "velocity": 104}, {"pitch": 39, "tick": 177840, "length": 240, "velocity": 104}, {"pitch": 51, "tick": 177840, "length": 240, "velocity": 104}, {"pitch": 39, "tick": 178320, "length": 240, "velocity": 104}, {"pitch": 51, "tick": 178320, "length": 240, "velocity": 104}, {"pitch": 44, "tick": 178800, "length": 240, "velocity": 104}, {"pitch": 32, "tick": 178800, "length": 240, "velocity": 104}, {"pitch": 44, "tick": 179280, "length": 240, "velocity": 104}, {"pitch": 32, "tick": 179280, "length": 240, "velocity": 104}, {"pitch": 44, "tick": 179760, "length": 240, "velocity": 104}, {"pitch": 32, "tick": 179760, "length": 240, "velocity": 104}, {"pitch": 44, "tick": 180240, "length": 240, "velocity": 104}, {"pitch": 32, "tick": 180240, "length": 240, "velocity": 104}, {"pitch": 43, "tick": 180720, "length": 240, "velocity": 104}, {"pitch": 31, "tick": 180720, "length": 240, "velocity": 104}, {"pitch": 43, "tick": 181200, "length": 240, "velocity": 104}, {"pitch": 31, "tick": 181200, "length": 240, "velocity": 104}, {"pitch": 43, "tick": 181680, "length": 240, "velocity": 104}, {"pitch": 31, "tick": 181680, "length": 240, "velocity": 104}, {"pitch": 43, "tick": 182160, "length": 240, "velocity": 104}, {"pitch": 31, "tick": 182160, "length": 240, "velocity": 104}, {"pitch": 48, "tick": 182640, "length": 240, "velocity": 104}, {"pitch": 36, "tick": 182640, "length": 240, "velocity": 104}, {"pitch": 48, "tick": 183120, "length": 240, "velocity": 104}, {"pitch": 36, "tick": 183120, "length": 240, "velocity": 104}, {"pitch": 48, "tick": 183600, "length": 240, "velocity": 104}, {"pitch": 36, "tick": 183600, "length": 240, "velocity": 104}, {"pitch": 48, "tick": 184080, "length": 240, "velocity": 104}, {"pitch": 36, "tick": 184080, "length": 240, "velocity": 104}, {"pitch": 48, "tick": 184560, "length": 240, "velocity": 104}, {"pitch": 36, "tick": 184560, "length": 240, "velocity": 104}, {"pitch": 48, "tick": 185040, "length": 240, "velocity": 104}, {"pitch": 36, "tick": 185040, "length": 240, "velocity": 104}, {"pitch": 48, "tick": 185520, "length": 240, "velocity": 104}, {"pitch": 36, "tick": 185520, "length": 240, "velocity": 104}, {"pitch": 48, "tick": 186000, "length": 240, "velocity": 104}, {"pitch": 36, "tick": 186000, "length": 240, "velocity": 104}, {"pitch": 41, "tick": 186480, "length": 240, "velocity": 104}, {"pitch": 29, "tick": 186480, "length": 240, "velocity": 104}, {"pitch": 41, "tick": 186960, "length": 240, "velocity": 104}, {"pitch": 29, "tick": 186960, "length": 240, "velocity": 104}, {"pitch": 41, "tick": 187440, "length": 240, "velocity": 104}, {"pitch": 29, "tick": 187440, "length": 240, "velocity": 104}, {"pitch": 41, "tick": 187920, "length": 240, "velocity": 104}, {"pitch": 29, "tick": 187920, "length": 240, "velocity": 104}, {"pitch": 43, "tick": 188400, "length": 240, "velocity": 104}, {"pitch": 31, "tick": 188400, "length": 240, "velocity": 104}, {"pitch": 43, "tick": 188880, "length": 240, "velocity": 104}, {"pitch": 31, "tick": 188880, "length": 240, "velocity": 104}, {"pitch": 43, "tick": 189360, "length": 240, "velocity": 104}, {"pitch": 31, "tick": 189360, "length": 240, "velocity": 104}, {"pitch": 43, "tick": 189840, "length": 240, "velocity": 104}, {"pitch": 31, "tick": 189840, "length": 240, "velocity": 104}, {"pitch": 48, "tick": 190320, "length": 240, "velocity": 104}, {"pitch": 36, "tick": 190320, "length": 240, "velocity": 104}, {"pitch": 48, "tick": 190800, "length": 240, "velocity": 104}, {"pitch": 36, "tick": 190800, "length": 240, "velocity": 104}, {"pitch": 48, "tick": 191280, "length": 240, "velocity": 104}, {"pitch": 36, "tick": 191280, "length": 240, "velocity": 104}, {"pitch": 48, "tick": 191760, "length": 240, "velocity": 104}, {"pitch": 36, "tick": 191760, "length": 240, "velocity": 104}, {"pitch": 51, "tick": 192240, "length": 240, "velocity": 104}, {"pitch": 39, "tick": 192240, "length": 240, "velocity": 104}, {"pitch": 51, "tick": 192720, "length": 240, "velocity": 104}, {"pitch": 39, "tick": 192720, "length": 240, "velocity": 104}, {"pitch": 51, "tick": 193200, "length": 240, "velocity": 104}, {"pitch": 39, "tick": 193200, "length": 240, "velocity": 104}, {"pitch": 51, "tick": 193680, "length": 240, "velocity": 104}, {"pitch": 39, "tick": 193680, "length": 240, "velocity": 104}, {"pitch": 44, "tick": 194160, "length": 240, "velocity": 104}, {"pitch": 32, "tick": 194160, "length": 240, "velocity": 104}, {"pitch": 44, "tick": 194640, "length": 240, "velocity": 104}, {"pitch": 32, "tick": 194640, "length": 240, "velocity": 104}, {"pitch": 44, "tick": 195120, "length": 240, "velocity": 104}, {"pitch": 32, "tick": 195120, "length": 240, "velocity": 104}, {"pitch": 44, "tick": 195600, "length": 240, "velocity": 104}, {"pitch": 32, "tick": 195600, "length": 240, "velocity": 104}, {"pitch": 43, "tick": 196080, "length": 240, "velocity": 104}, {"pitch": 31, "tick": 196080, "length": 240, "velocity": 104}, {"pitch": 43, "tick": 196560, "length": 240, "velocity": 104}, {"pitch": 31, "tick": 196560, "length": 240, "velocity": 104}, {"pitch": 43, "tick": 197040, "length": 240, "velocity": 104}, {"pitch": 31, "tick": 197040, "length": 240, "velocity": 104}, {"pitch": 43, "tick": 197520, "length": 240, "velocity": 104}, {"pitch": 31, "tick": 197520, "length": 240, "velocity": 104}, {"pitch": 48, "tick": 198000, "length": 240, "velocity": 104}, {"pitch": 36, "tick": 198000, "length": 240, "velocity": 104}, {"pitch": 48, "tick": 198480, "length": 240, "velocity": 104}, {"pitch": 36, "tick": 198480, "length": 240, "velocity": 104}, {"pitch": 48, "tick": 198960, "length": 240, "velocity": 104}, {"pitch": 36, "tick": 198960, "length": 240, "velocity": 104}, {"pitch": 48, "tick": 199440, "length": 240, "velocity": 104}, {"pitch": 36, "tick": 199440, "length": 240, "velocity": 104}, {"pitch": 48, "tick": 199920, "length": 240, "velocity": 104}, {"pitch": 36, "tick": 199920, "length": 240, "velocity": 104}, {"pitch": 48, "tick": 200400, "length": 240, "velocity": 104}, {"pitch": 36, "tick": 200400, "length": 240, "velocity": 104}, {"pitch": 48, "tick": 200880, "length": 240, "velocity": 104}, {"pitch": 36, "tick": 200880, "length": 240, "velocity": 104}, {"pitch": 48, "tick": 201360, "length": 240, "velocity": 104}, {"pitch": 36, "tick": 201360, "length": 240, "velocity": 104}, {"pitch": 50, "tick": 201840, "length": 240, "velocity": 104}, {"pitch": 38, "tick": 201840, "length": 240, "velocity": 104}, {"pitch": 50, "tick": 202320, "length": 240, "velocity": 104}, {"pitch": 38, "tick": 202320, "length": 240, "velocity": 104}, {"pitch": 50, "tick": 202800, "length": 240, "velocity": 104}, {"pitch": 38, "tick": 202800, "length": 240, "velocity": 104}, {"pitch": 50, "tick": 203280, "length": 240, "velocity": 104}, {"pitch": 38, "tick": 203280, "length": 240, "velocity": 104}, {"pitch": 43, "tick": 203760, "length": 240, "velocity": 104}, {"pitch": 31, "tick": 203760, "length": 240, "velocity": 104}, {"pitch": 43, "tick": 204240, "length": 240, "velocity": 104}, {"pitch": 31, "tick": 204240, "length": 240, "velocity": 104}, {"pitch": 43, "tick": 204720, "length": 240, "velocity": 104}, {"pitch": 31, "tick": 204720, "length": 240, "velocity": 104}, {"pitch": 43, "tick": 205200, "length": 240, "velocity": 104}, {"pitch": 31, "tick": 205200, "length": 240, "velocity": 104}, {"pitch": 48, "tick": 205680, "length": 240, "velocity": 104}, {"pitch": 36, "tick": 205680, "length": 240, "velocity": 104}, {"pitch": 48, "tick": 206160, "length": 240, "velocity": 104}, {"pitch": 36, "tick": 206160, "length": 240, "velocity": 104}, {"pitch": 48, "tick": 206640, "length": 240, "velocity": 104}, {"pitch": 36, "tick": 206640, "length": 240, "velocity": 104}, {"pitch": 48, "tick": 207120, "length": 240, "velocity": 104}, {"pitch": 36, "tick": 207120, "length": 240, "velocity": 104}, {"pitch": 39, "tick": 207600, "length": 240, "velocity": 104}, {"pitch": 51, "tick": 207600, "length": 240, "velocity": 104}, {"pitch": 39, "tick": 208080, "length": 240, "velocity": 104}, {"pitch": 51, "tick": 208080, "length": 240, "velocity": 104}, {"pitch": 39, "tick": 208560, "length": 240, "velocity": 104}, {"pitch": 51, "tick": 208560, "length": 240, "velocity": 104}, {"pitch": 39, "tick": 209040, "length": 240, "velocity": 104}, {"pitch": 51, "tick": 209040, "length": 240, "velocity": 104}, {"pitch": 44, "tick": 209520, "length": 240, "velocity": 104}, {"pitch": 32, "tick": 209520, "length": 240, "velocity": 104}, {"pitch": 44, "tick": 210000, "length": 240, "velocity": 104}, {"pitch": 32, "tick": 210000, "length": 240, "velocity": 104}, {"pitch": 44, "tick": 210480, "length": 240, "velocity": 104}, {"pitch": 32, "tick": 210480, "length": 240, "velocity": 104}, {"pitch": 44, "tick": 210960, "length": 240, "velocity": 104}, {"pitch": 32, "tick": 210960, "length": 240, "velocity": 104}, {"pitch": 43, "tick": 211440, "length": 240, "velocity": 104}, {"pitch": 31, "tick": 211440, "length": 240, "velocity": 104}, {"pitch": 43, "tick": 211920, "length": 240, "velocity": 104}, {"pitch": 31, "tick": 211920, "length": 240, "velocity": 104}, {"pitch": 43, "tick": 212400, "length": 240, "velocity": 104}, {"pitch": 31, "tick": 212400, "length": 240, "velocity": 104}, {"pitch": 43, "tick": 212880, "length": 240, "velocity": 104}, {"pitch": 31, "tick": 212880, "length": 240, "velocity": 104}, {"pitch": 48, "tick": 213360, "length": 240, "velocity": 104}, {"pitch": 36, "tick": 213360, "length": 240, "velocity": 104}, {"pitch": 48, "tick": 213840, "length": 240, "velocity": 104}, {"pitch": 36, "tick": 213840, "length": 240, "velocity": 104}, {"pitch": 48, "tick": 214320, "length": 240, "velocity": 104}, {"pitch": 36, "tick": 214320, "length": 240, "velocity": 104}, {"pitch": 48, "tick": 214800, "length": 240, "velocity": 104}, {"pitch": 36, "tick": 214800, "length": 240, "velocity": 104}, {"pitch": 48, "tick": 215280, "length": 240, "velocity": 104}, {"pitch": 36, "tick": 215280, "length": 240, "velocity": 104}, {"pitch": 48, "tick": 215760, "length": 240, "velocity": 104}, {"pitch": 36, "tick": 215760, "length": 240, "velocity": 104}, {"pitch": 48, "tick": 216240, "length": 240, "velocity": 104}, {"pitch": 36, "tick": 216240, "length": 240, "velocity": 104}, {"pitch": 41, "tick": 286320, "length": 240, "velocity": 104}, {"pitch": 29, "tick": 286320, "length": 240, "velocity": 104}, {"pitch": 41, "tick": 286800, "length": 240, "velocity": 104}, {"pitch": 29, "tick": 286800, "length": 240, "velocity": 104}, {"pitch": 41, "tick": 287280, "length": 240, "velocity": 104}, {"pitch": 29, "tick": 287280, "length": 240, "velocity": 104}, {"pitch": 41, "tick": 287760, "length": 240, "velocity": 104}, {"pitch": 29, "tick": 287760, "length": 240, "velocity": 104}, {"pitch": 43, "tick": 288240, "length": 240, "velocity": 104}, {"pitch": 31, "tick": 288240, "length": 240, "velocity": 104}, {"pitch": 43, "tick": 288720, "length": 240, "velocity": 104}, {"pitch": 31, "tick": 288720, "length": 240, "velocity": 104}, {"pitch": 43, "tick": 289200, "length": 240, "velocity": 104}, {"pitch": 31, "tick": 289200, "length": 240, "velocity": 104}, {"pitch": 43, "tick": 289680, "length": 240, "velocity": 104}, {"pitch": 31, "tick": 289680, "length": 240, "velocity": 104}, {"pitch": 48, "tick": 290160, "length": 240, "velocity": 104}, {"pitch": 36, "tick": 290160, "length": 240, "velocity": 104}, {"pitch": 48, "tick": 290640, "length": 240, "velocity": 104}, {"pitch": 36, "tick": 290640, "length": 240, "velocity": 104}, {"pitch": 48, "tick": 291120, "length": 240, "velocity": 104}, {"pitch": 36, "tick": 291120, "length": 240, "velocity": 104}, {"pitch": 48, "tick": 291600, "length": 240, "velocity": 104}, {"pitch": 36, "tick": 291600, "length": 240, "velocity": 104}, {"pitch": 51, "tick": 292080, "length": 240, "velocity": 104}, {"pitch": 39, "tick": 292080, "length": 240, "velocity": 104}, {"pitch": 51, "tick": 292560, "length": 240, "velocity": 104}, {"pitch": 39, "tick": 292560, "length": 240, "velocity": 104}, {"pitch": 51, "tick": 293040, "length": 240, "velocity": 104}, {"pitch": 39, "tick": 293040, "length": 240, "velocity": 104}, {"pitch": 51, "tick": 293520, "length": 240, "velocity": 104}, {"pitch": 39, "tick": 293520, "length": 240, "velocity": 104}, {"pitch": 44, "tick": 294000, "length": 240, "velocity": 104}, {"pitch": 32, "tick": 294000, "length": 240, "velocity": 104}, {"pitch": 44, "tick": 294480, "length": 240, "velocity": 104}, {"pitch": 32, "tick": 294480, "length": 240, "velocity": 104}, {"pitch": 44, "tick": 294960, "length": 240, "velocity": 104}, {"pitch": 32, "tick": 294960, "length": 240, "velocity": 104}, {"pitch": 44, "tick": 295440, "length": 240, "velocity": 104}, {"pitch": 32, "tick": 295440, "length": 240, "velocity": 104}, {"pitch": 43, "tick": 295920, "length": 240, "velocity": 104}, {"pitch": 31, "tick": 295920, "length": 240, "velocity": 104}, {"pitch": 43, "tick": 296400, "length": 240, "velocity": 104}, {"pitch": 31, "tick": 296400, "length": 240, "velocity": 104}, {"pitch": 43, "tick": 296880, "length": 240, "velocity": 104}, {"pitch": 31, "tick": 296880, "length": 240, "velocity": 104}, {"pitch": 43, "tick": 297360, "length": 240, "velocity": 104}, {"pitch": 31, "tick": 297360, "length": 240, "velocity": 104}, {"pitch": 48, "tick": 297840, "length": 240, "velocity": 104}, {"pitch": 36, "tick": 297840, "length": 240, "velocity": 104}, {"pitch": 48, "tick": 298320, "length": 240, "velocity": 104}, {"pitch": 36, "tick": 298320, "length": 240, "velocity": 104}, {"pitch": 48, "tick": 298800, "length": 240, "velocity": 104}, {"pitch": 36, "tick": 298800, "length": 240, "velocity": 104}, {"pitch": 48, "tick": 299280, "length": 240, "velocity": 104}, {"pitch": 36, "tick": 299280, "length": 240, "velocity": 104}, {"pitch": 48, "tick": 299760, "length": 240, "velocity": 104}, {"pitch": 36, "tick": 299760, "length": 240, "velocity": 104}, {"pitch": 48, "tick": 300240, "length": 240, "velocity": 104}, {"pitch": 36, "tick": 300240, "length": 240, "velocity": 104}, {"pitch": 48, "tick": 300720, "length": 240, "velocity": 104}, {"pitch": 36, "tick": 300720, "length": 240, "velocity": 104}, {"pitch": 48, "tick": 301200, "length": 240, "velocity": 104}, {"pitch": 36, "tick": 301200, "length": 240, "velocity": 104}, {"pitch": 50, "tick": 301680, "length": 240, "velocity": 104}, {"pitch": 38, "tick": 301680, "length": 240, "velocity": 104}, {"pitch": 50, "tick": 302160, "length": 240, "velocity": 104}, {"pitch": 38, "tick": 302160, "length": 240, "velocity": 104}, {"pitch": 50, "tick": 302640, "length": 240, "velocity": 104}, {"pitch": 38, "tick": 302640, "length": 240, "velocity": 104}, {"pitch": 50, "tick": 303120, "length": 240, "velocity": 104}, {"pitch": 38, "tick": 303120, "length": 240, "velocity": 104}, {"pitch": 43, "tick": 303600, "length": 240, "velocity": 104}, {"pitch": 31, "tick": 303600, "length": 240, "velocity": 104}, {"pitch": 43, "tick": 304080, "length": 240, "velocity": 104}, {"pitch": 31, "tick": 304080, "length": 240, "velocity": 104}, {"pitch": 43, "tick": 304560, "length": 240, "velocity": 104}, {"pitch": 31, "tick": 304560, "length": 240, "velocity": 104}, {"pitch": 43, "tick": 305040, "length": 240, "velocity": 104}, {"pitch": 31, "tick": 305040, "length": 240, "velocity": 104}, {"pitch": 48, "tick": 305520, "length": 240, "velocity": 104}, {"pitch": 36, "tick": 305520, "length": 240, "velocity": 104}, {"pitch": 48, "tick": 306000, "length": 240, "velocity": 104}, {"pitch": 36, "tick": 306000, "length": 240, "velocity": 104}, {"pitch": 48, "tick": 306480, "length": 240, "velocity": 104}, {"pitch": 36, "tick": 306480, "length": 240, "velocity": 104}, {"pitch": 48, "tick": 306960, "length": 240, "velocity": 104}, {"pitch": 36, "tick": 306960, "length": 240, "velocity": 104}, {"pitch": 39, "tick": 307440, "length": 240, "velocity": 104}, {"pitch": 51, "tick": 307440, "length": 240, "velocity": 104}, {"pitch": 39, "tick": 307920, "length": 240, "velocity": 104}, {"pitch": 51, "tick": 307920, "length": 240, "velocity": 104}, {"pitch": 39, "tick": 308400, "length": 240, "velocity": 104}, {"pitch": 51, "tick": 308400, "length": 240, "velocity": 104}, {"pitch": 39, "tick": 308880, "length": 240, "velocity": 104}, {"pitch": 51, "tick": 308880, "length": 240, "velocity": 104}, {"pitch": 44, "tick": 309360, "length": 240, "velocity": 104}, {"pitch": 32, "tick": 309360, "length": 240, "velocity": 104}, {"pitch": 44, "tick": 309840, "length": 240, "velocity": 104}, {"pitch": 32, "tick": 309840, "length": 240, "velocity": 104}, {"pitch": 44, "tick": 310320, "length": 240, "velocity": 104}, {"pitch": 32, "tick": 310320, "length": 240, "velocity": 104}, {"pitch": 44, "tick": 310800, "length": 240, "velocity": 104}, {"pitch": 32, "tick": 310800, "length": 240, "velocity": 104}, {"pitch": 43, "tick": 311280, "length": 240, "velocity": 104}, {"pitch": 31, "tick": 311280, "length": 240, "velocity": 104}, {"pitch": 43, "tick": 311760, "length": 240, "velocity": 104}, {"pitch": 31, "tick": 311760, "length": 240, "velocity": 104}, {"pitch": 43, "tick": 312240, "length": 240, "velocity": 104}, {"pitch": 31, "tick": 312240, "length": 240, "velocity": 104}, {"pitch": 43, "tick": 312720, "length": 240, "velocity": 104}, {"pitch": 31, "tick": 312720, "length": 240, "velocity": 104}, {"pitch": 48, "tick": 313200, "length": 240, "velocity": 104}, {"pitch": 36, "tick": 313200, "length": 240, "velocity": 104}, {"pitch": 48, "tick": 313680, "length": 240, "velocity": 104}, {"pitch": 36, "tick": 313680, "length": 240, "velocity": 104}, {"pitch": 48, "tick": 314160, "length": 240, "velocity": 104}, {"pitch": 36, "tick": 314160, "length": 240, "velocity": 104}, {"pitch": 48, "tick": 314640, "length": 240, "velocity": 104}, {"pitch": 36, "tick": 314640, "length": 240, "velocity": 104}, {"pitch": 48, "tick": 315120, "length": 240, "velocity": 104}, {"pitch": 36, "tick": 315120, "length": 240, "velocity": 104}, {"pitch": 48, "tick": 315600, "length": 240, "velocity": 104}, {"pitch": 36, "tick": 315600, "length": 240, "velocity": 104}, {"pitch": 48, "tick": 316080, "length": 240, "velocity": 104}, {"pitch": 36, "tick": 316080, "length": 240, "velocity": 104}, {"pitch": 48, "tick": 316560, "length": 240, "velocity": 104}, {"pitch": 36, "tick": 316560, "length": 240, "velocity": 104}, {"pitch": 41, "tick": 317040, "length": 240, "velocity": 104}, {"pitch": 29, "tick": 317040, "length": 240, "velocity": 104}, {"pitch": 41, "tick": 317520, "length": 240, "velocity": 104}, {"pitch": 29, "tick": 317520, "length": 240, "velocity": 104}, {"pitch": 41, "tick": 318000, "length": 240, "velocity": 104}, {"pitch": 29, "tick": 318000, "length": 240, "velocity": 104}, {"pitch": 41, "tick": 318480, "length": 240, "velocity": 104}, {"pitch": 29, "tick": 318480, "length": 240, "velocity": 104}, {"pitch": 43, "tick": 318960, "length": 240, "velocity": 104}, {"pitch": 31, "tick": 318960, "length": 240, "velocity": 104}, {"pitch": 43, "tick": 319440, "length": 240, "velocity": 104}, {"pitch": 31, "tick": 319440, "length": 240, "velocity": 104}, {"pitch": 43, "tick": 319920, "length": 240, "velocity": 104}, {"pitch": 31, "tick": 319920, "length": 240, "velocity": 104}, {"pitch": 43, "tick": 320400, "length": 240, "velocity": 104}, {"pitch": 31, "tick": 320400, "length": 240, "velocity": 104}, {"pitch": 48, "tick": 320880, "length": 240, "velocity": 104}, {"pitch": 36, "tick": 320880, "length": 240, "velocity": 104}, {"pitch": 48, "tick": 321360, "length": 240, "velocity": 104}, {"pitch": 36, "tick": 321360, "length": 240, "velocity": 104}, {"pitch": 48, "tick": 321840, "length": 240, "velocity": 104}, {"pitch": 36, "tick": 321840, "length": 240, "velocity": 104}, {"pitch": 48, "tick": 322320, "length": 240, "velocity": 104}, {"pitch": 36, "tick": 322320, "length": 240, "velocity": 104}, {"pitch": 51, "tick": 322800, "length": 240, "velocity": 104}, {"pitch": 39, "tick": 322800, "length": 240, "velocity": 104}, {"pitch": 51, "tick": 323280, "length": 240, "velocity": 104}, {"pitch": 39, "tick": 323280, "length": 240, "velocity": 104}, {"pitch": 51, "tick": 323760, "length": 240, "velocity": 104}, {"pitch": 39, "tick": 323760, "length": 240, "velocity": 104}, {"pitch": 51, "tick": 324240, "length": 240, "velocity": 104}, {"pitch": 39, "tick": 324240, "length": 240, "velocity": 104}, {"pitch": 44, "tick": 324720, "length": 240, "velocity": 104}, {"pitch": 32, "tick": 324720, "length": 240, "velocity": 104}, {"pitch": 44, "tick": 325200, "length": 240, "velocity": 104}, {"pitch": 32, "tick": 325200, "length": 240, "velocity": 104}, {"pitch": 44, "tick": 325680, "length": 240, "velocity": 104}, {"pitch": 32, "tick": 325680, "length": 240, "velocity": 104}, {"pitch": 44, "tick": 326160, "length": 240, "velocity": 104}, {"pitch": 32, "tick": 326160, "length": 240, "velocity": 104}, {"pitch": 43, "tick": 326640, "length": 240, "velocity": 104}, {"pitch": 31, "tick": 326640, "length": 240, "velocity": 104}, {"pitch": 43, "tick": 327120, "length": 240, "velocity": 104}, {"pitch": 31, "tick": 327120, "length": 240, "velocity": 104}, {"pitch": 43, "tick": 327600, "length": 240, "velocity": 104}, {"pitch": 31, "tick": 327600, "length": 240, "velocity": 104}, {"pitch": 43, "tick": 328080, "length": 240, "velocity": 104}, {"pitch": 31, "tick": 328080, "length": 240, "velocity": 104}, {"pitch": 48, "tick": 328560, "length": 240, "velocity": 104}, {"pitch": 36, "tick": 328560, "length": 240, "velocity": 104}, {"pitch": 48, "tick": 329040, "length": 240, "velocity": 104}, {"pitch": 36, "tick": 329040, "length": 240, "velocity": 104}, {"pitch": 48, "tick": 329520, "length": 240, "velocity": 104}, {"pitch": 36, "tick": 329520, "length": 240, "velocity": 104}, {"pitch": 48, "tick": 330000, "length": 240, "velocity": 104}, {"pitch": 36, "tick": 330000, "length": 240, "velocity": 104}, {"pitch": 48, "tick": 330480, "length": 240, "velocity": 104}, {"pitch": 36, "tick": 330480, "length": 240, "velocity": 104}, {"pitch": 48, "tick": 330960, "length": 240, "velocity": 104}, {"pitch": 36, "tick": 330960, "length": 240, "velocity": 104}, {"pitch": 48, "tick": 331440, "length": 240, "velocity": 104}, {"pitch": 36, "tick": 331440, "length": 240, "velocity": 104}, {"pitch": 48, "tick": 331920, "length": 240, "velocity": 104}, {"pitch": 36, "tick": 331920, "length": 240, "velocity": 104}, {"pitch": 50, "tick": 332400, "length": 240, "velocity": 104}, {"pitch": 38, "tick": 332400, "length": 240, "velocity": 104}, {"pitch": 50, "tick": 332880, "length": 240, "velocity": 104}, {"pitch": 38, "tick": 332880, "length": 240, "velocity": 104}, {"pitch": 50, "tick": 333360, "length": 240, "velocity": 104}, {"pitch": 38, "tick": 333360, "length": 240, "velocity": 104}, {"pitch": 50, "tick": 333840, "length": 240, "velocity": 104}, {"pitch": 38, "tick": 333840, "length": 240, "velocity": 104}, {"pitch": 43, "tick": 334320, "length": 240, "velocity": 104}, {"pitch": 31, "tick": 334320, "length": 240, "velocity": 104}, {"pitch": 43, "tick": 334800, "length": 240, "velocity": 104}, {"pitch": 31, "tick": 334800, "length": 240, "velocity": 104}, {"pitch": 43, "tick": 335280, "length": 240, "velocity": 104}, {"pitch": 31, "tick": 335280, "length": 240, "velocity": 104}, {"pitch": 43, "tick": 335760, "length": 240, "velocity": 104}, {"pitch": 31, "tick": 335760, "length": 240, "velocity": 104}, {"pitch": 48, "tick": 336240, "length": 240, "velocity": 104}, {"pitch": 36, "tick": 336240, "length": 240, "velocity": 104}, {"pitch": 48, "tick": 336720, "length": 240, "velocity": 104}, {"pitch": 36, "tick": 336720, "length": 240, "velocity": 104}, {"pitch": 48, "tick": 337200, "length": 240, "velocity": 104}, {"pitch": 36, "tick": 337200, "length": 240, "velocity": 104}, {"pitch": 48, "tick": 337680, "length": 240, "velocity": 104}, {"pitch": 36, "tick": 337680, "length": 240, "velocity": 104}, {"pitch": 39, "tick": 338160, "length": 240, "velocity": 104}, {"pitch": 51, "tick": 338160, "length": 240, "velocity": 104}, {"pitch": 39, "tick": 338640, "length": 240, "velocity": 104}, {"pitch": 51, "tick": 338640, "length": 240, "velocity": 104}, {"pitch": 39, "tick": 339120, "length": 240, "velocity": 104}, {"pitch": 51, "tick": 339120, "length": 240, "velocity": 104}, {"pitch": 39, "tick": 339600, "length": 240, "velocity": 104}, {"pitch": 51, "tick": 339600, "length": 240, "velocity": 104}, {"pitch": 44, "tick": 340080, "length": 240, "velocity": 104}, {"pitch": 32, "tick": 340080, "length": 240, "velocity": 104}, {"pitch": 44, "tick": 340560, "length": 240, "velocity": 104}, {"pitch": 32, "tick": 340560, "length": 240, "velocity": 104}, {"pitch": 44, "tick": 341040, "length": 240, "velocity": 104}, {"pitch": 32, "tick": 341040, "length": 240, "velocity": 104}, {"pitch": 44, "tick": 341520, "length": 240, "velocity": 104}, {"pitch": 32, "tick": 341520, "length": 240, "velocity": 104}, {"pitch": 43, "tick": 342000, "length": 240, "velocity": 104}, {"pitch": 31, "tick": 342000, "length": 240, "velocity": 104}, {"pitch": 43, "tick": 342480, "length": 240, "velocity": 104}, {"pitch": 31, "tick": 342480, "length": 240, "velocity": 104}, {"pitch": 43, "tick": 342960, "length": 240, "velocity": 104}, {"pitch": 31, "tick": 342960, "length": 240, "velocity": 104}, {"pitch": 43, "tick": 343440, "length": 240, "velocity": 104}, {"pitch": 31, "tick": 343440, "length": 240, "velocity": 104}, {"pitch": 48, "tick": 343920, "length": 240, "velocity": 104}, {"pitch": 36, "tick": 343920, "length": 240, "velocity": 104}, {"pitch": 48, "tick": 344400, "length": 240, "velocity": 104}, {"pitch": 36, "tick": 344400, "length": 240, "velocity": 104}, {"pitch": 48, "tick": 344880, "length": 240, "velocity": 104}, {"pitch": 36, "tick": 344880, "length": 240, "velocity": 104}, {"pitch": 48, "tick": 345360, "length": 240, "velocity": 104}, {"pitch": 36, "tick": 345360, "length": 240, "velocity": 104}, {"pitch": 48, "tick": 345840, "length": 240, "velocity": 104}, {"pitch": 36, "tick": 345840, "length": 240, "velocity": 104}, {"pitch": 48, "tick": 346320, "length": 240, "velocity": 104}, {"pitch": 36, "tick": 346320, "length": 240, "velocity": 104}, {"pitch": 48, "tick": 346800, "length": 240, "velocity": 104}, {"pitch": 36, "tick": 346800, "length": 240, "velocity": 104}, {"pitch": 48, "tick": 347280, "length": 240, "velocity": 104}, {"pitch": 36, "tick": 347280, "length": 240, "velocity": 104}, {"pitch": 41, "tick": 347760, "length": 240, "velocity": 104}, {"pitch": 29, "tick": 347760, "length": 240, "velocity": 104}, {"pitch": 41, "tick": 348240, "length": 240, "velocity": 104}, {"pitch": 29, "tick": 348240, "length": 240, "velocity": 104}, {"pitch": 41, "tick": 348720, "length": 240, "velocity": 104}, {"pitch": 29, "tick": 348720, "length": 240, "velocity": 104}, {"pitch": 41, "tick": 349200, "length": 240, "velocity": 104}, {"pitch": 29, "tick": 349200, "length": 240, "velocity": 104}, {"pitch": 43, "tick": 349680, "length": 240, "velocity": 104}, {"pitch": 31, "tick": 349680, "length": 240, "velocity": 104}, {"pitch": 43, "tick": 350160, "length": 240, "velocity": 104}, {"pitch": 31, "tick": 350160, "length": 240, "velocity": 104}, {"pitch": 43, "tick": 350640, "length": 240, "velocity": 104}, {"pitch": 31, "tick": 350640, "length": 240, "velocity": 104}, {"pitch": 43, "tick": 351120, "length": 240, "velocity": 104}, {"pitch": 31, "tick": 351120, "length": 240, "velocity": 104}, {"pitch": 48, "tick": 351600, "length": 240, "velocity": 104}, {"pitch": 36, "tick": 351600, "length": 240, "velocity": 104}, {"pitch": 48, "tick": 352080, "length": 240, "velocity": 104}, {"pitch": 36, "tick": 352080, "length": 240, "velocity": 104}, {"pitch": 48, "tick": 352560, "length": 240, "velocity": 104}, {"pitch": 36, "tick": 352560, "length": 240, "velocity": 104}, {"pitch": 48, "tick": 353040, "length": 240, "velocity": 104}, {"pitch": 36, "tick": 353040, "length": 240, "velocity": 104}, {"pitch": 51, "tick": 353520, "length": 240, "velocity": 104}, {"pitch": 39, "tick": 353520, "length": 240, "velocity": 104}, {"pitch": 51, "tick": 354000, "length": 240, "velocity": 104}, {"pitch": 39, "tick": 354000, "length": 240, "velocity": 104}, {"pitch": 51, "tick": 354480, "length": 240, "velocity": 104}, {"pitch": 39, "tick": 354480, "length": 240, "velocity": 104}, {"pitch": 51, "tick": 354960, "length": 240, "velocity": 104}, {"pitch": 39, "tick": 354960, "length": 240, "velocity": 104}, {"pitch": 44, "tick": 355440, "length": 240, "velocity": 104}, {"pitch": 32, "tick": 355440, "length": 240, "velocity": 104}, {"pitch": 44, "tick": 355920, "length": 240, "velocity": 104}, {"pitch": 32, "tick": 355920, "length": 240, "velocity": 104}, {"pitch": 44, "tick": 356400, "length": 240, "velocity": 104}, {"pitch": 32, "tick": 356400, "length": 240, "velocity": 104}, {"pitch": 44, "tick": 356880, "length": 240, "velocity": 104}, {"pitch": 32, "tick": 356880, "length": 240, "velocity": 104}, {"pitch": 43, "tick": 357360, "length": 240, "velocity": 104}, {"pitch": 31, "tick": 357360, "length": 240, "velocity": 104}, {"pitch": 43, "tick": 357840, "length": 240, "velocity": 104}, {"pitch": 31, "tick": 357840, "length": 240, "velocity": 104}, {"pitch": 43, "tick": 358320, "length": 240, "velocity": 104}, {"pitch": 31, "tick": 358320, "length": 240, "velocity": 104}, {"pitch": 43, "tick": 358800, "length": 240, "velocity": 104}, {"pitch": 31, "tick": 358800, "length": 240, "velocity": 104}, {"pitch": 48, "tick": 359280, "length": 240, "velocity": 104}, {"pitch": 36, "tick": 359280, "length": 240, "velocity": 104}, {"pitch": 48, "tick": 359760, "length": 240, "velocity": 104}, {"pitch": 36, "tick": 359760, "length": 240, "velocity": 104}, {"pitch": 48, "tick": 360240, "length": 240, "velocity": 104}, {"pitch": 36, "tick": 360240, "length": 240, "velocity": 104}, {"pitch": 48, "tick": 360720, "length": 240, "velocity": 104}, {"pitch": 36, "tick": 360720, "length": 240, "velocity": 104}, {"pitch": 48, "tick": 361200, "length": 240, "velocity": 104}, {"pitch": 36, "tick": 361200, "length": 240, "velocity": 104}, {"pitch": 48, "tick": 361680, "length": 240, "velocity": 104}, {"pitch": 36, "tick": 361680, "length": 240, "velocity": 104}, {"pitch": 48, "tick": 362160, "length": 240, "velocity": 104}, {"pitch": 36, "tick": 362160, "length": 240, "velocity": 104}, {"pitch": 48, "tick": 362640, "length": 240, "velocity": 104}, {"pitch": 36, "tick": 362640, "length": 240, "velocity": 104}, {"pitch": 50, "tick": 363120, "length": 240, "velocity": 104}, {"pitch": 38, "tick": 363120, "length": 240, "velocity": 104}, {"pitch": 50, "tick": 363600, "length": 240, "velocity": 104}, {"pitch": 38, "tick": 363600, "length": 240, "velocity": 104}, {"pitch": 50, "tick": 364080, "length": 240, "velocity": 104}, {"pitch": 38, "tick": 364080, "length": 240, "velocity": 104}, {"pitch": 50, "tick": 364560, "length": 240, "velocity": 104}, {"pitch": 38, "tick": 364560, "length": 240, "velocity": 104}, {"pitch": 43, "tick": 365040, "length": 240, "velocity": 104}, {"pitch": 31, "tick": 365040, "length": 240, "velocity": 104}, {"pitch": 43, "tick": 365520, "length": 240, "velocity": 104}, {"pitch": 31, "tick": 365520, "length": 240, "velocity": 104}, {"pitch": 43, "tick": 366000, "length": 240, "velocity": 104}, {"pitch": 31, "tick": 366000, "length": 240, "velocity": 104}, {"pitch": 43, "tick": 366480, "length": 240, "velocity": 104}, {"pitch": 31, "tick": 366480, "length": 240, "velocity": 104}, {"pitch": 48, "tick": 366960, "length": 240, "velocity": 104}, {"pitch": 36, "tick": 366960, "length": 240, "velocity": 104}, {"pitch": 48, "tick": 367440, "length": 240, "velocity": 104}, {"pitch": 36, "tick": 367440, "length": 240, "velocity": 104}, {"pitch": 48, "tick": 367920, "length": 240, "velocity": 104}, {"pitch": 36, "tick": 367920, "length": 240, "velocity": 104}, {"pitch": 48, "tick": 368400, "length": 240, "velocity": 104}, {"pitch": 36, "tick": 368400, "length": 240, "velocity": 104}, {"pitch": 39, "tick": 368880, "length": 240, "velocity": 104}, {"pitch": 51, "tick": 368880, "length": 240, "velocity": 104}, {"pitch": 39, "tick": 369360, "length": 240, "velocity": 104}, {"pitch": 51, "tick": 369360, "length": 240, "velocity": 104}, {"pitch": 39, "tick": 369840, "length": 240, "velocity": 104}, {"pitch": 51, "tick": 369840, "length": 240, "velocity": 104}, {"pitch": 39, "tick": 370320, "length": 240, "velocity": 104}, {"pitch": 51, "tick": 370320, "length": 240, "velocity": 104}, {"pitch": 44, "tick": 370800, "length": 240, "velocity": 104}, {"pitch": 32, "tick": 370800, "length": 240, "velocity": 104}, {"pitch": 44, "tick": 371280, "length": 240, "velocity": 104}, {"pitch": 32, "tick": 371280, "length": 240, "velocity": 104}, {"pitch": 44, "tick": 371760, "length": 240, "velocity": 104}, {"pitch": 32, "tick": 371760, "length": 240, "velocity": 104}, {"pitch": 44, "tick": 372240, "length": 240, "velocity": 104}, {"pitch": 32, "tick": 372240, "length": 240, "velocity": 104}, {"pitch": 43, "tick": 372720, "length": 240, "velocity": 104}, {"pitch": 31, "tick": 372720, "length": 240, "velocity": 104}, {"pitch": 43, "tick": 373200, "length": 240, "velocity": 104}, {"pitch": 31, "tick": 373200, "length": 240, "velocity": 104}, {"pitch": 43, "tick": 373680, "length": 240, "velocity": 104}, {"pitch": 31, "tick": 373680, "length": 240, "velocity": 104}, {"pitch": 43, "tick": 374160, "length": 240, "velocity": 104}, {"pitch": 31, "tick": 374160, "length": 240, "velocity": 104}, {"pitch": 48, "tick": 374640, "length": 240, "velocity": 104}, {"pitch": 36, "tick": 374640, "length": 240, "velocity": 104}, {"pitch": 48, "tick": 375120, "length": 240, "velocity": 104}, {"pitch": 36, "tick": 375120, "length": 240, "velocity": 104}, {"pitch": 48, "tick": 375600, "length": 240, "velocity": 104}, {"pitch": 36, "tick": 375600, "length": 240, "velocity": 104}, {"pitch": 48, "tick": 376080, "length": 240, "velocity": 104}, {"pitch": 36, "tick": 376080, "length": 240, "velocity": 104}, {"pitch": 48, "tick": 376560, "length": 240, "velocity": 104}, {"pitch": 36, "tick": 376560, "length": 240, "velocity": 104}, {"pitch": 48, "tick": 377040, "length": 240, "velocity": 104}, {"pitch": 36, "tick": 377040, "length": 240, "velocity": 104}, {"pitch": 48, "tick": 377520, "length": 240, "velocity": 104}, {"pitch": 36, "tick": 377520, "length": 240, "velocity": 104}, {"pitch": 48, "tick": 378000, "length": 240, "velocity": 104}, {"pitch": 36, "tick": 378000, "length": 240, "velocity": 104}, {"pitch": 41, "tick": 378480, "length": 240, "velocity": 104}, {"pitch": 29, "tick": 378480, "length": 240, "velocity": 104}, {"pitch": 41, "tick": 378960, "length": 240, "velocity": 104}, {"pitch": 29, "tick": 378960, "length": 240, "velocity": 104}, {"pitch": 41, "tick": 379440, "length": 240, "velocity": 104}, {"pitch": 29, "tick": 379440, "length": 240, "velocity": 104}, {"pitch": 41, "tick": 379920, "length": 240, "velocity": 104}, {"pitch": 29, "tick": 379920, "length": 240, "velocity": 104}, {"pitch": 43, "tick": 380400, "length": 240, "velocity": 104}, {"pitch": 31, "tick": 380400, "length": 240, "velocity": 104}, {"pitch": 43, "tick": 380880, "length": 240, "velocity": 104}, {"pitch": 31, "tick": 380880, "length": 240, "velocity": 104}, {"pitch": 43, "tick": 381360, "length": 240, "velocity": 104}, {"pitch": 31, "tick": 381360, "length": 240, "velocity": 104}, {"pitch": 43, "tick": 381840, "length": 240, "velocity": 104}, {"pitch": 31, "tick": 381840, "length": 240, "velocity": 104}, {"pitch": 48, "tick": 382320, "length": 240, "velocity": 104}, {"pitch": 36, "tick": 382320, "length": 240, "velocity": 104}, {"pitch": 48, "tick": 382800, "length": 240, "velocity": 104}, {"pitch": 36, "tick": 382800, "length": 240, "velocity": 104}, {"pitch": 48, "tick": 383280, "length": 240, "velocity": 104}, {"pitch": 36, "tick": 383280, "length": 240, "velocity": 104}, {"pitch": 48, "tick": 383760, "length": 240, "velocity": 104}, {"pitch": 36, "tick": 383760, "length": 240, "velocity": 104}, {"pitch": 51, "tick": 384240, "length": 240, "velocity": 104}, {"pitch": 39, "tick": 384240, "length": 240, "velocity": 104}, {"pitch": 51, "tick": 384720, "length": 240, "velocity": 104}, {"pitch": 39, "tick": 384720, "length": 240, "velocity": 104}, {"pitch": 51, "tick": 385200, "length": 240, "velocity": 104}, {"pitch": 39, "tick": 385200, "length": 240, "velocity": 104}, {"pitch": 51, "tick": 385680, "length": 240, "velocity": 104}, {"pitch": 39, "tick": 385680, "length": 240, "velocity": 104}, {"pitch": 44, "tick": 386160, "length": 240, "velocity": 104}, {"pitch": 32, "tick": 386160, "length": 240, "velocity": 104}, {"pitch": 44, "tick": 386640, "length": 240, "velocity": 104}, {"pitch": 32, "tick": 386640, "length": 240, "velocity": 104}, {"pitch": 44, "tick": 387120, "length": 240, "velocity": 104}, {"pitch": 32, "tick": 387120, "length": 240, "velocity": 104}, {"pitch": 44, "tick": 387600, "length": 240, "velocity": 104}, {"pitch": 32, "tick": 387600, "length": 240, "velocity": 104}, {"pitch": 43, "tick": 388080, "length": 240, "velocity": 104}, {"pitch": 31, "tick": 388080, "length": 240, "velocity": 104}, {"pitch": 43, "tick": 388560, "length": 240, "velocity": 104}, {"pitch": 31, "tick": 388560, "length": 240, "velocity": 104}, {"pitch": 43, "tick": 389040, "length": 240, "velocity": 104}, {"pitch": 31, "tick": 389040, "length": 240, "velocity": 104}, {"pitch": 43, "tick": 389520, "length": 240, "velocity": 104}, {"pitch": 31, "tick": 389520, "length": 240, "velocity": 104}, {"pitch": 48, "tick": 390000, "length": 240, "velocity": 104}, {"pitch": 36, "tick": 390000, "length": 240, "velocity": 104}, {"pitch": 48, "tick": 390480, "length": 240, "velocity": 104}, {"pitch": 36, "tick": 390480, "length": 240, "velocity": 104}, {"pitch": 48, "tick": 390960, "length": 240, "velocity": 104}, {"pitch": 36, "tick": 390960, "length": 240, "velocity": 104}, {"pitch": 48, "tick": 391440, "length": 240, "velocity": 104}, {"pitch": 36, "tick": 391440, "length": 240, "velocity": 104}, {"pitch": 48, "tick": 391920, "length": 240, "velocity": 104}, {"pitch": 36, "tick": 391920, "length": 240, "velocity": 104}, {"pitch": 48, "tick": 392400, "length": 240, "velocity": 104}, {"pitch": 36, "tick": 392400, "length": 240, "velocity": 104}, {"pitch": 48, "tick": 392880, "length": 240, "velocity": 104}, {"pitch": 36, "tick": 392880, "length": 240, "velocity": 104}, {"pitch": 48, "tick": 393360, "length": 240, "velocity": 104}, {"pitch": 36, "tick": 393360, "length": 240, "velocity": 104}, {"pitch": 50, "tick": 393840, "length": 240, "velocity": 104}, {"pitch": 38, "tick": 393840, "length": 240, "velocity": 104}, {"pitch": 50, "tick": 394320, "length": 240, "velocity": 104}, {"pitch": 38, "tick": 394320, "length": 240, "velocity": 104}, {"pitch": 50, "tick": 394800, "length": 240, "velocity": 104}, {"pitch": 38, "tick": 394800, "length": 240, "velocity": 104}, {"pitch": 50, "tick": 395280, "length": 240, "velocity": 104}, {"pitch": 38, "tick": 395280, "length": 240, "velocity": 104}, {"pitch": 43, "tick": 395760, "length": 240, "velocity": 104}, {"pitch": 31, "tick": 395760, "length": 240, "velocity": 104}, {"pitch": 43, "tick": 396240, "length": 240, "velocity": 104}, {"pitch": 31, "tick": 396240, "length": 240, "velocity": 104}, {"pitch": 43, "tick": 396720, "length": 240, "velocity": 104}, {"pitch": 31, "tick": 396720, "length": 240, "velocity": 104}, {"pitch": 43, "tick": 397200, "length": 240, "velocity": 104}, {"pitch": 31, "tick": 397200, "length": 240, "velocity": 104}, {"pitch": 48, "tick": 397680, "length": 240, "velocity": 104}, {"pitch": 36, "tick": 397680, "length": 240, "velocity": 104}, {"pitch": 48, "tick": 398160, "length": 240, "velocity": 104}, {"pitch": 36, "tick": 398160, "length": 240, "velocity": 104}, {"pitch": 48, "tick": 398640, "length": 240, "velocity": 104}, {"pitch": 36, "tick": 398640, "length": 240, "velocity": 104}, {"pitch": 48, "tick": 399120, "length": 240, "velocity": 104}, {"pitch": 36, "tick": 399120, "length": 240, "velocity": 104}, {"pitch": 39, "tick": 399600, "length": 240, "velocity": 104}, {"pitch": 51, "tick": 399600, "length": 240, "velocity": 104}, {"pitch": 39, "tick": 400080, "length": 240, "velocity": 104}, {"pitch": 51, "tick": 400080, "length": 240, "velocity": 104}, {"pitch": 39, "tick": 400560, "length": 240, "velocity": 104}, {"pitch": 51, "tick": 400560, "length": 240, "velocity": 104}, {"pitch": 39, "tick": 401040, "length": 240, "velocity": 104}, {"pitch": 51, "tick": 401040, "length": 240, "velocity": 104}, {"pitch": 44, "tick": 401520, "length": 240, "velocity": 104}, {"pitch": 32, "tick": 401520, "length": 240, "velocity": 104}, {"pitch": 44, "tick": 402000, "length": 240, "velocity": 104}, {"pitch": 32, "tick": 402000, "length": 240, "velocity": 104}, {"pitch": 44, "tick": 402480, "length": 240, "velocity": 104}, {"pitch": 32, "tick": 402480, "length": 240, "velocity": 104}, {"pitch": 44, "tick": 402960, "length": 240, "velocity": 104}, {"pitch": 32, "tick": 402960, "length": 240, "velocity": 104}, {"pitch": 43, "tick": 403440, "length": 240, "velocity": 104}, {"pitch": 31, "tick": 403440, "length": 240, "velocity": 104}, {"pitch": 43, "tick": 403920, "length": 240, "velocity": 104}, {"pitch": 31, "tick": 403920, "length": 240, "velocity": 104}, {"pitch": 43, "tick": 404400, "length": 240, "velocity": 104}, {"pitch": 31, "tick": 404400, "length": 240, "velocity": 104}, {"pitch": 43, "tick": 404880, "length": 240, "velocity": 104}, {"pitch": 31, "tick": 404880, "length": 240, "velocity": 104}, {"pitch": 48, "tick": 405360, "length": 240, "velocity": 104}, {"pitch": 36, "tick": 405360, "length": 240, "velocity": 104}, {"pitch": 48, "tick": 405840, "length": 240, "velocity": 104}, {"pitch": 36, "tick": 405840, "length": 240, "velocity": 104}, {"pitch": 48, "tick": 406320, "length": 240, "velocity": 104}, {"pitch": 36, "tick": 406320, "length": 240, "velocity": 104}, {"pitch": 48, "tick": 406800, "length": 240, "velocity": 104}, {"pitch": 36, "tick": 406800, "length": 240, "velocity": 104}, {"pitch": 48, "tick": 407280, "length": 240, "velocity": 104}, {"pitch": 36, "tick": 407280, "length": 240, "velocity": 104}, {"pitch": 48, "tick": 407760, "length": 240, "velocity": 104}, {"pitch": 36, "tick": 407760, "length": 240, "velocity": 104}, {"pitch": 48, "tick": 408240, "length": 240, "velocity": 104}, {"pitch": 36, "tick": 408240, "length": 240, "velocity": 104}, {"pitch": 48, "tick": 408720, "length": 240, "velocity": 104}, {"pitch": 36, "tick": 408720, "length": 240, "velocity": 104}, {"pitch": 41, "tick": 409200, "length": 240, "velocity": 104}, {"pitch": 29, "tick": 409200, "length": 240, "velocity": 104}, {"pitch": 41, "tick": 409680, "length": 240, "velocity": 104}, {"pitch": 29, "tick": 409680, "length": 240, "velocity": 104}, {"pitch": 41, "tick": 410160, "length": 240, "velocity": 104}, {"pitch": 29, "tick": 410160, "length": 240, "velocity": 104}, {"pitch": 41, "tick": 410640, "length": 240, "velocity": 104}, {"pitch": 29, "tick": 410640, "length": 240, "velocity": 104}, {"pitch": 43, "tick": 411120, "length": 240, "velocity": 104}, {"pitch": 31, "tick": 411120, "length": 240, "velocity": 104}, {"pitch": 43, "tick": 411600, "length": 240, "velocity": 104}, {"pitch": 31, "tick": 411600, "length": 240, "velocity": 104}, {"pitch": 43, "tick": 412080, "length": 240, "velocity": 104}, {"pitch": 31, "tick": 412080, "length": 240, "velocity": 104}, {"pitch": 43, "tick": 412560, "length": 240, "velocity": 104}, {"pitch": 31, "tick": 412560, "length": 240, "velocity": 104}, {"pitch": 48, "tick": 413040, "length": 240, "velocity": 104}, {"pitch": 36, "tick": 413040, "length": 240, "velocity": 104}, {"pitch": 48, "tick": 413520, "length": 240, "velocity": 104}, {"pitch": 36, "tick": 413520, "length": 240, "velocity": 104}, {"pitch": 48, "tick": 414000, "length": 240, "velocity": 104}, {"pitch": 36, "tick": 414000, "length": 240, "velocity": 104}, {"pitch": 48, "tick": 414480, "length": 240, "velocity": 104}, {"pitch": 36, "tick": 414480, "length": 240, "velocity": 104}, {"pitch": 51, "tick": 414960, "length": 240, "velocity": 104}, {"pitch": 39, "tick": 414960, "length": 240, "velocity": 104}, {"pitch": 51, "tick": 415440, "length": 240, "velocity": 104}, {"pitch": 39, "tick": 415440, "length": 240, "velocity": 104}, {"pitch": 51, "tick": 415920, "length": 240, "velocity": 104}, {"pitch": 39, "tick": 415920, "length": 240, "velocity": 104}, {"pitch": 51, "tick": 416400, "length": 240, "velocity": 104}, {"pitch": 39, "tick": 416400, "length": 240, "velocity": 104}, {"pitch": 44, "tick": 416880, "length": 240, "velocity": 104}, {"pitch": 32, "tick": 416880, "length": 240, "velocity": 104}, {"pitch": 44, "tick": 417360, "length": 240, "velocity": 104}, {"pitch": 32, "tick": 417360, "length": 240, "velocity": 104}, {"pitch": 44, "tick": 417840, "length": 240, "velocity": 104}, {"pitch": 32, "tick": 417840, "length": 240, "velocity": 104}, {"pitch": 44, "tick": 418320, "length": 240, "velocity": 104}, {"pitch": 32, "tick": 418320, "length": 240, "velocity": 104}, {"pitch": 43, "tick": 418800, "length": 240, "velocity": 104}, {"pitch": 31, "tick": 418800, "length": 240, "velocity": 104}, {"pitch": 43, "tick": 419280, "length": 240, "velocity": 104}, {"pitch": 31, "tick": 419280, "length": 240, "velocity": 104}, {"pitch": 43, "tick": 419760, "length": 240, "velocity": 104}, {"pitch": 31, "tick": 419760, "length": 240, "velocity": 104}, {"pitch": 43, "tick": 420240, "length": 240, "velocity": 104}, {"pitch": 31, "tick": 420240, "length": 240, "velocity": 104}, {"pitch": 48, "tick": 420720, "length": 240, "velocity": 104}, {"pitch": 36, "tick": 420720, "length": 240, "velocity": 104}, {"pitch": 48, "tick": 421200, "length": 240, "velocity": 104}, {"pitch": 36, "tick": 421200, "length": 240, "velocity": 104}, {"pitch": 48, "tick": 421680, "length": 240, "velocity": 104}, {"pitch": 36, "tick": 421680, "length": 240, "velocity": 104}, {"pitch": 48, "tick": 422160, "length": 240, "velocity": 104}, {"pitch": 36, "tick": 422160, "length": 240, "velocity": 104}, {"pitch": 48, "tick": 422640, "length": 240, "velocity": 104}, {"pitch": 36, "tick": 422640, "length": 240, "velocity": 104}, {"pitch": 48, "tick": 423120, "length": 240, "velocity": 104}, {"pitch": 36, "tick": 423120, "length": 240, "velocity": 104}, {"pitch": 48, "tick": 423600, "length": 240, "velocity": 104}, {"pitch": 36, "tick": 423600, "length": 240, "velocity": 104}, {"pitch": 48, "tick": 424080, "length": 240, "velocity": 104}, {"pitch": 36, "tick": 424080, "length": 240, "velocity": 104}, {"pitch": 50, "tick": 424560, "length": 240, "velocity": 104}, {"pitch": 38, "tick": 424560, "length": 240, "velocity": 104}, {"pitch": 50, "tick": 425040, "length": 240, "velocity": 104}, {"pitch": 38, "tick": 425040, "length": 240, "velocity": 104}, {"pitch": 50, "tick": 425520, "length": 240, "velocity": 104}, {"pitch": 38, "tick": 425520, "length": 240, "velocity": 104}, {"pitch": 50, "tick": 426000, "length": 240, "velocity": 104}, {"pitch": 38, "tick": 426000, "length": 240, "velocity": 104}, {"pitch": 43, "tick": 426480, "length": 240, "velocity": 104}, {"pitch": 31, "tick": 426480, "length": 240, "velocity": 104}, {"pitch": 43, "tick": 426960, "length": 240, "velocity": 104}, {"pitch": 31, "tick": 426960, "length": 240, "velocity": 104}, {"pitch": 43, "tick": 427440, "length": 240, "velocity": 104}, {"pitch": 31, "tick": 427440, "length": 240, "velocity": 104}, {"pitch": 43, "tick": 427920, "length": 240, "velocity": 104}, {"pitch": 31, "tick": 427920, "length": 240, "velocity": 104}, {"pitch": 48, "tick": 428400, "length": 240, "velocity": 104}, {"pitch": 36, "tick": 428400, "length": 240, "velocity": 104}, {"pitch": 48, "tick": 428880, "length": 240, "velocity": 104}, {"pitch": 36, "tick": 428880, "length": 240, "velocity": 104}, {"pitch": 48, "tick": 429360, "length": 240, "velocity": 104}, {"pitch": 36, "tick": 429360, "length": 240, "velocity": 104}, {"pitch": 48, "tick": 429840, "length": 240, "velocity": 104}, {"pitch": 36, "tick": 429840, "length": 240, "velocity": 104}, {"pitch": 39, "tick": 430320, "length": 240, "velocity": 104}, {"pitch": 51, "tick": 430320, "length": 240, "velocity": 104}, {"pitch": 39, "tick": 430800, "length": 240, "velocity": 104}, {"pitch": 51, "tick": 430800, "length": 240, "velocity": 104}, {"pitch": 39, "tick": 431280, "length": 240, "velocity": 104}, {"pitch": 51, "tick": 431280, "length": 240, "velocity": 104}, {"pitch": 39, "tick": 431760, "length": 240, "velocity": 104}, {"pitch": 51, "tick": 431760, "length": 240, "velocity": 104}, {"pitch": 44, "tick": 432240, "length": 240, "velocity": 104}, {"pitch": 32, "tick": 432240, "length": 240, "velocity": 104}, {"pitch": 44, "tick": 432720, "length": 240, "velocity": 104}, {"pitch": 32, "tick": 432720, "length": 240, "velocity": 104}, {"pitch": 44, "tick": 433200, "length": 240, "velocity": 104}, {"pitch": 32, "tick": 433200, "length": 240, "velocity": 104}, {"pitch": 44, "tick": 433680, "length": 240, "velocity": 104}, {"pitch": 32, "tick": 433680, "length": 240, "velocity": 104}, {"pitch": 43, "tick": 434160, "length": 240, "velocity": 104}, {"pitch": 31, "tick": 434160, "length": 240, "velocity": 104}, {"pitch": 43, "tick": 434640, "length": 240, "velocity": 104}, {"pitch": 31, "tick": 434640, "length": 240, "velocity": 104}, {"pitch": 43, "tick": 435120, "length": 240, "velocity": 104}, {"pitch": 31, "tick": 435120, "length": 240, "velocity": 104}, {"pitch": 43, "tick": 435600, "length": 240, "velocity": 104}, {"pitch": 31, "tick": 435600, "length": 240, "velocity": 104}, {"pitch": 48, "tick": 436080, "length": 240, "velocity": 104}, {"pitch": 36, "tick": 436080, "length": 240, "velocity": 104}, {"pitch": 48, "tick": 436560, "length": 240, "velocity": 104}, {"pitch": 36, "tick": 436560, "length": 240, "velocity": 104}, {"pitch": 48, "tick": 437040, "length": 240, "velocity": 104}, {"pitch": 36, "tick": 437040, "length": 240, "velocity": 104}, {"pitch": 48, "tick": 437520, "length": 240, "velocity": 104}, {"pitch": 36, "tick": 437520, "length": 240, "velocity": 104}, {"pitch": 48, "tick": 438000, "length": 240, "velocity": 104}, {"pitch": 36, "tick": 438000, "length": 240, "velocity": 104}, {"pitch": 48, "tick": 438480, "length": 240, "velocity": 104}, {"pitch": 36, "tick": 438480, "length": 240, "velocity": 104}, {"pitch": 48, "tick": 438960, "length": 240, "velocity": 104}, {"pitch": 36, "tick": 438960, "length": 240, "velocity": 104}, {"pitch": 48, "tick": 439440, "length": 240, "velocity": 104}, {"pitch": 36, "tick": 439440, "length": 240, "velocity": 104}, {"pitch": 41, "tick": 439920, "length": 240, "velocity": 104}, {"pitch": 29, "tick": 439920, "length": 240, "velocity": 104}, {"pitch": 41, "tick": 440400, "length": 240, "velocity": 104}, {"pitch": 29, "tick": 440400, "length": 240, "velocity": 104}, {"pitch": 41, "tick": 440880, "length": 240, "velocity": 104}, {"pitch": 29, "tick": 440880, "length": 240, "velocity": 104}, {"pitch": 41, "tick": 441360, "length": 240, "velocity": 104}, {"pitch": 29, "tick": 441360, "length": 240, "velocity": 104}, {"pitch": 43, "tick": 441840, "length": 240, "velocity": 104}, {"pitch": 31, "tick": 441840, "length": 240, "velocity": 104}, {"pitch": 43, "tick": 442320, "length": 240, "velocity": 104}, {"pitch": 31, "tick": 442320, "length": 240, "velocity": 104}, {"pitch": 43, "tick": 442800, "length": 240, "velocity": 104}, {"pitch": 31, "tick": 442800, "length": 240, "velocity": 104}, {"pitch": 43, "tick": 443280, "length": 240, "velocity": 104}, {"pitch": 31, "tick": 443280, "length": 240, "velocity": 104}, {"pitch": 48, "tick": 443760, "length": 240, "velocity": 104}, {"pitch": 36, "tick": 443760, "length": 240, "velocity": 104}, {"pitch": 48, "tick": 444240, "length": 240, "velocity": 104}, {"pitch": 36, "tick": 444240, "length": 240, "velocity": 104}, {"pitch": 48, "tick": 444720, "length": 240, "velocity": 104}, {"pitch": 36, "tick": 444720, "length": 240, "velocity": 104}, {"pitch": 48, "tick": 445200, "length": 240, "velocity": 104}, {"pitch": 36, "tick": 445200, "length": 240, "velocity": 104}, {"pitch": 51, "tick": 445680, "length": 240, "velocity": 104}, {"pitch": 39, "tick": 445680, "length": 240, "velocity": 104}, {"pitch": 51, "tick": 446160, "length": 240, "velocity": 104}, {"pitch": 39, "tick": 446160, "length": 240, "velocity": 104}, {"pitch": 51, "tick": 446640, "length": 240, "velocity": 104}, {"pitch": 39, "tick": 446640, "length": 240, "velocity": 104}, {"pitch": 51, "tick": 447120, "length": 240, "velocity": 104}, {"pitch": 39, "tick": 447120, "length": 240, "velocity": 104}, {"pitch": 44, "tick": 447600, "length": 240, "velocity": 104}, {"pitch": 32, "tick": 447600, "length": 240, "velocity": 104}, {"pitch": 44, "tick": 448080, "length": 240, "velocity": 104}, {"pitch": 32, "tick": 448080, "length": 240, "velocity": 104}, {"pitch": 44, "tick": 448560, "length": 240, "velocity": 104}, {"pitch": 32, "tick": 448560, "length": 240, "velocity": 104}, {"pitch": 44, "tick": 449040, "length": 240, "velocity": 104}, {"pitch": 32, "tick": 449040, "length": 240, "velocity": 104}, {"pitch": 43, "tick": 449520, "length": 240, "velocity": 104}, {"pitch": 31, "tick": 449520, "length": 240, "velocity": 104}, {"pitch": 43, "tick": 450000, "length": 240, "velocity": 104}, {"pitch": 31, "tick": 450000, "length": 240, "velocity": 104}, {"pitch": 43, "tick": 450480, "length": 240, "velocity": 104}, {"pitch": 31, "tick": 450480, "length": 240, "velocity": 104}, {"pitch": 43, "tick": 450960, "length": 240, "velocity": 104}, {"pitch": 31, "tick": 450960, "length": 240, "velocity": 104}, {"pitch": 48, "tick": 451440, "length": 240, "velocity": 104}, {"pitch": 36, "tick": 451440, "length": 240, "velocity": 104}, {"pitch": 48, "tick": 451920, "length": 240, "velocity": 104}, {"pitch": 36, "tick": 451920, "length": 240, "velocity": 104}, {"pitch": 48, "tick": 452400, "length": 240, "velocity": 104}, {"pitch": 36, "tick": 452400, "length": 240, "velocity": 104}, {"pitch": 48, "tick": 452880, "length": 240, "velocity": 104}, {"pitch": 36, "tick": 452880, "length": 240, "velocity": 104}, {"pitch": 48, "tick": 453360, "length": 240, "velocity": 104}, {"pitch": 36, "tick": 453360, "length": 240, "velocity": 104}, {"pitch": 48, "tick": 453840, "length": 240, "velocity": 104}, {"pitch": 36, "tick": 453840, "length": 240, "velocity": 104}, {"pitch": 48, "tick": 454320, "length": 240, "velocity": 104}, {"pitch": 36, "tick": 454320, "length": 240, "velocity": 104}, {"pitch": 48, "tick": 454800, "length": 240, "velocity": 104}, {"pitch": 36, "tick": 454800, "length": 240, "velocity": 104}, {"pitch": 50, "tick": 455280, "length": 240, "velocity": 104}, {"pitch": 38, "tick": 455280, "length": 240, "velocity": 104}, {"pitch": 50, "tick": 455760, "length": 240, "velocity": 104}, {"pitch": 38, "tick": 455760, "length": 240, "velocity": 104}, {"pitch": 50, "tick": 456240, "length": 240, "velocity": 104}, {"pitch": 38, "tick": 456240, "length": 240, "velocity": 104}, {"pitch": 50, "tick": 456720, "length": 240, "velocity": 104}, {"pitch": 38, "tick": 456720, "length": 240, "velocity": 104}, {"pitch": 43, "tick": 457200, "length": 240, "velocity": 104}, {"pitch": 31, "tick": 457200, "length": 240, "velocity": 104}, {"pitch": 43, "tick": 457680, "length": 240, "velocity": 104}, {"pitch": 31, "tick": 457680, "length": 240, "velocity": 104}, {"pitch": 43, "tick": 458160, "length": 240, "velocity": 104}, {"pitch": 31, "tick": 458160, "length": 240, "velocity": 104}, {"pitch": 43, "tick": 458640, "length": 240, "velocity": 104}, {"pitch": 31, "tick": 458640, "length": 240, "velocity": 104}, {"pitch": 48, "tick": 459120, "length": 240, "velocity": 104}, {"pitch": 36, "tick": 459120, "length": 240, "velocity": 104}, {"pitch": 48, "tick": 459600, "length": 240, "velocity": 104}, {"pitch": 36, "tick": 459600, "length": 240, "velocity": 104}, {"pitch": 48, "tick": 460080, "length": 240, "velocity": 104}, {"pitch": 36, "tick": 460080, "length": 240, "velocity": 104}, {"pitch": 48, "tick": 460560, "length": 240, "velocity": 104}, {"pitch": 36, "tick": 460560, "length": 240, "velocity": 104}, {"pitch": 39, "tick": 461040, "length": 240, "velocity": 104}, {"pitch": 51, "tick": 461040, "length": 240, "velocity": 104}, {"pitch": 39, "tick": 461520, "length": 240, "velocity": 104}, {"pitch": 51, "tick": 461520, "length": 240, "velocity": 104}, {"pitch": 39, "tick": 462000, "length": 240, "velocity": 104}, {"pitch": 51, "tick": 462000, "length": 240, "velocity": 104}, {"pitch": 39, "tick": 462480, "length": 240, "velocity": 104}, {"pitch": 51, "tick": 462480, "length": 240, "velocity": 104}, {"pitch": 44, "tick": 462960, "length": 240, "velocity": 104}, {"pitch": 32, "tick": 462960, "length": 240, "velocity": 104}, {"pitch": 44, "tick": 463440, "length": 240, "velocity": 104}, {"pitch": 32, "tick": 463440, "length": 240, "velocity": 104}, {"pitch": 44, "tick": 463920, "length": 240, "velocity": 104}, {"pitch": 32, "tick": 463920, "length": 240, "velocity": 104}, {"pitch": 44, "tick": 464400, "length": 240, "velocity": 104}, {"pitch": 32, "tick": 464400, "length": 240, "velocity": 104}, {"pitch": 43, "tick": 464880, "length": 240, "velocity": 104}, {"pitch": 31, "tick": 464880, "length": 240, "velocity": 104}, {"pitch": 43, "tick": 465360, "length": 240, "velocity": 104}, {"pitch": 31, "tick": 465360, "length": 240, "velocity": 104}, {"pitch": 43, "tick": 465840, "length": 240, "velocity": 104}, {"pitch": 31, "tick": 465840, "length": 240, "velocity": 104}, {"pitch": 43, "tick": 466320, "length": 240, "velocity": 104}, {"pitch": 31, "tick": 466320, "length": 240, "velocity": 104}, {"pitch": 48, "tick": 466800, "length": 240, "velocity": 104}, {"pitch": 36, "tick": 466800, "length": 240, "velocity": 104}, {"pitch": 48, "tick": 467280, "length": 240, "velocity": 104}, {"pitch": 36, "tick": 467280, "length": 240, "velocity": 104}, {"pitch": 48, "tick": 467760, "length": 240, "velocity": 104}, {"pitch": 36, "tick": 467760, "length": 240, "velocity": 104}, {"pitch": 48, "tick": 468240, "length": 240, "velocity": 104}, {"pitch": 36, "tick": 468240, "length": 240, "velocity": 104}, {"pitch": 48, "tick": 468720, "length": 240, "velocity": 104}, {"pitch": 36, "tick": 468720, "length": 240, "velocity": 104}, {"pitch": 48, "tick": 469200, "length": 240, "velocity": 104}, {"pitch": 36, "tick": 469200, "length": 240, "velocity": 104}, {"pitch": 48, "tick": 469680, "length": 240, "velocity": 104}, {"pitch": 36, "tick": 469680, "length": 240, "velocity": 104}, {"pitch": 48, "tick": 470160, "length": 240, "velocity": 104}, {"pitch": 36, "tick": 470160, "length": 240, "velocity": 104}]}, {"channel": 4, "length": 408900, "track_name": "\u0083G\u0083\u008c\u0083s/\u0083A\u0083\u008b\u0083y\u0083W\u0083I\u0083V\u0083\u0093\u0083Z\u0089E", "events": [{"type": "track_name", "name": "\u0083G\u0083\u008c\u0083s/\u0083A\u0083\u008b\u0083y\u0083W\u0083I\u0083V\u0083\u0093\u0083Z\u0089E", "tick": 0}, {"type": "midi_port", "port": 0, "tick": 0}, {"type": "control_change", "control": 0, "value": 121, "channel": 4, "tick": 480}, {"type": "control_change", "control": 32, "value": 1, "channel": 4, "tick": 480}, {"type": "program_change", "program": 4, "channel": 4, "tick": 480}, {"type": "sysex", "data": [65, 16, 0, 72, 18, 16, 0, 36, 63, 0, 13], "tick": 540}, {"type": "control_change", "control": 7, "value": 80, "channel": 4, "tick": 600}, {"type": "control_change", "control": 10, "value": 64, "channel": 4, "tick": 660}, {"type": "control_change", "control": 91, "value": 8, "channel": 4, "tick": 720}, {"type": "control_change", "control": 93, "value": 0, "channel": 4, "tick": 780}, {"type": "control_change", "control": 74, "value": 76, "channel": 4, "tick": 840}, {"type": "control_change", "control": 71, "value": 64, "channel": 4, "tick": 900}, {"type": "control_change", "control": 73, "value": 64, "channel": 4, "tick": 960}, {"type": "control_change", "control": 75, "value": 64, "channel": 4, "tick": 1020}, {"type": "control_change", "control": 72, "value": 62, "channel": 4, "tick": 1080}, {"type": "control_change", "control": 101, "value": 0, "channel": 4, "tick": 1140}, {"type": "control_change", "control": 100, "value": 0, "channel": 4, "tick": 1140}, {"type": "control_change", "control": 6, "value": 12, "channel": 4, "tick": 1140}, {"type": "control_change", "control": 38, "value": 0, "channel": 4, "tick": 1140}, {"type": "pitchwheel", "channel": 4, "pitch": 0, "tick": 1200}, {"type": "control_change", "control": 1, "value": 0, "channel": 4, "tick": 1260}, {"type": "control_change", "control": 11, "value": 127, "channel": 4, "tick": 1320}, {"type": "control_change", "control": 101, "value": 127, "channel": 4, "tick": 1380}, {"type": "control_change", "control": 100, "value": 127, "channel": 4, "tick": 1380}, {"type": "control_change", "control": 6, "value": 0, "channel": 4, "tick": 1380}, {"type": "control_change", "control": 38, "value": 0, "channel": 4, "tick": 1380}, {"type": "control_change", "control": 74, "value": 76, "channel": 4, "tick": 278400}, {"type": "control_change", "control": 74, "value": 77, "channel": 4, "tick": 278520}, {"type": "control_change", "control": 74, "value": 78, "channel": 4, "tick": 278760}, {"type": "control_change", "control": 74, "value": 79, "channel": 4, "tick": 279000}, {"type": "control_change", "control": 74, "value": 80, "channel": 4, "tick": 279120}, {"type": "control_change", "control": 74, "value": 81, "channel": 4, "tick": 279360}, {"type": "control_change", "control": 74, "value": 82, "channel": 4, "tick": 279600}, {"type": "control_change", "control": 74, "value": 83, "channel": 4, "tick": 279840}, {"type": "control_change", "control": 74, "value": 84, "channel": 4, "tick": 280080}, {"type": "control_change", "control": 74, "value": 85, "channel": 4, "tick": 280200}, {"type": "control_change", "control": 74, "value": 86, "channel": 4, "tick": 280440}, {"type": "control_change", "control": 74, "value": 87, "channel": 4, "tick": 280680}, {"type": "control_change", "control": 74, "value": 88, "channel": 4, "tick": 280920}, {"type": "control_change", "control": 74, "value": 89, "channel": 4, "tick": 281040}, {"type": "control_change", "control": 74, "value": 90, "channel": 4, "tick": 281280}, {"type": "control_change", "control": 74, "value": 91, "channel": 4, "tick": 281520}, {"type": "control_change", "control": 74, "value": 92, "channel": 4, "tick": 281760}, {"type": "control_change", "control": 74, "value": 93, "channel": 4, "tick": 282000}, {"type": "control_change", "control": 74, "value": 94, "channel": 4, "tick": 282120}, {"type": "control_change", "control": 74, "value": 95, "channel": 4, "tick": 282360}, {"type": "control_change", "control": 74, "value": 96, "channel": 4, "tick": 282600}, {"type": "control_change", "control": 74, "value": 97, "channel": 4, "tick": 282840}, {"type": "control_change", "control": 74, "value": 98, "channel": 4, "tick": 283080}, {"type": "control_change", "control": 74, "value": 99, "channel": 4, "tick": 283200}, {"type": "control_change", "control": 74, "value": 100, "channel": 4, "tick": 283440}, {"type": "control_change", "control": 74, "value": 101, "channel": 4, "tick": 283680}, {"type": "control_change", "control": 74, "value": 102, "channel": 4, "tick": 283920}, {"type": "control_change", "control": 74, "value": 103, "channel": 4, "tick": 284160}, {"type": "control_change", "control": 74, "value": 104, "channel": 4, "tick": 284280}, {"type": "control_change", "control": 74, "value": 105, "channel": 4, "tick": 284520}, {"type": "control_change", "control": 74, "value": 106, "channel": 4, "tick": 284760}, {"type": "control_change", "control": 74, "value": 107, "channel": 4, "tick": 285000}, {"type": "control_change", "control": 74, "value": 108, "channel": 4, "tick": 285120}, {"type": "control_change", "control": 74, "value": 109, "channel": 4, "tick": 285360}, {"type": "control_change", "control": 74, "value": 110, "channel": 4, "tick": 285600}, {"type": "control_change", "control": 74, "value": 111, "channel": 4, "tick": 285840}, {"type": "control_change", "control": 74, "value": 112, "channel": 4, "tick": 286080}, {"type": "control_change", "control": 0, "value": 121, "channel": 4, "tick": 345600}, {"type": "control_change", "control": 32, "value": 0, "channel": 4, "tick": 345600}, {"type": "program_change", "program": 87, "channel": 4, "tick": 345600}, {"type": "sysex", "data": [65, 16, 0, 72, 18, 16, 0, 36, 63, 0, 13], "tick": 345660}, {"type": "control_change", "control": 7, "value": 56, "channel": 4, "tick": 345720}, {"type": "control_change", "control": 10, "value": 112, "channel": 4, "tick": 345780}, {"type": "control_change", "control": 91, "value": 0, "channel": 4, "tick": 345840}, {"type": "control_change", "control": 93, "value": 0, "channel": 4, "tick": 345900}, {"type": "control_change", "control": 74, "value": 72, "channel": 4, "tick": 345960}, {"type": "control_change", "control": 71, "value": 64, "channel": 4, "tick": 346020}, {"type": "control_change", "control": 73, "value": 64, "channel": 4, "tick": 346080}, {"type": "control_change", "control": 75, "value": 64, "channel": 4, "tick": 346140}, {"type": "control_change", "control": 72, "value": 64, "channel": 4, "tick": 346200}, {"type": "control_change", "control": 101, "value": 0, "channel": 4, "tick": 346260}, {"type": "control_change", "control": 100, "value": 0, "channel": 4, "tick": 346260}, {"type": "control_change", "control": 6, "value": 12, "channel": 4, "tick": 346260}, {"type": "control_change", "control": 38, "value": 0, "channel": 4, "tick": 346260}, {"type": "pitchwheel", "channel": 4, "pitch": 0, "tick": 346320}, {"type": "control_change", "control": 1, "value": 0, "channel": 4, "tick": 346380}, {"type": "control_change", "control": 11, "value": 127, "channel": 4, "tick": 346440}, {"type": "control_change", "control": 101, "value": 127, "channel": 4, "tick": 346500}, {"type": "control_change", "control": 100, "value": 127, "channel": 4, "tick": 346500}, {"type": "control_change", "control": 6, "value": 0, "channel": 4, "tick": 346500}, {"type": "control_change", "control": 38, "value": 0, "channel": 4, "tick": 346500}, {"type": "end_of_track", "tick": 408900}], "notes": [{"pitch": 48, "tick": 220800, "length": 3360, "velocity": 80}, {"pitch": 60, "tick": 220800, "length": 3360, "velocity": 80}, {"pitch": 58, "tick": 220880, "length": 3280, "velocity": 80}, {"pitch": 62, "tick": 221120, "length": 3040, "velocity": 80}, {"pitch": 63, "tick": 221280, "length": 2880, "velocity": 80}, {"pitch": 67, "tick": 221440, "length": 2720, "velocity": 80}, {"pitch": 41, "tick": 224200, "length": 2360, "velocity": 80}, {"pitch": 63, "tick": 224640, "length": 1920, "velocity": 80}, {"pitch": 68, "tick": 224700, "length": 1860, "velocity": 80}, {"pitch": 72, "tick": 224760, "length": 1800, "velocity": 80}, {"pitch": 43, "tick": 226560, "length": 1920, "velocity": 80}, {"pitch": 65, "tick": 226560, "length": 1920, "velocity": 80}, {"pitch": 70, "tick": 226590, "length": 1890, "velocity": 80}, {"pitch": 71, "tick": 226620, "length": 1860, "velocity": 80}, {"pitch": 75, "tick": 226650, "length": 1830, "velocity": 80}, {"pitch": 48, "tick": 228480, "length": 1920, "velocity": 80}, {"pitch": 63, "tick": 228510, "length": 1890, "velocity": 80}, {"pitch": 67, "tick": 228540, "length": 1860, "velocity": 80}, {"pitch": 70, "tick": 228570, "length": 1830, "velocity": 80}, {"pitch": 74, "tick": 228600, "length": 1800, "velocity": 80}, {"pitch": 39, "tick": 230400, "length": 1920, "velocity": 80}, {"pitch": 63, "tick": 230430, "length": 1890, "velocity": 80}, {"pitch": 67, "tick": 230460, "length": 1860, "velocity": 80}, {"pitch": 70, "tick": 230490, "length": 1830, "velocity": 80}, {"pitch": 74, "tick": 230520, "length": 1800, "velocity": 80}, {"pitch": 44, "tick": 232320, "length": 1920, "velocity": 80}, {"pitch": 67, "tick": 232320, "length": 1920, "velocity": 80}, {"pitch": 72, "tick": 232360, "length": 1880, "velocity": 80}, {"pitch": 75, "tick": 232400, "length": 1840, "velocity": 80}, {"pitch": 43, "tick": 234240, "length": 1920, "velocity": 80}, {"pitch": 65, "tick": 234240, "length": 1920, "velocity": 80}, {"pitch": 70, "tick": 234280, "length": 1880, "velocity": 80}, {"pitch": 74, "tick": 234320, "length": 1840, "velocity": 80}, {"pitch": 48, "tick": 236160, "length": 1920, "velocity": 80}, {"pitch": 63, "tick": 236160, "length": 1920, "velocity": 80}, {"pitch": 67, "tick": 236200, "length": 1880, "velocity": 80}, {"pitch": 70, "tick": 236240, "length": 1840, "velocity": 80}, {"pitch": 72, "tick": 236280, "length": 1800, "velocity": 80}, {"pitch": 63, "tick": 238080, "length": 1920, "velocity": 80}, {"pitch": 48, "tick": 238080, "length": 1920, "velocity": 80}, {"pitch": 67, "tick": 238120, "length": 1880, "velocity": 80}, {"pitch": 70, "tick": 238160, "length": 1840, "velocity": 80}, {"pitch": 38, "tick": 240000, "length": 1920, "velocity": 80}, {"pitch": 65, "tick": 240000, "length": 1920, "velocity": 80}, {"pitch": 67, "tick": 240040, "length": 1880, "velocity": 80}, {"pitch": 68, "tick": 240080, "length": 1840, "velocity": 80}, {"pitch": 72, "tick": 240120, "length": 1800, "velocity": 80}, {"pitch": 43, "tick": 241920, "length": 1920, "velocity": 80}, {"pitch": 65, "tick": 241920, "length": 1920, "velocity": 80}, {"pitch": 70, "tick": 241960, "length": 1880, "velocity": 80}, {"pitch": 71, "tick": 242000, "length": 1840, "velocity": 80}, {"pitch": 75, "tick": 242040, "length": 1800, "velocity": 80}, {"pitch": 48, "tick": 243840, "length": 1920, "velocity": 80}, {"pitch": 63, "tick": 243840, "length": 1920, "velocity": 80}, {"pitch": 67, "tick": 243880, "length": 1880, "velocity": 80}, {"pitch": 70, "tick": 243920, "length": 1840, "velocity": 80}, {"pitch": 74, "tick": 243960, "length": 1800, "velocity": 80}, {"pitch": 39, "tick": 245760, "length": 1920, "velocity": 80}, {"pitch": 64, "tick": 245760, "length": 1920, "velocity": 80}, {"pitch": 67, "tick": 245800, "length": 1880, "velocity": 80}, {"pitch": 70, "tick": 245840, "length": 1840, "velocity": 80}, {"pitch": 73, "tick": 245880, "length": 1800, "velocity": 80}, {"pitch": 44, "tick": 247680, "length": 1920, "velocity": 80}, {"pitch": 63, "tick": 247680, "length": 1920, "velocity": 80}, {"pitch": 67, "tick": 247720, "length": 1880, "velocity": 80}, {"pitch": 72, "tick": 247760, "length": 1840, "velocity": 80}, {"pitch": 43, "tick": 249600, "length": 1920, "velocity": 80}, {"pitch": 65, "tick": 249600, "length": 1920, "velocity": 80}, {"pitch": 70, "tick": 249640, "length": 1880, "velocity": 80}, {"pitch": 71, "tick": 249680, "length": 1840, "velocity": 80}, {"pitch": 75, "tick": 249720, "length": 1800, "velocity": 80}, {"pitch": 48, "tick": 251520, "length": 1920, "velocity": 80}, {"pitch": 63, "tick": 251520, "length": 720, "velocity": 80}, {"pitch": 77, "tick": 251520, "length": 720, "velocity": 80}, {"pitch": 67, "tick": 251560, "length": 920, "velocity": 80}, {"pitch": 70, "tick": 251600, "length": 1120, "velocity": 80}, {"pitch": 74, "tick": 251640, "length": 1560, "velocity": 80}, {"pitch": 63, "tick": 252240, "length": 1200, "velocity": 80}, {"pitch": 67, "tick": 252480, "length": 960, "velocity": 80}, {"pitch": 70, "tick": 252720, "length": 720, "velocity": 80}, {"pitch": 72, "tick": 252960, "length": 480, "velocity": 80}, {"pitch": 74, "tick": 253200, "length": 240, "velocity": 80}, {"pitch": 48, "tick": 253440, "length": 1920, "velocity": 80}, {"pitch": 63, "tick": 253440, "length": 480, "velocity": 80}, {"pitch": 75, "tick": 253440, "length": 1920, "velocity": 80}, {"pitch": 67, "tick": 253480, "length": 440, "velocity": 80}, {"pitch": 70, "tick": 253520, "length": 1840, "velocity": 80}, {"pitch": 74, "tick": 253560, "length": 1800, "velocity": 80}, {"pitch": 63, "tick": 254160, "length": 1200, "velocity": 80}, {"pitch": 67, "tick": 254160, "length": 1200, "velocity": 80}, {"pitch": 41, "tick": 255360, "length": 480, "velocity": 96}, {"pitch": 72, "tick": 255840, "length": 240, "velocity": 80}, {"pitch": 68, "tick": 255840, "length": 240, "velocity": 80}, {"pitch": 63, "tick": 255840, "length": 240, "velocity": 80}, {"pitch": 48, "tick": 256080, "length": 240, "velocity": 96}, {"pitch": 48, "tick": 256320, "length": 480, "velocity": 96}, {"pitch": 72, "tick": 256560, "length": 480, "velocity": 80}, {"pitch": 68, "tick": 256560, "length": 480, "velocity": 80}, {"pitch": 63, "tick": 256560, "length": 480, "velocity": 80}, {"pitch": 41, "tick": 257040, "length": 240, "velocity": 96}, {"pitch": 43, "tick": 257280, "length": 480, "velocity": 96}, {"pitch": 75, "tick": 257760, "length": 240, "velocity": 80}, {"pitch": 71, "tick": 257760, "length": 240, "velocity": 80}, {"pitch": 70, "tick": 257760, "length": 240, "velocity": 80}, {"pitch": 65, "tick": 257760, "length": 240, "velocity": 80}, {"pitch": 50, "tick": 258000, "length": 240, "velocity": 96}, {"pitch": 50, "tick": 258240, "length": 480, "velocity": 96}, {"pitch": 75, "tick": 258480, "length": 480, "velocity": 80}, {"pitch": 71, "tick": 258480, "length": 480, "velocity": 80}, {"pitch": 70, "tick": 258480, "length": 480, "velocity": 80}, {"pitch": 65, "tick": 258480, "length": 480, "velocity": 80}, {"pitch": 43, "tick": 258960, "length": 240, "velocity": 96}, {"pitch": 48, "tick": 259200, "length": 480, "velocity": 96}, {"pitch": 74, "tick": 259680, "length": 240, "velocity": 80}, {"pitch": 70, "tick": 259680, "length": 240, "velocity": 80}, {"pitch": 67, "tick": 259680, "length": 240, "velocity": 80}, {"pitch": 63, "tick": 259680, "length": 240, "velocity": 80}, {"pitch": 43, "tick": 259920, "length": 240, "velocity": 96}, {"pitch": 43, "tick": 260160, "length": 480, "velocity": 96}, {"pitch": 74, "tick": 260400, "length": 480, "velocity": 80}, {"pitch": 70, "tick": 260400, "length": 480, "velocity": 80}, {"pitch": 67, "tick": 260400, "length": 480, "velocity": 80}, {"pitch": 63, "tick": 260400, "length": 480, "velocity": 80}, {"pitch": 48, "tick": 260880, "length": 240, "velocity": 96}, {"pitch": 39, "tick": 261120, "length": 480, "velocity": 96}, {"pitch": 74, "tick": 261600, "length": 240, "velocity": 80}, {"pitch": 70, "tick": 261600, "length": 240, "velocity": 80}, {"pitch": 67, "tick": 261600, "length": 240, "velocity": 80}, {"pitch": 63, "tick": 261600, "length": 240, "velocity": 80}, {"pitch": 46, "tick": 261840, "length": 240, "velocity": 96}, {"pitch": 46, "tick": 262080, "length": 480, "velocity": 96}, {"pitch": 74, "tick": 262320, "length": 480, "velocity": 80}, {"pitch": 70, "tick": 262320, "length": 480, "velocity": 80}, {"pitch": 67, "tick": 262320, "length": 480, "velocity": 80}, {"pitch": 63, "tick": 262320, "length": 480, "velocity": 80}, {"pitch": 39, "tick": 262800, "length": 240, "velocity": 96}, {"pitch": 44, "tick": 263040, "length": 480, "velocity": 96}, {"pitch": 75, "tick": 263520, "length": 240, "velocity": 80}, {"pitch": 72, "tick": 263520, "length": 240, "velocity": 80}, {"pitch": 67, "tick": 263520, "length": 240, "velocity": 80}, {"pitch": 51, "tick": 263760, "length": 240, "velocity": 96}, {"pitch": 51, "tick": 264000, "length": 480, "velocity": 96}, {"pitch": 75, "tick": 264240, "length": 480, "velocity": 80}, {"pitch": 72, "tick": 264240, "length": 480, "velocity": 80}, {"pitch": 67, "tick": 264240, "length": 480, "velocity": 80}, {"pitch": 44, "tick": 264720, "length": 240, "velocity": 96}, {"pitch": 43, "tick": 264960, "length": 480, "velocity": 96}, {"pitch": 74, "tick": 265440, "length": 240, "velocity": 80}, {"pitch": 70, "tick": 265440, "length": 240, "velocity": 80}, {"pitch": 65, "tick": 265440, "length": 240, "velocity": 80}, {"pitch": 50, "tick": 265680, "length": 240, "velocity": 96}, {"pitch": 50, "tick": 265920, "length": 480, "velocity": 96}, {"pitch": 74, "tick": 266160, "length": 480, "velocity": 80}, {"pitch": 70, "tick": 266160, "length": 480, "velocity": 80}, {"pitch": 65, "tick": 266160, "length": 480, "velocity": 80}, {"pitch": 43, "tick": 266640, "length": 240, "velocity": 96}, {"pitch": 48, "tick": 266880, "length": 480, "velocity": 96}, {"pitch": 72, "tick": 267360, "length": 240, "velocity": 80}, {"pitch": 70, "tick": 267360, "length": 240, "velocity": 80}, {"pitch": 67, "tick": 267360, "length": 240, "velocity": 80}, {"pitch": 63, "tick": 267360, "length": 240, "velocity": 80}, {"pitch": 43, "tick": 267600, "length": 240, "velocity": 96}, {"pitch": 43, "tick": 267840, "length": 480, "velocity": 96}, {"pitch": 72, "tick": 268080, "length": 480, "velocity": 80}, {"pitch": 70, "tick": 268080, "length": 480, "velocity": 80}, {"pitch": 67, "tick": 268080, "length": 480, "velocity": 80}, {"pitch": 63, "tick": 268080, "length": 480, "velocity": 80}, {"pitch": 48, "tick": 268560, "length": 240, "velocity": 96}, {"pitch": 48, "tick": 268800, "length": 480, "velocity": 96}, {"pitch": 70, "tick": 269280, "length": 240, "velocity": 80}, {"pitch": 67, "tick": 269280, "length": 240, "velocity": 80}, {"pitch": 63, "tick": 269280, "length": 240, "velocity": 80}, {"pitch": 43, "tick": 269520, "length": 240, "velocity": 96}, {"pitch": 43, "tick": 269760, "length": 480, "velocity": 96}, {"pitch": 70, "tick": 270000, "length": 480, "velocity": 80}, {"pitch": 67, "tick": 270000, "length": 480, "velocity": 80}, {"pitch": 63, "tick": 270000, "length": 480, "velocity": 80}, {"pitch": 48, "tick": 270480, "length": 240, "velocity": 96}, {"pitch": 38, "tick": 270720, "length": 480, "velocity": 96}, {"pitch": 72, "tick": 271200, "length": 240, "velocity": 80}, {"pitch": 68, "tick": 271200, "length": 240, "velocity": 80}, {"pitch": 67, "tick": 271200, "length": 240, "velocity": 80}, {"pitch": 65, "tick": 271200, "length": 240, "velocity": 80}, {"pitch": 50, "tick": 271440, "length": 240, "velocity": 96}, {"pitch": 50, "tick": 271680, "length": 480, "velocity": 96}, {"pitch": 72, "tick": 271920, "length": 480, "velocity": 80}, {"pitch": 68, "tick": 271920, "length": 480, "velocity": 80}, {"pitch": 67, "tick": 271920, "length": 480, "velocity": 80}, {"pitch": 65, "tick": 271920, "length": 480, "velocity": 80}, {"pitch": 38, "tick": 272400, "length": 240, "velocity": 96}, {"pitch": 43, "tick": 272640, "length": 480, "velocity": 96}, {"pitch": 75, "tick": 273120, "length": 240, "velocity": 80}, {"pitch": 71, "tick": 273120, "length": 240, "velocity": 80}, {"pitch": 70, "tick": 273120, "length": 240, "velocity": 80}, {"pitch": 65, "tick": 273120, "length": 240, "velocity": 80}, {"pitch": 50, "tick": 273360, "length": 240, "velocity": 96}, {"pitch": 50, "tick": 273600, "length": 480, "velocity": 96}, {"pitch": 75, "tick": 273840, "length": 480, "velocity": 80}, {"pitch": 71, "tick": 273840, "length": 480, "velocity": 80}, {"pitch": 70, "tick": 273840, "length": 480, "velocity": 80}, {"pitch": 65, "tick": 273840, "length": 480, "velocity": 80}, {"pitch": 43, "tick": 274320, "length": 240, "velocity": 96}, {"pitch": 48, "tick": 274560, "length": 480, "velocity": 96}, {"pitch": 74, "tick": 275040, "length": 240, "velocity": 80}, {"pitch": 70, "tick": 275040, "length": 240, "velocity": 80}, {"pitch": 67, "tick": 275040, "length": 240, "velocity": 80}, {"pitch": 63, "tick": 275040, "length": 240, "velocity": 80}, {"pitch": 43, "tick": 275280, "length": 240, "velocity": 96}, {"pitch": 43, "tick": 275520, "length": 480, "velocity": 96}, {"pitch": 74, "tick": 275760, "length": 480, "velocity": 80}, {"pitch": 70, "tick": 275760, "length": 480, "velocity": 80}, {"pitch": 67, "tick": 275760, "length": 480, "velocity": 80}, {"pitch": 63, "tick": 275760, "length": 480, "velocity": 80}, {"pitch": 48, "tick": 276240, "length": 240, "velocity": 96}, {"pitch": 39, "tick": 276480, "length": 480, "velocity": 96}, {"pitch": 73, "tick": 276960, "length": 240, "velocity": 80}, {"pitch": 70, "tick": 276960, "length": 240, "velocity": 80}, {"pitch": 67, "tick": 276960, "length": 240, "velocity": 80}, {"pitch": 64, "tick": 276960, "length": 240, "velocity": 80}, {"pitch": 46, "tick": 277200, "length": 240, "velocity": 96}, {"pitch": 46, "tick": 277440, "length": 480, "velocity": 96}, {"pitch": 73, "tick": 277680, "length": 480, "velocity": 80}, {"pitch": 70, "tick": 277680, "length": 480, "velocity": 80}, {"pitch": 67, "tick": 277680, "length": 480, "velocity": 80}, {"pitch": 64, "tick": 277680, "length": 480, "velocity": 80}, {"pitch": 39, "tick": 278160, "length": 240, "velocity": 96}, {"pitch": 44, "tick": 278400, "length": 480, "velocity": 96}, {"pitch": 72, "tick": 278880, "length": 240, "velocity": 80}, {"pitch": 67, "tick": 278880, "length": 240, "velocity": 80}, {"pitch": 63, "tick": 278880, "length": 240, "velocity": 80}, {"pitch": 51, "tick": 279120, "length": 240, "velocity": 96}, {"pitch": 51, "tick": 279360, "length": 480, "velocity": 96}, {"pitch": 72, "tick": 279600, "length": 480, "velocity": 80}, {"pitch": 67, "tick": 279600, "length": 480, "velocity": 80}, {"pitch": 63, "tick": 279600, "length": 480, "velocity": 80}, {"pitch": 44, "tick": 280080, "length": 240, "velocity": 96}, {"pitch": 43, "tick": 280320, "length": 480, "velocity": 96}, {"pitch": 75, "tick": 280800, "length": 240, "velocity": 80}, {"pitch": 71, "tick": 280800, "length": 240, "velocity": 80}, {"pitch": 70, "tick": 280800, "length": 240, "velocity": 80}, {"pitch": 65, "tick": 280800, "length": 240, "velocity": 80}, {"pitch": 50, "tick": 281040, "length": 240, "velocity": 96}, {"pitch": 50, "tick": 281280, "length": 480, "velocity": 96}, {"pitch": 75, "tick": 281520, "length": 480, "velocity": 80}, {"pitch": 71, "tick": 281520, "length": 480, "velocity": 80}, {"pitch": 70, "tick": 281520, "length": 480, "velocity": 80}, {"pitch": 65, "tick": 281520, "length": 480, "velocity": 80}, {"pitch": 43, "tick": 282000, "length": 240, "velocity": 96}, {"pitch": 48, "tick": 282240, "length": 480, "velocity": 96}, {"pitch": 74, "tick": 282720, "length": 240, "velocity": 80}, {"pitch": 70, "tick": 282720, "length": 240, "velocity": 80}, {"pitch": 67, "tick": 282720, "length": 240, "velocity": 80}, {"pitch": 63, "tick": 282720, "length": 240, "velocity": 80}, {"pitch": 43, "tick": 282960, "length": 240, "velocity": 96}, {"pitch": 43, "tick": 283200, "length": 480, "velocity": 96}, {"pitch": 74, "tick": 283440, "length": 480, "velocity": 80}, {"pitch": 70, "tick": 283440, "length": 480, "velocity": 80}, {"pitch": 67, "tick": 283440, "length": 480, "velocity": 80}, {"pitch": 63, "tick": 283440, "length": 480, "velocity": 80}, {"pitch": 48, "tick": 283920, "length": 240, "velocity": 96}, {"pitch": 48, "tick": 284160, "length": 480, "velocity": 96}, {"pitch": 74, "tick": 284640, "length": 240, "velocity": 80}, {"pitch": 70, "tick": 284640, "length": 240, "velocity": 80}, {"pitch": 67, "tick": 284640, "length": 240, "velocity": 80}, {"pitch": 63, "tick": 284640, "length": 240, "velocity": 80}, {"pitch": 43, "tick": 284880, "length": 240, "velocity": 96}, {"pitch": 43, "tick": 285120, "length": 480, "velocity": 96}, {"pitch": 74, "tick": 285360, "length": 480, "velocity": 80}, {"pitch": 70, "tick": 285360, "length": 480, "velocity": 80}, {"pitch": 67, "tick": 285360, "length": 480, "velocity": 80}, {"pitch": 63, "tick": 285360, "length": 480, "velocity": 80}, {"pitch": 48, "tick": 285840, "length": 240, "velocity": 96}, {"pitch": 60, "tick": 347520, "length": 60, "velocity": 112}, {"pitch": 65, "tick": 347640, "length": 60, "velocity": 112}, {"pitch": 68, "tick": 347760, "length": 60, "velocity": 112}, {"pitch": 72, "tick": 347880, "length": 60, "velocity": 112}, {"pitch": 75, "tick": 348000, "length": 60, "velocity": 112}, {"pitch": 72, "tick": 348120, "length": 60, "velocity": 112}, {"pitch": 68, "tick": 348240, "length": 60, "velocity": 112}, {"pitch": 65, "tick": 348360, "length": 60, "velocity": 112}, {"pitch": 60, "tick": 348480, "length": 60, "velocity": 112}, {"pitch": 65, "tick": 348600, "length": 60, "velocity": 112}, {"pitch": 68, "tick": 348720, "length": 60, "velocity": 112}, {"pitch": 72, "tick": 348840, "length": 60, "velocity": 112}, {"pitch": 75, "tick": 348960, "length": 60, "velocity": 112}, {"pitch": 72, "tick": 349080, "length": 60, "velocity": 112}, {"pitch": 68, "tick": 349200, "length": 60, "velocity": 112}, {"pitch": 65, "tick": 349320, "length": 60, "velocity": 112}, {"pitch": 63, "tick": 349440, "length": 60, "velocity": 112}, {"pitch": 67, "tick": 349560, "length": 60, "velocity": 112}, {"pitch": 70, "tick": 349680, "length": 60, "velocity": 112}, {"pitch": 71, "tick": 349800, "length": 60, "velocity": 112}, {"pitch": 75, "tick": 349920, "length": 60, "velocity": 112}, {"pitch": 71, "tick": 350040, "length": 60, "velocity": 112}, {"pitch": 70, "tick": 350160, "length": 60, "velocity": 112}, {"pitch": 67, "tick": 350280, "length": 60, "velocity": 112}, {"pitch": 63, "tick": 350400, "length": 60, "velocity": 112}, {"pitch": 67, "tick": 350520, "length": 60, "velocity": 112}, {"pitch": 70, "tick": 350640, "length": 60, "velocity": 112}, {"pitch": 71, "tick": 350760, "length": 60, "velocity": 112}, {"pitch": 75, "tick": 350880, "length": 60, "velocity": 112}, {"pitch": 71, "tick": 351000, "length": 60, "velocity": 112}, {"pitch": 70, "tick": 351120, "length": 60, "velocity": 112}, {"pitch": 67, "tick": 351240, "length": 60, "velocity": 112}, {"pitch": 60, "tick": 351360, "length": 60, "velocity": 112}, {"pitch": 63, "tick": 351480, "length": 60, "velocity": 112}, {"pitch": 67, "tick": 351600, "length": 60, "velocity": 112}, {"pitch": 70, "tick": 351720, "length": 60, "velocity": 112}, {"pitch": 74, "tick": 351840, "length": 60, "velocity": 112}, {"pitch": 70, "tick": 351960, "length": 60, "velocity": 112}, {"pitch": 67, "tick": 352080, "length": 60, "velocity": 112}, {"pitch": 63, "tick": 352200, "length": 60, "velocity": 112}, {"pitch": 60, "tick": 352320, "length": 60, "velocity": 112}, {"pitch": 63, "tick": 352440, "length": 60, "velocity": 112}, {"pitch": 67, "tick": 352560, "length": 60, "velocity": 112}, {"pitch": 70, "tick": 352680, "length": 60, "velocity": 112}, {"pitch": 74, "tick": 352800, "length": 60, "velocity": 112}, {"pitch": 70, "tick": 352920, "length": 60, "velocity": 112}, {"pitch": 67, "tick": 353040, "length": 60, "velocity": 112}, {"pitch": 63, "tick": 353160, "length": 60, "velocity": 112}, {"pitch": 63, "tick": 353280, "length": 60, "velocity": 112}, {"pitch": 67, "tick": 353400, "length": 60, "velocity": 112}, {"pitch": 70, "tick": 353520, "length": 60, "velocity": 112}, {"pitch": 74, "tick": 353640, "length": 60, "velocity": 112}, {"pitch": 75, "tick": 353760, "length": 60, "velocity": 112}, {"pitch": 74, "tick": 353880, "length": 60, "velocity": 112}, {"pitch": 70, "tick": 354000, "length": 60, "velocity": 112}, {"pitch": 67, "tick": 354120, "length": 60, "velocity": 112}, {"pitch": 63, "tick": 354240, "length": 60, "velocity": 112}, {"pitch": 67, "tick": 354360, "length": 60, "velocity": 112}, {"pitch": 70, "tick": 354480, "length": 60, "velocity": 112}, {"pitch": 74, "tick": 354600, "length": 60, "velocity": 112}, {"pitch": 75, "tick": 354720, "length": 60, "velocity": 112}, {"pitch": 74, "tick": 354840, "length": 60, "velocity": 112}, {"pitch": 70, "tick": 354960, "length": 60, "velocity": 112}, {"pitch": 67, "tick": 355080, "length": 60, "velocity": 112}, {"pitch": 63, "tick": 355200, "length": 60, "velocity": 112}, {"pitch": 67, "tick": 355320, "length": 60, "velocity": 112}, {"pitch": 68, "tick": 355440, "length": 60, "velocity": 112}, {"pitch": 72, "tick": 355560, "length": 60, "velocity": 112}, {"pitch": 75, "tick": 355680, "length": 60, "velocity": 112}, {"pitch": 72, "tick": 355800, "length": 60, "velocity": 112}, {"pitch": 68, "tick": 355920, "length": 60, "velocity": 112}, {"pitch": 67, "tick": 356040, "length": 60, "velocity": 112}, {"pitch": 63, "tick": 356160, "length": 60, "velocity": 112}, {"pitch": 67, "tick": 356280, "length": 60, "velocity": 112}, {"pitch": 68, "tick": 356400, "length": 60, "velocity": 112}, {"pitch": 72, "tick": 356520, "length": 60, "velocity": 112}, {"pitch": 75, "tick": 356640, "length": 60, "velocity": 112}, {"pitch": 72, "tick": 356760, "length": 60, "velocity": 112}, {"pitch": 68, "tick": 356880, "length": 60, "velocity": 112}, {"pitch": 67, "tick": 357000, "length": 60, "velocity": 112}, {"pitch": 62, "tick": 357120, "length": 60, "velocity": 112}, {"pitch": 65, "tick": 357240, "length": 60, "velocity": 112}, {"pitch": 67, "tick": 357360, "length": 60, "velocity": 112}, {"pitch": 70, "tick": 357480, "length": 60, "velocity": 112}, {"pitch": 74, "tick": 357600, "length": 60, "velocity": 112}, {"pitch": 70, "tick": 357720, "length": 60, "velocity": 112}, {"pitch": 67, "tick": 357840, "length": 60, "velocity": 112}, {"pitch": 65, "tick": 357960, "length": 60, "velocity": 112}, {"pitch": 62, "tick": 358080, "length": 60, "velocity": 112}, {"pitch": 65, "tick": 358200, "length": 60, "velocity": 112}, {"pitch": 67, "tick": 358320, "length": 60, "velocity": 112}, {"pitch": 70, "tick": 358440, "length": 60, "velocity": 112}, {"pitch": 74, "tick": 358560, "length": 60, "velocity": 112}, {"pitch": 70, "tick": 358680, "length": 60, "velocity": 112}, {"pitch": 67, "tick": 358800, "length": 60, "velocity": 112}, {"pitch": 65, "tick": 358920, "length": 60, "velocity": 112}, {"pitch": 63, "tick": 359040, "length": 60, "velocity": 112}, {"pitch": 67, "tick": 359160, "length": 60, "velocity": 112}, {"pitch": 70, "tick": 359280, "length": 60, "velocity": 112}, {"pitch": 72, "tick": 359400, "length": 60, "velocity": 112}, {"pitch": 75, "tick": 359520, "length": 60, "velocity": 112}, {"pitch": 72, "tick": 359640, "length": 60, "velocity": 112}, {"pitch": 70, "tick": 359760, "length": 60, "velocity": 112}, {"pitch": 67, "tick": 359880, "length": 60, "velocity": 112}, {"pitch": 63, "tick": 360000, "length": 60, "velocity": 112}, {"pitch": 67, "tick": 360120, "length": 60, "velocity": 112}, {"pitch": 70, "tick": 360240, "length": 60, "velocity": 112}, {"pitch": 72, "tick": 360360, "length": 60, "velocity": 112}, {"pitch": 75, "tick": 360480, "length": 60, "velocity": 112}, {"pitch": 72, "tick": 360600, "length": 60, "velocity": 112}, {"pitch": 70, "tick": 360720, "length": 60, "velocity": 112}, {"pitch": 67, "tick": 360840, "length": 60, "velocity": 112}, {"pitch": 63, "tick": 360960, "length": 60, "velocity": 112}, {"pitch": 67, "tick": 361080, "length": 60, "velocity": 112}, {"pitch": 70, "tick": 361200, "length": 60, "velocity": 112}, {"pitch": 72, "tick": 361320, "length": 60, "velocity": 112}, {"pitch": 75, "tick": 361440, "length": 60, "velocity": 112}, {"pitch": 72, "tick": 361560, "length": 60, "velocity": 112}, {"pitch": 70, "tick": 361680, "length": 60, "velocity": 112}, {"pitch": 67, "tick": 361800, "length": 60, "velocity": 112}, {"pitch": 63, "tick": 361920, "length": 60, "velocity": 112}, {"pitch": 67, "tick": 362040, "length": 60, "velocity": 112}, {"pitch": 70, "tick": 362160, "length": 60, "velocity": 112}, {"pitch": 72, "tick": 362280, "length": 60, "velocity": 112}, {"pitch": 75, "tick": 362400, "length": 60, "velocity": 112}, {"pitch": 72, "tick": 362520, "length": 60, "velocity": 112}, {"pitch": 70, "tick": 362640, "length": 60, "velocity": 112}, {"pitch": 67, "tick": 362760, "length": 60, "velocity": 112}, {"pitch": 62, "tick": 362880, "length": 60, "velocity": 112}, {"pitch": 65, "tick": 363000, "length": 60, "velocity": 112}, {"pitch": 68, "tick": 363120, "length": 60, "velocity": 112}, {"pitch": 72, "tick": 363240, "length": 60, "velocity": 112}, {"pitch": 77, "tick": 363360, "length": 60, "velocity": 112}, {"pitch": 72, "tick": 363480, "length": 60, "velocity": 112}, {"pitch": 68, "tick": 363600, "length": 60, "velocity": 112}, {"pitch": 65, "tick": 363720, "length": 60, "velocity": 112}, {"pitch": 62, "tick": 363840, "length": 60, "velocity": 112}, {"pitch": 65, "tick": 363960, "length": 60, "velocity": 112}, {"pitch": 68, "tick": 364080, "length": 60, "velocity": 112}, {"pitch": 72, "tick": 364200, "length": 60, "velocity": 112}, {"pitch": 77, "tick": 364320, "length": 60, "velocity": 112}, {"pitch": 72, "tick": 364440, "length": 60, "velocity": 112}, {"pitch": 68, "tick": 364560, "length": 60, "velocity": 112}, {"pitch": 65, "tick": 364680, "length": 60, "velocity": 112}, {"pitch": 65, "tick": 364800, "length": 60, "velocity": 112}, {"pitch": 67, "tick": 364920, "length": 60, "velocity": 112}, {"pitch": 70, "tick": 365040, "length": 60, "velocity": 112}, {"pitch": 71, "tick": 365160, "length": 60, "velocity": 112}, {"pitch": 75, "tick": 365280, "length": 60, "velocity": 112}, {"pitch": 71, "tick": 365400, "length": 60, "velocity": 112}, {"pitch": 70, "tick": 365520, "length": 60, "velocity": 112}, {"pitch": 67, "tick": 365640, "length": 60, "velocity": 112}, {"pitch": 65, "tick": 365760, "length": 60, "velocity": 112}, {"pitch": 67, "tick": 365880, "length": 60, "velocity": 112}, {"pitch": 70, "tick": 366000, "length": 60, "velocity": 112}, {"pitch": 71, "tick": 366120, "length": 60, "velocity": 112}, {"pitch": 75, "tick": 366240, "length": 60, "velocity": 112}, {"pitch": 71, "tick": 366360, "length": 60, "velocity": 112}, {"pitch": 70, "tick": 366480, "length": 60, "velocity": 112}, {"pitch": 67, "tick": 366600, "length": 60, "velocity": 112}, {"pitch": 62, "tick": 366720, "length": 60, "velocity": 112}, {"pitch": 63, "tick": 366840, "length": 60, "velocity": 112}, {"pitch": 67, "tick": 366960, "length": 60, "velocity": 112}, {"pitch": 70, "tick": 367080, "length": 60, "velocity": 112}, {"pitch": 74, "tick": 367200, "length": 60, "velocity": 112}, {"pitch": 70, "tick": 367320, "length": 60, "velocity": 112}, {"pitch": 67, "tick": 367440, "length": 60, "velocity": 112}, {"pitch": 63, "tick": 367560, "length": 60, "velocity": 112}, {"pitch": 62, "tick": 367680, "length": 60, "velocity": 112}, {"pitch": 63, "tick": 367800, "length": 60, "velocity": 112}, {"pitch": 67, "tick": 367920, "length": 60, "velocity": 112}, {"pitch": 70, "tick": 368040, "length": 60, "velocity": 112}, {"pitch": 74, "tick": 368160, "length": 60, "velocity": 112}, {"pitch": 70, "tick": 368280, "length": 60, "velocity": 112}, {"pitch": 67, "tick": 368400, "length": 60, "velocity": 112}, {"pitch": 63, "tick": 368520, "length": 60, "velocity": 112}, {"pitch": 63, "tick": 368640, "length": 60, "velocity": 112}, {"pitch": 64, "tick": 368760, "length": 60, "velocity": 112}, {"pitch": 67, "tick": 368880, "length": 60, "velocity": 112}, {"pitch": 70, "tick": 369000, "length": 60, "velocity": 112}, {"pitch": 73, "tick": 369120, "length": 60, "velocity": 112}, {"pitch": 70, "tick": 369240, "length": 60, "velocity": 112}, {"pitch": 67, "tick": 369360, "length": 60, "velocity": 112}, {"pitch": 64, "tick": 369480, "length": 60, "velocity": 112}, {"pitch": 63, "tick": 369600, "length": 60, "velocity": 112}, {"pitch": 64, "tick": 369720, "length": 60, "velocity": 112}, {"pitch": 67, "tick": 369840, "length": 60, "velocity": 112}, {"pitch": 70, "tick": 369960, "length": 60, "velocity": 112}, {"pitch": 73, "tick": 370080, "length": 60, "velocity": 112}, {"pitch": 70, "tick": 370200, "length": 60, "velocity": 112}, {"pitch": 67, "tick": 370320, "length": 60, "velocity": 112}, {"pitch": 64, "tick": 370440, "length": 60, "velocity": 112}, {"pitch": 63, "tick": 370560, "length": 60, "velocity": 112}, {"pitch": 67, "tick": 370680, "length": 60, "velocity": 112}, {"pitch": 68, "tick": 370800, "length": 60, "velocity": 112}, {"pitch": 72, "tick": 370920, "length": 60, "velocity": 112}, {"pitch": 75, "tick": 371040, "length": 60, "velocity": 112}, {"pitch": 72, "tick": 371160, "length": 60, "velocity": 112}, {"pitch": 68, "tick": 371280, "length": 60, "velocity": 112}, {"pitch": 67, "tick": 371400, "length": 60, "velocity": 112}, {"pitch": 63, "tick": 371520, "length": 60, "velocity": 112}, {"pitch": 67, "tick": 371640, "length": 60, "velocity": 112}, {"pitch": 68, "tick": 371760, "length": 60, "velocity": 112}, {"pitch": 72, "tick": 371880, "length": 60, "velocity": 112}, {"pitch": 75, "tick": 372000, "length": 60, "velocity": 112}, {"pitch": 72, "tick": 372120, "length": 60, "velocity": 112}, {"pitch": 68, "tick": 372240, "length": 60, "velocity": 112}, {"pitch": 67, "tick": 372360, "length": 60, "velocity": 112}, {"pitch": 63, "tick": 372480, "length": 60, "velocity": 112}, {"pitch": 67, "tick": 372600, "length": 60, "velocity": 112}, {"pitch": 70, "tick": 372720, "length": 60, "velocity": 112}, {"pitch": 71, "tick": 372840, "length": 60, "velocity": 112}, {"pitch": 74, "tick": 372960, "length": 60, "velocity": 112}, {"pitch": 71, "tick": 373080, "length": 60, "velocity": 112}, {"pitch": 70, "tick": 373200, "length": 60, "velocity": 112}, {"pitch": 67, "tick": 373320, "length": 60, "velocity": 112}, {"pitch": 63, "tick": 373440, "length": 60, "velocity": 112}, {"pitch": 67, "tick": 373560, "length": 60, "velocity": 112}, {"pitch": 70, "tick": 373680, "length": 60, "velocity": 112}, {"pitch": 71, "tick": 373800, "length": 60, "velocity": 112}, {"pitch": 74, "tick": 373920, "length": 60, "velocity": 112}, {"pitch": 71, "tick": 374040, "length": 60, "velocity": 112}, {"pitch": 70, "tick": 374160, "length": 60, "velocity": 112}, {"pitch": 67, "tick": 374280, "length": 60, "velocity": 112}, {"pitch": 60, "tick": 374400, "length": 60, "velocity": 112}, {"pitch": 63, "tick": 374520, "length": 60, "velocity": 112}, {"pitch": 67, "tick": 374640, "length": 60, "velocity": 112}, {"pitch": 70, "tick": 374760, "length": 60, "velocity": 112}, {"pitch": 74, "tick": 374880, "length": 60, "velocity": 112}, {"pitch": 70, "tick": 375000, "length": 60, "velocity": 112}, {"pitch": 67, "tick": 375120, "length": 60, "velocity": 112}, {"pitch": 63, "tick": 375240, "length": 60, "velocity": 112}, {"pitch": 60, "tick": 375360, "length": 60, "velocity": 112}, {"pitch": 63, "tick": 375480, "length": 60, "velocity": 112}, {"pitch": 67, "tick": 375600, "length": 60, "velocity": 112}, {"pitch": 70, "tick": 375720, "length": 60, "velocity": 112}, {"pitch": 74, "tick": 375840, "length": 60, "velocity": 112}, {"pitch": 70, "tick": 375960, "length": 60, "velocity": 112}, {"pitch": 67, "tick": 376080, "length": 60, "velocity": 112}, {"pitch": 63, "tick": 376200, "length": 60, "velocity": 112}, {"pitch": 60, "tick": 376320, "length": 60, "velocity": 112}, {"pitch": 63, "tick": 376440, "length": 60, "velocity": 112}, {"pitch": 67, "tick": 376560, "length": 60, "velocity": 112}, {"pitch": 70, "tick": 376680, "length": 60, "velocity": 112}, {"pitch": 74, "tick": 376800, "length": 60, "velocity": 112}, {"pitch": 70, "tick": 376920, "length": 60, "velocity": 112}, {"pitch": 67, "tick": 377040, "length": 60, "velocity": 112}, {"pitch": 63, "tick": 377160, "length": 60, "velocity": 112}, {"pitch": 60, "tick": 377280, "length": 60, "velocity": 112}, {"pitch": 63, "tick": 377400, "length": 60, "velocity": 112}, {"pitch": 67, "tick": 377520, "length": 60, "velocity": 112}, {"pitch": 70, "tick": 377640, "length": 60, "velocity": 112}, {"pitch": 74, "tick": 377760, "length": 60, "velocity": 112}, {"pitch": 70, "tick": 377880, "length": 60, "velocity": 112}, {"pitch": 67, "tick": 378000, "length": 60, "velocity": 112}, {"pitch": 63, "tick": 378120, "length": 60, "velocity": 112}, {"pitch": 60, "tick": 378240, "length": 60, "velocity": 112}, {"pitch": 65, "tick": 378360, "length": 60, "velocity": 112}, {"pitch": 68, "tick": 378480, "length": 60, "velocity": 112}, {"pitch": 72, "tick": 378600, "length": 60, "velocity": 112}, {"pitch": 75, "tick": 378720, "length": 60, "velocity": 112}, {"pitch": 72, "tick": 378840, "length": 60, "velocity": 112}, {"pitch": 68, "tick": 378960, "length": 60, "velocity": 112}, {"pitch": 65, "tick": 379080, "length": 60, "velocity": 112}, {"pitch": 60, "tick": 379200, "length": 60, "velocity": 112}, {"pitch": 65, "tick": 379320, "length": 60, "velocity": 112}, {"pitch": 68, "tick": 379440, "length": 60, "velocity": 112}, {"pitch": 72, "tick": 379560, "length": 60, "velocity": 112}, {"pitch": 75, "tick": 379680, "length": 60, "velocity": 112}, {"pitch": 72, "tick": 379800, "length": 60, "velocity": 112}, {"pitch": 68, "tick": 379920, "length": 60, "velocity": 112}, {"pitch": 65, "tick": 380040, "length": 60, "velocity": 112}, {"pitch": 63, "tick": 380160, "length": 60, "velocity": 112}, {"pitch": 67, "tick": 380280, "length": 60, "velocity": 112}, {"pitch": 70, "tick": 380400, "length": 60, "velocity": 112}, {"pitch": 71, "tick": 380520, "length": 60, "velocity": 112}, {"pitch": 75, "tick": 380640, "length": 60, "velocity": 112}, {"pitch": 71, "tick": 380760, "length": 60, "velocity": 112}, {"pitch": 70, "tick": 380880, "length": 60, "velocity": 112}, {"pitch": 67, "tick": 381000, "length": 60, "velocity": 112}, {"pitch": 63, "tick": 381120, "length": 60, "velocity": 112}, {"pitch": 67, "tick": 381240, "length": 60, "velocity": 112}, {"pitch": 70, "tick": 381360, "length": 60, "velocity": 112}, {"pitch": 71, "tick": 381480, "length": 60, "velocity": 112}, {"pitch": 75, "tick": 381600, "length": 60, "velocity": 112}, {"pitch": 71, "tick": 381720, "length": 60, "velocity": 112}, {"pitch": 70, "tick": 381840, "length": 60, "velocity": 112}, {"pitch": 67, "tick": 381960, "length": 60, "velocity": 112}, {"pitch": 60, "tick": 382080, "length": 60, "velocity": 112}, {"pitch": 63, "tick": 382200, "length": 60, "velocity": 112}, {"pitch": 67, "tick": 382320, "length": 60, "velocity": 112}, {"pitch": 70, "tick": 382440, "length": 60, "velocity": 112}, {"pitch": 74, "tick": 382560, "length": 60, "velocity": 112}, {"pitch": 70, "tick": 382680, "length": 60, "velocity": 112}, {"pitch": 67, "tick": 382800, "length": 60, "velocity": 112}, {"pitch": 63, "tick": 382920, "length": 60, "velocity": 112}, {"pitch": 60, "tick": 383040, "length": 60, "velocity": 112}, {"pitch": 63, "tick": 383160, "length": 60, "velocity": 112}, {"pitch": 67, "tick": 383280, "length": 60, "velocity": 112}, {"pitch": 70, "tick": 383400, "length": 60, "velocity": 112}, {"pitch": 74, "tick": 383520, "length": 60, "velocity": 112}, {"pitch": 70, "tick": 383640, "length": 60, "velocity": 112}, {"pitch": 67, "tick": 383760, "length": 60, "velocity": 112}, {"pitch": 63, "tick": 383880, "length": 60, "velocity": 112}, {"pitch": 63, "tick": 384000, "length": 60, "velocity": 112}, {"pitch": 67, "tick": 384120, "length": 60, "velocity": 112}, {"pitch": 70, "tick": 384240, "length": 60, "velocity": 112}, {"pitch": 74, "tick": 384360, "length": 60, "velocity": 112}, {"pitch": 75, "tick": 384480, "length": 60, "velocity": 112}, {"pitch": 74, "tick": 384600, "length": 60, "velocity": 112}, {"pitch": 70, "tick": 384720, "length": 60, "velocity": 112}, {"pitch": 67, "tick": 384840, "length": 60, "velocity": 112}, {"pitch": 63, "tick": 384960, "length": 60, "velocity": 112}, {"pitch": 67, "tick": 385080, "length": 60, "velocity": 112}, {"pitch": 70, "tick": 385200, "length": 60, "velocity": 112}, {"pitch": 74, "tick": 385320, "length": 60, "velocity": 112}, {"pitch": 75, "tick": 385440, "length": 60, "velocity": 112}, {"pitch": 74, "tick": 385560, "length": 60, "velocity": 112}, {"pitch": 70, "tick": 385680, "length": 60, "velocity": 112}, {"pitch": 67, "tick": 385800, "length": 60, "velocity": 112}, {"pitch": 63, "tick": 385920, "length": 60, "velocity": 112}, {"pitch": 67, "tick": 386040, "length": 60, "velocity": 112}, {"pitch": 68, "tick": 386160, "length": 60, "velocity": 112}, {"pitch": 72, "tick": 386280, "length": 60, "velocity": 112}, {"pitch": 75, "tick": 386400, "length": 60, "velocity": 112}, {"pitch": 72, "tick": 386520, "length": 60, "velocity": 112}, {"pitch": 68, "tick": 386640, "length": 60, "velocity": 112}, {"pitch": 67, "tick": 386760, "length": 60, "velocity": 112}, {"pitch": 63, "tick": 386880, "length": 60, "velocity": 112}, {"pitch": 67, "tick": 387000, "length": 60, "velocity": 112}, {"pitch": 68, "tick": 387120, "length": 60, "velocity": 112}, {"pitch": 72, "tick": 387240, "length": 60, "velocity": 112}, {"pitch": 75, "tick": 387360, "length": 60, "velocity": 112}, {"pitch": 72, "tick": 387480, "length": 60, "velocity": 112}, {"pitch": 68, "tick": 387600, "length": 60, "velocity": 112}, {"pitch": 67, "tick": 387720, "length": 60, "velocity": 112}, {"pitch": 62, "tick": 387840, "length": 60, "velocity": 112}, {"pitch": 65, "tick": 387960, "length": 60, "velocity": 112}, {"pitch": 67, "tick": 388080, "length": 60, "velocity": 112}, {"pitch": 70, "tick": 388200, "length": 60, "velocity": 112}, {"pitch": 74, "tick": 388320, "length": 60, "velocity": 112}, {"pitch": 70, "tick": 388440, "length": 60, "velocity": 112}, {"pitch": 67, "tick": 388560, "length": 60, "velocity": 112}, {"pitch": 65, "tick": 388680, "length": 60, "velocity": 112}, {"pitch": 62, "tick": 388800, "length": 60, "velocity": 112}, {"pitch": 65, "tick": 388920, "length": 60, "velocity": 112}, {"pitch": 67, "tick": 389040, "length": 60, "velocity": 112}, {"pitch": 70, "tick": 389160, "length": 60, "velocity": 112}, {"pitch": 74, "tick": 389280, "length": 60, "velocity": 112}, {"pitch": 70, "tick": 389400, "length": 60, "velocity": 112}, {"pitch": 67, "tick": 389520, "length": 60, "velocity": 112}, {"pitch": 65, "tick": 389640, "length": 60, "velocity": 112}, {"pitch": 63, "tick": 389760, "length": 60, "velocity": 112}, {"pitch": 67, "tick": 389880, "length": 60, "velocity": 112}, {"pitch": 70, "tick": 390000, "length": 60, "velocity": 112}, {"pitch": 72, "tick": 390120, "length": 60, "velocity": 112}, {"pitch": 75, "tick": 390240, "length": 60, "velocity": 112}, {"pitch": 72, "tick": 390360, "length": 60, "velocity": 112}, {"pitch": 70, "tick": 390480, "length": 60, "velocity": 112}, {"pitch": 67, "tick": 390600, "length": 60, "velocity": 112}, {"pitch": 63, "tick": 390720, "length": 60, "velocity": 112}, {"pitch": 67, "tick": 390840, "length": 60, "velocity": 112}, {"pitch": 70, "tick": 390960, "length": 60, "velocity": 112}, {"pitch": 72, "tick": 391080, "length": 60, "velocity": 112}, {"pitch": 75, "tick": 391200, "length": 60, "velocity": 112}, {"pitch": 72, "tick": 391320, "length": 60, "velocity": 112}, {"pitch": 70, "tick": 391440, "length": 60, "velocity": 112}, {"pitch": 67, "tick": 391560, "length": 60, "velocity": 112}, {"pitch": 63, "tick": 391680, "length": 60, "velocity": 112}, {"pitch": 67, "tick": 391800, "length": 60, "velocity": 112}, {"pitch": 70, "tick": 391920, "length": 60, "velocity": 112}, {"pitch": 72, "tick": 392040, "length": 60, "velocity": 112}, {"pitch": 75, "tick": 392160, "length": 60, "velocity": 112}, {"pitch": 72, "tick": 392280, "length": 60, "velocity": 112}, {"pitch": 70, "tick": 392400, "length": 60, "velocity": 112}, {"pitch": 67, "tick": 392520, "length": 60, "velocity": 112}, {"pitch": 63, "tick": 392640, "length": 60, "velocity": 112}, {"pitch": 67, "tick": 392760, "length": 60, "velocity": 112}, {"pitch": 70, "tick": 392880, "length": 60, "velocity": 112}, {"pitch": 72, "tick": 393000, "length": 60, "velocity": 112}, {"pitch": 75, "tick": 393120, "length": 60, "velocity": 112}, {"pitch": 72, "tick": 393240, "length": 60, "velocity": 112}, {"pitch": 70, "tick": 393360, "length": 60, "velocity": 112}, {"pitch": 67, "tick": 393480, "length": 60, "velocity": 112}, {"pitch": 62, "tick": 393600, "length": 60, "velocity": 112}, {"pitch": 65, "tick": 393720, "length": 60, "velocity": 112}, {"pitch": 68, "tick": 393840, "length": 60, "velocity": 112}, {"pitch": 72, "tick": 393960, "length": 60, "velocity": 112}, {"pitch": 77, "tick": 394080, "length": 60, "velocity": 112}, {"pitch": 72, "tick": 394200, "length": 60, "velocity": 112}, {"pitch": 68, "tick": 394320, "length": 60, "velocity": 112}, {"pitch": 65, "tick": 394440, "length": 60, "velocity": 112}, {"pitch": 62, "tick": 394560, "length": 60, "velocity": 112}, {"pitch": 65, "tick": 394680, "length": 60, "velocity": 112}, {"pitch": 68, "tick": 394800, "length": 60, "velocity": 112}, {"pitch": 72, "tick": 394920, "length": 60, "velocity": 112}, {"pitch": 77, "tick": 395040, "length": 60, "velocity": 112}, {"pitch": 72, "tick": 395160, "length": 60, "velocity": 112}, {"pitch": 68, "tick": 395280, "length": 60, "velocity": 112}, {"pitch": 65, "tick": 395400, "length": 60, "velocity": 112}, {"pitch": 65, "tick": 395520, "length": 60, "velocity": 112}, {"pitch": 67, "tick": 395640, "length": 60, "velocity": 112}, {"pitch": 70, "tick": 395760, "length": 60, "velocity": 112}, {"pitch": 71, "tick": 395880, "length": 60, "velocity": 112}, {"pitch": 75, "tick": 396000, "length": 60, "velocity": 112}, {"pitch": 71, "tick": 396120, "length": 60, "velocity": 112}, {"pitch": 70, "tick": 396240, "length": 60, "velocity": 112}, {"pitch": 67, "tick": 396360, "length": 60, "velocity": 112}, {"pitch": 65, "tick": 396480, "length": 60, "velocity": 112}, {"pitch": 67, "tick": 396600, "length": 60, "velocity": 112}, {"pitch": 70, "tick": 396720, "length": 60, "velocity": 112}, {"pitch": 71, "tick": 396840, "length": 60, "velocity": 112}, {"pitch": 75, "tick": 396960, "length": 60, "velocity": 112}, {"pitch": 71, "tick": 397080, "length": 60, "velocity": 112}, {"pitch": 70, "tick": 397200, "length": 60, "velocity": 112}, {"pitch": 67, "tick": 397320, "length": 60, "velocity": 112}, {"pitch": 62, "tick": 397440, "length": 60, "velocity": 112}, {"pitch": 63, "tick": 397560, "length": 60, "velocity": 112}, {"pitch": 67, "tick": 397680, "length": 60, "velocity": 112}, {"pitch": 70, "tick": 397800, "length": 60, "velocity": 112}, {"pitch": 74, "tick": 397920, "length": 60, "velocity": 112}, {"pitch": 70, "tick": 398040, "length": 60, "velocity": 112}, {"pitch": 67, "tick": 398160, "length": 60, "velocity": 112}, {"pitch": 63, "tick": 398280, "length": 60, "velocity": 112}, {"pitch": 62, "tick": 398400, "length": 60, "velocity": 112}, {"pitch": 63, "tick": 398520, "length": 60, "velocity": 112}, {"pitch": 67, "tick": 398640, "length": 60, "velocity": 112}, {"pitch": 70, "tick": 398760, "length": 60, "velocity": 112}, {"pitch": 74, "tick": 398880, "length": 60, "velocity": 112}, {"pitch": 70, "tick": 399000, "length": 60, "velocity": 112}, {"pitch": 67, "tick": 399120, "length": 60, "velocity": 112}, {"pitch": 63, "tick": 399240, "length": 60, "velocity": 112}, {"pitch": 63, "tick": 399360, "length": 60, "velocity": 112}, {"pitch": 64, "tick": 399480, "length": 60, "velocity": 112}, {"pitch": 67, "tick": 399600, "length": 60, "velocity": 112}, {"pitch": 70, "tick": 399720, "length": 60, "velocity": 112}, {"pitch": 73, "tick": 399840, "length": 60, "velocity": 112}, {"pitch": 70, "tick": 399960, "length": 60, "velocity": 112}, {"pitch": 67, "tick": 400080, "length": 60, "velocity": 112}, {"pitch": 64, "tick": 400200, "length": 60, "velocity": 112}, {"pitch": 63, "tick": 400320, "length": 60, "velocity": 112}, {"pitch": 64, "tick": 400440, "length": 60, "velocity": 112}, {"pitch": 67, "tick": 400560, "length": 60, "velocity": 112}, {"pitch": 70, "tick": 400680, "length": 60, "velocity": 112}, {"pitch": 73, "tick": 400800, "length": 60, "velocity": 112}, {"pitch": 70, "tick": 400920, "length": 60, "velocity": 112}, {"pitch": 67, "tick": 401040, "length": 60, "velocity": 112}, {"pitch": 64, "tick": 401160, "length": 60, "velocity": 112}, {"pitch": 63, "tick": 401280, "length": 60, "velocity": 112}, {"pitch": 67, "tick": 401400, "length": 60, "velocity": 112}, {"pitch": 68, "tick": 401520, "length": 60, "velocity": 112}, {"pitch": 72, "tick": 401640, "length": 60, "velocity": 112}, {"pitch": 75, "tick": 401760, "length": 60, "velocity": 112}, {"pitch": 72, "tick": 401880, "length": 60, "velocity": 112}, {"pitch": 68, "tick": 402000, "length": 60, "velocity": 112}, {"pitch": 67, "tick": 402120, "length": 60, "velocity": 112}, {"pitch": 63, "tick": 402240, "length": 60, "velocity": 112}, {"pitch": 67, "tick": 402360, "length": 60, "velocity": 112}, {"pitch": 68, "tick": 402480, "length": 60, "velocity": 112}, {"pitch": 72, "tick": 402600, "length": 60, "velocity": 112}, {"pitch": 75, "tick": 402720, "length": 60, "velocity": 112}, {"pitch": 72, "tick": 402840, "length": 60, "velocity": 112}, {"pitch": 68, "tick": 402960, "length": 60, "velocity": 112}, {"pitch": 67, "tick": 403080, "length": 60, "velocity": 112}, {"pitch": 63, "tick": 403200, "length": 60, "velocity": 112}, {"pitch": 67, "tick": 403320, "length": 60, "velocity": 112}, {"pitch": 70, "tick": 403440, "length": 60, "velocity": 112}, {"pitch": 71, "tick": 403560, "length": 60, "velocity": 112}, {"pitch": 74, "tick": 403680, "length": 60, "velocity": 112}, {"pitch": 71, "tick": 403800, "length": 60, "velocity": 112}, {"pitch": 70, "tick": 403920, "length": 60, "velocity": 112}, {"pitch": 67, "tick": 404040, "length": 60, "velocity": 112}, {"pitch": 63, "tick": 404160, "length": 60, "velocity": 112}, {"pitch": 67, "tick": 404280, "length": 60, "velocity": 112}, {"pitch": 70, "tick": 404400, "length": 60, "velocity": 112}, {"pitch": 71, "tick": 404520, "length": 60, "velocity": 112}, {"pitch": 74, "tick": 404640, "length": 60, "velocity": 112}, {"pitch": 71, "tick": 404760, "length": 60, "velocity": 112}, {"pitch": 70, "tick": 404880, "length": 60, "velocity": 112}, {"pitch": 67, "tick": 405000, "length": 60, "velocity": 112}, {"pitch": 60, "tick": 405120, "length": 60, "velocity": 112}, {"pitch": 63, "tick": 405240, "length": 60, "velocity": 112}, {"pitch": 67, "tick": 405360, "length": 60, "velocity": 112}, {"pitch": 70, "tick": 405480, "length": 60, "velocity": 112}, {"pitch": 74, "tick": 405600, "length": 60, "velocity": 112}, {"pitch": 70, "tick": 405720, "length": 60, "velocity": 112}, {"pitch": 67, "tick": 405840, "length": 60, "velocity": 112}, {"pitch": 63, "tick": 405960, "length": 60, "velocity": 112}, {"pitch": 60, "tick": 406080, "length": 60, "velocity": 112}, {"pitch": 63, "tick": 406200, "length": 60, "velocity": 112}, {"pitch": 67, "tick": 406320, "length": 60, "velocity": 112}, {"pitch": 70, "tick": 406440, "length": 60, "velocity": 112}, {"pitch": 74, "tick": 406560, "length": 60, "velocity": 112}, {"pitch": 70, "tick": 406680, "length": 60, "velocity": 112}, {"pitch": 67, "tick": 406800, "length": 60, "velocity": 112}, {"pitch": 63, "tick": 406920, "length": 60, "velocity": 112}, {"pitch": 60, "tick": 407040, "length": 60, "velocity": 112}, {"pitch": 63, "tick": 407160, "length": 60, "velocity": 112}, {"pitch": 67, "tick": 407280, "length": 60, "velocity": 112}, {"pitch": 70, "tick": 407400, "length": 60, "velocity": 112}, {"pitch": 74, "tick": 407520, "length": 60, "velocity": 112}, {"pitch": 70, "tick": 407640, "length": 60, "velocity": 112}, {"pitch": 67, "tick": 407760, "length": 60, "velocity": 112}, {"pitch": 63, "tick": 407880, "length": 60, "velocity": 112}, {"pitch": 60, "tick": 408000, "length": 60, "velocity": 112}, {"pitch": 63, "tick": 408120, "length": 60, "velocity": 112}, {"pitch": 67, "tick": 408240, "length": 60, "velocity": 112}, {"pitch": 70, "tick": 408360, "length": 60, "velocity": 112}, {"pitch": 72, "tick": 408480, "length": 60, "velocity": 112}, {"pitch": 75, "tick": 408600, "length": 60, "velocity": 112}, {"pitch": 79, "tick": 408720, "length": 60, "velocity": 112}, {"pitch": 82, "tick": 408840, "length": 60, "velocity": 112}]}, {"channel": 5, "length": 408960, "track_name": "\u0083V\u0083\u0093\u0083Z\u0083p\u0083b\u0083h", "events": [{"type": "track_name", "name": "\u0083V\u0083\u0093\u0083Z\u0083p\u0083b\u0083h", "tick": 0}, {"type": "midi_port", "port": 0, "tick": 0}, {"type": "control_change", "control": 0, "value": 121, "channel": 5, "tick": 480}, {"type": "control_change", "control": 32, "value": 0, "channel": 5, "tick": 480}, {"type": "program_change", "program": 91, "channel": 5, "tick": 480}, {"type": "sysex", "data": [65, 16, 0, 72, 18, 16, 0, 37, 63, 1, 11], "tick": 540}, {"type": "control_change", "control": 7, "value": 48, "channel": 5, "tick": 600}, {"type": "control_change", "control": 10, "value": 64, "channel": 5, "tick": 660}, {"type": "control_change", "control": 91, "value": 32, "channel": 5, "tick": 720}, {"type": "control_change", "control": 93, "value": 0, "channel": 5, "tick": 780}, {"type": "control_change", "control": 74, "value": 80, "channel": 5, "tick": 840}, {"type": "control_change", "control": 71, "value": 64, "channel": 5, "tick": 900}, {"type": "control_change", "control": 73, "value": 64, "channel": 5, "tick": 960}, {"type": "control_change", "control": 75, "value": 64, "channel": 5, "tick": 1020}, {"type": "control_change", "control": 72, "value": 60, "channel": 5, "tick": 1080}, {"type": "control_change", "control": 101, "value": 0, "channel": 5, "tick": 1140}, {"type": "control_change", "control": 100, "value": 0, "channel": 5, "tick": 1140}, {"type": "control_change", "control": 6, "value": 12, "channel": 5, "tick": 1140}, {"type": "control_change", "control": 38, "value": 0, "channel": 5, "tick": 1140}, {"type": "pitchwheel", "channel": 5, "pitch": 0, "tick": 1200}, {"type": "control_change", "control": 1, "value": 0, "channel": 5, "tick": 1260}, {"type": "control_change", "control": 11, "value": 127, "channel": 5, "tick": 1320}, {"type": "control_change", "control": 101, "value": 127, "channel": 5, "tick": 1380}, {"type": "control_change", "control": 100, "value": 127, "channel": 5, "tick": 1380}, {"type": "control_change", "control": 6, "value": 0, "channel": 5, "tick": 1380}, {"type": "control_change", "control": 38, "value": 0, "channel": 5, "tick": 1380}, {"type": "control_change", "control": 74, "value": 80, "channel": 5, "tick": 216480}, {"type": "control_change", "control": 74, "value": 79, "channel": 5, "tick": 216600}, {"type": "control_change", "control": 74, "value": 78, "channel": 5, "tick": 216840}, {"type": "control_change", "control": 74, "value": 77, "channel": 5, "tick": 216960}, {"type": "control_change", "control": 74, "value": 76, "channel": 5, "tick": 217080}, {"type": "control_change", "control": 74, "value": 75, "channel": 5, "tick": 217320}, {"type": "control_change", "control": 74, "value": 74, "channel": 5, "tick": 217440}, {"type": "control_change", "control": 74, "value": 73, "channel": 5, "tick": 217560}, {"type": "control_change", "control": 74, "value": 72, "channel": 5, "tick": 217800}, {"type": "control_change", "control": 74, "value": 71, "channel": 5, "tick": 217920}, {"type": "control_change", "control": 74, "value": 70, "channel": 5, "tick": 218040}, {"type": "control_change", "control": 74, "value": 69, "channel": 5, "tick": 218280}, {"type": "control_change", "control": 74, "value": 68, "channel": 5, "tick": 218400}, {"type": "control_change", "control": 74, "value": 67, "channel": 5, "tick": 218520}, {"type": "control_change", "control": 74, "value": 66, "channel": 5, "tick": 218760}, {"type": "control_change", "control": 74, "value": 65, "channel": 5, "tick": 218880}, {"type": "control_change", "control": 74, "value": 64, "channel": 5, "tick": 219000}, {"type": "control_change", "control": 74, "value": 63, "channel": 5, "tick": 219120}, {"type": "control_change", "control": 74, "value": 62, "channel": 5, "tick": 219360}, {"type": "control_change", "control": 74, "value": 61, "channel": 5, "tick": 219480}, {"type": "control_change", "control": 74, "value": 60, "channel": 5, "tick": 219600}, {"type": "control_change", "control": 74, "value": 59, "channel": 5, "tick": 219840}, {"type": "control_change", "control": 74, "value": 58, "channel": 5, "tick": 219960}, {"type": "control_change", "control": 74, "value": 57, "channel": 5, "tick": 220080}, {"type": "control_change", "control": 74, "value": 56, "channel": 5, "tick": 220320}, {"type": "control_change", "control": 74, "value": 55, "channel": 5, "tick": 220440}, {"type": "control_change", "control": 74, "value": 54, "channel": 5, "tick": 220560}, {"type": "control_change", "control": 74, "value": 53, "channel": 5, "tick": 220800}, {"type": "control_change", "control": 74, "value": 52, "channel": 5, "tick": 220920}, {"type": "control_change", "control": 74, "value": 51, "channel": 5, "tick": 221040}, {"type": "control_change", "control": 74, "value": 50, "channel": 5, "tick": 221280}, {"type": "control_change", "control": 74, "value": 49, "channel": 5, "tick": 221400}, {"type": "control_change", "control": 74, "value": 48, "channel": 5, "tick": 221520}, {"type": "control_change", "control": 74, "value": 47, "channel": 5, "tick": 221760}, {"type": "control_change", "control": 74, "value": 46, "channel": 5, "tick": 221880}, {"type": "control_change", "control": 74, "value": 45, "channel": 5, "tick": 222000}, {"type": "control_change", "control": 74, "value": 44, "channel": 5, "tick": 222240}, {"type": "control_change", "control": 74, "value": 43, "channel": 5, "tick": 222360}, {"type": "control_change", "control": 74, "value": 42, "channel": 5, "tick": 222480}, {"type": "control_change", "control": 74, "value": 41, "channel": 5, "tick": 222720}, {"type": "control_change", "control": 74, "value": 40, "channel": 5, "tick": 222840}, {"type": "control_change", "control": 74, "value": 39, "channel": 5, "tick": 222960}, {"type": "control_change", "control": 74, "value": 38, "channel": 5, "tick": 223200}, {"type": "control_change", "control": 74, "value": 37, "channel": 5, "tick": 223320}, {"type": "control_change", "control": 74, "value": 36, "channel": 5, "tick": 223440}, {"type": "control_change", "control": 74, "value": 35, "channel": 5, "tick": 223680}, {"type": "control_change", "control": 74, "value": 34, "channel": 5, "tick": 223800}, {"type": "control_change", "control": 74, "value": 33, "channel": 5, "tick": 223920}, {"type": "control_change", "control": 74, "value": 32, "channel": 5, "tick": 224160}, {"type": "control_change", "control": 74, "value": 32, "channel": 5, "tick": 278400}, {"type": "control_change", "control": 74, "value": 33, "channel": 5, "tick": 278520}, {"type": "control_change", "control": 74, "value": 34, "channel": 5, "tick": 278760}, {"type": "control_change", "control": 74, "value": 35, "channel": 5, "tick": 278880}, {"type": "control_change", "control": 74, "value": 36, "channel": 5, "tick": 279000}, {"type": "control_change", "control": 74, "value": 37, "channel": 5, "tick": 279240}, {"type": "control_change", "control": 74, "value": 38, "channel": 5, "tick": 279360}, {"type": "control_change", "control": 74, "value": 39, "channel": 5, "tick": 279480}, {"type": "control_change", "control": 74, "value": 40, "channel": 5, "tick": 279720}, {"type": "control_change", "control": 74, "value": 41, "channel": 5, "tick": 279840}, {"type": "control_change", "control": 74, "value": 42, "channel": 5, "tick": 279960}, {"type": "control_change", "control": 74, "value": 43, "channel": 5, "tick": 280200}, {"type": "control_change", "control": 74, "value": 44, "channel": 5, "tick": 280320}, {"type": "control_change", "control": 74, "value": 45, "channel": 5, "tick": 280440}, {"type": "control_change", "control": 74, "value": 46, "channel": 5, "tick": 280680}, {"type": "control_change", "control": 74, "value": 47, "channel": 5, "tick": 280800}, {"type": "control_change", "control": 74, "value": 48, "channel": 5, "tick": 280920}, {"type": "control_change", "control": 74, "value": 49, "channel": 5, "tick": 281160}, {"type": "control_change", "control": 74, "value": 50, "channel": 5, "tick": 281280}, {"type": "control_change", "control": 74, "value": 51, "channel": 5, "tick": 281400}, {"type": "control_change", "control": 74, "value": 52, "channel": 5, "tick": 281640}, {"type": "control_change", "control": 74, "value": 53, "channel": 5, "tick": 281760}, {"type": "control_change", "control": 74, "value": 54, "channel": 5, "tick": 281880}, {"type": "control_change", "control": 74, "value": 55, "channel": 5, "tick": 282120}, {"type": "control_change", "control": 74, "value": 56, "channel": 5, "tick": 282240}, {"type": "control_change", "control": 74, "value": 57, "channel": 5, "tick": 282360}, {"type": "control_change", "control": 74, "value": 58, "channel": 5, "tick": 282600}, {"type": "control_change", "control": 74, "value": 59, "channel": 5, "tick": 282720}, {"type": "control_change", "control": 74, "value": 60, "channel": 5, "tick": 282840}, {"type": "control_change", "control": 74, "value": 61, "channel": 5, "tick": 283080}, {"type": "control_change", "control": 74, "value": 62, "channel": 5, "tick": 283200}, {"type": "control_change", "control": 74, "value": 63, "channel": 5, "tick": 283320}, {"type": "control_change", "control": 74, "value": 64, "channel": 5, "tick": 283560}, {"type": "control_change", "control": 74, "value": 65, "channel": 5, "tick": 283680}, {"type": "control_change", "control": 74, "value": 66, "channel": 5, "tick": 283800}, {"type": "control_change", "control": 74, "value": 67, "channel": 5, "tick": 283920}, {"type": "control_change", "control": 74, "value": 68, "channel": 5, "tick": 284160}, {"type": "control_change", "control": 74, "value": 69, "channel": 5, "tick": 284280}, {"type": "control_change", "control": 74, "value": 70, "channel": 5, "tick": 284400}, {"type": "control_change", "control": 74, "value": 71, "channel": 5, "tick": 284640}, {"type": "control_change", "control": 74, "value": 72, "channel": 5, "tick": 284760}, {"type": "control_change", "control": 74, "value": 73, "channel": 5, "tick": 284880}, {"type": "control_change", "control": 74, "value": 74, "channel": 5, "tick": 285120}, {"type": "control_change", "control": 74, "value": 75, "channel": 5, "tick": 285240}, {"type": "control_change", "control": 74, "value": 76, "channel": 5, "tick": 285360}, {"type": "control_change", "control": 74, "value": 77, "channel": 5, "tick": 285600}, {"type": "control_change", "control": 74, "value": 78, "channel": 5, "tick": 285720}, {"type": "control_change", "control": 74, "value": 79, "channel": 5, "tick": 285840}, {"type": "control_change", "control": 74, "value": 80, "channel": 5, "tick": 286080}, {"type": "end_of_track", "tick": 408960}], "notes": [{"pitch": 70, "tick": 124800, "length": 3840, "velocity": 80}, {"pitch": 67, "tick": 124800, "length": 3840, "velocity": 80}, {"pitch": 63, "tick": 124800, "length": 3840, "velocity": 80}, {"pitch": 74, "tick": 126720, "length": 1920, "velocity": 80}, {"pitch": 72, "tick": 128640, "length": 1920, "velocity": 80}, {"pitch": 68, "tick": 128640, "length": 1920, "velocity": 80}, {"pitch": 63, "tick": 128640, "length": 1920, "velocity": 80}, {"pitch": 74, "tick": 130560, "length": 1920, "velocity": 80}, {"pitch": 70, "tick": 130560, "length": 1920, "velocity": 80}, {"pitch": 65, "tick": 130560, "length": 1920, "velocity": 80}, {"pitch": 72, "tick": 132480, "length": 3840, "velocity": 80}, {"pitch": 63, "tick": 132480, "length": 3840, "velocity": 80}, {"pitch": 67, "tick": 132480, "length": 3840, "velocity": 80}, {"pitch": 70, "tick": 134400, "length": 1920, "velocity": 80}, {"pitch": 75, "tick": 136320, "length": 1920, "velocity": 80}, {"pitch": 72, "tick": 136320, "length": 1920, "velocity": 80}, {"pitch": 68, "tick": 136320, "length": 1920, "velocity": 80}, {"pitch": 65, "tick": 136320, "length": 1920, "velocity": 80}, {"pitch": 74, "tick": 138240, "length": 1920, "velocity": 80}, {"pitch": 71, "tick": 138240, "length": 1920, "velocity": 80}, {"pitch": 65, "tick": 138240, "length": 1920, "velocity": 80}, {"pitch": 68, "tick": 138240, "length": 1920, "velocity": 80}, {"pitch": 70, "tick": 140160, "length": 3840, "velocity": 80}, {"pitch": 67, "tick": 140160, "length": 3840, "velocity": 80}, {"pitch": 63, "tick": 140160, "length": 3840, "velocity": 80}, {"pitch": 74, "tick": 142080, "length": 1920, "velocity": 80}, {"pitch": 72, "tick": 144000, "length": 1920, "velocity": 80}, {"pitch": 68, "tick": 144000, "length": 1920, "velocity": 80}, {"pitch": 63, "tick": 144000, "length": 1920, "velocity": 80}, {"pitch": 74, "tick": 145920, "length": 1920, "velocity": 80}, {"pitch": 70, "tick": 145920, "length": 1920, "velocity": 80}, {"pitch": 65, "tick": 145920, "length": 1920, "velocity": 80}, {"pitch": 72, "tick": 147840, "length": 3840, "velocity": 80}, {"pitch": 63, "tick": 147840, "length": 3840, "velocity": 80}, {"pitch": 67, "tick": 147840, "length": 3840, "velocity": 80}, {"pitch": 70, "tick": 149760, "length": 1920, "velocity": 80}, {"pitch": 75, "tick": 151680, "length": 1920, "velocity": 80}, {"pitch": 72, "tick": 151680, "length": 1920, "velocity": 80}, {"pitch": 68, "tick": 151680, "length": 1920, "velocity": 80}, {"pitch": 65, "tick": 151680, "length": 1920, "velocity": 80}, {"pitch": 74, "tick": 153600, "length": 1920, "velocity": 80}, {"pitch": 71, "tick": 153600, "length": 1920, "velocity": 80}, {"pitch": 65, "tick": 153600, "length": 1920, "velocity": 80}, {"pitch": 68, "tick": 153600, "length": 1920, "velocity": 80}, {"pitch": 72, "tick": 155520, "length": 1920, "velocity": 80}, {"pitch": 63, "tick": 155520, "length": 1920, "velocity": 80}, {"pitch": 68, "tick": 155520, "length": 1920, "velocity": 80}, {"pitch": 75, "tick": 157440, "length": 1920, "velocity": 80}, {"pitch": 65, "tick": 157440, "length": 1920, "velocity": 80}, {"pitch": 71, "tick": 157440, "length": 1920, "velocity": 80}, {"pitch": 70, "tick": 157440, "length": 1920, "velocity": 80}, {"pitch": 74, "tick": 159360, "length": 3840, "velocity": 80}, {"pitch": 70, "tick": 159360, "length": 3840, "velocity": 80}, {"pitch": 67, "tick": 159360, "length": 3840, "velocity": 80}, {"pitch": 63, "tick": 159360, "length": 3840, "velocity": 80}, {"pitch": 75, "tick": 163200, "length": 1920, "velocity": 80}, {"pitch": 72, "tick": 163200, "length": 1920, "velocity": 80}, {"pitch": 67, "tick": 163200, "length": 1920, "velocity": 80}, {"pitch": 74, "tick": 165120, "length": 1920, "velocity": 80}, {"pitch": 70, "tick": 165120, "length": 1920, "velocity": 80}, {"pitch": 65, "tick": 165120, "length": 1920, "velocity": 80}, {"pitch": 67, "tick": 167040, "length": 3840, "velocity": 80}, {"pitch": 70, "tick": 167040, "length": 3840, "velocity": 80}, {"pitch": 63, "tick": 167040, "length": 3840, "velocity": 80}, {"pitch": 72, "tick": 167040, "length": 1920, "velocity": 80}, {"pitch": 72, "tick": 170880, "length": 1920, "velocity": 80}, {"pitch": 65, "tick": 170880, "length": 1920, "velocity": 80}, {"pitch": 67, "tick": 170880, "length": 1920, "velocity": 80}, {"pitch": 68, "tick": 170880, "length": 1920, "velocity": 80}, {"pitch": 75, "tick": 172800, "length": 1920, "velocity": 80}, {"pitch": 70, "tick": 172800, "length": 1920, "velocity": 80}, {"pitch": 71, "tick": 172800, "length": 1920, "velocity": 80}, {"pitch": 65, "tick": 172800, "length": 1920, "velocity": 80}, {"pitch": 74, "tick": 174720, "length": 1920, "velocity": 80}, {"pitch": 70, "tick": 174720, "length": 1920, "velocity": 80}, {"pitch": 67, "tick": 174720, "length": 1920, "velocity": 80}, {"pitch": 63, "tick": 174720, "length": 1920, "velocity": 80}, {"pitch": 73, "tick": 176640, "length": 1920, "velocity": 80}, {"pitch": 64, "tick": 176640, "length": 1920, "velocity": 80}, {"pitch": 70, "tick": 176640, "length": 1920, "velocity": 80}, {"pitch": 67, "tick": 176640, "length": 1920, "velocity": 80}, {"pitch": 72, "tick": 178560, "length": 1920, "velocity": 80}, {"pitch": 67, "tick": 178560, "length": 1920, "velocity": 80}, {"pitch": 63, "tick": 178560, "length": 1920, "velocity": 80}, {"pitch": 75, "tick": 180480, "length": 1920, "velocity": 80}, {"pitch": 65, "tick": 180480, "length": 1920, "velocity": 80}, {"pitch": 71, "tick": 180480, "length": 1920, "velocity": 80}, {"pitch": 70, "tick": 180480, "length": 1920, "velocity": 80}, {"pitch": 74, "tick": 182400, "length": 3840, "velocity": 80}, {"pitch": 70, "tick": 182400, "length": 3840, "velocity": 80}, {"pitch": 67, "tick": 182400, "length": 3840, "velocity": 80}, {"pitch": 65, "tick": 182400, "length": 1920, "velocity": 80}, {"pitch": 63, "tick": 182400, "length": 3840, "velocity": 80}, {"pitch": 72, "tick": 186240, "length": 1920, "velocity": 80}, {"pitch": 63, "tick": 186240, "length": 1920, "velocity": 80}, {"pitch": 68, "tick": 186240, "length": 1920, "velocity": 80}, {"pitch": 75, "tick": 188160, "length": 1920, "velocity": 80}, {"pitch": 65, "tick": 188160, "length": 1920, "velocity": 80}, {"pitch": 71, "tick": 188160, "length": 1920, "velocity": 80}, {"pitch": 70, "tick": 188160, "length": 1920, "velocity": 80}, {"pitch": 74, "tick": 190080, "length": 3840, "velocity": 80}, {"pitch": 70, "tick": 190080, "length": 3840, "velocity": 80}, {"pitch": 67, "tick": 190080, "length": 3840, "velocity": 80}, {"pitch": 63, "tick": 190080, "length": 3840, "velocity": 80}, {"pitch": 75, "tick": 193920, "length": 1920, "velocity": 80}, {"pitch": 72, "tick": 193920, "length": 1920, "velocity": 80}, {"pitch": 67, "tick": 193920, "length": 1920, "velocity": 80}, {"pitch": 74, "tick": 195840, "length": 1920, "velocity": 80}, {"pitch": 70, "tick": 195840, "length": 1920, "velocity": 80}, {"pitch": 65, "tick": 195840, "length": 1920, "velocity": 80}, {"pitch": 67, "tick": 197760, "length": 3840, "velocity": 80}, {"pitch": 70, "tick": 197760, "length": 3840, "velocity": 80}, {"pitch": 63, "tick": 197760, "length": 3840, "velocity": 80}, {"pitch": 72, "tick": 197760, "length": 1920, "velocity": 80}, {"pitch": 72, "tick": 201600, "length": 1920, "velocity": 80}, {"pitch": 65, "tick": 201600, "length": 1920, "velocity": 80}, {"pitch": 67, "tick": 201600, "length": 1920, "velocity": 80}, {"pitch": 68, "tick": 201600, "length": 1920, "velocity": 80}, {"pitch": 75, "tick": 203520, "length": 1920, "velocity": 80}, {"pitch": 70, "tick": 203520, "length": 1920, "velocity": 80}, {"pitch": 71, "tick": 203520, "length": 1920, "velocity": 80}, {"pitch": 65, "tick": 203520, "length": 1920, "velocity": 80}, {"pitch": 74, "tick": 205440, "length": 1920, "velocity": 80}, {"pitch": 70, "tick": 205440, "length": 1920, "velocity": 80}, {"pitch": 67, "tick": 205440, "length": 1920, "velocity": 80}, {"pitch": 63, "tick": 205440, "length": 1920, "velocity": 80}, {"pitch": 73, "tick": 207360, "length": 1920, "velocity": 80}, {"pitch": 64, "tick": 207360, "length": 1920, "velocity": 80}, {"pitch": 70, "tick": 207360, "length": 1920, "velocity": 80}, {"pitch": 67, "tick": 207360, "length": 1920, "velocity": 80}, {"pitch": 72, "tick": 209280, "length": 1920, "velocity": 80}, {"pitch": 67, "tick": 209280, "length": 1920, "velocity": 80}, {"pitch": 63, "tick": 209280, "length": 1920, "velocity": 80}, {"pitch": 75, "tick": 211200, "length": 1920, "velocity": 80}, {"pitch": 65, "tick": 211200, "length": 1920, "velocity": 80}, {"pitch": 71, "tick": 211200, "length": 1920, "velocity": 80}, {"pitch": 70, "tick": 211200, "length": 1920, "velocity": 80}, {"pitch": 74, "tick": 213120, "length": 3360, "velocity": 80}, {"pitch": 70, "tick": 213120, "length": 3360, "velocity": 80}, {"pitch": 67, "tick": 213120, "length": 3360, "velocity": 80}, {"pitch": 65, "tick": 213120, "length": 1920, "velocity": 80}, {"pitch": 63, "tick": 213120, "length": 3360, "velocity": 80}, {"pitch": 70, "tick": 216480, "length": 7680, "velocity": 96}, {"pitch": 67, "tick": 216480, "length": 7680, "velocity": 96}, {"pitch": 63, "tick": 216480, "length": 7680, "velocity": 96}, {"pitch": 58, "tick": 216480, "length": 7680, "velocity": 96}, {"pitch": 48, "tick": 216480, "length": 7680, "velocity": 96}, {"pitch": 41, "tick": 224160, "length": 2400, "velocity": 96}, {"pitch": 72, "tick": 224160, "length": 2400, "velocity": 96}, {"pitch": 68, "tick": 224160, "length": 2400, "velocity": 96}, {"pitch": 63, "tick": 224160, "length": 2400, "velocity": 96}, {"pitch": 43, "tick": 226560, "length": 1920, "velocity": 96}, {"pitch": 75, "tick": 226560, "length": 1920, "velocity": 96}, {"pitch": 71, "tick": 226560, "length": 1920, "velocity": 96}, {"pitch": 70, "tick": 226560, "length": 1920, "velocity": 96}, {"pitch": 65, "tick": 226560, "length": 1920, "velocity": 96}, {"pitch": 48, "tick": 228480, "length": 1920, "velocity": 96}, {"pitch": 74, "tick": 228480, "length": 3840, "velocity": 96}, {"pitch": 70, "tick": 228480, "length": 3840, "velocity": 96}, {"pitch": 67, "tick": 228480, "length": 3840, "velocity": 96}, {"pitch": 63, "tick": 228480, "length": 3840, "velocity": 96}, {"pitch": 39, "tick": 230400, "length": 1920, "velocity": 96}, {"pitch": 44, "tick": 232320, "length": 1920, "velocity": 96}, {"pitch": 75, "tick": 232320, "length": 1920, "velocity": 96}, {"pitch": 72, "tick": 232320, "length": 1920, "velocity": 96}, {"pitch": 67, "tick": 232320, "length": 1920, "velocity": 96}, {"pitch": 43, "tick": 234240, "length": 1920, "velocity": 96}, {"pitch": 74, "tick": 234240, "length": 1920, "velocity": 96}, {"pitch": 70, "tick": 234240, "length": 1920, "velocity": 96}, {"pitch": 65, "tick": 234240, "length": 1920, "velocity": 96}, {"pitch": 48, "tick": 236160, "length": 3840, "velocity": 96}, {"pitch": 70, "tick": 236160, "length": 3840, "velocity": 96}, {"pitch": 67, "tick": 236160, "length": 3840, "velocity": 96}, {"pitch": 63, "tick": 236160, "length": 3840, "velocity": 96}, {"pitch": 38, "tick": 240000, "length": 1920, "velocity": 96}, {"pitch": 72, "tick": 240000, "length": 1920, "velocity": 96}, {"pitch": 68, "tick": 240000, "length": 1920, "velocity": 96}, {"pitch": 67, "tick": 240000, "length": 1920, "velocity": 96}, {"pitch": 65, "tick": 240000, "length": 1920, "velocity": 96}, {"pitch": 43, "tick": 241920, "length": 1920, "velocity": 96}, {"pitch": 75, "tick": 241920, "length": 1920, "velocity": 96}, {"pitch": 71, "tick": 241920, "length": 1920, "velocity": 96}, {"pitch": 70, "tick": 241920, "length": 1920, "velocity": 96}, {"pitch": 65, "tick": 241920, "length": 1920, "velocity": 96}, {"pitch": 48, "tick": 243840, "length": 1920, "velocity": 96}, {"pitch": 74, "tick": 243840, "length": 1920, "velocity": 96}, {"pitch": 70, "tick": 243840, "length": 1920, "velocity": 96}, {"pitch": 67, "tick": 243840, "length": 1920, "velocity": 96}, {"pitch": 63, "tick": 243840, "length": 1920, "velocity": 96}, {"pitch": 39, "tick": 245760, "length": 1920, "velocity": 96}, {"pitch": 73, "tick": 245760, "length": 1920, "velocity": 96}, {"pitch": 70, "tick": 245760, "length": 1920, "velocity": 96}, {"pitch": 67, "tick": 245760, "length": 1920, "velocity": 96}, {"pitch": 64, "tick": 245760, "length": 1920, "velocity": 96}, {"pitch": 44, "tick": 247680, "length": 1920, "velocity": 96}, {"pitch": 72, "tick": 247680, "length": 1920, "velocity": 96}, {"pitch": 67, "tick": 247680, "length": 1920, "velocity": 96}, {"pitch": 63, "tick": 247680, "length": 1920, "velocity": 96}, {"pitch": 43, "tick": 249600, "length": 1920, "velocity": 96}, {"pitch": 75, "tick": 249600, "length": 1920, "velocity": 96}, {"pitch": 71, "tick": 249600, "length": 1920, "velocity": 96}, {"pitch": 70, "tick": 249600, "length": 1920, "velocity": 96}, {"pitch": 65, "tick": 249600, "length": 1920, "velocity": 96}, {"pitch": 48, "tick": 251520, "length": 3840, "velocity": 96}, {"pitch": 74, "tick": 251520, "length": 3840, "velocity": 96}, {"pitch": 70, "tick": 251520, "length": 3840, "velocity": 96}, {"pitch": 67, "tick": 251520, "length": 3840, "velocity": 96}, {"pitch": 63, "tick": 251520, "length": 3840, "velocity": 96}, {"pitch": 72, "tick": 255360, "length": 1920, "velocity": 96}, {"pitch": 68, "tick": 255360, "length": 1920, "velocity": 96}, {"pitch": 63, "tick": 255360, "length": 1920, "velocity": 96}, {"pitch": 53, "tick": 255360, "length": 1920, "velocity": 96}, {"pitch": 75, "tick": 257280, "length": 1920, "velocity": 96}, {"pitch": 71, "tick": 257280, "length": 1920, "velocity": 96}, {"pitch": 70, "tick": 257280, "length": 1920, "velocity": 96}, {"pitch": 65, "tick": 257280, "length": 1920, "velocity": 96}, {"pitch": 55, "tick": 257280, "length": 1920, "velocity": 96}, {"pitch": 74, "tick": 259200, "length": 3840, "velocity": 96}, {"pitch": 70, "tick": 259200, "length": 3840, "velocity": 96}, {"pitch": 67, "tick": 259200, "length": 3840, "velocity": 96}, {"pitch": 63, "tick": 259200, "length": 3840, "velocity": 96}, {"pitch": 60, "tick": 259200, "length": 1920, "velocity": 96}, {"pitch": 51, "tick": 261120, "length": 1920, "velocity": 96}, {"pitch": 75, "tick": 263040, "length": 1920, "velocity": 96}, {"pitch": 72, "tick": 263040, "length": 1920, "velocity": 96}, {"pitch": 67, "tick": 263040, "length": 1920, "velocity": 96}, {"pitch": 56, "tick": 263040, "length": 1920, "velocity": 96}, {"pitch": 74, "tick": 264960, "length": 1920, "velocity": 96}, {"pitch": 70, "tick": 264960, "length": 1920, "velocity": 96}, {"pitch": 65, "tick": 264960, "length": 1920, "velocity": 96}, {"pitch": 55, "tick": 264960, "length": 1920, "velocity": 96}, {"pitch": 70, "tick": 266880, "length": 3840, "velocity": 96}, {"pitch": 67, "tick": 266880, "length": 3840, "velocity": 96}, {"pitch": 63, "tick": 266880, "length": 3840, "velocity": 96}, {"pitch": 60, "tick": 266880, "length": 3840, "velocity": 96}, {"pitch": 72, "tick": 270720, "length": 1920, "velocity": 96}, {"pitch": 68, "tick": 270720, "length": 1920, "velocity": 96}, {"pitch": 67, "tick": 270720, "length": 1920, "velocity": 96}, {"pitch": 65, "tick": 270720, "length": 1920, "velocity": 96}, {"pitch": 50, "tick": 270720, "length": 1920, "velocity": 96}, {"pitch": 75, "tick": 272640, "length": 1920, "velocity": 96}, {"pitch": 71, "tick": 272640, "length": 1920, "velocity": 96}, {"pitch": 70, "tick": 272640, "length": 1920, "velocity": 96}, {"pitch": 65, "tick": 272640, "length": 1920, "velocity": 96}, {"pitch": 55, "tick": 272640, "length": 1920, "velocity": 96}, {"pitch": 74, "tick": 274560, "length": 1920, "velocity": 96}, {"pitch": 70, "tick": 274560, "length": 1920, "velocity": 96}, {"pitch": 67, "tick": 274560, "length": 1920, "velocity": 96}, {"pitch": 63, "tick": 274560, "length": 1920, "velocity": 96}, {"pitch": 60, "tick": 274560, "length": 1920, "velocity": 96}, {"pitch": 73, "tick": 276480, "length": 1920, "velocity": 96}, {"pitch": 70, "tick": 276480, "length": 1920, "velocity": 96}, {"pitch": 67, "tick": 276480, "length": 1920, "velocity": 96}, {"pitch": 64, "tick": 276480, "length": 1920, "velocity": 96}, {"pitch": 51, "tick": 276480, "length": 1920, "velocity": 96}, {"pitch": 72, "tick": 278400, "length": 1920, "velocity": 96}, {"pitch": 67, "tick": 278400, "length": 1920, "velocity": 96}, {"pitch": 63, "tick": 278400, "length": 1920, "velocity": 96}, {"pitch": 56, "tick": 278400, "length": 1920, "velocity": 96}, {"pitch": 75, "tick": 280320, "length": 1920, "velocity": 96}, {"pitch": 71, "tick": 280320, "length": 1920, "velocity": 96}, {"pitch": 70, "tick": 280320, "length": 1920, "velocity": 96}, {"pitch": 65, "tick": 280320, "length": 1920, "velocity": 96}, {"pitch": 55, "tick": 280320, "length": 1920, "velocity": 96}, {"pitch": 74, "tick": 282240, "length": 3840, "velocity": 96}, {"pitch": 70, "tick": 282240, "length": 3840, "velocity": 96}, {"pitch": 67, "tick": 282240, "length": 3840, "velocity": 96}, {"pitch": 63, "tick": 282240, "length": 3840, "velocity": 96}, {"pitch": 60, "tick": 282240, "length": 3840, "velocity": 96}, {"pitch": 72, "tick": 286080, "length": 1920, "velocity": 96}, {"pitch": 63, "tick": 286080, "length": 1920, "velocity": 96}, {"pitch": 68, "tick": 286080, "length": 1920, "velocity": 96}, {"pitch": 53, "tick": 286080, "length": 1920, "velocity": 96}, {"pitch": 75, "tick": 288000, "length": 1920, "velocity": 96}, {"pitch": 65, "tick": 288000, "length": 1920, "velocity": 96}, {"pitch": 71, "tick": 288000, "length": 1920, "velocity": 96}, {"pitch": 70, "tick": 288000, "length": 1920, "velocity": 96}, {"pitch": 55, "tick": 288000, "length": 1920, "velocity": 96}, {"pitch": 74, "tick": 289920, "length": 3840, "velocity": 96}, {"pitch": 70, "tick": 289920, "length": 3840, "velocity": 96}, {"pitch": 67, "tick": 289920, "length": 3840, "velocity": 96}, {"pitch": 63, "tick": 289920, "length": 3840, "velocity": 96}, {"pitch": 60, "tick": 289920, "length": 1920, "velocity": 96}, {"pitch": 51, "tick": 291840, "length": 1920, "velocity": 96}, {"pitch": 75, "tick": 293760, "length": 1920, "velocity": 96}, {"pitch": 72, "tick": 293760, "length": 1920, "velocity": 96}, {"pitch": 67, "tick": 293760, "length": 1920, "velocity": 96}, {"pitch": 56, "tick": 293760, "length": 1920, "velocity": 96}, {"pitch": 74, "tick": 295680, "length": 1920, "velocity": 96}, {"pitch": 70, "tick": 295680, "length": 1920, "velocity": 96}, {"pitch": 65, "tick": 295680, "length": 1920, "velocity": 96}, {"pitch": 55, "tick": 295680, "length": 1920, "velocity": 96}, {"pitch": 67, "tick": 297600, "length": 3840, "velocity": 96}, {"pitch": 70, "tick": 297600, "length": 3840, "velocity": 96}, {"pitch": 63, "tick": 297600, "length": 3840, "velocity": 96}, {"pitch": 72, "tick": 297600, "length": 1920, "velocity": 96}, {"pitch": 60, "tick": 297600, "length": 3840, "velocity": 96}, {"pitch": 72, "tick": 301440, "length": 1920, "velocity": 96}, {"pitch": 65, "tick": 301440, "length": 1920, "velocity": 96}, {"pitch": 67, "tick": 301440, "length": 1920, "velocity": 96}, {"pitch": 68, "tick": 301440, "length": 1920, "velocity": 96}, {"pitch": 50, "tick": 301440, "length": 1920, "velocity": 96}, {"pitch": 75, "tick": 303360, "length": 1920, "velocity": 96}, {"pitch": 70, "tick": 303360, "length": 1920, "velocity": 96}, {"pitch": 71, "tick": 303360, "length": 1920, "velocity": 96}, {"pitch": 65, "tick": 303360, "length": 1920, "velocity": 96}, {"pitch": 55, "tick": 303360, "length": 1920, "velocity": 96}, {"pitch": 74, "tick": 305280, "length": 1920, "velocity": 96}, {"pitch": 70, "tick": 305280, "length": 1920, "velocity": 96}, {"pitch": 67, "tick": 305280, "length": 1920, "velocity": 96}, {"pitch": 63, "tick": 305280, "length": 1920, "velocity": 96}, {"pitch": 60, "tick": 305280, "length": 1920, "velocity": 96}, {"pitch": 73, "tick": 307200, "length": 1920, "velocity": 96}, {"pitch": 64, "tick": 307200, "length": 1920, "velocity": 96}, {"pitch": 70, "tick": 307200, "length": 1920, "velocity": 96}, {"pitch": 67, "tick": 307200, "length": 1920, "velocity": 96}, {"pitch": 51, "tick": 307200, "length": 1920, "velocity": 96}, {"pitch": 72, "tick": 309120, "length": 1920, "velocity": 96}, {"pitch": 67, "tick": 309120, "length": 1920, "velocity": 96}, {"pitch": 63, "tick": 309120, "length": 1920, "velocity": 96}, {"pitch": 56, "tick": 309120, "length": 1920, "velocity": 96}, {"pitch": 75, "tick": 311040, "length": 1920, "velocity": 96}, {"pitch": 65, "tick": 311040, "length": 1920, "velocity": 96}, {"pitch": 71, "tick": 311040, "length": 1920, "velocity": 96}, {"pitch": 70, "tick": 311040, "length": 1920, "velocity": 96}, {"pitch": 55, "tick": 311040, "length": 1920, "velocity": 96}, {"pitch": 74, "tick": 312960, "length": 3840, "velocity": 96}, {"pitch": 70, "tick": 312960, "length": 3840, "velocity": 96}, {"pitch": 67, "tick": 312960, "length": 3840, "velocity": 96}, {"pitch": 65, "tick": 312960, "length": 1920, "velocity": 96}, {"pitch": 60, "tick": 312960, "length": 3840, "velocity": 96}, {"pitch": 63, "tick": 312960, "length": 3840, "velocity": 96}, {"pitch": 72, "tick": 316800, "length": 1920, "velocity": 96}, {"pitch": 63, "tick": 316800, "length": 1920, "velocity": 96}, {"pitch": 68, "tick": 316800, "length": 1920, "velocity": 96}, {"pitch": 53, "tick": 316800, "length": 1920, "velocity": 96}, {"pitch": 75, "tick": 318720, "length": 1920, "velocity": 96}, {"pitch": 65, "tick": 318720, "length": 1920, "velocity": 96}, {"pitch": 71, "tick": 318720, "length": 1920, "velocity": 96}, {"pitch": 70, "tick": 318720, "length": 1920, "velocity": 96}, {"pitch": 55, "tick": 318720, "length": 1920, "velocity": 96}, {"pitch": 74, "tick": 320640, "length": 3840, "velocity": 96}, {"pitch": 70, "tick": 320640, "length": 3840, "velocity": 96}, {"pitch": 67, "tick": 320640, "length": 3840, "velocity": 96}, {"pitch": 63, "tick": 320640, "length": 3840, "velocity": 96}, {"pitch": 60, "tick": 320640, "length": 1920, "velocity": 96}, {"pitch": 51, "tick": 322560, "length": 1920, "velocity": 96}, {"pitch": 75, "tick": 324480, "length": 1920, "velocity": 96}, {"pitch": 72, "tick": 324480, "length": 1920, "velocity": 96}, {"pitch": 67, "tick": 324480, "length": 1920, "velocity": 96}, {"pitch": 56, "tick": 324480, "length": 1920, "velocity": 96}, {"pitch": 74, "tick": 326400, "length": 1920, "velocity": 96}, {"pitch": 70, "tick": 326400, "length": 1920, "velocity": 96}, {"pitch": 65, "tick": 326400, "length": 1920, "velocity": 96}, {"pitch": 55, "tick": 326400, "length": 1920, "velocity": 96}, {"pitch": 67, "tick": 328320, "length": 3840, "velocity": 96}, {"pitch": 70, "tick": 328320, "length": 3840, "velocity": 96}, {"pitch": 63, "tick": 328320, "length": 3840, "velocity": 96}, {"pitch": 72, "tick": 328320, "length": 1920, "velocity": 96}, {"pitch": 60, "tick": 328320, "length": 3840, "velocity": 96}, {"pitch": 72, "tick": 332160, "length": 1920, "velocity": 96}, {"pitch": 65, "tick": 332160, "length": 1920, "velocity": 96}, {"pitch": 67, "tick": 332160, "length": 1920, "velocity": 96}, {"pitch": 68, "tick": 332160, "length": 1920, "velocity": 96}, {"pitch": 50, "tick": 332160, "length": 1920, "velocity": 96}, {"pitch": 75, "tick": 334080, "length": 1920, "velocity": 96}, {"pitch": 70, "tick": 334080, "length": 1920, "velocity": 96}, {"pitch": 71, "tick": 334080, "length": 1920, "velocity": 96}, {"pitch": 65, "tick": 334080, "length": 1920, "velocity": 96}, {"pitch": 55, "tick": 334080, "length": 1920, "velocity": 96}, {"pitch": 74, "tick": 336000, "length": 1920, "velocity": 96}, {"pitch": 70, "tick": 336000, "length": 1920, "velocity": 96}, {"pitch": 67, "tick": 336000, "length": 1920, "velocity": 96}, {"pitch": 63, "tick": 336000, "length": 1920, "velocity": 96}, {"pitch": 60, "tick": 336000, "length": 1920, "velocity": 96}, {"pitch": 73, "tick": 337920, "length": 1920, "velocity": 96}, {"pitch": 64, "tick": 337920, "length": 1920, "velocity": 96}, {"pitch": 70, "tick": 337920, "length": 1920, "velocity": 96}, {"pitch": 67, "tick": 337920, "length": 1920, "velocity": 96}, {"pitch": 51, "tick": 337920, "length": 1920, "velocity": 96}, {"pitch": 72, "tick": 339840, "length": 1920, "velocity": 96}, {"pitch": 67, "tick": 339840, "length": 1920, "velocity": 96}, {"pitch": 63, "tick": 339840, "length": 1920, "velocity": 96}, {"pitch": 56, "tick": 339840, "length": 1920, "velocity": 96}, {"pitch": 75, "tick": 341760, "length": 1920, "velocity": 96}, {"pitch": 65, "tick": 341760, "length": 1920, "velocity": 96}, {"pitch": 71, "tick": 341760, "length": 1920, "velocity": 96}, {"pitch": 70, "tick": 341760, "length": 1920, "velocity": 96}, {"pitch": 55, "tick": 341760, "length": 1920, "velocity": 96}, {"pitch": 74, "tick": 343680, "length": 3840, "velocity": 96}, {"pitch": 70, "tick": 343680, "length": 3840, "velocity": 96}, {"pitch": 67, "tick": 343680, "length": 3840, "velocity": 96}, {"pitch": 65, "tick": 343680, "length": 1920, "velocity": 96}, {"pitch": 60, "tick": 343680, "length": 3840, "velocity": 96}, {"pitch": 63, "tick": 343680, "length": 3840, "velocity": 96}, {"pitch": 72, "tick": 347520, "length": 1920, "velocity": 96}, {"pitch": 63, "tick": 347520, "length": 1920, "velocity": 96}, {"pitch": 68, "tick": 347520, "length": 1920, "velocity": 96}, {"pitch": 53, "tick": 347520, "length": 1920, "velocity": 96}, {"pitch": 75, "tick": 349440, "length": 1920, "velocity": 96}, {"pitch": 65, "tick": 349440, "length": 1920, "velocity": 96}, {"pitch": 71, "tick": 349440, "length": 1920, "velocity": 96}, {"pitch": 70, "tick": 349440, "length": 1920, "velocity": 96}, {"pitch": 55, "tick": 349440, "length": 1920, "velocity": 96}, {"pitch": 74, "tick": 351360, "length": 3840, "velocity": 96}, {"pitch": 70, "tick": 351360, "length": 3840, "velocity": 96}, {"pitch": 67, "tick": 351360, "length": 3840, "velocity": 96}, {"pitch": 63, "tick": 351360, "length": 3840, "velocity": 96}, {"pitch": 60, "tick": 351360, "length": 1920, "velocity": 96}, {"pitch": 51, "tick": 353280, "length": 1920, "velocity": 96}, {"pitch": 75, "tick": 355200, "length": 1920, "velocity": 96}, {"pitch": 72, "tick": 355200, "length": 1920, "velocity": 96}, {"pitch": 67, "tick": 355200, "length": 1920, "velocity": 96}, {"pitch": 56, "tick": 355200, "length": 1920, "velocity": 96}, {"pitch": 74, "tick": 357120, "length": 1920, "velocity": 96}, {"pitch": 70, "tick": 357120, "length": 1920, "velocity": 96}, {"pitch": 65, "tick": 357120, "length": 1920, "velocity": 96}, {"pitch": 55, "tick": 357120, "length": 1920, "velocity": 96}, {"pitch": 67, "tick": 359040, "length": 3840, "velocity": 96}, {"pitch": 70, "tick": 359040, "length": 3840, "velocity": 96}, {"pitch": 63, "tick": 359040, "length": 3840, "velocity": 96}, {"pitch": 72, "tick": 359040, "length": 1920, "velocity": 96}, {"pitch": 60, "tick": 359040, "length": 3840, "velocity": 96}, {"pitch": 72, "tick": 362880, "length": 1920, "velocity": 96}, {"pitch": 65, "tick": 362880, "length": 1920, "velocity": 96}, {"pitch": 67, "tick": 362880, "length": 1920, "velocity": 96}, {"pitch": 68, "tick": 362880, "length": 1920, "velocity": 96}, {"pitch": 50, "tick": 362880, "length": 1920, "velocity": 96}, {"pitch": 75, "tick": 364800, "length": 1920, "velocity": 96}, {"pitch": 70, "tick": 364800, "length": 1920, "velocity": 96}, {"pitch": 71, "tick": 364800, "length": 1920, "velocity": 96}, {"pitch": 65, "tick": 364800, "length": 1920, "velocity": 96}, {"pitch": 55, "tick": 364800, "length": 1920, "velocity": 96}, {"pitch": 74, "tick": 366720, "length": 1920, "velocity": 96}, {"pitch": 70, "tick": 366720, "length": 1920, "velocity": 96}, {"pitch": 67, "tick": 366720, "length": 1920, "velocity": 96}, {"pitch": 63, "tick": 366720, "length": 1920, "velocity": 96}, {"pitch": 60, "tick": 366720, "length": 1920, "velocity": 96}, {"pitch": 73, "tick": 368640, "length": 1920, "velocity": 96}, {"pitch": 64, "tick": 368640, "length": 1920, "velocity": 96}, {"pitch": 70, "tick": 368640, "length": 1920, "velocity": 96}, {"pitch": 67, "tick": 368640, "length": 1920, "velocity": 96}, {"pitch": 51, "tick": 368640, "length": 1920, "velocity": 96}, {"pitch": 72, "tick": 370560, "length": 1920, "velocity": 96}, {"pitch": 67, "tick": 370560, "length": 1920, "velocity": 96}, {"pitch": 63, "tick": 370560, "length": 1920, "velocity": 96}, {"pitch": 56, "tick": 370560, "length": 1920, "velocity": 96}, {"pitch": 75, "tick": 372480, "length": 1920, "velocity": 96}, {"pitch": 65, "tick": 372480, "length": 1920, "velocity": 96}, {"pitch": 71, "tick": 372480, "length": 1920, "velocity": 96}, {"pitch": 70, "tick": 372480, "length": 1920, "velocity": 96}, {"pitch": 55, "tick": 372480, "length": 1920, "velocity": 96}, {"pitch": 74, "tick": 374400, "length": 3840, "velocity": 96}, {"pitch": 70, "tick": 374400, "length": 3840, "velocity": 96}, {"pitch": 67, "tick": 374400, "length": 3840, "velocity": 96}, {"pitch": 65, "tick": 374400, "length": 1920, "velocity": 96}, {"pitch": 60, "tick": 374400, "length": 3840, "velocity": 96}, {"pitch": 63, "tick": 374400, "length": 3840, "velocity": 96}, {"pitch": 72, "tick": 378240, "length": 1920, "velocity": 96}, {"pitch": 63, "tick": 378240, "length": 1920, "velocity": 96}, {"pitch": 68, "tick": 378240, "length": 1920, "velocity": 96}, {"pitch": 53, "tick": 378240, "length": 1920, "velocity": 96}, {"pitch": 75, "tick": 380160, "length": 1920, "velocity": 96}, {"pitch": 65, "tick": 380160, "length": 1920, "velocity": 96}, {"pitch": 71, "tick": 380160, "length": 1920, "velocity": 96}, {"pitch": 70, "tick": 380160, "length": 1920, "velocity": 96}, {"pitch": 55, "tick": 380160, "length": 1920, "velocity": 96}, {"pitch": 74, "tick": 382080, "length": 3840, "velocity": 96}, {"pitch": 70, "tick": 382080, "length": 3840, "velocity": 96}, {"pitch": 67, "tick": 382080, "length": 3840, "velocity": 96}, {"pitch": 63, "tick": 382080, "length": 3840, "velocity": 96}, {"pitch": 60, "tick": 382080, "length": 1920, "velocity": 96}, {"pitch": 51, "tick": 384000, "length": 1920, "velocity": 96}, {"pitch": 75, "tick": 385920, "length": 1920, "velocity": 96}, {"pitch": 72, "tick": 385920, "length": 1920, "velocity": 96}, {"pitch": 67, "tick": 385920, "length": 1920, "velocity": 96}, {"pitch": 56, "tick": 385920, "length": 1920, "velocity": 96}, {"pitch": 74, "tick": 387840, "length": 1920, "velocity": 96}, {"pitch": 70, "tick": 387840, "length": 1920, "velocity": 96}, {"pitch": 65, "tick": 387840, "length": 1920, "velocity": 96}, {"pitch": 55, "tick": 387840, "length": 1920, "velocity": 96}, {"pitch": 67, "tick": 389760, "length": 3840, "velocity": 96}, {"pitch": 70, "tick": 389760, "length": 3840, "velocity": 96}, {"pitch": 63, "tick": 389760, "length": 3840, "velocity": 96}, {"pitch": 72, "tick": 389760, "length": 1920, "velocity": 96}, {"pitch": 60, "tick": 389760, "length": 3840, "velocity": 96}, {"pitch": 72, "tick": 393600, "length": 1920, "velocity": 96}, {"pitch": 65, "tick": 393600, "length": 1920, "velocity": 96}, {"pitch": 67, "tick": 393600, "length": 1920, "velocity": 96}, {"pitch": 68, "tick": 393600, "length": 1920, "velocity": 96}, {"pitch": 50, "tick": 393600, "length": 1920, "velocity": 96}, {"pitch": 75, "tick": 395520, "length": 1920, "velocity": 96}, {"pitch": 70, "tick": 395520, "length": 1920, "velocity": 96}, {"pitch": 71, "tick": 395520, "length": 1920, "velocity": 96}, {"pitch": 65, "tick": 395520, "length": 1920, "velocity": 96}, {"pitch": 55, "tick": 395520, "length": 1920, "velocity": 96}, {"pitch": 74, "tick": 397440, "length": 1920, "velocity": 96}, {"pitch": 70, "tick": 397440, "length": 1920, "velocity": 96}, {"pitch": 67, "tick": 397440, "length": 1920, "velocity": 96}, {"pitch": 63, "tick": 397440, "length": 1920, "velocity": 96}, {"pitch": 60, "tick": 397440, "length": 1920, "velocity": 96}, {"pitch": 73, "tick": 399360, "length": 1920, "velocity": 96}, {"pitch": 64, "tick": 399360, "length": 1920, "velocity": 96}, {"pitch": 70, "tick": 399360, "length": 1920, "velocity": 96}, {"pitch": 67, "tick": 399360, "length": 1920, "velocity": 96}, {"pitch": 51, "tick": 399360, "length": 1920, "velocity": 96}, {"pitch": 72, "tick": 401280, "length": 1920, "velocity": 96}, {"pitch": 67, "tick": 401280, "length": 1920, "velocity": 96}, {"pitch": 63, "tick": 401280, "length": 1920, "velocity": 96}, {"pitch": 56, "tick": 401280, "length": 1920, "velocity": 96}, {"pitch": 75, "tick": 403200, "length": 1920, "velocity": 96}, {"pitch": 65, "tick": 403200, "length": 1920, "velocity": 96}, {"pitch": 71, "tick": 403200, "length": 1920, "velocity": 96}, {"pitch": 70, "tick": 403200, "length": 1920, "velocity": 96}, {"pitch": 55, "tick": 403200, "length": 1920, "velocity": 96}, {"pitch": 74, "tick": 405120, "length": 3840, "velocity": 96}, {"pitch": 70, "tick": 405120, "length": 3840, "velocity": 96}, {"pitch": 67, "tick": 405120, "length": 3840, "velocity": 96}, {"pitch": 65, "tick": 405120, "length": 1920, "velocity": 96}, {"pitch": 60, "tick": 405120, "length": 3840, "velocity": 96}, {"pitch": 63, "tick": 405120, "length": 3840, "velocity": 96}]}, {"channel": 6, "length": 531840, "track_name": "\u0083V\u0083\u0093\u0083Z\u0083x\u0081[\u0083X", "events": [{"type": "track_name", "name": "\u0083V\u0083\u0093\u0083Z\u0083x\u0081[\u0083X", "tick": 0}, {"type": "midi_port", "port": 0, "tick": 0}, {"type": "control_change", "control": 0, "value": 121, "channel": 6, "tick": 480}, {"type": "control_change", "control": 32, "value": 1, "channel": 6, "tick": 480}, {"type": "program_change", "program": 38, "channel": 6, "tick": 480}, {"type": "sysex", "data": [65, 16, 0, 72, 18, 16, 0, 38, 63, 0, 11], "tick": 540}, {"type": "control_change", "control": 7, "value": 88, "channel": 6, "tick": 600}, {"type": "control_change", "control": 10, "value": 64, "channel": 6, "tick": 660}, {"type": "control_change", "control": 91, "value": 0, "channel": 6, "tick": 720}, {"type": "control_change", "control": 93, "value": 0, "channel": 6, "tick": 780}, {"type": "control_change", "control": 74, "value": 64, "channel": 6, "tick": 840}, {"type": "control_change", "control": 71, "value": 56, "channel": 6, "tick": 900}, {"type": "control_change", "control": 73, "value": 64, "channel": 6, "tick": 960}, {"type": "control_change", "control": 75, "value": 127, "channel": 6, "tick": 1020}, {"type": "control_change", "control": 72, "value": 56, "channel": 6, "tick": 1080}, {"type": "control_change", "control": 101, "value": 0, "channel": 6, "tick": 1140}, {"type": "control_change", "control": 100, "value": 0, "channel": 6, "tick": 1140}, {"type": "control_change", "control": 6, "value": 12, "channel": 6, "tick": 1140}, {"type": "control_change", "control": 38, "value": 0, "channel": 6, "tick": 1140}, {"type": "pitchwheel", "channel": 6, "pitch": 0, "tick": 1200}, {"type": "control_change", "control": 1, "value": 0, "channel": 6, "tick": 1260}, {"type": "control_change", "control": 11, "value": 127, "channel": 6, "tick": 1320}, {"type": "control_change", "control": 101, "value": 127, "channel": 6, "tick": 1380}, {"type": "control_change", "control": 100, "value": 127, "channel": 6, "tick": 1380}, {"type": "control_change", "control": 6, "value": 0, "channel": 6, "tick": 1380}, {"type": "control_change", "control": 38, "value": 0, "channel": 6, "tick": 1380}, {"type": "end_of_track", "tick": 531840}], "notes": [{"pitch": 36, "tick": 1920, "length": 480, "velocity": 96}, {"pitch": 43, "tick": 2640, "length": 240, "velocity": 96}, {"pitch": 36, "tick": 3120, "length": 240, "velocity": 96}, {"pitch": 31, "tick": 3360, "length": 240, "velocity": 96}, {"pitch": 34, "tick": 3600, "length": 240, "velocity": 96}, {"pitch": 36, "tick": 3840, "length": 480, "velocity": 96}, {"pitch": 43, "tick": 4560, "length": 240, "velocity": 96}, {"pitch": 36, "tick": 5040, "length": 240, "velocity": 96}, {"pitch": 39, "tick": 5280, "length": 240, "velocity": 96}, {"pitch": 34, "tick": 5520, "length": 240, "velocity": 96}, {"pitch": 36, "tick": 5760, "length": 480, "velocity": 96}, {"pitch": 43, "tick": 6480, "length": 240, "velocity": 96}, {"pitch": 36, "tick": 6960, "length": 240, "velocity": 96}, {"pitch": 31, "tick": 7200, "length": 240, "velocity": 96}, {"pitch": 34, "tick": 7440, "length": 240, "velocity": 96}, {"pitch": 36, "tick": 7680, "length": 480, "velocity": 96}, {"pitch": 43, "tick": 8400, "length": 240, "velocity": 96}, {"pitch": 36, "tick": 8880, "length": 240, "velocity": 96}, {"pitch": 39, "tick": 9120, "length": 240, "velocity": 96}, {"pitch": 34, "tick": 9360, "length": 240, "velocity": 96}, {"pitch": 36, "tick": 9600, "length": 480, "velocity": 96}, {"pitch": 43, "tick": 10320, "length": 240, "velocity": 96}, {"pitch": 36, "tick": 10800, "length": 240, "velocity": 96}, {"pitch": 31, "tick": 11040, "length": 240, "velocity": 96}, {"pitch": 34, "tick": 11280, "length": 240, "velocity": 96}, {"pitch": 36, "tick": 11520, "length": 480, "velocity": 96}, {"pitch": 43, "tick": 12240, "length": 240, "velocity": 96}, {"pitch": 36, "tick": 12720, "length": 240, "velocity": 96}, {"pitch": 39, "tick": 12960, "length": 240, "velocity": 96}, {"pitch": 34, "tick": 13200, "length": 240, "velocity": 96}, {"pitch": 36, "tick": 13440, "length": 480, "velocity": 96}, {"pitch": 43, "tick": 14160, "length": 240, "velocity": 96}, {"pitch": 36, "tick": 14640, "length": 240, "velocity": 96}, {"pitch": 31, "tick": 14880, "length": 240, "velocity": 96}, {"pitch": 34, "tick": 15120, "length": 240, "velocity": 96}, {"pitch": 36, "tick": 15360, "length": 480, "velocity": 96}, {"pitch": 43, "tick": 16080, "length": 240, "velocity": 96}, {"pitch": 36, "tick": 16560, "length": 240, "velocity": 96}, {"pitch": 39, "tick": 16800, "length": 240, "velocity": 96}, {"pitch": 34, "tick": 17040, "length": 240, "velocity": 96}, {"pitch": 36, "tick": 17280, "length": 480, "velocity": 96}, {"pitch": 43, "tick": 18000, "length": 240, "velocity": 96}, {"pitch": 36, "tick": 18480, "length": 240, "velocity": 96}, {"pitch": 31, "tick": 18720, "length": 240, "velocity": 96}, {"pitch": 34, "tick": 18960, "length": 240, "velocity": 96}, {"pitch": 36, "tick": 19200, "length": 480, "velocity": 96}, {"pitch": 43, "tick": 19920, "length": 240, "velocity": 96}, {"pitch": 36, "tick": 20400, "length": 240, "velocity": 96}, {"pitch": 39, "tick": 20640, "length": 240, "velocity": 96}, {"pitch": 34, "tick": 20880, "length": 240, "velocity": 96}, {"pitch": 36, "tick": 21120, "length": 480, "velocity": 96}, {"pitch": 43, "tick": 21840, "length": 240, "velocity": 96}, {"pitch": 36, "tick": 22320, "length": 240, "velocity": 96}, {"pitch": 31, "tick": 22560, "length": 240, "velocity": 96}, {"pitch": 34, "tick": 22800, "length": 240, "velocity": 96}, {"pitch": 36, "tick": 23040, "length": 480, "velocity": 96}, {"pitch": 43, "tick": 23760, "length": 240, "velocity": 96}, {"pitch": 36, "tick": 24240, "length": 240, "velocity": 96}, {"pitch": 39, "tick": 24480, "length": 240, "velocity": 96}, {"pitch": 34, "tick": 24720, "length": 240, "velocity": 96}, {"pitch": 36, "tick": 24960, "length": 480, "velocity": 96}, {"pitch": 43, "tick": 25680, "length": 240, "velocity": 96}, {"pitch": 36, "tick": 26160, "length": 240, "velocity": 96}, {"pitch": 31, "tick": 26400, "length": 240, "velocity": 96}, {"pitch": 34, "tick": 26640, "length": 240, "velocity": 96}, {"pitch": 36, "tick": 26880, "length": 480, "velocity": 96}, {"pitch": 43, "tick": 27600, "length": 240, "velocity": 96}, {"pitch": 36, "tick": 28080, "length": 240, "velocity": 96}, {"pitch": 39, "tick": 28320, "length": 240, "velocity": 96}, {"pitch": 34, "tick": 28560, "length": 240, "velocity": 96}, {"pitch": 36, "tick": 28800, "length": 480, "velocity": 96}, {"pitch": 43, "tick": 29520, "length": 240, "velocity": 96}, {"pitch": 36, "tick": 30000, "length": 240, "velocity": 96}, {"pitch": 31, "tick": 30240, "length": 240, "velocity": 96}, {"pitch": 34, "tick": 30480, "length": 240, "velocity": 96}, {"pitch": 36, "tick": 30720, "length": 480, "velocity": 96}, {"pitch": 43, "tick": 31440, "length": 240, "velocity": 96}, {"pitch": 36, "tick": 31920, "length": 240, "velocity": 96}, {"pitch": 39, "tick": 32160, "length": 240, "velocity": 96}, {"pitch": 34, "tick": 32400, "length": 240, "velocity": 96}, {"pitch": 36, "tick": 32640, "length": 480, "velocity": 96}, {"pitch": 43, "tick": 33360, "length": 240, "velocity": 96}, {"pitch": 36, "tick": 33840, "length": 240, "velocity": 96}, {"pitch": 31, "tick": 34080, "length": 240, "velocity": 96}, {"pitch": 34, "tick": 34320, "length": 240, "velocity": 96}, {"pitch": 36, "tick": 34560, "length": 480, "velocity": 96}, {"pitch": 43, "tick": 35280, "length": 240, "velocity": 96}, {"pitch": 36, "tick": 35760, "length": 240, "velocity": 96}, {"pitch": 39, "tick": 36000, "length": 240, "velocity": 96}, {"pitch": 34, "tick": 36240, "length": 240, "velocity": 96}, {"pitch": 36, "tick": 36480, "length": 480, "velocity": 96}, {"pitch": 43, "tick": 37200, "length": 240, "velocity": 96}, {"pitch": 36, "tick": 37680, "length": 240, "velocity": 96}, {"pitch": 31, "tick": 37920, "length": 240, "velocity": 96}, {"pitch": 34, "tick": 38160, "length": 240, "velocity": 96}, {"pitch": 36, "tick": 38400, "length": 480, "velocity": 96}, {"pitch": 43, "tick": 39120, "length": 240, "velocity": 96}, {"pitch": 36, "tick": 39600, "length": 240, "velocity": 96}, {"pitch": 39, "tick": 39840, "length": 240, "velocity": 96}, {"pitch": 34, "tick": 40080, "length": 240, "velocity": 96}, {"pitch": 36, "tick": 40320, "length": 480, "velocity": 96}, {"pitch": 43, "tick": 41040, "length": 240, "velocity": 96}, {"pitch": 36, "tick": 41520, "length": 240, "velocity": 96}, {"pitch": 31, "tick": 41760, "length": 240, "velocity": 96}, {"pitch": 34, "tick": 42000, "length": 240, "velocity": 96}, {"pitch": 36, "tick": 42240, "length": 480, "velocity": 96}, {"pitch": 43, "tick": 42960, "length": 240, "velocity": 96}, {"pitch": 36, "tick": 43440, "length": 240, "velocity": 96}, {"pitch": 39, "tick": 43680, "length": 240, "velocity": 96}, {"pitch": 34, "tick": 43920, "length": 240, "velocity": 96}, {"pitch": 36, "tick": 44160, "length": 480, "velocity": 96}, {"pitch": 43, "tick": 44880, "length": 240, "velocity": 96}, {"pitch": 36, "tick": 45360, "length": 240, "velocity": 96}, {"pitch": 31, "tick": 45600, "length": 240, "velocity": 96}, {"pitch": 34, "tick": 45840, "length": 240, "velocity": 96}, {"pitch": 36, "tick": 46080, "length": 480, "velocity": 96}, {"pitch": 43, "tick": 46800, "length": 240, "velocity": 96}, {"pitch": 36, "tick": 47280, "length": 240, "velocity": 96}, {"pitch": 39, "tick": 47520, "length": 240, "velocity": 96}, {"pitch": 34, "tick": 47760, "length": 240, "velocity": 96}, {"pitch": 36, "tick": 48000, "length": 480, "velocity": 96}, {"pitch": 43, "tick": 48720, "length": 240, "velocity": 96}, {"pitch": 36, "tick": 49200, "length": 240, "velocity": 96}, {"pitch": 31, "tick": 49440, "length": 240, "velocity": 96}, {"pitch": 34, "tick": 49680, "length": 240, "velocity": 96}, {"pitch": 36, "tick": 49920, "length": 480, "velocity": 96}, {"pitch": 43, "tick": 50640, "length": 240, "velocity": 96}, {"pitch": 36, "tick": 51120, "length": 240, "velocity": 96}, {"pitch": 39, "tick": 51360, "length": 240, "velocity": 96}, {"pitch": 34, "tick": 51600, "length": 240, "velocity": 96}, {"pitch": 36, "tick": 51840, "length": 480, "velocity": 96}, {"pitch": 43, "tick": 52560, "length": 240, "velocity": 96}, {"pitch": 36, "tick": 53040, "length": 240, "velocity": 96}, {"pitch": 31, "tick": 53280, "length": 240, "velocity": 96}, {"pitch": 34, "tick": 53520, "length": 240, "velocity": 96}, {"pitch": 36, "tick": 53760, "length": 480, "velocity": 96}, {"pitch": 43, "tick": 54480, "length": 240, "velocity": 96}, {"pitch": 36, "tick": 54960, "length": 240, "velocity": 96}, {"pitch": 39, "tick": 55200, "length": 240, "velocity": 96}, {"pitch": 34, "tick": 55440, "length": 240, "velocity": 96}, {"pitch": 36, "tick": 55680, "length": 480, "velocity": 96}, {"pitch": 43, "tick": 56400, "length": 240, "velocity": 96}, {"pitch": 36, "tick": 56880, "length": 240, "velocity": 96}, {"pitch": 31, "tick": 57120, "length": 240, "velocity": 96}, {"pitch": 34, "tick": 57360, "length": 240, "velocity": 96}, {"pitch": 36, "tick": 57600, "length": 480, "velocity": 96}, {"pitch": 43, "tick": 58320, "length": 240, "velocity": 96}, {"pitch": 36, "tick": 58800, "length": 240, "velocity": 96}, {"pitch": 39, "tick": 59040, "length": 240, "velocity": 96}, {"pitch": 34, "tick": 59280, "length": 240, "velocity": 96}, {"pitch": 36, "tick": 59520, "length": 480, "velocity": 96}, {"pitch": 43, "tick": 60240, "length": 240, "velocity": 96}, {"pitch": 36, "tick": 60720, "length": 240, "velocity": 96}, {"pitch": 31, "tick": 60960, "length": 240, "velocity": 96}, {"pitch": 34, "tick": 61200, "length": 240, "velocity": 96}, {"pitch": 36, "tick": 61440, "length": 480, "velocity": 96}, {"pitch": 43, "tick": 62160, "length": 240, "velocity": 96}, {"pitch": 36, "tick": 62640, "length": 240, "velocity": 96}, {"pitch": 39, "tick": 62880, "length": 240, "velocity": 96}, {"pitch": 34, "tick": 63120, "length": 240, "velocity": 96}, {"pitch": 36, "tick": 63360, "length": 480, "velocity": 96}, {"pitch": 43, "tick": 64080, "length": 240, "velocity": 96}, {"pitch": 36, "tick": 64560, "length": 240, "velocity": 96}, {"pitch": 31, "tick": 64800, "length": 240, "velocity": 96}, {"pitch": 34, "tick": 65040, "length": 240, "velocity": 96}, {"pitch": 36, "tick": 65280, "length": 480, "velocity": 96}, {"pitch": 43, "tick": 66000, "length": 240, "velocity": 96}, {"pitch": 36, "tick": 66480, "length": 240, "velocity": 96}, {"pitch": 39, "tick": 66720, "length": 240, "velocity": 96}, {"pitch": 34, "tick": 66960, "length": 240, "velocity": 96}, {"pitch": 36, "tick": 67200, "length": 480, "velocity": 96}, {"pitch": 43, "tick": 67920, "length": 240, "velocity": 96}, {"pitch": 36, "tick": 68400, "length": 240, "velocity": 96}, {"pitch": 31, "tick": 68640, "length": 240, "velocity": 96}, {"pitch": 34, "tick": 68880, "length": 240, "velocity": 96}, {"pitch": 36, "tick": 69120, "length": 480, "velocity": 96}, {"pitch": 43, "tick": 69840, "length": 240, "velocity": 96}, {"pitch": 36, "tick": 70320, "length": 240, "velocity": 96}, {"pitch": 39, "tick": 70560, "length": 240, "velocity": 96}, {"pitch": 34, "tick": 70800, "length": 240, "velocity": 96}, {"pitch": 36, "tick": 71040, "length": 480, "velocity": 96}, {"pitch": 43, "tick": 71760, "length": 240, "velocity": 96}, {"pitch": 36, "tick": 72240, "length": 240, "velocity": 96}, {"pitch": 31, "tick": 72480, "length": 240, "velocity": 96}, {"pitch": 34, "tick": 72720, "length": 240, "velocity": 96}, {"pitch": 36, "tick": 72960, "length": 480, "velocity": 96}, {"pitch": 43, "tick": 73680, "length": 240, "velocity": 96}, {"pitch": 36, "tick": 74160, "length": 240, "velocity": 96}, {"pitch": 39, "tick": 74400, "length": 240, "velocity": 96}, {"pitch": 34, "tick": 74640, "length": 240, "velocity": 96}, {"pitch": 36, "tick": 74880, "length": 480, "velocity": 96}, {"pitch": 43, "tick": 75600, "length": 240, "velocity": 96}, {"pitch": 36, "tick": 76080, "length": 240, "velocity": 96}, {"pitch": 31, "tick": 76320, "length": 240, "velocity": 96}, {"pitch": 34, "tick": 76560, "length": 240, "velocity": 96}, {"pitch": 36, "tick": 76800, "length": 480, "velocity": 96}, {"pitch": 43, "tick": 77520, "length": 240, "velocity": 96}, {"pitch": 36, "tick": 78000, "length": 240, "velocity": 96}, {"pitch": 39, "tick": 78240, "length": 240, "velocity": 96}, {"pitch": 34, "tick": 78480, "length": 240, "velocity": 96}, {"pitch": 36, "tick": 78720, "length": 480, "velocity": 96}, {"pitch": 43, "tick": 79440, "length": 240, "velocity": 96}, {"pitch": 36, "tick": 79920, "length": 240, "velocity": 96}, {"pitch": 31, "tick": 80160, "length": 240, "velocity": 96}, {"pitch": 34, "tick": 80400, "length": 240, "velocity": 96}, {"pitch": 36, "tick": 80640, "length": 480, "velocity": 96}, {"pitch": 43, "tick": 81360, "length": 240, "velocity": 96}, {"pitch": 36, "tick": 81840, "length": 240, "velocity": 96}, {"pitch": 39, "tick": 82080, "length": 240, "velocity": 96}, {"pitch": 34, "tick": 82320, "length": 240, "velocity": 96}, {"pitch": 36, "tick": 82560, "length": 480, "velocity": 96}, {"pitch": 43, "tick": 83280, "length": 240, "velocity": 96}, {"pitch": 36, "tick": 83760, "length": 240, "velocity": 96}, {"pitch": 31, "tick": 84000, "length": 240, "velocity": 96}, {"pitch": 34, "tick": 84240, "length": 240, "velocity": 96}, {"pitch": 36, "tick": 84480, "length": 480, "velocity": 96}, {"pitch": 43, "tick": 85200, "length": 240, "velocity": 96}, {"pitch": 36, "tick": 85680, "length": 240, "velocity": 96}, {"pitch": 39, "tick": 85920, "length": 240, "velocity": 96}, {"pitch": 34, "tick": 86160, "length": 240, "velocity": 96}, {"pitch": 36, "tick": 86400, "length": 480, "velocity": 96}, {"pitch": 43, "tick": 87120, "length": 240, "velocity": 96}, {"pitch": 36, "tick": 87600, "length": 240, "velocity": 96}, {"pitch": 31, "tick": 87840, "length": 240, "velocity": 96}, {"pitch": 34, "tick": 88080, "length": 240, "velocity": 96}, {"pitch": 36, "tick": 88320, "length": 480, "velocity": 96}, {"pitch": 43, "tick": 89040, "length": 240, "velocity": 96}, {"pitch": 36, "tick": 89520, "length": 240, "velocity": 96}, {"pitch": 39, "tick": 89760, "length": 240, "velocity": 96}, {"pitch": 34, "tick": 90000, "length": 240, "velocity": 96}, {"pitch": 36, "tick": 90240, "length": 480, "velocity": 96}, {"pitch": 43, "tick": 90960, "length": 240, "velocity": 96}, {"pitch": 36, "tick": 91440, "length": 240, "velocity": 96}, {"pitch": 31, "tick": 91680, "length": 240, "velocity": 96}, {"pitch": 34, "tick": 91920, "length": 240, "velocity": 96}, {"pitch": 36, "tick": 92160, "length": 480, "velocity": 96}, {"pitch": 43, "tick": 92880, "length": 240, "velocity": 96}, {"pitch": 36, "tick": 93360, "length": 240, "velocity": 96}, {"pitch": 39, "tick": 93600, "length": 240, "velocity": 96}, {"pitch": 34, "tick": 93840, "length": 240, "velocity": 96}, {"pitch": 36, "tick": 94080, "length": 480, "velocity": 96}, {"pitch": 43, "tick": 94800, "length": 240, "velocity": 96}, {"pitch": 36, "tick": 95280, "length": 240, "velocity": 96}, {"pitch": 31, "tick": 95520, "length": 240, "velocity": 96}, {"pitch": 34, "tick": 95760, "length": 240, "velocity": 96}, {"pitch": 36, "tick": 96000, "length": 480, "velocity": 96}, {"pitch": 43, "tick": 96720, "length": 240, "velocity": 96}, {"pitch": 36, "tick": 97200, "length": 240, "velocity": 96}, {"pitch": 31, "tick": 97440, "length": 240, "velocity": 96}, {"pitch": 30, "tick": 97680, "length": 240, "velocity": 96}, {"pitch": 29, "tick": 97920, "length": 480, "velocity": 96}, {"pitch": 41, "tick": 98640, "length": 240, "velocity": 96}, {"pitch": 29, "tick": 99120, "length": 240, "velocity": 96}, {"pitch": 36, "tick": 99360, "length": 240, "velocity": 96}, {"pitch": 34, "tick": 99600, "length": 240, "velocity": 96}, {"pitch": 31, "tick": 99840, "length": 480, "velocity": 96}, {"pitch": 38, "tick": 100560, "length": 240, "velocity": 96}, {"pitch": 31, "tick": 101040, "length": 240, "velocity": 96}, {"pitch": 43, "tick": 101280, "length": 240, "velocity": 96}, {"pitch": 31, "tick": 101520, "length": 240, "velocity": 96}, {"pitch": 32, "tick": 101760, "length": 480, "velocity": 96}, {"pitch": 39, "tick": 102480, "length": 240, "velocity": 96}, {"pitch": 32, "tick": 102960, "length": 240, "velocity": 96}, {"pitch": 44, "tick": 103200, "length": 240, "velocity": 96}, {"pitch": 31, "tick": 103440, "length": 240, "velocity": 96}, {"pitch": 32, "tick": 103680, "length": 480, "velocity": 96}, {"pitch": 44, "tick": 104400, "length": 240, "velocity": 96}, {"pitch": 32, "tick": 104880, "length": 240, "velocity": 96}, {"pitch": 44, "tick": 105120, "length": 240, "velocity": 96}, {"pitch": 39, "tick": 105360, "length": 240, "velocity": 96}, {"pitch": 29, "tick": 105600, "length": 480, "velocity": 96}, {"pitch": 41, "tick": 106320, "length": 240, "velocity": 96}, {"pitch": 36, "tick": 106800, "length": 240, "velocity": 96}, {"pitch": 32, "tick": 107040, "length": 240, "velocity": 96}, {"pitch": 29, "tick": 107280, "length": 240, "velocity": 96}, {"pitch": 31, "tick": 107520, "length": 480, "velocity": 96}, {"pitch": 38, "tick": 108240, "length": 240, "velocity": 96}, {"pitch": 43, "tick": 108720, "length": 240, "velocity": 96}, {"pitch": 38, "tick": 108960, "length": 240, "velocity": 96}, {"pitch": 34, "tick": 109200, "length": 240, "velocity": 96}, {"pitch": 36, "tick": 109440, "length": 480, "velocity": 96}, {"pitch": 43, "tick": 110160, "length": 240, "velocity": 96}, {"pitch": 36, "tick": 110640, "length": 240, "velocity": 96}, {"pitch": 31, "tick": 110880, "length": 240, "velocity": 96}, {"pitch": 34, "tick": 111120, "length": 240, "velocity": 96}, {"pitch": 36, "tick": 111360, "length": 480, "velocity": 96}, {"pitch": 43, "tick": 112080, "length": 240, "velocity": 96}, {"pitch": 36, "tick": 112560, "length": 240, "velocity": 96}, {"pitch": 31, "tick": 112800, "length": 240, "velocity": 96}, {"pitch": 30, "tick": 113040, "length": 240, "velocity": 96}, {"pitch": 29, "tick": 113280, "length": 480, "velocity": 96}, {"pitch": 41, "tick": 114000, "length": 240, "velocity": 96}, {"pitch": 29, "tick": 114480, "length": 240, "velocity": 96}, {"pitch": 36, "tick": 114720, "length": 240, "velocity": 96}, {"pitch": 34, "tick": 114960, "length": 240, "velocity": 96}, {"pitch": 31, "tick": 115200, "length": 480, "velocity": 96}, {"pitch": 38, "tick": 115920, "length": 240, "velocity": 96}, {"pitch": 31, "tick": 116400, "length": 240, "velocity": 96}, {"pitch": 43, "tick": 116640, "length": 240, "velocity": 96}, {"pitch": 31, "tick": 116880, "length": 240, "velocity": 96}, {"pitch": 32, "tick": 117120, "length": 480, "velocity": 96}, {"pitch": 39, "tick": 117840, "length": 240, "velocity": 96}, {"pitch": 32, "tick": 118320, "length": 240, "velocity": 96}, {"pitch": 44, "tick": 118560, "length": 240, "velocity": 96}, {"pitch": 31, "tick": 118800, "length": 240, "velocity": 96}, {"pitch": 32, "tick": 119040, "length": 480, "velocity": 96}, {"pitch": 44, "tick": 119760, "length": 240, "velocity": 96}, {"pitch": 39, "tick": 120240, "length": 240, "velocity": 96}, {"pitch": 44, "tick": 120480, "length": 240, "velocity": 96}, {"pitch": 39, "tick": 120720, "length": 240, "velocity": 96}, {"pitch": 29, "tick": 120960, "length": 480, "velocity": 96}, {"pitch": 41, "tick": 121680, "length": 240, "velocity": 96}, {"pitch": 36, "tick": 122160, "length": 240, "velocity": 96}, {"pitch": 32, "tick": 122400, "length": 240, "velocity": 96}, {"pitch": 29, "tick": 122640, "length": 240, "velocity": 96}, {"pitch": 31, "tick": 122880, "length": 480, "velocity": 96}, {"pitch": 38, "tick": 123600, "length": 240, "velocity": 96}, {"pitch": 43, "tick": 124080, "length": 240, "velocity": 96}, {"pitch": 38, "tick": 124320, "length": 240, "velocity": 96}, {"pitch": 34, "tick": 124560, "length": 240, "velocity": 96}, {"pitch": 36, "tick": 124800, "length": 480, "velocity": 96}, {"pitch": 43, "tick": 125520, "length": 240, "velocity": 96}, {"pitch": 36, "tick": 126000, "length": 240, "velocity": 96}, {"pitch": 31, "tick": 126240, "length": 240, "velocity": 96}, {"pitch": 34, "tick": 126480, "length": 240, "velocity": 96}, {"pitch": 36, "tick": 126720, "length": 480, "velocity": 96}, {"pitch": 43, "tick": 127440, "length": 240, "velocity": 96}, {"pitch": 36, "tick": 127920, "length": 240, "velocity": 96}, {"pitch": 31, "tick": 128160, "length": 240, "velocity": 96}, {"pitch": 30, "tick": 128400, "length": 240, "velocity": 96}, {"pitch": 29, "tick": 128640, "length": 480, "velocity": 96}, {"pitch": 41, "tick": 129360, "length": 240, "velocity": 96}, {"pitch": 29, "tick": 129840, "length": 240, "velocity": 96}, {"pitch": 36, "tick": 130080, "length": 240, "velocity": 96}, {"pitch": 34, "tick": 130320, "length": 240, "velocity": 96}, {"pitch": 31, "tick": 130560, "length": 480, "velocity": 96}, {"pitch": 38, "tick": 131280, "length": 240, "velocity": 96}, {"pitch": 31, "tick": 131760, "length": 240, "velocity": 96}, {"pitch": 43, "tick": 132000, "length": 240, "velocity": 96}, {"pitch": 31, "tick": 132240, "length": 240, "velocity": 96}, {"pitch": 32, "tick": 132480, "length": 480, "velocity": 96}, {"pitch": 39, "tick": 133200, "length": 240, "velocity": 96}, {"pitch": 32, "tick": 133680, "length": 240, "velocity": 96}, {"pitch": 44, "tick": 133920, "length": 240, "velocity": 96}, {"pitch": 31, "tick": 134160, "length": 240, "velocity": 96}, {"pitch": 32, "tick": 134400, "length": 480, "velocity": 96}, {"pitch": 44, "tick": 135120, "length": 240, "velocity": 96}, {"pitch": 39, "tick": 135600, "length": 240, "velocity": 96}, {"pitch": 44, "tick": 135840, "length": 240, "velocity": 96}, {"pitch": 39, "tick": 136080, "length": 240, "velocity": 96}, {"pitch": 29, "tick": 136320, "length": 480, "velocity": 96}, {"pitch": 41, "tick": 137040, "length": 240, "velocity": 96}, {"pitch": 36, "tick": 137520, "length": 240, "velocity": 96}, {"pitch": 32, "tick": 137760, "length": 240, "velocity": 96}, {"pitch": 29, "tick": 138000, "length": 240, "velocity": 96}, {"pitch": 31, "tick": 138240, "length": 480, "velocity": 96}, {"pitch": 38, "tick": 138960, "length": 240, "velocity": 96}, {"pitch": 43, "tick": 139440, "length": 240, "velocity": 96}, {"pitch": 38, "tick": 139680, "length": 240, "velocity": 96}, {"pitch": 34, "tick": 139920, "length": 240, "velocity": 96}, {"pitch": 36, "tick": 140160, "length": 480, "velocity": 96}, {"pitch": 43, "tick": 140880, "length": 240, "velocity": 96}, {"pitch": 36, "tick": 141360, "length": 240, "velocity": 96}, {"pitch": 31, "tick": 141600, "length": 240, "velocity": 96}, {"pitch": 34, "tick": 141840, "length": 240, "velocity": 96}, {"pitch": 36, "tick": 142080, "length": 480, "velocity": 96}, {"pitch": 43, "tick": 142800, "length": 240, "velocity": 96}, {"pitch": 36, "tick": 143280, "length": 240, "velocity": 96}, {"pitch": 31, "tick": 143520, "length": 240, "velocity": 96}, {"pitch": 30, "tick": 143760, "length": 240, "velocity": 96}, {"pitch": 29, "tick": 144000, "length": 480, "velocity": 96}, {"pitch": 41, "tick": 144720, "length": 240, "velocity": 96}, {"pitch": 29, "tick": 145200, "length": 240, "velocity": 96}, {"pitch": 36, "tick": 145440, "length": 240, "velocity": 96}, {"pitch": 34, "tick": 145680, "length": 240, "velocity": 96}, {"pitch": 31, "tick": 145920, "length": 480, "velocity": 96}, {"pitch": 38, "tick": 146640, "length": 240, "velocity": 96}, {"pitch": 31, "tick": 147120, "length": 240, "velocity": 96}, {"pitch": 43, "tick": 147360, "length": 240, "velocity": 96}, {"pitch": 31, "tick": 147600, "length": 240, "velocity": 96}, {"pitch": 32, "tick": 147840, "length": 480, "velocity": 96}, {"pitch": 39, "tick": 148560, "length": 240, "velocity": 96}, {"pitch": 32, "tick": 149040, "length": 240, "velocity": 96}, {"pitch": 44, "tick": 149280, "length": 240, "velocity": 96}, {"pitch": 31, "tick": 149520, "length": 240, "velocity": 96}, {"pitch": 32, "tick": 149760, "length": 480, "velocity": 96}, {"pitch": 44, "tick": 150480, "length": 240, "velocity": 96}, {"pitch": 39, "tick": 150960, "length": 240, "velocity": 96}, {"pitch": 44, "tick": 151200, "length": 240, "velocity": 96}, {"pitch": 39, "tick": 151440, "length": 240, "velocity": 96}, {"pitch": 29, "tick": 151680, "length": 480, "velocity": 96}, {"pitch": 41, "tick": 152400, "length": 240, "velocity": 96}, {"pitch": 36, "tick": 152880, "length": 240, "velocity": 96}, {"pitch": 32, "tick": 153120, "length": 240, "velocity": 96}, {"pitch": 29, "tick": 153360, "length": 240, "velocity": 96}, {"pitch": 31, "tick": 153600, "length": 480, "velocity": 96}, {"pitch": 38, "tick": 154320, "length": 240, "velocity": 96}, {"pitch": 43, "tick": 154800, "length": 240, "velocity": 96}, {"pitch": 38, "tick": 155040, "length": 240, "velocity": 96}, {"pitch": 34, "tick": 155280, "length": 240, "velocity": 96}, {"pitch": 29, "tick": 155520, "length": 480, "velocity": 96}, {"pitch": 41, "tick": 156240, "length": 240, "velocity": 96}, {"pitch": 36, "tick": 156720, "length": 240, "velocity": 96}, {"pitch": 41, "tick": 156960, "length": 240, "velocity": 96}, {"pitch": 32, "tick": 157200, "length": 240, "velocity": 96}, {"pitch": 31, "tick": 157440, "length": 480, "velocity": 96}, {"pitch": 38, "tick": 158160, "length": 240, "velocity": 96}, {"pitch": 43, "tick": 158640, "length": 240, "velocity": 96}, {"pitch": 38, "tick": 158880, "length": 240, "velocity": 96}, {"pitch": 34, "tick": 159120, "length": 240, "velocity": 96}, {"pitch": 36, "tick": 159360, "length": 480, "velocity": 96}, {"pitch": 43, "tick": 160080, "length": 240, "velocity": 96}, {"pitch": 36, "tick": 160560, "length": 240, "velocity": 96}, {"pitch": 31, "tick": 160800, "length": 240, "velocity": 96}, {"pitch": 36, "tick": 161040, "length": 240, "velocity": 96}, {"pitch": 39, "tick": 161280, "length": 480, "velocity": 96}, {"pitch": 34, "tick": 162000, "length": 240, "velocity": 96}, {"pitch": 34, "tick": 162480, "length": 240, "velocity": 96}, {"pitch": 36, "tick": 162720, "length": 240, "velocity": 96}, {"pitch": 34, "tick": 162960, "length": 240, "velocity": 96}, {"pitch": 32, "tick": 163200, "length": 480, "velocity": 96}, {"pitch": 44, "tick": 163920, "length": 240, "velocity": 96}, {"pitch": 39, "tick": 164400, "length": 240, "velocity": 96}, {"pitch": 44, "tick": 164640, "length": 240, "velocity": 96}, {"pitch": 32, "tick": 164880, "length": 240, "velocity": 96}, {"pitch": 31, "tick": 165120, "length": 480, "velocity": 96}, {"pitch": 43, "tick": 165840, "length": 240, "velocity": 96}, {"pitch": 38, "tick": 166320, "length": 240, "velocity": 96}, {"pitch": 43, "tick": 166560, "length": 240, "velocity": 96}, {"pitch": 31, "tick": 166800, "length": 240, "velocity": 96}, {"pitch": 36, "tick": 167040, "length": 480, "velocity": 96}, {"pitch": 48, "tick": 167760, "length": 240, "velocity": 96}, {"pitch": 43, "tick": 168240, "length": 240, "velocity": 96}, {"pitch": 39, "tick": 168480, "length": 240, "velocity": 96}, {"pitch": 38, "tick": 168720, "length": 240, "velocity": 96}, {"pitch": 36, "tick": 168960, "length": 480, "velocity": 96}, {"pitch": 38, "tick": 169680, "length": 240, "velocity": 96}, {"pitch": 39, "tick": 170160, "length": 240, "velocity": 96}, {"pitch": 43, "tick": 170400, "length": 240, "velocity": 96}, {"pitch": 36, "tick": 170640, "length": 240, "velocity": 96}, {"pitch": 38, "tick": 170880, "length": 480, "velocity": 96}, {"pitch": 44, "tick": 171600, "length": 240, "velocity": 96}, {"pitch": 38, "tick": 172080, "length": 240, "velocity": 96}, {"pitch": 34, "tick": 172320, "length": 240, "velocity": 96}, {"pitch": 32, "tick": 172560, "length": 240, "velocity": 96}, {"pitch": 31, "tick": 172800, "length": 480, "velocity": 96}, {"pitch": 43, "tick": 173520, "length": 240, "velocity": 96}, {"pitch": 31, "tick": 174000, "length": 240, "velocity": 96}, {"pitch": 43, "tick": 174240, "length": 240, "velocity": 96}, {"pitch": 38, "tick": 174480, "length": 240, "velocity": 96}, {"pitch": 36, "tick": 174720, "length": 480, "velocity": 96}, {"pitch": 43, "tick": 175440, "length": 240, "velocity": 96}, {"pitch": 34, "tick": 175920, "length": 240, "velocity": 96}, {"pitch": 36, "tick": 176160, "length": 240, "velocity": 96}, {"pitch": 38, "tick": 176400, "length": 240, "velocity": 96}, {"pitch": 39, "tick": 176640, "length": 480, "velocity": 96}, {"pitch": 46, "tick": 177360, "length": 240, "velocity": 96}, {"pitch": 43, "tick": 177840, "length": 240, "velocity": 96}, {"pitch": 39, "tick": 178080, "length": 240, "velocity": 96}, {"pitch": 34, "tick": 178320, "length": 240, "velocity": 96}, {"pitch": 32, "tick": 178560, "length": 480, "velocity": 96}, {"pitch": 44, "tick": 179280, "length": 240, "velocity": 96}, {"pitch": 32, "tick": 179760, "length": 240, "velocity": 96}, {"pitch": 33, "tick": 180000, "length": 240, "velocity": 96}, {"pitch": 32, "tick": 180240, "length": 240, "velocity": 96}, {"pitch": 31, "tick": 180480, "length": 480, "velocity": 96}, {"pitch": 43, "tick": 181200, "length": 240, "velocity": 96}, {"pitch": 38, "tick": 181680, "length": 240, "velocity": 96}, {"pitch": 31, "tick": 181920, "length": 240, "velocity": 96}, {"pitch": 34, "tick": 182160, "length": 240, "velocity": 96}, {"pitch": 36, "tick": 182400, "length": 480, "velocity": 96}, {"pitch": 48, "tick": 183120, "length": 240, "velocity": 96}, {"pitch": 36, "tick": 183600, "length": 240, "velocity": 96}, {"pitch": 31, "tick": 183840, "length": 240, "velocity": 96}, {"pitch": 34, "tick": 184080, "length": 240, "velocity": 96}, {"pitch": 36, "tick": 184320, "length": 480, "velocity": 96}, {"pitch": 43, "tick": 185040, "length": 240, "velocity": 96}, {"pitch": 36, "tick": 185520, "length": 240, "velocity": 96}, {"pitch": 31, "tick": 185760, "length": 240, "velocity": 96}, {"pitch": 30, "tick": 186000, "length": 240, "velocity": 96}, {"pitch": 29, "tick": 186240, "length": 480, "velocity": 96}, {"pitch": 41, "tick": 186960, "length": 240, "velocity": 96}, {"pitch": 36, "tick": 187440, "length": 240, "velocity": 96}, {"pitch": 41, "tick": 187680, "length": 240, "velocity": 96}, {"pitch": 32, "tick": 187920, "length": 240, "velocity": 96}, {"pitch": 31, "tick": 188160, "length": 480, "velocity": 96}, {"pitch": 38, "tick": 188880, "length": 240, "velocity": 96}, {"pitch": 43, "tick": 189360, "length": 240, "velocity": 96}, {"pitch": 38, "tick": 189600, "length": 240, "velocity": 96}, {"pitch": 34, "tick": 189840, "length": 240, "velocity": 96}, {"pitch": 36, "tick": 190080, "length": 480, "velocity": 96}, {"pitch": 43, "tick": 190800, "length": 240, "velocity": 96}, {"pitch": 36, "tick": 191280, "length": 240, "velocity": 96}, {"pitch": 31, "tick": 191520, "length": 240, "velocity": 96}, {"pitch": 36, "tick": 191760, "length": 240, "velocity": 96}, {"pitch": 39, "tick": 192000, "length": 480, "velocity": 96}, {"pitch": 34, "tick": 192720, "length": 240, "velocity": 96}, {"pitch": 34, "tick": 193200, "length": 240, "velocity": 96}, {"pitch": 36, "tick": 193440, "length": 240, "velocity": 96}, {"pitch": 34, "tick": 193680, "length": 240, "velocity": 96}, {"pitch": 32, "tick": 193920, "length": 480, "velocity": 96}, {"pitch": 44, "tick": 194640, "length": 240, "velocity": 96}, {"pitch": 39, "tick": 195120, "length": 240, "velocity": 96}, {"pitch": 44, "tick": 195360, "length": 240, "velocity": 96}, {"pitch": 32, "tick": 195600, "length": 240, "velocity": 96}, {"pitch": 31, "tick": 195840, "length": 480, "velocity": 96}, {"pitch": 43, "tick": 196560, "length": 240, "velocity": 96}, {"pitch": 38, "tick": 197040, "length": 240, "velocity": 96}, {"pitch": 43, "tick": 197280, "length": 240, "velocity": 96}, {"pitch": 31, "tick": 197520, "length": 240, "velocity": 96}, {"pitch": 36, "tick": 197760, "length": 480, "velocity": 96}, {"pitch": 48, "tick": 198480, "length": 240, "velocity": 96}, {"pitch": 43, "tick": 198960, "length": 240, "velocity": 96}, {"pitch": 39, "tick": 199200, "length": 240, "velocity": 96}, {"pitch": 38, "tick": 199440, "length": 240, "velocity": 96}, {"pitch": 36, "tick": 199680, "length": 480, "velocity": 96}, {"pitch": 38, "tick": 200400, "length": 240, "velocity": 96}, {"pitch": 39, "tick": 200880, "length": 240, "velocity": 96}, {"pitch": 43, "tick": 201120, "length": 240, "velocity": 96}, {"pitch": 36, "tick": 201360, "length": 240, "velocity": 96}, {"pitch": 38, "tick": 201600, "length": 480, "velocity": 96}, {"pitch": 44, "tick": 202320, "length": 240, "velocity": 96}, {"pitch": 38, "tick": 202800, "length": 240, "velocity": 96}, {"pitch": 34, "tick": 203040, "length": 240, "velocity": 96}, {"pitch": 32, "tick": 203280, "length": 240, "velocity": 96}, {"pitch": 31, "tick": 203520, "length": 480, "velocity": 96}, {"pitch": 43, "tick": 204240, "length": 240, "velocity": 96}, {"pitch": 31, "tick": 204720, "length": 240, "velocity": 96}, {"pitch": 43, "tick": 204960, "length": 240, "velocity": 96}, {"pitch": 38, "tick": 205200, "length": 240, "velocity": 96}, {"pitch": 36, "tick": 205440, "length": 480, "velocity": 96}, {"pitch": 43, "tick": 206160, "length": 240, "velocity": 96}, {"pitch": 34, "tick": 206640, "length": 240, "velocity": 96}, {"pitch": 36, "tick": 206880, "length": 240, "velocity": 96}, {"pitch": 38, "tick": 207120, "length": 240, "velocity": 96}, {"pitch": 39, "tick": 207360, "length": 480, "velocity": 96}, {"pitch": 46, "tick": 208080, "length": 240, "velocity": 96}, {"pitch": 43, "tick": 208560, "length": 240, "velocity": 96}, {"pitch": 39, "tick": 208800, "length": 240, "velocity": 96}, {"pitch": 34, "tick": 209040, "length": 240, "velocity": 96}, {"pitch": 32, "tick": 209280, "length": 480, "velocity": 96}, {"pitch": 44, "tick": 210000, "length": 240, "velocity": 96}, {"pitch": 32, "tick": 210480, "length": 240, "velocity": 96}, {"pitch": 33, "tick": 210720, "length": 240, "velocity": 96}, {"pitch": 32, "tick": 210960, "length": 240, "velocity": 96}, {"pitch": 31, "tick": 211200, "length": 480, "velocity": 96}, {"pitch": 43, "tick": 211920, "length": 240, "velocity": 96}, {"pitch": 38, "tick": 212400, "length": 240, "velocity": 96}, {"pitch": 31, "tick": 212640, "length": 240, "velocity": 96}, {"pitch": 34, "tick": 212880, "length": 240, "velocity": 96}, {"pitch": 36, "tick": 213120, "length": 480, "velocity": 96}, {"pitch": 48, "tick": 213840, "length": 240, "velocity": 96}, {"pitch": 36, "tick": 214320, "length": 240, "velocity": 96}, {"pitch": 31, "tick": 214560, "length": 240, "velocity": 96}, {"pitch": 34, "tick": 214800, "length": 240, "velocity": 96}, {"pitch": 36, "tick": 215040, "length": 480, "velocity": 96}, {"pitch": 43, "tick": 215760, "length": 240, "velocity": 96}, {"pitch": 36, "tick": 216240, "length": 240, "velocity": 96}, {"pitch": 36, "tick": 216480, "length": 240, "velocity": 96}, {"pitch": 29, "tick": 255360, "length": 480, "velocity": 96}, {"pitch": 36, "tick": 256080, "length": 240, "velocity": 96}, {"pitch": 36, "tick": 256320, "length": 480, "velocity": 96}, {"pitch": 29, "tick": 257040, "length": 240, "velocity": 96}, {"pitch": 31, "tick": 257280, "length": 480, "velocity": 96}, {"pitch": 38, "tick": 258000, "length": 240, "velocity": 96}, {"pitch": 38, "tick": 258240, "length": 480, "velocity": 96}, {"pitch": 31, "tick": 258960, "length": 240, "velocity": 96}, {"pitch": 36, "tick": 259200, "length": 480, "velocity": 96}, {"pitch": 43, "tick": 259920, "length": 240, "velocity": 96}, {"pitch": 43, "tick": 260160, "length": 480, "velocity": 96}, {"pitch": 36, "tick": 260880, "length": 240, "velocity": 96}, {"pitch": 27, "tick": 261120, "length": 480, "velocity": 96}, {"pitch": 34, "tick": 261840, "length": 240, "velocity": 96}, {"pitch": 34, "tick": 262080, "length": 480, "velocity": 96}, {"pitch": 27, "tick": 262800, "length": 240, "velocity": 96}, {"pitch": 32, "tick": 263040, "length": 480, "velocity": 96}, {"pitch": 39, "tick": 263760, "length": 240, "velocity": 96}, {"pitch": 39, "tick": 264000, "length": 480, "velocity": 96}, {"pitch": 32, "tick": 264720, "length": 240, "velocity": 96}, {"pitch": 31, "tick": 264960, "length": 480, "velocity": 96}, {"pitch": 38, "tick": 265680, "length": 240, "velocity": 96}, {"pitch": 38, "tick": 265920, "length": 480, "velocity": 96}, {"pitch": 31, "tick": 266640, "length": 240, "velocity": 96}, {"pitch": 36, "tick": 266880, "length": 480, "velocity": 96}, {"pitch": 43, "tick": 267600, "length": 240, "velocity": 96}, {"pitch": 43, "tick": 267840, "length": 480, "velocity": 96}, {"pitch": 36, "tick": 268560, "length": 240, "velocity": 96}, {"pitch": 36, "tick": 268800, "length": 480, "velocity": 96}, {"pitch": 31, "tick": 269520, "length": 240, "velocity": 96}, {"pitch": 31, "tick": 269760, "length": 480, "velocity": 96}, {"pitch": 36, "tick": 270480, "length": 240, "velocity": 96}, {"pitch": 38, "tick": 270720, "length": 480, "velocity": 96}, {"pitch": 38, "tick": 271440, "length": 240, "velocity": 96}, {"pitch": 38, "tick": 271680, "length": 480, "velocity": 96}, {"pitch": 38, "tick": 272400, "length": 240, "velocity": 96}, {"pitch": 31, "tick": 272640, "length": 480, "velocity": 96}, {"pitch": 38, "tick": 273360, "length": 240, "velocity": 96}, {"pitch": 38, "tick": 273600, "length": 480, "velocity": 96}, {"pitch": 31, "tick": 274320, "length": 240, "velocity": 96}, {"pitch": 36, "tick": 274560, "length": 480, "velocity": 96}, {"pitch": 43, "tick": 275280, "length": 240, "velocity": 96}, {"pitch": 43, "tick": 275520, "length": 480, "velocity": 96}, {"pitch": 36, "tick": 276240, "length": 240, "velocity": 96}, {"pitch": 27, "tick": 276480, "length": 480, "velocity": 96}, {"pitch": 34, "tick": 277200, "length": 240, "velocity": 96}, {"pitch": 34, "tick": 277440, "length": 480, "velocity": 96}, {"pitch": 27, "tick": 278160, "length": 240, "velocity": 96}, {"pitch": 32, "tick": 278400, "length": 480, "velocity": 96}, {"pitch": 39, "tick": 279120, "length": 240, "velocity": 96}, {"pitch": 39, "tick": 279360, "length": 480, "velocity": 96}, {"pitch": 32, "tick": 280080, "length": 240, "velocity": 96}, {"pitch": 31, "tick": 280320, "length": 480, "velocity": 96}, {"pitch": 38, "tick": 281040, "length": 240, "velocity": 96}, {"pitch": 38, "tick": 281280, "length": 480, "velocity": 96}, {"pitch": 31, "tick": 282000, "length": 240, "velocity": 96}, {"pitch": 36, "tick": 282240, "length": 480, "velocity": 96}, {"pitch": 31, "tick": 282960, "length": 240, "velocity": 96}, {"pitch": 31, "tick": 283200, "length": 480, "velocity": 96}, {"pitch": 36, "tick": 283920, "length": 240, "velocity": 96}, {"pitch": 36, "tick": 284160, "length": 480, "velocity": 96}, {"pitch": 31, "tick": 284880, "length": 240, "velocity": 96}, {"pitch": 31, "tick": 285120, "length": 480, "velocity": 96}, {"pitch": 36, "tick": 285840, "length": 240, "velocity": 96}, {"pitch": 29, "tick": 286080, "length": 480, "velocity": 96}, {"pitch": 41, "tick": 286800, "length": 240, "velocity": 96}, {"pitch": 36, "tick": 287280, "length": 240, "velocity": 96}, {"pitch": 41, "tick": 287520, "length": 240, "velocity": 96}, {"pitch": 32, "tick": 287760, "length": 240, "velocity": 96}, {"pitch": 31, "tick": 288000, "length": 480, "velocity": 96}, {"pitch": 38, "tick": 288720, "length": 240, "velocity": 96}, {"pitch": 43, "tick": 289200, "length": 240, "velocity": 96}, {"pitch": 38, "tick": 289440, "length": 240, "velocity": 96}, {"pitch": 34, "tick": 289680, "length": 240, "velocity": 96}, {"pitch": 36, "tick": 289920, "length": 480, "velocity": 96}, {"pitch": 43, "tick": 290640, "length": 240, "velocity": 96}, {"pitch": 36, "tick": 291120, "length": 240, "velocity": 96}, {"pitch": 31, "tick": 291360, "length": 240, "velocity": 96}, {"pitch": 36, "tick": 291600, "length": 240, "velocity": 96}, {"pitch": 39, "tick": 291840, "length": 480, "velocity": 96}, {"pitch": 34, "tick": 292560, "length": 240, "velocity": 96}, {"pitch": 34, "tick": 293040, "length": 240, "velocity": 96}, {"pitch": 36, "tick": 293280, "length": 240, "velocity": 96}, {"pitch": 34, "tick": 293520, "length": 240, "velocity": 96}, {"pitch": 32, "tick": 293760, "length": 480, "velocity": 96}, {"pitch": 44, "tick": 294480, "length": 240, "velocity": 96}, {"pitch": 39, "tick": 294960, "length": 240, "velocity": 96}, {"pitch": 44, "tick": 295200, "length": 240, "velocity": 96}, {"pitch": 32, "tick": 295440, "length": 240, "velocity": 96}, {"pitch": 31, "tick": 295680, "length": 480, "velocity": 96}, {"pitch": 43, "tick": 296400, "length": 240, "velocity": 96}, {"pitch": 38, "tick": 296880, "length": 240, "velocity": 96}, {"pitch": 43, "tick": 297120, "length": 240, "velocity": 96}, {"pitch": 31, "tick": 297360, "length": 240, "velocity": 96}, {"pitch": 36, "tick": 297600, "length": 480, "velocity": 96}, {"pitch": 48, "tick": 298320, "length": 240, "velocity": 96}, {"pitch": 43, "tick": 298800, "length": 240, "velocity": 96}, {"pitch": 39, "tick": 299040, "length": 240, "velocity": 96}, {"pitch": 38, "tick": 299280, "length": 240, "velocity": 96}, {"pitch": 36, "tick": 299520, "length": 480, "velocity": 96}, {"pitch": 38, "tick": 300240, "length": 240, "velocity": 96}, {"pitch": 39, "tick": 300720, "length": 240, "velocity": 96}, {"pitch": 43, "tick": 300960, "length": 240, "velocity": 96}, {"pitch": 36, "tick": 301200, "length": 240, "velocity": 96}, {"pitch": 38, "tick": 301440, "length": 480, "velocity": 96}, {"pitch": 44, "tick": 302160, "length": 240, "velocity": 96}, {"pitch": 38, "tick": 302640, "length": 240, "velocity": 96}, {"pitch": 34, "tick": 302880, "length": 240, "velocity": 96}, {"pitch": 32, "tick": 303120, "length": 240, "velocity": 96}, {"pitch": 31, "tick": 303360, "length": 480, "velocity": 96}, {"pitch": 43, "tick": 304080, "length": 240, "velocity": 96}, {"pitch": 31, "tick": 304560, "length": 240, "velocity": 96}, {"pitch": 43, "tick": 304800, "length": 240, "velocity": 96}, {"pitch": 38, "tick": 305040, "length": 240, "velocity": 96}, {"pitch": 36, "tick": 305280, "length": 480, "velocity": 96}, {"pitch": 43, "tick": 306000, "length": 240, "velocity": 96}, {"pitch": 34, "tick": 306480, "length": 240, "velocity": 96}, {"pitch": 36, "tick": 306720, "length": 240, "velocity": 96}, {"pitch": 38, "tick": 306960, "length": 240, "velocity": 96}, {"pitch": 39, "tick": 307200, "length": 480, "velocity": 96}, {"pitch": 46, "tick": 307920, "length": 240, "velocity": 96}, {"pitch": 43, "tick": 308400, "length": 240, "velocity": 96}, {"pitch": 39, "tick": 308640, "length": 240, "velocity": 96}, {"pitch": 34, "tick": 308880, "length": 240, "velocity": 96}, {"pitch": 32, "tick": 309120, "length": 480, "velocity": 96}, {"pitch": 44, "tick": 309840, "length": 240, "velocity": 96}, {"pitch": 32, "tick": 310320, "length": 240, "velocity": 96}, {"pitch": 33, "tick": 310560, "length": 240, "velocity": 96}, {"pitch": 32, "tick": 310800, "length": 240, "velocity": 96}, {"pitch": 31, "tick": 311040, "length": 480, "velocity": 96}, {"pitch": 43, "tick": 311760, "length": 240, "velocity": 96}, {"pitch": 38, "tick": 312240, "length": 240, "velocity": 96}, {"pitch": 31, "tick": 312480, "length": 240, "velocity": 96}, {"pitch": 34, "tick": 312720, "length": 240, "velocity": 96}, {"pitch": 36, "tick": 312960, "length": 480, "velocity": 96}, {"pitch": 48, "tick": 313680, "length": 240, "velocity": 96}, {"pitch": 36, "tick": 314160, "length": 240, "velocity": 96}, {"pitch": 31, "tick": 314400, "length": 240, "velocity": 96}, {"pitch": 34, "tick": 314640, "length": 240, "velocity": 96}, {"pitch": 36, "tick": 314880, "length": 480, "velocity": 96}, {"pitch": 43, "tick": 315600, "length": 240, "velocity": 96}, {"pitch": 36, "tick": 316080, "length": 240, "velocity": 96}, {"pitch": 31, "tick": 316320, "length": 240, "velocity": 96}, {"pitch": 30, "tick": 316560, "length": 240, "velocity": 96}, {"pitch": 29, "tick": 316800, "length": 480, "velocity": 96}, {"pitch": 41, "tick": 317520, "length": 240, "velocity": 96}, {"pitch": 36, "tick": 318000, "length": 240, "velocity": 96}, {"pitch": 41, "tick": 318240, "length": 240, "velocity": 96}, {"pitch": 32, "tick": 318480, "length": 240, "velocity": 96}, {"pitch": 31, "tick": 318720, "length": 480, "velocity": 96}, {"pitch": 38, "tick": 319440, "length": 240, "velocity": 96}, {"pitch": 43, "tick": 319920, "length": 240, "velocity": 96}, {"pitch": 38, "tick": 320160, "length": 240, "velocity": 96}, {"pitch": 34, "tick": 320400, "length": 240, "velocity": 96}, {"pitch": 36, "tick": 320640, "length": 480, "velocity": 96}, {"pitch": 43, "tick": 321360, "length": 240, "velocity": 96}, {"pitch": 36, "tick": 321840, "length": 240, "velocity": 96}, {"pitch": 31, "tick": 322080, "length": 240, "velocity": 96}, {"pitch": 36, "tick": 322320, "length": 240, "velocity": 96}, {"pitch": 39, "tick": 322560, "length": 480, "velocity": 96}, {"pitch": 34, "tick": 323280, "length": 240, "velocity": 96}, {"pitch": 34, "tick": 323760, "length": 240, "velocity": 96}, {"pitch": 36, "tick": 324000, "length": 240, "velocity": 96}, {"pitch": 34, "tick": 324240, "length": 240, "velocity": 96}, {"pitch": 32, "tick": 324480, "length": 480, "velocity": 96}, {"pitch": 44, "tick": 325200, "length": 240, "velocity": 96}, {"pitch": 39, "tick": 325680, "length": 240, "velocity": 96}, {"pitch": 44, "tick": 325920, "length": 240, "velocity": 96}, {"pitch": 32, "tick": 326160, "length": 240, "velocity": 96}, {"pitch": 31, "tick": 326400, "length": 480, "velocity": 96}, {"pitch": 43, "tick": 327120, "length": 240, "velocity": 96}, {"pitch": 38, "tick": 327600, "length": 240, "velocity": 96}, {"pitch": 43, "tick": 327840, "length": 240, "velocity": 96}, {"pitch": 31, "tick": 328080, "length": 240, "velocity": 96}, {"pitch": 36, "tick": 328320, "length": 480, "velocity": 96}, {"pitch": 48, "tick": 329040, "length": 240, "velocity": 96}, {"pitch": 43, "tick": 329520, "length": 240, "velocity": 96}, {"pitch": 39, "tick": 329760, "length": 240, "velocity": 96}, {"pitch": 38, "tick": 330000, "length": 240, "velocity": 96}, {"pitch": 36, "tick": 330240, "length": 480, "velocity": 96}, {"pitch": 38, "tick": 330960, "length": 240, "velocity": 96}, {"pitch": 39, "tick": 331440, "length": 240, "velocity": 96}, {"pitch": 43, "tick": 331680, "length": 240, "velocity": 96}, {"pitch": 36, "tick": 331920, "length": 240, "velocity": 96}, {"pitch": 38, "tick": 332160, "length": 480, "velocity": 96}, {"pitch": 44, "tick": 332880, "length": 240, "velocity": 96}, {"pitch": 38, "tick": 333360, "length": 240, "velocity": 96}, {"pitch": 34, "tick": 333600, "length": 240, "velocity": 96}, {"pitch": 32, "tick": 333840, "length": 240, "velocity": 96}, {"pitch": 31, "tick": 334080, "length": 480, "velocity": 96}, {"pitch": 43, "tick": 334800, "length": 240, "velocity": 96}, {"pitch": 31, "tick": 335280, "length": 240, "velocity": 96}, {"pitch": 43, "tick": 335520, "length": 240, "velocity": 96}, {"pitch": 38, "tick": 335760, "length": 240, "velocity": 96}, {"pitch": 36, "tick": 336000, "length": 480, "velocity": 96}, {"pitch": 43, "tick": 336720, "length": 240, "velocity": 96}, {"pitch": 34, "tick": 337200, "length": 240, "velocity": 96}, {"pitch": 36, "tick": 337440, "length": 240, "velocity": 96}, {"pitch": 38, "tick": 337680, "length": 240, "velocity": 96}, {"pitch": 39, "tick": 337920, "length": 480, "velocity": 96}, {"pitch": 46, "tick": 338640, "length": 240, "velocity": 96}, {"pitch": 43, "tick": 339120, "length": 240, "velocity": 96}, {"pitch": 39, "tick": 339360, "length": 240, "velocity": 96}, {"pitch": 34, "tick": 339600, "length": 240, "velocity": 96}, {"pitch": 32, "tick": 339840, "length": 480, "velocity": 96}, {"pitch": 44, "tick": 340560, "length": 240, "velocity": 96}, {"pitch": 32, "tick": 341040, "length": 240, "velocity": 96}, {"pitch": 33, "tick": 341280, "length": 240, "velocity": 96}, {"pitch": 32, "tick": 341520, "length": 240, "velocity": 96}, {"pitch": 31, "tick": 341760, "length": 480, "velocity": 96}, {"pitch": 43, "tick": 342480, "length": 240, "velocity": 96}, {"pitch": 38, "tick": 342960, "length": 240, "velocity": 96}, {"pitch": 31, "tick": 343200, "length": 240, "velocity": 96}, {"pitch": 34, "tick": 343440, "length": 240, "velocity": 96}, {"pitch": 36, "tick": 343680, "length": 480, "velocity": 96}, {"pitch": 48, "tick": 344400, "length": 240, "velocity": 96}, {"pitch": 36, "tick": 344880, "length": 240, "velocity": 96}, {"pitch": 31, "tick": 345120, "length": 240, "velocity": 96}, {"pitch": 34, "tick": 345360, "length": 240, "velocity": 96}, {"pitch": 36, "tick": 345600, "length": 480, "velocity": 96}, {"pitch": 43, "tick": 346320, "length": 240, "velocity": 96}, {"pitch": 36, "tick": 346800, "length": 240, "velocity": 96}, {"pitch": 31, "tick": 347040, "length": 240, "velocity": 96}, {"pitch": 30, "tick": 347280, "length": 240, "velocity": 96}, {"pitch": 29, "tick": 347520, "length": 480, "velocity": 96}, {"pitch": 41, "tick": 348240, "length": 240, "velocity": 96}, {"pitch": 36, "tick": 348720, "length": 240, "velocity": 96}, {"pitch": 41, "tick": 348960, "length": 240, "velocity": 96}, {"pitch": 32, "tick": 349200, "length": 240, "velocity": 96}, {"pitch": 31, "tick": 349440, "length": 480, "velocity": 96}, {"pitch": 38, "tick": 350160, "length": 240, "velocity": 96}, {"pitch": 43, "tick": 350640, "length": 240, "velocity": 96}, {"pitch": 38, "tick": 350880, "length": 240, "velocity": 96}, {"pitch": 34, "tick": 351120, "length": 240, "velocity": 96}, {"pitch": 36, "tick": 351360, "length": 480, "velocity": 96}, {"pitch": 43, "tick": 352080, "length": 240, "velocity": 96}, {"pitch": 36, "tick": 352560, "length": 240, "velocity": 96}, {"pitch": 31, "tick": 352800, "length": 240, "velocity": 96}, {"pitch": 36, "tick": 353040, "length": 240, "velocity": 96}, {"pitch": 39, "tick": 353280, "length": 480, "velocity": 96}, {"pitch": 34, "tick": 354000, "length": 240, "velocity": 96}, {"pitch": 34, "tick": 354480, "length": 240, "velocity": 96}, {"pitch": 36, "tick": 354720, "length": 240, "velocity": 96}, {"pitch": 34, "tick": 354960, "length": 240, "velocity": 96}, {"pitch": 32, "tick": 355200, "length": 480, "velocity": 96}, {"pitch": 44, "tick": 355920, "length": 240, "velocity": 96}, {"pitch": 39, "tick": 356400, "length": 240, "velocity": 96}, {"pitch": 44, "tick": 356640, "length": 240, "velocity": 96}, {"pitch": 32, "tick": 356880, "length": 240, "velocity": 96}, {"pitch": 31, "tick": 357120, "length": 480, "velocity": 96}, {"pitch": 43, "tick": 357840, "length": 240, "velocity": 96}, {"pitch": 38, "tick": 358320, "length": 240, "velocity": 96}, {"pitch": 43, "tick": 358560, "length": 240, "velocity": 96}, {"pitch": 31, "tick": 358800, "length": 240, "velocity": 96}, {"pitch": 36, "tick": 359040, "length": 480, "velocity": 96}, {"pitch": 48, "tick": 359760, "length": 240, "velocity": 96}, {"pitch": 43, "tick": 360240, "length": 240, "velocity": 96}, {"pitch": 39, "tick": 360480, "length": 240, "velocity": 96}, {"pitch": 38, "tick": 360720, "length": 240, "velocity": 96}, {"pitch": 36, "tick": 360960, "length": 480, "velocity": 96}, {"pitch": 38, "tick": 361680, "length": 240, "velocity": 96}, {"pitch": 39, "tick": 362160, "length": 240, "velocity": 96}, {"pitch": 43, "tick": 362400, "length": 240, "velocity": 96}, {"pitch": 36, "tick": 362640, "length": 240, "velocity": 96}, {"pitch": 38, "tick": 362880, "length": 480, "velocity": 96}, {"pitch": 44, "tick": 363600, "length": 240, "velocity": 96}, {"pitch": 38, "tick": 364080, "length": 240, "velocity": 96}, {"pitch": 34, "tick": 364320, "length": 240, "velocity": 96}, {"pitch": 32, "tick": 364560, "length": 240, "velocity": 96}, {"pitch": 31, "tick": 364800, "length": 480, "velocity": 96}, {"pitch": 43, "tick": 365520, "length": 240, "velocity": 96}, {"pitch": 31, "tick": 366000, "length": 240, "velocity": 96}, {"pitch": 43, "tick": 366240, "length": 240, "velocity": 96}, {"pitch": 38, "tick": 366480, "length": 240, "velocity": 96}, {"pitch": 36, "tick": 366720, "length": 480, "velocity": 96}, {"pitch": 43, "tick": 367440, "length": 240, "velocity": 96}, {"pitch": 34, "tick": 367920, "length": 240, "velocity": 96}, {"pitch": 36, "tick": 368160, "length": 240, "velocity": 96}, {"pitch": 38, "tick": 368400, "length": 240, "velocity": 96}, {"pitch": 39, "tick": 368640, "length": 480, "velocity": 96}, {"pitch": 46, "tick": 369360, "length": 240, "velocity": 96}, {"pitch": 43, "tick": 369840, "length": 240, "velocity": 96}, {"pitch": 39, "tick": 370080, "length": 240, "velocity": 96}, {"pitch": 34, "tick": 370320, "length": 240, "velocity": 96}, {"pitch": 32, "tick": 370560, "length": 480, "velocity": 96}, {"pitch": 44, "tick": 371280, "length": 240, "velocity": 96}, {"pitch": 32, "tick": 371760, "length": 240, "velocity": 96}, {"pitch": 33, "tick": 372000, "length": 240, "velocity": 96}, {"pitch": 32, "tick": 372240, "length": 240, "velocity": 96}, {"pitch": 31, "tick": 372480, "length": 480, "velocity": 96}, {"pitch": 43, "tick": 373200, "length": 240, "velocity": 96}, {"pitch": 38, "tick": 373680, "length": 240, "velocity": 96}, {"pitch": 31, "tick": 373920, "length": 240, "velocity": 96}, {"pitch": 34, "tick": 374160, "length": 240, "velocity": 96}, {"pitch": 36, "tick": 374400, "length": 480, "velocity": 96}, {"pitch": 48, "tick": 375120, "length": 240, "velocity": 96}, {"pitch": 36, "tick": 375600, "length": 240, "velocity": 96}, {"pitch": 31, "tick": 375840, "length": 240, "velocity": 96}, {"pitch": 34, "tick": 376080, "length": 240, "velocity": 96}, {"pitch": 36, "tick": 376320, "length": 480, "velocity": 96}, {"pitch": 43, "tick": 377040, "length": 240, "velocity": 96}, {"pitch": 36, "tick": 377520, "length": 240, "velocity": 96}, {"pitch": 31, "tick": 377760, "length": 240, "velocity": 96}, {"pitch": 30, "tick": 378000, "length": 240, "velocity": 96}, {"pitch": 29, "tick": 378240, "length": 480, "velocity": 96}, {"pitch": 41, "tick": 378960, "length": 240, "velocity": 96}, {"pitch": 36, "tick": 379440, "length": 240, "velocity": 96}, {"pitch": 41, "tick": 379680, "length": 240, "velocity": 96}, {"pitch": 32, "tick": 379920, "length": 240, "velocity": 96}, {"pitch": 31, "tick": 380160, "length": 480, "velocity": 96}, {"pitch": 38, "tick": 380880, "length": 240, "velocity": 96}, {"pitch": 43, "tick": 381360, "length": 240, "velocity": 96}, {"pitch": 38, "tick": 381600, "length": 240, "velocity": 96}, {"pitch": 34, "tick": 381840, "length": 240, "velocity": 96}, {"pitch": 36, "tick": 382080, "length": 480, "velocity": 96}, {"pitch": 43, "tick": 382800, "length": 240, "velocity": 96}, {"pitch": 36, "tick": 383280, "length": 240, "velocity": 96}, {"pitch": 31, "tick": 383520, "length": 240, "velocity": 96}, {"pitch": 36, "tick": 383760, "length": 240, "velocity": 96}, {"pitch": 39, "tick": 384000, "length": 480, "velocity": 96}, {"pitch": 34, "tick": 384720, "length": 240, "velocity": 96}, {"pitch": 34, "tick": 385200, "length": 240, "velocity": 96}, {"pitch": 36, "tick": 385440, "length": 240, "velocity": 96}, {"pitch": 34, "tick": 385680, "length": 240, "velocity": 96}, {"pitch": 32, "tick": 385920, "length": 480, "velocity": 96}, {"pitch": 44, "tick": 386640, "length": 240, "velocity": 96}, {"pitch": 39, "tick": 387120, "length": 240, "velocity": 96}, {"pitch": 44, "tick": 387360, "length": 240, "velocity": 96}, {"pitch": 32, "tick": 387600, "length": 240, "velocity": 96}, {"pitch": 31, "tick": 387840, "length": 480, "velocity": 96}, {"pitch": 43, "tick": 388560, "length": 240, "velocity": 96}, {"pitch": 38, "tick": 389040, "length": 240, "velocity": 96}, {"pitch": 43, "tick": 389280, "length": 240, "velocity": 96}, {"pitch": 31, "tick": 389520, "length": 240, "velocity": 96}, {"pitch": 36, "tick": 389760, "length": 480, "velocity": 96}, {"pitch": 48, "tick": 390480, "length": 240, "velocity": 96}, {"pitch": 43, "tick": 390960, "length": 240, "velocity": 96}, {"pitch": 39, "tick": 391200, "length": 240, "velocity": 96}, {"pitch": 38, "tick": 391440, "length": 240, "velocity": 96}, {"pitch": 36, "tick": 391680, "length": 480, "velocity": 96}, {"pitch": 38, "tick": 392400, "length": 240, "velocity": 96}, {"pitch": 39, "tick": 392880, "length": 240, "velocity": 96}, {"pitch": 43, "tick": 393120, "length": 240, "velocity": 96}, {"pitch": 36, "tick": 393360, "length": 240, "velocity": 96}, {"pitch": 38, "tick": 393600, "length": 480, "velocity": 96}, {"pitch": 44, "tick": 394320, "length": 240, "velocity": 96}, {"pitch": 38, "tick": 394800, "length": 240, "velocity": 96}, {"pitch": 34, "tick": 395040, "length": 240, "velocity": 96}, {"pitch": 32, "tick": 395280, "length": 240, "velocity": 96}, {"pitch": 31, "tick": 395520, "length": 480, "velocity": 96}, {"pitch": 43, "tick": 396240, "length": 240, "velocity": 96}, {"pitch": 31, "tick": 396720, "length": 240, "velocity": 96}, {"pitch": 43, "tick": 396960, "length": 240, "velocity": 96}, {"pitch": 38, "tick": 397200, "length": 240, "velocity": 96}, {"pitch": 36, "tick": 397440, "length": 480, "velocity": 96}, {"pitch": 43, "tick": 398160, "length": 240, "velocity": 96}, {"pitch": 34, "tick": 398640, "length": 240, "velocity": 96}, {"pitch": 36, "tick": 398880, "length": 240, "velocity": 96}, {"pitch": 38, "tick": 399120, "length": 240, "velocity": 96}, {"pitch": 39, "tick": 399360, "length": 480, "velocity": 96}, {"pitch": 46, "tick": 400080, "length": 240, "velocity": 96}, {"pitch": 43, "tick": 400560, "length": 240, "velocity": 96}, {"pitch": 39, "tick": 400800, "length": 240, "velocity": 96}, {"pitch": 34, "tick": 401040, "length": 240, "velocity": 96}, {"pitch": 32, "tick": 401280, "length": 480, "velocity": 96}, {"pitch": 44, "tick": 402000, "length": 240, "velocity": 96}, {"pitch": 32, "tick": 402480, "length": 240, "velocity": 96}, {"pitch": 33, "tick": 402720, "length": 240, "velocity": 96}, {"pitch": 32, "tick": 402960, "length": 240, "velocity": 96}, {"pitch": 31, "tick": 403200, "length": 480, "velocity": 96}, {"pitch": 43, "tick": 403920, "length": 240, "velocity": 96}, {"pitch": 38, "tick": 404400, "length": 240, "velocity": 96}, {"pitch": 31, "tick": 404640, "length": 240, "velocity": 96}, {"pitch": 34, "tick": 404880, "length": 240, "velocity": 96}, {"pitch": 36, "tick": 405120, "length": 480, "velocity": 96}, {"pitch": 48, "tick": 405840, "length": 240, "velocity": 96}, {"pitch": 36, "tick": 406320, "length": 240, "velocity": 96}, {"pitch": 31, "tick": 406560, "length": 240, "velocity": 96}, {"pitch": 34, "tick": 406800, "length": 240, "velocity": 96}, {"pitch": 36, "tick": 407040, "length": 480, "velocity": 96}, {"pitch": 43, "tick": 407760, "length": 240, "velocity": 96}, {"pitch": 36, "tick": 408240, "length": 240, "velocity": 96}, {"pitch": 31, "tick": 408480, "length": 240, "velocity": 96}, {"pitch": 30, "tick": 408720, "length": 240, "velocity": 96}, {"pitch": 29, "tick": 408960, "length": 480, "velocity": 96}, {"pitch": 41, "tick": 409680, "length": 240, "velocity": 96}, {"pitch": 36, "tick": 410160, "length": 240, "velocity": 96}, {"pitch": 41, "tick": 410400, "length": 240, "velocity": 96}, {"pitch": 32, "tick": 410640, "length": 240, "velocity": 96}, {"pitch": 31, "tick": 410880, "length": 480, "velocity": 96}, {"pitch": 38, "tick": 411600, "length": 240, "velocity": 96}, {"pitch": 43, "tick": 412080, "length": 240, "velocity": 96}, {"pitch": 38, "tick": 412320, "length": 240, "velocity": 96}, {"pitch": 34, "tick": 412560, "length": 240, "velocity": 96}, {"pitch": 36, "tick": 412800, "length": 480, "velocity": 96}, {"pitch": 43, "tick": 413520, "length": 240, "velocity": 96}, {"pitch": 36, "tick": 414000, "length": 240, "velocity": 96}, {"pitch": 31, "tick": 414240, "length": 240, "velocity": 96}, {"pitch": 36, "tick": 414480, "length": 240, "velocity": 96}, {"pitch": 39, "tick": 414720, "length": 480, "velocity": 96}, {"pitch": 34, "tick": 415440, "length": 240, "velocity": 96}, {"pitch": 34, "tick": 415920, "length": 240, "velocity": 96}, {"pitch": 36, "tick": 416160, "length": 240, "velocity": 96}, {"pitch": 34, "tick": 416400, "length": 240, "velocity": 96}, {"pitch": 32, "tick": 416640, "length": 480, "velocity": 96}, {"pitch": 44, "tick": 417360, "length": 240, "velocity": 96}, {"pitch": 39, "tick": 417840, "length": 240, "velocity": 96}, {"pitch": 44, "tick": 418080, "length": 240, "velocity": 96}, {"pitch": 32, "tick": 418320, "length": 240, "velocity": 96}, {"pitch": 31, "tick": 418560, "length": 480, "velocity": 96}, {"pitch": 43, "tick": 419280, "length": 240, "velocity": 96}, {"pitch": 38, "tick": 419760, "length": 240, "velocity": 96}, {"pitch": 43, "tick": 420000, "length": 240, "velocity": 96}, {"pitch": 31, "tick": 420240, "length": 240, "velocity": 96}, {"pitch": 36, "tick": 420480, "length": 480, "velocity": 96}, {"pitch": 48, "tick": 421200, "length": 240, "velocity": 96}, {"pitch": 43, "tick": 421680, "length": 240, "velocity": 96}, {"pitch": 39, "tick": 421920, "length": 240, "velocity": 96}, {"pitch": 38, "tick": 422160, "length": 240, "velocity": 96}, {"pitch": 36, "tick": 422400, "length": 480, "velocity": 96}, {"pitch": 38, "tick": 423120, "length": 240, "velocity": 96}, {"pitch": 39, "tick": 423600, "length": 240, "velocity": 96}, {"pitch": 43, "tick": 423840, "length": 240, "velocity": 96}, {"pitch": 36, "tick": 424080, "length": 240, "velocity": 96}, {"pitch": 38, "tick": 424320, "length": 480, "velocity": 96}, {"pitch": 44, "tick": 425040, "length": 240, "velocity": 96}, {"pitch": 38, "tick": 425520, "length": 240, "velocity": 96}, {"pitch": 34, "tick": 425760, "length": 240, "velocity": 96}, {"pitch": 32, "tick": 426000, "length": 240, "velocity": 96}, {"pitch": 31, "tick": 426240, "length": 480, "velocity": 96}, {"pitch": 43, "tick": 426960, "length": 240, "velocity": 96}, {"pitch": 31, "tick": 427440, "length": 240, "velocity": 96}, {"pitch": 43, "tick": 427680, "length": 240, "velocity": 96}, {"pitch": 38, "tick": 427920, "length": 240, "velocity": 96}, {"pitch": 36, "tick": 428160, "length": 480, "velocity": 96}, {"pitch": 43, "tick": 428880, "length": 240, "velocity": 96}, {"pitch": 34, "tick": 429360, "length": 240, "velocity": 96}, {"pitch": 36, "tick": 429600, "length": 240, "velocity": 96}, {"pitch": 38, "tick": 429840, "length": 240, "velocity": 96}, {"pitch": 39, "tick": 430080, "length": 480, "velocity": 96}, {"pitch": 46, "tick": 430800, "length": 240, "velocity": 96}, {"pitch": 43, "tick": 431280, "length": 240, "velocity": 96}, {"pitch": 39, "tick": 431520, "length": 240, "velocity": 96}, {"pitch": 34, "tick": 431760, "length": 240, "velocity": 96}, {"pitch": 32, "tick": 432000, "length": 480, "velocity": 96}, {"pitch": 44, "tick": 432720, "length": 240, "velocity": 96}, {"pitch": 32, "tick": 433200, "length": 240, "velocity": 96}, {"pitch": 33, "tick": 433440, "length": 240, "velocity": 96}, {"pitch": 32, "tick": 433680, "length": 240, "velocity": 96}, {"pitch": 31, "tick": 433920, "length": 480, "velocity": 96}, {"pitch": 43, "tick": 434640, "length": 240, "velocity": 96}, {"pitch": 38, "tick": 435120, "length": 240, "velocity": 96}, {"pitch": 31, "tick": 435360, "length": 240, "velocity": 96}, {"pitch": 34, "tick": 435600, "length": 240, "velocity": 96}, {"pitch": 36, "tick": 435840, "length": 480, "velocity": 96}, {"pitch": 48, "tick": 436560, "length": 240, "velocity": 96}, {"pitch": 36, "tick": 437040, "length": 240, "velocity": 96}, {"pitch": 31, "tick": 437280, "length": 240, "velocity": 96}, {"pitch": 34, "tick": 437520, "length": 240, "velocity": 96}, {"pitch": 36, "tick": 437760, "length": 480, "velocity": 96}, {"pitch": 43, "tick": 438480, "length": 240, "velocity": 96}, {"pitch": 36, "tick": 438960, "length": 240, "velocity": 96}, {"pitch": 31, "tick": 439200, "length": 240, "velocity": 96}, {"pitch": 30, "tick": 439440, "length": 240, "velocity": 96}, {"pitch": 29, "tick": 439680, "length": 480, "velocity": 96}, {"pitch": 41, "tick": 440400, "length": 240, "velocity": 96}, {"pitch": 36, "tick": 440880, "length": 240, "velocity": 96}, {"pitch": 41, "tick": 441120, "length": 240, "velocity": 96}, {"pitch": 32, "tick": 441360, "length": 240, "velocity": 96}, {"pitch": 31, "tick": 441600, "length": 480, "velocity": 96}, {"pitch": 38, "tick": 442320, "length": 240, "velocity": 96}, {"pitch": 43, "tick": 442800, "length": 240, "velocity": 96}, {"pitch": 38, "tick": 443040, "length": 240, "velocity": 96}, {"pitch": 34, "tick": 443280, "length": 240, "velocity": 96}, {"pitch": 36, "tick": 443520, "length": 480, "velocity": 96}, {"pitch": 43, "tick": 444240, "length": 240, "velocity": 96}, {"pitch": 36, "tick": 444720, "length": 240, "velocity": 96}, {"pitch": 31, "tick": 444960, "length": 240, "velocity": 96}, {"pitch": 36, "tick": 445200, "length": 240, "velocity": 96}, {"pitch": 39, "tick": 445440, "length": 480, "velocity": 96}, {"pitch": 34, "tick": 446160, "length": 240, "velocity": 96}, {"pitch": 34, "tick": 446640, "length": 240, "velocity": 96}, {"pitch": 36, "tick": 446880, "length": 240, "velocity": 96}, {"pitch": 34, "tick": 447120, "length": 240, "velocity": 96}, {"pitch": 32, "tick": 447360, "length": 480, "velocity": 96}, {"pitch": 44, "tick": 448080, "length": 240, "velocity": 96}, {"pitch": 39, "tick": 448560, "length": 240, "velocity": 96}, {"pitch": 44, "tick": 448800, "length": 240, "velocity": 96}, {"pitch": 32, "tick": 449040, "length": 240, "velocity": 96}, {"pitch": 31, "tick": 449280, "length": 480, "velocity": 96}, {"pitch": 43, "tick": 450000, "length": 240, "velocity": 96}, {"pitch": 38, "tick": 450480, "length": 240, "velocity": 96}, {"pitch": 43, "tick": 450720, "length": 240, "velocity": 96}, {"pitch": 31, "tick": 450960, "length": 240, "velocity": 96}, {"pitch": 36, "tick": 451200, "length": 480, "velocity": 96}, {"pitch": 48, "tick": 451920, "length": 240, "velocity": 96}, {"pitch": 43, "tick": 452400, "length": 240, "velocity": 96}, {"pitch": 39, "tick": 452640, "length": 240, "velocity": 96}, {"pitch": 38, "tick": 452880, "length": 240, "velocity": 96}, {"pitch": 36, "tick": 453120, "length": 480, "velocity": 96}, {"pitch": 38, "tick": 453840, "length": 240, "velocity": 96}, {"pitch": 39, "tick": 454320, "length": 240, "velocity": 96}, {"pitch": 43, "tick": 454560, "length": 240, "velocity": 96}, {"pitch": 36, "tick": 454800, "length": 240, "velocity": 96}, {"pitch": 38, "tick": 455040, "length": 480, "velocity": 96}, {"pitch": 44, "tick": 455760, "length": 240, "velocity": 96}, {"pitch": 38, "tick": 456240, "length": 240, "velocity": 96}, {"pitch": 34, "tick": 456480, "length": 240, "velocity": 96}, {"pitch": 32, "tick": 456720, "length": 240, "velocity": 96}, {"pitch": 31, "tick": 456960, "length": 480, "velocity": 96}, {"pitch": 43, "tick": 457680, "length": 240, "velocity": 96}, {"pitch": 31, "tick": 458160, "length": 240, "velocity": 96}, {"pitch": 43, "tick": 458400, "length": 240, "velocity": 96}, {"pitch": 38, "tick": 458640, "length": 240, "velocity": 96}, {"pitch": 36, "tick": 458880, "length": 480, "velocity": 96}, {"pitch": 43, "tick": 459600, "length": 240, "velocity": 96}, {"pitch": 34, "tick": 460080, "length": 240, "velocity": 96}, {"pitch": 36, "tick": 460320, "length": 240, "velocity": 96}, {"pitch": 38, "tick": 460560, "length": 240, "velocity": 96}, {"pitch": 39, "tick": 460800, "length": 480, "velocity": 96}, {"pitch": 46, "tick": 461520, "length": 240, "velocity": 96}, {"pitch": 43, "tick": 462000, "length": 240, "velocity": 96}, {"pitch": 39, "tick": 462240, "length": 240, "velocity": 96}, {"pitch": 34, "tick": 462480, "length": 240, "velocity": 96}, {"pitch": 32, "tick": 462720, "length": 480, "velocity": 96}, {"pitch": 44, "tick": 463440, "length": 240, "velocity": 96}, {"pitch": 32, "tick": 463920, "length": 240, "velocity": 96}, {"pitch": 33, "tick": 464160, "length": 240, "velocity": 96}, {"pitch": 32, "tick": 464400, "length": 240, "velocity": 96}, {"pitch": 31, "tick": 464640, "length": 480, "velocity": 96}, {"pitch": 43, "tick": 465360, "length": 240, "velocity": 96}, {"pitch": 38, "tick": 465840, "length": 240, "velocity": 96}, {"pitch": 31, "tick": 466080, "length": 240, "velocity": 96}, {"pitch": 34, "tick": 466320, "length": 240, "velocity": 96}, {"pitch": 36, "tick": 466560, "length": 480, "velocity": 96}, {"pitch": 48, "tick": 467280, "length": 240, "velocity": 96}, {"pitch": 36, "tick": 467760, "length": 240, "velocity": 96}, {"pitch": 31, "tick": 468000, "length": 240, "velocity": 96}, {"pitch": 34, "tick": 468240, "length": 240, "velocity": 96}, {"pitch": 36, "tick": 468480, "length": 480, "velocity": 96}, {"pitch": 43, "tick": 469200, "length": 240, "velocity": 96}, {"pitch": 36, "tick": 469680, "length": 240, "velocity": 96}, {"pitch": 39, "tick": 469920, "length": 240, "velocity": 96}, {"pitch": 34, "tick": 470160, "length": 240, "velocity": 96}, {"pitch": 36, "tick": 470400, "length": 480, "velocity": 96}, {"pitch": 43, "tick": 471120, "length": 240, "velocity": 96}, {"pitch": 36, "tick": 471600, "length": 240, "velocity": 96}, {"pitch": 31, "tick": 471840, "length": 240, "velocity": 96}, {"pitch": 34, "tick": 472080, "length": 240, "velocity": 96}, {"pitch": 36, "tick": 472320, "length": 480, "velocity": 96}, {"pitch": 43, "tick": 473040, "length": 240, "velocity": 96}, {"pitch": 36, "tick": 473520, "length": 240, "velocity": 96}, {"pitch": 39, "tick": 473760, "length": 240, "velocity": 96}, {"pitch": 34, "tick": 474000, "length": 240, "velocity": 96}, {"pitch": 36, "tick": 474240, "length": 480, "velocity": 96}, {"pitch": 43, "tick": 474960, "length": 240, "velocity": 96}, {"pitch": 36, "tick": 475440, "length": 240, "velocity": 96}, {"pitch": 31, "tick": 475680, "length": 240, "velocity": 96}, {"pitch": 34, "tick": 475920, "length": 240, "velocity": 96}, {"pitch": 36, "tick": 476160, "length": 480, "velocity": 96}, {"pitch": 43, "tick": 476880, "length": 240, "velocity": 96}, {"pitch": 36, "tick": 477360, "length": 240, "velocity": 96}, {"pitch": 39, "tick": 477600, "length": 240, "velocity": 96}, {"pitch": 34, "tick": 477840, "length": 240, "velocity": 96}, {"pitch": 36, "tick": 478080, "length": 480, "velocity": 96}, {"pitch": 43, "tick": 478800, "length": 240, "velocity": 96}, {"pitch": 36, "tick": 479280, "length": 240, "velocity": 96}, {"pitch": 31, "tick": 479520, "length": 240, "velocity": 96}, {"pitch": 34, "tick": 479760, "length": 240, "velocity": 96}, {"pitch": 36, "tick": 480000, "length": 480, "velocity": 96}, {"pitch": 43, "tick": 480720, "length": 240, "velocity": 96}, {"pitch": 36, "tick": 481200, "length": 240, "velocity": 96}, {"pitch": 39, "tick": 481440, "length": 240, "velocity": 96}, {"pitch": 34, "tick": 481680, "length": 240, "velocity": 96}, {"pitch": 36, "tick": 481920, "length": 480, "velocity": 96}, {"pitch": 43, "tick": 482640, "length": 240, "velocity": 96}, {"pitch": 36, "tick": 483120, "length": 240, "velocity": 96}, {"pitch": 31, "tick": 483360, "length": 240, "velocity": 96}, {"pitch": 34, "tick": 483600, "length": 240, "velocity": 96}, {"pitch": 36, "tick": 483840, "length": 480, "velocity": 96}, {"pitch": 43, "tick": 484560, "length": 240, "velocity": 96}, {"pitch": 36, "tick": 485040, "length": 240, "velocity": 96}, {"pitch": 39, "tick": 485280, "length": 240, "velocity": 96}, {"pitch": 34, "tick": 485520, "length": 240, "velocity": 96}, {"pitch": 36, "tick": 485760, "length": 480, "velocity": 96}, {"pitch": 43, "tick": 486480, "length": 240, "velocity": 96}, {"pitch": 36, "tick": 486960, "length": 240, "velocity": 96}, {"pitch": 31, "tick": 487200, "length": 240, "velocity": 96}, {"pitch": 34, "tick": 487440, "length": 240, "velocity": 96}, {"pitch": 36, "tick": 487680, "length": 480, "velocity": 96}, {"pitch": 43, "tick": 488400, "length": 240, "velocity": 96}, {"pitch": 36, "tick": 488880, "length": 240, "velocity": 96}, {"pitch": 39, "tick": 489120, "length": 240, "velocity": 96}, {"pitch": 34, "tick": 489360, "length": 240, "velocity": 96}, {"pitch": 36, "tick": 489600, "length": 480, "velocity": 96}, {"pitch": 43, "tick": 490320, "length": 240, "velocity": 96}, {"pitch": 36, "tick": 490800, "length": 240, "velocity": 96}, {"pitch": 31, "tick": 491040, "length": 240, "velocity": 96}, {"pitch": 34, "tick": 491280, "length": 240, "velocity": 96}, {"pitch": 36, "tick": 491520, "length": 480, "velocity": 96}, {"pitch": 43, "tick": 492240, "length": 240, "velocity": 96}, {"pitch": 36, "tick": 492720, "length": 240, "velocity": 96}, {"pitch": 39, "tick": 492960, "length": 240, "velocity": 96}, {"pitch": 34, "tick": 493200, "length": 240, "velocity": 96}, {"pitch": 36, "tick": 493440, "length": 480, "velocity": 96}, {"pitch": 43, "tick": 494160, "length": 240, "velocity": 96}, {"pitch": 36, "tick": 494640, "length": 240, "velocity": 96}, {"pitch": 31, "tick": 494880, "length": 240, "velocity": 96}, {"pitch": 34, "tick": 495120, "length": 240, "velocity": 96}, {"pitch": 36, "tick": 495360, "length": 480, "velocity": 96}, {"pitch": 43, "tick": 496080, "length": 240, "velocity": 96}, {"pitch": 36, "tick": 496560, "length": 240, "velocity": 96}, {"pitch": 39, "tick": 496800, "length": 240, "velocity": 96}, {"pitch": 34, "tick": 497040, "length": 240, "velocity": 96}, {"pitch": 36, "tick": 497280, "length": 480, "velocity": 96}, {"pitch": 43, "tick": 498000, "length": 240, "velocity": 96}, {"pitch": 36, "tick": 498480, "length": 240, "velocity": 96}, {"pitch": 31, "tick": 498720, "length": 240, "velocity": 96}, {"pitch": 34, "tick": 498960, "length": 240, "velocity": 96}, {"pitch": 36, "tick": 499200, "length": 480, "velocity": 96}, {"pitch": 43, "tick": 499920, "length": 240, "velocity": 96}, {"pitch": 36, "tick": 500400, "length": 240, "velocity": 96}, {"pitch": 39, "tick": 500640, "length": 240, "velocity": 96}, {"pitch": 34, "tick": 500880, "length": 240, "velocity": 96}, {"pitch": 36, "tick": 501120, "length": 480, "velocity": 96}, {"pitch": 43, "tick": 501840, "length": 240, "velocity": 96}, {"pitch": 36, "tick": 502320, "length": 240, "velocity": 96}, {"pitch": 31, "tick": 502560, "length": 240, "velocity": 96}, {"pitch": 34, "tick": 502800, "length": 240, "velocity": 96}, {"pitch": 36, "tick": 503040, "length": 480, "velocity": 96}, {"pitch": 43, "tick": 503760, "length": 240, "velocity": 96}, {"pitch": 36, "tick": 504240, "length": 240, "velocity": 96}, {"pitch": 39, "tick": 504480, "length": 240, "velocity": 96}, {"pitch": 34, "tick": 504720, "length": 240, "velocity": 96}, {"pitch": 36, "tick": 504960, "length": 480, "velocity": 96}, {"pitch": 43, "tick": 505680, "length": 240, "velocity": 96}, {"pitch": 36, "tick": 506160, "length": 240, "velocity": 96}, {"pitch": 31, "tick": 506400, "length": 240, "velocity": 96}, {"pitch": 34, "tick": 506640, "length": 240, "velocity": 96}, {"pitch": 36, "tick": 506880, "length": 480, "velocity": 96}, {"pitch": 43, "tick": 507600, "length": 240, "velocity": 96}, {"pitch": 36, "tick": 508080, "length": 240, "velocity": 96}, {"pitch": 39, "tick": 508320, "length": 240, "velocity": 96}, {"pitch": 34, "tick": 508560, "length": 240, "velocity": 96}, {"pitch": 36, "tick": 508800, "length": 480, "velocity": 96}, {"pitch": 43, "tick": 509520, "length": 240, "velocity": 96}, {"pitch": 36, "tick": 510000, "length": 240, "velocity": 96}, {"pitch": 31, "tick": 510240, "length": 240, "velocity": 96}, {"pitch": 34, "tick": 510480, "length": 240, "velocity": 96}, {"pitch": 36, "tick": 510720, "length": 480, "velocity": 96}, {"pitch": 43, "tick": 511440, "length": 240, "velocity": 96}, {"pitch": 36, "tick": 511920, "length": 240, "velocity": 96}, {"pitch": 39, "tick": 512160, "length": 240, "velocity": 96}, {"pitch": 34, "tick": 512400, "length": 240, "velocity": 96}, {"pitch": 36, "tick": 512640, "length": 480, "velocity": 96}, {"pitch": 43, "tick": 513360, "length": 240, "velocity": 96}, {"pitch": 36, "tick": 513840, "length": 240, "velocity": 96}, {"pitch": 31, "tick": 514080, "length": 240, "velocity": 96}, {"pitch": 34, "tick": 514320, "length": 240, "velocity": 96}, {"pitch": 36, "tick": 514560, "length": 480, "velocity": 96}, {"pitch": 43, "tick": 515280, "length": 240, "velocity": 96}, {"pitch": 36, "tick": 515760, "length": 240, "velocity": 96}, {"pitch": 39, "tick": 516000, "length": 240, "velocity": 96}, {"pitch": 34, "tick": 516240, "length": 240, "velocity": 96}, {"pitch": 36, "tick": 516480, "length": 480, "velocity": 96}, {"pitch": 43, "tick": 517200, "length": 240, "velocity": 96}, {"pitch": 36, "tick": 517680, "length": 240, "velocity": 96}, {"pitch": 31, "tick": 517920, "length": 240, "velocity": 96}, {"pitch": 34, "tick": 518160, "length": 240, "velocity": 96}, {"pitch": 36, "tick": 518400, "length": 480, "velocity": 96}, {"pitch": 43, "tick": 519120, "length": 240, "velocity": 96}, {"pitch": 36, "tick": 519600, "length": 240, "velocity": 96}, {"pitch": 39, "tick": 519840, "length": 240, "velocity": 96}, {"pitch": 34, "tick": 520080, "length": 240, "velocity": 96}, {"pitch": 36, "tick": 520320, "length": 480, "velocity": 96}, {"pitch": 43, "tick": 521040, "length": 240, "velocity": 96}, {"pitch": 36, "tick": 521520, "length": 240, "velocity": 96}, {"pitch": 31, "tick": 521760, "length": 240, "velocity": 96}, {"pitch": 34, "tick": 522000, "length": 240, "velocity": 96}, {"pitch": 36, "tick": 522240, "length": 480, "velocity": 96}, {"pitch": 43, "tick": 522960, "length": 240, "velocity": 96}, {"pitch": 36, "tick": 523440, "length": 240, "velocity": 96}, {"pitch": 39, "tick": 523680, "length": 240, "velocity": 96}, {"pitch": 34, "tick": 523920, "length": 240, "velocity": 96}, {"pitch": 36, "tick": 524160, "length": 480, "velocity": 96}, {"pitch": 43, "tick": 524880, "length": 240, "velocity": 96}, {"pitch": 36, "tick": 525360, "length": 240, "velocity": 96}, {"pitch": 31, "tick": 525600, "length": 240, "velocity": 96}, {"pitch": 34, "tick": 525840, "length": 240, "velocity": 96}, {"pitch": 36, "tick": 526080, "length": 480, "velocity": 96}, {"pitch": 43, "tick": 526800, "length": 240, "velocity": 96}, {"pitch": 36, "tick": 527280, "length": 240, "velocity": 96}, {"pitch": 39, "tick": 527520, "length": 240, "velocity": 96}, {"pitch": 34, "tick": 527760, "length": 240, "velocity": 96}, {"pitch": 36, "tick": 528000, "length": 480, "velocity": 96}, {"pitch": 43, "tick": 528720, "length": 240, "velocity": 96}, {"pitch": 36, "tick": 529200, "length": 240, "velocity": 96}, {"pitch": 31, "tick": 529440, "length": 240, "velocity": 96}, {"pitch": 34, "tick": 529680, "length": 240, "velocity": 96}, {"pitch": 36, "tick": 529920, "length": 480, "velocity": 96}, {"pitch": 43, "tick": 530640, "length": 240, "velocity": 96}, {"pitch": 36, "tick": 531120, "length": 240, "velocity": 96}, {"pitch": 39, "tick": 531360, "length": 240, "velocity": 96}, {"pitch": 34, "tick": 531600, "length": 240, "velocity": 96}]}, {"channel": 7, "length": 531840, "track_name": "\u0093\u00a5\u0090\u00d8", "events": [{"type": "track_name", "name": "\u0093\u00a5\u0090\u00d8", "tick": 0}, {"type": "midi_port", "port": 0, "tick": 0}, {"type": "control_change", "control": 0, "value": 121, "channel": 7, "tick": 480}, {"type": "control_change", "control": 32, "value": 1, "channel": 7, "tick": 480}, {"type": "program_change", "program": 98, "channel": 7, "tick": 480}, {"type": "sysex", "data": [65, 16, 0, 72, 18, 16, 0, 39, 63, 0, 10], "tick": 540}, {"type": "control_change", "control": 7, "value": 72, "channel": 7, "tick": 600}, {"type": "control_change", "control": 10, "value": 64, "channel": 7, "tick": 660}, {"type": "control_change", "control": 91, "value": 0, "channel": 7, "tick": 720}, {"type": "control_change", "control": 93, "value": 0, "channel": 7, "tick": 780}, {"type": "control_change", "control": 74, "value": 76, "channel": 7, "tick": 840}, {"type": "control_change", "control": 71, "value": 64, "channel": 7, "tick": 900}, {"type": "control_change", "control": 73, "value": 65, "channel": 7, "tick": 960}, {"type": "control_change", "control": 75, "value": 48, "channel": 7, "tick": 1020}, {"type": "control_change", "control": 72, "value": 36, "channel": 7, "tick": 1080}, {"type": "control_change", "control": 101, "value": 0, "channel": 7, "tick": 1140}, {"type": "control_change", "control": 100, "value": 0, "channel": 7, "tick": 1140}, {"type": "control_change", "control": 6, "value": 12, "channel": 7, "tick": 1140}, {"type": "control_change", "control": 38, "value": 0, "channel": 7, "tick": 1140}, {"type": "pitchwheel", "channel": 7, "pitch": 0, "tick": 1200}, {"type": "control_change", "control": 1, "value": 0, "channel": 7, "tick": 1260}, {"type": "control_change", "control": 11, "value": 127, "channel": 7, "tick": 1320}, {"type": "control_change", "control": 101, "value": 127, "channel": 7, "tick": 1380}, {"type": "control_change", "control": 100, "value": 127, "channel": 7, "tick": 1380}, {"type": "control_change", "control": 6, "value": 0, "channel": 7, "tick": 1380}, {"type": "control_change", "control": 38, "value": 0, "channel": 7, "tick": 1380}, {"type": "end_of_track", "tick": 531840}], "notes": [{"pitch": 77, "tick": 1920, "length": 960, "velocity": 96}, {"pitch": 78, "tick": 1920, "length": 960, "velocity": 80}, {"pitch": 77, "tick": 2880, "length": 960, "velocity": 96}, {"pitch": 78, "tick": 2880, "length": 960, "velocity": 80}, {"pitch": 77, "tick": 3840, "length": 960, "velocity": 96}, {"pitch": 78, "tick": 3840, "length": 960, "velocity": 80}, {"pitch": 77, "tick": 4800, "length": 960, "velocity": 96}, {"pitch": 78, "tick": 4800, "length": 960, "velocity": 80}, {"pitch": 77, "tick": 5760, "length": 960, "velocity": 96}, {"pitch": 78, "tick": 5760, "length": 960, "velocity": 80}, {"pitch": 77, "tick": 6720, "length": 960, "velocity": 96}, {"pitch": 78, "tick": 6720, "length": 960, "velocity": 80}, {"pitch": 77, "tick": 7680, "length": 960, "velocity": 96}, {"pitch": 78, "tick": 7680, "length": 960, "velocity": 80}, {"pitch": 77, "tick": 8640, "length": 960, "velocity": 96}, {"pitch": 78, "tick": 8640, "length": 960, "velocity": 80}, {"pitch": 77, "tick": 9600, "length": 960, "velocity": 96}, {"pitch": 78, "tick": 9600, "length": 960, "velocity": 80}, {"pitch": 77, "tick": 10560, "length": 960, "velocity": 96}, {"pitch": 78, "tick": 10560, "length": 960, "velocity": 80}, {"pitch": 77, "tick": 11520, "length": 960, "velocity": 96}, {"pitch": 78, "tick": 11520, "length": 960, "velocity": 80}, {"pitch": 77, "tick": 12480, "length": 960, "velocity": 96}, {"pitch": 78, "tick": 12480, "length": 960, "velocity": 80}, {"pitch": 77, "tick": 13440, "length": 960, "velocity": 96}, {"pitch": 78, "tick": 13440, "length": 960, "velocity": 80}, {"pitch": 77, "tick": 14400, "length": 960, "velocity": 96}, {"pitch": 78, "tick": 14400, "length": 960, "velocity": 80}, {"pitch": 77, "tick": 15360, "length": 960, "velocity": 96}, {"pitch": 78, "tick": 15360, "length": 960, "velocity": 80}, {"pitch": 77, "tick": 16320, "length": 960, "velocity": 96}, {"pitch": 78, "tick": 16320, "length": 960, "velocity": 80}, {"pitch": 77, "tick": 17280, "length": 960, "velocity": 96}, {"pitch": 78, "tick": 17280, "length": 960, "velocity": 80}, {"pitch": 77, "tick": 18240, "length": 960, "velocity": 96}, {"pitch": 78, "tick": 18240, "length": 960, "velocity": 80}, {"pitch": 77, "tick": 19200, "length": 960, "velocity": 96}, {"pitch": 78, "tick": 19200, "length": 960, "velocity": 80}, {"pitch": 77, "tick": 20160, "length": 960, "velocity": 96}, {"pitch": 78, "tick": 20160, "length": 960, "velocity": 80}, {"pitch": 77, "tick": 21120, "length": 960, "velocity": 96}, {"pitch": 78, "tick": 21120, "length": 960, "velocity": 80}, {"pitch": 77, "tick": 22080, "length": 960, "velocity": 96}, {"pitch": 78, "tick": 22080, "length": 960, "velocity": 80}, {"pitch": 77, "tick": 23040, "length": 960, "velocity": 96}, {"pitch": 78, "tick": 23040, "length": 960, "velocity": 80}, {"pitch": 77, "tick": 24000, "length": 960, "velocity": 96}, {"pitch": 78, "tick": 24000, "length": 960, "velocity": 80}, {"pitch": 77, "tick": 24960, "length": 960, "velocity": 96}, {"pitch": 78, "tick": 24960, "length": 960, "velocity": 80}, {"pitch": 77, "tick": 25920, "length": 960, "velocity": 96}, {"pitch": 78, "tick": 25920, "length": 960, "velocity": 80}, {"pitch": 77, "tick": 26880, "length": 960, "velocity": 96}, {"pitch": 78, "tick": 26880, "length": 960, "velocity": 80}, {"pitch": 77, "tick": 27840, "length": 960, "velocity": 96}, {"pitch": 78, "tick": 27840, "length": 960, "velocity": 80}, {"pitch": 77, "tick": 28800, "length": 960, "velocity": 96}, {"pitch": 78, "tick": 28800, "length": 960, "velocity": 80}, {"pitch": 77, "tick": 29760, "length": 960, "velocity": 96}, {"pitch": 78, "tick": 29760, "length": 960, "velocity": 80}, {"pitch": 77, "tick": 30720, "length": 960, "velocity": 96}, {"pitch": 78, "tick": 30720, "length": 960, "velocity": 80}, {"pitch": 77, "tick": 31680, "length": 960, "velocity": 96}, {"pitch": 78, "tick": 31680, "length": 960, "velocity": 80}, {"pitch": 77, "tick": 32640, "length": 960, "velocity": 96}, {"pitch": 78, "tick": 32640, "length": 960, "velocity": 80}, {"pitch": 77, "tick": 33600, "length": 960, "velocity": 96}, {"pitch": 78, "tick": 33600, "length": 960, "velocity": 80}, {"pitch": 77, "tick": 34560, "length": 960, "velocity": 96}, {"pitch": 78, "tick": 34560, "length": 960, "velocity": 80}, {"pitch": 77, "tick": 35520, "length": 960, "velocity": 96}, {"pitch": 78, "tick": 35520, "length": 960, "velocity": 80}, {"pitch": 77, "tick": 36480, "length": 960, "velocity": 96}, {"pitch": 78, "tick": 36480, "length": 960, "velocity": 80}, {"pitch": 77, "tick": 37440, "length": 960, "velocity": 96}, {"pitch": 78, "tick": 37440, "length": 960, "velocity": 80}, {"pitch": 77, "tick": 38400, "length": 960, "velocity": 96}, {"pitch": 78, "tick": 38400, "length": 960, "velocity": 80}, {"pitch": 77, "tick": 39360, "length": 960, "velocity": 96}, {"pitch": 78, "tick": 39360, "length": 960, "velocity": 80}, {"pitch": 77, "tick": 40320, "length": 960, "velocity": 96}, {"pitch": 78, "tick": 40320, "length": 960, "velocity": 80}, {"pitch": 77, "tick": 41280, "length": 960, "velocity": 96}, {"pitch": 78, "tick": 41280, "length": 960, "velocity": 80}, {"pitch": 77, "tick": 42240, "length": 960, "velocity": 96}, {"pitch": 78, "tick": 42240, "length": 960, "velocity": 80}, {"pitch": 77, "tick": 43200, "length": 960, "velocity": 96}, {"pitch": 78, "tick": 43200, "length": 960, "velocity": 80}, {"pitch": 77, "tick": 44160, "length": 960, "velocity": 96}, {"pitch": 78, "tick": 44160, "length": 960, "velocity": 80}, {"pitch": 77, "tick": 45120, "length": 960, "velocity": 96}, {"pitch": 78, "tick": 45120, "length": 960, "velocity": 80}, {"pitch": 77, "tick": 46080, "length": 960, "velocity": 96}, {"pitch": 78, "tick": 46080, "length": 960, "velocity": 80}, {"pitch": 77, "tick": 47040, "length": 960, "velocity": 96}, {"pitch": 78, "tick": 47040, "length": 960, "velocity": 80}, {"pitch": 77, "tick": 48000, "length": 960, "velocity": 96}, {"pitch": 78, "tick": 48000, "length": 960, "velocity": 80}, {"pitch": 77, "tick": 48960, "length": 960, "velocity": 96}, {"pitch": 78, "tick": 48960, "length": 960, "velocity": 80}, {"pitch": 77, "tick": 49920, "length": 960, "velocity": 96}, {"pitch": 78, "tick": 49920, "length": 960, "velocity": 80}, {"pitch": 77, "tick": 50880, "length": 960, "velocity": 96}, {"pitch": 78, "tick": 50880, "length": 960, "velocity": 80}, {"pitch": 77, "tick": 51840, "length": 960, "velocity": 96}, {"pitch": 78, "tick": 51840, "length": 960, "velocity": 80}, {"pitch": 77, "tick": 52800, "length": 960, "velocity": 96}, {"pitch": 78, "tick": 52800, "length": 960, "velocity": 80}, {"pitch": 77, "tick": 53760, "length": 960, "velocity": 96}, {"pitch": 78, "tick": 53760, "length": 960, "velocity": 80}, {"pitch": 77, "tick": 54720, "length": 960, "velocity": 96}, {"pitch": 78, "tick": 54720, "length": 960, "velocity": 80}, {"pitch": 77, "tick": 55680, "length": 960, "velocity": 96}, {"pitch": 78, "tick": 55680, "length": 960, "velocity": 80}, {"pitch": 77, "tick": 56640, "length": 960, "velocity": 96}, {"pitch": 78, "tick": 56640, "length": 960, "velocity": 80}, {"pitch": 77, "tick": 57600, "length": 960, "velocity": 96}, {"pitch": 78, "tick": 57600, "length": 960, "velocity": 80}, {"pitch": 77, "tick": 58560, "length": 960, "velocity": 96}, {"pitch": 78, "tick": 58560, "length": 960, "velocity": 80}, {"pitch": 77, "tick": 59520, "length": 960, "velocity": 96}, {"pitch": 78, "tick": 59520, "length": 960, "velocity": 80}, {"pitch": 77, "tick": 60480, "length": 960, "velocity": 96}, {"pitch": 78, "tick": 60480, "length": 960, "velocity": 80}, {"pitch": 77, "tick": 61440, "length": 960, "velocity": 96}, {"pitch": 78, "tick": 61440, "length": 960, "velocity": 80}, {"pitch": 77, "tick": 62400, "length": 960, "velocity": 96}, {"pitch": 78, "tick": 62400, "length": 960, "velocity": 80}, {"pitch": 77, "tick": 63360, "length": 960, "velocity": 96}, {"pitch": 78, "tick": 63360, "length": 960, "velocity": 80}, {"pitch": 77, "tick": 64320, "length": 960, "velocity": 96}, {"pitch": 78, "tick": 64320, "length": 960, "velocity": 80}, {"pitch": 77, "tick": 65280, "length": 960, "velocity": 96}, {"pitch": 78, "tick": 65280, "length": 960, "velocity": 80}, {"pitch": 77, "tick": 66240, "length": 960, "velocity": 96}, {"pitch": 78, "tick": 66240, "length": 960, "velocity": 80}, {"pitch": 77, "tick": 67200, "length": 960, "velocity": 96}, {"pitch": 78, "tick": 67200, "length": 960, "velocity": 80}, {"pitch": 77, "tick": 68160, "length": 960, "velocity": 96}, {"pitch": 78, "tick": 68160, "length": 960, "velocity": 80}, {"pitch": 77, "tick": 69120, "length": 960, "velocity": 96}, {"pitch": 78, "tick": 69120, "length": 960, "velocity": 80}, {"pitch": 77, "tick": 70080, "length": 960, "velocity": 96}, {"pitch": 78, "tick": 70080, "length": 960, "velocity": 80}, {"pitch": 77, "tick": 71040, "length": 960, "velocity": 96}, {"pitch": 78, "tick": 71040, "length": 960, "velocity": 80}, {"pitch": 77, "tick": 72000, "length": 960, "velocity": 96}, {"pitch": 78, "tick": 72000, "length": 960, "velocity": 80}, {"pitch": 77, "tick": 72960, "length": 960, "velocity": 96}, {"pitch": 78, "tick": 72960, "length": 960, "velocity": 80}, {"pitch": 77, "tick": 73920, "length": 960, "velocity": 96}, {"pitch": 78, "tick": 73920, "length": 960, "velocity": 80}, {"pitch": 77, "tick": 74880, "length": 960, "velocity": 96}, {"pitch": 78, "tick": 74880, "length": 960, "velocity": 80}, {"pitch": 77, "tick": 75840, "length": 960, "velocity": 96}, {"pitch": 78, "tick": 75840, "length": 960, "velocity": 80}, {"pitch": 77, "tick": 76800, "length": 960, "velocity": 96}, {"pitch": 78, "tick": 76800, "length": 960, "velocity": 80}, {"pitch": 77, "tick": 77760, "length": 960, "velocity": 96}, {"pitch": 78, "tick": 77760, "length": 960, "velocity": 80}, {"pitch": 77, "tick": 78720, "length": 960, "velocity": 96}, {"pitch": 78, "tick": 78720, "length": 960, "velocity": 80}, {"pitch": 77, "tick": 79680, "length": 960, "velocity": 96}, {"pitch": 78, "tick": 79680, "length": 960, "velocity": 80}, {"pitch": 77, "tick": 80640, "length": 960, "velocity": 96}, {"pitch": 78, "tick": 80640, "length": 960, "velocity": 80}, {"pitch": 77, "tick": 81600, "length": 960, "velocity": 96}, {"pitch": 78, "tick": 81600, "length": 960, "velocity": 80}, {"pitch": 77, "tick": 82560, "length": 960, "velocity": 96}, {"pitch": 78, "tick": 82560, "length": 960, "velocity": 80}, {"pitch": 77, "tick": 83520, "length": 960, "velocity": 96}, {"pitch": 78, "tick": 83520, "length": 960, "velocity": 80}, {"pitch": 77, "tick": 84480, "length": 960, "velocity": 96}, {"pitch": 78, "tick": 84480, "length": 960, "velocity": 80}, {"pitch": 77, "tick": 85440, "length": 960, "velocity": 96}, {"pitch": 78, "tick": 85440, "length": 960, "velocity": 80}, {"pitch": 77, "tick": 86400, "length": 960, "velocity": 96}, {"pitch": 78, "tick": 86400, "length": 960, "velocity": 80}, {"pitch": 77, "tick": 87360, "length": 960, "velocity": 96}, {"pitch": 78, "tick": 87360, "length": 960, "velocity": 80}, {"pitch": 77, "tick": 88320, "length": 960, "velocity": 96}, {"pitch": 78, "tick": 88320, "length": 960, "velocity": 80}, {"pitch": 77, "tick": 89280, "length": 960, "velocity": 96}, {"pitch": 78, "tick": 89280, "length": 960, "velocity": 80}, {"pitch": 77, "tick": 90240, "length": 960, "velocity": 96}, {"pitch": 78, "tick": 90240, "length": 960, "velocity": 80}, {"pitch": 77, "tick": 91200, "length": 960, "velocity": 96}, {"pitch": 78, "tick": 91200, "length": 960, "velocity": 80}, {"pitch": 77, "tick": 92160, "length": 960, "velocity": 96}, {"pitch": 78, "tick": 92160, "length": 960, "velocity": 80}, {"pitch": 77, "tick": 93120, "length": 960, "velocity": 96}, {"pitch": 78, "tick": 93120, "length": 960, "velocity": 80}, {"pitch": 77, "tick": 94080, "length": 960, "velocity": 96}, {"pitch": 78, "tick": 94080, "length": 960, "velocity": 80}, {"pitch": 77, "tick": 95040, "length": 960, "velocity": 96}, {"pitch": 78, "tick": 95040, "length": 960, "velocity": 80}, {"pitch": 77, "tick": 96000, "length": 960, "velocity": 96}, {"pitch": 78, "tick": 96000, "length": 960, "velocity": 80}, {"pitch": 77, "tick": 96960, "length": 960, "velocity": 96}, {"pitch": 78, "tick": 96960, "length": 960, "velocity": 80}, {"pitch": 77, "tick": 97920, "length": 960, "velocity": 96}, {"pitch": 78, "tick": 97920, "length": 960, "velocity": 80}, {"pitch": 77, "tick": 98880, "length": 960, "velocity": 96}, {"pitch": 78, "tick": 98880, "length": 960, "velocity": 80}, {"pitch": 77, "tick": 99840, "length": 960, "velocity": 96}, {"pitch": 78, "tick": 99840, "length": 960, "velocity": 80}, {"pitch": 77, "tick": 100800, "length": 960, "velocity": 96}, {"pitch": 78, "tick": 100800, "length": 960, "velocity": 80}, {"pitch": 77, "tick": 101760, "length": 960, "velocity": 96}, {"pitch": 78, "tick": 101760, "length": 960, "velocity": 80}, {"pitch": 77, "tick": 102720, "length": 960, "velocity": 96}, {"pitch": 78, "tick": 102720, "length": 960, "velocity": 80}, {"pitch": 77, "tick": 103680, "length": 960, "velocity": 96}, {"pitch": 78, "tick": 103680, "length": 960, "velocity": 80}, {"pitch": 77, "tick": 104640, "length": 960, "velocity": 96}, {"pitch": 78, "tick": 104640, "length": 960, "velocity": 80}, {"pitch": 77, "tick": 105600, "length": 960, "velocity": 96}, {"pitch": 78, "tick": 105600, "length": 960, "velocity": 80}, {"pitch": 77, "tick": 106560, "length": 960, "velocity": 96}, {"pitch": 78, "tick": 106560, "length": 960, "velocity": 80}, {"pitch": 77, "tick": 107520, "length": 960, "velocity": 96}, {"pitch": 78, "tick": 107520, "length": 960, "velocity": 80}, {"pitch": 77, "tick": 108480, "length": 960, "velocity": 96}, {"pitch": 78, "tick": 108480, "length": 960, "velocity": 80}, {"pitch": 77, "tick": 109440, "length": 960, "velocity": 96}, {"pitch": 78, "tick": 109440, "length": 960, "velocity": 80}, {"pitch": 77, "tick": 110400, "length": 960, "velocity": 96}, {"pitch": 78, "tick": 110400, "length": 960, "velocity": 80}, {"pitch": 77, "tick": 111360, "length": 960, "velocity": 96}, {"pitch": 78, "tick": 111360, "length": 960, "velocity": 80}, {"pitch": 77, "tick": 112320, "length": 960, "velocity": 96}, {"pitch": 78, "tick": 112320, "length": 960, "velocity": 80}, {"pitch": 77, "tick": 113280, "length": 960, "velocity": 96}, {"pitch": 78, "tick": 113280, "length": 960, "velocity": 80}, {"pitch": 77, "tick": 114240, "length": 960, "velocity": 96}, {"pitch": 78, "tick": 114240, "length": 960, "velocity": 80}, {"pitch": 77, "tick": 115200, "length": 960, "velocity": 96}, {"pitch": 78, "tick": 115200, "length": 960, "velocity": 80}, {"pitch": 77, "tick": 116160, "length": 960, "velocity": 96}, {"pitch": 78, "tick": 116160, "length": 960, "velocity": 80}, {"pitch": 77, "tick": 117120, "length": 960, "velocity": 96}, {"pitch": 78, "tick": 117120, "length": 960, "velocity": 80}, {"pitch": 77, "tick": 118080, "length": 960, "velocity": 96}, {"pitch": 78, "tick": 118080, "length": 960, "velocity": 80}, {"pitch": 77, "tick": 119040, "length": 960, "velocity": 96}, {"pitch": 78, "tick": 119040, "length": 960, "velocity": 80}, {"pitch": 77, "tick": 120000, "length": 960, "velocity": 96}, {"pitch": 78, "tick": 120000, "length": 960, "velocity": 80}, {"pitch": 77, "tick": 120960, "length": 960, "velocity": 96}, {"pitch": 78, "tick": 120960, "length": 960, "velocity": 80}, {"pitch": 77, "tick": 121920, "length": 960, "velocity": 96}, {"pitch": 78, "tick": 121920, "length": 960, "velocity": 80}, {"pitch": 77, "tick": 122880, "length": 960, "velocity": 96}, {"pitch": 78, "tick": 122880, "length": 960, "velocity": 80}, {"pitch": 77, "tick": 123840, "length": 960, "velocity": 96}, {"pitch": 78, "tick": 123840, "length": 960, "velocity": 80}, {"pitch": 77, "tick": 124800, "length": 960, "velocity": 96}, {"pitch": 78, "tick": 124800, "length": 960, "velocity": 80}, {"pitch": 77, "tick": 125760, "length": 960, "velocity": 96}, {"pitch": 78, "tick": 125760, "length": 960, "velocity": 80}, {"pitch": 77, "tick": 126720, "length": 960, "velocity": 96}, {"pitch": 78, "tick": 126720, "length": 960, "velocity": 80}, {"pitch": 77, "tick": 127680, "length": 960, "velocity": 96}, {"pitch": 78, "tick": 127680, "length": 960, "velocity": 80}, {"pitch": 77, "tick": 128640, "length": 960, "velocity": 96}, {"pitch": 78, "tick": 128640, "length": 960, "velocity": 80}, {"pitch": 77, "tick": 129600, "length": 960, "velocity": 96}, {"pitch": 78, "tick": 129600, "length": 960, "velocity": 80}, {"pitch": 77, "tick": 130560, "length": 960, "velocity": 96}, {"pitch": 78, "tick": 130560, "length": 960, "velocity": 80}, {"pitch": 77, "tick": 131520, "length": 960, "velocity": 96}, {"pitch": 78, "tick": 131520, "length": 960, "velocity": 80}, {"pitch": 77, "tick": 132480, "length": 960, "velocity": 96}, {"pitch": 78, "tick": 132480, "length": 960, "velocity": 80}, {"pitch": 77, "tick": 133440, "length": 960, "velocity": 96}, {"pitch": 78, "tick": 133440, "length": 960, "velocity": 80}, {"pitch": 77, "tick": 134400, "length": 960, "velocity": 96}, {"pitch": 78, "tick": 134400, "length": 960, "velocity": 80}, {"pitch": 77, "tick": 135360, "length": 960, "velocity": 96}, {"pitch": 78, "tick": 135360, "length": 960, "velocity": 80}, {"pitch": 77, "tick": 136320, "length": 960, "velocity": 96}, {"pitch": 78, "tick": 136320, "length": 960, "velocity": 80}, {"pitch": 77, "tick": 137280, "length": 960, "velocity": 96}, {"pitch": 78, "tick": 137280, "length": 960, "velocity": 80}, {"pitch": 77, "tick": 138240, "length": 960, "velocity": 96}, {"pitch": 78, "tick": 138240, "length": 960, "velocity": 80}, {"pitch": 77, "tick": 139200, "length": 960, "velocity": 96}, {"pitch": 78, "tick": 139200, "length": 960, "velocity": 80}, {"pitch": 77, "tick": 140160, "length": 960, "velocity": 96}, {"pitch": 78, "tick": 140160, "length": 960, "velocity": 80}, {"pitch": 77, "tick": 141120, "length": 960, "velocity": 96}, {"pitch": 78, "tick": 141120, "length": 960, "velocity": 80}, {"pitch": 77, "tick": 142080, "length": 960, "velocity": 96}, {"pitch": 78, "tick": 142080, "length": 960, "velocity": 80}, {"pitch": 77, "tick": 143040, "length": 960, "velocity": 96}, {"pitch": 78, "tick": 143040, "length": 960, "velocity": 80}, {"pitch": 77, "tick": 144000, "length": 960, "velocity": 96}, {"pitch": 78, "tick": 144000, "length": 960, "velocity": 80}, {"pitch": 77, "tick": 144960, "length": 960, "velocity": 96}, {"pitch": 78, "tick": 144960, "length": 960, "velocity": 80}, {"pitch": 77, "tick": 145920, "length": 960, "velocity": 96}, {"pitch": 78, "tick": 145920, "length": 960, "velocity": 80}, {"pitch": 77, "tick": 146880, "length": 960, "velocity": 96}, {"pitch": 78, "tick": 146880, "length": 960, "velocity": 80}, {"pitch": 77, "tick": 147840, "length": 960, "velocity": 96}, {"pitch": 78, "tick": 147840, "length": 960, "velocity": 80}, {"pitch": 77, "tick": 148800, "length": 960, "velocity": 96}, {"pitch": 78, "tick": 148800, "length": 960, "velocity": 80}, {"pitch": 77, "tick": 149760, "length": 960, "velocity": 96}, {"pitch": 78, "tick": 149760, "length": 960, "velocity": 80}, {"pitch": 77, "tick": 150720, "length": 960, "velocity": 96}, {"pitch": 78, "tick": 150720, "length": 960, "velocity": 80}, {"pitch": 77, "tick": 151680, "length": 960, "velocity": 96}, {"pitch": 78, "tick": 151680, "length": 960, "velocity": 80}, {"pitch": 77, "tick": 152640, "length": 960, "velocity": 96}, {"pitch": 78, "tick": 152640, "length": 960, "velocity": 80}, {"pitch": 77, "tick": 153600, "length": 960, "velocity": 96}, {"pitch": 78, "tick": 153600, "length": 960, "velocity": 80}, {"pitch": 77, "tick": 154560, "length": 960, "velocity": 96}, {"pitch": 78, "tick": 154560, "length": 960, "velocity": 80}, {"pitch": 77, "tick": 155520, "length": 960, "velocity": 96}, {"pitch": 78, "tick": 155520, "length": 960, "velocity": 80}, {"pitch": 77, "tick": 156480, "length": 960, "velocity": 96}, {"pitch": 78, "tick": 156480, "length": 960, "velocity": 80}, {"pitch": 77, "tick": 157440, "length": 960, "velocity": 96}, {"pitch": 78, "tick": 157440, "length": 960, "velocity": 80}, {"pitch": 77, "tick": 158400, "length": 960, "velocity": 96}, {"pitch": 78, "tick": 158400, "length": 960, "velocity": 80}, {"pitch": 77, "tick": 159360, "length": 960, "velocity": 96}, {"pitch": 78, "tick": 159360, "length": 960, "velocity": 80}, {"pitch": 77, "tick": 160320, "length": 960, "velocity": 96}, {"pitch": 78, "tick": 160320, "length": 960, "velocity": 80}, {"pitch": 77, "tick": 161280, "length": 960, "velocity": 96}, {"pitch": 78, "tick": 161280, "length": 960, "velocity": 80}, {"pitch": 77, "tick": 162240, "length": 960, "velocity": 96}, {"pitch": 78, "tick": 162240, "length": 960, "velocity": 80}, {"pitch": 77, "tick": 163200, "length": 960, "velocity": 96}, {"pitch": 78, "tick": 163200, "length": 960, "velocity": 80}, {"pitch": 77, "tick": 164160, "length": 960, "velocity": 96}, {"pitch": 78, "tick": 164160, "length": 960, "velocity": 80}, {"pitch": 77, "tick": 165120, "length": 960, "velocity": 96}, {"pitch": 78, "tick": 165120, "length": 960, "velocity": 80}, {"pitch": 77, "tick": 166080, "length": 960, "velocity": 96}, {"pitch": 78, "tick": 166080, "length": 960, "velocity": 80}, {"pitch": 77, "tick": 167040, "length": 960, "velocity": 96}, {"pitch": 78, "tick": 167040, "length": 960, "velocity": 80}, {"pitch": 77, "tick": 168000, "length": 960, "velocity": 96}, {"pitch": 78, "tick": 168000, "length": 960, "velocity": 80}, {"pitch": 77, "tick": 168960, "length": 960, "velocity": 96}, {"pitch": 78, "tick": 168960, "length": 960, "velocity": 80}, {"pitch": 77, "tick": 169920, "length": 960, "velocity": 96}, {"pitch": 78, "tick": 169920, "length": 960, "velocity": 80}, {"pitch": 77, "tick": 170880, "length": 960, "velocity": 96}, {"pitch": 78, "tick": 170880, "length": 960, "velocity": 80}, {"pitch": 77, "tick": 171840, "length": 960, "velocity": 96}, {"pitch": 78, "tick": 171840, "length": 960, "velocity": 80}, {"pitch": 77, "tick": 172800, "length": 960, "velocity": 96}, {"pitch": 78, "tick": 172800, "length": 960, "velocity": 80}, {"pitch": 77, "tick": 173760, "length": 960, "velocity": 96}, {"pitch": 78, "tick": 173760, "length": 960, "velocity": 80}, {"pitch": 77, "tick": 174720, "length": 960, "velocity": 96}, {"pitch": 78, "tick": 174720, "length": 960, "velocity": 80}, {"pitch": 77, "tick": 175680, "length": 960, "velocity": 96}, {"pitch": 78, "tick": 175680, "length": 960, "velocity": 80}, {"pitch": 77, "tick": 176640, "length": 960, "velocity": 96}, {"pitch": 78, "tick": 176640, "length": 960, "velocity": 80}, {"pitch": 77, "tick": 177600, "length": 960, "velocity": 96}, {"pitch": 78, "tick": 177600, "length": 960, "velocity": 80}, {"pitch": 77, "tick": 178560, "length": 960, "velocity": 96}, {"pitch": 78, "tick": 178560, "length": 960, "velocity": 80}, {"pitch": 77, "tick": 179520, "length": 960, "velocity": 96}, {"pitch": 78, "tick": 179520, "length": 960, "velocity": 80}, {"pitch": 77, "tick": 180480, "length": 960, "velocity": 96}, {"pitch": 78, "tick": 180480, "length": 960, "velocity": 80}, {"pitch": 77, "tick": 181440, "length": 960, "velocity": 96}, {"pitch": 78, "tick": 181440, "length": 960, "velocity": 80}, {"pitch": 77, "tick": 182400, "length": 960, "velocity": 96}, {"pitch": 78, "tick": 182400, "length": 960, "velocity": 80}, {"pitch": 77, "tick": 183360, "length": 960, "velocity": 96}, {"pitch": 78, "tick": 183360, "length": 960, "velocity": 80}, {"pitch": 77, "tick": 184320, "length": 960, "velocity": 96}, {"pitch": 78, "tick": 184320, "length": 960, "velocity": 80}, {"pitch": 77, "tick": 185280, "length": 960, "velocity": 96}, {"pitch": 78, "tick": 185280, "length": 960, "velocity": 80}, {"pitch": 77, "tick": 186240, "length": 960, "velocity": 96}, {"pitch": 78, "tick": 186240, "length": 960, "velocity": 80}, {"pitch": 77, "tick": 187200, "length": 960, "velocity": 96}, {"pitch": 78, "tick": 187200, "length": 960, "velocity": 80}, {"pitch": 77, "tick": 188160, "length": 960, "velocity": 96}, {"pitch": 78, "tick": 188160, "length": 960, "velocity": 80}, {"pitch": 77, "tick": 189120, "length": 960, "velocity": 96}, {"pitch": 78, "tick": 189120, "length": 960, "velocity": 80}, {"pitch": 77, "tick": 190080, "length": 960, "velocity": 96}, {"pitch": 78, "tick": 190080, "length": 960, "velocity": 80}, {"pitch": 77, "tick": 191040, "length": 960, "velocity": 96}, {"pitch": 78, "tick": 191040, "length": 960, "velocity": 80}, {"pitch": 77, "tick": 192000, "length": 960, "velocity": 96}, {"pitch": 78, "tick": 192000, "length": 960, "velocity": 80}, {"pitch": 77, "tick": 192960, "length": 960, "velocity": 96}, {"pitch": 78, "tick": 192960, "length": 960, "velocity": 80}, {"pitch": 77, "tick": 193920, "length": 960, "velocity": 96}, {"pitch": 78, "tick": 193920, "length": 960, "velocity": 80}, {"pitch": 77, "tick": 194880, "length": 960, "velocity": 96}, {"pitch": 78, "tick": 194880, "length": 960, "velocity": 80}, {"pitch": 77, "tick": 195840, "length": 960, "velocity": 96}, {"pitch": 78, "tick": 195840, "length": 960, "velocity": 80}, {"pitch": 77, "tick": 196800, "length": 960, "velocity": 96}, {"pitch": 78, "tick": 196800, "length": 960, "velocity": 80}, {"pitch": 77, "tick": 197760, "length": 960, "velocity": 96}, {"pitch": 78, "tick": 197760, "length": 960, "velocity": 80}, {"pitch": 77, "tick": 198720, "length": 960, "velocity": 96}, {"pitch": 78, "tick": 198720, "length": 960, "velocity": 80}, {"pitch": 77, "tick": 199680, "length": 960, "velocity": 96}, {"pitch": 78, "tick": 199680, "length": 960, "velocity": 80}, {"pitch": 77, "tick": 200640, "length": 960, "velocity": 96}, {"pitch": 78, "tick": 200640, "length": 960, "velocity": 80}, {"pitch": 77, "tick": 201600, "length": 960, "velocity": 96}, {"pitch": 78, "tick": 201600, "length": 960, "velocity": 80}, {"pitch": 77, "tick": 202560, "length": 960, "velocity": 96}, {"pitch": 78, "tick": 202560, "length": 960, "velocity": 80}, {"pitch": 77, "tick": 203520, "length": 960, "velocity": 96}, {"pitch": 78, "tick": 203520, "length": 960, "velocity": 80}, {"pitch": 77, "tick": 204480, "length": 960, "velocity": 96}, {"pitch": 78, "tick": 204480, "length": 960, "velocity": 80}, {"pitch": 77, "tick": 205440, "length": 960, "velocity": 96}, {"pitch": 78, "tick": 205440, "length": 960, "velocity": 80}, {"pitch": 77, "tick": 206400, "length": 960, "velocity": 96}, {"pitch": 78, "tick": 206400, "length": 960, "velocity": 80}, {"pitch": 77, "tick": 207360, "length": 960, "velocity": 96}, {"pitch": 78, "tick": 207360, "length": 960, "velocity": 80}, {"pitch": 77, "tick": 208320, "length": 960, "velocity": 96}, {"pitch": 78, "tick": 208320, "length": 960, "velocity": 80}, {"pitch": 77, "tick": 209280, "length": 960, "velocity": 96}, {"pitch": 78, "tick": 209280, "length": 960, "velocity": 80}, {"pitch": 77, "tick": 210240, "length": 960, "velocity": 96}, {"pitch": 78, "tick": 210240, "length": 960, "velocity": 80}, {"pitch": 77, "tick": 211200, "length": 960, "velocity": 96}, {"pitch": 78, "tick": 211200, "length": 960, "velocity": 80}, {"pitch": 77, "tick": 212160, "length": 960, "velocity": 96}, {"pitch": 78, "tick": 212160, "length": 960, "velocity": 80}, {"pitch": 77, "tick": 213120, "length": 960, "velocity": 96}, {"pitch": 78, "tick": 213120, "length": 960, "velocity": 80}, {"pitch": 77, "tick": 214080, "length": 960, "velocity": 96}, {"pitch": 78, "tick": 214080, "length": 960, "velocity": 80}, {"pitch": 77, "tick": 215040, "length": 960, "velocity": 96}, {"pitch": 78, "tick": 215040, "length": 960, "velocity": 80}, {"pitch": 77, "tick": 216000, "length": 480, "velocity": 96}, {"pitch": 78, "tick": 216000, "length": 480, "velocity": 80}, {"pitch": 77, "tick": 286080, "length": 960, "velocity": 96}, {"pitch": 78, "tick": 286080, "length": 960, "velocity": 80}, {"pitch": 77, "tick": 287040, "length": 960, "velocity": 96}, {"pitch": 78, "tick": 287040, "length": 960, "velocity": 80}, {"pitch": 77, "tick": 288000, "length": 960, "velocity": 96}, {"pitch": 78, "tick": 288000, "length": 960, "velocity": 80}, {"pitch": 77, "tick": 288960, "length": 960, "velocity": 96}, {"pitch": 78, "tick": 288960, "length": 960, "velocity": 80}, {"pitch": 77, "tick": 289920, "length": 960, "velocity": 96}, {"pitch": 78, "tick": 289920, "length": 960, "velocity": 80}, {"pitch": 77, "tick": 290880, "length": 960, "velocity": 96}, {"pitch": 78, "tick": 290880, "length": 960, "velocity": 80}, {"pitch": 77, "tick": 291840, "length": 960, "velocity": 96}, {"pitch": 78, "tick": 291840, "length": 960, "velocity": 80}, {"pitch": 77, "tick": 292800, "length": 960, "velocity": 96}, {"pitch": 78, "tick": 292800, "length": 960, "velocity": 80}, {"pitch": 77, "tick": 293760, "length": 960, "velocity": 96}, {"pitch": 78, "tick": 293760, "length": 960, "velocity": 80}, {"pitch": 77, "tick": 294720, "length": 960, "velocity": 96}, {"pitch": 78, "tick": 294720, "length": 960, "velocity": 80}, {"pitch": 77, "tick": 295680, "length": 960, "velocity": 96}, {"pitch": 78, "tick": 295680, "length": 960, "velocity": 80}, {"pitch": 77, "tick": 296640, "length": 960, "velocity": 96}, {"pitch": 78, "tick": 296640, "length": 960, "velocity": 80}, {"pitch": 77, "tick": 297600, "length": 960, "velocity": 96}, {"pitch": 78, "tick": 297600, "length": 960, "velocity": 80}, {"pitch": 77, "tick": 298560, "length": 960, "velocity": 96}, {"pitch": 78, "tick": 298560, "length": 960, "velocity": 80}, {"pitch": 77, "tick": 299520, "length": 960, "velocity": 96}, {"pitch": 78, "tick": 299520, "length": 960, "velocity": 80}, {"pitch": 77, "tick": 300480, "length": 960, "velocity": 96}, {"pitch": 78, "tick": 300480, "length": 960, "velocity": 80}, {"pitch": 77, "tick": 301440, "length": 960, "velocity": 96}, {"pitch": 78, "tick": 301440, "length": 960, "velocity": 80}, {"pitch": 77, "tick": 302400, "length": 960, "velocity": 96}, {"pitch": 78, "tick": 302400, "length": 960, "velocity": 80}, {"pitch": 77, "tick": 303360, "length": 960, "velocity": 96}, {"pitch": 78, "tick": 303360, "length": 960, "velocity": 80}, {"pitch": 77, "tick": 304320, "length": 960, "velocity": 96}, {"pitch": 78, "tick": 304320, "length": 960, "velocity": 80}, {"pitch": 77, "tick": 305280, "length": 960, "velocity": 96}, {"pitch": 78, "tick": 305280, "length": 960, "velocity": 80}, {"pitch": 77, "tick": 306240, "length": 960, "velocity": 96}, {"pitch": 78, "tick": 306240, "length": 960, "velocity": 80}, {"pitch": 77, "tick": 307200, "length": 960, "velocity": 96}, {"pitch": 78, "tick": 307200, "length": 960, "velocity": 80}, {"pitch": 77, "tick": 308160, "length": 960, "velocity": 96}, {"pitch": 78, "tick": 308160, "length": 960, "velocity": 80}, {"pitch": 77, "tick": 309120, "length": 960, "velocity": 96}, {"pitch": 78, "tick": 309120, "length": 960, "velocity": 80}, {"pitch": 77, "tick": 310080, "length": 960, "velocity": 96}, {"pitch": 78, "tick": 310080, "length": 960, "velocity": 80}, {"pitch": 77, "tick": 311040, "length": 960, "velocity": 96}, {"pitch": 78, "tick": 311040, "length": 960, "velocity": 80}, {"pitch": 77, "tick": 312000, "length": 960, "velocity": 96}, {"pitch": 78, "tick": 312000, "length": 960, "velocity": 80}, {"pitch": 77, "tick": 312960, "length": 960, "velocity": 96}, {"pitch": 78, "tick": 312960, "length": 960, "velocity": 80}, {"pitch": 77, "tick": 313920, "length": 960, "velocity": 96}, {"pitch": 78, "tick": 313920, "length": 960, "velocity": 80}, {"pitch": 77, "tick": 314880, "length": 960, "velocity": 96}, {"pitch": 78, "tick": 314880, "length": 960, "velocity": 80}, {"pitch": 77, "tick": 315840, "length": 960, "velocity": 96}, {"pitch": 78, "tick": 315840, "length": 960, "velocity": 80}, {"pitch": 77, "tick": 316800, "length": 960, "velocity": 96}, {"pitch": 78, "tick": 316800, "length": 960, "velocity": 80}, {"pitch": 77, "tick": 317760, "length": 960, "velocity": 96}, {"pitch": 78, "tick": 317760, "length": 960, "velocity": 80}, {"pitch": 77, "tick": 318720, "length": 960, "velocity": 96}, {"pitch": 78, "tick": 318720, "length": 960, "velocity": 80}, {"pitch": 77, "tick": 319680, "length": 960, "velocity": 96}, {"pitch": 78, "tick": 319680, "length": 960, "velocity": 80}, {"pitch": 77, "tick": 320640, "length": 960, "velocity": 96}, {"pitch": 78, "tick": 320640, "length": 960, "velocity": 80}, {"pitch": 77, "tick": 321600, "length": 960, "velocity": 96}, {"pitch": 78, "tick": 321600, "length": 960, "velocity": 80}, {"pitch": 77, "tick": 322560, "length": 960, "velocity": 96}, {"pitch": 78, "tick": 322560, "length": 960, "velocity": 80}, {"pitch": 77, "tick": 323520, "length": 960, "velocity": 96}, {"pitch": 78, "tick": 323520, "length": 960, "velocity": 80}, {"pitch": 77, "tick": 324480, "length": 960, "velocity": 96}, {"pitch": 78, "tick": 324480, "length": 960, "velocity": 80}, {"pitch": 77, "tick": 325440, "length": 960, "velocity": 96}, {"pitch": 78, "tick": 325440, "length": 960, "velocity": 80}, {"pitch": 77, "tick": 326400, "length": 960, "velocity": 96}, {"pitch": 78, "tick": 326400, "length": 960, "velocity": 80}, {"pitch": 77, "tick": 327360, "length": 960, "velocity": 96}, {"pitch": 78, "tick": 327360, "length": 960, "velocity": 80}, {"pitch": 77, "tick": 328320, "length": 960, "velocity": 96}, {"pitch": 78, "tick": 328320, "length": 960, "velocity": 80}, {"pitch": 77, "tick": 329280, "length": 960, "velocity": 96}, {"pitch": 78, "tick": 329280, "length": 960, "velocity": 80}, {"pitch": 77, "tick": 330240, "length": 960, "velocity": 96}, {"pitch": 78, "tick": 330240, "length": 960, "velocity": 80}, {"pitch": 77, "tick": 331200, "length": 960, "velocity": 96}, {"pitch": 78, "tick": 331200, "length": 960, "velocity": 80}, {"pitch": 77, "tick": 332160, "length": 960, "velocity": 96}, {"pitch": 78, "tick": 332160, "length": 960, "velocity": 80}, {"pitch": 77, "tick": 333120, "length": 960, "velocity": 96}, {"pitch": 78, "tick": 333120, "length": 960, "velocity": 80}, {"pitch": 77, "tick": 334080, "length": 960, "velocity": 96}, {"pitch": 78, "tick": 334080, "length": 960, "velocity": 80}, {"pitch": 77, "tick": 335040, "length": 960, "velocity": 96}, {"pitch": 78, "tick": 335040, "length": 960, "velocity": 80}, {"pitch": 77, "tick": 336000, "length": 960, "velocity": 96}, {"pitch": 78, "tick": 336000, "length": 960, "velocity": 80}, {"pitch": 77, "tick": 336960, "length": 960, "velocity": 96}, {"pitch": 78, "tick": 336960, "length": 960, "velocity": 80}, {"pitch": 77, "tick": 337920, "length": 960, "velocity": 96}, {"pitch": 78, "tick": 337920, "length": 960, "velocity": 80}, {"pitch": 77, "tick": 338880, "length": 960, "velocity": 96}, {"pitch": 78, "tick": 338880, "length": 960, "velocity": 80}, {"pitch": 77, "tick": 339840, "length": 960, "velocity": 96}, {"pitch": 78, "tick": 339840, "length": 960, "velocity": 80}, {"pitch": 77, "tick": 340800, "length": 960, "velocity": 96}, {"pitch": 78, "tick": 340800, "length": 960, "velocity": 80}, {"pitch": 77, "tick": 341760, "length": 960, "velocity": 96}, {"pitch": 78, "tick": 341760, "length": 960, "velocity": 80}, {"pitch": 77, "tick": 342720, "length": 960, "velocity": 96}, {"pitch": 78, "tick": 342720, "length": 960, "velocity": 80}, {"pitch": 77, "tick": 343680, "length": 960, "velocity": 96}, {"pitch": 78, "tick": 343680, "length": 960, "velocity": 80}, {"pitch": 77, "tick": 344640, "length": 960, "velocity": 96}, {"pitch": 78, "tick": 344640, "length": 960, "velocity": 80}, {"pitch": 77, "tick": 345600, "length": 960, "velocity": 96}, {"pitch": 78, "tick": 345600, "length": 960, "velocity": 80}, {"pitch": 77, "tick": 346560, "length": 960, "velocity": 96}, {"pitch": 78, "tick": 346560, "length": 960, "velocity": 80}, {"pitch": 77, "tick": 347520, "length": 960, "velocity": 96}, {"pitch": 78, "tick": 347520, "length": 960, "velocity": 80}, {"pitch": 77, "tick": 348480, "length": 960, "velocity": 96}, {"pitch": 78, "tick": 348480, "length": 960, "velocity": 80}, {"pitch": 77, "tick": 349440, "length": 960, "velocity": 96}, {"pitch": 78, "tick": 349440, "length": 960, "velocity": 80}, {"pitch": 77, "tick": 350400, "length": 960, "velocity": 96}, {"pitch": 78, "tick": 350400, "length": 960, "velocity": 80}, {"pitch": 77, "tick": 351360, "length": 960, "velocity": 96}, {"pitch": 78, "tick": 351360, "length": 960, "velocity": 80}, {"pitch": 77, "tick": 352320, "length": 960, "velocity": 96}, {"pitch": 78, "tick": 352320, "length": 960, "velocity": 80}, {"pitch": 77, "tick": 353280, "length": 960, "velocity": 96}, {"pitch": 78, "tick": 353280, "length": 960, "velocity": 80}, {"pitch": 77, "tick": 354240, "length": 960, "velocity": 96}, {"pitch": 78, "tick": 354240, "length": 960, "velocity": 80}, {"pitch": 77, "tick": 355200, "length": 960, "velocity": 96}, {"pitch": 78, "tick": 355200, "length": 960, "velocity": 80}, {"pitch": 77, "tick": 356160, "length": 960, "velocity": 96}, {"pitch": 78, "tick": 356160, "length": 960, "velocity": 80}, {"pitch": 77, "tick": 357120, "length": 960, "velocity": 96}, {"pitch": 78, "tick": 357120, "length": 960, "velocity": 80}, {"pitch": 77, "tick": 358080, "length": 960, "velocity": 96}, {"pitch": 78, "tick": 358080, "length": 960, "velocity": 80}, {"pitch": 77, "tick": 359040, "length": 960, "velocity": 96}, {"pitch": 78, "tick": 359040, "length": 960, "velocity": 80}, {"pitch": 77, "tick": 360000, "length": 960, "velocity": 96}, {"pitch": 78, "tick": 360000, "length": 960, "velocity": 80}, {"pitch": 77, "tick": 360960, "length": 960, "velocity": 96}, {"pitch": 78, "tick": 360960, "length": 960, "velocity": 80}, {"pitch": 77, "tick": 361920, "length": 960, "velocity": 96}, {"pitch": 78, "tick": 361920, "length": 960, "velocity": 80}, {"pitch": 77, "tick": 362880, "length": 960, "velocity": 96}, {"pitch": 78, "tick": 362880, "length": 960, "velocity": 80}, {"pitch": 77, "tick": 363840, "length": 960, "velocity": 96}, {"pitch": 78, "tick": 363840, "length": 960, "velocity": 80}, {"pitch": 77, "tick": 364800, "length": 960, "velocity": 96}, {"pitch": 78, "tick": 364800, "length": 960, "velocity": 80}, {"pitch": 77, "tick": 365760, "length": 960, "velocity": 96}, {"pitch": 78, "tick": 365760, "length": 960, "velocity": 80}, {"pitch": 77, "tick": 366720, "length": 960, "velocity": 96}, {"pitch": 78, "tick": 366720, "length": 960, "velocity": 80}, {"pitch": 77, "tick": 367680, "length": 960, "velocity": 96}, {"pitch": 78, "tick": 367680, "length": 960, "velocity": 80}, {"pitch": 77, "tick": 368640, "length": 960, "velocity": 96}, {"pitch": 78, "tick": 368640, "length": 960, "velocity": 80}, {"pitch": 77, "tick": 369600, "length": 960, "velocity": 96}, {"pitch": 78, "tick": 369600, "length": 960, "velocity": 80}, {"pitch": 77, "tick": 370560, "length": 960, "velocity": 96}, {"pitch": 78, "tick": 370560, "length": 960, "velocity": 80}, {"pitch": 77, "tick": 371520, "length": 960, "velocity": 96}, {"pitch": 78, "tick": 371520, "length": 960, "velocity": 80}, {"pitch": 77, "tick": 372480, "length": 960, "velocity": 96}, {"pitch": 78, "tick": 372480, "length": 960, "velocity": 80}, {"pitch": 77, "tick": 373440, "length": 960, "velocity": 96}, {"pitch": 78, "tick": 373440, "length": 960, "velocity": 80}, {"pitch": 77, "tick": 374400, "length": 960, "velocity": 96}, {"pitch": 78, "tick": 374400, "length": 960, "velocity": 80}, {"pitch": 77, "tick": 375360, "length": 960, "velocity": 96}, {"pitch": 78, "tick": 375360, "length": 960, "velocity": 80}, {"pitch": 77, "tick": 376320, "length": 960, "velocity": 96}, {"pitch": 78, "tick": 376320, "length": 960, "velocity": 80}, {"pitch": 77, "tick": 377280, "length": 960, "velocity": 96}, {"pitch": 78, "tick": 377280, "length": 960, "velocity": 80}, {"pitch": 77, "tick": 378240, "length": 960, "velocity": 96}, {"pitch": 78, "tick": 378240, "length": 960, "velocity": 80}, {"pitch": 77, "tick": 379200, "length": 960, "velocity": 96}, {"pitch": 78, "tick": 379200, "length": 960, "velocity": 80}, {"pitch": 77, "tick": 380160, "length": 960, "velocity": 96}, {"pitch": 78, "tick": 380160, "length": 960, "velocity": 80}, {"pitch": 77, "tick": 381120, "length": 960, "velocity": 96}, {"pitch": 78, "tick": 381120, "length": 960, "velocity": 80}, {"pitch": 77, "tick": 382080, "length": 960, "velocity": 96}, {"pitch": 78, "tick": 382080, "length": 960, "velocity": 80}, {"pitch": 77, "tick": 383040, "length": 960, "velocity": 96}, {"pitch": 78, "tick": 383040, "length": 960, "velocity": 80}, {"pitch": 77, "tick": 384000, "length": 960, "velocity": 96}, {"pitch": 78, "tick": 384000, "length": 960, "velocity": 80}, {"pitch": 77, "tick": 384960, "length": 960, "velocity": 96}, {"pitch": 78, "tick": 384960, "length": 960, "velocity": 80}, {"pitch": 77, "tick": 385920, "length": 960, "velocity": 96}, {"pitch": 78, "tick": 385920, "length": 960, "velocity": 80}, {"pitch": 77, "tick": 386880, "length": 960, "velocity": 96}, {"pitch": 78, "tick": 386880, "length": 960, "velocity": 80}, {"pitch": 77, "tick": 387840, "length": 960, "velocity": 96}, {"pitch": 78, "tick": 387840, "length": 960, "velocity": 80}, {"pitch": 77, "tick": 388800, "length": 960, "velocity": 96}, {"pitch": 78, "tick": 388800, "length": 960, "velocity": 80}, {"pitch": 77, "tick": 389760, "length": 960, "velocity": 96}, {"pitch": 78, "tick": 389760, "length": 960, "velocity": 80}, {"pitch": 77, "tick": 390720, "length": 960, "velocity": 96}, {"pitch": 78, "tick": 390720, "length": 960, "velocity": 80}, {"pitch": 77, "tick": 391680, "length": 960, "velocity": 96}, {"pitch": 78, "tick": 391680, "length": 960, "velocity": 80}, {"pitch": 77, "tick": 392640, "length": 960, "velocity": 96}, {"pitch": 78, "tick": 392640, "length": 960, "velocity": 80}, {"pitch": 77, "tick": 393600, "length": 960, "velocity": 96}, {"pitch": 78, "tick": 393600, "length": 960, "velocity": 80}, {"pitch": 77, "tick": 394560, "length": 960, "velocity": 96}, {"pitch": 78, "tick": 394560, "length": 960, "velocity": 80}, {"pitch": 77, "tick": 395520, "length": 960, "velocity": 96}, {"pitch": 78, "tick": 395520, "length": 960, "velocity": 80}, {"pitch": 77, "tick": 396480, "length": 960, "velocity": 96}, {"pitch": 78, "tick": 396480, "length": 960, "velocity": 80}, {"pitch": 77, "tick": 397440, "length": 960, "velocity": 96}, {"pitch": 78, "tick": 397440, "length": 960, "velocity": 80}, {"pitch": 77, "tick": 398400, "length": 960, "velocity": 96}, {"pitch": 78, "tick": 398400, "length": 960, "velocity": 80}, {"pitch": 77, "tick": 399360, "length": 960, "velocity": 96}, {"pitch": 78, "tick": 399360, "length": 960, "velocity": 80}, {"pitch": 77, "tick": 400320, "length": 960, "velocity": 96}, {"pitch": 78, "tick": 400320, "length": 960, "velocity": 80}, {"pitch": 77, "tick": 401280, "length": 960, "velocity": 96}, {"pitch": 78, "tick": 401280, "length": 960, "velocity": 80}, {"pitch": 77, "tick": 402240, "length": 960, "velocity": 96}, {"pitch": 78, "tick": 402240, "length": 960, "velocity": 80}, {"pitch": 77, "tick": 403200, "length": 960, "velocity": 96}, {"pitch": 78, "tick": 403200, "length": 960, "velocity": 80}, {"pitch": 77, "tick": 404160, "length": 960, "velocity": 96}, {"pitch": 78, "tick": 404160, "length": 960, "velocity": 80}, {"pitch": 77, "tick": 405120, "length": 960, "velocity": 96}, {"pitch": 78, "tick": 405120, "length": 960, "velocity": 80}, {"pitch": 77, "tick": 406080, "length": 960, "velocity": 96}, {"pitch": 78, "tick": 406080, "length": 960, "velocity": 80}, {"pitch": 77, "tick": 407040, "length": 960, "velocity": 96}, {"pitch": 78, "tick": 407040, "length": 960, "velocity": 80}, {"pitch": 77, "tick": 408000, "length": 960, "velocity": 96}, {"pitch": 78, "tick": 408000, "length": 960, "velocity": 80}, {"pitch": 77, "tick": 408960, "length": 960, "velocity": 96}, {"pitch": 78, "tick": 408960, "length": 960, "velocity": 80}, {"pitch": 77, "tick": 409920, "length": 960, "velocity": 96}, {"pitch": 78, "tick": 409920, "length": 960, "velocity": 80}, {"pitch": 77, "tick": 410880, "length": 960, "velocity": 96}, {"pitch": 78, "tick": 410880, "length": 960, "velocity": 80}, {"pitch": 77, "tick": 411840, "length": 960, "velocity": 96}, {"pitch": 78, "tick": 411840, "length": 960, "velocity": 80}, {"pitch": 77, "tick": 412800, "length": 960, "velocity": 96}, {"pitch": 78, "tick": 412800, "length": 960, "velocity": 80}, {"pitch": 77, "tick": 413760, "length": 960, "velocity": 96}, {"pitch": 78, "tick": 413760, "length": 960, "velocity": 80}, {"pitch": 77, "tick": 414720, "length": 960, "velocity": 96}, {"pitch": 78, "tick": 414720, "length": 960, "velocity": 80}, {"pitch": 77, "tick": 415680, "length": 960, "velocity": 96}, {"pitch": 78, "tick": 415680, "length": 960, "velocity": 80}, {"pitch": 77, "tick": 416640, "length": 960, "velocity": 96}, {"pitch": 78, "tick": 416640, "length": 960, "velocity": 80}, {"pitch": 77, "tick": 417600, "length": 960, "velocity": 96}, {"pitch": 78, "tick": 417600, "length": 960, "velocity": 80}, {"pitch": 77, "tick": 418560, "length": 960, "velocity": 96}, {"pitch": 78, "tick": 418560, "length": 960, "velocity": 80}, {"pitch": 77, "tick": 419520, "length": 960, "velocity": 96}, {"pitch": 78, "tick": 419520, "length": 960, "velocity": 80}, {"pitch": 77, "tick": 420480, "length": 960, "velocity": 96}, {"pitch": 78, "tick": 420480, "length": 960, "velocity": 80}, {"pitch": 77, "tick": 421440, "length": 960, "velocity": 96}, {"pitch": 78, "tick": 421440, "length": 960, "velocity": 80}, {"pitch": 77, "tick": 422400, "length": 960, "velocity": 96}, {"pitch": 78, "tick": 422400, "length": 960, "velocity": 80}, {"pitch": 77, "tick": 423360, "length": 960, "velocity": 96}, {"pitch": 78, "tick": 423360, "length": 960, "velocity": 80}, {"pitch": 77, "tick": 424320, "length": 960, "velocity": 96}, {"pitch": 78, "tick": 424320, "length": 960, "velocity": 80}, {"pitch": 77, "tick": 425280, "length": 960, "velocity": 96}, {"pitch": 78, "tick": 425280, "length": 960, "velocity": 80}, {"pitch": 77, "tick": 426240, "length": 960, "velocity": 96}, {"pitch": 78, "tick": 426240, "length": 960, "velocity": 80}, {"pitch": 77, "tick": 427200, "length": 960, "velocity": 96}, {"pitch": 78, "tick": 427200, "length": 960, "velocity": 80}, {"pitch": 77, "tick": 428160, "length": 960, "velocity": 96}, {"pitch": 78, "tick": 428160, "length": 960, "velocity": 80}, {"pitch": 77, "tick": 429120, "length": 960, "velocity": 96}, {"pitch": 78, "tick": 429120, "length": 960, "velocity": 80}, {"pitch": 77, "tick": 430080, "length": 960, "velocity": 96}, {"pitch": 78, "tick": 430080, "length": 960, "velocity": 80}, {"pitch": 77, "tick": 431040, "length": 960, "velocity": 96}, {"pitch": 78, "tick": 431040, "length": 960, "velocity": 80}, {"pitch": 77, "tick": 432000, "length": 960, "velocity": 96}, {"pitch": 78, "tick": 432000, "length": 960, "velocity": 80}, {"pitch": 77, "tick": 432960, "length": 960, "velocity": 96}, {"pitch": 78, "tick": 432960, "length": 960, "velocity": 80}, {"pitch": 77, "tick": 433920, "length": 960, "velocity": 96}, {"pitch": 78, "tick": 433920, "length": 960, "velocity": 80}, {"pitch": 77, "tick": 434880, "length": 960, "velocity": 96}, {"pitch": 78, "tick": 434880, "length": 960, "velocity": 80}, {"pitch": 77, "tick": 435840, "length": 960, "velocity": 96}, {"pitch": 78, "tick": 435840, "length": 960, "velocity": 80}, {"pitch": 77, "tick": 436800, "length": 960, "velocity": 96}, {"pitch": 78, "tick": 436800, "length": 960, "velocity": 80}, {"pitch": 77, "tick": 437760, "length": 960, "velocity": 96}, {"pitch": 78, "tick": 437760, "length": 960, "velocity": 80}, {"pitch": 77, "tick": 438720, "length": 960, "velocity": 96}, {"pitch": 78, "tick": 438720, "length": 960, "velocity": 80}, {"pitch": 77, "tick": 439680, "length": 960, "velocity": 96}, {"pitch": 78, "tick": 439680, "length": 960, "velocity": 80}, {"pitch": 77, "tick": 440640, "length": 960, "velocity": 96}, {"pitch": 78, "tick": 440640, "length": 960, "velocity": 80}, {"pitch": 77, "tick": 441600, "length": 960, "velocity": 96}, {"pitch": 78, "tick": 441600, "length": 960, "velocity": 80}, {"pitch": 77, "tick": 442560, "length": 960, "velocity": 96}, {"pitch": 78, "tick": 442560, "length": 960, "velocity": 80}, {"pitch": 77, "tick": 443520, "length": 960, "velocity": 96}, {"pitch": 78, "tick": 443520, "length": 960, "velocity": 80}, {"pitch": 77, "tick": 444480, "length": 960, "velocity": 96}, {"pitch": 78, "tick": 444480, "length": 960, "velocity": 80}, {"pitch": 77, "tick": 445440, "length": 960, "velocity": 96}, {"pitch": 78, "tick": 445440, "length": 960, "velocity": 80}, {"pitch": 77, "tick": 446400, "length": 960, "velocity": 96}, {"pitch": 78, "tick": 446400, "length": 960, "velocity": 80}, {"pitch": 77, "tick": 447360, "length": 960, "velocity": 96}, {"pitch": 78, "tick": 447360, "length": 960, "velocity": 80}, {"pitch": 77, "tick": 448320, "length": 960, "velocity": 96}, {"pitch": 78, "tick": 448320, "length": 960, "velocity": 80}, {"pitch": 77, "tick": 449280, "length": 960, "velocity": 96}, {"pitch": 78, "tick": 449280, "length": 960, "velocity": 80}, {"pitch": 77, "tick": 450240, "length": 960, "velocity": 96}, {"pitch": 78, "tick": 450240, "length": 960, "velocity": 80}, {"pitch": 77, "tick": 451200, "length": 960, "velocity": 96}, {"pitch": 78, "tick": 451200, "length": 960, "velocity": 80}, {"pitch": 77, "tick": 452160, "length": 960, "velocity": 96}, {"pitch": 78, "tick": 452160, "length": 960, "velocity": 80}, {"pitch": 77, "tick": 453120, "length": 960, "velocity": 96}, {"pitch": 78, "tick": 453120, "length": 960, "velocity": 80}, {"pitch": 77, "tick": 454080, "length": 960, "velocity": 96}, {"pitch": 78, "tick": 454080, "length": 960, "velocity": 80}, {"pitch": 77, "tick": 455040, "length": 960, "velocity": 96}, {"pitch": 78, "tick": 455040, "length": 960, "velocity": 80}, {"pitch": 77, "tick": 456000, "length": 960, "velocity": 96}, {"pitch": 78, "tick": 456000, "length": 960, "velocity": 80}, {"pitch": 77, "tick": 456960, "length": 960, "velocity": 96}, {"pitch": 78, "tick": 456960, "length": 960, "velocity": 80}, {"pitch": 77, "tick": 457920, "length": 960, "velocity": 96}, {"pitch": 78, "tick": 457920, "length": 960, "velocity": 80}, {"pitch": 77, "tick": 458880, "length": 960, "velocity": 96}, {"pitch": 78, "tick": 458880, "length": 960, "velocity": 80}, {"pitch": 77, "tick": 459840, "length": 960, "velocity": 96}, {"pitch": 78, "tick": 459840, "length": 960, "velocity": 80}, {"pitch": 77, "tick": 460800, "length": 960, "velocity": 96}, {"pitch": 78, "tick": 460800, "length": 960, "velocity": 80}, {"pitch": 77, "tick": 461760, "length": 960, "velocity": 96}, {"pitch": 78, "tick": 461760, "length": 960, "velocity": 80}, {"pitch": 77, "tick": 462720, "length": 960, "velocity": 96}, {"pitch": 78, "tick": 462720, "length": 960, "velocity": 80}, {"pitch": 77, "tick": 463680, "length": 960, "velocity": 96}, {"pitch": 78, "tick": 463680, "length": 960, "velocity": 80}, {"pitch": 77, "tick": 464640, "length": 960, "velocity": 96}, {"pitch": 78, "tick": 464640, "length": 960, "velocity": 80}, {"pitch": 77, "tick": 465600, "length": 960, "velocity": 96}, {"pitch": 78, "tick": 465600, "length": 960, "velocity": 80}, {"pitch": 77, "tick": 466560, "length": 960, "velocity": 96}, {"pitch": 78, "tick": 466560, "length": 960, "velocity": 80}, {"pitch": 77, "tick": 467520, "length": 960, "velocity": 96}, {"pitch": 78, "tick": 467520, "length": 960, "velocity": 80}, {"pitch": 77, "tick": 468480, "length": 960, "velocity": 96}, {"pitch": 78, "tick": 468480, "length": 960, "velocity": 80}, {"pitch": 77, "tick": 469440, "length": 960, "velocity": 96}, {"pitch": 78, "tick": 469440, "length": 960, "velocity": 80}, {"pitch": 77, "tick": 470400, "length": 960, "velocity": 96}, {"pitch": 78, "tick": 470400, "length": 960, "velocity": 80}, {"pitch": 77, "tick": 471360, "length": 960, "velocity": 96}, {"pitch": 78, "tick": 471360, "length": 960, "velocity": 80}, {"pitch": 77, "tick": 472320, "length": 960, "velocity": 96}, {"pitch": 78, "tick": 472320, "length": 960, "velocity": 80}, {"pitch": 77, "tick": 473280, "length": 960, "velocity": 96}, {"pitch": 78, "tick": 473280, "length": 960, "velocity": 80}, {"pitch": 77, "tick": 474240, "length": 960, "velocity": 96}, {"pitch": 78, "tick": 474240, "length": 960, "velocity": 80}, {"pitch": 77, "tick": 475200, "length": 960, "velocity": 96}, {"pitch": 78, "tick": 475200, "length": 960, "velocity": 80}, {"pitch": 77, "tick": 476160, "length": 960, "velocity": 96}, {"pitch": 78, "tick": 476160, "length": 960, "velocity": 80}, {"pitch": 77, "tick": 477120, "length": 960, "velocity": 96}, {"pitch": 78, "tick": 477120, "length": 960, "velocity": 80}, {"pitch": 77, "tick": 478080, "length": 960, "velocity": 96}, {"pitch": 78, "tick": 478080, "length": 960, "velocity": 80}, {"pitch": 77, "tick": 479040, "length": 960, "velocity": 96}, {"pitch": 78, "tick": 479040, "length": 960, "velocity": 80}, {"pitch": 77, "tick": 480000, "length": 960, "velocity": 96}, {"pitch": 78, "tick": 480000, "length": 960, "velocity": 80}, {"pitch": 77, "tick": 480960, "length": 960, "velocity": 96}, {"pitch": 78, "tick": 480960, "length": 960, "velocity": 80}, {"pitch": 77, "tick": 481920, "length": 960, "velocity": 96}, {"pitch": 78, "tick": 481920, "length": 960, "velocity": 80}, {"pitch": 77, "tick": 482880, "length": 960, "velocity": 96}, {"pitch": 78, "tick": 482880, "length": 960, "velocity": 80}, {"pitch": 77, "tick": 483840, "length": 960, "velocity": 96}, {"pitch": 78, "tick": 483840, "length": 960, "velocity": 80}, {"pitch": 77, "tick": 484800, "length": 960, "velocity": 96}, {"pitch": 78, "tick": 484800, "length": 960, "velocity": 80}, {"pitch": 77, "tick": 485760, "length": 960, "velocity": 96}, {"pitch": 78, "tick": 485760, "length": 960, "velocity": 80}, {"pitch": 77, "tick": 486720, "length": 960, "velocity": 96}, {"pitch": 78, "tick": 486720, "length": 960, "velocity": 80}, {"pitch": 77, "tick": 487680, "length": 960, "velocity": 96}, {"pitch": 78, "tick": 487680, "length": 960, "velocity": 80}, {"pitch": 77, "tick": 488640, "length": 960, "velocity": 96}, {"pitch": 78, "tick": 488640, "length": 960, "velocity": 80}, {"pitch": 77, "tick": 489600, "length": 960, "velocity": 96}, {"pitch": 78, "tick": 489600, "length": 960, "velocity": 80}, {"pitch": 77, "tick": 490560, "length": 960, "velocity": 96}, {"pitch": 78, "tick": 490560, "length": 960, "velocity": 80}, {"pitch": 77, "tick": 491520, "length": 960, "velocity": 96}, {"pitch": 78, "tick": 491520, "length": 960, "velocity": 80}, {"pitch": 77, "tick": 492480, "length": 960, "velocity": 96}, {"pitch": 78, "tick": 492480, "length": 960, "velocity": 80}, {"pitch": 77, "tick": 493440, "length": 960, "velocity": 96}, {"pitch": 78, "tick": 493440, "length": 960, "velocity": 80}, {"pitch": 77, "tick": 494400, "length": 960, "velocity": 96}, {"pitch": 78, "tick": 494400, "length": 960, "velocity": 80}, {"pitch": 77, "tick": 495360, "length": 960, "velocity": 96}, {"pitch": 78, "tick": 495360, "length": 960, "velocity": 80}, {"pitch": 77, "tick": 496320, "length": 960, "velocity": 96}, {"pitch": 78, "tick": 496320, "length": 960, "velocity": 80}, {"pitch": 77, "tick": 497280, "length": 960, "velocity": 96}, {"pitch": 78, "tick": 497280, "length": 960, "velocity": 80}, {"pitch": 77, "tick": 498240, "length": 960, "velocity": 96}, {"pitch": 78, "tick": 498240, "length": 960, "velocity": 80}, {"pitch": 77, "tick": 499200, "length": 960, "velocity": 96}, {"pitch": 78, "tick": 499200, "length": 960, "velocity": 80}, {"pitch": 77, "tick": 500160, "length": 960, "velocity": 96}, {"pitch": 78, "tick": 500160, "length": 960, "velocity": 80}, {"pitch": 77, "tick": 501120, "length": 960, "velocity": 96}, {"pitch": 78, "tick": 501120, "length": 960, "velocity": 80}, {"pitch": 77, "tick": 502080, "length": 960, "velocity": 96}, {"pitch": 78, "tick": 502080, "length": 960, "velocity": 80}, {"pitch": 77, "tick": 503040, "length": 960, "velocity": 96}, {"pitch": 78, "tick": 503040, "length": 960, "velocity": 80}, {"pitch": 77, "tick": 504000, "length": 960, "velocity": 96}, {"pitch": 78, "tick": 504000, "length": 960, "velocity": 80}, {"pitch": 77, "tick": 504960, "length": 960, "velocity": 96}, {"pitch": 78, "tick": 504960, "length": 960, "velocity": 80}, {"pitch": 77, "tick": 505920, "length": 960, "velocity": 96}, {"pitch": 78, "tick": 505920, "length": 960, "velocity": 80}, {"pitch": 77, "tick": 506880, "length": 960, "velocity": 96}, {"pitch": 78, "tick": 506880, "length": 960, "velocity": 80}, {"pitch": 77, "tick": 507840, "length": 960, "velocity": 96}, {"pitch": 78, "tick": 507840, "length": 960, "velocity": 80}, {"pitch": 77, "tick": 508800, "length": 960, "velocity": 96}, {"pitch": 78, "tick": 508800, "length": 960, "velocity": 80}, {"pitch": 77, "tick": 509760, "length": 960, "velocity": 96}, {"pitch": 78, "tick": 509760, "length": 960, "velocity": 80}, {"pitch": 77, "tick": 510720, "length": 960, "velocity": 96}, {"pitch": 78, "tick": 510720, "length": 960, "velocity": 80}, {"pitch": 77, "tick": 511680, "length": 960, "velocity": 96}, {"pitch": 78, "tick": 511680, "length": 960, "velocity": 80}, {"pitch": 77, "tick": 512640, "length": 960, "velocity": 96}, {"pitch": 78, "tick": 512640, "length": 960, "velocity": 80}, {"pitch": 77, "tick": 513600, "length": 960, "velocity": 96}, {"pitch": 78, "tick": 513600, "length": 960, "velocity": 80}, {"pitch": 77, "tick": 514560, "length": 960, "velocity": 96}, {"pitch": 78, "tick": 514560, "length": 960, "velocity": 80}, {"pitch": 77, "tick": 515520, "length": 960, "velocity": 96}, {"pitch": 78, "tick": 515520, "length": 960, "velocity": 80}, {"pitch": 77, "tick": 516480, "length": 960, "velocity": 96}, {"pitch": 78, "tick": 516480, "length": 960, "velocity": 80}, {"pitch": 77, "tick": 517440, "length": 960, "velocity": 96}, {"pitch": 78, "tick": 517440, "length": 960, "velocity": 80}, {"pitch": 77, "tick": 518400, "length": 960, "velocity": 96}, {"pitch": 78, "tick": 518400, "length": 960, "velocity": 80}, {"pitch": 77, "tick": 519360, "length": 960, "velocity": 96}, {"pitch": 78, "tick": 519360, "length": 960, "velocity": 80}, {"pitch": 77, "tick": 520320, "length": 960, "velocity": 96}, {"pitch": 78, "tick": 520320, "length": 960, "velocity": 80}, {"pitch": 77, "tick": 521280, "length": 960, "velocity": 96}, {"pitch": 78, "tick": 521280, "length": 960, "velocity": 80}, {"pitch": 77, "tick": 522240, "length": 960, "velocity": 96}, {"pitch": 78, "tick": 522240, "length": 960, "velocity": 80}, {"pitch": 77, "tick": 523200, "length": 960, "velocity": 96}, {"pitch": 78, "tick": 523200, "length": 960, "velocity": 80}, {"pitch": 77, "tick": 524160, "length": 960, "velocity": 96}, {"pitch": 78, "tick": 524160, "length": 960, "velocity": 80}, {"pitch": 77, "tick": 525120, "length": 960, "velocity": 96}, {"pitch": 78, "tick": 525120, "length": 960, "velocity": 80}, {"pitch": 77, "tick": 526080, "length": 960, "velocity": 96}, {"pitch": 78, "tick": 526080, "length": 960, "velocity": 80}, {"pitch": 77, "tick": 527040, "length": 960, "velocity": 96}, {"pitch": 78, "tick": 527040, "length": 960, "velocity": 80}, {"pitch": 77, "tick": 528000, "length": 960, "velocity": 96}, {"pitch": 78, "tick": 528000, "length": 960, "velocity": 80}, {"pitch": 77, "tick": 528960, "length": 960, "velocity": 96}, {"pitch": 78, "tick": 528960, "length": 960, "velocity": 80}, {"pitch": 77, "tick": 529920, "length": 960, "velocity": 96}, {"pitch": 78, "tick": 529920, "length": 960, "velocity": 80}, {"pitch": 77, "tick": 530880, "length": 960, "velocity": 96}, {"pitch": 78, "tick": 530880, "length": 960, "velocity": 80}]}, {"channel": 8, "length": 470400, "track_name": "\u0088\u00b9\u0090\u00d8\u0082\u00e8", "events": [{"type": "track_name", "name": "\u0088\u00b9\u0090\u00d8\u0082\u00e8", "tick": 0}, {"type": "midi_port", "port": 0, "tick": 0}, {"type": "control_change", "control": 0, "value": 121, "channel": 8, "tick": 480}, {"type": "control_change", "control": 32, "value": 0, "channel": 8, "tick": 480}, {"type": "program_change", "program": 115, "channel": 8, "tick": 480}, {"type": "sysex", "data": [65, 16, 0, 72, 18, 16, 0, 40, 63, 0, 9], "tick": 540}, {"type": "control_change", "control": 7, "value": 40, "channel": 8, "tick": 600}, {"type": "control_change", "control": 10, "value": 64, "channel": 8, "tick": 660}, {"type": "control_change", "control": 91, "value": 0, "channel": 8, "tick": 720}, {"type": "control_change", "control": 93, "value": 127, "channel": 8, "tick": 780}, {"type": "control_change", "control": 74, "value": 64, "channel": 8, "tick": 840}, {"type": "control_change", "control": 71, "value": 64, "channel": 8, "tick": 900}, {"type": "control_change", "control": 73, "value": 64, "channel": 8, "tick": 960}, {"type": "control_change", "control": 75, "value": 64, "channel": 8, "tick": 1020}, {"type": "control_change", "control": 72, "value": 64, "channel": 8, "tick": 1080}, {"type": "control_change", "control": 101, "value": 0, "channel": 8, "tick": 1140}, {"type": "control_change", "control": 100, "value": 0, "channel": 8, "tick": 1140}, {"type": "control_change", "control": 6, "value": 12, "channel": 8, "tick": 1140}, {"type": "control_change", "control": 38, "value": 0, "channel": 8, "tick": 1140}, {"type": "pitchwheel", "channel": 8, "pitch": 0, "tick": 1200}, {"type": "control_change", "control": 1, "value": 0, "channel": 8, "tick": 1260}, {"type": "control_change", "control": 11, "value": 127, "channel": 8, "tick": 1320}, {"type": "control_change", "control": 101, "value": 127, "channel": 8, "tick": 1380}, {"type": "control_change", "control": 100, "value": 127, "channel": 8, "tick": 1380}, {"type": "control_change", "control": 6, "value": 0, "channel": 8, "tick": 1380}, {"type": "control_change", "control": 38, "value": 0, "channel": 8, "tick": 1380}, {"type": "pitchwheel", "channel": 8, "pitch": 0, "tick": 27840}, {"type": "pitchwheel", "channel": 8, "pitch": 85, "tick": 27960}, {"type": "pitchwheel", "channel": 8, "pitch": 171, "tick": 28080}, {"type": "pitchwheel", "channel": 8, "pitch": 256, "tick": 28200}, {"type": "pitchwheel", "channel": 8, "pitch": 341, "tick": 28320}, {"type": "pitchwheel", "channel": 8, "pitch": 427, "tick": 28440}, {"type": "pitchwheel", "channel": 8, "pitch": 512, "tick": 28560}, {"type": "pitchwheel", "channel": 8, "pitch": 597, "tick": 28680}, {"type": "pitchwheel", "channel": 8, "pitch": 683, "tick": 28800}, {"type": "pitchwheel", "channel": 8, "pitch": 768, "tick": 28920}, {"type": "pitchwheel", "channel": 8, "pitch": 853, "tick": 29040}, {"type": "pitchwheel", "channel": 8, "pitch": 939, "tick": 29160}, {"type": "pitchwheel", "channel": 8, "pitch": 1024, "tick": 29280}, {"type": "pitchwheel", "channel": 8, "pitch": 1109, "tick": 29400}, {"type": "pitchwheel", "channel": 8, "pitch": 1195, "tick": 29520}, {"type": "pitchwheel", "channel": 8, "pitch": 1280, "tick": 29640}, {"type": "pitchwheel", "channel": 8, "pitch": 1365, "tick": 29760}, {"type": "pitchwheel", "channel": 8, "pitch": 1451, "tick": 29880}, {"type": "pitchwheel", "channel": 8, "pitch": 1536, "tick": 30000}, {"type": "pitchwheel", "channel": 8, "pitch": 1621, "tick": 30120}, {"type": "pitchwheel", "channel": 8, "pitch": 1707, "tick": 30240}, {"type": "pitchwheel", "channel": 8, "pitch": 1792, "tick": 30360}, {"type": "pitchwheel", "channel": 8, "pitch": 1877, "tick": 30480}, {"type": "pitchwheel", "channel": 8, "pitch": 1963, "tick": 30600}, {"type": "pitchwheel", "channel": 8, "pitch": 2048, "tick": 30720}, {"type": "pitchwheel", "channel": 8, "pitch": 2176, "tick": 30840}, {"type": "pitchwheel", "channel": 8, "pitch": 2304, "tick": 30960}, {"type": "pitchwheel", "channel": 8, "pitch": 2432, "tick": 31080}, {"type": "pitchwheel", "channel": 8, "pitch": 2560, "tick": 31200}, {"type": "pitchwheel", "channel": 8, "pitch": 2688, "tick": 31320}, {"type": "pitchwheel", "channel": 8, "pitch": 2816, "tick": 31440}, {"type": "pitchwheel", "channel": 8, "pitch": 2944, "tick": 31560}, {"type": "pitchwheel", "channel": 8, "pitch": 3072, "tick": 31680}, {"type": "pitchwheel", "channel": 8, "pitch": 3200, "tick": 31800}, {"type": "pitchwheel", "channel": 8, "pitch": 3328, "tick": 31920}, {"type": "pitchwheel", "channel": 8, "pitch": 3456, "tick": 32040}, {"type": "pitchwheel", "channel": 8, "pitch": 3584, "tick": 32160}, {"type": "pitchwheel", "channel": 8, "pitch": 3712, "tick": 32280}, {"type": "pitchwheel", "channel": 8, "pitch": 3840, "tick": 32400}, {"type": "pitchwheel", "channel": 8, "pitch": 3968, "tick": 32520}, {"type": "pitchwheel", "channel": 8, "pitch": 0, "tick": 32640}, {"type": "pitchwheel", "channel": 8, "pitch": 0, "tick": 32640}, {"type": "pitchwheel", "channel": 8, "pitch": 0, "tick": 58560}, {"type": "pitchwheel", "channel": 8, "pitch": 85, "tick": 58680}, {"type": "pitchwheel", "channel": 8, "pitch": 171, "tick": 58800}, {"type": "pitchwheel", "channel": 8, "pitch": 256, "tick": 58920}, {"type": "pitchwheel", "channel": 8, "pitch": 341, "tick": 59040}, {"type": "pitchwheel", "channel": 8, "pitch": 427, "tick": 59160}, {"type": "pitchwheel", "channel": 8, "pitch": 512, "tick": 59280}, {"type": "pitchwheel", "channel": 8, "pitch": 597, "tick": 59400}, {"type": "pitchwheel", "channel": 8, "pitch": 683, "tick": 59520}, {"type": "pitchwheel", "channel": 8, "pitch": 768, "tick": 59640}, {"type": "pitchwheel", "channel": 8, "pitch": 853, "tick": 59760}, {"type": "pitchwheel", "channel": 8, "pitch": 939, "tick": 59880}, {"type": "pitchwheel", "channel": 8, "pitch": 1024, "tick": 60000}, {"type": "pitchwheel", "channel": 8, "pitch": 1109, "tick": 60120}, {"type": "pitchwheel", "channel": 8, "pitch": 1195, "tick": 60240}, {"type": "pitchwheel", "channel": 8, "pitch": 1280, "tick": 60360}, {"type": "pitchwheel", "channel": 8, "pitch": 1365, "tick": 60480}, {"type": "pitchwheel", "channel": 8, "pitch": 1451, "tick": 60600}, {"type": "pitchwheel", "channel": 8, "pitch": 1536, "tick": 60720}, {"type": "pitchwheel", "channel": 8, "pitch": 1621, "tick": 60840}, {"type": "pitchwheel", "channel": 8, "pitch": 1707, "tick": 60960}, {"type": "pitchwheel", "channel": 8, "pitch": 1792, "tick": 61080}, {"type": "pitchwheel", "channel": 8, "pitch": 1877, "tick": 61200}, {"type": "pitchwheel", "channel": 8, "pitch": 1963, "tick": 61320}, {"type": "pitchwheel", "channel": 8, "pitch": 2048, "tick": 61440}, {"type": "pitchwheel", "channel": 8, "pitch": 2176, "tick": 61560}, {"type": "pitchwheel", "channel": 8, "pitch": 2304, "tick": 61680}, {"type": "pitchwheel", "channel": 8, "pitch": 2432, "tick": 61800}, {"type": "pitchwheel", "channel": 8, "pitch": 2560, "tick": 61920}, {"type": "pitchwheel", "channel": 8, "pitch": 2688, "tick": 62040}, {"type": "pitchwheel", "channel": 8, "pitch": 2816, "tick": 62160}, {"type": "pitchwheel", "channel": 8, "pitch": 2944, "tick": 62280}, {"type": "pitchwheel", "channel": 8, "pitch": 3072, "tick": 62400}, {"type": "pitchwheel", "channel": 8, "pitch": 3200, "tick": 62520}, {"type": "pitchwheel", "channel": 8, "pitch": 3328, "tick": 62640}, {"type": "pitchwheel", "channel": 8, "pitch": 3456, "tick": 62760}, {"type": "pitchwheel", "channel": 8, "pitch": 3584, "tick": 62880}, {"type": "pitchwheel", "channel": 8, "pitch": 3712, "tick": 63000}, {"type": "pitchwheel", "channel": 8, "pitch": 3840, "tick": 63120}, {"type": "pitchwheel", "channel": 8, "pitch": 3968, "tick": 63240}, {"type": "pitchwheel", "channel": 8, "pitch": 0, "tick": 63360}, {"type": "pitchwheel", "channel": 8, "pitch": 0, "tick": 63360}, {"type": "pitchwheel", "channel": 8, "pitch": 0, "tick": 89280}, {"type": "pitchwheel", "channel": 8, "pitch": 85, "tick": 89400}, {"type": "pitchwheel", "channel": 8, "pitch": 171, "tick": 89520}, {"type": "pitchwheel", "channel": 8, "pitch": 256, "tick": 89640}, {"type": "pitchwheel", "channel": 8, "pitch": 341, "tick": 89760}, {"type": "pitchwheel", "channel": 8, "pitch": 427, "tick": 89880}, {"type": "pitchwheel", "channel": 8, "pitch": 512, "tick": 90000}, {"type": "pitchwheel", "channel": 8, "pitch": 597, "tick": 90120}, {"type": "pitchwheel", "channel": 8, "pitch": 683, "tick": 90240}, {"type": "pitchwheel", "channel": 8, "pitch": 768, "tick": 90360}, {"type": "pitchwheel", "channel": 8, "pitch": 853, "tick": 90480}, {"type": "pitchwheel", "channel": 8, "pitch": 939, "tick": 90600}, {"type": "pitchwheel", "channel": 8, "pitch": 1024, "tick": 90720}, {"type": "pitchwheel", "channel": 8, "pitch": 1109, "tick": 90840}, {"type": "pitchwheel", "channel": 8, "pitch": 1195, "tick": 90960}, {"type": "pitchwheel", "channel": 8, "pitch": 1280, "tick": 91080}, {"type": "pitchwheel", "channel": 8, "pitch": 1365, "tick": 91200}, {"type": "pitchwheel", "channel": 8, "pitch": 1451, "tick": 91320}, {"type": "pitchwheel", "channel": 8, "pitch": 1536, "tick": 91440}, {"type": "pitchwheel", "channel": 8, "pitch": 1621, "tick": 91560}, {"type": "pitchwheel", "channel": 8, "pitch": 1707, "tick": 91680}, {"type": "pitchwheel", "channel": 8, "pitch": 1792, "tick": 91800}, {"type": "pitchwheel", "channel": 8, "pitch": 1877, "tick": 91920}, {"type": "pitchwheel", "channel": 8, "pitch": 1963, "tick": 92040}, {"type": "pitchwheel", "channel": 8, "pitch": 2048, "tick": 92160}, {"type": "pitchwheel", "channel": 8, "pitch": 2176, "tick": 92280}, {"type": "pitchwheel", "channel": 8, "pitch": 2304, "tick": 92400}, {"type": "pitchwheel", "channel": 8, "pitch": 2432, "tick": 92520}, {"type": "pitchwheel", "channel": 8, "pitch": 2560, "tick": 92640}, {"type": "pitchwheel", "channel": 8, "pitch": 2688, "tick": 92760}, {"type": "pitchwheel", "channel": 8, "pitch": 2816, "tick": 92880}, {"type": "pitchwheel", "channel": 8, "pitch": 2944, "tick": 93000}, {"type": "pitchwheel", "channel": 8, "pitch": 3072, "tick": 93120}, {"type": "pitchwheel", "channel": 8, "pitch": 3200, "tick": 93240}, {"type": "pitchwheel", "channel": 8, "pitch": 3328, "tick": 93360}, {"type": "pitchwheel", "channel": 8, "pitch": 3456, "tick": 93480}, {"type": "pitchwheel", "channel": 8, "pitch": 3584, "tick": 93600}, {"type": "pitchwheel", "channel": 8, "pitch": 3712, "tick": 93720}, {"type": "pitchwheel", "channel": 8, "pitch": 3840, "tick": 93840}, {"type": "pitchwheel", "channel": 8, "pitch": 3968, "tick": 93960}, {"type": "pitchwheel", "channel": 8, "pitch": 0, "tick": 94080}, {"type": "pitchwheel", "channel": 8, "pitch": 0, "tick": 94080}, {"type": "pitchwheel", "channel": 8, "pitch": 0, "tick": 150720}, {"type": "pitchwheel", "channel": 8, "pitch": 85, "tick": 150840}, {"type": "pitchwheel", "channel": 8, "pitch": 171, "tick": 150960}, {"type": "pitchwheel", "channel": 8, "pitch": 256, "tick": 151080}, {"type": "pitchwheel", "channel": 8, "pitch": 341, "tick": 151200}, {"type": "pitchwheel", "channel": 8, "pitch": 427, "tick": 151320}, {"type": "pitchwheel", "channel": 8, "pitch": 512, "tick": 151440}, {"type": "pitchwheel", "channel": 8, "pitch": 597, "tick": 151560}, {"type": "pitchwheel", "channel": 8, "pitch": 683, "tick": 151680}, {"type": "pitchwheel", "channel": 8, "pitch": 768, "tick": 151800}, {"type": "pitchwheel", "channel": 8, "pitch": 853, "tick": 151920}, {"type": "pitchwheel", "channel": 8, "pitch": 939, "tick": 152040}, {"type": "pitchwheel", "channel": 8, "pitch": 1024, "tick": 152160}, {"type": "pitchwheel", "channel": 8, "pitch": 1109, "tick": 152280}, {"type": "pitchwheel", "channel": 8, "pitch": 1195, "tick": 152400}, {"type": "pitchwheel", "channel": 8, "pitch": 1280, "tick": 152520}, {"type": "pitchwheel", "channel": 8, "pitch": 1365, "tick": 152640}, {"type": "pitchwheel", "channel": 8, "pitch": 1451, "tick": 152760}, {"type": "pitchwheel", "channel": 8, "pitch": 1536, "tick": 152880}, {"type": "pitchwheel", "channel": 8, "pitch": 1621, "tick": 153000}, {"type": "pitchwheel", "channel": 8, "pitch": 1707, "tick": 153120}, {"type": "pitchwheel", "channel": 8, "pitch": 1792, "tick": 153240}, {"type": "pitchwheel", "channel": 8, "pitch": 1877, "tick": 153360}, {"type": "pitchwheel", "channel": 8, "pitch": 1963, "tick": 153480}, {"type": "pitchwheel", "channel": 8, "pitch": 2048, "tick": 153600}, {"type": "pitchwheel", "channel": 8, "pitch": 2176, "tick": 153720}, {"type": "pitchwheel", "channel": 8, "pitch": 2304, "tick": 153840}, {"type": "pitchwheel", "channel": 8, "pitch": 2432, "tick": 153960}, {"type": "pitchwheel", "channel": 8, "pitch": 2560, "tick": 154080}, {"type": "pitchwheel", "channel": 8, "pitch": 2688, "tick": 154200}, {"type": "pitchwheel", "channel": 8, "pitch": 2816, "tick": 154320}, {"type": "pitchwheel", "channel": 8, "pitch": 2944, "tick": 154440}, {"type": "pitchwheel", "channel": 8, "pitch": 3072, "tick": 154560}, {"type": "pitchwheel", "channel": 8, "pitch": 3200, "tick": 154680}, {"type": "pitchwheel", "channel": 8, "pitch": 3328, "tick": 154800}, {"type": "pitchwheel", "channel": 8, "pitch": 3456, "tick": 154920}, {"type": "pitchwheel", "channel": 8, "pitch": 3584, "tick": 155040}, {"type": "pitchwheel", "channel": 8, "pitch": 3712, "tick": 155160}, {"type": "pitchwheel", "channel": 8, "pitch": 3840, "tick": 155280}, {"type": "pitchwheel", "channel": 8, "pitch": 3968, "tick": 155400}, {"type": "pitchwheel", "channel": 8, "pitch": 0, "tick": 155520}, {"type": "pitchwheel", "channel": 8, "pitch": 0, "tick": 155520}, {"type": "pitchwheel", "channel": 8, "pitch": 0, "tick": 181440}, {"type": "pitchwheel", "channel": 8, "pitch": 85, "tick": 181560}, {"type": "pitchwheel", "channel": 8, "pitch": 171, "tick": 181680}, {"type": "pitchwheel", "channel": 8, "pitch": 256, "tick": 181800}, {"type": "pitchwheel", "channel": 8, "pitch": 341, "tick": 181920}, {"type": "pitchwheel", "channel": 8, "pitch": 427, "tick": 182040}, {"type": "pitchwheel", "channel": 8, "pitch": 512, "tick": 182160}, {"type": "pitchwheel", "channel": 8, "pitch": 597, "tick": 182280}, {"type": "pitchwheel", "channel": 8, "pitch": 683, "tick": 182400}, {"type": "pitchwheel", "channel": 8, "pitch": 768, "tick": 182520}, {"type": "pitchwheel", "channel": 8, "pitch": 853, "tick": 182640}, {"type": "pitchwheel", "channel": 8, "pitch": 939, "tick": 182760}, {"type": "pitchwheel", "channel": 8, "pitch": 1024, "tick": 182880}, {"type": "pitchwheel", "channel": 8, "pitch": 1109, "tick": 183000}, {"type": "pitchwheel", "channel": 8, "pitch": 1195, "tick": 183120}, {"type": "pitchwheel", "channel": 8, "pitch": 1280, "tick": 183240}, {"type": "pitchwheel", "channel": 8, "pitch": 1365, "tick": 183360}, {"type": "pitchwheel", "channel": 8, "pitch": 1451, "tick": 183480}, {"type": "pitchwheel", "channel": 8, "pitch": 1536, "tick": 183600}, {"type": "pitchwheel", "channel": 8, "pitch": 1621, "tick": 183720}, {"type": "pitchwheel", "channel": 8, "pitch": 1707, "tick": 183840}, {"type": "pitchwheel", "channel": 8, "pitch": 1792, "tick": 183960}, {"type": "pitchwheel", "channel": 8, "pitch": 1877, "tick": 184080}, {"type": "pitchwheel", "channel": 8, "pitch": 1963, "tick": 184200}, {"type": "pitchwheel", "channel": 8, "pitch": 2048, "tick": 184320}, {"type": "pitchwheel", "channel": 8, "pitch": 2176, "tick": 184440}, {"type": "pitchwheel", "channel": 8, "pitch": 2304, "tick": 184560}, {"type": "pitchwheel", "channel": 8, "pitch": 2432, "tick": 184680}, {"type": "pitchwheel", "channel": 8, "pitch": 2560, "tick": 184800}, {"type": "pitchwheel", "channel": 8, "pitch": 2688, "tick": 184920}, {"type": "pitchwheel", "channel": 8, "pitch": 2816, "tick": 185040}, {"type": "pitchwheel", "channel": 8, "pitch": 2944, "tick": 185160}, {"type": "pitchwheel", "channel": 8, "pitch": 3072, "tick": 185280}, {"type": "pitchwheel", "channel": 8, "pitch": 3200, "tick": 185400}, {"type": "pitchwheel", "channel": 8, "pitch": 3328, "tick": 185520}, {"type": "pitchwheel", "channel": 8, "pitch": 3456, "tick": 185640}, {"type": "pitchwheel", "channel": 8, "pitch": 3584, "tick": 185760}, {"type": "pitchwheel", "channel": 8, "pitch": 3712, "tick": 185880}, {"type": "pitchwheel", "channel": 8, "pitch": 3840, "tick": 186000}, {"type": "pitchwheel", "channel": 8, "pitch": 3968, "tick": 186120}, {"type": "pitchwheel", "channel": 8, "pitch": 0, "tick": 186240}, {"type": "pitchwheel", "channel": 8, "pitch": 0, "tick": 186240}, {"type": "pitchwheel", "channel": 8, "pitch": 0, "tick": 212160}, {"type": "pitchwheel", "channel": 8, "pitch": 85, "tick": 212280}, {"type": "pitchwheel", "channel": 8, "pitch": 171, "tick": 212400}, {"type": "pitchwheel", "channel": 8, "pitch": 256, "tick": 212520}, {"type": "pitchwheel", "channel": 8, "pitch": 341, "tick": 212640}, {"type": "pitchwheel", "channel": 8, "pitch": 427, "tick": 212760}, {"type": "pitchwheel", "channel": 8, "pitch": 512, "tick": 212880}, {"type": "pitchwheel", "channel": 8, "pitch": 597, "tick": 213000}, {"type": "pitchwheel", "channel": 8, "pitch": 683, "tick": 213120}, {"type": "pitchwheel", "channel": 8, "pitch": 768, "tick": 213240}, {"type": "pitchwheel", "channel": 8, "pitch": 853, "tick": 213360}, {"type": "pitchwheel", "channel": 8, "pitch": 939, "tick": 213480}, {"type": "pitchwheel", "channel": 8, "pitch": 1024, "tick": 213600}, {"type": "pitchwheel", "channel": 8, "pitch": 1109, "tick": 213720}, {"type": "pitchwheel", "channel": 8, "pitch": 1195, "tick": 213840}, {"type": "pitchwheel", "channel": 8, "pitch": 1280, "tick": 213960}, {"type": "pitchwheel", "channel": 8, "pitch": 1365, "tick": 214080}, {"type": "pitchwheel", "channel": 8, "pitch": 1451, "tick": 214200}, {"type": "pitchwheel", "channel": 8, "pitch": 1536, "tick": 214320}, {"type": "pitchwheel", "channel": 8, "pitch": 1621, "tick": 214440}, {"type": "pitchwheel", "channel": 8, "pitch": 1707, "tick": 214560}, {"type": "pitchwheel", "channel": 8, "pitch": 1792, "tick": 214680}, {"type": "pitchwheel", "channel": 8, "pitch": 1877, "tick": 214800}, {"type": "pitchwheel", "channel": 8, "pitch": 1963, "tick": 214920}, {"type": "pitchwheel", "channel": 8, "pitch": 2048, "tick": 215040}, {"type": "pitchwheel", "channel": 8, "pitch": 2176, "tick": 215160}, {"type": "pitchwheel", "channel": 8, "pitch": 2304, "tick": 215280}, {"type": "pitchwheel", "channel": 8, "pitch": 2432, "tick": 215400}, {"type": "pitchwheel", "channel": 8, "pitch": 2560, "tick": 215520}, {"type": "pitchwheel", "channel": 8, "pitch": 2688, "tick": 215640}, {"type": "pitchwheel", "channel": 8, "pitch": 2816, "tick": 215760}, {"type": "pitchwheel", "channel": 8, "pitch": 2944, "tick": 215880}, {"type": "pitchwheel", "channel": 8, "pitch": 3072, "tick": 216000}, {"type": "pitchwheel", "channel": 8, "pitch": 3200, "tick": 216120}, {"type": "pitchwheel", "channel": 8, "pitch": 3328, "tick": 216240}, {"type": "pitchwheel", "channel": 8, "pitch": 3456, "tick": 216360}, {"type": "pitchwheel", "channel": 8, "pitch": 3584, "tick": 216480}, {"type": "pitchwheel", "channel": 8, "pitch": 3712, "tick": 216600}, {"type": "pitchwheel", "channel": 8, "pitch": 3840, "tick": 216720}, {"type": "pitchwheel", "channel": 8, "pitch": 3968, "tick": 216840}, {"type": "pitchwheel", "channel": 8, "pitch": 0, "tick": 216960}, {"type": "pitchwheel", "channel": 8, "pitch": 0, "tick": 216960}, {"type": "control_change", "control": 11, "value": 80, "channel": 8, "tick": 270720}, {"type": "control_change", "control": 11, "value": 81, "channel": 8, "tick": 270960}, {"type": "control_change", "control": 11, "value": 82, "channel": 8, "tick": 271320}, {"type": "control_change", "control": 11, "value": 83, "channel": 8, "tick": 271560}, {"type": "control_change", "control": 11, "value": 84, "channel": 8, "tick": 271920}, {"type": "control_change", "control": 11, "value": 85, "channel": 8, "tick": 272280}, {"type": "control_change", "control": 11, "value": 86, "channel": 8, "tick": 272520}, {"type": "control_change", "control": 11, "value": 87, "channel": 8, "tick": 272880}, {"type": "control_change", "control": 11, "value": 88, "channel": 8, "tick": 273240}, {"type": "control_change", "control": 11, "value": 89, "channel": 8, "tick": 273600}, {"type": "control_change", "control": 11, "value": 90, "channel": 8, "tick": 273840}, {"type": "control_change", "control": 11, "value": 91, "channel": 8, "tick": 274200}, {"type": "control_change", "control": 11, "value": 92, "channel": 8, "tick": 274560}, {"type": "control_change", "control": 11, "value": 93, "channel": 8, "tick": 274920}, {"type": "control_change", "control": 11, "value": 94, "channel": 8, "tick": 275160}, {"type": "control_change", "control": 11, "value": 95, "channel": 8, "tick": 275520}, {"type": "control_change", "control": 11, "value": 96, "channel": 8, "tick": 275880}, {"type": "control_change", "control": 11, "value": 97, "channel": 8, "tick": 276120}, {"type": "control_change", "control": 11, "value": 98, "channel": 8, "tick": 276480}, {"type": "control_change", "control": 11, "value": 99, "channel": 8, "tick": 276840}, {"type": "control_change", "control": 11, "value": 100, "channel": 8, "tick": 277200}, {"type": "control_change", "control": 11, "value": 101, "channel": 8, "tick": 277440}, {"type": "control_change", "control": 11, "value": 102, "channel": 8, "tick": 277800}, {"type": "control_change", "control": 11, "value": 103, "channel": 8, "tick": 278160}, {"type": "control_change", "control": 11, "value": 104, "channel": 8, "tick": 278400}, {"type": "control_change", "control": 11, "value": 105, "channel": 8, "tick": 278760}, {"type": "control_change", "control": 11, "value": 106, "channel": 8, "tick": 279120}, {"type": "control_change", "control": 11, "value": 107, "channel": 8, "tick": 279480}, {"type": "control_change", "control": 11, "value": 108, "channel": 8, "tick": 279720}, {"type": "control_change", "control": 11, "value": 109, "channel": 8, "tick": 280080}, {"type": "control_change", "control": 11, "value": 110, "channel": 8, "tick": 280440}, {"type": "control_change", "control": 11, "value": 111, "channel": 8, "tick": 280800}, {"type": "control_change", "control": 11, "value": 112, "channel": 8, "tick": 281040}, {"type": "pitchwheel", "channel": 8, "pitch": 0, "tick": 281280}, {"type": "control_change", "control": 11, "value": 113, "channel": 8, "tick": 281400}, {"type": "pitchwheel", "channel": 8, "pitch": 85, "tick": 281400}, {"type": "pitchwheel", "channel": 8, "pitch": 171, "tick": 281520}, {"type": "pitchwheel", "channel": 8, "pitch": 256, "tick": 281640}, {"type": "control_change", "control": 11, "value": 114, "channel": 8, "tick": 281760}, {"type": "pitchwheel", "channel": 8, "pitch": 341, "tick": 281760}, {"type": "pitchwheel", "channel": 8, "pitch": 427, "tick": 281880}, {"type": "control_change", "control": 11, "value": 115, "channel": 8, "tick": 282000}, {"type": "pitchwheel", "channel": 8, "pitch": 512, "tick": 282000}, {"type": "pitchwheel", "channel": 8, "pitch": 597, "tick": 282120}, {"type": "pitchwheel", "channel": 8, "pitch": 683, "tick": 282240}, {"type": "control_change", "control": 11, "value": 116, "channel": 8, "tick": 282360}, {"type": "pitchwheel", "channel": 8, "pitch": 768, "tick": 282360}, {"type": "pitchwheel", "channel": 8, "pitch": 853, "tick": 282480}, {"type": "pitchwheel", "channel": 8, "pitch": 939, "tick": 282600}, {"type": "control_change", "control": 11, "value": 117, "channel": 8, "tick": 282720}, {"type": "pitchwheel", "channel": 8, "pitch": 1024, "tick": 282720}, {"type": "pitchwheel", "channel": 8, "pitch": 1109, "tick": 282840}, {"type": "pitchwheel", "channel": 8, "pitch": 1195, "tick": 282960}, {"type": "control_change", "control": 11, "value": 118, "channel": 8, "tick": 283080}, {"type": "pitchwheel", "channel": 8, "pitch": 1280, "tick": 283080}, {"type": "pitchwheel", "channel": 8, "pitch": 1365, "tick": 283200}, {"type": "control_change", "control": 11, "value": 119, "channel": 8, "tick": 283320}, {"type": "pitchwheel", "channel": 8, "pitch": 1451, "tick": 283320}, {"type": "pitchwheel", "channel": 8, "pitch": 1536, "tick": 283440}, {"type": "pitchwheel", "channel": 8, "pitch": 1621, "tick": 283560}, {"type": "control_change", "control": 11, "value": 120, "channel": 8, "tick": 283680}, {"type": "pitchwheel", "channel": 8, "pitch": 1707, "tick": 283680}, {"type": "pitchwheel", "channel": 8, "pitch": 1792, "tick": 283800}, {"type": "pitchwheel", "channel": 8, "pitch": 1877, "tick": 283920}, {"type": "control_change", "control": 11, "value": 121, "channel": 8, "tick": 284040}, {"type": "pitchwheel", "channel": 8, "pitch": 1963, "tick": 284040}, {"type": "pitchwheel", "channel": 8, "pitch": 2048, "tick": 284160}, {"type": "pitchwheel", "channel": 8, "pitch": 2176, "tick": 284280}, {"type": "control_change", "control": 11, "value": 122, "channel": 8, "tick": 284400}, {"type": "pitchwheel", "channel": 8, "pitch": 2304, "tick": 284400}, {"type": "pitchwheel", "channel": 8, "pitch": 2432, "tick": 284520}, {"type": "control_change", "control": 11, "value": 123, "channel": 8, "tick": 284640}, {"type": "pitchwheel", "channel": 8, "pitch": 2560, "tick": 284640}, {"type": "pitchwheel", "channel": 8, "pitch": 2688, "tick": 284760}, {"type": "pitchwheel", "channel": 8, "pitch": 2816, "tick": 284880}, {"type": "control_change", "control": 11, "value": 124, "channel": 8, "tick": 285000}, {"type": "pitchwheel", "channel": 8, "pitch": 2944, "tick": 285000}, {"type": "pitchwheel", "channel": 8, "pitch": 3072, "tick": 285120}, {"type": "pitchwheel", "channel": 8, "pitch": 3200, "tick": 285240}, {"type": "control_change", "control": 11, "value": 125, "channel": 8, "tick": 285360}, {"type": "pitchwheel", "channel": 8, "pitch": 3328, "tick": 285360}, {"type": "pitchwheel", "channel": 8, "pitch": 3456, "tick": 285480}, {"type": "control_change", "control": 11, "value": 126, "channel": 8, "tick": 285600}, {"type": "pitchwheel", "channel": 8, "pitch": 3584, "tick": 285600}, {"type": "pitchwheel", "channel": 8, "pitch": 3712, "tick": 285720}, {"type": "pitchwheel", "channel": 8, "pitch": 3840, "tick": 285840}, {"type": "control_change", "control": 11, "value": 127, "channel": 8, "tick": 285960}, {"type": "pitchwheel", "channel": 8, "pitch": 3968, "tick": 285960}, {"type": "pitchwheel", "channel": 8, "pitch": 0, "tick": 286080}, {"type": "pitchwheel", "channel": 8, "pitch": 0, "tick": 286080}, {"type": "pitchwheel", "channel": 8, "pitch": 0, "tick": 312000}, {"type": "pitchwheel", "channel": 8, "pitch": 85, "tick": 312120}, {"type": "pitchwheel", "channel": 8, "pitch": 171, "tick": 312240}, {"type": "pitchwheel", "channel": 8, "pitch": 256, "tick": 312360}, {"type": "pitchwheel", "channel": 8, "pitch": 341, "tick": 312480}, {"type": "pitchwheel", "channel": 8, "pitch": 427, "tick": 312600}, {"type": "pitchwheel", "channel": 8, "pitch": 512, "tick": 312720}, {"type": "pitchwheel", "channel": 8, "pitch": 597, "tick": 312840}, {"type": "pitchwheel", "channel": 8, "pitch": 683, "tick": 312960}, {"type": "pitchwheel", "channel": 8, "pitch": 768, "tick": 313080}, {"type": "pitchwheel", "channel": 8, "pitch": 853, "tick": 313200}, {"type": "pitchwheel", "channel": 8, "pitch": 939, "tick": 313320}, {"type": "pitchwheel", "channel": 8, "pitch": 1024, "tick": 313440}, {"type": "pitchwheel", "channel": 8, "pitch": 1109, "tick": 313560}, {"type": "pitchwheel", "channel": 8, "pitch": 1195, "tick": 313680}, {"type": "pitchwheel", "channel": 8, "pitch": 1280, "tick": 313800}, {"type": "pitchwheel", "channel": 8, "pitch": 1365, "tick": 313920}, {"type": "pitchwheel", "channel": 8, "pitch": 1451, "tick": 314040}, {"type": "pitchwheel", "channel": 8, "pitch": 1536, "tick": 314160}, {"type": "pitchwheel", "channel": 8, "pitch": 1621, "tick": 314280}, {"type": "pitchwheel", "channel": 8, "pitch": 1707, "tick": 314400}, {"type": "pitchwheel", "channel": 8, "pitch": 1792, "tick": 314520}, {"type": "pitchwheel", "channel": 8, "pitch": 1877, "tick": 314640}, {"type": "pitchwheel", "channel": 8, "pitch": 1963, "tick": 314760}, {"type": "pitchwheel", "channel": 8, "pitch": 2048, "tick": 314880}, {"type": "pitchwheel", "channel": 8, "pitch": 2176, "tick": 315000}, {"type": "pitchwheel", "channel": 8, "pitch": 2304, "tick": 315120}, {"type": "pitchwheel", "channel": 8, "pitch": 2432, "tick": 315240}, {"type": "pitchwheel", "channel": 8, "pitch": 2560, "tick": 315360}, {"type": "pitchwheel", "channel": 8, "pitch": 2688, "tick": 315480}, {"type": "pitchwheel", "channel": 8, "pitch": 2816, "tick": 315600}, {"type": "pitchwheel", "channel": 8, "pitch": 2944, "tick": 315720}, {"type": "pitchwheel", "channel": 8, "pitch": 3072, "tick": 315840}, {"type": "pitchwheel", "channel": 8, "pitch": 3200, "tick": 315960}, {"type": "pitchwheel", "channel": 8, "pitch": 3328, "tick": 316080}, {"type": "pitchwheel", "channel": 8, "pitch": 3456, "tick": 316200}, {"type": "pitchwheel", "channel": 8, "pitch": 3584, "tick": 316320}, {"type": "pitchwheel", "channel": 8, "pitch": 3712, "tick": 316440}, {"type": "pitchwheel", "channel": 8, "pitch": 3840, "tick": 316560}, {"type": "pitchwheel", "channel": 8, "pitch": 3968, "tick": 316680}, {"type": "pitchwheel", "channel": 8, "pitch": 0, "tick": 316800}, {"type": "pitchwheel", "channel": 8, "pitch": 0, "tick": 316800}, {"type": "pitchwheel", "channel": 8, "pitch": 0, "tick": 342720}, {"type": "pitchwheel", "channel": 8, "pitch": 85, "tick": 342840}, {"type": "pitchwheel", "channel": 8, "pitch": 171, "tick": 342960}, {"type": "pitchwheel", "channel": 8, "pitch": 256, "tick": 343080}, {"type": "pitchwheel", "channel": 8, "pitch": 341, "tick": 343200}, {"type": "pitchwheel", "channel": 8, "pitch": 427, "tick": 343320}, {"type": "pitchwheel", "channel": 8, "pitch": 512, "tick": 343440}, {"type": "pitchwheel", "channel": 8, "pitch": 597, "tick": 343560}, {"type": "pitchwheel", "channel": 8, "pitch": 683, "tick": 343680}, {"type": "pitchwheel", "channel": 8, "pitch": 768, "tick": 343800}, {"type": "pitchwheel", "channel": 8, "pitch": 853, "tick": 343920}, {"type": "pitchwheel", "channel": 8, "pitch": 939, "tick": 344040}, {"type": "pitchwheel", "channel": 8, "pitch": 1024, "tick": 344160}, {"type": "pitchwheel", "channel": 8, "pitch": 1109, "tick": 344280}, {"type": "pitchwheel", "channel": 8, "pitch": 1195, "tick": 344400}, {"type": "pitchwheel", "channel": 8, "pitch": 1280, "tick": 344520}, {"type": "pitchwheel", "channel": 8, "pitch": 1365, "tick": 344640}, {"type": "pitchwheel", "channel": 8, "pitch": 1451, "tick": 344760}, {"type": "pitchwheel", "channel": 8, "pitch": 1536, "tick": 344880}, {"type": "pitchwheel", "channel": 8, "pitch": 1621, "tick": 345000}, {"type": "pitchwheel", "channel": 8, "pitch": 1707, "tick": 345120}, {"type": "pitchwheel", "channel": 8, "pitch": 1792, "tick": 345240}, {"type": "pitchwheel", "channel": 8, "pitch": 1877, "tick": 345360}, {"type": "pitchwheel", "channel": 8, "pitch": 1963, "tick": 345480}, {"type": "pitchwheel", "channel": 8, "pitch": 2048, "tick": 345600}, {"type": "pitchwheel", "channel": 8, "pitch": 2176, "tick": 345720}, {"type": "pitchwheel", "channel": 8, "pitch": 2304, "tick": 345840}, {"type": "pitchwheel", "channel": 8, "pitch": 2432, "tick": 345960}, {"type": "pitchwheel", "channel": 8, "pitch": 2560, "tick": 346080}, {"type": "pitchwheel", "channel": 8, "pitch": 2688, "tick": 346200}, {"type": "pitchwheel", "channel": 8, "pitch": 2816, "tick": 346320}, {"type": "pitchwheel", "channel": 8, "pitch": 2944, "tick": 346440}, {"type": "pitchwheel", "channel": 8, "pitch": 3072, "tick": 346560}, {"type": "pitchwheel", "channel": 8, "pitch": 3200, "tick": 346680}, {"type": "pitchwheel", "channel": 8, "pitch": 3328, "tick": 346800}, {"type": "pitchwheel", "channel": 8, "pitch": 3456, "tick": 346920}, {"type": "pitchwheel", "channel": 8, "pitch": 3584, "tick": 347040}, {"type": "pitchwheel", "channel": 8, "pitch": 3712, "tick": 347160}, {"type": "pitchwheel", "channel": 8, "pitch": 3840, "tick": 347280}, {"type": "pitchwheel", "channel": 8, "pitch": 3968, "tick": 347400}, {"type": "pitchwheel", "channel": 8, "pitch": 0, "tick": 347520}, {"type": "pitchwheel", "channel": 8, "pitch": 0, "tick": 347520}, {"type": "pitchwheel", "channel": 8, "pitch": 0, "tick": 373440}, {"type": "pitchwheel", "channel": 8, "pitch": 85, "tick": 373560}, {"type": "pitchwheel", "channel": 8, "pitch": 171, "tick": 373680}, {"type": "pitchwheel", "channel": 8, "pitch": 256, "tick": 373800}, {"type": "pitchwheel", "channel": 8, "pitch": 341, "tick": 373920}, {"type": "pitchwheel", "channel": 8, "pitch": 427, "tick": 374040}, {"type": "pitchwheel", "channel": 8, "pitch": 512, "tick": 374160}, {"type": "pitchwheel", "channel": 8, "pitch": 597, "tick": 374280}, {"type": "pitchwheel", "channel": 8, "pitch": 683, "tick": 374400}, {"type": "pitchwheel", "channel": 8, "pitch": 768, "tick": 374520}, {"type": "pitchwheel", "channel": 8, "pitch": 853, "tick": 374640}, {"type": "pitchwheel", "channel": 8, "pitch": 939, "tick": 374760}, {"type": "pitchwheel", "channel": 8, "pitch": 1024, "tick": 374880}, {"type": "pitchwheel", "channel": 8, "pitch": 1109, "tick": 375000}, {"type": "pitchwheel", "channel": 8, "pitch": 1195, "tick": 375120}, {"type": "pitchwheel", "channel": 8, "pitch": 1280, "tick": 375240}, {"type": "pitchwheel", "channel": 8, "pitch": 1365, "tick": 375360}, {"type": "pitchwheel", "channel": 8, "pitch": 1451, "tick": 375480}, {"type": "pitchwheel", "channel": 8, "pitch": 1536, "tick": 375600}, {"type": "pitchwheel", "channel": 8, "pitch": 1621, "tick": 375720}, {"type": "pitchwheel", "channel": 8, "pitch": 1707, "tick": 375840}, {"type": "pitchwheel", "channel": 8, "pitch": 1792, "tick": 375960}, {"type": "pitchwheel", "channel": 8, "pitch": 1877, "tick": 376080}, {"type": "pitchwheel", "channel": 8, "pitch": 1963, "tick": 376200}, {"type": "pitchwheel", "channel": 8, "pitch": 2048, "tick": 376320}, {"type": "pitchwheel", "channel": 8, "pitch": 2176, "tick": 376440}, {"type": "pitchwheel", "channel": 8, "pitch": 2304, "tick": 376560}, {"type": "pitchwheel", "channel": 8, "pitch": 2432, "tick": 376680}, {"type": "pitchwheel", "channel": 8, "pitch": 2560, "tick": 376800}, {"type": "pitchwheel", "channel": 8, "pitch": 2688, "tick": 376920}, {"type": "pitchwheel", "channel": 8, "pitch": 2816, "tick": 377040}, {"type": "pitchwheel", "channel": 8, "pitch": 2944, "tick": 377160}, {"type": "pitchwheel", "channel": 8, "pitch": 3072, "tick": 377280}, {"type": "pitchwheel", "channel": 8, "pitch": 3200, "tick": 377400}, {"type": "pitchwheel", "channel": 8, "pitch": 3328, "tick": 377520}, {"type": "pitchwheel", "channel": 8, "pitch": 3456, "tick": 377640}, {"type": "pitchwheel", "channel": 8, "pitch": 3584, "tick": 377760}, {"type": "pitchwheel", "channel": 8, "pitch": 3712, "tick": 377880}, {"type": "pitchwheel", "channel": 8, "pitch": 3840, "tick": 378000}, {"type": "pitchwheel", "channel": 8, "pitch": 3968, "tick": 378120}, {"type": "pitchwheel", "channel": 8, "pitch": 0, "tick": 378240}, {"type": "pitchwheel", "channel": 8, "pitch": 0, "tick": 378240}, {"type": "pitchwheel", "channel": 8, "pitch": 0, "tick": 404160}, {"type": "pitchwheel", "channel": 8, "pitch": 85, "tick": 404280}, {"type": "pitchwheel", "channel": 8, "pitch": 171, "tick": 404400}, {"type": "pitchwheel", "channel": 8, "pitch": 256, "tick": 404520}, {"type": "pitchwheel", "channel": 8, "pitch": 341, "tick": 404640}, {"type": "pitchwheel", "channel": 8, "pitch": 427, "tick": 404760}, {"type": "pitchwheel", "channel": 8, "pitch": 512, "tick": 404880}, {"type": "pitchwheel", "channel": 8, "pitch": 597, "tick": 405000}, {"type": "pitchwheel", "channel": 8, "pitch": 683, "tick": 405120}, {"type": "pitchwheel", "channel": 8, "pitch": 768, "tick": 405240}, {"type": "pitchwheel", "channel": 8, "pitch": 853, "tick": 405360}, {"type": "pitchwheel", "channel": 8, "pitch": 939, "tick": 405480}, {"type": "pitchwheel", "channel": 8, "pitch": 1024, "tick": 405600}, {"type": "pitchwheel", "channel": 8, "pitch": 1109, "tick": 405720}, {"type": "pitchwheel", "channel": 8, "pitch": 1195, "tick": 405840}, {"type": "pitchwheel", "channel": 8, "pitch": 1280, "tick": 405960}, {"type": "pitchwheel", "channel": 8, "pitch": 1365, "tick": 406080}, {"type": "pitchwheel", "channel": 8, "pitch": 1451, "tick": 406200}, {"type": "pitchwheel", "channel": 8, "pitch": 1536, "tick": 406320}, {"type": "pitchwheel", "channel": 8, "pitch": 1621, "tick": 406440}, {"type": "pitchwheel", "channel": 8, "pitch": 1707, "tick": 406560}, {"type": "pitchwheel", "channel": 8, "pitch": 1792, "tick": 406680}, {"type": "pitchwheel", "channel": 8, "pitch": 1877, "tick": 406800}, {"type": "pitchwheel", "channel": 8, "pitch": 1963, "tick": 406920}, {"type": "pitchwheel", "channel": 8, "pitch": 2048, "tick": 407040}, {"type": "pitchwheel", "channel": 8, "pitch": 2176, "tick": 407160}, {"type": "pitchwheel", "channel": 8, "pitch": 2304, "tick": 407280}, {"type": "pitchwheel", "channel": 8, "pitch": 2432, "tick": 407400}, {"type": "pitchwheel", "channel": 8, "pitch": 2560, "tick": 407520}, {"type": "pitchwheel", "channel": 8, "pitch": 2688, "tick": 407640}, {"type": "pitchwheel", "channel": 8, "pitch": 2816, "tick": 407760}, {"type": "pitchwheel", "channel": 8, "pitch": 2944, "tick": 407880}, {"type": "pitchwheel", "channel": 8, "pitch": 3072, "tick": 408000}, {"type": "pitchwheel", "channel": 8, "pitch": 3200, "tick": 408120}, {"type": "pitchwheel", "channel": 8, "pitch": 3328, "tick": 408240}, {"type": "pitchwheel", "channel": 8, "pitch": 3456, "tick": 408360}, {"type": "pitchwheel", "channel": 8, "pitch": 3584, "tick": 408480}, {"type": "pitchwheel", "channel": 8, "pitch": 3712, "tick": 408600}, {"type": "pitchwheel", "channel": 8, "pitch": 3840, "tick": 408720}, {"type": "pitchwheel", "channel": 8, "pitch": 3968, "tick": 408840}, {"type": "pitchwheel", "channel": 8, "pitch": 0, "tick": 408960}, {"type": "pitchwheel", "channel": 8, "pitch": 0, "tick": 408960}, {"type": "pitchwheel", "channel": 8, "pitch": 0, "tick": 434880}, {"type": "pitchwheel", "channel": 8, "pitch": 85, "tick": 435000}, {"type": "pitchwheel", "channel": 8, "pitch": 171, "tick": 435120}, {"type": "pitchwheel", "channel": 8, "pitch": 256, "tick": 435240}, {"type": "pitchwheel", "channel": 8, "pitch": 341, "tick": 435360}, {"type": "pitchwheel", "channel": 8, "pitch": 427, "tick": 435480}, {"type": "pitchwheel", "channel": 8, "pitch": 512, "tick": 435600}, {"type": "pitchwheel", "channel": 8, "pitch": 597, "tick": 435720}, {"type": "pitchwheel", "channel": 8, "pitch": 683, "tick": 435840}, {"type": "pitchwheel", "channel": 8, "pitch": 768, "tick": 435960}, {"type": "pitchwheel", "channel": 8, "pitch": 853, "tick": 436080}, {"type": "pitchwheel", "channel": 8, "pitch": 939, "tick": 436200}, {"type": "pitchwheel", "channel": 8, "pitch": 1024, "tick": 436320}, {"type": "pitchwheel", "channel": 8, "pitch": 1109, "tick": 436440}, {"type": "pitchwheel", "channel": 8, "pitch": 1195, "tick": 436560}, {"type": "pitchwheel", "channel": 8, "pitch": 1280, "tick": 436680}, {"type": "pitchwheel", "channel": 8, "pitch": 1365, "tick": 436800}, {"type": "pitchwheel", "channel": 8, "pitch": 1451, "tick": 436920}, {"type": "pitchwheel", "channel": 8, "pitch": 1536, "tick": 437040}, {"type": "pitchwheel", "channel": 8, "pitch": 1621, "tick": 437160}, {"type": "pitchwheel", "channel": 8, "pitch": 1707, "tick": 437280}, {"type": "pitchwheel", "channel": 8, "pitch": 1792, "tick": 437400}, {"type": "pitchwheel", "channel": 8, "pitch": 1877, "tick": 437520}, {"type": "pitchwheel", "channel": 8, "pitch": 1963, "tick": 437640}, {"type": "pitchwheel", "channel": 8, "pitch": 2048, "tick": 437760}, {"type": "pitchwheel", "channel": 8, "pitch": 2176, "tick": 437880}, {"type": "pitchwheel", "channel": 8, "pitch": 2304, "tick": 438000}, {"type": "pitchwheel", "channel": 8, "pitch": 2432, "tick": 438120}, {"type": "pitchwheel", "channel": 8, "pitch": 2560, "tick": 438240}, {"type": "pitchwheel", "channel": 8, "pitch": 2688, "tick": 438360}, {"type": "pitchwheel", "channel": 8, "pitch": 2816, "tick": 438480}, {"type": "pitchwheel", "channel": 8, "pitch": 2944, "tick": 438600}, {"type": "pitchwheel", "channel": 8, "pitch": 3072, "tick": 438720}, {"type": "pitchwheel", "channel": 8, "pitch": 3200, "tick": 438840}, {"type": "pitchwheel", "channel": 8, "pitch": 3328, "tick": 438960}, {"type": "pitchwheel", "channel": 8, "pitch": 3456, "tick": 439080}, {"type": "pitchwheel", "channel": 8, "pitch": 3584, "tick": 439200}, {"type": "pitchwheel", "channel": 8, "pitch": 3712, "tick": 439320}, {"type": "pitchwheel", "channel": 8, "pitch": 3840, "tick": 439440}, {"type": "pitchwheel", "channel": 8, "pitch": 3968, "tick": 439560}, {"type": "pitchwheel", "channel": 8, "pitch": 0, "tick": 439680}, {"type": "pitchwheel", "channel": 8, "pitch": 0, "tick": 439680}, {"type": "pitchwheel", "channel": 8, "pitch": 0, "tick": 465600}, {"type": "pitchwheel", "channel": 8, "pitch": 85, "tick": 465720}, {"type": "pitchwheel", "channel": 8, "pitch": 171, "tick": 465840}, {"type": "pitchwheel", "channel": 8, "pitch": 256, "tick": 465960}, {"type": "pitchwheel", "channel": 8, "pitch": 341, "tick": 466080}, {"type": "pitchwheel", "channel": 8, "pitch": 427, "tick": 466200}, {"type": "pitchwheel", "channel": 8, "pitch": 512, "tick": 466320}, {"type": "pitchwheel", "channel": 8, "pitch": 597, "tick": 466440}, {"type": "pitchwheel", "channel": 8, "pitch": 683, "tick": 466560}, {"type": "pitchwheel", "channel": 8, "pitch": 768, "tick": 466680}, {"type": "pitchwheel", "channel": 8, "pitch": 853, "tick": 466800}, {"type": "pitchwheel", "channel": 8, "pitch": 939, "tick": 466920}, {"type": "pitchwheel", "channel": 8, "pitch": 1024, "tick": 467040}, {"type": "pitchwheel", "channel": 8, "pitch": 1109, "tick": 467160}, {"type": "pitchwheel", "channel": 8, "pitch": 1195, "tick": 467280}, {"type": "pitchwheel", "channel": 8, "pitch": 1280, "tick": 467400}, {"type": "pitchwheel", "channel": 8, "pitch": 1365, "tick": 467520}, {"type": "pitchwheel", "channel": 8, "pitch": 1451, "tick": 467640}, {"type": "pitchwheel", "channel": 8, "pitch": 1536, "tick": 467760}, {"type": "pitchwheel", "channel": 8, "pitch": 1621, "tick": 467880}, {"type": "pitchwheel", "channel": 8, "pitch": 1707, "tick": 468000}, {"type": "pitchwheel", "channel": 8, "pitch": 1792, "tick": 468120}, {"type": "pitchwheel", "channel": 8, "pitch": 1877, "tick": 468240}, {"type": "pitchwheel", "channel": 8, "pitch": 1963, "tick": 468360}, {"type": "pitchwheel", "channel": 8, "pitch": 2048, "tick": 468480}, {"type": "pitchwheel", "channel": 8, "pitch": 2176, "tick": 468600}, {"type": "pitchwheel", "channel": 8, "pitch": 2304, "tick": 468720}, {"type": "pitchwheel", "channel": 8, "pitch": 2432, "tick": 468840}, {"type": "pitchwheel", "channel": 8, "pitch": 2560, "tick": 468960}, {"type": "pitchwheel", "channel": 8, "pitch": 2688, "tick": 469080}, {"type": "pitchwheel", "channel": 8, "pitch": 2816, "tick": 469200}, {"type": "pitchwheel", "channel": 8, "pitch": 2944, "tick": 469320}, {"type": "pitchwheel", "channel": 8, "pitch": 3072, "tick": 469440}, {"type": "pitchwheel", "channel": 8, "pitch": 3200, "tick": 469560}, {"type": "pitchwheel", "channel": 8, "pitch": 3328, "tick": 469680}, {"type": "pitchwheel", "channel": 8, "pitch": 3456, "tick": 469800}, {"type": "pitchwheel", "channel": 8, "pitch": 3584, "tick": 469920}, {"type": "pitchwheel", "channel": 8, "pitch": 3712, "tick": 470040}, {"type": "pitchwheel", "channel": 8, "pitch": 3840, "tick": 470160}, {"type": "pitchwheel", "channel": 8, "pitch": 3968, "tick": 470280}, {"type": "pitchwheel", "channel": 8, "pitch": 0, "tick": 470400}, {"type": "pitchwheel", "channel": 8, "pitch": 0, "tick": 470400}, {"type": "end_of_track", "tick": 470400}], "notes": [{"pitch": 62, "tick": 17280, "length": 132, "velocity": 80}, {"pitch": 62, "tick": 17412, "length": 108, "velocity": 64}, {"pitch": 66, "tick": 17520, "length": 132, "velocity": 80}, {"pitch": 66, "tick": 17652, "length": 108, "velocity": 64}, {"pitch": 62, "tick": 17760, "length": 132, "velocity": 80}, {"pitch": 62, "tick": 17892, "length": 108, "velocity": 64}, {"pitch": 66, "tick": 18000, "length": 132, "velocity": 80}, {"pitch": 66, "tick": 18132, "length": 108, "velocity": 64}, {"pitch": 62, "tick": 18240, "length": 132, "velocity": 80}, {"pitch": 62, "tick": 18372, "length": 108, "velocity": 64}, {"pitch": 66, "tick": 18480, "length": 132, "velocity": 80}, {"pitch": 66, "tick": 18612, "length": 108, "velocity": 64}, {"pitch": 62, "tick": 18720, "length": 132, "velocity": 80}, {"pitch": 62, "tick": 18852, "length": 108, "velocity": 64}, {"pitch": 66, "tick": 18960, "length": 132, "velocity": 80}, {"pitch": 66, "tick": 19092, "length": 108, "velocity": 64}, {"pitch": 62, "tick": 19200, "length": 132, "velocity": 80}, {"pitch": 62, "tick": 19332, "length": 108, "velocity": 64}, {"pitch": 66, "tick": 19440, "length": 132, "velocity": 80}, {"pitch": 66, "tick": 19572, "length": 108, "velocity": 64}, {"pitch": 62, "tick": 19680, "length": 132, "velocity": 80}, {"pitch": 62, "tick": 19812, "length": 108, "velocity": 64}, {"pitch": 66, "tick": 19920, "length": 132, "velocity": 80}, {"pitch": 66, "tick": 20052, "length": 108, "velocity": 64}, {"pitch": 62, "tick": 20160, "length": 132, "velocity": 80}, {"pitch": 62, "tick": 20292, "length": 108, "velocity": 64}, {"pitch": 66, "tick": 20400, "length": 132, "velocity": 80}, {"pitch": 66, "tick": 20532, "length": 108, "velocity": 64}, {"pitch": 62, "tick": 20640, "length": 132, "velocity": 80}, {"pitch": 62, "tick": 20772, "length": 108, "velocity": 64}, {"pitch": 66, "tick": 20880, "length": 132, "velocity": 80}, {"pitch": 66, "tick": 21012, "length": 108, "velocity": 64}, {"pitch": 62, "tick": 21120, "length": 132, "velocity": 80}, {"pitch": 62, "tick": 21252, "length": 108, "velocity": 64}, {"pitch": 66, "tick": 21360, "length": 132, "velocity": 80}, {"pitch": 66, "tick": 21492, "length": 108, "velocity": 64}, {"pitch": 62, "tick": 21600, "length": 132, "velocity": 80}, {"pitch": 62, "tick": 21732, "length": 108, "velocity": 64}, {"pitch": 66, "tick": 21840, "length": 132, "velocity": 80}, {"pitch": 66, "tick": 21972, "length": 108, "velocity": 64}, {"pitch": 62, "tick": 22080, "length": 132, "velocity": 80}, {"pitch": 62, "tick": 22212, "length": 108, "velocity": 64}, {"pitch": 66, "tick": 22320, "length": 132, "velocity": 80}, {"pitch": 66, "tick": 22452, "length": 108, "velocity": 64}, {"pitch": 62, "tick": 22560, "length": 132, "velocity": 80}, {"pitch": 62, "tick": 22692, "length": 108, "velocity": 64}, {"pitch": 66, "tick": 22800, "length": 132, "velocity": 80}, {"pitch": 66, "tick": 22932, "length": 108, "velocity": 64}, {"pitch": 62, "tick": 23040, "length": 132, "velocity": 80}, {"pitch": 62, "tick": 23172, "length": 108, "velocity": 64}, {"pitch": 66, "tick": 23280, "length": 132, "velocity": 80}, {"pitch": 66, "tick": 23412, "length": 108, "velocity": 64}, {"pitch": 62, "tick": 23520, "length": 132, "velocity": 80}, {"pitch": 62, "tick": 23652, "length": 108, "velocity": 64}, {"pitch": 66, "tick": 23760, "length": 132, "velocity": 80}, {"pitch": 66, "tick": 23892, "length": 108, "velocity": 64}, {"pitch": 62, "tick": 24000, "length": 132, "velocity": 80}, {"pitch": 62, "tick": 24132, "length": 108, "velocity": 64}, {"pitch": 66, "tick": 24240, "length": 132, "velocity": 80}, {"pitch": 66, "tick": 24372, "length": 108, "velocity": 64}, {"pitch": 62, "tick": 24480, "length": 132, "velocity": 80}, {"pitch": 62, "tick": 24612, "length": 108, "velocity": 64}, {"pitch": 66, "tick": 24720, "length": 132, "velocity": 80}, {"pitch": 66, "tick": 24852, "length": 108, "velocity": 64}, {"pitch": 62, "tick": 24960, "length": 132, "velocity": 80}, {"pitch": 62, "tick": 25092, "length": 108, "velocity": 64}, {"pitch": 66, "tick": 25200, "length": 132, "velocity": 80}, {"pitch": 66, "tick": 25332, "length": 108, "velocity": 64}, {"pitch": 62, "tick": 25440, "length": 132, "velocity": 80}, {"pitch": 62, "tick": 25572, "length": 108, "velocity": 64}, {"pitch": 66, "tick": 25680, "length": 132, "velocity": 80}, {"pitch": 66, "tick": 25812, "length": 108, "velocity": 64}, {"pitch": 62, "tick": 25920, "length": 132, "velocity": 80}, {"pitch": 62, "tick": 26052, "length": 108, "velocity": 64}, {"pitch": 66, "tick": 26160, "length": 132, "velocity": 80}, {"pitch": 66, "tick": 26292, "length": 108, "velocity": 64}, {"pitch": 62, "tick": 26400, "length": 132, "velocity": 80}, {"pitch": 62, "tick": 26532, "length": 108, "velocity": 64}, {"pitch": 66, "tick": 26640, "length": 132, "velocity": 80}, {"pitch": 66, "tick": 26772, "length": 108, "velocity": 64}, {"pitch": 62, "tick": 26880, "length": 132, "velocity": 80}, {"pitch": 62, "tick": 27012, "length": 108, "velocity": 64}, {"pitch": 66, "tick": 27120, "length": 132, "velocity": 80}, {"pitch": 66, "tick": 27252, "length": 108, "velocity": 64}, {"pitch": 62, "tick": 27360, "length": 132, "velocity": 80}, {"pitch": 62, "tick": 27492, "length": 108, "velocity": 64}, {"pitch": 66, "tick": 27600, "length": 132, "velocity": 80}, {"pitch": 66, "tick": 27732, "length": 108, "velocity": 64}, {"pitch": 62, "tick": 27840, "length": 132, "velocity": 80}, {"pitch": 62, "tick": 27972, "length": 108, "velocity": 64}, {"pitch": 66, "tick": 28080, "length": 132, "velocity": 80}, {"pitch": 66, "tick": 28212, "length": 108, "velocity": 64}, {"pitch": 62, "tick": 28320, "length": 132, "velocity": 80}, {"pitch": 62, "tick": 28452, "length": 108, "velocity": 64}, {"pitch": 66, "tick": 28560, "length": 132, "velocity": 80}, {"pitch": 66, "tick": 28692, "length": 108, "velocity": 64}, {"pitch": 62, "tick": 28800, "length": 132, "velocity": 80}, {"pitch": 62, "tick": 28932, "length": 108, "velocity": 64}, {"pitch": 66, "tick": 29040, "length": 132, "velocity": 80}, {"pitch": 66, "tick": 29172, "length": 108, "velocity": 64}, {"pitch": 62, "tick": 29280, "length": 132, "velocity": 80}, {"pitch": 62, "tick": 29412, "length": 108, "velocity": 64}, {"pitch": 66, "tick": 29520, "length": 132, "velocity": 80}, {"pitch": 66, "tick": 29652, "length": 108, "velocity": 64}, {"pitch": 62, "tick": 29760, "length": 132, "velocity": 80}, {"pitch": 62, "tick": 29892, "length": 108, "velocity": 64}, {"pitch": 66, "tick": 30000, "length": 132, "velocity": 80}, {"pitch": 66, "tick": 30132, "length": 108, "velocity": 64}, {"pitch": 62, "tick": 30240, "length": 132, "velocity": 80}, {"pitch": 62, "tick": 30372, "length": 108, "velocity": 64}, {"pitch": 66, "tick": 30480, "length": 132, "velocity": 80}, {"pitch": 66, "tick": 30612, "length": 108, "velocity": 64}, {"pitch": 62, "tick": 30720, "length": 132, "velocity": 80}, {"pitch": 62, "tick": 30852, "length": 108, "velocity": 64}, {"pitch": 66, "tick": 30960, "length": 132, "velocity": 80}, {"pitch": 66, "tick": 31092, "length": 108, "velocity": 64}, {"pitch": 62, "tick": 31200, "length": 132, "velocity": 80}, {"pitch": 62, "tick": 31332, "length": 108, "velocity": 64}, {"pitch": 66, "tick": 31440, "length": 132, "velocity": 80}, {"pitch": 66, "tick": 31572, "length": 108, "velocity": 64}, {"pitch": 62, "tick": 31680, "length": 132, "velocity": 80}, {"pitch": 62, "tick": 31812, "length": 108, "velocity": 64}, {"pitch": 66, "tick": 31920, "length": 132, "velocity": 80}, {"pitch": 66, "tick": 32052, "length": 108, "velocity": 64}, {"pitch": 62, "tick": 32160, "length": 132, "velocity": 80}, {"pitch": 62, "tick": 32292, "length": 108, "velocity": 64}, {"pitch": 66, "tick": 32400, "length": 132, "velocity": 80}, {"pitch": 66, "tick": 32532, "length": 108, "velocity": 64}, {"pitch": 62, "tick": 32640, "length": 132, "velocity": 80}, {"pitch": 62, "tick": 32772, "length": 108, "velocity": 64}, {"pitch": 66, "tick": 32880, "length": 132, "velocity": 80}, {"pitch": 66, "tick": 33012, "length": 108, "velocity": 64}, {"pitch": 62, "tick": 33120, "length": 132, "velocity": 80}, {"pitch": 62, "tick": 33252, "length": 108, "velocity": 64}, {"pitch": 66, "tick": 33360, "length": 132, "velocity": 80}, {"pitch": 66, "tick": 33492, "length": 108, "velocity": 64}, {"pitch": 62, "tick": 33600, "length": 132, "velocity": 80}, {"pitch": 62, "tick": 33732, "length": 108, "velocity": 64}, {"pitch": 66, "tick": 33840, "length": 132, "velocity": 80}, {"pitch": 66, "tick": 33972, "length": 108, "velocity": 64}, {"pitch": 62, "tick": 34080, "length": 132, "velocity": 80}, {"pitch": 62, "tick": 34212, "length": 108, "velocity": 64}, {"pitch": 66, "tick": 34320, "length": 132, "velocity": 80}, {"pitch": 66, "tick": 34452, "length": 108, "velocity": 64}, {"pitch": 62, "tick": 34560, "length": 132, "velocity": 80}, {"pitch": 62, "tick": 34692, "length": 108, "velocity": 64}, {"pitch": 66, "tick": 34800, "length": 132, "velocity": 80}, {"pitch": 66, "tick": 34932, "length": 108, "velocity": 64}, {"pitch": 62, "tick": 35040, "length": 132, "velocity": 80}, {"pitch": 62, "tick": 35172, "length": 108, "velocity": 64}, {"pitch": 66, "tick": 35280, "length": 132, "velocity": 80}, {"pitch": 66, "tick": 35412, "length": 108, "velocity": 64}, {"pitch": 62, "tick": 35520, "length": 132, "velocity": 80}, {"pitch": 62, "tick": 35652, "length": 108, "velocity": 64}, {"pitch": 66, "tick": 35760, "length": 132, "velocity": 80}, {"pitch": 66, "tick": 35892, "length": 108, "velocity": 64}, {"pitch": 62, "tick": 36000, "length": 132, "velocity": 80}, {"pitch": 62, "tick": 36132, "length": 108, "velocity": 64}, {"pitch": 66, "tick": 36240, "length": 132, "velocity": 80}, {"pitch": 66, "tick": 36372, "length": 108, "velocity": 64}, {"pitch": 62, "tick": 36480, "length": 132, "velocity": 80}, {"pitch": 62, "tick": 36612, "length": 108, "velocity": 64}, {"pitch": 66, "tick": 36720, "length": 132, "velocity": 80}, {"pitch": 66, "tick": 36852, "length": 108, "velocity": 64}, {"pitch": 62, "tick": 36960, "length": 132, "velocity": 80}, {"pitch": 62, "tick": 37092, "length": 108, "velocity": 64}, {"pitch": 66, "tick": 37200, "length": 132, "velocity": 80}, {"pitch": 66, "tick": 37332, "length": 108, "velocity": 64}, {"pitch": 62, "tick": 37440, "length": 132, "velocity": 80}, {"pitch": 62, "tick": 37572, "length": 108, "velocity": 64}, {"pitch": 66, "tick": 37680, "length": 132, "velocity": 80}, {"pitch": 66, "tick": 37812, "length": 108, "velocity": 64}, {"pitch": 62, "tick": 37920, "length": 132, "velocity": 80}, {"pitch": 62, "tick": 38052, "length": 108, "velocity": 64}, {"pitch": 66, "tick": 38160, "length": 132, "velocity": 80}, {"pitch": 66, "tick": 38292, "length": 108, "velocity": 64}, {"pitch": 62, "tick": 38400, "length": 132, "velocity": 80}, {"pitch": 62, "tick": 38532, "length": 108, "velocity": 64}, {"pitch": 66, "tick": 38640, "length": 132, "velocity": 80}, {"pitch": 66, "tick": 38772, "length": 108, "velocity": 64}, {"pitch": 62, "tick": 38880, "length": 132, "velocity": 80}, {"pitch": 62, "tick": 39012, "length": 108, "velocity": 64}, {"pitch": 66, "tick": 39120, "length": 132, "velocity": 80}, {"pitch": 66, "tick": 39252, "length": 108, "velocity": 64}, {"pitch": 62, "tick": 39360, "length": 132, "velocity": 80}, {"pitch": 62, "tick": 39492, "length": 108, "velocity": 64}, {"pitch": 66, "tick": 39600, "length": 132, "velocity": 80}, {"pitch": 66, "tick": 39732, "length": 108, "velocity": 64}, {"pitch": 62, "tick": 39840, "length": 132, "velocity": 80}, {"pitch": 62, "tick": 39972, "length": 108, "velocity": 64}, {"pitch": 66, "tick": 40080, "length": 132, "velocity": 80}, {"pitch": 66, "tick": 40212, "length": 108, "velocity": 64}, {"pitch": 62, "tick": 40320, "length": 132, "velocity": 80}, {"pitch": 62, "tick": 40452, "length": 108, "velocity": 64}, {"pitch": 66, "tick": 40560, "length": 132, "velocity": 80}, {"pitch": 66, "tick": 40692, "length": 108, "velocity": 64}, {"pitch": 62, "tick": 40800, "length": 132, "velocity": 80}, {"pitch": 62, "tick": 40932, "length": 108, "velocity": 64}, {"pitch": 66, "tick": 41040, "length": 132, "velocity": 80}, {"pitch": 66, "tick": 41172, "length": 108, "velocity": 64}, {"pitch": 62, "tick": 41280, "length": 132, "velocity": 80}, {"pitch": 62, "tick": 41412, "length": 108, "velocity": 64}, {"pitch": 66, "tick": 41520, "length": 132, "velocity": 80}, {"pitch": 66, "tick": 41652, "length": 108, "velocity": 64}, {"pitch": 62, "tick": 41760, "length": 132, "velocity": 80}, {"pitch": 62, "tick": 41892, "length": 108, "velocity": 64}, {"pitch": 66, "tick": 42000, "length": 132, "velocity": 80}, {"pitch": 66, "tick": 42132, "length": 108, "velocity": 64}, {"pitch": 62, "tick": 42240, "length": 132, "velocity": 80}, {"pitch": 62, "tick": 42372, "length": 108, "velocity": 64}, {"pitch": 66, "tick": 42480, "length": 132, "velocity": 80}, {"pitch": 66, "tick": 42612, "length": 108, "velocity": 64}, {"pitch": 62, "tick": 42720, "length": 132, "velocity": 80}, {"pitch": 62, "tick": 42852, "length": 108, "velocity": 64}, {"pitch": 66, "tick": 42960, "length": 132, "velocity": 80}, {"pitch": 66, "tick": 43092, "length": 108, "velocity": 64}, {"pitch": 62, "tick": 43200, "length": 132, "velocity": 80}, {"pitch": 62, "tick": 43332, "length": 108, "velocity": 64}, {"pitch": 66, "tick": 43440, "length": 132, "velocity": 80}, {"pitch": 66, "tick": 43572, "length": 108, "velocity": 64}, {"pitch": 62, "tick": 43680, "length": 132, "velocity": 80}, {"pitch": 62, "tick": 43812, "length": 108, "velocity": 64}, {"pitch": 66, "tick": 43920, "length": 132, "velocity": 80}, {"pitch": 66, "tick": 44052, "length": 108, "velocity": 64}, {"pitch": 62, "tick": 44160, "length": 132, "velocity": 80}, {"pitch": 62, "tick": 44292, "length": 108, "velocity": 64}, {"pitch": 66, "tick": 44400, "length": 132, "velocity": 80}, {"pitch": 66, "tick": 44532, "length": 108, "velocity": 64}, {"pitch": 62, "tick": 44640, "length": 132, "velocity": 80}, {"pitch": 62, "tick": 44772, "length": 108, "velocity": 64}, {"pitch": 66, "tick": 44880, "length": 132, "velocity": 80}, {"pitch": 66, "tick": 45012, "length": 108, "velocity": 64}, {"pitch": 62, "tick": 45120, "length": 132, "velocity": 80}, {"pitch": 62, "tick": 45252, "length": 108, "velocity": 64}, {"pitch": 66, "tick": 45360, "length": 132, "velocity": 80}, {"pitch": 66, "tick": 45492, "length": 108, "velocity": 64}, {"pitch": 62, "tick": 45600, "length": 132, "velocity": 80}, {"pitch": 62, "tick": 45732, "length": 108, "velocity": 64}, {"pitch": 66, "tick": 45840, "length": 132, "velocity": 80}, {"pitch": 66, "tick": 45972, "length": 108, "velocity": 64}, {"pitch": 62, "tick": 46080, "length": 132, "velocity": 80}, {"pitch": 62, "tick": 46212, "length": 108, "velocity": 64}, {"pitch": 66, "tick": 46320, "length": 132, "velocity": 80}, {"pitch": 66, "tick": 46452, "length": 108, "velocity": 64}, {"pitch": 62, "tick": 46560, "length": 132, "velocity": 80}, {"pitch": 62, "tick": 46692, "length": 108, "velocity": 64}, {"pitch": 66, "tick": 46800, "length": 132, "velocity": 80}, {"pitch": 66, "tick": 46932, "length": 108, "velocity": 64}, {"pitch": 62, "tick": 47040, "length": 132, "velocity": 80}, {"pitch": 62, "tick": 47172, "length": 108, "velocity": 64}, {"pitch": 66, "tick": 47280, "length": 132, "velocity": 80}, {"pitch": 66, "tick": 47412, "length": 108, "velocity": 64}, {"pitch": 62, "tick": 47520, "length": 132, "velocity": 80}, {"pitch": 62, "tick": 47652, "length": 108, "velocity": 64}, {"pitch": 66, "tick": 47760, "length": 132, "velocity": 80}, {"pitch": 66, "tick": 47892, "length": 108, "velocity": 64}, {"pitch": 62, "tick": 48000, "length": 132, "velocity": 80}, {"pitch": 62, "tick": 48132, "length": 108, "velocity": 64}, {"pitch": 66, "tick": 48240, "length": 132, "velocity": 80}, {"pitch": 66, "tick": 48372, "length": 108, "velocity": 64}, {"pitch": 62, "tick": 48480, "length": 132, "velocity": 80}, {"pitch": 62, "tick": 48612, "length": 108, "velocity": 64}, {"pitch": 66, "tick": 48720, "length": 132, "velocity": 80}, {"pitch": 66, "tick": 48852, "length": 108, "velocity": 64}, {"pitch": 62, "tick": 48960, "length": 132, "velocity": 80}, {"pitch": 62, "tick": 49092, "length": 108, "velocity": 64}, {"pitch": 66, "tick": 49200, "length": 132, "velocity": 80}, {"pitch": 66, "tick": 49332, "length": 108, "velocity": 64}, {"pitch": 62, "tick": 49440, "length": 132, "velocity": 80}, {"pitch": 62, "tick": 49572, "length": 108, "velocity": 64}, {"pitch": 66, "tick": 49680, "length": 132, "velocity": 80}, {"pitch": 66, "tick": 49812, "length": 108, "velocity": 64}, {"pitch": 62, "tick": 49920, "length": 132, "velocity": 80}, {"pitch": 62, "tick": 50052, "length": 108, "velocity": 64}, {"pitch": 66, "tick": 50160, "length": 132, "velocity": 80}, {"pitch": 66, "tick": 50292, "length": 108, "velocity": 64}, {"pitch": 62, "tick": 50400, "length": 132, "velocity": 80}, {"pitch": 62, "tick": 50532, "length": 108, "velocity": 64}, {"pitch": 66, "tick": 50640, "length": 132, "velocity": 80}, {"pitch": 66, "tick": 50772, "length": 108, "velocity": 64}, {"pitch": 62, "tick": 50880, "length": 132, "velocity": 80}, {"pitch": 62, "tick": 51012, "length": 108, "velocity": 64}, {"pitch": 66, "tick": 51120, "length": 132, "velocity": 80}, {"pitch": 66, "tick": 51252, "length": 108, "velocity": 64}, {"pitch": 62, "tick": 51360, "length": 132, "velocity": 80}, {"pitch": 62, "tick": 51492, "length": 108, "velocity": 64}, {"pitch": 66, "tick": 51600, "length": 132, "velocity": 80}, {"pitch": 66, "tick": 51732, "length": 108, "velocity": 64}, {"pitch": 62, "tick": 51840, "length": 132, "velocity": 80}, {"pitch": 62, "tick": 51972, "length": 108, "velocity": 64}, {"pitch": 66, "tick": 52080, "length": 132, "velocity": 80}, {"pitch": 66, "tick": 52212, "length": 108, "velocity": 64}, {"pitch": 62, "tick": 52320, "length": 132, "velocity": 80}, {"pitch": 62, "tick": 52452, "length": 108, "velocity": 64}, {"pitch": 66, "tick": 52560, "length": 132, "velocity": 80}, {"pitch": 66, "tick": 52692, "length": 108, "velocity": 64}, {"pitch": 62, "tick": 52800, "length": 132, "velocity": 80}, {"pitch": 62, "tick": 52932, "length": 108, "velocity": 64}, {"pitch": 66, "tick": 53040, "length": 132, "velocity": 80}, {"pitch": 66, "tick": 53172, "length": 108, "velocity": 64}, {"pitch": 62, "tick": 53280, "length": 132, "velocity": 80}, {"pitch": 62, "tick": 53412, "length": 108, "velocity": 64}, {"pitch": 66, "tick": 53520, "length": 132, "velocity": 80}, {"pitch": 66, "tick": 53652, "length": 108, "velocity": 64}, {"pitch": 62, "tick": 53760, "length": 132, "velocity": 80}, {"pitch": 62, "tick": 53892, "length": 108, "velocity": 64}, {"pitch": 66, "tick": 54000, "length": 132, "velocity": 80}, {"pitch": 66, "tick": 54132, "length": 108, "velocity": 64}, {"pitch": 62, "tick": 54240, "length": 132, "velocity": 80}, {"pitch": 62, "tick": 54372, "length": 108, "velocity": 64}, {"pitch": 66, "tick": 54480, "length": 132, "velocity": 80}, {"pitch": 66, "tick": 54612, "length": 108, "velocity": 64}, {"pitch": 62, "tick": 54720, "length": 132, "velocity": 80}, {"pitch": 62, "tick": 54852, "length": 108, "velocity": 64}, {"pitch": 66, "tick": 54960, "length": 132, "velocity": 80}, {"pitch": 66, "tick": 55092, "length": 108, "velocity": 64}, {"pitch": 62, "tick": 55200, "length": 132, "velocity": 80}, {"pitch": 62, "tick": 55332, "length": 108, "velocity": 64}, {"pitch": 66, "tick": 55440, "length": 132, "velocity": 80}, {"pitch": 66, "tick": 55572, "length": 108, "velocity": 64}, {"pitch": 62, "tick": 55680, "length": 132, "velocity": 80}, {"pitch": 62, "tick": 55812, "length": 108, "velocity": 64}, {"pitch": 66, "tick": 55920, "length": 132, "velocity": 80}, {"pitch": 66, "tick": 56052, "length": 108, "velocity": 64}, {"pitch": 62, "tick": 56160, "length": 132, "velocity": 80}, {"pitch": 62, "tick": 56292, "length": 108, "velocity": 64}, {"pitch": 66, "tick": 56400, "length": 132, "velocity": 80}, {"pitch": 66, "tick": 56532, "length": 108, "velocity": 64}, {"pitch": 62, "tick": 56640, "length": 132, "velocity": 80}, {"pitch": 62, "tick": 56772, "length": 108, "velocity": 64}, {"pitch": 66, "tick": 56880, "length": 132, "velocity": 80}, {"pitch": 66, "tick": 57012, "length": 108, "velocity": 64}, {"pitch": 62, "tick": 57120, "length": 132, "velocity": 80}, {"pitch": 62, "tick": 57252, "length": 108, "velocity": 64}, {"pitch": 66, "tick": 57360, "length": 132, "velocity": 80}, {"pitch": 66, "tick": 57492, "length": 108, "velocity": 64}, {"pitch": 62, "tick": 57600, "length": 132, "velocity": 80}, {"pitch": 62, "tick": 57732, "length": 108, "velocity": 64}, {"pitch": 66, "tick": 57840, "length": 132, "velocity": 80}, {"pitch": 66, "tick": 57972, "length": 108, "velocity": 64}, {"pitch": 62, "tick": 58080, "length": 132, "velocity": 80}, {"pitch": 62, "tick": 58212, "length": 108, "velocity": 64}, {"pitch": 66, "tick": 58320, "length": 132, "velocity": 80}, {"pitch": 66, "tick": 58452, "length": 108, "velocity": 64}, {"pitch": 62, "tick": 58560, "length": 132, "velocity": 80}, {"pitch": 62, "tick": 58692, "length": 108, "velocity": 64}, {"pitch": 66, "tick": 58800, "length": 132, "velocity": 80}, {"pitch": 66, "tick": 58932, "length": 108, "velocity": 64}, {"pitch": 62, "tick": 59040, "length": 132, "velocity": 80}, {"pitch": 62, "tick": 59172, "length": 108, "velocity": 64}, {"pitch": 66, "tick": 59280, "length": 132, "velocity": 80}, {"pitch": 66, "tick": 59412, "length": 108, "velocity": 64}, {"pitch": 62, "tick": 59520, "length": 132, "velocity": 80}, {"pitch": 62, "tick": 59652, "length": 108, "velocity": 64}, {"pitch": 66, "tick": 59760, "length": 132, "velocity": 80}, {"pitch": 66, "tick": 59892, "length": 108, "velocity": 64}, {"pitch": 62, "tick": 60000, "length": 132, "velocity": 80}, {"pitch": 62, "tick": 60132, "length": 108, "velocity": 64}, {"pitch": 66, "tick": 60240, "length": 132, "velocity": 80}, {"pitch": 66, "tick": 60372, "length": 108, "velocity": 64}, {"pitch": 62, "tick": 60480, "length": 132, "velocity": 80}, {"pitch": 62, "tick": 60612, "length": 108, "velocity": 64}, {"pitch": 66, "tick": 60720, "length": 132, "velocity": 80}, {"pitch": 66, "tick": 60852, "length": 108, "velocity": 64}, {"pitch": 62, "tick": 60960, "length": 132, "velocity": 80}, {"pitch": 62, "tick": 61092, "length": 108, "velocity": 64}, {"pitch": 66, "tick": 61200, "length": 132, "velocity": 80}, {"pitch": 66, "tick": 61332, "length": 108, "velocity": 64}, {"pitch": 62, "tick": 61440, "length": 132, "velocity": 80}, {"pitch": 62, "tick": 61572, "length": 108, "velocity": 64}, {"pitch": 66, "tick": 61680, "length": 132, "velocity": 80}, {"pitch": 66, "tick": 61812, "length": 108, "velocity": 64}, {"pitch": 62, "tick": 61920, "length": 132, "velocity": 80}, {"pitch": 62, "tick": 62052, "length": 108, "velocity": 64}, {"pitch": 66, "tick": 62160, "length": 132, "velocity": 80}, {"pitch": 66, "tick": 62292, "length": 108, "velocity": 64}, {"pitch": 62, "tick": 62400, "length": 132, "velocity": 80}, {"pitch": 62, "tick": 62532, "length": 108, "velocity": 64}, {"pitch": 66, "tick": 62640, "length": 132, "velocity": 80}, {"pitch": 66, "tick": 62772, "length": 108, "velocity": 64}, {"pitch": 62, "tick": 62880, "length": 132, "velocity": 80}, {"pitch": 62, "tick": 63012, "length": 108, "velocity": 64}, {"pitch": 66, "tick": 63120, "length": 132, "velocity": 80}, {"pitch": 66, "tick": 63252, "length": 108, "velocity": 64}, {"pitch": 62, "tick": 63360, "length": 132, "velocity": 80}, {"pitch": 62, "tick": 63492, "length": 108, "velocity": 64}, {"pitch": 66, "tick": 63600, "length": 132, "velocity": 80}, {"pitch": 66, "tick": 63732, "length": 108, "velocity": 64}, {"pitch": 62, "tick": 63840, "length": 132, "velocity": 80}, {"pitch": 62, "tick": 63972, "length": 108, "velocity": 64}, {"pitch": 66, "tick": 64080, "length": 132, "velocity": 80}, {"pitch": 66, "tick": 64212, "length": 108, "velocity": 64}, {"pitch": 62, "tick": 64320, "length": 132, "velocity": 80}, {"pitch": 62, "tick": 64452, "length": 108, "velocity": 64}, {"pitch": 66, "tick": 64560, "length": 132, "velocity": 80}, {"pitch": 66, "tick": 64692, "length": 108, "velocity": 64}, {"pitch": 62, "tick": 64800, "length": 132, "velocity": 80}, {"pitch": 62, "tick": 64932, "length": 108, "velocity": 64}, {"pitch": 66, "tick": 65040, "length": 132, "velocity": 80}, {"pitch": 66, "tick": 65172, "length": 108, "velocity": 64}, {"pitch": 62, "tick": 65280, "length": 132, "velocity": 80}, {"pitch": 62, "tick": 65412, "length": 108, "velocity": 64}, {"pitch": 66, "tick": 65520, "length": 132, "velocity": 80}, {"pitch": 66, "tick": 65652, "length": 108, "velocity": 64}, {"pitch": 62, "tick": 65760, "length": 132, "velocity": 80}, {"pitch": 62, "tick": 65892, "length": 108, "velocity": 64}, {"pitch": 66, "tick": 66000, "length": 132, "velocity": 80}, {"pitch": 66, "tick": 66132, "length": 108, "velocity": 64}, {"pitch": 62, "tick": 66240, "length": 132, "velocity": 80}, {"pitch": 62, "tick": 66372, "length": 108, "velocity": 64}, {"pitch": 66, "tick": 66480, "length": 132, "velocity": 80}, {"pitch": 66, "tick": 66612, "length": 108, "velocity": 64}, {"pitch": 62, "tick": 66720, "length": 132, "velocity": 80}, {"pitch": 62, "tick": 66852, "length": 108, "velocity": 64}, {"pitch": 66, "tick": 66960, "length": 132, "velocity": 80}, {"pitch": 66, "tick": 67092, "length": 108, "velocity": 64}, {"pitch": 62, "tick": 67200, "length": 132, "velocity": 80}, {"pitch": 62, "tick": 67332, "length": 108, "velocity": 64}, {"pitch": 66, "tick": 67440, "length": 132, "velocity": 80}, {"pitch": 66, "tick": 67572, "length": 108, "velocity": 64}, {"pitch": 62, "tick": 67680, "length": 132, "velocity": 80}, {"pitch": 62, "tick": 67812, "length": 108, "velocity": 64}, {"pitch": 66, "tick": 67920, "length": 132, "velocity": 80}, {"pitch": 66, "tick": 68052, "length": 108, "velocity": 64}, {"pitch": 62, "tick": 68160, "length": 132, "velocity": 80}, {"pitch": 62, "tick": 68292, "length": 108, "velocity": 64}, {"pitch": 66, "tick": 68400, "length": 132, "velocity": 80}, {"pitch": 66, "tick": 68532, "length": 108, "velocity": 64}, {"pitch": 62, "tick": 68640, "length": 132, "velocity": 80}, {"pitch": 62, "tick": 68772, "length": 108, "velocity": 64}, {"pitch": 66, "tick": 68880, "length": 132, "velocity": 80}, {"pitch": 66, "tick": 69012, "length": 108, "velocity": 64}, {"pitch": 62, "tick": 69120, "length": 132, "velocity": 80}, {"pitch": 62, "tick": 69252, "length": 108, "velocity": 64}, {"pitch": 66, "tick": 69360, "length": 132, "velocity": 80}, {"pitch": 66, "tick": 69492, "length": 108, "velocity": 64}, {"pitch": 62, "tick": 69600, "length": 132, "velocity": 80}, {"pitch": 62, "tick": 69732, "length": 108, "velocity": 64}, {"pitch": 66, "tick": 69840, "length": 132, "velocity": 80}, {"pitch": 66, "tick": 69972, "length": 108, "velocity": 64}, {"pitch": 62, "tick": 70080, "length": 132, "velocity": 80}, {"pitch": 62, "tick": 70212, "length": 108, "velocity": 64}, {"pitch": 66, "tick": 70320, "length": 132, "velocity": 80}, {"pitch": 66, "tick": 70452, "length": 108, "velocity": 64}, {"pitch": 62, "tick": 70560, "length": 132, "velocity": 80}, {"pitch": 62, "tick": 70692, "length": 108, "velocity": 64}, {"pitch": 66, "tick": 70800, "length": 132, "velocity": 80}, {"pitch": 66, "tick": 70932, "length": 108, "velocity": 64}, {"pitch": 62, "tick": 71040, "length": 132, "velocity": 80}, {"pitch": 62, "tick": 71172, "length": 108, "velocity": 64}, {"pitch": 66, "tick": 71280, "length": 132, "velocity": 80}, {"pitch": 66, "tick": 71412, "length": 108, "velocity": 64}, {"pitch": 62, "tick": 71520, "length": 132, "velocity": 80}, {"pitch": 62, "tick": 71652, "length": 108, "velocity": 64}, {"pitch": 66, "tick": 71760, "length": 132, "velocity": 80}, {"pitch": 66, "tick": 71892, "length": 108, "velocity": 64}, {"pitch": 62, "tick": 72000, "length": 132, "velocity": 80}, {"pitch": 62, "tick": 72132, "length": 108, "velocity": 64}, {"pitch": 66, "tick": 72240, "length": 132, "velocity": 80}, {"pitch": 66, "tick": 72372, "length": 108, "velocity": 64}, {"pitch": 62, "tick": 72480, "length": 132, "velocity": 80}, {"pitch": 62, "tick": 72612, "length": 108, "velocity": 64}, {"pitch": 66, "tick": 72720, "length": 132, "velocity": 80}, {"pitch": 66, "tick": 72852, "length": 108, "velocity": 64}, {"pitch": 62, "tick": 72960, "length": 132, "velocity": 80}, {"pitch": 62, "tick": 73092, "length": 108, "velocity": 64}, {"pitch": 66, "tick": 73200, "length": 132, "velocity": 80}, {"pitch": 66, "tick": 73332, "length": 108, "velocity": 64}, {"pitch": 62, "tick": 73440, "length": 132, "velocity": 80}, {"pitch": 62, "tick": 73572, "length": 108, "velocity": 64}, {"pitch": 66, "tick": 73680, "length": 132, "velocity": 80}, {"pitch": 66, "tick": 73812, "length": 108, "velocity": 64}, {"pitch": 62, "tick": 73920, "length": 132, "velocity": 80}, {"pitch": 62, "tick": 74052, "length": 108, "velocity": 64}, {"pitch": 66, "tick": 74160, "length": 132, "velocity": 80}, {"pitch": 66, "tick": 74292, "length": 108, "velocity": 64}, {"pitch": 62, "tick": 74400, "length": 132, "velocity": 80}, {"pitch": 62, "tick": 74532, "length": 108, "velocity": 64}, {"pitch": 66, "tick": 74640, "length": 132, "velocity": 80}, {"pitch": 66, "tick": 74772, "length": 108, "velocity": 64}, {"pitch": 62, "tick": 74880, "length": 132, "velocity": 80}, {"pitch": 62, "tick": 75012, "length": 108, "velocity": 64}, {"pitch": 66, "tick": 75120, "length": 132, "velocity": 80}, {"pitch": 66, "tick": 75252, "length": 108, "velocity": 64}, {"pitch": 62, "tick": 75360, "length": 132, "velocity": 80}, {"pitch": 62, "tick": 75492, "length": 108, "velocity": 64}, {"pitch": 66, "tick": 75600, "length": 132, "velocity": 80}, {"pitch": 66, "tick": 75732, "length": 108, "velocity": 64}, {"pitch": 62, "tick": 75840, "length": 132, "velocity": 80}, {"pitch": 62, "tick": 75972, "length": 108, "velocity": 64}, {"pitch": 66, "tick": 76080, "length": 132, "velocity": 80}, {"pitch": 66, "tick": 76212, "length": 108, "velocity": 64}, {"pitch": 62, "tick": 76320, "length": 132, "velocity": 80}, {"pitch": 62, "tick": 76452, "length": 108, "velocity": 64}, {"pitch": 66, "tick": 76560, "length": 132, "velocity": 80}, {"pitch": 66, "tick": 76692, "length": 108, "velocity": 64}, {"pitch": 62, "tick": 76800, "length": 132, "velocity": 80}, {"pitch": 62, "tick": 76932, "length": 108, "velocity": 64}, {"pitch": 66, "tick": 77040, "length": 132, "velocity": 80}, {"pitch": 66, "tick": 77172, "length": 108, "velocity": 64}, {"pitch": 62, "tick": 77280, "length": 132, "velocity": 80}, {"pitch": 62, "tick": 77412, "length": 108, "velocity": 64}, {"pitch": 66, "tick": 77520, "length": 132, "velocity": 80}, {"pitch": 66, "tick": 77652, "length": 108, "velocity": 64}, {"pitch": 62, "tick": 77760, "length": 132, "velocity": 80}, {"pitch": 62, "tick": 77892, "length": 108, "velocity": 64}, {"pitch": 66, "tick": 78000, "length": 132, "velocity": 80}, {"pitch": 66, "tick": 78132, "length": 108, "velocity": 64}, {"pitch": 62, "tick": 78240, "length": 132, "velocity": 80}, {"pitch": 62, "tick": 78372, "length": 108, "velocity": 64}, {"pitch": 66, "tick": 78480, "length": 132, "velocity": 80}, {"pitch": 66, "tick": 78612, "length": 108, "velocity": 64}, {"pitch": 62, "tick": 78720, "length": 132, "velocity": 80}, {"pitch": 62, "tick": 78852, "length": 108, "velocity": 64}, {"pitch": 66, "tick": 78960, "length": 132, "velocity": 80}, {"pitch": 66, "tick": 79092, "length": 108, "velocity": 64}, {"pitch": 62, "tick": 79200, "length": 132, "velocity": 80}, {"pitch": 62, "tick": 79332, "length": 108, "velocity": 64}, {"pitch": 66, "tick": 79440, "length": 132, "velocity": 80}, {"pitch": 66, "tick": 79572, "length": 108, "velocity": 64}, {"pitch": 62, "tick": 79680, "length": 132, "velocity": 80}, {"pitch": 62, "tick": 79812, "length": 108, "velocity": 64}, {"pitch": 66, "tick": 79920, "length": 132, "velocity": 80}, {"pitch": 66, "tick": 80052, "length": 108, "velocity": 64}, {"pitch": 62, "tick": 80160, "length": 132, "velocity": 80}, {"pitch": 62, "tick": 80292, "length": 108, "velocity": 64}, {"pitch": 66, "tick": 80400, "length": 132, "velocity": 80}, {"pitch": 66, "tick": 80532, "length": 108, "velocity": 64}, {"pitch": 62, "tick": 80640, "length": 132, "velocity": 80}, {"pitch": 62, "tick": 80772, "length": 108, "velocity": 64}, {"pitch": 66, "tick": 80880, "length": 132, "velocity": 80}, {"pitch": 66, "tick": 81012, "length": 108, "velocity": 64}, {"pitch": 62, "tick": 81120, "length": 132, "velocity": 80}, {"pitch": 62, "tick": 81252, "length": 108, "velocity": 64}, {"pitch": 66, "tick": 81360, "length": 132, "velocity": 80}, {"pitch": 66, "tick": 81492, "length": 108, "velocity": 64}, {"pitch": 62, "tick": 81600, "length": 132, "velocity": 80}, {"pitch": 62, "tick": 81732, "length": 108, "velocity": 64}, {"pitch": 66, "tick": 81840, "length": 132, "velocity": 80}, {"pitch": 66, "tick": 81972, "length": 108, "velocity": 64}, {"pitch": 62, "tick": 82080, "length": 132, "velocity": 80}, {"pitch": 62, "tick": 82212, "length": 108, "velocity": 64}, {"pitch": 66, "tick": 82320, "length": 132, "velocity": 80}, {"pitch": 66, "tick": 82452, "length": 108, "velocity": 64}, {"pitch": 62, "tick": 82560, "length": 132, "velocity": 80}, {"pitch": 62, "tick": 82692, "length": 108, "velocity": 64}, {"pitch": 66, "tick": 82800, "length": 132, "velocity": 80}, {"pitch": 66, "tick": 82932, "length": 108, "velocity": 64}, {"pitch": 62, "tick": 83040, "length": 132, "velocity": 80}, {"pitch": 62, "tick": 83172, "length": 108, "velocity": 64}, {"pitch": 66, "tick": 83280, "length": 132, "velocity": 80}, {"pitch": 66, "tick": 83412, "length": 108, "velocity": 64}, {"pitch": 62, "tick": 83520, "length": 132, "velocity": 80}, {"pitch": 62, "tick": 83652, "length": 108, "velocity": 64}, {"pitch": 66, "tick": 83760, "length": 132, "velocity": 80}, {"pitch": 66, "tick": 83892, "length": 108, "velocity": 64}, {"pitch": 62, "tick": 84000, "length": 132, "velocity": 80}, {"pitch": 62, "tick": 84132, "length": 108, "velocity": 64}, {"pitch": 66, "tick": 84240, "length": 132, "velocity": 80}, {"pitch": 66, "tick": 84372, "length": 108, "velocity": 64}, {"pitch": 62, "tick": 84480, "length": 132, "velocity": 80}, {"pitch": 62, "tick": 84612, "length": 108, "velocity": 64}, {"pitch": 66, "tick": 84720, "length": 132, "velocity": 80}, {"pitch": 66, "tick": 84852, "length": 108, "velocity": 64}, {"pitch": 62, "tick": 84960, "length": 132, "velocity": 80}, {"pitch": 62, "tick": 85092, "length": 108, "velocity": 64}, {"pitch": 66, "tick": 85200, "length": 132, "velocity": 80}, {"pitch": 66, "tick": 85332, "length": 108, "velocity": 64}, {"pitch": 62, "tick": 85440, "length": 132, "velocity": 80}, {"pitch": 62, "tick": 85572, "length": 108, "velocity": 64}, {"pitch": 66, "tick": 85680, "length": 132, "velocity": 80}, {"pitch": 66, "tick": 85812, "length": 108, "velocity": 64}, {"pitch": 62, "tick": 85920, "length": 132, "velocity": 80}, {"pitch": 62, "tick": 86052, "length": 108, "velocity": 64}, {"pitch": 66, "tick": 86160, "length": 132, "velocity": 80}, {"pitch": 66, "tick": 86292, "length": 108, "velocity": 64}, {"pitch": 62, "tick": 86400, "length": 132, "velocity": 80}, {"pitch": 62, "tick": 86532, "length": 108, "velocity": 64}, {"pitch": 66, "tick": 86640, "length": 132, "velocity": 80}, {"pitch": 66, "tick": 86772, "length": 108, "velocity": 64}, {"pitch": 62, "tick": 86880, "length": 132, "velocity": 80}, {"pitch": 62, "tick": 87012, "length": 108, "velocity": 64}, {"pitch": 66, "tick": 87120, "length": 132, "velocity": 80}, {"pitch": 66, "tick": 87252, "length": 108, "velocity": 64}, {"pitch": 62, "tick": 87360, "length": 132, "velocity": 80}, {"pitch": 62, "tick": 87492, "length": 108, "velocity": 64}, {"pitch": 66, "tick": 87600, "length": 132, "velocity": 80}, {"pitch": 66, "tick": 87732, "length": 108, "velocity": 64}, {"pitch": 62, "tick": 87840, "length": 132, "velocity": 80}, {"pitch": 62, "tick": 87972, "length": 108, "velocity": 64}, {"pitch": 66, "tick": 88080, "length": 132, "velocity": 80}, {"pitch": 66, "tick": 88212, "length": 108, "velocity": 64}, {"pitch": 62, "tick": 88320, "length": 132, "velocity": 80}, {"pitch": 62, "tick": 88452, "length": 108, "velocity": 64}, {"pitch": 66, "tick": 88560, "length": 132, "velocity": 80}, {"pitch": 66, "tick": 88692, "length": 108, "velocity": 64}, {"pitch": 62, "tick": 88800, "length": 132, "velocity": 80}, {"pitch": 62, "tick": 88932, "length": 108, "velocity": 64}, {"pitch": 66, "tick": 89040, "length": 132, "velocity": 80}, {"pitch": 66, "tick": 89172, "length": 108, "velocity": 64}, {"pitch": 62, "tick": 89280, "length": 132, "velocity": 80}, {"pitch": 62, "tick": 89412, "length": 108, "velocity": 64}, {"pitch": 66, "tick": 89520, "length": 132, "velocity": 80}, {"pitch": 66, "tick": 89652, "length": 108, "velocity": 64}, {"pitch": 62, "tick": 89760, "length": 132, "velocity": 80}, {"pitch": 62, "tick": 89892, "length": 108, "velocity": 64}, {"pitch": 66, "tick": 90000, "length": 132, "velocity": 80}, {"pitch": 66, "tick": 90132, "length": 108, "velocity": 64}, {"pitch": 62, "tick": 90240, "length": 132, "velocity": 80}, {"pitch": 62, "tick": 90372, "length": 108, "velocity": 64}, {"pitch": 66, "tick": 90480, "length": 132, "velocity": 80}, {"pitch": 66, "tick": 90612, "length": 108, "velocity": 64}, {"pitch": 62, "tick": 90720, "length": 132, "velocity": 80}, {"pitch": 62, "tick": 90852, "length": 108, "velocity": 64}, {"pitch": 66, "tick": 90960, "length": 132, "velocity": 80}, {"pitch": 66, "tick": 91092, "length": 108, "velocity": 64}, {"pitch": 62, "tick": 91200, "length": 132, "velocity": 80}, {"pitch": 62, "tick": 91332, "length": 108, "velocity": 64}, {"pitch": 66, "tick": 91440, "length": 132, "velocity": 80}, {"pitch": 66, "tick": 91572, "length": 108, "velocity": 64}, {"pitch": 62, "tick": 91680, "length": 132, "velocity": 80}, {"pitch": 62, "tick": 91812, "length": 108, "velocity": 64}, {"pitch": 66, "tick": 91920, "length": 132, "velocity": 80}, {"pitch": 66, "tick": 92052, "length": 108, "velocity": 64}, {"pitch": 62, "tick": 92160, "length": 132, "velocity": 80}, {"pitch": 62, "tick": 92292, "length": 108, "velocity": 64}, {"pitch": 66, "tick": 92400, "length": 132, "velocity": 80}, {"pitch": 66, "tick": 92532, "length": 108, "velocity": 64}, {"pitch": 62, "tick": 92640, "length": 132, "velocity": 80}, {"pitch": 62, "tick": 92772, "length": 108, "velocity": 64}, {"pitch": 66, "tick": 92880, "length": 132, "velocity": 80}, {"pitch": 66, "tick": 93012, "length": 108, "velocity": 64}, {"pitch": 62, "tick": 93120, "length": 132, "velocity": 80}, {"pitch": 62, "tick": 93252, "length": 108, "velocity": 64}, {"pitch": 66, "tick": 93360, "length": 132, "velocity": 80}, {"pitch": 66, "tick": 93492, "length": 108, "velocity": 64}, {"pitch": 62, "tick": 93600, "length": 132, "velocity": 80}, {"pitch": 62, "tick": 93732, "length": 108, "velocity": 64}, {"pitch": 66, "tick": 93840, "length": 132, "velocity": 80}, {"pitch": 66, "tick": 93972, "length": 108, "velocity": 64}, {"pitch": 62, "tick": 94080, "length": 132, "velocity": 80}, {"pitch": 62, "tick": 94212, "length": 108, "velocity": 64}, {"pitch": 66, "tick": 94320, "length": 132, "velocity": 80}, {"pitch": 66, "tick": 94452, "length": 108, "velocity": 64}, {"pitch": 62, "tick": 94560, "length": 132, "velocity": 80}, {"pitch": 62, "tick": 94692, "length": 108, "velocity": 64}, {"pitch": 66, "tick": 94800, "length": 132, "velocity": 80}, {"pitch": 66, "tick": 94932, "length": 108, "velocity": 64}, {"pitch": 62, "tick": 95040, "length": 132, "velocity": 80}, {"pitch": 62, "tick": 95172, "length": 108, "velocity": 64}, {"pitch": 66, "tick": 95280, "length": 132, "velocity": 80}, {"pitch": 66, "tick": 95412, "length": 108, "velocity": 64}, {"pitch": 62, "tick": 95520, "length": 132, "velocity": 80}, {"pitch": 62, "tick": 95652, "length": 108, "velocity": 64}, {"pitch": 66, "tick": 95760, "length": 132, "velocity": 80}, {"pitch": 66, "tick": 95892, "length": 108, "velocity": 64}, {"pitch": 62, "tick": 96000, "length": 132, "velocity": 80}, {"pitch": 62, "tick": 96132, "length": 108, "velocity": 64}, {"pitch": 66, "tick": 96240, "length": 132, "velocity": 80}, {"pitch": 66, "tick": 96372, "length": 108, "velocity": 64}, {"pitch": 62, "tick": 96480, "length": 132, "velocity": 80}, {"pitch": 62, "tick": 96612, "length": 108, "velocity": 64}, {"pitch": 66, "tick": 96720, "length": 132, "velocity": 80}, {"pitch": 66, "tick": 96852, "length": 108, "velocity": 64}, {"pitch": 62, "tick": 96960, "length": 132, "velocity": 80}, {"pitch": 62, "tick": 97092, "length": 108, "velocity": 64}, {"pitch": 66, "tick": 97200, "length": 132, "velocity": 80}, {"pitch": 66, "tick": 97332, "length": 108, "velocity": 64}, {"pitch": 62, "tick": 97440, "length": 132, "velocity": 80}, {"pitch": 62, "tick": 97572, "length": 108, "velocity": 64}, {"pitch": 66, "tick": 97680, "length": 132, "velocity": 80}, {"pitch": 66, "tick": 97812, "length": 108, "velocity": 64}, {"pitch": 62, "tick": 97920, "length": 132, "velocity": 80}, {"pitch": 62, "tick": 98052, "length": 108, "velocity": 64}, {"pitch": 66, "tick": 98160, "length": 132, "velocity": 80}, {"pitch": 66, "tick": 98292, "length": 108, "velocity": 64}, {"pitch": 62, "tick": 98400, "length": 132, "velocity": 80}, {"pitch": 62, "tick": 98532, "length": 108, "velocity": 64}, {"pitch": 66, "tick": 98640, "length": 132, "velocity": 80}, {"pitch": 66, "tick": 98772, "length": 108, "velocity": 64}, {"pitch": 62, "tick": 98880, "length": 132, "velocity": 80}, {"pitch": 62, "tick": 99012, "length": 108, "velocity": 64}, {"pitch": 66, "tick": 99120, "length": 132, "velocity": 80}, {"pitch": 66, "tick": 99252, "length": 108, "velocity": 64}, {"pitch": 62, "tick": 99360, "length": 132, "velocity": 80}, {"pitch": 62, "tick": 99492, "length": 108, "velocity": 64}, {"pitch": 66, "tick": 99600, "length": 132, "velocity": 80}, {"pitch": 66, "tick": 99732, "length": 108, "velocity": 64}, {"pitch": 62, "tick": 99840, "length": 132, "velocity": 80}, {"pitch": 62, "tick": 99972, "length": 108, "velocity": 64}, {"pitch": 66, "tick": 100080, "length": 132, "velocity": 80}, {"pitch": 66, "tick": 100212, "length": 108, "velocity": 64}, {"pitch": 62, "tick": 100320, "length": 132, "velocity": 80}, {"pitch": 62, "tick": 100452, "length": 108, "velocity": 64}, {"pitch": 66, "tick": 100560, "length": 132, "velocity": 80}, {"pitch": 66, "tick": 100692, "length": 108, "velocity": 64}, {"pitch": 62, "tick": 100800, "length": 132, "velocity": 80}, {"pitch": 62, "tick": 100932, "length": 108, "velocity": 64}, {"pitch": 66, "tick": 101040, "length": 132, "velocity": 80}, {"pitch": 66, "tick": 101172, "length": 108, "velocity": 64}, {"pitch": 62, "tick": 101280, "length": 132, "velocity": 80}, {"pitch": 62, "tick": 101412, "length": 108, "velocity": 64}, {"pitch": 66, "tick": 101520, "length": 132, "velocity": 80}, {"pitch": 66, "tick": 101652, "length": 108, "velocity": 64}, {"pitch": 62, "tick": 101760, "length": 132, "velocity": 80}, {"pitch": 62, "tick": 101892, "length": 108, "velocity": 64}, {"pitch": 66, "tick": 102000, "length": 132, "velocity": 80}, {"pitch": 66, "tick": 102132, "length": 108, "velocity": 64}, {"pitch": 62, "tick": 102240, "length": 132, "velocity": 80}, {"pitch": 62, "tick": 102372, "length": 108, "velocity": 64}, {"pitch": 66, "tick": 102480, "length": 132, "velocity": 80}, {"pitch": 66, "tick": 102612, "length": 108, "velocity": 64}, {"pitch": 62, "tick": 102720, "length": 132, "velocity": 80}, {"pitch": 62, "tick": 102852, "length": 108, "velocity": 64}, {"pitch": 66, "tick": 102960, "length": 132, "velocity": 80}, {"pitch": 66, "tick": 103092, "length": 108, "velocity": 64}, {"pitch": 62, "tick": 103200, "length": 132, "velocity": 80}, {"pitch": 62, "tick": 103332, "length": 108, "velocity": 64}, {"pitch": 66, "tick": 103440, "length": 132, "velocity": 80}, {"pitch": 66, "tick": 103572, "length": 108, "velocity": 64}, {"pitch": 62, "tick": 103680, "length": 132, "velocity": 80}, {"pitch": 62, "tick": 103812, "length": 108, "velocity": 64}, {"pitch": 66, "tick": 103920, "length": 132, "velocity": 80}, {"pitch": 66, "tick": 104052, "length": 108, "velocity": 64}, {"pitch": 62, "tick": 104160, "length": 132, "velocity": 80}, {"pitch": 62, "tick": 104292, "length": 108, "velocity": 64}, {"pitch": 66, "tick": 104400, "length": 132, "velocity": 80}, {"pitch": 66, "tick": 104532, "length": 108, "velocity": 64}, {"pitch": 62, "tick": 104640, "length": 132, "velocity": 80}, {"pitch": 62, "tick": 104772, "length": 108, "velocity": 64}, {"pitch": 66, "tick": 104880, "length": 132, "velocity": 80}, {"pitch": 66, "tick": 105012, "length": 108, "velocity": 64}, {"pitch": 62, "tick": 105120, "length": 132, "velocity": 80}, {"pitch": 62, "tick": 105252, "length": 108, "velocity": 64}, {"pitch": 66, "tick": 105360, "length": 132, "velocity": 80}, {"pitch": 66, "tick": 105492, "length": 108, "velocity": 64}, {"pitch": 62, "tick": 105600, "length": 132, "velocity": 80}, {"pitch": 62, "tick": 105732, "length": 108, "velocity": 64}, {"pitch": 66, "tick": 105840, "length": 132, "velocity": 80}, {"pitch": 66, "tick": 105972, "length": 108, "velocity": 64}, {"pitch": 62, "tick": 106080, "length": 132, "velocity": 80}, {"pitch": 62, "tick": 106212, "length": 108, "velocity": 64}, {"pitch": 66, "tick": 106320, "length": 132, "velocity": 80}, {"pitch": 66, "tick": 106452, "length": 108, "velocity": 64}, {"pitch": 62, "tick": 106560, "length": 132, "velocity": 80}, {"pitch": 62, "tick": 106692, "length": 108, "velocity": 64}, {"pitch": 66, "tick": 106800, "length": 132, "velocity": 80}, {"pitch": 66, "tick": 106932, "length": 108, "velocity": 64}, {"pitch": 62, "tick": 107040, "length": 132, "velocity": 80}, {"pitch": 62, "tick": 107172, "length": 108, "velocity": 64}, {"pitch": 66, "tick": 107280, "length": 132, "velocity": 80}, {"pitch": 66, "tick": 107412, "length": 108, "velocity": 64}, {"pitch": 62, "tick": 107520, "length": 132, "velocity": 80}, {"pitch": 62, "tick": 107652, "length": 108, "velocity": 64}, {"pitch": 66, "tick": 107760, "length": 132, "velocity": 80}, {"pitch": 66, "tick": 107892, "length": 108, "velocity": 64}, {"pitch": 62, "tick": 108000, "length": 132, "velocity": 80}, {"pitch": 62, "tick": 108132, "length": 108, "velocity": 64}, {"pitch": 66, "tick": 108240, "length": 132, "velocity": 80}, {"pitch": 66, "tick": 108372, "length": 108, "velocity": 64}, {"pitch": 62, "tick": 108480, "length": 132, "velocity": 80}, {"pitch": 62, "tick": 108612, "length": 108, "velocity": 64}, {"pitch": 66, "tick": 108720, "length": 132, "velocity": 80}, {"pitch": 66, "tick": 108852, "length": 108, "velocity": 64}, {"pitch": 62, "tick": 108960, "length": 132, "velocity": 80}, {"pitch": 62, "tick": 109092, "length": 108, "velocity": 64}, {"pitch": 66, "tick": 109200, "length": 132, "velocity": 80}, {"pitch": 66, "tick": 109332, "length": 108, "velocity": 64}, {"pitch": 62, "tick": 109440, "length": 132, "velocity": 80}, {"pitch": 62, "tick": 109572, "length": 108, "velocity": 64}, {"pitch": 66, "tick": 109680, "length": 132, "velocity": 80}, {"pitch": 66, "tick": 109812, "length": 108, "velocity": 64}, {"pitch": 62, "tick": 109920, "length": 132, "velocity": 80}, {"pitch": 62, "tick": 110052, "length": 108, "velocity": 64}, {"pitch": 66, "tick": 110160, "length": 132, "velocity": 80}, {"pitch": 66, "tick": 110292, "length": 108, "velocity": 64}, {"pitch": 62, "tick": 110400, "length": 132, "velocity": 80}, {"pitch": 62, "tick": 110532, "length": 108, "velocity": 64}, {"pitch": 66, "tick": 110640, "length": 132, "velocity": 80}, {"pitch": 66, "tick": 110772, "length": 108, "velocity": 64}, {"pitch": 62, "tick": 110880, "length": 132, "velocity": 80}, {"pitch": 62, "tick": 111012, "length": 108, "velocity": 64}, {"pitch": 66, "tick": 111120, "length": 132, "velocity": 80}, {"pitch": 66, "tick": 111252, "length": 108, "velocity": 64}, {"pitch": 62, "tick": 111360, "length": 132, "velocity": 80}, {"pitch": 62, "tick": 111492, "length": 108, "velocity": 64}, {"pitch": 66, "tick": 111600, "length": 132, "velocity": 80}, {"pitch": 66, "tick": 111732, "length": 108, "velocity": 64}, {"pitch": 62, "tick": 111840, "length": 132, "velocity": 80}, {"pitch": 62, "tick": 111972, "length": 108, "velocity": 64}, {"pitch": 66, "tick": 112080, "length": 132, "velocity": 80}, {"pitch": 66, "tick": 112212, "length": 108, "velocity": 64}, {"pitch": 62, "tick": 112320, "length": 132, "velocity": 80}, {"pitch": 62, "tick": 112452, "length": 108, "velocity": 64}, {"pitch": 66, "tick": 112560, "length": 132, "velocity": 80}, {"pitch": 66, "tick": 112692, "length": 108, "velocity": 64}, {"pitch": 62, "tick": 112800, "length": 132, "velocity": 80}, {"pitch": 62, "tick": 112932, "length": 108, "velocity": 64}, {"pitch": 66, "tick": 113040, "length": 132, "velocity": 80}, {"pitch": 66, "tick": 113172, "length": 108, "velocity": 64}, {"pitch": 62, "tick": 113280, "length": 132, "velocity": 80}, {"pitch": 62, "tick": 113412, "length": 108, "velocity": 64}, {"pitch": 66, "tick": 113520, "length": 132, "velocity": 80}, {"pitch": 66, "tick": 113652, "length": 108, "velocity": 64}, {"pitch": 62, "tick": 113760, "length": 132, "velocity": 80}, {"pitch": 62, "tick": 113892, "length": 108, "velocity": 64}, {"pitch": 66, "tick": 114000, "length": 132, "velocity": 80}, {"pitch": 66, "tick": 114132, "length": 108, "velocity": 64}, {"pitch": 62, "tick": 114240, "length": 132, "velocity": 80}, {"pitch": 62, "tick": 114372, "length": 108, "velocity": 64}, {"pitch": 66, "tick": 114480, "length": 132, "velocity": 80}, {"pitch": 66, "tick": 114612, "length": 108, "velocity": 64}, {"pitch": 62, "tick": 114720, "length": 132, "velocity": 80}, {"pitch": 62, "tick": 114852, "length": 108, "velocity": 64}, {"pitch": 66, "tick": 114960, "length": 132, "velocity": 80}, {"pitch": 66, "tick": 115092, "length": 108, "velocity": 64}, {"pitch": 62, "tick": 115200, "length": 132, "velocity": 80}, {"pitch": 62, "tick": 115332, "length": 108, "velocity": 64}, {"pitch": 66, "tick": 115440, "length": 132, "velocity": 80}, {"pitch": 66, "tick": 115572, "length": 108, "velocity": 64}, {"pitch": 62, "tick": 115680, "length": 132, "velocity": 80}, {"pitch": 62, "tick": 115812, "length": 108, "velocity": 64}, {"pitch": 66, "tick": 115920, "length": 132, "velocity": 80}, {"pitch": 66, "tick": 116052, "length": 108, "velocity": 64}, {"pitch": 62, "tick": 116160, "length": 132, "velocity": 80}, {"pitch": 62, "tick": 116292, "length": 108, "velocity": 64}, {"pitch": 66, "tick": 116400, "length": 132, "velocity": 80}, {"pitch": 66, "tick": 116532, "length": 108, "velocity": 64}, {"pitch": 62, "tick": 116640, "length": 132, "velocity": 80}, {"pitch": 62, "tick": 116772, "length": 108, "velocity": 64}, {"pitch": 66, "tick": 116880, "length": 132, "velocity": 80}, {"pitch": 66, "tick": 117012, "length": 108, "velocity": 64}, {"pitch": 62, "tick": 117120, "length": 132, "velocity": 80}, {"pitch": 62, "tick": 117252, "length": 108, "velocity": 64}, {"pitch": 66, "tick": 117360, "length": 132, "velocity": 80}, {"pitch": 66, "tick": 117492, "length": 108, "velocity": 64}, {"pitch": 62, "tick": 117600, "length": 132, "velocity": 80}, {"pitch": 62, "tick": 117732, "length": 108, "velocity": 64}, {"pitch": 66, "tick": 117840, "length": 132, "velocity": 80}, {"pitch": 66, "tick": 117972, "length": 108, "velocity": 64}, {"pitch": 62, "tick": 118080, "length": 132, "velocity": 80}, {"pitch": 62, "tick": 118212, "length": 108, "velocity": 64}, {"pitch": 66, "tick": 118320, "length": 132, "velocity": 80}, {"pitch": 66, "tick": 118452, "length": 108, "velocity": 64}, {"pitch": 62, "tick": 118560, "length": 132, "velocity": 80}, {"pitch": 62, "tick": 118692, "length": 108, "velocity": 64}, {"pitch": 66, "tick": 118800, "length": 132, "velocity": 80}, {"pitch": 66, "tick": 118932, "length": 108, "velocity": 64}, {"pitch": 62, "tick": 119040, "length": 132, "velocity": 80}, {"pitch": 62, "tick": 119172, "length": 108, "velocity": 64}, {"pitch": 66, "tick": 119280, "length": 132, "velocity": 80}, {"pitch": 66, "tick": 119412, "length": 108, "velocity": 64}, {"pitch": 62, "tick": 119520, "length": 132, "velocity": 80}, {"pitch": 62, "tick": 119652, "length": 108, "velocity": 64}, {"pitch": 66, "tick": 119760, "length": 132, "velocity": 80}, {"pitch": 66, "tick": 119892, "length": 108, "velocity": 64}, {"pitch": 62, "tick": 120000, "length": 132, "velocity": 80}, {"pitch": 62, "tick": 120132, "length": 108, "velocity": 64}, {"pitch": 66, "tick": 120240, "length": 132, "velocity": 80}, {"pitch": 66, "tick": 120372, "length": 108, "velocity": 64}, {"pitch": 62, "tick": 120480, "length": 132, "velocity": 80}, {"pitch": 62, "tick": 120612, "length": 108, "velocity": 64}, {"pitch": 66, "tick": 120720, "length": 132, "velocity": 80}, {"pitch": 66, "tick": 120852, "length": 108, "velocity": 64}, {"pitch": 62, "tick": 120960, "length": 132, "velocity": 80}, {"pitch": 62, "tick": 121092, "length": 108, "velocity": 64}, {"pitch": 66, "tick": 121200, "length": 132, "velocity": 80}, {"pitch": 66, "tick": 121332, "length": 108, "velocity": 64}, {"pitch": 62, "tick": 121440, "length": 132, "velocity": 80}, {"pitch": 62, "tick": 121572, "length": 108, "velocity": 64}, {"pitch": 66, "tick": 121680, "length": 132, "velocity": 80}, {"pitch": 66, "tick": 121812, "length": 108, "velocity": 64}, {"pitch": 62, "tick": 121920, "length": 132, "velocity": 80}, {"pitch": 62, "tick": 122052, "length": 108, "velocity": 64}, {"pitch": 66, "tick": 122160, "length": 132, "velocity": 80}, {"pitch": 66, "tick": 122292, "length": 108, "velocity": 64}, {"pitch": 62, "tick": 122400, "length": 132, "velocity": 80}, {"pitch": 62, "tick": 122532, "length": 108, "velocity": 64}, {"pitch": 66, "tick": 122640, "length": 132, "velocity": 80}, {"pitch": 66, "tick": 122772, "length": 108, "velocity": 64}, {"pitch": 62, "tick": 122880, "length": 132, "velocity": 80}, {"pitch": 62, "tick": 123012, "length": 108, "velocity": 64}, {"pitch": 66, "tick": 123120, "length": 132, "velocity": 80}, {"pitch": 66, "tick": 123252, "length": 108, "velocity": 64}, {"pitch": 62, "tick": 123360, "length": 132, "velocity": 80}, {"pitch": 62, "tick": 123492, "length": 108, "velocity": 64}, {"pitch": 66, "tick": 123600, "length": 132, "velocity": 80}, {"pitch": 66, "tick": 123732, "length": 108, "velocity": 64}, {"pitch": 62, "tick": 123840, "length": 132, "velocity": 80}, {"pitch": 62, "tick": 123972, "length": 108, "velocity": 64}, {"pitch": 66, "tick": 124080, "length": 132, "velocity": 80}, {"pitch": 66, "tick": 124212, "length": 108, "velocity": 64}, {"pitch": 62, "tick": 124320, "length": 132, "velocity": 80}, {"pitch": 62, "tick": 124452, "length": 108, "velocity": 64}, {"pitch": 66, "tick": 124560, "length": 132, "velocity": 80}, {"pitch": 66, "tick": 124692, "length": 108, "velocity": 64}, {"pitch": 62, "tick": 124800, "length": 132, "velocity": 80}, {"pitch": 62, "tick": 124932, "length": 108, "velocity": 64}, {"pitch": 66, "tick": 125040, "length": 132, "velocity": 80}, {"pitch": 66, "tick": 125172, "length": 108, "velocity": 64}, {"pitch": 62, "tick": 125280, "length": 132, "velocity": 80}, {"pitch": 62, "tick": 125412, "length": 108, "velocity": 64}, {"pitch": 66, "tick": 125520, "length": 132, "velocity": 80}, {"pitch": 66, "tick": 125652, "length": 108, "velocity": 64}, {"pitch": 62, "tick": 125760, "length": 132, "velocity": 80}, {"pitch": 62, "tick": 125892, "length": 108, "velocity": 64}, {"pitch": 66, "tick": 126000, "length": 132, "velocity": 80}, {"pitch": 66, "tick": 126132, "length": 108, "velocity": 64}, {"pitch": 62, "tick": 126240, "length": 132, "velocity": 80}, {"pitch": 62, "tick": 126372, "length": 108, "velocity": 64}, {"pitch": 66, "tick": 126480, "length": 132, "velocity": 80}, {"pitch": 66, "tick": 126612, "length": 108, "velocity": 64}, {"pitch": 62, "tick": 126720, "length": 132, "velocity": 80}, {"pitch": 62, "tick": 126852, "length": 108, "velocity": 64}, {"pitch": 66, "tick": 126960, "length": 132, "velocity": 80}, {"pitch": 66, "tick": 127092, "length": 108, "velocity": 64}, {"pitch": 62, "tick": 127200, "length": 132, "velocity": 80}, {"pitch": 62, "tick": 127332, "length": 108, "velocity": 64}, {"pitch": 66, "tick": 127440, "length": 132, "velocity": 80}, {"pitch": 66, "tick": 127572, "length": 108, "velocity": 64}, {"pitch": 62, "tick": 127680, "length": 132, "velocity": 80}, {"pitch": 62, "tick": 127812, "length": 108, "velocity": 64}, {"pitch": 66, "tick": 127920, "length": 132, "velocity": 80}, {"pitch": 66, "tick": 128052, "length": 108, "velocity": 64}, {"pitch": 62, "tick": 128160, "length": 132, "velocity": 80}, {"pitch": 62, "tick": 128292, "length": 108, "velocity": 64}, {"pitch": 66, "tick": 128400, "length": 132, "velocity": 80}, {"pitch": 66, "tick": 128532, "length": 108, "velocity": 64}, {"pitch": 62, "tick": 128640, "length": 132, "velocity": 80}, {"pitch": 62, "tick": 128772, "length": 108, "velocity": 64}, {"pitch": 66, "tick": 128880, "length": 132, "velocity": 80}, {"pitch": 66, "tick": 129012, "length": 108, "velocity": 64}, {"pitch": 62, "tick": 129120, "length": 132, "velocity": 80}, {"pitch": 62, "tick": 129252, "length": 108, "velocity": 64}, {"pitch": 66, "tick": 129360, "length": 132, "velocity": 80}, {"pitch": 66, "tick": 129492, "length": 108, "velocity": 64}, {"pitch": 62, "tick": 129600, "length": 132, "velocity": 80}, {"pitch": 62, "tick": 129732, "length": 108, "velocity": 64}, {"pitch": 66, "tick": 129840, "length": 132, "velocity": 80}, {"pitch": 66, "tick": 129972, "length": 108, "velocity": 64}, {"pitch": 62, "tick": 130080, "length": 132, "velocity": 80}, {"pitch": 62, "tick": 130212, "length": 108, "velocity": 64}, {"pitch": 66, "tick": 130320, "length": 132, "velocity": 80}, {"pitch": 66, "tick": 130452, "length": 108, "velocity": 64}, {"pitch": 62, "tick": 130560, "length": 132, "velocity": 80}, {"pitch": 62, "tick": 130692, "length": 108, "velocity": 64}, {"pitch": 66, "tick": 130800, "length": 132, "velocity": 80}, {"pitch": 66, "tick": 130932, "length": 108, "velocity": 64}, {"pitch": 62, "tick": 131040, "length": 132, "velocity": 80}, {"pitch": 62, "tick": 131172, "length": 108, "velocity": 64}, {"pitch": 66, "tick": 131280, "length": 132, "velocity": 80}, {"pitch": 66, "tick": 131412, "length": 108, "velocity": 64}, {"pitch": 62, "tick": 131520, "length": 132, "velocity": 80}, {"pitch": 62, "tick": 131652, "length": 108, "velocity": 64}, {"pitch": 66, "tick": 131760, "length": 132, "velocity": 80}, {"pitch": 66, "tick": 131892, "length": 108, "velocity": 64}, {"pitch": 62, "tick": 132000, "length": 132, "velocity": 80}, {"pitch": 62, "tick": 132132, "length": 108, "velocity": 64}, {"pitch": 66, "tick": 132240, "length": 132, "velocity": 80}, {"pitch": 66, "tick": 132372, "length": 108, "velocity": 64}, {"pitch": 62, "tick": 132480, "length": 132, "velocity": 80}, {"pitch": 62, "tick": 132612, "length": 108, "velocity": 64}, {"pitch": 66, "tick": 132720, "length": 132, "velocity": 80}, {"pitch": 66, "tick": 132852, "length": 108, "velocity": 64}, {"pitch": 62, "tick": 132960, "length": 132, "velocity": 80}, {"pitch": 62, "tick": 133092, "length": 108, "velocity": 64}, {"pitch": 66, "tick": 133200, "length": 132, "velocity": 80}, {"pitch": 66, "tick": 133332, "length": 108, "velocity": 64}, {"pitch": 62, "tick": 133440, "length": 132, "velocity": 80}, {"pitch": 62, "tick": 133572, "length": 108, "velocity": 64}, {"pitch": 66, "tick": 133680, "length": 132, "velocity": 80}, {"pitch": 66, "tick": 133812, "length": 108, "velocity": 64}, {"pitch": 62, "tick": 133920, "length": 132, "velocity": 80}, {"pitch": 62, "tick": 134052, "length": 108, "velocity": 64}, {"pitch": 66, "tick": 134160, "length": 132, "velocity": 80}, {"pitch": 66, "tick": 134292, "length": 108, "velocity": 64}, {"pitch": 62, "tick": 134400, "length": 132, "velocity": 80}, {"pitch": 62, "tick": 134532, "length": 108, "velocity": 64}, {"pitch": 66, "tick": 134640, "length": 132, "velocity": 80}, {"pitch": 66, "tick": 134772, "length": 108, "velocity": 64}, {"pitch": 62, "tick": 134880, "length": 132, "velocity": 80}, {"pitch": 62, "tick": 135012, "length": 108, "velocity": 64}, {"pitch": 66, "tick": 135120, "length": 132, "velocity": 80}, {"pitch": 66, "tick": 135252, "length": 108, "velocity": 64}, {"pitch": 62, "tick": 135360, "length": 132, "velocity": 80}, {"pitch": 62, "tick": 135492, "length": 108, "velocity": 64}, {"pitch": 66, "tick": 135600, "length": 132, "velocity": 80}, {"pitch": 66, "tick": 135732, "length": 108, "velocity": 64}, {"pitch": 62, "tick": 135840, "length": 132, "velocity": 80}, {"pitch": 62, "tick": 135972, "length": 108, "velocity": 64}, {"pitch": 66, "tick": 136080, "length": 132, "velocity": 80}, {"pitch": 66, "tick": 136212, "length": 108, "velocity": 64}, {"pitch": 62, "tick": 136320, "length": 132, "velocity": 80}, {"pitch": 62, "tick": 136452, "length": 108, "velocity": 64}, {"pitch": 66, "tick": 136560, "length": 132, "velocity": 80}, {"pitch": 66, "tick": 136692, "length": 108, "velocity": 64}, {"pitch": 62, "tick": 136800, "length": 132, "velocity": 80}, {"pitch": 62, "tick": 136932, "length": 108, "velocity": 64}, {"pitch": 66, "tick": 137040, "length": 132, "velocity": 80}, {"pitch": 66, "tick": 137172, "length": 108, "velocity": 64}, {"pitch": 62, "tick": 137280, "length": 132, "velocity": 80}, {"pitch": 62, "tick": 137412, "length": 108, "velocity": 64}, {"pitch": 66, "tick": 137520, "length": 132, "velocity": 80}, {"pitch": 66, "tick": 137652, "length": 108, "velocity": 64}, {"pitch": 62, "tick": 137760, "length": 132, "velocity": 80}, {"pitch": 62, "tick": 137892, "length": 108, "velocity": 64}, {"pitch": 66, "tick": 138000, "length": 132, "velocity": 80}, {"pitch": 66, "tick": 138132, "length": 108, "velocity": 64}, {"pitch": 62, "tick": 138240, "length": 132, "velocity": 80}, {"pitch": 62, "tick": 138372, "length": 108, "velocity": 64}, {"pitch": 66, "tick": 138480, "length": 132, "velocity": 80}, {"pitch": 66, "tick": 138612, "length": 108, "velocity": 64}, {"pitch": 62, "tick": 138720, "length": 132, "velocity": 80}, {"pitch": 62, "tick": 138852, "length": 108, "velocity": 64}, {"pitch": 66, "tick": 138960, "length": 132, "velocity": 80}, {"pitch": 66, "tick": 139092, "length": 108, "velocity": 64}, {"pitch": 62, "tick": 139200, "length": 132, "velocity": 80}, {"pitch": 62, "tick": 139332, "length": 108, "velocity": 64}, {"pitch": 66, "tick": 139440, "length": 132, "velocity": 80}, {"pitch": 66, "tick": 139572, "length": 108, "velocity": 64}, {"pitch": 62, "tick": 139680, "length": 132, "velocity": 80}, {"pitch": 62, "tick": 139812, "length": 108, "velocity": 64}, {"pitch": 66, "tick": 139920, "length": 132, "velocity": 80}, {"pitch": 66, "tick": 140052, "length": 108, "velocity": 64}, {"pitch": 62, "tick": 140160, "length": 132, "velocity": 80}, {"pitch": 62, "tick": 140292, "length": 108, "velocity": 64}, {"pitch": 66, "tick": 140400, "length": 132, "velocity": 80}, {"pitch": 66, "tick": 140532, "length": 108, "velocity": 64}, {"pitch": 62, "tick": 140640, "length": 132, "velocity": 80}, {"pitch": 62, "tick": 140772, "length": 108, "velocity": 64}, {"pitch": 66, "tick": 140880, "length": 132, "velocity": 80}, {"pitch": 66, "tick": 141012, "length": 108, "velocity": 64}, {"pitch": 62, "tick": 141120, "length": 132, "velocity": 80}, {"pitch": 62, "tick": 141252, "length": 108, "velocity": 64}, {"pitch": 66, "tick": 141360, "length": 132, "velocity": 80}, {"pitch": 66, "tick": 141492, "length": 108, "velocity": 64}, {"pitch": 62, "tick": 141600, "length": 132, "velocity": 80}, {"pitch": 62, "tick": 141732, "length": 108, "velocity": 64}, {"pitch": 66, "tick": 141840, "length": 132, "velocity": 80}, {"pitch": 66, "tick": 141972, "length": 108, "velocity": 64}, {"pitch": 62, "tick": 142080, "length": 132, "velocity": 80}, {"pitch": 62, "tick": 142212, "length": 108, "velocity": 64}, {"pitch": 66, "tick": 142320, "length": 132, "velocity": 80}, {"pitch": 66, "tick": 142452, "length": 108, "velocity": 64}, {"pitch": 62, "tick": 142560, "length": 132, "velocity": 80}, {"pitch": 62, "tick": 142692, "length": 108, "velocity": 64}, {"pitch": 66, "tick": 142800, "length": 132, "velocity": 80}, {"pitch": 66, "tick": 142932, "length": 108, "velocity": 64}, {"pitch": 62, "tick": 143040, "length": 132, "velocity": 80}, {"pitch": 62, "tick": 143172, "length": 108, "velocity": 64}, {"pitch": 66, "tick": 143280, "length": 132, "velocity": 80}, {"pitch": 66, "tick": 143412, "length": 108, "velocity": 64}, {"pitch": 62, "tick": 143520, "length": 132, "velocity": 80}, {"pitch": 62, "tick": 143652, "length": 108, "velocity": 64}, {"pitch": 66, "tick": 143760, "length": 132, "velocity": 80}, {"pitch": 66, "tick": 143892, "length": 108, "velocity": 64}, {"pitch": 62, "tick": 144000, "length": 132, "velocity": 80}, {"pitch": 62, "tick": 144132, "length": 108, "velocity": 64}, {"pitch": 66, "tick": 144240, "length": 132, "velocity": 80}, {"pitch": 66, "tick": 144372, "length": 108, "velocity": 64}, {"pitch": 62, "tick": 144480, "length": 132, "velocity": 80}, {"pitch": 62, "tick": 144612, "length": 108, "velocity": 64}, {"pitch": 66, "tick": 144720, "length": 132, "velocity": 80}, {"pitch": 66, "tick": 144852, "length": 108, "velocity": 64}, {"pitch": 62, "tick": 144960, "length": 132, "velocity": 80}, {"pitch": 62, "tick": 145092, "length": 108, "velocity": 64}, {"pitch": 66, "tick": 145200, "length": 132, "velocity": 80}, {"pitch": 66, "tick": 145332, "length": 108, "velocity": 64}, {"pitch": 62, "tick": 145440, "length": 132, "velocity": 80}, {"pitch": 62, "tick": 145572, "length": 108, "velocity": 64}, {"pitch": 66, "tick": 145680, "length": 132, "velocity": 80}, {"pitch": 66, "tick": 145812, "length": 108, "velocity": 64}, {"pitch": 62, "tick": 145920, "length": 132, "velocity": 80}, {"pitch": 62, "tick": 146052, "length": 108, "velocity": 64}, {"pitch": 66, "tick": 146160, "length": 132, "velocity": 80}, {"pitch": 66, "tick": 146292, "length": 108, "velocity": 64}, {"pitch": 62, "tick": 146400, "length": 132, "velocity": 80}, {"pitch": 62, "tick": 146532, "length": 108, "velocity": 64}, {"pitch": 66, "tick": 146640, "length": 132, "velocity": 80}, {"pitch": 66, "tick": 146772, "length": 108, "velocity": 64}, {"pitch": 62, "tick": 146880, "length": 132, "velocity": 80}, {"pitch": 62, "tick": 147012, "length": 108, "velocity": 64}, {"pitch": 66, "tick": 147120, "length": 132, "velocity": 80}, {"pitch": 66, "tick": 147252, "length": 108, "velocity": 64}, {"pitch": 62, "tick": 147360, "length": 132, "velocity": 80}, {"pitch": 62, "tick": 147492, "length": 108, "velocity": 64}, {"pitch": 66, "tick": 147600, "length": 132, "velocity": 80}, {"pitch": 66, "tick": 147732, "length": 108, "velocity": 64}, {"pitch": 62, "tick": 147840, "length": 132, "velocity": 80}, {"pitch": 62, "tick": 147972, "length": 108, "velocity": 64}, {"pitch": 66, "tick": 148080, "length": 132, "velocity": 80}, {"pitch": 66, "tick": 148212, "length": 108, "velocity": 64}, {"pitch": 62, "tick": 148320, "length": 132, "velocity": 80}, {"pitch": 62, "tick": 148452, "length": 108, "velocity": 64}, {"pitch": 66, "tick": 148560, "length": 132, "velocity": 80}, {"pitch": 66, "tick": 148692, "length": 108, "velocity": 64}, {"pitch": 62, "tick": 148800, "length": 132, "velocity": 80}, {"pitch": 62, "tick": 148932, "length": 108, "velocity": 64}, {"pitch": 66, "tick": 149040, "length": 132, "velocity": 80}, {"pitch": 66, "tick": 149172, "length": 108, "velocity": 64}, {"pitch": 62, "tick": 149280, "length": 132, "velocity": 80}, {"pitch": 62, "tick": 149412, "length": 108, "velocity": 64}, {"pitch": 66, "tick": 149520, "length": 132, "velocity": 80}, {"pitch": 66, "tick": 149652, "length": 108, "velocity": 64}, {"pitch": 62, "tick": 149760, "length": 132, "velocity": 80}, {"pitch": 62, "tick": 149892, "length": 108, "velocity": 64}, {"pitch": 66, "tick": 150000, "length": 132, "velocity": 80}, {"pitch": 66, "tick": 150132, "length": 108, "velocity": 64}, {"pitch": 62, "tick": 150240, "length": 132, "velocity": 80}, {"pitch": 62, "tick": 150372, "length": 108, "velocity": 64}, {"pitch": 66, "tick": 150480, "length": 132, "velocity": 80}, {"pitch": 66, "tick": 150612, "length": 108, "velocity": 64}, {"pitch": 62, "tick": 150720, "length": 132, "velocity": 80}, {"pitch": 62, "tick": 150852, "length": 108, "velocity": 64}, {"pitch": 66, "tick": 150960, "length": 132, "velocity": 80}, {"pitch": 66, "tick": 151092, "length": 108, "velocity": 64}, {"pitch": 62, "tick": 151200, "length": 132, "velocity": 80}, {"pitch": 62, "tick": 151332, "length": 108, "velocity": 64}, {"pitch": 66, "tick": 151440, "length": 132, "velocity": 80}, {"pitch": 66, "tick": 151572, "length": 108, "velocity": 64}, {"pitch": 62, "tick": 151680, "length": 132, "velocity": 80}, {"pitch": 62, "tick": 151812, "length": 108, "velocity": 64}, {"pitch": 66, "tick": 151920, "length": 132, "velocity": 80}, {"pitch": 66, "tick": 152052, "length": 108, "velocity": 64}, {"pitch": 62, "tick": 152160, "length": 132, "velocity": 80}, {"pitch": 62, "tick": 152292, "length": 108, "velocity": 64}, {"pitch": 66, "tick": 152400, "length": 132, "velocity": 80}, {"pitch": 66, "tick": 152532, "length": 108, "velocity": 64}, {"pitch": 62, "tick": 152640, "length": 132, "velocity": 80}, {"pitch": 62, "tick": 152772, "length": 108, "velocity": 64}, {"pitch": 66, "tick": 152880, "length": 132, "velocity": 80}, {"pitch": 66, "tick": 153012, "length": 108, "velocity": 64}, {"pitch": 62, "tick": 153120, "length": 132, "velocity": 80}, {"pitch": 62, "tick": 153252, "length": 108, "velocity": 64}, {"pitch": 66, "tick": 153360, "length": 132, "velocity": 80}, {"pitch": 66, "tick": 153492, "length": 108, "velocity": 64}, {"pitch": 62, "tick": 153600, "length": 132, "velocity": 80}, {"pitch": 62, "tick": 153732, "length": 108, "velocity": 64}, {"pitch": 66, "tick": 153840, "length": 132, "velocity": 80}, {"pitch": 66, "tick": 153972, "length": 108, "velocity": 64}, {"pitch": 62, "tick": 154080, "length": 132, "velocity": 80}, {"pitch": 62, "tick": 154212, "length": 108, "velocity": 64}, {"pitch": 66, "tick": 154320, "length": 132, "velocity": 80}, {"pitch": 66, "tick": 154452, "length": 108, "velocity": 64}, {"pitch": 62, "tick": 154560, "length": 132, "velocity": 80}, {"pitch": 62, "tick": 154692, "length": 108, "velocity": 64}, {"pitch": 66, "tick": 154800, "length": 132, "velocity": 80}, {"pitch": 66, "tick": 154932, "length": 108, "velocity": 64}, {"pitch": 62, "tick": 155040, "length": 132, "velocity": 80}, {"pitch": 62, "tick": 155172, "length": 108, "velocity": 64}, {"pitch": 66, "tick": 155280, "length": 132, "velocity": 80}, {"pitch": 66, "tick": 155412, "length": 108, "velocity": 64}, {"pitch": 62, "tick": 155520, "length": 132, "velocity": 80}, {"pitch": 62, "tick": 155652, "length": 108, "velocity": 64}, {"pitch": 66, "tick": 155760, "length": 132, "velocity": 80}, {"pitch": 66, "tick": 155892, "length": 108, "velocity": 64}, {"pitch": 62, "tick": 156000, "length": 132, "velocity": 80}, {"pitch": 62, "tick": 156132, "length": 108, "velocity": 64}, {"pitch": 66, "tick": 156240, "length": 132, "velocity": 80}, {"pitch": 66, "tick": 156372, "length": 108, "velocity": 64}, {"pitch": 62, "tick": 156480, "length": 132, "velocity": 80}, {"pitch": 62, "tick": 156612, "length": 108, "velocity": 64}, {"pitch": 66, "tick": 156720, "length": 132, "velocity": 80}, {"pitch": 66, "tick": 156852, "length": 108, "velocity": 64}, {"pitch": 62, "tick": 156960, "length": 132, "velocity": 80}, {"pitch": 62, "tick": 157092, "length": 108, "velocity": 64}, {"pitch": 66, "tick": 157200, "length": 132, "velocity": 80}, {"pitch": 66, "tick": 157332, "length": 108, "velocity": 64}, {"pitch": 62, "tick": 157440, "length": 132, "velocity": 80}, {"pitch": 62, "tick": 157572, "length": 108, "velocity": 64}, {"pitch": 66, "tick": 157680, "length": 132, "velocity": 80}, {"pitch": 66, "tick": 157812, "length": 108, "velocity": 64}, {"pitch": 62, "tick": 157920, "length": 132, "velocity": 80}, {"pitch": 62, "tick": 158052, "length": 108, "velocity": 64}, {"pitch": 66, "tick": 158160, "length": 132, "velocity": 80}, {"pitch": 66, "tick": 158292, "length": 108, "velocity": 64}, {"pitch": 62, "tick": 158400, "length": 132, "velocity": 80}, {"pitch": 62, "tick": 158532, "length": 108, "velocity": 64}, {"pitch": 66, "tick": 158640, "length": 132, "velocity": 80}, {"pitch": 66, "tick": 158772, "length": 108, "velocity": 64}, {"pitch": 62, "tick": 158880, "length": 132, "velocity": 80}, {"pitch": 62, "tick": 159012, "length": 108, "velocity": 64}, {"pitch": 66, "tick": 159120, "length": 132, "velocity": 80}, {"pitch": 66, "tick": 159252, "length": 108, "velocity": 64}, {"pitch": 62, "tick": 159360, "length": 132, "velocity": 80}, {"pitch": 62, "tick": 159492, "length": 108, "velocity": 64}, {"pitch": 66, "tick": 159600, "length": 132, "velocity": 80}, {"pitch": 66, "tick": 159732, "length": 108, "velocity": 64}, {"pitch": 62, "tick": 159840, "length": 132, "velocity": 80}, {"pitch": 62, "tick": 159972, "length": 108, "velocity": 64}, {"pitch": 66, "tick": 160080, "length": 132, "velocity": 80}, {"pitch": 66, "tick": 160212, "length": 108, "velocity": 64}, {"pitch": 62, "tick": 160320, "length": 132, "velocity": 80}, {"pitch": 62, "tick": 160452, "length": 108, "velocity": 64}, {"pitch": 66, "tick": 160560, "length": 132, "velocity": 80}, {"pitch": 66, "tick": 160692, "length": 108, "velocity": 64}, {"pitch": 62, "tick": 160800, "length": 132, "velocity": 80}, {"pitch": 62, "tick": 160932, "length": 108, "velocity": 64}, {"pitch": 66, "tick": 161040, "length": 132, "velocity": 80}, {"pitch": 66, "tick": 161172, "length": 108, "velocity": 64}, {"pitch": 62, "tick": 161280, "length": 132, "velocity": 80}, {"pitch": 62, "tick": 161412, "length": 108, "velocity": 64}, {"pitch": 66, "tick": 161520, "length": 132, "velocity": 80}, {"pitch": 66, "tick": 161652, "length": 108, "velocity": 64}, {"pitch": 62, "tick": 161760, "length": 132, "velocity": 80}, {"pitch": 62, "tick": 161892, "length": 108, "velocity": 64}, {"pitch": 66, "tick": 162000, "length": 132, "velocity": 80}, {"pitch": 66, "tick": 162132, "length": 108, "velocity": 64}, {"pitch": 62, "tick": 162240, "length": 132, "velocity": 80}, {"pitch": 62, "tick": 162372, "length": 108, "velocity": 64}, {"pitch": 66, "tick": 162480, "length": 132, "velocity": 80}, {"pitch": 66, "tick": 162612, "length": 108, "velocity": 64}, {"pitch": 62, "tick": 162720, "length": 132, "velocity": 80}, {"pitch": 62, "tick": 162852, "length": 108, "velocity": 64}, {"pitch": 66, "tick": 162960, "length": 132, "velocity": 80}, {"pitch": 66, "tick": 163092, "length": 108, "velocity": 64}, {"pitch": 62, "tick": 163200, "length": 132, "velocity": 80}, {"pitch": 62, "tick": 163332, "length": 108, "velocity": 64}, {"pitch": 66, "tick": 163440, "length": 132, "velocity": 80}, {"pitch": 66, "tick": 163572, "length": 108, "velocity": 64}, {"pitch": 62, "tick": 163680, "length": 132, "velocity": 80}, {"pitch": 62, "tick": 163812, "length": 108, "velocity": 64}, {"pitch": 66, "tick": 163920, "length": 132, "velocity": 80}, {"pitch": 66, "tick": 164052, "length": 108, "velocity": 64}, {"pitch": 62, "tick": 164160, "length": 132, "velocity": 80}, {"pitch": 62, "tick": 164292, "length": 108, "velocity": 64}, {"pitch": 66, "tick": 164400, "length": 132, "velocity": 80}, {"pitch": 66, "tick": 164532, "length": 108, "velocity": 64}, {"pitch": 62, "tick": 164640, "length": 132, "velocity": 80}, {"pitch": 62, "tick": 164772, "length": 108, "velocity": 64}, {"pitch": 66, "tick": 164880, "length": 132, "velocity": 80}, {"pitch": 66, "tick": 165012, "length": 108, "velocity": 64}, {"pitch": 62, "tick": 165120, "length": 132, "velocity": 80}, {"pitch": 62, "tick": 165252, "length": 108, "velocity": 64}, {"pitch": 66, "tick": 165360, "length": 132, "velocity": 80}, {"pitch": 66, "tick": 165492, "length": 108, "velocity": 64}, {"pitch": 62, "tick": 165600, "length": 132, "velocity": 80}, {"pitch": 62, "tick": 165732, "length": 108, "velocity": 64}, {"pitch": 66, "tick": 165840, "length": 132, "velocity": 80}, {"pitch": 66, "tick": 165972, "length": 108, "velocity": 64}, {"pitch": 62, "tick": 166080, "length": 132, "velocity": 80}, {"pitch": 62, "tick": 166212, "length": 108, "velocity": 64}, {"pitch": 66, "tick": 166320, "length": 132, "velocity": 80}, {"pitch": 66, "tick": 166452, "length": 108, "velocity": 64}, {"pitch": 62, "tick": 166560, "length": 132, "velocity": 80}, {"pitch": 62, "tick": 166692, "length": 108, "velocity": 64}, {"pitch": 66, "tick": 166800, "length": 132, "velocity": 80}, {"pitch": 66, "tick": 166932, "length": 108, "velocity": 64}, {"pitch": 62, "tick": 167040, "length": 132, "velocity": 80}, {"pitch": 62, "tick": 167172, "length": 108, "velocity": 64}, {"pitch": 66, "tick": 167280, "length": 132, "velocity": 80}, {"pitch": 66, "tick": 167412, "length": 108, "velocity": 64}, {"pitch": 62, "tick": 167520, "length": 132, "velocity": 80}, {"pitch": 62, "tick": 167652, "length": 108, "velocity": 64}, {"pitch": 66, "tick": 167760, "length": 132, "velocity": 80}, {"pitch": 66, "tick": 167892, "length": 108, "velocity": 64}, {"pitch": 62, "tick": 168000, "length": 132, "velocity": 80}, {"pitch": 62, "tick": 168132, "length": 108, "velocity": 64}, {"pitch": 66, "tick": 168240, "length": 132, "velocity": 80}, {"pitch": 66, "tick": 168372, "length": 108, "velocity": 64}, {"pitch": 62, "tick": 168480, "length": 132, "velocity": 80}, {"pitch": 62, "tick": 168612, "length": 108, "velocity": 64}, {"pitch": 66, "tick": 168720, "length": 132, "velocity": 80}, {"pitch": 66, "tick": 168852, "length": 108, "velocity": 64}, {"pitch": 62, "tick": 168960, "length": 132, "velocity": 80}, {"pitch": 62, "tick": 169092, "length": 108, "velocity": 64}, {"pitch": 66, "tick": 169200, "length": 132, "velocity": 80}, {"pitch": 66, "tick": 169332, "length": 108, "velocity": 64}, {"pitch": 62, "tick": 169440, "length": 132, "velocity": 80}, {"pitch": 62, "tick": 169572, "length": 108, "velocity": 64}, {"pitch": 66, "tick": 169680, "length": 132, "velocity": 80}, {"pitch": 66, "tick": 169812, "length": 108, "velocity": 64}, {"pitch": 62, "tick": 169920, "length": 132, "velocity": 80}, {"pitch": 62, "tick": 170052, "length": 108, "velocity": 64}, {"pitch": 66, "tick": 170160, "length": 132, "velocity": 80}, {"pitch": 66, "tick": 170292, "length": 108, "velocity": 64}, {"pitch": 62, "tick": 170400, "length": 132, "velocity": 80}, {"pitch": 62, "tick": 170532, "length": 108, "velocity": 64}, {"pitch": 66, "tick": 170640, "length": 132, "velocity": 80}, {"pitch": 66, "tick": 170772, "length": 108, "velocity": 64}, {"pitch": 62, "tick": 170880, "length": 132, "velocity": 80}, {"pitch": 62, "tick": 171012, "length": 108, "velocity": 64}, {"pitch": 66, "tick": 171120, "length": 132, "velocity": 80}, {"pitch": 66, "tick": 171252, "length": 108, "velocity": 64}, {"pitch": 62, "tick": 171360, "length": 132, "velocity": 80}, {"pitch": 62, "tick": 171492, "length": 108, "velocity": 64}, {"pitch": 66, "tick": 171600, "length": 132, "velocity": 80}, {"pitch": 66, "tick": 171732, "length": 108, "velocity": 64}, {"pitch": 62, "tick": 171840, "length": 132, "velocity": 80}, {"pitch": 62, "tick": 171972, "length": 108, "velocity": 64}, {"pitch": 66, "tick": 172080, "length": 132, "velocity": 80}, {"pitch": 66, "tick": 172212, "length": 108, "velocity": 64}, {"pitch": 62, "tick": 172320, "length": 132, "velocity": 80}, {"pitch": 62, "tick": 172452, "length": 108, "velocity": 64}, {"pitch": 66, "tick": 172560, "length": 132, "velocity": 80}, {"pitch": 66, "tick": 172692, "length": 108, "velocity": 64}, {"pitch": 62, "tick": 172800, "length": 132, "velocity": 80}, {"pitch": 62, "tick": 172932, "length": 108, "velocity": 64}, {"pitch": 66, "tick": 173040, "length": 132, "velocity": 80}, {"pitch": 66, "tick": 173172, "length": 108, "velocity": 64}, {"pitch": 62, "tick": 173280, "length": 132, "velocity": 80}, {"pitch": 62, "tick": 173412, "length": 108, "velocity": 64}, {"pitch": 66, "tick": 173520, "length": 132, "velocity": 80}, {"pitch": 66, "tick": 173652, "length": 108, "velocity": 64}, {"pitch": 62, "tick": 173760, "length": 132, "velocity": 80}, {"pitch": 62, "tick": 173892, "length": 108, "velocity": 64}, {"pitch": 66, "tick": 174000, "length": 132, "velocity": 80}, {"pitch": 66, "tick": 174132, "length": 108, "velocity": 64}, {"pitch": 62, "tick": 174240, "length": 132, "velocity": 80}, {"pitch": 62, "tick": 174372, "length": 108, "velocity": 64}, {"pitch": 66, "tick": 174480, "length": 132, "velocity": 80}, {"pitch": 66, "tick": 174612, "length": 108, "velocity": 64}, {"pitch": 62, "tick": 174720, "length": 132, "velocity": 80}, {"pitch": 62, "tick": 174852, "length": 108, "velocity": 64}, {"pitch": 66, "tick": 174960, "length": 132, "velocity": 80}, {"pitch": 66, "tick": 175092, "length": 108, "velocity": 64}, {"pitch": 62, "tick": 175200, "length": 132, "velocity": 80}, {"pitch": 62, "tick": 175332, "length": 108, "velocity": 64}, {"pitch": 66, "tick": 175440, "length": 132, "velocity": 80}, {"pitch": 66, "tick": 175572, "length": 108, "velocity": 64}, {"pitch": 62, "tick": 175680, "length": 132, "velocity": 80}, {"pitch": 62, "tick": 175812, "length": 108, "velocity": 64}, {"pitch": 66, "tick": 175920, "length": 132, "velocity": 80}, {"pitch": 66, "tick": 176052, "length": 108, "velocity": 64}, {"pitch": 62, "tick": 176160, "length": 132, "velocity": 80}, {"pitch": 62, "tick": 176292, "length": 108, "velocity": 64}, {"pitch": 66, "tick": 176400, "length": 132, "velocity": 80}, {"pitch": 66, "tick": 176532, "length": 108, "velocity": 64}, {"pitch": 62, "tick": 176640, "length": 132, "velocity": 80}, {"pitch": 62, "tick": 176772, "length": 108, "velocity": 64}, {"pitch": 66, "tick": 176880, "length": 132, "velocity": 80}, {"pitch": 66, "tick": 177012, "length": 108, "velocity": 64}, {"pitch": 62, "tick": 177120, "length": 132, "velocity": 80}, {"pitch": 62, "tick": 177252, "length": 108, "velocity": 64}, {"pitch": 66, "tick": 177360, "length": 132, "velocity": 80}, {"pitch": 66, "tick": 177492, "length": 108, "velocity": 64}, {"pitch": 62, "tick": 177600, "length": 132, "velocity": 80}, {"pitch": 62, "tick": 177732, "length": 108, "velocity": 64}, {"pitch": 66, "tick": 177840, "length": 132, "velocity": 80}, {"pitch": 66, "tick": 177972, "length": 108, "velocity": 64}, {"pitch": 62, "tick": 178080, "length": 132, "velocity": 80}, {"pitch": 62, "tick": 178212, "length": 108, "velocity": 64}, {"pitch": 66, "tick": 178320, "length": 132, "velocity": 80}, {"pitch": 66, "tick": 178452, "length": 108, "velocity": 64}, {"pitch": 62, "tick": 178560, "length": 132, "velocity": 80}, {"pitch": 62, "tick": 178692, "length": 108, "velocity": 64}, {"pitch": 66, "tick": 178800, "length": 132, "velocity": 80}, {"pitch": 66, "tick": 178932, "length": 108, "velocity": 64}, {"pitch": 62, "tick": 179040, "length": 132, "velocity": 80}, {"pitch": 62, "tick": 179172, "length": 108, "velocity": 64}, {"pitch": 66, "tick": 179280, "length": 132, "velocity": 80}, {"pitch": 66, "tick": 179412, "length": 108, "velocity": 64}, {"pitch": 62, "tick": 179520, "length": 132, "velocity": 80}, {"pitch": 62, "tick": 179652, "length": 108, "velocity": 64}, {"pitch": 66, "tick": 179760, "length": 132, "velocity": 80}, {"pitch": 66, "tick": 179892, "length": 108, "velocity": 64}, {"pitch": 62, "tick": 180000, "length": 132, "velocity": 80}, {"pitch": 62, "tick": 180132, "length": 108, "velocity": 64}, {"pitch": 66, "tick": 180240, "length": 132, "velocity": 80}, {"pitch": 66, "tick": 180372, "length": 108, "velocity": 64}, {"pitch": 62, "tick": 180480, "length": 132, "velocity": 80}, {"pitch": 62, "tick": 180612, "length": 108, "velocity": 64}, {"pitch": 66, "tick": 180720, "length": 132, "velocity": 80}, {"pitch": 66, "tick": 180852, "length": 108, "velocity": 64}, {"pitch": 62, "tick": 180960, "length": 132, "velocity": 80}, {"pitch": 62, "tick": 181092, "length": 108, "velocity": 64}, {"pitch": 66, "tick": 181200, "length": 132, "velocity": 80}, {"pitch": 66, "tick": 181332, "length": 108, "velocity": 64}, {"pitch": 62, "tick": 181440, "length": 132, "velocity": 80}, {"pitch": 62, "tick": 181572, "length": 108, "velocity": 64}, {"pitch": 66, "tick": 181680, "length": 132, "velocity": 80}, {"pitch": 66, "tick": 181812, "length": 108, "velocity": 64}, {"pitch": 62, "tick": 181920, "length": 132, "velocity": 80}, {"pitch": 62, "tick": 182052, "length": 108, "velocity": 64}, {"pitch": 66, "tick": 182160, "length": 132, "velocity": 80}, {"pitch": 66, "tick": 182292, "length": 108, "velocity": 64}, {"pitch": 62, "tick": 182400, "length": 132, "velocity": 80}, {"pitch": 62, "tick": 182532, "length": 108, "velocity": 64}, {"pitch": 66, "tick": 182640, "length": 132, "velocity": 80}, {"pitch": 66, "tick": 182772, "length": 108, "velocity": 64}, {"pitch": 62, "tick": 182880, "length": 132, "velocity": 80}, {"pitch": 62, "tick": 183012, "length": 108, "velocity": 64}, {"pitch": 66, "tick": 183120, "length": 132, "velocity": 80}, {"pitch": 66, "tick": 183252, "length": 108, "velocity": 64}, {"pitch": 62, "tick": 183360, "length": 132, "velocity": 80}, {"pitch": 62, "tick": 183492, "length": 108, "velocity": 64}, {"pitch": 66, "tick": 183600, "length": 132, "velocity": 80}, {"pitch": 66, "tick": 183732, "length": 108, "velocity": 64}, {"pitch": 62, "tick": 183840, "length": 132, "velocity": 80}, {"pitch": 62, "tick": 183972, "length": 108, "velocity": 64}, {"pitch": 66, "tick": 184080, "length": 132, "velocity": 80}, {"pitch": 66, "tick": 184212, "length": 108, "velocity": 64}, {"pitch": 62, "tick": 184320, "length": 132, "velocity": 80}, {"pitch": 62, "tick": 184452, "length": 108, "velocity": 64}, {"pitch": 66, "tick": 184560, "length": 132, "velocity": 80}, {"pitch": 66, "tick": 184692, "length": 108, "velocity": 64}, {"pitch": 62, "tick": 184800, "length": 132, "velocity": 80}, {"pitch": 62, "tick": 184932, "length": 108, "velocity": 64}, {"pitch": 66, "tick": 185040, "length": 132, "velocity": 80}, {"pitch": 66, "tick": 185172, "length": 108, "velocity": 64}, {"pitch": 62, "tick": 185280, "length": 132, "velocity": 80}, {"pitch": 62, "tick": 185412, "length": 108, "velocity": 64}, {"pitch": 66, "tick": 185520, "length": 132, "velocity": 80}, {"pitch": 66, "tick": 185652, "length": 108, "velocity": 64}, {"pitch": 62, "tick": 185760, "length": 132, "velocity": 80}, {"pitch": 62, "tick": 185892, "length": 108, "velocity": 64}, {"pitch": 66, "tick": 186000, "length": 132, "velocity": 80}, {"pitch": 66, "tick": 186132, "length": 108, "velocity": 64}, {"pitch": 62, "tick": 186240, "length": 132, "velocity": 80}, {"pitch": 62, "tick": 186372, "length": 108, "velocity": 64}, {"pitch": 66, "tick": 186480, "length": 132, "velocity": 80}, {"pitch": 66, "tick": 186612, "length": 108, "velocity": 64}, {"pitch": 62, "tick": 186720, "length": 132, "velocity": 80}, {"pitch": 62, "tick": 186852, "length": 108, "velocity": 64}, {"pitch": 66, "tick": 186960, "length": 132, "velocity": 80}, {"pitch": 66, "tick": 187092, "length": 108, "velocity": 64}, {"pitch": 62, "tick": 187200, "length": 132, "velocity": 80}, {"pitch": 62, "tick": 187332, "length": 108, "velocity": 64}, {"pitch": 66, "tick": 187440, "length": 132, "velocity": 80}, {"pitch": 66, "tick": 187572, "length": 108, "velocity": 64}, {"pitch": 62, "tick": 187680, "length": 132, "velocity": 80}, {"pitch": 62, "tick": 187812, "length": 108, "velocity": 64}, {"pitch": 66, "tick": 187920, "length": 132, "velocity": 80}, {"pitch": 66, "tick": 188052, "length": 108, "velocity": 64}, {"pitch": 62, "tick": 188160, "length": 132, "velocity": 80}, {"pitch": 62, "tick": 188292, "length": 108, "velocity": 64}, {"pitch": 66, "tick": 188400, "length": 132, "velocity": 80}, {"pitch": 66, "tick": 188532, "length": 108, "velocity": 64}, {"pitch": 62, "tick": 188640, "length": 132, "velocity": 80}, {"pitch": 62, "tick": 188772, "length": 108, "velocity": 64}, {"pitch": 66, "tick": 188880, "length": 132, "velocity": 80}, {"pitch": 66, "tick": 189012, "length": 108, "velocity": 64}, {"pitch": 62, "tick": 189120, "length": 132, "velocity": 80}, {"pitch": 62, "tick": 189252, "length": 108, "velocity": 64}, {"pitch": 66, "tick": 189360, "length": 132, "velocity": 80}, {"pitch": 66, "tick": 189492, "length": 108, "velocity": 64}, {"pitch": 62, "tick": 189600, "length": 132, "velocity": 80}, {"pitch": 62, "tick": 189732, "length": 108, "velocity": 64}, {"pitch": 66, "tick": 189840, "length": 132, "velocity": 80}, {"pitch": 66, "tick": 189972, "length": 108, "velocity": 64}, {"pitch": 62, "tick": 190080, "length": 132, "velocity": 80}, {"pitch": 62, "tick": 190212, "length": 108, "velocity": 64}, {"pitch": 66, "tick": 190320, "length": 132, "velocity": 80}, {"pitch": 66, "tick": 190452, "length": 108, "velocity": 64}, {"pitch": 62, "tick": 190560, "length": 132, "velocity": 80}, {"pitch": 62, "tick": 190692, "length": 108, "velocity": 64}, {"pitch": 66, "tick": 190800, "length": 132, "velocity": 80}, {"pitch": 66, "tick": 190932, "length": 108, "velocity": 64}, {"pitch": 62, "tick": 191040, "length": 132, "velocity": 80}, {"pitch": 62, "tick": 191172, "length": 108, "velocity": 64}, {"pitch": 66, "tick": 191280, "length": 132, "velocity": 80}, {"pitch": 66, "tick": 191412, "length": 108, "velocity": 64}, {"pitch": 62, "tick": 191520, "length": 132, "velocity": 80}, {"pitch": 62, "tick": 191652, "length": 108, "velocity": 64}, {"pitch": 66, "tick": 191760, "length": 132, "velocity": 80}, {"pitch": 66, "tick": 191892, "length": 108, "velocity": 64}, {"pitch": 62, "tick": 192000, "length": 132, "velocity": 80}, {"pitch": 62, "tick": 192132, "length": 108, "velocity": 64}, {"pitch": 66, "tick": 192240, "length": 132, "velocity": 80}, {"pitch": 66, "tick": 192372, "length": 108, "velocity": 64}, {"pitch": 62, "tick": 192480, "length": 132, "velocity": 80}, {"pitch": 62, "tick": 192612, "length": 108, "velocity": 64}, {"pitch": 66, "tick": 192720, "length": 132, "velocity": 80}, {"pitch": 66, "tick": 192852, "length": 108, "velocity": 64}, {"pitch": 62, "tick": 192960, "length": 132, "velocity": 80}, {"pitch": 62, "tick": 193092, "length": 108, "velocity": 64}, {"pitch": 66, "tick": 193200, "length": 132, "velocity": 80}, {"pitch": 66, "tick": 193332, "length": 108, "velocity": 64}, {"pitch": 62, "tick": 193440, "length": 132, "velocity": 80}, {"pitch": 62, "tick": 193572, "length": 108, "velocity": 64}, {"pitch": 66, "tick": 193680, "length": 132, "velocity": 80}, {"pitch": 66, "tick": 193812, "length": 108, "velocity": 64}, {"pitch": 62, "tick": 193920, "length": 132, "velocity": 80}, {"pitch": 62, "tick": 194052, "length": 108, "velocity": 64}, {"pitch": 66, "tick": 194160, "length": 132, "velocity": 80}, {"pitch": 66, "tick": 194292, "length": 108, "velocity": 64}, {"pitch": 62, "tick": 194400, "length": 132, "velocity": 80}, {"pitch": 62, "tick": 194532, "length": 108, "velocity": 64}, {"pitch": 66, "tick": 194640, "length": 132, "velocity": 80}, {"pitch": 66, "tick": 194772, "length": 108, "velocity": 64}, {"pitch": 62, "tick": 194880, "length": 132, "velocity": 80}, {"pitch": 62, "tick": 195012, "length": 108, "velocity": 64}, {"pitch": 66, "tick": 195120, "length": 132, "velocity": 80}, {"pitch": 66, "tick": 195252, "length": 108, "velocity": 64}, {"pitch": 62, "tick": 195360, "length": 132, "velocity": 80}, {"pitch": 62, "tick": 195492, "length": 108, "velocity": 64}, {"pitch": 66, "tick": 195600, "length": 132, "velocity": 80}, {"pitch": 66, "tick": 195732, "length": 108, "velocity": 64}, {"pitch": 62, "tick": 195840, "length": 132, "velocity": 80}, {"pitch": 62, "tick": 195972, "length": 108, "velocity": 64}, {"pitch": 66, "tick": 196080, "length": 132, "velocity": 80}, {"pitch": 66, "tick": 196212, "length": 108, "velocity": 64}, {"pitch": 62, "tick": 196320, "length": 132, "velocity": 80}, {"pitch": 62, "tick": 196452, "length": 108, "velocity": 64}, {"pitch": 66, "tick": 196560, "length": 132, "velocity": 80}, {"pitch": 66, "tick": 196692, "length": 108, "velocity": 64}, {"pitch": 62, "tick": 196800, "length": 132, "velocity": 80}, {"pitch": 62, "tick": 196932, "length": 108, "velocity": 64}, {"pitch": 66, "tick": 197040, "length": 132, "velocity": 80}, {"pitch": 66, "tick": 197172, "length": 108, "velocity": 64}, {"pitch": 62, "tick": 197280, "length": 132, "velocity": 80}, {"pitch": 62, "tick": 197412, "length": 108, "velocity": 64}, {"pitch": 66, "tick": 197520, "length": 132, "velocity": 80}, {"pitch": 66, "tick": 197652, "length": 108, "velocity": 64}, {"pitch": 62, "tick": 197760, "length": 132, "velocity": 80}, {"pitch": 62, "tick": 197892, "length": 108, "velocity": 64}, {"pitch": 66, "tick": 198000, "length": 132, "velocity": 80}, {"pitch": 66, "tick": 198132, "length": 108, "velocity": 64}, {"pitch": 62, "tick": 198240, "length": 132, "velocity": 80}, {"pitch": 62, "tick": 198372, "length": 108, "velocity": 64}, {"pitch": 66, "tick": 198480, "length": 132, "velocity": 80}, {"pitch": 66, "tick": 198612, "length": 108, "velocity": 64}, {"pitch": 62, "tick": 198720, "length": 132, "velocity": 80}, {"pitch": 62, "tick": 198852, "length": 108, "velocity": 64}, {"pitch": 66, "tick": 198960, "length": 132, "velocity": 80}, {"pitch": 66, "tick": 199092, "length": 108, "velocity": 64}, {"pitch": 62, "tick": 199200, "length": 132, "velocity": 80}, {"pitch": 62, "tick": 199332, "length": 108, "velocity": 64}, {"pitch": 66, "tick": 199440, "length": 132, "velocity": 80}, {"pitch": 66, "tick": 199572, "length": 108, "velocity": 64}, {"pitch": 62, "tick": 199680, "length": 132, "velocity": 80}, {"pitch": 62, "tick": 199812, "length": 108, "velocity": 64}, {"pitch": 66, "tick": 199920, "length": 132, "velocity": 80}, {"pitch": 66, "tick": 200052, "length": 108, "velocity": 64}, {"pitch": 62, "tick": 200160, "length": 132, "velocity": 80}, {"pitch": 62, "tick": 200292, "length": 108, "velocity": 64}, {"pitch": 66, "tick": 200400, "length": 132, "velocity": 80}, {"pitch": 66, "tick": 200532, "length": 108, "velocity": 64}, {"pitch": 62, "tick": 200640, "length": 132, "velocity": 80}, {"pitch": 62, "tick": 200772, "length": 108, "velocity": 64}, {"pitch": 66, "tick": 200880, "length": 132, "velocity": 80}, {"pitch": 66, "tick": 201012, "length": 108, "velocity": 64}, {"pitch": 62, "tick": 201120, "length": 132, "velocity": 80}, {"pitch": 62, "tick": 201252, "length": 108, "velocity": 64}, {"pitch": 66, "tick": 201360, "length": 132, "velocity": 80}, {"pitch": 66, "tick": 201492, "length": 108, "velocity": 64}, {"pitch": 62, "tick": 201600, "length": 132, "velocity": 80}, {"pitch": 62, "tick": 201732, "length": 108, "velocity": 64}, {"pitch": 66, "tick": 201840, "length": 132, "velocity": 80}, {"pitch": 66, "tick": 201972, "length": 108, "velocity": 64}, {"pitch": 62, "tick": 202080, "length": 132, "velocity": 80}, {"pitch": 62, "tick": 202212, "length": 108, "velocity": 64}, {"pitch": 66, "tick": 202320, "length": 132, "velocity": 80}, {"pitch": 66, "tick": 202452, "length": 108, "velocity": 64}, {"pitch": 62, "tick": 202560, "length": 132, "velocity": 80}, {"pitch": 62, "tick": 202692, "length": 108, "velocity": 64}, {"pitch": 66, "tick": 202800, "length": 132, "velocity": 80}, {"pitch": 66, "tick": 202932, "length": 108, "velocity": 64}, {"pitch": 62, "tick": 203040, "length": 132, "velocity": 80}, {"pitch": 62, "tick": 203172, "length": 108, "velocity": 64}, {"pitch": 66, "tick": 203280, "length": 132, "velocity": 80}, {"pitch": 66, "tick": 203412, "length": 108, "velocity": 64}, {"pitch": 62, "tick": 203520, "length": 132, "velocity": 80}, {"pitch": 62, "tick": 203652, "length": 108, "velocity": 64}, {"pitch": 66, "tick": 203760, "length": 132, "velocity": 80}, {"pitch": 66, "tick": 203892, "length": 108, "velocity": 64}, {"pitch": 62, "tick": 204000, "length": 132, "velocity": 80}, {"pitch": 62, "tick": 204132, "length": 108, "velocity": 64}, {"pitch": 66, "tick": 204240, "length": 132, "velocity": 80}, {"pitch": 66, "tick": 204372, "length": 108, "velocity": 64}, {"pitch": 62, "tick": 204480, "length": 132, "velocity": 80}, {"pitch": 62, "tick": 204612, "length": 108, "velocity": 64}, {"pitch": 66, "tick": 204720, "length": 132, "velocity": 80}, {"pitch": 66, "tick": 204852, "length": 108, "velocity": 64}, {"pitch": 62, "tick": 204960, "length": 132, "velocity": 80}, {"pitch": 62, "tick": 205092, "length": 108, "velocity": 64}, {"pitch": 66, "tick": 205200, "length": 132, "velocity": 80}, {"pitch": 66, "tick": 205332, "length": 108, "velocity": 64}, {"pitch": 62, "tick": 205440, "length": 132, "velocity": 80}, {"pitch": 62, "tick": 205572, "length": 108, "velocity": 64}, {"pitch": 66, "tick": 205680, "length": 132, "velocity": 80}, {"pitch": 66, "tick": 205812, "length": 108, "velocity": 64}, {"pitch": 62, "tick": 205920, "length": 132, "velocity": 80}, {"pitch": 62, "tick": 206052, "length": 108, "velocity": 64}, {"pitch": 66, "tick": 206160, "length": 132, "velocity": 80}, {"pitch": 66, "tick": 206292, "length": 108, "velocity": 64}, {"pitch": 62, "tick": 206400, "length": 132, "velocity": 80}, {"pitch": 62, "tick": 206532, "length": 108, "velocity": 64}, {"pitch": 66, "tick": 206640, "length": 132, "velocity": 80}, {"pitch": 66, "tick": 206772, "length": 108, "velocity": 64}, {"pitch": 62, "tick": 206880, "length": 132, "velocity": 80}, {"pitch": 62, "tick": 207012, "length": 108, "velocity": 64}, {"pitch": 66, "tick": 207120, "length": 132, "velocity": 80}, {"pitch": 66, "tick": 207252, "length": 108, "velocity": 64}, {"pitch": 62, "tick": 207360, "length": 132, "velocity": 80}, {"pitch": 62, "tick": 207492, "length": 108, "velocity": 64}, {"pitch": 66, "tick": 207600, "length": 132, "velocity": 80}, {"pitch": 66, "tick": 207732, "length": 108, "velocity": 64}, {"pitch": 62, "tick": 207840, "length": 132, "velocity": 80}, {"pitch": 62, "tick": 207972, "length": 108, "velocity": 64}, {"pitch": 66, "tick": 208080, "length": 132, "velocity": 80}, {"pitch": 66, "tick": 208212, "length": 108, "velocity": 64}, {"pitch": 62, "tick": 208320, "length": 132, "velocity": 80}, {"pitch": 62, "tick": 208452, "length": 108, "velocity": 64}, {"pitch": 66, "tick": 208560, "length": 132, "velocity": 80}, {"pitch": 66, "tick": 208692, "length": 108, "velocity": 64}, {"pitch": 62, "tick": 208800, "length": 132, "velocity": 80}, {"pitch": 62, "tick": 208932, "length": 108, "velocity": 64}, {"pitch": 66, "tick": 209040, "length": 132, "velocity": 80}, {"pitch": 66, "tick": 209172, "length": 108, "velocity": 64}, {"pitch": 62, "tick": 209280, "length": 132, "velocity": 80}, {"pitch": 62, "tick": 209412, "length": 108, "velocity": 64}, {"pitch": 66, "tick": 209520, "length": 132, "velocity": 80}, {"pitch": 66, "tick": 209652, "length": 108, "velocity": 64}, {"pitch": 62, "tick": 209760, "length": 132, "velocity": 80}, {"pitch": 62, "tick": 209892, "length": 108, "velocity": 64}, {"pitch": 66, "tick": 210000, "length": 132, "velocity": 80}, {"pitch": 66, "tick": 210132, "length": 108, "velocity": 64}, {"pitch": 62, "tick": 210240, "length": 132, "velocity": 80}, {"pitch": 62, "tick": 210372, "length": 108, "velocity": 64}, {"pitch": 66, "tick": 210480, "length": 132, "velocity": 80}, {"pitch": 66, "tick": 210612, "length": 108, "velocity": 64}, {"pitch": 62, "tick": 210720, "length": 132, "velocity": 80}, {"pitch": 62, "tick": 210852, "length": 108, "velocity": 64}, {"pitch": 66, "tick": 210960, "length": 132, "velocity": 80}, {"pitch": 66, "tick": 211092, "length": 108, "velocity": 64}, {"pitch": 62, "tick": 211200, "length": 132, "velocity": 80}, {"pitch": 62, "tick": 211332, "length": 108, "velocity": 64}, {"pitch": 66, "tick": 211440, "length": 132, "velocity": 80}, {"pitch": 66, "tick": 211572, "length": 108, "velocity": 64}, {"pitch": 62, "tick": 211680, "length": 132, "velocity": 80}, {"pitch": 62, "tick": 211812, "length": 108, "velocity": 64}, {"pitch": 66, "tick": 211920, "length": 132, "velocity": 80}, {"pitch": 66, "tick": 212052, "length": 108, "velocity": 64}, {"pitch": 62, "tick": 212160, "length": 132, "velocity": 80}, {"pitch": 62, "tick": 212292, "length": 108, "velocity": 64}, {"pitch": 66, "tick": 212400, "length": 132, "velocity": 80}, {"pitch": 66, "tick": 212532, "length": 108, "velocity": 64}, {"pitch": 62, "tick": 212640, "length": 132, "velocity": 80}, {"pitch": 62, "tick": 212772, "length": 108, "velocity": 64}, {"pitch": 66, "tick": 212880, "length": 132, "velocity": 80}, {"pitch": 66, "tick": 213012, "length": 108, "velocity": 64}, {"pitch": 62, "tick": 213120, "length": 132, "velocity": 80}, {"pitch": 62, "tick": 213252, "length": 108, "velocity": 64}, {"pitch": 66, "tick": 213360, "length": 132, "velocity": 80}, {"pitch": 66, "tick": 213492, "length": 108, "velocity": 64}, {"pitch": 62, "tick": 213600, "length": 132, "velocity": 80}, {"pitch": 62, "tick": 213732, "length": 108, "velocity": 64}, {"pitch": 66, "tick": 213840, "length": 132, "velocity": 80}, {"pitch": 66, "tick": 213972, "length": 108, "velocity": 64}, {"pitch": 62, "tick": 214080, "length": 132, "velocity": 80}, {"pitch": 62, "tick": 214212, "length": 108, "velocity": 64}, {"pitch": 66, "tick": 214320, "length": 132, "velocity": 80}, {"pitch": 66, "tick": 214452, "length": 108, "velocity": 64}, {"pitch": 62, "tick": 214560, "length": 132, "velocity": 80}, {"pitch": 62, "tick": 214692, "length": 108, "velocity": 64}, {"pitch": 66, "tick": 214800, "length": 132, "velocity": 80}, {"pitch": 66, "tick": 214932, "length": 108, "velocity": 64}, {"pitch": 62, "tick": 215040, "length": 132, "velocity": 80}, {"pitch": 62, "tick": 215172, "length": 108, "velocity": 64}, {"pitch": 66, "tick": 215280, "length": 132, "velocity": 80}, {"pitch": 66, "tick": 215412, "length": 108, "velocity": 64}, {"pitch": 62, "tick": 215520, "length": 132, "velocity": 80}, {"pitch": 62, "tick": 215652, "length": 108, "velocity": 64}, {"pitch": 66, "tick": 215760, "length": 132, "velocity": 80}, {"pitch": 66, "tick": 215892, "length": 108, "velocity": 64}, {"pitch": 62, "tick": 216000, "length": 132, "velocity": 80}, {"pitch": 62, "tick": 216132, "length": 108, "velocity": 64}, {"pitch": 66, "tick": 216240, "length": 132, "velocity": 80}, {"pitch": 66, "tick": 216372, "length": 108, "velocity": 64}, {"pitch": 62, "tick": 216480, "length": 132, "velocity": 80}, {"pitch": 62, "tick": 216612, "length": 108, "velocity": 64}, {"pitch": 66, "tick": 216720, "length": 132, "velocity": 80}, {"pitch": 66, "tick": 216852, "length": 108, "velocity": 64}, {"pitch": 62, "tick": 270720, "length": 132, "velocity": 80}, {"pitch": 62, "tick": 270852, "length": 108, "velocity": 64}, {"pitch": 66, "tick": 270960, "length": 132, "velocity": 80}, {"pitch": 66, "tick": 271092, "length": 108, "velocity": 64}, {"pitch": 62, "tick": 271200, "length": 132, "velocity": 80}, {"pitch": 62, "tick": 271332, "length": 108, "velocity": 64}, {"pitch": 66, "tick": 271440, "length": 132, "velocity": 80}, {"pitch": 66, "tick": 271572, "length": 108, "velocity": 64}, {"pitch": 62, "tick": 271680, "length": 132, "velocity": 80}, {"pitch": 62, "tick": 271812, "length": 108, "velocity": 64}, {"pitch": 66, "tick": 271920, "length": 132, "velocity": 80}, {"pitch": 66, "tick": 272052, "length": 108, "velocity": 64}, {"pitch": 62, "tick": 272160, "length": 132, "velocity": 80}, {"pitch": 62, "tick": 272292, "length": 108, "velocity": 64}, {"pitch": 66, "tick": 272400, "length": 132, "velocity": 80}, {"pitch": 66, "tick": 272532, "length": 108, "velocity": 64}, {"pitch": 62, "tick": 272640, "length": 132, "velocity": 80}, {"pitch": 62, "tick": 272772, "length": 108, "velocity": 64}, {"pitch": 66, "tick": 272880, "length": 132, "velocity": 80}, {"pitch": 66, "tick": 273012, "length": 108, "velocity": 64}, {"pitch": 62, "tick": 273120, "length": 132, "velocity": 80}, {"pitch": 62, "tick": 273252, "length": 108, "velocity": 64}, {"pitch": 66, "tick": 273360, "length": 132, "velocity": 80}, {"pitch": 66, "tick": 273492, "length": 108, "velocity": 64}, {"pitch": 62, "tick": 273600, "length": 132, "velocity": 80}, {"pitch": 62, "tick": 273732, "length": 108, "velocity": 64}, {"pitch": 66, "tick": 273840, "length": 132, "velocity": 80}, {"pitch": 66, "tick": 273972, "length": 108, "velocity": 64}, {"pitch": 62, "tick": 274080, "length": 132, "velocity": 80}, {"pitch": 62, "tick": 274212, "length": 108, "velocity": 64}, {"pitch": 66, "tick": 274320, "length": 132, "velocity": 80}, {"pitch": 66, "tick": 274452, "length": 108, "velocity": 64}, {"pitch": 62, "tick": 274560, "length": 132, "velocity": 80}, {"pitch": 62, "tick": 274692, "length": 108, "velocity": 64}, {"pitch": 66, "tick": 274800, "length": 132, "velocity": 80}, {"pitch": 66, "tick": 274932, "length": 108, "velocity": 64}, {"pitch": 62, "tick": 275040, "length": 132, "velocity": 80}, {"pitch": 62, "tick": 275172, "length": 108, "velocity": 64}, {"pitch": 66, "tick": 275280, "length": 132, "velocity": 80}, {"pitch": 66, "tick": 275412, "length": 108, "velocity": 64}, {"pitch": 62, "tick": 275520, "length": 132, "velocity": 80}, {"pitch": 62, "tick": 275652, "length": 108, "velocity": 64}, {"pitch": 66, "tick": 275760, "length": 132, "velocity": 80}, {"pitch": 66, "tick": 275892, "length": 108, "velocity": 64}, {"pitch": 62, "tick": 276000, "length": 132, "velocity": 80}, {"pitch": 62, "tick": 276132, "length": 108, "velocity": 64}, {"pitch": 66, "tick": 276240, "length": 132, "velocity": 80}, {"pitch": 66, "tick": 276372, "length": 108, "velocity": 64}, {"pitch": 62, "tick": 276480, "length": 132, "velocity": 80}, {"pitch": 62, "tick": 276612, "length": 108, "velocity": 64}, {"pitch": 66, "tick": 276720, "length": 132, "velocity": 80}, {"pitch": 66, "tick": 276852, "length": 108, "velocity": 64}, {"pitch": 62, "tick": 276960, "length": 132, "velocity": 80}, {"pitch": 62, "tick": 277092, "length": 108, "velocity": 64}, {"pitch": 66, "tick": 277200, "length": 132, "velocity": 80}, {"pitch": 66, "tick": 277332, "length": 108, "velocity": 64}, {"pitch": 62, "tick": 277440, "length": 132, "velocity": 80}, {"pitch": 62, "tick": 277572, "length": 108, "velocity": 64}, {"pitch": 66, "tick": 277680, "length": 132, "velocity": 80}, {"pitch": 66, "tick": 277812, "length": 108, "velocity": 64}, {"pitch": 62, "tick": 277920, "length": 132, "velocity": 80}, {"pitch": 62, "tick": 278052, "length": 108, "velocity": 64}, {"pitch": 66, "tick": 278160, "length": 132, "velocity": 80}, {"pitch": 66, "tick": 278292, "length": 108, "velocity": 64}, {"pitch": 62, "tick": 278400, "length": 132, "velocity": 80}, {"pitch": 62, "tick": 278532, "length": 108, "velocity": 64}, {"pitch": 66, "tick": 278640, "length": 132, "velocity": 80}, {"pitch": 66, "tick": 278772, "length": 108, "velocity": 64}, {"pitch": 62, "tick": 278880, "length": 132, "velocity": 80}, {"pitch": 62, "tick": 279012, "length": 108, "velocity": 64}, {"pitch": 66, "tick": 279120, "length": 132, "velocity": 80}, {"pitch": 66, "tick": 279252, "length": 108, "velocity": 64}, {"pitch": 62, "tick": 279360, "length": 132, "velocity": 80}, {"pitch": 62, "tick": 279492, "length": 108, "velocity": 64}, {"pitch": 66, "tick": 279600, "length": 132, "velocity": 80}, {"pitch": 66, "tick": 279732, "length": 108, "velocity": 64}, {"pitch": 62, "tick": 279840, "length": 132, "velocity": 80}, {"pitch": 62, "tick": 279972, "length": 108, "velocity": 64}, {"pitch": 66, "tick": 280080, "length": 132, "velocity": 80}, {"pitch": 66, "tick": 280212, "length": 108, "velocity": 64}, {"pitch": 62, "tick": 280320, "length": 132, "velocity": 80}, {"pitch": 62, "tick": 280452, "length": 108, "velocity": 64}, {"pitch": 66, "tick": 280560, "length": 132, "velocity": 80}, {"pitch": 66, "tick": 280692, "length": 108, "velocity": 64}, {"pitch": 62, "tick": 280800, "length": 132, "velocity": 80}, {"pitch": 62, "tick": 280932, "length": 108, "velocity": 64}, {"pitch": 66, "tick": 281040, "length": 132, "velocity": 80}, {"pitch": 66, "tick": 281172, "length": 108, "velocity": 64}, {"pitch": 62, "tick": 281280, "length": 132, "velocity": 80}, {"pitch": 62, "tick": 281412, "length": 108, "velocity": 64}, {"pitch": 66, "tick": 281520, "length": 132, "velocity": 80}, {"pitch": 66, "tick": 281652, "length": 108, "velocity": 64}, {"pitch": 62, "tick": 281760, "length": 132, "velocity": 80}, {"pitch": 62, "tick": 281892, "length": 108, "velocity": 64}, {"pitch": 66, "tick": 282000, "length": 132, "velocity": 80}, {"pitch": 66, "tick": 282132, "length": 108, "velocity": 64}, {"pitch": 62, "tick": 282240, "length": 132, "velocity": 80}, {"pitch": 62, "tick": 282372, "length": 108, "velocity": 64}, {"pitch": 66, "tick": 282480, "length": 132, "velocity": 80}, {"pitch": 66, "tick": 282612, "length": 108, "velocity": 64}, {"pitch": 62, "tick": 282720, "length": 132, "velocity": 80}, {"pitch": 62, "tick": 282852, "length": 108, "velocity": 64}, {"pitch": 66, "tick": 282960, "length": 132, "velocity": 80}, {"pitch": 66, "tick": 283092, "length": 108, "velocity": 64}, {"pitch": 62, "tick": 283200, "length": 132, "velocity": 80}, {"pitch": 62, "tick": 283332, "length": 108, "velocity": 64}, {"pitch": 66, "tick": 283440, "length": 132, "velocity": 80}, {"pitch": 66, "tick": 283572, "length": 108, "velocity": 64}, {"pitch": 62, "tick": 283680, "length": 132, "velocity": 80}, {"pitch": 62, "tick": 283812, "length": 108, "velocity": 64}, {"pitch": 66, "tick": 283920, "length": 132, "velocity": 80}, {"pitch": 66, "tick": 284052, "length": 108, "velocity": 64}, {"pitch": 62, "tick": 284160, "length": 132, "velocity": 80}, {"pitch": 62, "tick": 284292, "length": 108, "velocity": 64}, {"pitch": 66, "tick": 284400, "length": 132, "velocity": 80}, {"pitch": 66, "tick": 284532, "length": 108, "velocity": 64}, {"pitch": 62, "tick": 284640, "length": 132, "velocity": 80}, {"pitch": 62, "tick": 284772, "length": 108, "velocity": 64}, {"pitch": 66, "tick": 284880, "length": 132, "velocity": 80}, {"pitch": 66, "tick": 285012, "length": 108, "velocity": 64}, {"pitch": 62, "tick": 285120, "length": 132, "velocity": 80}, {"pitch": 62, "tick": 285252, "length": 108, "velocity": 64}, {"pitch": 66, "tick": 285360, "length": 132, "velocity": 80}, {"pitch": 66, "tick": 285492, "length": 108, "velocity": 64}, {"pitch": 62, "tick": 285600, "length": 132, "velocity": 80}, {"pitch": 62, "tick": 285732, "length": 108, "velocity": 64}, {"pitch": 66, "tick": 285840, "length": 132, "velocity": 80}, {"pitch": 66, "tick": 285972, "length": 108, "velocity": 64}, {"pitch": 62, "tick": 286080, "length": 132, "velocity": 80}, {"pitch": 62, "tick": 286212, "length": 108, "velocity": 64}, {"pitch": 66, "tick": 286320, "length": 132, "velocity": 80}, {"pitch": 66, "tick": 286452, "length": 108, "velocity": 64}, {"pitch": 62, "tick": 286560, "length": 132, "velocity": 80}, {"pitch": 62, "tick": 286692, "length": 108, "velocity": 64}, {"pitch": 66, "tick": 286800, "length": 132, "velocity": 80}, {"pitch": 66, "tick": 286932, "length": 108, "velocity": 64}, {"pitch": 62, "tick": 287040, "length": 132, "velocity": 80}, {"pitch": 62, "tick": 287172, "length": 108, "velocity": 64}, {"pitch": 66, "tick": 287280, "length": 132, "velocity": 80}, {"pitch": 66, "tick": 287412, "length": 108, "velocity": 64}, {"pitch": 62, "tick": 287520, "length": 132, "velocity": 80}, {"pitch": 62, "tick": 287652, "length": 108, "velocity": 64}, {"pitch": 66, "tick": 287760, "length": 132, "velocity": 80}, {"pitch": 66, "tick": 287892, "length": 108, "velocity": 64}, {"pitch": 62, "tick": 288000, "length": 132, "velocity": 80}, {"pitch": 62, "tick": 288132, "length": 108, "velocity": 64}, {"pitch": 66, "tick": 288240, "length": 132, "velocity": 80}, {"pitch": 66, "tick": 288372, "length": 108, "velocity": 64}, {"pitch": 62, "tick": 288480, "length": 132, "velocity": 80}, {"pitch": 62, "tick": 288612, "length": 108, "velocity": 64}, {"pitch": 66, "tick": 288720, "length": 132, "velocity": 80}, {"pitch": 66, "tick": 288852, "length": 108, "velocity": 64}, {"pitch": 62, "tick": 288960, "length": 132, "velocity": 80}, {"pitch": 62, "tick": 289092, "length": 108, "velocity": 64}, {"pitch": 66, "tick": 289200, "length": 132, "velocity": 80}, {"pitch": 66, "tick": 289332, "length": 108, "velocity": 64}, {"pitch": 62, "tick": 289440, "length": 132, "velocity": 80}, {"pitch": 62, "tick": 289572, "length": 108, "velocity": 64}, {"pitch": 66, "tick": 289680, "length": 132, "velocity": 80}, {"pitch": 66, "tick": 289812, "length": 108, "velocity": 64}, {"pitch": 62, "tick": 289920, "length": 132, "velocity": 80}, {"pitch": 62, "tick": 290052, "length": 108, "velocity": 64}, {"pitch": 66, "tick": 290160, "length": 132, "velocity": 80}, {"pitch": 66, "tick": 290292, "length": 108, "velocity": 64}, {"pitch": 62, "tick": 290400, "length": 132, "velocity": 80}, {"pitch": 62, "tick": 290532, "length": 108, "velocity": 64}, {"pitch": 66, "tick": 290640, "length": 132, "velocity": 80}, {"pitch": 66, "tick": 290772, "length": 108, "velocity": 64}, {"pitch": 62, "tick": 290880, "length": 132, "velocity": 80}, {"pitch": 62, "tick": 291012, "length": 108, "velocity": 64}, {"pitch": 66, "tick": 291120, "length": 132, "velocity": 80}, {"pitch": 66, "tick": 291252, "length": 108, "velocity": 64}, {"pitch": 62, "tick": 291360, "length": 132, "velocity": 80}, {"pitch": 62, "tick": 291492, "length": 108, "velocity": 64}, {"pitch": 66, "tick": 291600, "length": 132, "velocity": 80}, {"pitch": 66, "tick": 291732, "length": 108, "velocity": 64}, {"pitch": 62, "tick": 291840, "length": 132, "velocity": 80}, {"pitch": 62, "tick": 291972, "length": 108, "velocity": 64}, {"pitch": 66, "tick": 292080, "length": 132, "velocity": 80}, {"pitch": 66, "tick": 292212, "length": 108, "velocity": 64}, {"pitch": 62, "tick": 292320, "length": 132, "velocity": 80}, {"pitch": 62, "tick": 292452, "length": 108, "velocity": 64}, {"pitch": 66, "tick": 292560, "length": 132, "velocity": 80}, {"pitch": 66, "tick": 292692, "length": 108, "velocity": 64}, {"pitch": 62, "tick": 292800, "length": 132, "velocity": 80}, {"pitch": 62, "tick": 292932, "length": 108, "velocity": 64}, {"pitch": 66, "tick": 293040, "length": 132, "velocity": 80}, {"pitch": 66, "tick": 293172, "length": 108, "velocity": 64}, {"pitch": 62, "tick": 293280, "length": 132, "velocity": 80}, {"pitch": 62, "tick": 293412, "length": 108, "velocity": 64}, {"pitch": 66, "tick": 293520, "length": 132, "velocity": 80}, {"pitch": 66, "tick": 293652, "length": 108, "velocity": 64}, {"pitch": 62, "tick": 293760, "length": 132, "velocity": 80}, {"pitch": 62, "tick": 293892, "length": 108, "velocity": 64}, {"pitch": 66, "tick": 294000, "length": 132, "velocity": 80}, {"pitch": 66, "tick": 294132, "length": 108, "velocity": 64}, {"pitch": 62, "tick": 294240, "length": 132, "velocity": 80}, {"pitch": 62, "tick": 294372, "length": 108, "velocity": 64}, {"pitch": 66, "tick": 294480, "length": 132, "velocity": 80}, {"pitch": 66, "tick": 294612, "length": 108, "velocity": 64}, {"pitch": 62, "tick": 294720, "length": 132, "velocity": 80}, {"pitch": 62, "tick": 294852, "length": 108, "velocity": 64}, {"pitch": 66, "tick": 294960, "length": 132, "velocity": 80}, {"pitch": 66, "tick": 295092, "length": 108, "velocity": 64}, {"pitch": 62, "tick": 295200, "length": 132, "velocity": 80}, {"pitch": 62, "tick": 295332, "length": 108, "velocity": 64}, {"pitch": 66, "tick": 295440, "length": 132, "velocity": 80}, {"pitch": 66, "tick": 295572, "length": 108, "velocity": 64}, {"pitch": 62, "tick": 295680, "length": 132, "velocity": 80}, {"pitch": 62, "tick": 295812, "length": 108, "velocity": 64}, {"pitch": 66, "tick": 295920, "length": 132, "velocity": 80}, {"pitch": 66, "tick": 296052, "length": 108, "velocity": 64}, {"pitch": 62, "tick": 296160, "length": 132, "velocity": 80}, {"pitch": 62, "tick": 296292, "length": 108, "velocity": 64}, {"pitch": 66, "tick": 296400, "length": 132, "velocity": 80}, {"pitch": 66, "tick": 296532, "length": 108, "velocity": 64}, {"pitch": 62, "tick": 296640, "length": 132, "velocity": 80}, {"pitch": 62, "tick": 296772, "length": 108, "velocity": 64}, {"pitch": 66, "tick": 296880, "length": 132, "velocity": 80}, {"pitch": 66, "tick": 297012, "length": 108, "velocity": 64}, {"pitch": 62, "tick": 297120, "length": 132, "velocity": 80}, {"pitch": 62, "tick": 297252, "length": 108, "velocity": 64}, {"pitch": 66, "tick": 297360, "length": 132, "velocity": 80}, {"pitch": 66, "tick": 297492, "length": 108, "velocity": 64}, {"pitch": 62, "tick": 297600, "length": 132, "velocity": 80}, {"pitch": 62, "tick": 297732, "length": 108, "velocity": 64}, {"pitch": 66, "tick": 297840, "length": 132, "velocity": 80}, {"pitch": 66, "tick": 297972, "length": 108, "velocity": 64}, {"pitch": 62, "tick": 298080, "length": 132, "velocity": 80}, {"pitch": 62, "tick": 298212, "length": 108, "velocity": 64}, {"pitch": 66, "tick": 298320, "length": 132, "velocity": 80}, {"pitch": 66, "tick": 298452, "length": 108, "velocity": 64}, {"pitch": 62, "tick": 298560, "length": 132, "velocity": 80}, {"pitch": 62, "tick": 298692, "length": 108, "velocity": 64}, {"pitch": 66, "tick": 298800, "length": 132, "velocity": 80}, {"pitch": 66, "tick": 298932, "length": 108, "velocity": 64}, {"pitch": 62, "tick": 299040, "length": 132, "velocity": 80}, {"pitch": 62, "tick": 299172, "length": 108, "velocity": 64}, {"pitch": 66, "tick": 299280, "length": 132, "velocity": 80}, {"pitch": 66, "tick": 299412, "length": 108, "velocity": 64}, {"pitch": 62, "tick": 299520, "length": 132, "velocity": 80}, {"pitch": 62, "tick": 299652, "length": 108, "velocity": 64}, {"pitch": 66, "tick": 299760, "length": 132, "velocity": 80}, {"pitch": 66, "tick": 299892, "length": 108, "velocity": 64}, {"pitch": 62, "tick": 300000, "length": 132, "velocity": 80}, {"pitch": 62, "tick": 300132, "length": 108, "velocity": 64}, {"pitch": 66, "tick": 300240, "length": 132, "velocity": 80}, {"pitch": 66, "tick": 300372, "length": 108, "velocity": 64}, {"pitch": 62, "tick": 300480, "length": 132, "velocity": 80}, {"pitch": 62, "tick": 300612, "length": 108, "velocity": 64}, {"pitch": 66, "tick": 300720, "length": 132, "velocity": 80}, {"pitch": 66, "tick": 300852, "length": 108, "velocity": 64}, {"pitch": 62, "tick": 300960, "length": 132, "velocity": 80}, {"pitch": 62, "tick": 301092, "length": 108, "velocity": 64}, {"pitch": 66, "tick": 301200, "length": 132, "velocity": 80}, {"pitch": 66, "tick": 301332, "length": 108, "velocity": 64}, {"pitch": 62, "tick": 301440, "length": 132, "velocity": 80}, {"pitch": 62, "tick": 301572, "length": 108, "velocity": 64}, {"pitch": 66, "tick": 301680, "length": 132, "velocity": 80}, {"pitch": 66, "tick": 301812, "length": 108, "velocity": 64}, {"pitch": 62, "tick": 301920, "length": 132, "velocity": 80}, {"pitch": 62, "tick": 302052, "length": 108, "velocity": 64}, {"pitch": 66, "tick": 302160, "length": 132, "velocity": 80}, {"pitch": 66, "tick": 302292, "length": 108, "velocity": 64}, {"pitch": 62, "tick": 302400, "length": 132, "velocity": 80}, {"pitch": 62, "tick": 302532, "length": 108, "velocity": 64}, {"pitch": 66, "tick": 302640, "length": 132, "velocity": 80}, {"pitch": 66, "tick": 302772, "length": 108, "velocity": 64}, {"pitch": 62, "tick": 302880, "length": 132, "velocity": 80}, {"pitch": 62, "tick": 303012, "length": 108, "velocity": 64}, {"pitch": 66, "tick": 303120, "length": 132, "velocity": 80}, {"pitch": 66, "tick": 303252, "length": 108, "velocity": 64}, {"pitch": 62, "tick": 303360, "length": 132, "velocity": 80}, {"pitch": 62, "tick": 303492, "length": 108, "velocity": 64}, {"pitch": 66, "tick": 303600, "length": 132, "velocity": 80}, {"pitch": 66, "tick": 303732, "length": 108, "velocity": 64}, {"pitch": 62, "tick": 303840, "length": 132, "velocity": 80}, {"pitch": 62, "tick": 303972, "length": 108, "velocity": 64}, {"pitch": 66, "tick": 304080, "length": 132, "velocity": 80}, {"pitch": 66, "tick": 304212, "length": 108, "velocity": 64}, {"pitch": 62, "tick": 304320, "length": 132, "velocity": 80}, {"pitch": 62, "tick": 304452, "length": 108, "velocity": 64}, {"pitch": 66, "tick": 304560, "length": 132, "velocity": 80}, {"pitch": 66, "tick": 304692, "length": 108, "velocity": 64}, {"pitch": 62, "tick": 304800, "length": 132, "velocity": 80}, {"pitch": 62, "tick": 304932, "length": 108, "velocity": 64}, {"pitch": 66, "tick": 305040, "length": 132, "velocity": 80}, {"pitch": 66, "tick": 305172, "length": 108, "velocity": 64}, {"pitch": 62, "tick": 305280, "length": 132, "velocity": 80}, {"pitch": 62, "tick": 305412, "length": 108, "velocity": 64}, {"pitch": 66, "tick": 305520, "length": 132, "velocity": 80}, {"pitch": 66, "tick": 305652, "length": 108, "velocity": 64}, {"pitch": 62, "tick": 305760, "length": 132, "velocity": 80}, {"pitch": 62, "tick": 305892, "length": 108, "velocity": 64}, {"pitch": 66, "tick": 306000, "length": 132, "velocity": 80}, {"pitch": 66, "tick": 306132, "length": 108, "velocity": 64}, {"pitch": 62, "tick": 306240, "length": 132, "velocity": 80}, {"pitch": 62, "tick": 306372, "length": 108, "velocity": 64}, {"pitch": 66, "tick": 306480, "length": 132, "velocity": 80}, {"pitch": 66, "tick": 306612, "length": 108, "velocity": 64}, {"pitch": 62, "tick": 306720, "length": 132, "velocity": 80}, {"pitch": 62, "tick": 306852, "length": 108, "velocity": 64}, {"pitch": 66, "tick": 306960, "length": 132, "velocity": 80}, {"pitch": 66, "tick": 307092, "length": 108, "velocity": 64}, {"pitch": 62, "tick": 307200, "length": 132, "velocity": 80}, {"pitch": 62, "tick": 307332, "length": 108, "velocity": 64}, {"pitch": 66, "tick": 307440, "length": 132, "velocity": 80}, {"pitch": 66, "tick": 307572, "length": 108, "velocity": 64}, {"pitch": 62, "tick": 307680, "length": 132, "velocity": 80}, {"pitch": 62, "tick": 307812, "length": 108, "velocity": 64}, {"pitch": 66, "tick": 307920, "length": 132, "velocity": 80}, {"pitch": 66, "tick": 308052, "length": 108, "velocity": 64}, {"pitch": 62, "tick": 308160, "length": 132, "velocity": 80}, {"pitch": 62, "tick": 308292, "length": 108, "velocity": 64}, {"pitch": 66, "tick": 308400, "length": 132, "velocity": 80}, {"pitch": 66, "tick": 308532, "length": 108, "velocity": 64}, {"pitch": 62, "tick": 308640, "length": 132, "velocity": 80}, {"pitch": 62, "tick": 308772, "length": 108, "velocity": 64}, {"pitch": 66, "tick": 308880, "length": 132, "velocity": 80}, {"pitch": 66, "tick": 309012, "length": 108, "velocity": 64}, {"pitch": 62, "tick": 309120, "length": 132, "velocity": 80}, {"pitch": 62, "tick": 309252, "length": 108, "velocity": 64}, {"pitch": 66, "tick": 309360, "length": 132, "velocity": 80}, {"pitch": 66, "tick": 309492, "length": 108, "velocity": 64}, {"pitch": 62, "tick": 309600, "length": 132, "velocity": 80}, {"pitch": 62, "tick": 309732, "length": 108, "velocity": 64}, {"pitch": 66, "tick": 309840, "length": 132, "velocity": 80}, {"pitch": 66, "tick": 309972, "length": 108, "velocity": 64}, {"pitch": 62, "tick": 310080, "length": 132, "velocity": 80}, {"pitch": 62, "tick": 310212, "length": 108, "velocity": 64}, {"pitch": 66, "tick": 310320, "length": 132, "velocity": 80}, {"pitch": 66, "tick": 310452, "length": 108, "velocity": 64}, {"pitch": 62, "tick": 310560, "length": 132, "velocity": 80}, {"pitch": 62, "tick": 310692, "length": 108, "velocity": 64}, {"pitch": 66, "tick": 310800, "length": 132, "velocity": 80}, {"pitch": 66, "tick": 310932, "length": 108, "velocity": 64}, {"pitch": 62, "tick": 311040, "length": 132, "velocity": 80}, {"pitch": 62, "tick": 311172, "length": 108, "velocity": 64}, {"pitch": 66, "tick": 311280, "length": 132, "velocity": 80}, {"pitch": 66, "tick": 311412, "length": 108, "velocity": 64}, {"pitch": 62, "tick": 311520, "length": 132, "velocity": 80}, {"pitch": 62, "tick": 311652, "length": 108, "velocity": 64}, {"pitch": 66, "tick": 311760, "length": 132, "velocity": 80}, {"pitch": 66, "tick": 311892, "length": 108, "velocity": 64}, {"pitch": 62, "tick": 312000, "length": 132, "velocity": 80}, {"pitch": 62, "tick": 312132, "length": 108, "velocity": 64}, {"pitch": 66, "tick": 312240, "length": 132, "velocity": 80}, {"pitch": 66, "tick": 312372, "length": 108, "velocity": 64}, {"pitch": 62, "tick": 312480, "length": 132, "velocity": 80}, {"pitch": 62, "tick": 312612, "length": 108, "velocity": 64}, {"pitch": 66, "tick": 312720, "length": 132, "velocity": 80}, {"pitch": 66, "tick": 312852, "length": 108, "velocity": 64}, {"pitch": 62, "tick": 312960, "length": 132, "velocity": 80}, {"pitch": 62, "tick": 313092, "length": 108, "velocity": 64}, {"pitch": 66, "tick": 313200, "length": 132, "velocity": 80}, {"pitch": 66, "tick": 313332, "length": 108, "velocity": 64}, {"pitch": 62, "tick": 313440, "length": 132, "velocity": 80}, {"pitch": 62, "tick": 313572, "length": 108, "velocity": 64}, {"pitch": 66, "tick": 313680, "length": 132, "velocity": 80}, {"pitch": 66, "tick": 313812, "length": 108, "velocity": 64}, {"pitch": 62, "tick": 313920, "length": 132, "velocity": 80}, {"pitch": 62, "tick": 314052, "length": 108, "velocity": 64}, {"pitch": 66, "tick": 314160, "length": 132, "velocity": 80}, {"pitch": 66, "tick": 314292, "length": 108, "velocity": 64}, {"pitch": 62, "tick": 314400, "length": 132, "velocity": 80}, {"pitch": 62, "tick": 314532, "length": 108, "velocity": 64}, {"pitch": 66, "tick": 314640, "length": 132, "velocity": 80}, {"pitch": 66, "tick": 314772, "length": 108, "velocity": 64}, {"pitch": 62, "tick": 314880, "length": 132, "velocity": 80}, {"pitch": 62, "tick": 315012, "length": 108, "velocity": 64}, {"pitch": 66, "tick": 315120, "length": 132, "velocity": 80}, {"pitch": 66, "tick": 315252, "length": 108, "velocity": 64}, {"pitch": 62, "tick": 315360, "length": 132, "velocity": 80}, {"pitch": 62, "tick": 315492, "length": 108, "velocity": 64}, {"pitch": 66, "tick": 315600, "length": 132, "velocity": 80}, {"pitch": 66, "tick": 315732, "length": 108, "velocity": 64}, {"pitch": 62, "tick": 315840, "length": 132, "velocity": 80}, {"pitch": 62, "tick": 315972, "length": 108, "velocity": 64}, {"pitch": 66, "tick": 316080, "length": 132, "velocity": 80}, {"pitch": 66, "tick": 316212, "length": 108, "velocity": 64}, {"pitch": 62, "tick": 316320, "length": 132, "velocity": 80}, {"pitch": 62, "tick": 316452, "length": 108, "velocity": 64}, {"pitch": 66, "tick": 316560, "length": 132, "velocity": 80}, {"pitch": 66, "tick": 316692, "length": 108, "velocity": 64}, {"pitch": 62, "tick": 316800, "length": 132, "velocity": 80}, {"pitch": 62, "tick": 316932, "length": 108, "velocity": 64}, {"pitch": 66, "tick": 317040, "length": 132, "velocity": 80}, {"pitch": 66, "tick": 317172, "length": 108, "velocity": 64}, {"pitch": 62, "tick": 317280, "length": 132, "velocity": 80}, {"pitch": 62, "tick": 317412, "length": 108, "velocity": 64}, {"pitch": 66, "tick": 317520, "length": 132, "velocity": 80}, {"pitch": 66, "tick": 317652, "length": 108, "velocity": 64}, {"pitch": 62, "tick": 317760, "length": 132, "velocity": 80}, {"pitch": 62, "tick": 317892, "length": 108, "velocity": 64}, {"pitch": 66, "tick": 318000, "length": 132, "velocity": 80}, {"pitch": 66, "tick": 318132, "length": 108, "velocity": 64}, {"pitch": 62, "tick": 318240, "length": 132, "velocity": 80}, {"pitch": 62, "tick": 318372, "length": 108, "velocity": 64}, {"pitch": 66, "tick": 318480, "length": 132, "velocity": 80}, {"pitch": 66, "tick": 318612, "length": 108, "velocity": 64}, {"pitch": 62, "tick": 318720, "length": 132, "velocity": 80}, {"pitch": 62, "tick": 318852, "length": 108, "velocity": 64}, {"pitch": 66, "tick": 318960, "length": 132, "velocity": 80}, {"pitch": 66, "tick": 319092, "length": 108, "velocity": 64}, {"pitch": 62, "tick": 319200, "length": 132, "velocity": 80}, {"pitch": 62, "tick": 319332, "length": 108, "velocity": 64}, {"pitch": 66, "tick": 319440, "length": 132, "velocity": 80}, {"pitch": 66, "tick": 319572, "length": 108, "velocity": 64}, {"pitch": 62, "tick": 319680, "length": 132, "velocity": 80}, {"pitch": 62, "tick": 319812, "length": 108, "velocity": 64}, {"pitch": 66, "tick": 319920, "length": 132, "velocity": 80}, {"pitch": 66, "tick": 320052, "length": 108, "velocity": 64}, {"pitch": 62, "tick": 320160, "length": 132, "velocity": 80}, {"pitch": 62, "tick": 320292, "length": 108, "velocity": 64}, {"pitch": 66, "tick": 320400, "length": 132, "velocity": 80}, {"pitch": 66, "tick": 320532, "length": 108, "velocity": 64}, {"pitch": 62, "tick": 320640, "length": 132, "velocity": 80}, {"pitch": 62, "tick": 320772, "length": 108, "velocity": 64}, {"pitch": 66, "tick": 320880, "length": 132, "velocity": 80}, {"pitch": 66, "tick": 321012, "length": 108, "velocity": 64}, {"pitch": 62, "tick": 321120, "length": 132, "velocity": 80}, {"pitch": 62, "tick": 321252, "length": 108, "velocity": 64}, {"pitch": 66, "tick": 321360, "length": 132, "velocity": 80}, {"pitch": 66, "tick": 321492, "length": 108, "velocity": 64}, {"pitch": 62, "tick": 321600, "length": 132, "velocity": 80}, {"pitch": 62, "tick": 321732, "length": 108, "velocity": 64}, {"pitch": 66, "tick": 321840, "length": 132, "velocity": 80}, {"pitch": 66, "tick": 321972, "length": 108, "velocity": 64}, {"pitch": 62, "tick": 322080, "length": 132, "velocity": 80}, {"pitch": 62, "tick": 322212, "length": 108, "velocity": 64}, {"pitch": 66, "tick": 322320, "length": 132, "velocity": 80}, {"pitch": 66, "tick": 322452, "length": 108, "velocity": 64}, {"pitch": 62, "tick": 322560, "length": 132, "velocity": 80}, {"pitch": 62, "tick": 322692, "length": 108, "velocity": 64}, {"pitch": 66, "tick": 322800, "length": 132, "velocity": 80}, {"pitch": 66, "tick": 322932, "length": 108, "velocity": 64}, {"pitch": 62, "tick": 323040, "length": 132, "velocity": 80}, {"pitch": 62, "tick": 323172, "length": 108, "velocity": 64}, {"pitch": 66, "tick": 323280, "length": 132, "velocity": 80}, {"pitch": 66, "tick": 323412, "length": 108, "velocity": 64}, {"pitch": 62, "tick": 323520, "length": 132, "velocity": 80}, {"pitch": 62, "tick": 323652, "length": 108, "velocity": 64}, {"pitch": 66, "tick": 323760, "length": 132, "velocity": 80}, {"pitch": 66, "tick": 323892, "length": 108, "velocity": 64}, {"pitch": 62, "tick": 324000, "length": 132, "velocity": 80}, {"pitch": 62, "tick": 324132, "length": 108, "velocity": 64}, {"pitch": 66, "tick": 324240, "length": 132, "velocity": 80}, {"pitch": 66, "tick": 324372, "length": 108, "velocity": 64}, {"pitch": 62, "tick": 324480, "length": 132, "velocity": 80}, {"pitch": 62, "tick": 324612, "length": 108, "velocity": 64}, {"pitch": 66, "tick": 324720, "length": 132, "velocity": 80}, {"pitch": 66, "tick": 324852, "length": 108, "velocity": 64}, {"pitch": 62, "tick": 324960, "length": 132, "velocity": 80}, {"pitch": 62, "tick": 325092, "length": 108, "velocity": 64}, {"pitch": 66, "tick": 325200, "length": 132, "velocity": 80}, {"pitch": 66, "tick": 325332, "length": 108, "velocity": 64}, {"pitch": 62, "tick": 325440, "length": 132, "velocity": 80}, {"pitch": 62, "tick": 325572, "length": 108, "velocity": 64}, {"pitch": 66, "tick": 325680, "length": 132, "velocity": 80}, {"pitch": 66, "tick": 325812, "length": 108, "velocity": 64}, {"pitch": 62, "tick": 325920, "length": 132, "velocity": 80}, {"pitch": 62, "tick": 326052, "length": 108, "velocity": 64}, {"pitch": 66, "tick": 326160, "length": 132, "velocity": 80}, {"pitch": 66, "tick": 326292, "length": 108, "velocity": 64}, {"pitch": 62, "tick": 326400, "length": 132, "velocity": 80}, {"pitch": 62, "tick": 326532, "length": 108, "velocity": 64}, {"pitch": 66, "tick": 326640, "length": 132, "velocity": 80}, {"pitch": 66, "tick": 326772, "length": 108, "velocity": 64}, {"pitch": 62, "tick": 326880, "length": 132, "velocity": 80}, {"pitch": 62, "tick": 327012, "length": 108, "velocity": 64}, {"pitch": 66, "tick": 327120, "length": 132, "velocity": 80}, {"pitch": 66, "tick": 327252, "length": 108, "velocity": 64}, {"pitch": 62, "tick": 327360, "length": 132, "velocity": 80}, {"pitch": 62, "tick": 327492, "length": 108, "velocity": 64}, {"pitch": 66, "tick": 327600, "length": 132, "velocity": 80}, {"pitch": 66, "tick": 327732, "length": 108, "velocity": 64}, {"pitch": 62, "tick": 327840, "length": 132, "velocity": 80}, {"pitch": 62, "tick": 327972, "length": 108, "velocity": 64}, {"pitch": 66, "tick": 328080, "length": 132, "velocity": 80}, {"pitch": 66, "tick": 328212, "length": 108, "velocity": 64}, {"pitch": 62, "tick": 328320, "length": 132, "velocity": 80}, {"pitch": 62, "tick": 328452, "length": 108, "velocity": 64}, {"pitch": 66, "tick": 328560, "length": 132, "velocity": 80}, {"pitch": 66, "tick": 328692, "length": 108, "velocity": 64}, {"pitch": 62, "tick": 328800, "length": 132, "velocity": 80}, {"pitch": 62, "tick": 328932, "length": 108, "velocity": 64}, {"pitch": 66, "tick": 329040, "length": 132, "velocity": 80}, {"pitch": 66, "tick": 329172, "length": 108, "velocity": 64}, {"pitch": 62, "tick": 329280, "length": 132, "velocity": 80}, {"pitch": 62, "tick": 329412, "length": 108, "velocity": 64}, {"pitch": 66, "tick": 329520, "length": 132, "velocity": 80}, {"pitch": 66, "tick": 329652, "length": 108, "velocity": 64}, {"pitch": 62, "tick": 329760, "length": 132, "velocity": 80}, {"pitch": 62, "tick": 329892, "length": 108, "velocity": 64}, {"pitch": 66, "tick": 330000, "length": 132, "velocity": 80}, {"pitch": 66, "tick": 330132, "length": 108, "velocity": 64}, {"pitch": 62, "tick": 330240, "length": 132, "velocity": 80}, {"pitch": 62, "tick": 330372, "length": 108, "velocity": 64}, {"pitch": 66, "tick": 330480, "length": 132, "velocity": 80}, {"pitch": 66, "tick": 330612, "length": 108, "velocity": 64}, {"pitch": 62, "tick": 330720, "length": 132, "velocity": 80}, {"pitch": 62, "tick": 330852, "length": 108, "velocity": 64}, {"pitch": 66, "tick": 330960, "length": 132, "velocity": 80}, {"pitch": 66, "tick": 331092, "length": 108, "velocity": 64}, {"pitch": 62, "tick": 331200, "length": 132, "velocity": 80}, {"pitch": 62, "tick": 331332, "length": 108, "velocity": 64}, {"pitch": 66, "tick": 331440, "length": 132, "velocity": 80}, {"pitch": 66, "tick": 331572, "length": 108, "velocity": 64}, {"pitch": 62, "tick": 331680, "length": 132, "velocity": 80}, {"pitch": 62, "tick": 331812, "length": 108, "velocity": 64}, {"pitch": 66, "tick": 331920, "length": 132, "velocity": 80}, {"pitch": 66, "tick": 332052, "length": 108, "velocity": 64}, {"pitch": 62, "tick": 332160, "length": 132, "velocity": 80}, {"pitch": 62, "tick": 332292, "length": 108, "velocity": 64}, {"pitch": 66, "tick": 332400, "length": 132, "velocity": 80}, {"pitch": 66, "tick": 332532, "length": 108, "velocity": 64}, {"pitch": 62, "tick": 332640, "length": 132, "velocity": 80}, {"pitch": 62, "tick": 332772, "length": 108, "velocity": 64}, {"pitch": 66, "tick": 332880, "length": 132, "velocity": 80}, {"pitch": 66, "tick": 333012, "length": 108, "velocity": 64}, {"pitch": 62, "tick": 333120, "length": 132, "velocity": 80}, {"pitch": 62, "tick": 333252, "length": 108, "velocity": 64}, {"pitch": 66, "tick": 333360, "length": 132, "velocity": 80}, {"pitch": 66, "tick": 333492, "length": 108, "velocity": 64}, {"pitch": 62, "tick": 333600, "length": 132, "velocity": 80}, {"pitch": 62, "tick": 333732, "length": 108, "velocity": 64}, {"pitch": 66, "tick": 333840, "length": 132, "velocity": 80}, {"pitch": 66, "tick": 333972, "length": 108, "velocity": 64}, {"pitch": 62, "tick": 334080, "length": 132, "velocity": 80}, {"pitch": 62, "tick": 334212, "length": 108, "velocity": 64}, {"pitch": 66, "tick": 334320, "length": 132, "velocity": 80}, {"pitch": 66, "tick": 334452, "length": 108, "velocity": 64}, {"pitch": 62, "tick": 334560, "length": 132, "velocity": 80}, {"pitch": 62, "tick": 334692, "length": 108, "velocity": 64}, {"pitch": 66, "tick": 334800, "length": 132, "velocity": 80}, {"pitch": 66, "tick": 334932, "length": 108, "velocity": 64}, {"pitch": 62, "tick": 335040, "length": 132, "velocity": 80}, {"pitch": 62, "tick": 335172, "length": 108, "velocity": 64}, {"pitch": 66, "tick": 335280, "length": 132, "velocity": 80}, {"pitch": 66, "tick": 335412, "length": 108, "velocity": 64}, {"pitch": 62, "tick": 335520, "length": 132, "velocity": 80}, {"pitch": 62, "tick": 335652, "length": 108, "velocity": 64}, {"pitch": 66, "tick": 335760, "length": 132, "velocity": 80}, {"pitch": 66, "tick": 335892, "length": 108, "velocity": 64}, {"pitch": 62, "tick": 336000, "length": 132, "velocity": 80}, {"pitch": 62, "tick": 336132, "length": 108, "velocity": 64}, {"pitch": 66, "tick": 336240, "length": 132, "velocity": 80}, {"pitch": 66, "tick": 336372, "length": 108, "velocity": 64}, {"pitch": 62, "tick": 336480, "length": 132, "velocity": 80}, {"pitch": 62, "tick": 336612, "length": 108, "velocity": 64}, {"pitch": 66, "tick": 336720, "length": 132, "velocity": 80}, {"pitch": 66, "tick": 336852, "length": 108, "velocity": 64}, {"pitch": 62, "tick": 336960, "length": 132, "velocity": 80}, {"pitch": 62, "tick": 337092, "length": 108, "velocity": 64}, {"pitch": 66, "tick": 337200, "length": 132, "velocity": 80}, {"pitch": 66, "tick": 337332, "length": 108, "velocity": 64}, {"pitch": 62, "tick": 337440, "length": 132, "velocity": 80}, {"pitch": 62, "tick": 337572, "length": 108, "velocity": 64}, {"pitch": 66, "tick": 337680, "length": 132, "velocity": 80}, {"pitch": 66, "tick": 337812, "length": 108, "velocity": 64}, {"pitch": 62, "tick": 337920, "length": 132, "velocity": 80}, {"pitch": 62, "tick": 338052, "length": 108, "velocity": 64}, {"pitch": 66, "tick": 338160, "length": 132, "velocity": 80}, {"pitch": 66, "tick": 338292, "length": 108, "velocity": 64}, {"pitch": 62, "tick": 338400, "length": 132, "velocity": 80}, {"pitch": 62, "tick": 338532, "length": 108, "velocity": 64}, {"pitch": 66, "tick": 338640, "length": 132, "velocity": 80}, {"pitch": 66, "tick": 338772, "length": 108, "velocity": 64}, {"pitch": 62, "tick": 338880, "length": 132, "velocity": 80}, {"pitch": 62, "tick": 339012, "length": 108, "velocity": 64}, {"pitch": 66, "tick": 339120, "length": 132, "velocity": 80}, {"pitch": 66, "tick": 339252, "length": 108, "velocity": 64}, {"pitch": 62, "tick": 339360, "length": 132, "velocity": 80}, {"pitch": 62, "tick": 339492, "length": 108, "velocity": 64}, {"pitch": 66, "tick": 339600, "length": 132, "velocity": 80}, {"pitch": 66, "tick": 339732, "length": 108, "velocity": 64}, {"pitch": 62, "tick": 339840, "length": 132, "velocity": 80}, {"pitch": 62, "tick": 339972, "length": 108, "velocity": 64}, {"pitch": 66, "tick": 340080, "length": 132, "velocity": 80}, {"pitch": 66, "tick": 340212, "length": 108, "velocity": 64}, {"pitch": 62, "tick": 340320, "length": 132, "velocity": 80}, {"pitch": 62, "tick": 340452, "length": 108, "velocity": 64}, {"pitch": 66, "tick": 340560, "length": 132, "velocity": 80}, {"pitch": 66, "tick": 340692, "length": 108, "velocity": 64}, {"pitch": 62, "tick": 340800, "length": 132, "velocity": 80}, {"pitch": 62, "tick": 340932, "length": 108, "velocity": 64}, {"pitch": 66, "tick": 341040, "length": 132, "velocity": 80}, {"pitch": 66, "tick": 341172, "length": 108, "velocity": 64}, {"pitch": 62, "tick": 341280, "length": 132, "velocity": 80}, {"pitch": 62, "tick": 341412, "length": 108, "velocity": 64}, {"pitch": 66, "tick": 341520, "length": 132, "velocity": 80}, {"pitch": 66, "tick": 341652, "length": 108, "velocity": 64}, {"pitch": 62, "tick": 341760, "length": 132, "velocity": 80}, {"pitch": 62, "tick": 341892, "length": 108, "velocity": 64}, {"pitch": 66, "tick": 342000, "length": 132, "velocity": 80}, {"pitch": 66, "tick": 342132, "length": 108, "velocity": 64}, {"pitch": 62, "tick": 342240, "length": 132, "velocity": 80}, {"pitch": 62, "tick": 342372, "length": 108, "velocity": 64}, {"pitch": 66, "tick": 342480, "length": 132, "velocity": 80}, {"pitch": 66, "tick": 342612, "length": 108, "velocity": 64}, {"pitch": 62, "tick": 342720, "length": 132, "velocity": 80}, {"pitch": 62, "tick": 342852, "length": 108, "velocity": 64}, {"pitch": 66, "tick": 342960, "length": 132, "velocity": 80}, {"pitch": 66, "tick": 343092, "length": 108, "velocity": 64}, {"pitch": 62, "tick": 343200, "length": 132, "velocity": 80}, {"pitch": 62, "tick": 343332, "length": 108, "velocity": 64}, {"pitch": 66, "tick": 343440, "length": 132, "velocity": 80}, {"pitch": 66, "tick": 343572, "length": 108, "velocity": 64}, {"pitch": 62, "tick": 343680, "length": 132, "velocity": 80}, {"pitch": 62, "tick": 343812, "length": 108, "velocity": 64}, {"pitch": 66, "tick": 343920, "length": 132, "velocity": 80}, {"pitch": 66, "tick": 344052, "length": 108, "velocity": 64}, {"pitch": 62, "tick": 344160, "length": 132, "velocity": 80}, {"pitch": 62, "tick": 344292, "length": 108, "velocity": 64}, {"pitch": 66, "tick": 344400, "length": 132, "velocity": 80}, {"pitch": 66, "tick": 344532, "length": 108, "velocity": 64}, {"pitch": 62, "tick": 344640, "length": 132, "velocity": 80}, {"pitch": 62, "tick": 344772, "length": 108, "velocity": 64}, {"pitch": 66, "tick": 344880, "length": 132, "velocity": 80}, {"pitch": 66, "tick": 345012, "length": 108, "velocity": 64}, {"pitch": 62, "tick": 345120, "length": 132, "velocity": 80}, {"pitch": 62, "tick": 345252, "length": 108, "velocity": 64}, {"pitch": 66, "tick": 345360, "length": 132, "velocity": 80}, {"pitch": 66, "tick": 345492, "length": 108, "velocity": 64}, {"pitch": 62, "tick": 345600, "length": 132, "velocity": 80}, {"pitch": 62, "tick": 345732, "length": 108, "velocity": 64}, {"pitch": 66, "tick": 345840, "length": 132, "velocity": 80}, {"pitch": 66, "tick": 345972, "length": 108, "velocity": 64}, {"pitch": 62, "tick": 346080, "length": 132, "velocity": 80}, {"pitch": 62, "tick": 346212, "length": 108, "velocity": 64}, {"pitch": 66, "tick": 346320, "length": 132, "velocity": 80}, {"pitch": 66, "tick": 346452, "length": 108, "velocity": 64}, {"pitch": 62, "tick": 346560, "length": 132, "velocity": 80}, {"pitch": 62, "tick": 346692, "length": 108, "velocity": 64}, {"pitch": 66, "tick": 346800, "length": 132, "velocity": 80}, {"pitch": 66, "tick": 346932, "length": 108, "velocity": 64}, {"pitch": 62, "tick": 347040, "length": 132, "velocity": 80}, {"pitch": 62, "tick": 347172, "length": 108, "velocity": 64}, {"pitch": 66, "tick": 347280, "length": 132, "velocity": 80}, {"pitch": 66, "tick": 347412, "length": 108, "velocity": 64}, {"pitch": 62, "tick": 347520, "length": 132, "velocity": 80}, {"pitch": 62, "tick": 347652, "length": 108, "velocity": 64}, {"pitch": 66, "tick": 347760, "length": 132, "velocity": 80}, {"pitch": 66, "tick": 347892, "length": 108, "velocity": 64}, {"pitch": 62, "tick": 348000, "length": 132, "velocity": 80}, {"pitch": 62, "tick": 348132, "length": 108, "velocity": 64}, {"pitch": 66, "tick": 348240, "length": 132, "velocity": 80}, {"pitch": 66, "tick": 348372, "length": 108, "velocity": 64}, {"pitch": 62, "tick": 348480, "length": 132, "velocity": 80}, {"pitch": 62, "tick": 348612, "length": 108, "velocity": 64}, {"pitch": 66, "tick": 348720, "length": 132, "velocity": 80}, {"pitch": 66, "tick": 348852, "length": 108, "velocity": 64}, {"pitch": 62, "tick": 348960, "length": 132, "velocity": 80}, {"pitch": 62, "tick": 349092, "length": 108, "velocity": 64}, {"pitch": 66, "tick": 349200, "length": 132, "velocity": 80}, {"pitch": 66, "tick": 349332, "length": 108, "velocity": 64}, {"pitch": 62, "tick": 349440, "length": 132, "velocity": 80}, {"pitch": 62, "tick": 349572, "length": 108, "velocity": 64}, {"pitch": 66, "tick": 349680, "length": 132, "velocity": 80}, {"pitch": 66, "tick": 349812, "length": 108, "velocity": 64}, {"pitch": 62, "tick": 349920, "length": 132, "velocity": 80}, {"pitch": 62, "tick": 350052, "length": 108, "velocity": 64}, {"pitch": 66, "tick": 350160, "length": 132, "velocity": 80}, {"pitch": 66, "tick": 350292, "length": 108, "velocity": 64}, {"pitch": 62, "tick": 350400, "length": 132, "velocity": 80}, {"pitch": 62, "tick": 350532, "length": 108, "velocity": 64}, {"pitch": 66, "tick": 350640, "length": 132, "velocity": 80}, {"pitch": 66, "tick": 350772, "length": 108, "velocity": 64}, {"pitch": 62, "tick": 350880, "length": 132, "velocity": 80}, {"pitch": 62, "tick": 351012, "length": 108, "velocity": 64}, {"pitch": 66, "tick": 351120, "length": 132, "velocity": 80}, {"pitch": 66, "tick": 351252, "length": 108, "velocity": 64}, {"pitch": 62, "tick": 351360, "length": 132, "velocity": 80}, {"pitch": 62, "tick": 351492, "length": 108, "velocity": 64}, {"pitch": 66, "tick": 351600, "length": 132, "velocity": 80}, {"pitch": 66, "tick": 351732, "length": 108, "velocity": 64}, {"pitch": 62, "tick": 351840, "length": 132, "velocity": 80}, {"pitch": 62, "tick": 351972, "length": 108, "velocity": 64}, {"pitch": 66, "tick": 352080, "length": 132, "velocity": 80}, {"pitch": 66, "tick": 352212, "length": 108, "velocity": 64}, {"pitch": 62, "tick": 352320, "length": 132, "velocity": 80}, {"pitch": 62, "tick": 352452, "length": 108, "velocity": 64}, {"pitch": 66, "tick": 352560, "length": 132, "velocity": 80}, {"pitch": 66, "tick": 352692, "length": 108, "velocity": 64}, {"pitch": 62, "tick": 352800, "length": 132, "velocity": 80}, {"pitch": 62, "tick": 352932, "length": 108, "velocity": 64}, {"pitch": 66, "tick": 353040, "length": 132, "velocity": 80}, {"pitch": 66, "tick": 353172, "length": 108, "velocity": 64}, {"pitch": 62, "tick": 353280, "length": 132, "velocity": 80}, {"pitch": 62, "tick": 353412, "length": 108, "velocity": 64}, {"pitch": 66, "tick": 353520, "length": 132, "velocity": 80}, {"pitch": 66, "tick": 353652, "length": 108, "velocity": 64}, {"pitch": 62, "tick": 353760, "length": 132, "velocity": 80}, {"pitch": 62, "tick": 353892, "length": 108, "velocity": 64}, {"pitch": 66, "tick": 354000, "length": 132, "velocity": 80}, {"pitch": 66, "tick": 354132, "length": 108, "velocity": 64}, {"pitch": 62, "tick": 354240, "length": 132, "velocity": 80}, {"pitch": 62, "tick": 354372, "length": 108, "velocity": 64}, {"pitch": 66, "tick": 354480, "length": 132, "velocity": 80}, {"pitch": 66, "tick": 354612, "length": 108, "velocity": 64}, {"pitch": 62, "tick": 354720, "length": 132, "velocity": 80}, {"pitch": 62, "tick": 354852, "length": 108, "velocity": 64}, {"pitch": 66, "tick": 354960, "length": 132, "velocity": 80}, {"pitch": 66, "tick": 355092, "length": 108, "velocity": 64}, {"pitch": 62, "tick": 355200, "length": 132, "velocity": 80}, {"pitch": 62, "tick": 355332, "length": 108, "velocity": 64}, {"pitch": 66, "tick": 355440, "length": 132, "velocity": 80}, {"pitch": 66, "tick": 355572, "length": 108, "velocity": 64}, {"pitch": 62, "tick": 355680, "length": 132, "velocity": 80}, {"pitch": 62, "tick": 355812, "length": 108, "velocity": 64}, {"pitch": 66, "tick": 355920, "length": 132, "velocity": 80}, {"pitch": 66, "tick": 356052, "length": 108, "velocity": 64}, {"pitch": 62, "tick": 356160, "length": 132, "velocity": 80}, {"pitch": 62, "tick": 356292, "length": 108, "velocity": 64}, {"pitch": 66, "tick": 356400, "length": 132, "velocity": 80}, {"pitch": 66, "tick": 356532, "length": 108, "velocity": 64}, {"pitch": 62, "tick": 356640, "length": 132, "velocity": 80}, {"pitch": 62, "tick": 356772, "length": 108, "velocity": 64}, {"pitch": 66, "tick": 356880, "length": 132, "velocity": 80}, {"pitch": 66, "tick": 357012, "length": 108, "velocity": 64}, {"pitch": 62, "tick": 357120, "length": 132, "velocity": 80}, {"pitch": 62, "tick": 357252, "length": 108, "velocity": 64}, {"pitch": 66, "tick": 357360, "length": 132, "velocity": 80}, {"pitch": 66, "tick": 357492, "length": 108, "velocity": 64}, {"pitch": 62, "tick": 357600, "length": 132, "velocity": 80}, {"pitch": 62, "tick": 357732, "length": 108, "velocity": 64}, {"pitch": 66, "tick": 357840, "length": 132, "velocity": 80}, {"pitch": 66, "tick": 357972, "length": 108, "velocity": 64}, {"pitch": 62, "tick": 358080, "length": 132, "velocity": 80}, {"pitch": 62, "tick": 358212, "length": 108, "velocity": 64}, {"pitch": 66, "tick": 358320, "length": 132, "velocity": 80}, {"pitch": 66, "tick": 358452, "length": 108, "velocity": 64}, {"pitch": 62, "tick": 358560, "length": 132, "velocity": 80}, {"pitch": 62, "tick": 358692, "length": 108, "velocity": 64}, {"pitch": 66, "tick": 358800, "length": 132, "velocity": 80}, {"pitch": 66, "tick": 358932, "length": 108, "velocity": 64}, {"pitch": 62, "tick": 359040, "length": 132, "velocity": 80}, {"pitch": 62, "tick": 359172, "length": 108, "velocity": 64}, {"pitch": 66, "tick": 359280, "length": 132, "velocity": 80}, {"pitch": 66, "tick": 359412, "length": 108, "velocity": 64}, {"pitch": 62, "tick": 359520, "length": 132, "velocity": 80}, {"pitch": 62, "tick": 359652, "length": 108, "velocity": 64}, {"pitch": 66, "tick": 359760, "length": 132, "velocity": 80}, {"pitch": 66, "tick": 359892, "length": 108, "velocity": 64}, {"pitch": 62, "tick": 360000, "length": 132, "velocity": 80}, {"pitch": 62, "tick": 360132, "length": 108, "velocity": 64}, {"pitch": 66, "tick": 360240, "length": 132, "velocity": 80}, {"pitch": 66, "tick": 360372, "length": 108, "velocity": 64}, {"pitch": 62, "tick": 360480, "length": 132, "velocity": 80}, {"pitch": 62, "tick": 360612, "length": 108, "velocity": 64}, {"pitch": 66, "tick": 360720, "length": 132, "velocity": 80}, {"pitch": 66, "tick": 360852, "length": 108, "velocity": 64}, {"pitch": 62, "tick": 360960, "length": 132, "velocity": 80}, {"pitch": 62, "tick": 361092, "length": 108, "velocity": 64}, {"pitch": 66, "tick": 361200, "length": 132, "velocity": 80}, {"pitch": 66, "tick": 361332, "length": 108, "velocity": 64}, {"pitch": 62, "tick": 361440, "length": 132, "velocity": 80}, {"pitch": 62, "tick": 361572, "length": 108, "velocity": 64}, {"pitch": 66, "tick": 361680, "length": 132, "velocity": 80}, {"pitch": 66, "tick": 361812, "length": 108, "velocity": 64}, {"pitch": 62, "tick": 361920, "length": 132, "velocity": 80}, {"pitch": 62, "tick": 362052, "length": 108, "velocity": 64}, {"pitch": 66, "tick": 362160, "length": 132, "velocity": 80}, {"pitch": 66, "tick": 362292, "length": 108, "velocity": 64}, {"pitch": 62, "tick": 362400, "length": 132, "velocity": 80}, {"pitch": 62, "tick": 362532, "length": 108, "velocity": 64}, {"pitch": 66, "tick": 362640, "length": 132, "velocity": 80}, {"pitch": 66, "tick": 362772, "length": 108, "velocity": 64}, {"pitch": 62, "tick": 362880, "length": 132, "velocity": 80}, {"pitch": 62, "tick": 363012, "length": 108, "velocity": 64}, {"pitch": 66, "tick": 363120, "length": 132, "velocity": 80}, {"pitch": 66, "tick": 363252, "length": 108, "velocity": 64}, {"pitch": 62, "tick": 363360, "length": 132, "velocity": 80}, {"pitch": 62, "tick": 363492, "length": 108, "velocity": 64}, {"pitch": 66, "tick": 363600, "length": 132, "velocity": 80}, {"pitch": 66, "tick": 363732, "length": 108, "velocity": 64}, {"pitch": 62, "tick": 363840, "length": 132, "velocity": 80}, {"pitch": 62, "tick": 363972, "length": 108, "velocity": 64}, {"pitch": 66, "tick": 364080, "length": 132, "velocity": 80}, {"pitch": 66, "tick": 364212, "length": 108, "velocity": 64}, {"pitch": 62, "tick": 364320, "length": 132, "velocity": 80}, {"pitch": 62, "tick": 364452, "length": 108, "velocity": 64}, {"pitch": 66, "tick": 364560, "length": 132, "velocity": 80}, {"pitch": 66, "tick": 364692, "length": 108, "velocity": 64}, {"pitch": 62, "tick": 364800, "length": 132, "velocity": 80}, {"pitch": 62, "tick": 364932, "length": 108, "velocity": 64}, {"pitch": 66, "tick": 365040, "length": 132, "velocity": 80}, {"pitch": 66, "tick": 365172, "length": 108, "velocity": 64}, {"pitch": 62, "tick": 365280, "length": 132, "velocity": 80}, {"pitch": 62, "tick": 365412, "length": 108, "velocity": 64}, {"pitch": 66, "tick": 365520, "length": 132, "velocity": 80}, {"pitch": 66, "tick": 365652, "length": 108, "velocity": 64}, {"pitch": 62, "tick": 365760, "length": 132, "velocity": 80}, {"pitch": 62, "tick": 365892, "length": 108, "velocity": 64}, {"pitch": 66, "tick": 366000, "length": 132, "velocity": 80}, {"pitch": 66, "tick": 366132, "length": 108, "velocity": 64}, {"pitch": 62, "tick": 366240, "length": 132, "velocity": 80}, {"pitch": 62, "tick": 366372, "length": 108, "velocity": 64}, {"pitch": 66, "tick": 366480, "length": 132, "velocity": 80}, {"pitch": 66, "tick": 366612, "length": 108, "velocity": 64}, {"pitch": 62, "tick": 366720, "length": 132, "velocity": 80}, {"pitch": 62, "tick": 366852, "length": 108, "velocity": 64}, {"pitch": 66, "tick": 366960, "length": 132, "velocity": 80}, {"pitch": 66, "tick": 367092, "length": 108, "velocity": 64}, {"pitch": 62, "tick": 367200, "length": 132, "velocity": 80}, {"pitch": 62, "tick": 367332, "length": 108, "velocity": 64}, {"pitch": 66, "tick": 367440, "length": 132, "velocity": 80}, {"pitch": 66, "tick": 367572, "length": 108, "velocity": 64}, {"pitch": 62, "tick": 367680, "length": 132, "velocity": 80}, {"pitch": 62, "tick": 367812, "length": 108, "velocity": 64}, {"pitch": 66, "tick": 367920, "length": 132, "velocity": 80}, {"pitch": 66, "tick": 368052, "length": 108, "velocity": 64}, {"pitch": 62, "tick": 368160, "length": 132, "velocity": 80}, {"pitch": 62, "tick": 368292, "length": 108, "velocity": 64}, {"pitch": 66, "tick": 368400, "length": 132, "velocity": 80}, {"pitch": 66, "tick": 368532, "length": 108, "velocity": 64}, {"pitch": 62, "tick": 368640, "length": 132, "velocity": 80}, {"pitch": 62, "tick": 368772, "length": 108, "velocity": 64}, {"pitch": 66, "tick": 368880, "length": 132, "velocity": 80}, {"pitch": 66, "tick": 369012, "length": 108, "velocity": 64}, {"pitch": 62, "tick": 369120, "length": 132, "velocity": 80}, {"pitch": 62, "tick": 369252, "length": 108, "velocity": 64}, {"pitch": 66, "tick": 369360, "length": 132, "velocity": 80}, {"pitch": 66, "tick": 369492, "length": 108, "velocity": 64}, {"pitch": 62, "tick": 369600, "length": 132, "velocity": 80}, {"pitch": 62, "tick": 369732, "length": 108, "velocity": 64}, {"pitch": 66, "tick": 369840, "length": 132, "velocity": 80}, {"pitch": 66, "tick": 369972, "length": 108, "velocity": 64}, {"pitch": 62, "tick": 370080, "length": 132, "velocity": 80}, {"pitch": 62, "tick": 370212, "length": 108, "velocity": 64}, {"pitch": 66, "tick": 370320, "length": 132, "velocity": 80}, {"pitch": 66, "tick": 370452, "length": 108, "velocity": 64}, {"pitch": 62, "tick": 370560, "length": 132, "velocity": 80}, {"pitch": 62, "tick": 370692, "length": 108, "velocity": 64}, {"pitch": 66, "tick": 370800, "length": 132, "velocity": 80}, {"pitch": 66, "tick": 370932, "length": 108, "velocity": 64}, {"pitch": 62, "tick": 371040, "length": 132, "velocity": 80}, {"pitch": 62, "tick": 371172, "length": 108, "velocity": 64}, {"pitch": 66, "tick": 371280, "length": 132, "velocity": 80}, {"pitch": 66, "tick": 371412, "length": 108, "velocity": 64}, {"pitch": 62, "tick": 371520, "length": 132, "velocity": 80}, {"pitch": 62, "tick": 371652, "length": 108, "velocity": 64}, {"pitch": 66, "tick": 371760, "length": 132, "velocity": 80}, {"pitch": 66, "tick": 371892, "length": 108, "velocity": 64}, {"pitch": 62, "tick": 372000, "length": 132, "velocity": 80}, {"pitch": 62, "tick": 372132, "length": 108, "velocity": 64}, {"pitch": 66, "tick": 372240, "length": 132, "velocity": 80}, {"pitch": 66, "tick": 372372, "length": 108, "velocity": 64}, {"pitch": 62, "tick": 372480, "length": 132, "velocity": 80}, {"pitch": 62, "tick": 372612, "length": 108, "velocity": 64}, {"pitch": 66, "tick": 372720, "length": 132, "velocity": 80}, {"pitch": 66, "tick": 372852, "length": 108, "velocity": 64}, {"pitch": 62, "tick": 372960, "length": 132, "velocity": 80}, {"pitch": 62, "tick": 373092, "length": 108, "velocity": 64}, {"pitch": 66, "tick": 373200, "length": 132, "velocity": 80}, {"pitch": 66, "tick": 373332, "length": 108, "velocity": 64}, {"pitch": 62, "tick": 373440, "length": 132, "velocity": 80}, {"pitch": 62, "tick": 373572, "length": 108, "velocity": 64}, {"pitch": 66, "tick": 373680, "length": 132, "velocity": 80}, {"pitch": 66, "tick": 373812, "length": 108, "velocity": 64}, {"pitch": 62, "tick": 373920, "length": 132, "velocity": 80}, {"pitch": 62, "tick": 374052, "length": 108, "velocity": 64}, {"pitch": 66, "tick": 374160, "length": 132, "velocity": 80}, {"pitch": 66, "tick": 374292, "length": 108, "velocity": 64}, {"pitch": 62, "tick": 374400, "length": 132, "velocity": 80}, {"pitch": 62, "tick": 374532, "length": 108, "velocity": 64}, {"pitch": 66, "tick": 374640, "length": 132, "velocity": 80}, {"pitch": 66, "tick": 374772, "length": 108, "velocity": 64}, {"pitch": 62, "tick": 374880, "length": 132, "velocity": 80}, {"pitch": 62, "tick": 375012, "length": 108, "velocity": 64}, {"pitch": 66, "tick": 375120, "length": 132, "velocity": 80}, {"pitch": 66, "tick": 375252, "length": 108, "velocity": 64}, {"pitch": 62, "tick": 375360, "length": 132, "velocity": 80}, {"pitch": 62, "tick": 375492, "length": 108, "velocity": 64}, {"pitch": 66, "tick": 375600, "length": 132, "velocity": 80}, {"pitch": 66, "tick": 375732, "length": 108, "velocity": 64}, {"pitch": 62, "tick": 375840, "length": 132, "velocity": 80}, {"pitch": 62, "tick": 375972, "length": 108, "velocity": 64}, {"pitch": 66, "tick": 376080, "length": 132, "velocity": 80}, {"pitch": 66, "tick": 376212, "length": 108, "velocity": 64}, {"pitch": 62, "tick": 376320, "length": 132, "velocity": 80}, {"pitch": 62, "tick": 376452, "length": 108, "velocity": 64}, {"pitch": 66, "tick": 376560, "length": 132, "velocity": 80}, {"pitch": 66, "tick": 376692, "length": 108, "velocity": 64}, {"pitch": 62, "tick": 376800, "length": 132, "velocity": 80}, {"pitch": 62, "tick": 376932, "length": 108, "velocity": 64}, {"pitch": 66, "tick": 377040, "length": 132, "velocity": 80}, {"pitch": 66, "tick": 377172, "length": 108, "velocity": 64}, {"pitch": 62, "tick": 377280, "length": 132, "velocity": 80}, {"pitch": 62, "tick": 377412, "length": 108, "velocity": 64}, {"pitch": 66, "tick": 377520, "length": 132, "velocity": 80}, {"pitch": 66, "tick": 377652, "length": 108, "velocity": 64}, {"pitch": 62, "tick": 377760, "length": 132, "velocity": 80}, {"pitch": 62, "tick": 377892, "length": 108, "velocity": 64}, {"pitch": 66, "tick": 378000, "length": 132, "velocity": 80}, {"pitch": 66, "tick": 378132, "length": 108, "velocity": 64}, {"pitch": 62, "tick": 378240, "length": 132, "velocity": 80}, {"pitch": 62, "tick": 378372, "length": 108, "velocity": 64}, {"pitch": 66, "tick": 378480, "length": 132, "velocity": 80}, {"pitch": 66, "tick": 378612, "length": 108, "velocity": 64}, {"pitch": 62, "tick": 378720, "length": 132, "velocity": 80}, {"pitch": 62, "tick": 378852, "length": 108, "velocity": 64}, {"pitch": 66, "tick": 378960, "length": 132, "velocity": 80}, {"pitch": 66, "tick": 379092, "length": 108, "velocity": 64}, {"pitch": 62, "tick": 379200, "length": 132, "velocity": 80}, {"pitch": 62, "tick": 379332, "length": 108, "velocity": 64}, {"pitch": 66, "tick": 379440, "length": 132, "velocity": 80}, {"pitch": 66, "tick": 379572, "length": 108, "velocity": 64}, {"pitch": 62, "tick": 379680, "length": 132, "velocity": 80}, {"pitch": 62, "tick": 379812, "length": 108, "velocity": 64}, {"pitch": 66, "tick": 379920, "length": 132, "velocity": 80}, {"pitch": 66, "tick": 380052, "length": 108, "velocity": 64}, {"pitch": 62, "tick": 380160, "length": 132, "velocity": 80}, {"pitch": 62, "tick": 380292, "length": 108, "velocity": 64}, {"pitch": 66, "tick": 380400, "length": 132, "velocity": 80}, {"pitch": 66, "tick": 380532, "length": 108, "velocity": 64}, {"pitch": 62, "tick": 380640, "length": 132, "velocity": 80}, {"pitch": 62, "tick": 380772, "length": 108, "velocity": 64}, {"pitch": 66, "tick": 380880, "length": 132, "velocity": 80}, {"pitch": 66, "tick": 381012, "length": 108, "velocity": 64}, {"pitch": 62, "tick": 381120, "length": 132, "velocity": 80}, {"pitch": 62, "tick": 381252, "length": 108, "velocity": 64}, {"pitch": 66, "tick": 381360, "length": 132, "velocity": 80}, {"pitch": 66, "tick": 381492, "length": 108, "velocity": 64}, {"pitch": 62, "tick": 381600, "length": 132, "velocity": 80}, {"pitch": 62, "tick": 381732, "length": 108, "velocity": 64}, {"pitch": 66, "tick": 381840, "length": 132, "velocity": 80}, {"pitch": 66, "tick": 381972, "length": 108, "velocity": 64}, {"pitch": 62, "tick": 382080, "length": 132, "velocity": 80}, {"pitch": 62, "tick": 382212, "length": 108, "velocity": 64}, {"pitch": 66, "tick": 382320, "length": 132, "velocity": 80}, {"pitch": 66, "tick": 382452, "length": 108, "velocity": 64}, {"pitch": 62, "tick": 382560, "length": 132, "velocity": 80}, {"pitch": 62, "tick": 382692, "length": 108, "velocity": 64}, {"pitch": 66, "tick": 382800, "length": 132, "velocity": 80}, {"pitch": 66, "tick": 382932, "length": 108, "velocity": 64}, {"pitch": 62, "tick": 383040, "length": 132, "velocity": 80}, {"pitch": 62, "tick": 383172, "length": 108, "velocity": 64}, {"pitch": 66, "tick": 383280, "length": 132, "velocity": 80}, {"pitch": 66, "tick": 383412, "length": 108, "velocity": 64}, {"pitch": 62, "tick": 383520, "length": 132, "velocity": 80}, {"pitch": 62, "tick": 383652, "length": 108, "velocity": 64}, {"pitch": 66, "tick": 383760, "length": 132, "velocity": 80}, {"pitch": 66, "tick": 383892, "length": 108, "velocity": 64}, {"pitch": 62, "tick": 384000, "length": 132, "velocity": 80}, {"pitch": 62, "tick": 384132, "length": 108, "velocity": 64}, {"pitch": 66, "tick": 384240, "length": 132, "velocity": 80}, {"pitch": 66, "tick": 384372, "length": 108, "velocity": 64}, {"pitch": 62, "tick": 384480, "length": 132, "velocity": 80}, {"pitch": 62, "tick": 384612, "length": 108, "velocity": 64}, {"pitch": 66, "tick": 384720, "length": 132, "velocity": 80}, {"pitch": 66, "tick": 384852, "length": 108, "velocity": 64}, {"pitch": 62, "tick": 384960, "length": 132, "velocity": 80}, {"pitch": 62, "tick": 385092, "length": 108, "velocity": 64}, {"pitch": 66, "tick": 385200, "length": 132, "velocity": 80}, {"pitch": 66, "tick": 385332, "length": 108, "velocity": 64}, {"pitch": 62, "tick": 385440, "length": 132, "velocity": 80}, {"pitch": 62, "tick": 385572, "length": 108, "velocity": 64}, {"pitch": 66, "tick": 385680, "length": 132, "velocity": 80}, {"pitch": 66, "tick": 385812, "length": 108, "velocity": 64}, {"pitch": 62, "tick": 385920, "length": 132, "velocity": 80}, {"pitch": 62, "tick": 386052, "length": 108, "velocity": 64}, {"pitch": 66, "tick": 386160, "length": 132, "velocity": 80}, {"pitch": 66, "tick": 386292, "length": 108, "velocity": 64}, {"pitch": 62, "tick": 386400, "length": 132, "velocity": 80}, {"pitch": 62, "tick": 386532, "length": 108, "velocity": 64}, {"pitch": 66, "tick": 386640, "length": 132, "velocity": 80}, {"pitch": 66, "tick": 386772, "length": 108, "velocity": 64}, {"pitch": 62, "tick": 386880, "length": 132, "velocity": 80}, {"pitch": 62, "tick": 387012, "length": 108, "velocity": 64}, {"pitch": 66, "tick": 387120, "length": 132, "velocity": 80}, {"pitch": 66, "tick": 387252, "length": 108, "velocity": 64}, {"pitch": 62, "tick": 387360, "length": 132, "velocity": 80}, {"pitch": 62, "tick": 387492, "length": 108, "velocity": 64}, {"pitch": 66, "tick": 387600, "length": 132, "velocity": 80}, {"pitch": 66, "tick": 387732, "length": 108, "velocity": 64}, {"pitch": 62, "tick": 387840, "length": 132, "velocity": 80}, {"pitch": 62, "tick": 387972, "length": 108, "velocity": 64}, {"pitch": 66, "tick": 388080, "length": 132, "velocity": 80}, {"pitch": 66, "tick": 388212, "length": 108, "velocity": 64}, {"pitch": 62, "tick": 388320, "length": 132, "velocity": 80}, {"pitch": 62, "tick": 388452, "length": 108, "velocity": 64}, {"pitch": 66, "tick": 388560, "length": 132, "velocity": 80}, {"pitch": 66, "tick": 388692, "length": 108, "velocity": 64}, {"pitch": 62, "tick": 388800, "length": 132, "velocity": 80}, {"pitch": 62, "tick": 388932, "length": 108, "velocity": 64}, {"pitch": 66, "tick": 389040, "length": 132, "velocity": 80}, {"pitch": 66, "tick": 389172, "length": 108, "velocity": 64}, {"pitch": 62, "tick": 389280, "length": 132, "velocity": 80}, {"pitch": 62, "tick": 389412, "length": 108, "velocity": 64}, {"pitch": 66, "tick": 389520, "length": 132, "velocity": 80}, {"pitch": 66, "tick": 389652, "length": 108, "velocity": 64}, {"pitch": 62, "tick": 389760, "length": 132, "velocity": 80}, {"pitch": 62, "tick": 389892, "length": 108, "velocity": 64}, {"pitch": 66, "tick": 390000, "length": 132, "velocity": 80}, {"pitch": 66, "tick": 390132, "length": 108, "velocity": 64}, {"pitch": 62, "tick": 390240, "length": 132, "velocity": 80}, {"pitch": 62, "tick": 390372, "length": 108, "velocity": 64}, {"pitch": 66, "tick": 390480, "length": 132, "velocity": 80}, {"pitch": 66, "tick": 390612, "length": 108, "velocity": 64}, {"pitch": 62, "tick": 390720, "length": 132, "velocity": 80}, {"pitch": 62, "tick": 390852, "length": 108, "velocity": 64}, {"pitch": 66, "tick": 390960, "length": 132, "velocity": 80}, {"pitch": 66, "tick": 391092, "length": 108, "velocity": 64}, {"pitch": 62, "tick": 391200, "length": 132, "velocity": 80}, {"pitch": 62, "tick": 391332, "length": 108, "velocity": 64}, {"pitch": 66, "tick": 391440, "length": 132, "velocity": 80}, {"pitch": 66, "tick": 391572, "length": 108, "velocity": 64}, {"pitch": 62, "tick": 391680, "length": 132, "velocity": 80}, {"pitch": 62, "tick": 391812, "length": 108, "velocity": 64}, {"pitch": 66, "tick": 391920, "length": 132, "velocity": 80}, {"pitch": 66, "tick": 392052, "length": 108, "velocity": 64}, {"pitch": 62, "tick": 392160, "length": 132, "velocity": 80}, {"pitch": 62, "tick": 392292, "length": 108, "velocity": 64}, {"pitch": 66, "tick": 392400, "length": 132, "velocity": 80}, {"pitch": 66, "tick": 392532, "length": 108, "velocity": 64}, {"pitch": 62, "tick": 392640, "length": 132, "velocity": 80}, {"pitch": 62, "tick": 392772, "length": 108, "velocity": 64}, {"pitch": 66, "tick": 392880, "length": 132, "velocity": 80}, {"pitch": 66, "tick": 393012, "length": 108, "velocity": 64}, {"pitch": 62, "tick": 393120, "length": 132, "velocity": 80}, {"pitch": 62, "tick": 393252, "length": 108, "velocity": 64}, {"pitch": 66, "tick": 393360, "length": 132, "velocity": 80}, {"pitch": 66, "tick": 393492, "length": 108, "velocity": 64}, {"pitch": 62, "tick": 393600, "length": 132, "velocity": 80}, {"pitch": 62, "tick": 393732, "length": 108, "velocity": 64}, {"pitch": 66, "tick": 393840, "length": 132, "velocity": 80}, {"pitch": 66, "tick": 393972, "length": 108, "velocity": 64}, {"pitch": 62, "tick": 394080, "length": 132, "velocity": 80}, {"pitch": 62, "tick": 394212, "length": 108, "velocity": 64}, {"pitch": 66, "tick": 394320, "length": 132, "velocity": 80}, {"pitch": 66, "tick": 394452, "length": 108, "velocity": 64}, {"pitch": 62, "tick": 394560, "length": 132, "velocity": 80}, {"pitch": 62, "tick": 394692, "length": 108, "velocity": 64}, {"pitch": 66, "tick": 394800, "length": 132, "velocity": 80}, {"pitch": 66, "tick": 394932, "length": 108, "velocity": 64}, {"pitch": 62, "tick": 395040, "length": 132, "velocity": 80}, {"pitch": 62, "tick": 395172, "length": 108, "velocity": 64}, {"pitch": 66, "tick": 395280, "length": 132, "velocity": 80}, {"pitch": 66, "tick": 395412, "length": 108, "velocity": 64}, {"pitch": 62, "tick": 395520, "length": 132, "velocity": 80}, {"pitch": 62, "tick": 395652, "length": 108, "velocity": 64}, {"pitch": 66, "tick": 395760, "length": 132, "velocity": 80}, {"pitch": 66, "tick": 395892, "length": 108, "velocity": 64}, {"pitch": 62, "tick": 396000, "length": 132, "velocity": 80}, {"pitch": 62, "tick": 396132, "length": 108, "velocity": 64}, {"pitch": 66, "tick": 396240, "length": 132, "velocity": 80}, {"pitch": 66, "tick": 396372, "length": 108, "velocity": 64}, {"pitch": 62, "tick": 396480, "length": 132, "velocity": 80}, {"pitch": 62, "tick": 396612, "length": 108, "velocity": 64}, {"pitch": 66, "tick": 396720, "length": 132, "velocity": 80}, {"pitch": 66, "tick": 396852, "length": 108, "velocity": 64}, {"pitch": 62, "tick": 396960, "length": 132, "velocity": 80}, {"pitch": 62, "tick": 397092, "length": 108, "velocity": 64}, {"pitch": 66, "tick": 397200, "length": 132, "velocity": 80}, {"pitch": 66, "tick": 397332, "length": 108, "velocity": 64}, {"pitch": 62, "tick": 397440, "length": 132, "velocity": 80}, {"pitch": 62, "tick": 397572, "length": 108, "velocity": 64}, {"pitch": 66, "tick": 397680, "length": 132, "velocity": 80}, {"pitch": 66, "tick": 397812, "length": 108, "velocity": 64}, {"pitch": 62, "tick": 397920, "length": 132, "velocity": 80}, {"pitch": 62, "tick": 398052, "length": 108, "velocity": 64}, {"pitch": 66, "tick": 398160, "length": 132, "velocity": 80}, {"pitch": 66, "tick": 398292, "length": 108, "velocity": 64}, {"pitch": 62, "tick": 398400, "length": 132, "velocity": 80}, {"pitch": 62, "tick": 398532, "length": 108, "velocity": 64}, {"pitch": 66, "tick": 398640, "length": 132, "velocity": 80}, {"pitch": 66, "tick": 398772, "length": 108, "velocity": 64}, {"pitch": 62, "tick": 398880, "length": 132, "velocity": 80}, {"pitch": 62, "tick": 399012, "length": 108, "velocity": 64}, {"pitch": 66, "tick": 399120, "length": 132, "velocity": 80}, {"pitch": 66, "tick": 399252, "length": 108, "velocity": 64}, {"pitch": 62, "tick": 399360, "length": 132, "velocity": 80}, {"pitch": 62, "tick": 399492, "length": 108, "velocity": 64}, {"pitch": 66, "tick": 399600, "length": 132, "velocity": 80}, {"pitch": 66, "tick": 399732, "length": 108, "velocity": 64}, {"pitch": 62, "tick": 399840, "length": 132, "velocity": 80}, {"pitch": 62, "tick": 399972, "length": 108, "velocity": 64}, {"pitch": 66, "tick": 400080, "length": 132, "velocity": 80}, {"pitch": 66, "tick": 400212, "length": 108, "velocity": 64}, {"pitch": 62, "tick": 400320, "length": 132, "velocity": 80}, {"pitch": 62, "tick": 400452, "length": 108, "velocity": 64}, {"pitch": 66, "tick": 400560, "length": 132, "velocity": 80}, {"pitch": 66, "tick": 400692, "length": 108, "velocity": 64}, {"pitch": 62, "tick": 400800, "length": 132, "velocity": 80}, {"pitch": 62, "tick": 400932, "length": 108, "velocity": 64}, {"pitch": 66, "tick": 401040, "length": 132, "velocity": 80}, {"pitch": 66, "tick": 401172, "length": 108, "velocity": 64}, {"pitch": 62, "tick": 401280, "length": 132, "velocity": 80}, {"pitch": 62, "tick": 401412, "length": 108, "velocity": 64}, {"pitch": 66, "tick": 401520, "length": 132, "velocity": 80}, {"pitch": 66, "tick": 401652, "length": 108, "velocity": 64}, {"pitch": 62, "tick": 401760, "length": 132, "velocity": 80}, {"pitch": 62, "tick": 401892, "length": 108, "velocity": 64}, {"pitch": 66, "tick": 402000, "length": 132, "velocity": 80}, {"pitch": 66, "tick": 402132, "length": 108, "velocity": 64}, {"pitch": 62, "tick": 402240, "length": 132, "velocity": 80}, {"pitch": 62, "tick": 402372, "length": 108, "velocity": 64}, {"pitch": 66, "tick": 402480, "length": 132, "velocity": 80}, {"pitch": 66, "tick": 402612, "length": 108, "velocity": 64}, {"pitch": 62, "tick": 402720, "length": 132, "velocity": 80}, {"pitch": 62, "tick": 402852, "length": 108, "velocity": 64}, {"pitch": 66, "tick": 402960, "length": 132, "velocity": 80}, {"pitch": 66, "tick": 403092, "length": 108, "velocity": 64}, {"pitch": 62, "tick": 403200, "length": 132, "velocity": 80}, {"pitch": 62, "tick": 403332, "length": 108, "velocity": 64}, {"pitch": 66, "tick": 403440, "length": 132, "velocity": 80}, {"pitch": 66, "tick": 403572, "length": 108, "velocity": 64}, {"pitch": 62, "tick": 403680, "length": 132, "velocity": 80}, {"pitch": 62, "tick": 403812, "length": 108, "velocity": 64}, {"pitch": 66, "tick": 403920, "length": 132, "velocity": 80}, {"pitch": 66, "tick": 404052, "length": 108, "velocity": 64}, {"pitch": 62, "tick": 404160, "length": 132, "velocity": 80}, {"pitch": 62, "tick": 404292, "length": 108, "velocity": 64}, {"pitch": 66, "tick": 404400, "length": 132, "velocity": 80}, {"pitch": 66, "tick": 404532, "length": 108, "velocity": 64}, {"pitch": 62, "tick": 404640, "length": 132, "velocity": 80}, {"pitch": 62, "tick": 404772, "length": 108, "velocity": 64}, {"pitch": 66, "tick": 404880, "length": 132, "velocity": 80}, {"pitch": 66, "tick": 405012, "length": 108, "velocity": 64}, {"pitch": 62, "tick": 405120, "length": 132, "velocity": 80}, {"pitch": 62, "tick": 405252, "length": 108, "velocity": 64}, {"pitch": 66, "tick": 405360, "length": 132, "velocity": 80}, {"pitch": 66, "tick": 405492, "length": 108, "velocity": 64}, {"pitch": 62, "tick": 405600, "length": 132, "velocity": 80}, {"pitch": 62, "tick": 405732, "length": 108, "velocity": 64}, {"pitch": 66, "tick": 405840, "length": 132, "velocity": 80}, {"pitch": 66, "tick": 405972, "length": 108, "velocity": 64}, {"pitch": 62, "tick": 406080, "length": 132, "velocity": 80}, {"pitch": 62, "tick": 406212, "length": 108, "velocity": 64}, {"pitch": 66, "tick": 406320, "length": 132, "velocity": 80}, {"pitch": 66, "tick": 406452, "length": 108, "velocity": 64}, {"pitch": 62, "tick": 406560, "length": 132, "velocity": 80}, {"pitch": 62, "tick": 406692, "length": 108, "velocity": 64}, {"pitch": 66, "tick": 406800, "length": 132, "velocity": 80}, {"pitch": 66, "tick": 406932, "length": 108, "velocity": 64}, {"pitch": 62, "tick": 407040, "length": 132, "velocity": 80}, {"pitch": 62, "tick": 407172, "length": 108, "velocity": 64}, {"pitch": 66, "tick": 407280, "length": 132, "velocity": 80}, {"pitch": 66, "tick": 407412, "length": 108, "velocity": 64}, {"pitch": 62, "tick": 407520, "length": 132, "velocity": 80}, {"pitch": 62, "tick": 407652, "length": 108, "velocity": 64}, {"pitch": 66, "tick": 407760, "length": 132, "velocity": 80}, {"pitch": 66, "tick": 407892, "length": 108, "velocity": 64}, {"pitch": 62, "tick": 408000, "length": 132, "velocity": 80}, {"pitch": 62, "tick": 408132, "length": 108, "velocity": 64}, {"pitch": 66, "tick": 408240, "length": 132, "velocity": 80}, {"pitch": 66, "tick": 408372, "length": 108, "velocity": 64}, {"pitch": 62, "tick": 408480, "length": 132, "velocity": 80}, {"pitch": 62, "tick": 408612, "length": 108, "velocity": 64}, {"pitch": 66, "tick": 408720, "length": 132, "velocity": 80}, {"pitch": 66, "tick": 408852, "length": 108, "velocity": 64}, {"pitch": 62, "tick": 424320, "length": 132, "velocity": 80}, {"pitch": 62, "tick": 424452, "length": 108, "velocity": 64}, {"pitch": 66, "tick": 424560, "length": 132, "velocity": 80}, {"pitch": 66, "tick": 424692, "length": 108, "velocity": 64}, {"pitch": 62, "tick": 424800, "length": 132, "velocity": 80}, {"pitch": 62, "tick": 424932, "length": 108, "velocity": 64}, {"pitch": 66, "tick": 425040, "length": 132, "velocity": 80}, {"pitch": 66, "tick": 425172, "length": 108, "velocity": 64}, {"pitch": 62, "tick": 425280, "length": 132, "velocity": 80}, {"pitch": 62, "tick": 425412, "length": 108, "velocity": 64}, {"pitch": 66, "tick": 425520, "length": 132, "velocity": 80}, {"pitch": 66, "tick": 425652, "length": 108, "velocity": 64}, {"pitch": 62, "tick": 425760, "length": 132, "velocity": 80}, {"pitch": 62, "tick": 425892, "length": 108, "velocity": 64}, {"pitch": 66, "tick": 426000, "length": 132, "velocity": 80}, {"pitch": 66, "tick": 426132, "length": 108, "velocity": 64}, {"pitch": 62, "tick": 426240, "length": 132, "velocity": 80}, {"pitch": 62, "tick": 426372, "length": 108, "velocity": 64}, {"pitch": 66, "tick": 426480, "length": 132, "velocity": 80}, {"pitch": 66, "tick": 426612, "length": 108, "velocity": 64}, {"pitch": 62, "tick": 426720, "length": 132, "velocity": 80}, {"pitch": 62, "tick": 426852, "length": 108, "velocity": 64}, {"pitch": 66, "tick": 426960, "length": 132, "velocity": 80}, {"pitch": 66, "tick": 427092, "length": 108, "velocity": 64}, {"pitch": 62, "tick": 427200, "length": 132, "velocity": 80}, {"pitch": 62, "tick": 427332, "length": 108, "velocity": 64}, {"pitch": 66, "tick": 427440, "length": 132, "velocity": 80}, {"pitch": 66, "tick": 427572, "length": 108, "velocity": 64}, {"pitch": 62, "tick": 427680, "length": 132, "velocity": 80}, {"pitch": 62, "tick": 427812, "length": 108, "velocity": 64}, {"pitch": 66, "tick": 427920, "length": 132, "velocity": 80}, {"pitch": 66, "tick": 428052, "length": 108, "velocity": 64}, {"pitch": 62, "tick": 428160, "length": 132, "velocity": 80}, {"pitch": 62, "tick": 428292, "length": 108, "velocity": 64}, {"pitch": 66, "tick": 428400, "length": 132, "velocity": 80}, {"pitch": 66, "tick": 428532, "length": 108, "velocity": 64}, {"pitch": 62, "tick": 428640, "length": 132, "velocity": 80}, {"pitch": 62, "tick": 428772, "length": 108, "velocity": 64}, {"pitch": 66, "tick": 428880, "length": 132, "velocity": 80}, {"pitch": 66, "tick": 429012, "length": 108, "velocity": 64}, {"pitch": 62, "tick": 429120, "length": 132, "velocity": 80}, {"pitch": 62, "tick": 429252, "length": 108, "velocity": 64}, {"pitch": 66, "tick": 429360, "length": 132, "velocity": 80}, {"pitch": 66, "tick": 429492, "length": 108, "velocity": 64}, {"pitch": 62, "tick": 429600, "length": 132, "velocity": 80}, {"pitch": 62, "tick": 429732, "length": 108, "velocity": 64}, {"pitch": 66, "tick": 429840, "length": 132, "velocity": 80}, {"pitch": 66, "tick": 429972, "length": 108, "velocity": 64}, {"pitch": 62, "tick": 430080, "length": 132, "velocity": 80}, {"pitch": 62, "tick": 430212, "length": 108, "velocity": 64}, {"pitch": 66, "tick": 430320, "length": 132, "velocity": 80}, {"pitch": 66, "tick": 430452, "length": 108, "velocity": 64}, {"pitch": 62, "tick": 430560, "length": 132, "velocity": 80}, {"pitch": 62, "tick": 430692, "length": 108, "velocity": 64}, {"pitch": 66, "tick": 430800, "length": 132, "velocity": 80}, {"pitch": 66, "tick": 430932, "length": 108, "velocity": 64}, {"pitch": 62, "tick": 431040, "length": 132, "velocity": 80}, {"pitch": 62, "tick": 431172, "length": 108, "velocity": 64}, {"pitch": 66, "tick": 431280, "length": 132, "velocity": 80}, {"pitch": 66, "tick": 431412, "length": 108, "velocity": 64}, {"pitch": 62, "tick": 431520, "length": 132, "velocity": 80}, {"pitch": 62, "tick": 431652, "length": 108, "velocity": 64}, {"pitch": 66, "tick": 431760, "length": 132, "velocity": 80}, {"pitch": 66, "tick": 431892, "length": 108, "velocity": 64}, {"pitch": 62, "tick": 432000, "length": 132, "velocity": 80}, {"pitch": 62, "tick": 432132, "length": 108, "velocity": 64}, {"pitch": 66, "tick": 432240, "length": 132, "velocity": 80}, {"pitch": 66, "tick": 432372, "length": 108, "velocity": 64}, {"pitch": 62, "tick": 432480, "length": 132, "velocity": 80}, {"pitch": 62, "tick": 432612, "length": 108, "velocity": 64}, {"pitch": 66, "tick": 432720, "length": 132, "velocity": 80}, {"pitch": 66, "tick": 432852, "length": 108, "velocity": 64}, {"pitch": 62, "tick": 432960, "length": 132, "velocity": 80}, {"pitch": 62, "tick": 433092, "length": 108, "velocity": 64}, {"pitch": 66, "tick": 433200, "length": 132, "velocity": 80}, {"pitch": 66, "tick": 433332, "length": 108, "velocity": 64}, {"pitch": 62, "tick": 433440, "length": 132, "velocity": 80}, {"pitch": 62, "tick": 433572, "length": 108, "velocity": 64}, {"pitch": 66, "tick": 433680, "length": 132, "velocity": 80}, {"pitch": 66, "tick": 433812, "length": 108, "velocity": 64}, {"pitch": 62, "tick": 433920, "length": 132, "velocity": 80}, {"pitch": 62, "tick": 434052, "length": 108, "velocity": 64}, {"pitch": 66, "tick": 434160, "length": 132, "velocity": 80}, {"pitch": 66, "tick": 434292, "length": 108, "velocity": 64}, {"pitch": 62, "tick": 434400, "length": 132, "velocity": 80}, {"pitch": 62, "tick": 434532, "length": 108, "velocity": 64}, {"pitch": 66, "tick": 434640, "length": 132, "velocity": 80}, {"pitch": 66, "tick": 434772, "length": 108, "velocity": 64}, {"pitch": 62, "tick": 434880, "length": 132, "velocity": 80}, {"pitch": 62, "tick": 435012, "length": 108, "velocity": 64}, {"pitch": 66, "tick": 435120, "length": 132, "velocity": 80}, {"pitch": 66, "tick": 435252, "length": 108, "velocity": 64}, {"pitch": 62, "tick": 435360, "length": 132, "velocity": 80}, {"pitch": 62, "tick": 435492, "length": 108, "velocity": 64}, {"pitch": 66, "tick": 435600, "length": 132, "velocity": 80}, {"pitch": 66, "tick": 435732, "length": 108, "velocity": 64}, {"pitch": 62, "tick": 435840, "length": 132, "velocity": 80}, {"pitch": 62, "tick": 435972, "length": 108, "velocity": 64}, {"pitch": 66, "tick": 436080, "length": 132, "velocity": 80}, {"pitch": 66, "tick": 436212, "length": 108, "velocity": 64}, {"pitch": 62, "tick": 436320, "length": 132, "velocity": 80}, {"pitch": 62, "tick": 436452, "length": 108, "velocity": 64}, {"pitch": 66, "tick": 436560, "length": 132, "velocity": 80}, {"pitch": 66, "tick": 436692, "length": 108, "velocity": 64}, {"pitch": 62, "tick": 436800, "length": 132, "velocity": 80}, {"pitch": 62, "tick": 436932, "length": 108, "velocity": 64}, {"pitch": 66, "tick": 437040, "length": 132, "velocity": 80}, {"pitch": 66, "tick": 437172, "length": 108, "velocity": 64}, {"pitch": 62, "tick": 437280, "length": 132, "velocity": 80}, {"pitch": 62, "tick": 437412, "length": 108, "velocity": 64}, {"pitch": 66, "tick": 437520, "length": 132, "velocity": 80}, {"pitch": 66, "tick": 437652, "length": 108, "velocity": 64}, {"pitch": 62, "tick": 437760, "length": 132, "velocity": 80}, {"pitch": 62, "tick": 437892, "length": 108, "velocity": 64}, {"pitch": 66, "tick": 438000, "length": 132, "velocity": 80}, {"pitch": 66, "tick": 438132, "length": 108, "velocity": 64}, {"pitch": 62, "tick": 438240, "length": 132, "velocity": 80}, {"pitch": 62, "tick": 438372, "length": 108, "velocity": 64}, {"pitch": 66, "tick": 438480, "length": 132, "velocity": 80}, {"pitch": 66, "tick": 438612, "length": 108, "velocity": 64}, {"pitch": 62, "tick": 438720, "length": 132, "velocity": 80}, {"pitch": 62, "tick": 438852, "length": 108, "velocity": 64}, {"pitch": 66, "tick": 438960, "length": 132, "velocity": 80}, {"pitch": 66, "tick": 439092, "length": 108, "velocity": 64}, {"pitch": 62, "tick": 439200, "length": 132, "velocity": 80}, {"pitch": 62, "tick": 439332, "length": 108, "velocity": 64}, {"pitch": 66, "tick": 439440, "length": 132, "velocity": 80}, {"pitch": 66, "tick": 439572, "length": 108, "velocity": 64}, {"pitch": 62, "tick": 455040, "length": 132, "velocity": 80}, {"pitch": 62, "tick": 455172, "length": 108, "velocity": 64}, {"pitch": 66, "tick": 455280, "length": 132, "velocity": 80}, {"pitch": 66, "tick": 455412, "length": 108, "velocity": 64}, {"pitch": 62, "tick": 455520, "length": 132, "velocity": 80}, {"pitch": 62, "tick": 455652, "length": 108, "velocity": 64}, {"pitch": 66, "tick": 455760, "length": 132, "velocity": 80}, {"pitch": 66, "tick": 455892, "length": 108, "velocity": 64}, {"pitch": 62, "tick": 456000, "length": 132, "velocity": 80}, {"pitch": 62, "tick": 456132, "length": 108, "velocity": 64}, {"pitch": 66, "tick": 456240, "length": 132, "velocity": 80}, {"pitch": 66, "tick": 456372, "length": 108, "velocity": 64}, {"pitch": 62, "tick": 456480, "length": 132, "velocity": 80}, {"pitch": 62, "tick": 456612, "length": 108, "velocity": 64}, {"pitch": 66, "tick": 456720, "length": 132, "velocity": 80}, {"pitch": 66, "tick": 456852, "length": 108, "velocity": 64}, {"pitch": 62, "tick": 456960, "length": 132, "velocity": 80}, {"pitch": 62, "tick": 457092, "length": 108, "velocity": 64}, {"pitch": 66, "tick": 457200, "length": 132, "velocity": 80}, {"pitch": 66, "tick": 457332, "length": 108, "velocity": 64}, {"pitch": 62, "tick": 457440, "length": 132, "velocity": 80}, {"pitch": 62, "tick": 457572, "length": 108, "velocity": 64}, {"pitch": 66, "tick": 457680, "length": 132, "velocity": 80}, {"pitch": 66, "tick": 457812, "length": 108, "velocity": 64}, {"pitch": 62, "tick": 457920, "length": 132, "velocity": 80}, {"pitch": 62, "tick": 458052, "length": 108, "velocity": 64}, {"pitch": 66, "tick": 458160, "length": 132, "velocity": 80}, {"pitch": 66, "tick": 458292, "length": 108, "velocity": 64}, {"pitch": 62, "tick": 458400, "length": 132, "velocity": 80}, {"pitch": 62, "tick": 458532, "length": 108, "velocity": 64}, {"pitch": 66, "tick": 458640, "length": 132, "velocity": 80}, {"pitch": 66, "tick": 458772, "length": 108, "velocity": 64}, {"pitch": 62, "tick": 458880, "length": 132, "velocity": 80}, {"pitch": 62, "tick": 459012, "length": 108, "velocity": 64}, {"pitch": 66, "tick": 459120, "length": 132, "velocity": 80}, {"pitch": 66, "tick": 459252, "length": 108, "velocity": 64}, {"pitch": 62, "tick": 459360, "length": 132, "velocity": 80}, {"pitch": 62, "tick": 459492, "length": 108, "velocity": 64}, {"pitch": 66, "tick": 459600, "length": 132, "velocity": 80}, {"pitch": 66, "tick": 459732, "length": 108, "velocity": 64}, {"pitch": 62, "tick": 459840, "length": 132, "velocity": 80}, {"pitch": 62, "tick": 459972, "length": 108, "velocity": 64}, {"pitch": 66, "tick": 460080, "length": 132, "velocity": 80}, {"pitch": 66, "tick": 460212, "length": 108, "velocity": 64}, {"pitch": 62, "tick": 460320, "length": 132, "velocity": 80}, {"pitch": 62, "tick": 460452, "length": 108, "velocity": 64}, {"pitch": 66, "tick": 460560, "length": 132, "velocity": 80}, {"pitch": 66, "tick": 460692, "length": 108, "velocity": 64}, {"pitch": 62, "tick": 460800, "length": 132, "velocity": 80}, {"pitch": 62, "tick": 460932, "length": 108, "velocity": 64}, {"pitch": 66, "tick": 461040, "length": 132, "velocity": 80}, {"pitch": 66, "tick": 461172, "length": 108, "velocity": 64}, {"pitch": 62, "tick": 461280, "length": 132, "velocity": 80}, {"pitch": 62, "tick": 461412, "length": 108, "velocity": 64}, {"pitch": 66, "tick": 461520, "length": 132, "velocity": 80}, {"pitch": 66, "tick": 461652, "length": 108, "velocity": 64}, {"pitch": 62, "tick": 461760, "length": 132, "velocity": 80}, {"pitch": 62, "tick": 461892, "length": 108, "velocity": 64}, {"pitch": 66, "tick": 462000, "length": 132, "velocity": 80}, {"pitch": 66, "tick": 462132, "length": 108, "velocity": 64}, {"pitch": 62, "tick": 462240, "length": 132, "velocity": 80}, {"pitch": 62, "tick": 462372, "length": 108, "velocity": 64}, {"pitch": 66, "tick": 462480, "length": 132, "velocity": 80}, {"pitch": 66, "tick": 462612, "length": 108, "velocity": 64}, {"pitch": 62, "tick": 462720, "length": 132, "velocity": 80}, {"pitch": 62, "tick": 462852, "length": 108, "velocity": 64}, {"pitch": 66, "tick": 462960, "length": 132, "velocity": 80}, {"pitch": 66, "tick": 463092, "length": 108, "velocity": 64}, {"pitch": 62, "tick": 463200, "length": 132, "velocity": 80}, {"pitch": 62, "tick": 463332, "length": 108, "velocity": 64}, {"pitch": 66, "tick": 463440, "length": 132, "velocity": 80}, {"pitch": 66, "tick": 463572, "length": 108, "velocity": 64}, {"pitch": 62, "tick": 463680, "length": 132, "velocity": 80}, {"pitch": 62, "tick": 463812, "length": 108, "velocity": 64}, {"pitch": 66, "tick": 463920, "length": 132, "velocity": 80}, {"pitch": 66, "tick": 464052, "length": 108, "velocity": 64}, {"pitch": 62, "tick": 464160, "length": 132, "velocity": 80}, {"pitch": 62, "tick": 464292, "length": 108, "velocity": 64}, {"pitch": 66, "tick": 464400, "length": 132, "velocity": 80}, {"pitch": 66, "tick": 464532, "length": 108, "velocity": 64}, {"pitch": 62, "tick": 464640, "length": 132, "velocity": 80}, {"pitch": 62, "tick": 464772, "length": 108, "velocity": 64}, {"pitch": 66, "tick": 464880, "length": 132, "velocity": 80}, {"pitch": 66, "tick": 465012, "length": 108, "velocity": 64}, {"pitch": 62, "tick": 465120, "length": 132, "velocity": 80}, {"pitch": 62, "tick": 465252, "length": 108, "velocity": 64}, {"pitch": 66, "tick": 465360, "length": 132, "velocity": 80}, {"pitch": 66, "tick": 465492, "length": 108, "velocity": 64}, {"pitch": 62, "tick": 465600, "length": 132, "velocity": 80}, {"pitch": 62, "tick": 465732, "length": 108, "velocity": 64}, {"pitch": 66, "tick": 465840, "length": 132, "velocity": 80}, {"pitch": 66, "tick": 465972, "length": 108, "velocity": 64}, {"pitch": 62, "tick": 466080, "length": 132, "velocity": 80}, {"pitch": 62, "tick": 466212, "length": 108, "velocity": 64}, {"pitch": 66, "tick": 466320, "length": 132, "velocity": 80}, {"pitch": 66, "tick": 466452, "length": 108, "velocity": 64}, {"pitch": 62, "tick": 466560, "length": 132, "velocity": 80}, {"pitch": 62, "tick": 466692, "length": 108, "velocity": 64}, {"pitch": 66, "tick": 466800, "length": 132, "velocity": 80}, {"pitch": 66, "tick": 466932, "length": 108, "velocity": 64}, {"pitch": 62, "tick": 467040, "length": 132, "velocity": 80}, {"pitch": 62, "tick": 467172, "length": 108, "velocity": 64}, {"pitch": 66, "tick": 467280, "length": 132, "velocity": 80}, {"pitch": 66, "tick": 467412, "length": 108, "velocity": 64}, {"pitch": 62, "tick": 467520, "length": 132, "velocity": 80}, {"pitch": 62, "tick": 467652, "length": 108, "velocity": 64}, {"pitch": 66, "tick": 467760, "length": 132, "velocity": 80}, {"pitch": 66, "tick": 467892, "length": 108, "velocity": 64}, {"pitch": 62, "tick": 468000, "length": 132, "velocity": 80}, {"pitch": 62, "tick": 468132, "length": 108, "velocity": 64}, {"pitch": 66, "tick": 468240, "length": 132, "velocity": 80}, {"pitch": 66, "tick": 468372, "length": 108, "velocity": 64}, {"pitch": 62, "tick": 468480, "length": 132, "velocity": 80}, {"pitch": 62, "tick": 468612, "length": 108, "velocity": 64}, {"pitch": 66, "tick": 468720, "length": 132, "velocity": 80}, {"pitch": 66, "tick": 468852, "length": 108, "velocity": 64}, {"pitch": 62, "tick": 468960, "length": 132, "velocity": 80}, {"pitch": 62, "tick": 469092, "length": 108, "velocity": 64}, {"pitch": 66, "tick": 469200, "length": 132, "velocity": 80}, {"pitch": 66, "tick": 469332, "length": 108, "velocity": 64}, {"pitch": 62, "tick": 469440, "length": 132, "velocity": 80}, {"pitch": 62, "tick": 469572, "length": 108, "velocity": 64}, {"pitch": 66, "tick": 469680, "length": 132, "velocity": 80}, {"pitch": 66, "tick": 469812, "length": 108, "velocity": 64}, {"pitch": 62, "tick": 469920, "length": 132, "velocity": 80}, {"pitch": 62, "tick": 470052, "length": 108, "velocity": 64}, {"pitch": 66, "tick": 470160, "length": 132, "velocity": 80}, {"pitch": 66, "tick": 470292, "length": 108, "velocity": 64}]}, {"channel": 9, "length": 531420, "track_name": "\u0083h\u0083\u0089\u0083\u0080", "events": [{"type": "track_name", "name": "\u0083h\u0083\u0089\u0083\u0080", "tick": 0}, {"type": "midi_port", "port": 0, "tick": 0}, {"type": "control_change", "control": 0, "value": 120, "channel": 9, "tick": 480}, {"type": "control_change", "control": 32, "value": 0, "channel": 9, "tick": 480}, {"type": "program_change", "program": 25, "channel": 9, "tick": 480}, {"type": "sysex", "data": [65, 16, 0, 72, 18, 16, 0, 41, 63, 2, 6], "tick": 540}, {"type": "control_change", "control": 7, "value": 96, "channel": 9, "tick": 600}, {"type": "control_change", "control": 10, "value": 64, "channel": 9, "tick": 660}, {"type": "control_change", "control": 91, "value": 0, "channel": 9, "tick": 720}, {"type": "control_change", "control": 93, "value": 0, "channel": 9, "tick": 780}, {"type": "control_change", "control": 74, "value": 64, "channel": 9, "tick": 840}, {"type": "control_change", "control": 71, "value": 64, "channel": 9, "tick": 900}, {"type": "control_change", "control": 73, "value": 64, "channel": 9, "tick": 960}, {"type": "control_change", "control": 75, "value": 64, "channel": 9, "tick": 1020}, {"type": "control_change", "control": 72, "value": 64, "channel": 9, "tick": 1080}, {"type": "control_change", "control": 101, "value": 0, "channel": 9, "tick": 1140}, {"type": "control_change", "control": 100, "value": 0, "channel": 9, "tick": 1140}, {"type": "control_change", "control": 6, "value": 12, "channel": 9, "tick": 1140}, {"type": "control_change", "control": 38, "value": 0, "channel": 9, "tick": 1140}, {"type": "pitchwheel", "channel": 9, "pitch": 0, "tick": 1200}, {"type": "control_change", "control": 1, "value": 0, "channel": 9, "tick": 1260}, {"type": "control_change", "control": 11, "value": 127, "channel": 9, "tick": 1320}, {"type": "control_change", "control": 101, "value": 127, "channel": 9, "tick": 1380}, {"type": "control_change", "control": 100, "value": 127, "channel": 9, "tick": 1380}, {"type": "control_change", "control": 6, "value": 0, "channel": 9, "tick": 1380}, {"type": "control_change", "control": 38, "value": 0, "channel": 9, "tick": 1380}, {"type": "sysex", "data": [127, 127, 10, 1, 9, 42, 10, 64], "tick": 1440}, {"type": "control_change", "control": 11, "value": 32, "channel": 9, "tick": 226560}, {"type": "control_change", "control": 11, "value": 38, "channel": 9, "tick": 226680}, {"type": "control_change", "control": 11, "value": 44, "channel": 9, "tick": 226800}, {"type": "control_change", "control": 11, "value": 50, "channel": 9, "tick": 226920}, {"type": "control_change", "control": 11, "value": 56, "channel": 9, "tick": 227040}, {"type": "control_change", "control": 11, "value": 62, "channel": 9, "tick": 227160}, {"type": "control_change", "control": 11, "value": 68, "channel": 9, "tick": 227280}, {"type": "control_change", "control": 11, "value": 74, "channel": 9, "tick": 227400}, {"type": "control_change", "control": 11, "value": 80, "channel": 9, "tick": 227520}, {"type": "control_change", "control": 11, "value": 85, "channel": 9, "tick": 227640}, {"type": "control_change", "control": 11, "value": 91, "channel": 9, "tick": 227760}, {"type": "control_change", "control": 11, "value": 97, "channel": 9, "tick": 227880}, {"type": "control_change", "control": 11, "value": 103, "channel": 9, "tick": 228000}, {"type": "control_change", "control": 11, "value": 109, "channel": 9, "tick": 228120}, {"type": "control_change", "control": 11, "value": 115, "channel": 9, "tick": 228240}, {"type": "control_change", "control": 11, "value": 121, "channel": 9, "tick": 228360}, {"type": "control_change", "control": 11, "value": 127, "channel": 9, "tick": 228480}, {"type": "end_of_track", "tick": 531420}], "notes": [{"pitch": 35, "tick": 1920, "length": 60, "velocity": 112}, {"pitch": 42, "tick": 2160, "length": 60, "velocity": 96}, {"pitch": 38, "tick": 2400, "length": 60, "velocity": 112}, {"pitch": 42, "tick": 2640, "length": 60, "velocity": 96}, {"pitch": 35, "tick": 2640, "length": 60, "velocity": 112}, {"pitch": 42, "tick": 3120, "length": 60, "velocity": 96}, {"pitch": 35, "tick": 3120, "length": 60, "velocity": 112}, {"pitch": 38, "tick": 3360, "length": 60, "velocity": 112}, {"pitch": 42, "tick": 3600, "length": 60, "velocity": 96}, {"pitch": 35, "tick": 3840, "length": 60, "velocity": 112}, {"pitch": 42, "tick": 4080, "length": 60, "velocity": 96}, {"pitch": 38, "tick": 4320, "length": 60, "velocity": 112}, {"pitch": 42, "tick": 4560, "length": 60, "velocity": 96}, {"pitch": 35, "tick": 4560, "length": 60, "velocity": 112}, {"pitch": 42, "tick": 5040, "length": 60, "velocity": 96}, {"pitch": 35, "tick": 5040, "length": 60, "velocity": 112}, {"pitch": 38, "tick": 5280, "length": 60, "velocity": 112}, {"pitch": 42, "tick": 5520, "length": 60, "velocity": 96}, {"pitch": 35, "tick": 5760, "length": 60, "velocity": 112}, {"pitch": 42, "tick": 6000, "length": 60, "velocity": 96}, {"pitch": 38, "tick": 6240, "length": 60, "velocity": 112}, {"pitch": 42, "tick": 6480, "length": 60, "velocity": 96}, {"pitch": 35, "tick": 6480, "length": 60, "velocity": 112}, {"pitch": 42, "tick": 6960, "length": 60, "velocity": 96}, {"pitch": 35, "tick": 6960, "length": 60, "velocity": 112}, {"pitch": 38, "tick": 7200, "length": 60, "velocity": 112}, {"pitch": 42, "tick": 7440, "length": 60, "velocity": 96}, {"pitch": 35, "tick": 7680, "length": 60, "velocity": 112}, {"pitch": 42, "tick": 7920, "length": 60, "velocity": 96}, {"pitch": 38, "tick": 8160, "length": 60, "velocity": 112}, {"pitch": 42, "tick": 8400, "length": 60, "velocity": 96}, {"pitch": 35, "tick": 8400, "length": 60, "velocity": 112}, {"pitch": 42, "tick": 8880, "length": 60, "velocity": 96}, {"pitch": 35, "tick": 8880, "length": 60, "velocity": 112}, {"pitch": 38, "tick": 9120, "length": 60, "velocity": 112}, {"pitch": 42, "tick": 9360, "length": 60, "velocity": 96}, {"pitch": 35, "tick": 9600, "length": 60, "velocity": 112}, {"pitch": 42, "tick": 9840, "length": 60, "velocity": 96}, {"pitch": 38, "tick": 10080, "length": 60, "velocity": 112}, {"pitch": 42, "tick": 10320, "length": 60, "velocity": 96}, {"pitch": 35, "tick": 10320, "length": 60, "velocity": 112}, {"pitch": 42, "tick": 10800, "length": 60, "velocity": 96}, {"pitch": 35, "tick": 10800, "length": 60, "velocity": 112}, {"pitch": 38, "tick": 11040, "length": 60, "velocity": 112}, {"pitch": 42, "tick": 11280, "length": 60, "velocity": 96}, {"pitch": 35, "tick": 11520, "length": 60, "velocity": 112}, {"pitch": 42, "tick": 11760, "length": 60, "velocity": 96}, {"pitch": 38, "tick": 12000, "length": 60, "velocity": 112}, {"pitch": 42, "tick": 12240, "length": 60, "velocity": 96}, {"pitch": 35, "tick": 12240, "length": 60, "velocity": 112}, {"pitch": 42, "tick": 12720, "length": 60, "velocity": 96}, {"pitch": 35, "tick": 12720, "length": 60, "velocity": 112}, {"pitch": 38, "tick": 12960, "length": 60, "velocity": 112}, {"pitch": 42, "tick": 13200, "length": 60, "velocity": 96}, {"pitch": 35, "tick": 13440, "length": 60, "velocity": 112}, {"pitch": 42, "tick": 13680, "length": 60, "velocity": 96}, {"pitch": 38, "tick": 13920, "length": 60, "velocity": 112}, {"pitch": 42, "tick": 14160, "length": 60, "velocity": 96}, {"pitch": 35, "tick": 14160, "length": 60, "velocity": 112}, {"pitch": 42, "tick": 14640, "length": 60, "velocity": 96}, {"pitch": 35, "tick": 14640, "length": 60, "velocity": 112}, {"pitch": 38, "tick": 14880, "length": 60, "velocity": 112}, {"pitch": 42, "tick": 15120, "length": 60, "velocity": 96}, {"pitch": 35, "tick": 15360, "length": 60, "velocity": 112}, {"pitch": 42, "tick": 15600, "length": 60, "velocity": 96}, {"pitch": 38, "tick": 15840, "length": 60, "velocity": 112}, {"pitch": 42, "tick": 16080, "length": 60, "velocity": 96}, {"pitch": 35, "tick": 16080, "length": 60, "velocity": 112}, {"pitch": 42, "tick": 16560, "length": 60, "velocity": 96}, {"pitch": 35, "tick": 16560, "length": 60, "velocity": 112}, {"pitch": 38, "tick": 16800, "length": 60, "velocity": 112}, {"pitch": 42, "tick": 17040, "length": 60, "velocity": 96}, {"pitch": 35, "tick": 17280, "length": 60, "velocity": 112}, {"pitch": 42, "tick": 17520, "length": 60, "velocity": 96}, {"pitch": 38, "tick": 17760, "length": 60, "velocity": 112}, {"pitch": 42, "tick": 18000, "length": 60, "velocity": 96}, {"pitch": 35, "tick": 18000, "length": 60, "velocity": 112}, {"pitch": 42, "tick": 18480, "length": 60, "velocity": 96}, {"pitch": 35, "tick": 18480, "length": 60, "velocity": 112}, {"pitch": 38, "tick": 18720, "length": 60, "velocity": 112}, {"pitch": 42, "tick": 18960, "length": 60, "velocity": 96}, {"pitch": 35, "tick": 19200, "length": 60, "velocity": 112}, {"pitch": 42, "tick": 19440, "length": 60, "velocity": 96}, {"pitch": 38, "tick": 19680, "length": 60, "velocity": 112}, {"pitch": 42, "tick": 19920, "length": 60, "velocity": 96}, {"pitch": 35, "tick": 19920, "length": 60, "velocity": 112}, {"pitch": 42, "tick": 20400, "length": 60, "velocity": 96}, {"pitch": 35, "tick": 20400, "length": 60, "velocity": 112}, {"pitch": 38, "tick": 20640, "length": 60, "velocity": 112}, {"pitch": 42, "tick": 20880, "length": 60, "velocity": 96}, {"pitch": 35, "tick": 21120, "length": 60, "velocity": 112}, {"pitch": 42, "tick": 21360, "length": 60, "velocity": 96}, {"pitch": 38, "tick": 21600, "length": 60, "velocity": 112}, {"pitch": 42, "tick": 21840, "length": 60, "velocity": 96}, {"pitch": 35, "tick": 21840, "length": 60, "velocity": 112}, {"pitch": 42, "tick": 22320, "length": 60, "velocity": 96}, {"pitch": 35, "tick": 22320, "length": 60, "velocity": 112}, {"pitch": 38, "tick": 22560, "length": 60, "velocity": 112}, {"pitch": 42, "tick": 22800, "length": 60, "velocity": 96}, {"pitch": 35, "tick": 23040, "length": 60, "velocity": 112}, {"pitch": 42, "tick": 23280, "length": 60, "velocity": 96}, {"pitch": 38, "tick": 23520, "length": 60, "velocity": 112}, {"pitch": 42, "tick": 23760, "length": 60, "velocity": 96}, {"pitch": 35, "tick": 23760, "length": 60, "velocity": 112}, {"pitch": 42, "tick": 24240, "length": 60, "velocity": 96}, {"pitch": 35, "tick": 24240, "length": 60, "velocity": 112}, {"pitch": 38, "tick": 24480, "length": 60, "velocity": 112}, {"pitch": 42, "tick": 24720, "length": 60, "velocity": 96}, {"pitch": 35, "tick": 24960, "length": 60, "velocity": 112}, {"pitch": 42, "tick": 25200, "length": 60, "velocity": 96}, {"pitch": 38, "tick": 25440, "length": 60, "velocity": 112}, {"pitch": 42, "tick": 25680, "length": 60, "velocity": 96}, {"pitch": 35, "tick": 25680, "length": 60, "velocity": 112}, {"pitch": 42, "tick": 26160, "length": 60, "velocity": 96}, {"pitch": 35, "tick": 26160, "length": 60, "velocity": 112}, {"pitch": 38, "tick": 26400, "length": 60, "velocity": 112}, {"pitch": 42, "tick": 26640, "length": 60, "velocity": 96}, {"pitch": 35, "tick": 26880, "length": 60, "velocity": 112}, {"pitch": 42, "tick": 27120, "length": 60, "velocity": 96}, {"pitch": 38, "tick": 27360, "length": 60, "velocity": 112}, {"pitch": 42, "tick": 27600, "length": 60, "velocity": 96}, {"pitch": 35, "tick": 27600, "length": 60, "velocity": 112}, {"pitch": 42, "tick": 28080, "length": 60, "velocity": 96}, {"pitch": 35, "tick": 28080, "length": 60, "velocity": 112}, {"pitch": 38, "tick": 28320, "length": 60, "velocity": 112}, {"pitch": 42, "tick": 28560, "length": 60, "velocity": 96}, {"pitch": 35, "tick": 28800, "length": 60, "velocity": 112}, {"pitch": 42, "tick": 29040, "length": 60, "velocity": 96}, {"pitch": 38, "tick": 29280, "length": 60, "velocity": 112}, {"pitch": 42, "tick": 29520, "length": 60, "velocity": 96}, {"pitch": 35, "tick": 29520, "length": 60, "velocity": 112}, {"pitch": 42, "tick": 30000, "length": 60, "velocity": 96}, {"pitch": 35, "tick": 30000, "length": 60, "velocity": 112}, {"pitch": 38, "tick": 30240, "length": 60, "velocity": 112}, {"pitch": 42, "tick": 30480, "length": 60, "velocity": 96}, {"pitch": 35, "tick": 30480, "length": 60, "velocity": 112}, {"pitch": 35, "tick": 30720, "length": 60, "velocity": 112}, {"pitch": 42, "tick": 30960, "length": 60, "velocity": 96}, {"pitch": 35, "tick": 30960, "length": 60, "velocity": 112}, {"pitch": 38, "tick": 31200, "length": 60, "velocity": 112}, {"pitch": 42, "tick": 31440, "length": 60, "velocity": 96}, {"pitch": 35, "tick": 31440, "length": 60, "velocity": 112}, {"pitch": 35, "tick": 31560, "length": 60, "velocity": 112}, {"pitch": 38, "tick": 31680, "length": 60, "velocity": 112}, {"pitch": 42, "tick": 31920, "length": 60, "velocity": 96}, {"pitch": 35, "tick": 31920, "length": 60, "velocity": 112}, {"pitch": 35, "tick": 32040, "length": 60, "velocity": 112}, {"pitch": 38, "tick": 32160, "length": 60, "velocity": 112}, {"pitch": 42, "tick": 32400, "length": 60, "velocity": 96}, {"pitch": 35, "tick": 32640, "length": 60, "velocity": 112}, {"pitch": 42, "tick": 32880, "length": 60, "velocity": 96}, {"pitch": 38, "tick": 33120, "length": 60, "velocity": 112}, {"pitch": 42, "tick": 33360, "length": 60, "velocity": 96}, {"pitch": 35, "tick": 33360, "length": 60, "velocity": 112}, {"pitch": 42, "tick": 33840, "length": 60, "velocity": 96}, {"pitch": 35, "tick": 33840, "length": 60, "velocity": 112}, {"pitch": 38, "tick": 34080, "length": 60, "velocity": 112}, {"pitch": 42, "tick": 34320, "length": 60, "velocity": 96}, {"pitch": 35, "tick": 34560, "length": 60, "velocity": 112}, {"pitch": 42, "tick": 34800, "length": 60, "velocity": 96}, {"pitch": 38, "tick": 35040, "length": 60, "velocity": 112}, {"pitch": 42, "tick": 35280, "length": 60, "velocity": 96}, {"pitch": 35, "tick": 35280, "length": 60, "velocity": 112}, {"pitch": 42, "tick": 35760, "length": 60, "velocity": 96}, {"pitch": 35, "tick": 35760, "length": 60, "velocity": 112}, {"pitch": 38, "tick": 36000, "length": 60, "velocity": 112}, {"pitch": 42, "tick": 36240, "length": 60, "velocity": 96}, {"pitch": 35, "tick": 36480, "length": 60, "velocity": 112}, {"pitch": 42, "tick": 36720, "length": 60, "velocity": 96}, {"pitch": 38, "tick": 36960, "length": 60, "velocity": 112}, {"pitch": 42, "tick": 37200, "length": 60, "velocity": 96}, {"pitch": 35, "tick": 37200, "length": 60, "velocity": 112}, {"pitch": 42, "tick": 37680, "length": 60, "velocity": 96}, {"pitch": 35, "tick": 37680, "length": 60, "velocity": 112}, {"pitch": 38, "tick": 37920, "length": 60, "velocity": 112}, {"pitch": 42, "tick": 38160, "length": 60, "velocity": 96}, {"pitch": 35, "tick": 38400, "length": 60, "velocity": 112}, {"pitch": 42, "tick": 38640, "length": 60, "velocity": 96}, {"pitch": 38, "tick": 38880, "length": 60, "velocity": 112}, {"pitch": 42, "tick": 39120, "length": 60, "velocity": 96}, {"pitch": 35, "tick": 39120, "length": 60, "velocity": 112}, {"pitch": 42, "tick": 39600, "length": 60, "velocity": 96}, {"pitch": 35, "tick": 39600, "length": 60, "velocity": 112}, {"pitch": 38, "tick": 39840, "length": 60, "velocity": 112}, {"pitch": 42, "tick": 40080, "length": 60, "velocity": 96}, {"pitch": 35, "tick": 40320, "length": 60, "velocity": 112}, {"pitch": 42, "tick": 40560, "length": 60, "velocity": 96}, {"pitch": 38, "tick": 40800, "length": 60, "velocity": 112}, {"pitch": 42, "tick": 41040, "length": 60, "velocity": 96}, {"pitch": 35, "tick": 41040, "length": 60, "velocity": 112}, {"pitch": 42, "tick": 41520, "length": 60, "velocity": 96}, {"pitch": 35, "tick": 41520, "length": 60, "velocity": 112}, {"pitch": 38, "tick": 41760, "length": 60, "velocity": 112}, {"pitch": 42, "tick": 42000, "length": 60, "velocity": 96}, {"pitch": 35, "tick": 42240, "length": 60, "velocity": 112}, {"pitch": 42, "tick": 42480, "length": 60, "velocity": 96}, {"pitch": 38, "tick": 42720, "length": 60, "velocity": 112}, {"pitch": 42, "tick": 42960, "length": 60, "velocity": 96}, {"pitch": 35, "tick": 42960, "length": 60, "velocity": 112}, {"pitch": 42, "tick": 43440, "length": 60, "velocity": 96}, {"pitch": 35, "tick": 43440, "length": 60, "velocity": 112}, {"pitch": 38, "tick": 43680, "length": 60, "velocity": 112}, {"pitch": 42, "tick": 43920, "length": 60, "velocity": 96}, {"pitch": 35, "tick": 44160, "length": 60, "velocity": 112}, {"pitch": 42, "tick": 44400, "length": 60, "velocity": 96}, {"pitch": 38, "tick": 44640, "length": 60, "velocity": 112}, {"pitch": 42, "tick": 44880, "length": 60, "velocity": 96}, {"pitch": 35, "tick": 44880, "length": 60, "velocity": 112}, {"pitch": 42, "tick": 45360, "length": 60, "velocity": 96}, {"pitch": 35, "tick": 45360, "length": 60, "velocity": 112}, {"pitch": 38, "tick": 45600, "length": 60, "velocity": 112}, {"pitch": 42, "tick": 45840, "length": 60, "velocity": 96}, {"pitch": 35, "tick": 46080, "length": 60, "velocity": 112}, {"pitch": 42, "tick": 46320, "length": 60, "velocity": 96}, {"pitch": 38, "tick": 46560, "length": 60, "velocity": 112}, {"pitch": 42, "tick": 46800, "length": 60, "velocity": 96}, {"pitch": 35, "tick": 46800, "length": 60, "velocity": 112}, {"pitch": 42, "tick": 47280, "length": 60, "velocity": 96}, {"pitch": 35, "tick": 47280, "length": 60, "velocity": 112}, {"pitch": 38, "tick": 47520, "length": 60, "velocity": 112}, {"pitch": 42, "tick": 47760, "length": 60, "velocity": 96}, {"pitch": 35, "tick": 48000, "length": 60, "velocity": 112}, {"pitch": 42, "tick": 48240, "length": 60, "velocity": 96}, {"pitch": 38, "tick": 48480, "length": 60, "velocity": 112}, {"pitch": 42, "tick": 48720, "length": 60, "velocity": 96}, {"pitch": 35, "tick": 48720, "length": 60, "velocity": 112}, {"pitch": 42, "tick": 49200, "length": 60, "velocity": 96}, {"pitch": 35, "tick": 49200, "length": 60, "velocity": 112}, {"pitch": 38, "tick": 49440, "length": 60, "velocity": 112}, {"pitch": 42, "tick": 49680, "length": 60, "velocity": 96}, {"pitch": 35, "tick": 49920, "length": 60, "velocity": 112}, {"pitch": 42, "tick": 50160, "length": 60, "velocity": 96}, {"pitch": 38, "tick": 50400, "length": 60, "velocity": 112}, {"pitch": 42, "tick": 50640, "length": 60, "velocity": 96}, {"pitch": 35, "tick": 50640, "length": 60, "velocity": 112}, {"pitch": 42, "tick": 51120, "length": 60, "velocity": 96}, {"pitch": 35, "tick": 51120, "length": 60, "velocity": 112}, {"pitch": 38, "tick": 51360, "length": 60, "velocity": 112}, {"pitch": 42, "tick": 51600, "length": 60, "velocity": 96}, {"pitch": 35, "tick": 51840, "length": 60, "velocity": 112}, {"pitch": 42, "tick": 52080, "length": 60, "velocity": 96}, {"pitch": 38, "tick": 52320, "length": 60, "velocity": 112}, {"pitch": 42, "tick": 52560, "length": 60, "velocity": 96}, {"pitch": 35, "tick": 52560, "length": 60, "velocity": 112}, {"pitch": 42, "tick": 53040, "length": 60, "velocity": 96}, {"pitch": 35, "tick": 53040, "length": 60, "velocity": 112}, {"pitch": 38, "tick": 53280, "length": 60, "velocity": 112}, {"pitch": 42, "tick": 53520, "length": 60, "velocity": 96}, {"pitch": 35, "tick": 53760, "length": 60, "velocity": 112}, {"pitch": 42, "tick": 54000, "length": 60, "velocity": 96}, {"pitch": 38, "tick": 54240, "length": 60, "velocity": 112}, {"pitch": 42, "tick": 54480, "length": 60, "velocity": 96}, {"pitch": 35, "tick": 54480, "length": 60, "velocity": 112}, {"pitch": 42, "tick": 54960, "length": 60, "velocity": 96}, {"pitch": 35, "tick": 54960, "length": 60, "velocity": 112}, {"pitch": 38, "tick": 55200, "length": 60, "velocity": 112}, {"pitch": 42, "tick": 55440, "length": 60, "velocity": 96}, {"pitch": 35, "tick": 55680, "length": 60, "velocity": 112}, {"pitch": 42, "tick": 55920, "length": 60, "velocity": 96}, {"pitch": 38, "tick": 56160, "length": 60, "velocity": 112}, {"pitch": 42, "tick": 56400, "length": 60, "velocity": 96}, {"pitch": 35, "tick": 56400, "length": 60, "velocity": 112}, {"pitch": 42, "tick": 56880, "length": 60, "velocity": 96}, {"pitch": 35, "tick": 56880, "length": 60, "velocity": 112}, {"pitch": 38, "tick": 57120, "length": 60, "velocity": 112}, {"pitch": 42, "tick": 57360, "length": 60, "velocity": 96}, {"pitch": 35, "tick": 57600, "length": 60, "velocity": 112}, {"pitch": 42, "tick": 57840, "length": 60, "velocity": 96}, {"pitch": 38, "tick": 58080, "length": 60, "velocity": 112}, {"pitch": 42, "tick": 58320, "length": 60, "velocity": 96}, {"pitch": 35, "tick": 58320, "length": 60, "velocity": 112}, {"pitch": 42, "tick": 58800, "length": 60, "velocity": 96}, {"pitch": 35, "tick": 58800, "length": 60, "velocity": 112}, {"pitch": 38, "tick": 59040, "length": 60, "velocity": 112}, {"pitch": 42, "tick": 59280, "length": 60, "velocity": 96}, {"pitch": 35, "tick": 59520, "length": 60, "velocity": 112}, {"pitch": 42, "tick": 59760, "length": 60, "velocity": 96}, {"pitch": 38, "tick": 60000, "length": 60, "velocity": 112}, {"pitch": 42, "tick": 60240, "length": 60, "velocity": 96}, {"pitch": 35, "tick": 60240, "length": 60, "velocity": 112}, {"pitch": 42, "tick": 60720, "length": 60, "velocity": 96}, {"pitch": 35, "tick": 60720, "length": 60, "velocity": 112}, {"pitch": 38, "tick": 60960, "length": 60, "velocity": 112}, {"pitch": 42, "tick": 61200, "length": 60, "velocity": 96}, {"pitch": 35, "tick": 61200, "length": 60, "velocity": 112}, {"pitch": 35, "tick": 61440, "length": 60, "velocity": 112}, {"pitch": 42, "tick": 61680, "length": 60, "velocity": 96}, {"pitch": 35, "tick": 61680, "length": 60, "velocity": 112}, {"pitch": 38, "tick": 61920, "length": 60, "velocity": 112}, {"pitch": 42, "tick": 62160, "length": 60, "velocity": 96}, {"pitch": 35, "tick": 62160, "length": 60, "velocity": 112}, {"pitch": 35, "tick": 62280, "length": 60, "velocity": 112}, {"pitch": 38, "tick": 62400, "length": 60, "velocity": 112}, {"pitch": 42, "tick": 62640, "length": 60, "velocity": 96}, {"pitch": 35, "tick": 62640, "length": 60, "velocity": 112}, {"pitch": 35, "tick": 62760, "length": 60, "velocity": 112}, {"pitch": 38, "tick": 62880, "length": 60, "velocity": 112}, {"pitch": 42, "tick": 63120, "length": 60, "velocity": 96}, {"pitch": 35, "tick": 63360, "length": 60, "velocity": 112}, {"pitch": 42, "tick": 63600, "length": 60, "velocity": 96}, {"pitch": 38, "tick": 63840, "length": 60, "velocity": 112}, {"pitch": 42, "tick": 64080, "length": 60, "velocity": 96}, {"pitch": 35, "tick": 64080, "length": 60, "velocity": 112}, {"pitch": 42, "tick": 64560, "length": 60, "velocity": 96}, {"pitch": 35, "tick": 64560, "length": 60, "velocity": 112}, {"pitch": 38, "tick": 64800, "length": 60, "velocity": 112}, {"pitch": 42, "tick": 65040, "length": 60, "velocity": 96}, {"pitch": 35, "tick": 65280, "length": 60, "velocity": 112}, {"pitch": 42, "tick": 65520, "length": 60, "velocity": 96}, {"pitch": 38, "tick": 65760, "length": 60, "velocity": 112}, {"pitch": 42, "tick": 66000, "length": 60, "velocity": 96}, {"pitch": 35, "tick": 66000, "length": 60, "velocity": 112}, {"pitch": 42, "tick": 66480, "length": 60, "velocity": 96}, {"pitch": 35, "tick": 66480, "length": 60, "velocity": 112}, {"pitch": 38, "tick": 66720, "length": 60, "velocity": 112}, {"pitch": 42, "tick": 66960, "length": 60, "velocity": 96}, {"pitch": 35, "tick": 67200, "length": 60, "velocity": 112}, {"pitch": 42, "tick": 67440, "length": 60, "velocity": 96}, {"pitch": 38, "tick": 67680, "length": 60, "velocity": 112}, {"pitch": 42, "tick": 67920, "length": 60, "velocity": 96}, {"pitch": 35, "tick": 67920, "length": 60, "velocity": 112}, {"pitch": 42, "tick": 68400, "length": 60, "velocity": 96}, {"pitch": 35, "tick": 68400, "length": 60, "velocity": 112}, {"pitch": 38, "tick": 68640, "length": 60, "velocity": 112}, {"pitch": 42, "tick": 68880, "length": 60, "velocity": 96}, {"pitch": 35, "tick": 69120, "length": 60, "velocity": 112}, {"pitch": 42, "tick": 69360, "length": 60, "velocity": 96}, {"pitch": 38, "tick": 69600, "length": 60, "velocity": 112}, {"pitch": 42, "tick": 69840, "length": 60, "velocity": 96}, {"pitch": 35, "tick": 69840, "length": 60, "velocity": 112}, {"pitch": 42, "tick": 70320, "length": 60, "velocity": 96}, {"pitch": 35, "tick": 70320, "length": 60, "velocity": 112}, {"pitch": 38, "tick": 70560, "length": 60, "velocity": 112}, {"pitch": 42, "tick": 70800, "length": 60, "velocity": 96}, {"pitch": 35, "tick": 71040, "length": 60, "velocity": 112}, {"pitch": 42, "tick": 71280, "length": 60, "velocity": 96}, {"pitch": 38, "tick": 71520, "length": 60, "velocity": 112}, {"pitch": 42, "tick": 71760, "length": 60, "velocity": 96}, {"pitch": 35, "tick": 71760, "length": 60, "velocity": 112}, {"pitch": 42, "tick": 72240, "length": 60, "velocity": 96}, {"pitch": 35, "tick": 72240, "length": 60, "velocity": 112}, {"pitch": 38, "tick": 72480, "length": 60, "velocity": 112}, {"pitch": 42, "tick": 72720, "length": 60, "velocity": 96}, {"pitch": 35, "tick": 72960, "length": 60, "velocity": 112}, {"pitch": 42, "tick": 73200, "length": 60, "velocity": 96}, {"pitch": 38, "tick": 73440, "length": 60, "velocity": 112}, {"pitch": 42, "tick": 73680, "length": 60, "velocity": 96}, {"pitch": 35, "tick": 73680, "length": 60, "velocity": 112}, {"pitch": 42, "tick": 74160, "length": 60, "velocity": 96}, {"pitch": 35, "tick": 74160, "length": 60, "velocity": 112}, {"pitch": 38, "tick": 74400, "length": 60, "velocity": 112}, {"pitch": 42, "tick": 74640, "length": 60, "velocity": 96}, {"pitch": 35, "tick": 74880, "length": 60, "velocity": 112}, {"pitch": 42, "tick": 75120, "length": 60, "velocity": 96}, {"pitch": 38, "tick": 75360, "length": 60, "velocity": 112}, {"pitch": 42, "tick": 75600, "length": 60, "velocity": 96}, {"pitch": 35, "tick": 75600, "length": 60, "velocity": 112}, {"pitch": 42, "tick": 76080, "length": 60, "velocity": 96}, {"pitch": 35, "tick": 76080, "length": 60, "velocity": 112}, {"pitch": 38, "tick": 76320, "length": 60, "velocity": 112}, {"pitch": 42, "tick": 76560, "length": 60, "velocity": 96}, {"pitch": 35, "tick": 76800, "length": 60, "velocity": 112}, {"pitch": 42, "tick": 77040, "length": 60, "velocity": 96}, {"pitch": 38, "tick": 77280, "length": 60, "velocity": 112}, {"pitch": 42, "tick": 77520, "length": 60, "velocity": 96}, {"pitch": 35, "tick": 77520, "length": 60, "velocity": 112}, {"pitch": 42, "tick": 78000, "length": 60, "velocity": 96}, {"pitch": 35, "tick": 78000, "length": 60, "velocity": 112}, {"pitch": 38, "tick": 78240, "length": 60, "velocity": 112}, {"pitch": 42, "tick": 78480, "length": 60, "velocity": 96}, {"pitch": 35, "tick": 78720, "length": 60, "velocity": 112}, {"pitch": 42, "tick": 78960, "length": 60, "velocity": 96}, {"pitch": 38, "tick": 79200, "length": 60, "velocity": 112}, {"pitch": 42, "tick": 79440, "length": 60, "velocity": 96}, {"pitch": 35, "tick": 79440, "length": 60, "velocity": 112}, {"pitch": 42, "tick": 79920, "length": 60, "velocity": 96}, {"pitch": 35, "tick": 79920, "length": 60, "velocity": 112}, {"pitch": 38, "tick": 80160, "length": 60, "velocity": 112}, {"pitch": 42, "tick": 80400, "length": 60, "velocity": 96}, {"pitch": 35, "tick": 80640, "length": 60, "velocity": 112}, {"pitch": 42, "tick": 80880, "length": 60, "velocity": 96}, {"pitch": 38, "tick": 81120, "length": 60, "velocity": 112}, {"pitch": 42, "tick": 81360, "length": 60, "velocity": 96}, {"pitch": 35, "tick": 81360, "length": 60, "velocity": 112}, {"pitch": 42, "tick": 81840, "length": 60, "velocity": 96}, {"pitch": 35, "tick": 81840, "length": 60, "velocity": 112}, {"pitch": 38, "tick": 82080, "length": 60, "velocity": 112}, {"pitch": 42, "tick": 82320, "length": 60, "velocity": 96}, {"pitch": 35, "tick": 82560, "length": 60, "velocity": 112}, {"pitch": 42, "tick": 82800, "length": 60, "velocity": 96}, {"pitch": 38, "tick": 83040, "length": 60, "velocity": 112}, {"pitch": 42, "tick": 83280, "length": 60, "velocity": 96}, {"pitch": 35, "tick": 83280, "length": 60, "velocity": 112}, {"pitch": 42, "tick": 83760, "length": 60, "velocity": 96}, {"pitch": 35, "tick": 83760, "length": 60, "velocity": 112}, {"pitch": 38, "tick": 84000, "length": 60, "velocity": 112}, {"pitch": 42, "tick": 84240, "length": 60, "velocity": 96}, {"pitch": 35, "tick": 84480, "length": 60, "velocity": 112}, {"pitch": 42, "tick": 84720, "length": 60, "velocity": 96}, {"pitch": 38, "tick": 84960, "length": 60, "velocity": 112}, {"pitch": 42, "tick": 85200, "length": 60, "velocity": 96}, {"pitch": 35, "tick": 85200, "length": 60, "velocity": 112}, {"pitch": 42, "tick": 85680, "length": 60, "velocity": 96}, {"pitch": 35, "tick": 85680, "length": 60, "velocity": 112}, {"pitch": 38, "tick": 85920, "length": 60, "velocity": 112}, {"pitch": 42, "tick": 86160, "length": 60, "velocity": 96}, {"pitch": 35, "tick": 86400, "length": 60, "velocity": 112}, {"pitch": 42, "tick": 86640, "length": 60, "velocity": 96}, {"pitch": 38, "tick": 86880, "length": 60, "velocity": 112}, {"pitch": 42, "tick": 87120, "length": 60, "velocity": 96}, {"pitch": 35, "tick": 87120, "length": 60, "velocity": 112}, {"pitch": 42, "tick": 87600, "length": 60, "velocity": 96}, {"pitch": 35, "tick": 87600, "length": 60, "velocity": 112}, {"pitch": 38, "tick": 87840, "length": 60, "velocity": 112}, {"pitch": 42, "tick": 88080, "length": 60, "velocity": 96}, {"pitch": 35, "tick": 88320, "length": 60, "velocity": 112}, {"pitch": 42, "tick": 88560, "length": 60, "velocity": 96}, {"pitch": 38, "tick": 88800, "length": 60, "velocity": 112}, {"pitch": 42, "tick": 89040, "length": 60, "velocity": 96}, {"pitch": 35, "tick": 89040, "length": 60, "velocity": 112}, {"pitch": 42, "tick": 89520, "length": 60, "velocity": 96}, {"pitch": 35, "tick": 89520, "length": 60, "velocity": 112}, {"pitch": 38, "tick": 89760, "length": 60, "velocity": 112}, {"pitch": 42, "tick": 90000, "length": 60, "velocity": 96}, {"pitch": 35, "tick": 90240, "length": 60, "velocity": 112}, {"pitch": 42, "tick": 90480, "length": 60, "velocity": 96}, {"pitch": 38, "tick": 90720, "length": 60, "velocity": 112}, {"pitch": 42, "tick": 90960, "length": 60, "velocity": 96}, {"pitch": 35, "tick": 90960, "length": 60, "velocity": 112}, {"pitch": 42, "tick": 91440, "length": 60, "velocity": 96}, {"pitch": 35, "tick": 91440, "length": 60, "velocity": 112}, {"pitch": 38, "tick": 91680, "length": 60, "velocity": 112}, {"pitch": 42, "tick": 91920, "length": 60, "velocity": 96}, {"pitch": 35, "tick": 91920, "length": 60, "velocity": 112}, {"pitch": 35, "tick": 92160, "length": 60, "velocity": 112}, {"pitch": 42, "tick": 92400, "length": 60, "velocity": 96}, {"pitch": 35, "tick": 92400, "length": 60, "velocity": 112}, {"pitch": 38, "tick": 92640, "length": 60, "velocity": 112}, {"pitch": 42, "tick": 92880, "length": 60, "velocity": 96}, {"pitch": 35, "tick": 92880, "length": 60, "velocity": 112}, {"pitch": 35, "tick": 93000, "length": 60, "velocity": 112}, {"pitch": 38, "tick": 93120, "length": 60, "velocity": 112}, {"pitch": 42, "tick": 93360, "length": 60, "velocity": 96}, {"pitch": 35, "tick": 93360, "length": 60, "velocity": 112}, {"pitch": 35, "tick": 93480, "length": 60, "velocity": 112}, {"pitch": 38, "tick": 93600, "length": 60, "velocity": 112}, {"pitch": 42, "tick": 93840, "length": 60, "velocity": 96}, {"pitch": 35, "tick": 94080, "length": 60, "velocity": 112}, {"pitch": 42, "tick": 94320, "length": 60, "velocity": 96}, {"pitch": 38, "tick": 94560, "length": 60, "velocity": 112}, {"pitch": 42, "tick": 94800, "length": 60, "velocity": 96}, {"pitch": 35, "tick": 94800, "length": 60, "velocity": 112}, {"pitch": 42, "tick": 95280, "length": 60, "velocity": 96}, {"pitch": 35, "tick": 95280, "length": 60, "velocity": 112}, {"pitch": 38, "tick": 95520, "length": 60, "velocity": 112}, {"pitch": 42, "tick": 95760, "length": 60, "velocity": 96}, {"pitch": 35, "tick": 96000, "length": 60, "velocity": 112}, {"pitch": 42, "tick": 96240, "length": 60, "velocity": 96}, {"pitch": 38, "tick": 96480, "length": 60, "velocity": 112}, {"pitch": 42, "tick": 96720, "length": 60, "velocity": 96}, {"pitch": 35, "tick": 96720, "length": 60, "velocity": 112}, {"pitch": 42, "tick": 97200, "length": 60, "velocity": 96}, {"pitch": 35, "tick": 97200, "length": 60, "velocity": 112}, {"pitch": 38, "tick": 97440, "length": 60, "velocity": 112}, {"pitch": 42, "tick": 97680, "length": 60, "velocity": 96}, {"pitch": 35, "tick": 97920, "length": 60, "velocity": 112}, {"pitch": 42, "tick": 98160, "length": 60, "velocity": 96}, {"pitch": 38, "tick": 98400, "length": 60, "velocity": 112}, {"pitch": 42, "tick": 98640, "length": 60, "velocity": 96}, {"pitch": 35, "tick": 98640, "length": 60, "velocity": 112}, {"pitch": 42, "tick": 99120, "length": 60, "velocity": 96}, {"pitch": 35, "tick": 99120, "length": 60, "velocity": 112}, {"pitch": 38, "tick": 99360, "length": 60, "velocity": 112}, {"pitch": 42, "tick": 99600, "length": 60, "velocity": 96}, {"pitch": 35, "tick": 99840, "length": 60, "velocity": 112}, {"pitch": 42, "tick": 100080, "length": 60, "velocity": 96}, {"pitch": 38, "tick": 100320, "length": 60, "velocity": 112}, {"pitch": 42, "tick": 100560, "length": 60, "velocity": 96}, {"pitch": 35, "tick": 100560, "length": 60, "velocity": 112}, {"pitch": 42, "tick": 101040, "length": 60, "velocity": 96}, {"pitch": 35, "tick": 101040, "length": 60, "velocity": 112}, {"pitch": 38, "tick": 101280, "length": 60, "velocity": 112}, {"pitch": 42, "tick": 101520, "length": 60, "velocity": 96}, {"pitch": 35, "tick": 101760, "length": 60, "velocity": 112}, {"pitch": 42, "tick": 102000, "length": 60, "velocity": 96}, {"pitch": 38, "tick": 102240, "length": 60, "velocity": 112}, {"pitch": 42, "tick": 102480, "length": 60, "velocity": 96}, {"pitch": 35, "tick": 102480, "length": 60, "velocity": 112}, {"pitch": 42, "tick": 102960, "length": 60, "velocity": 96}, {"pitch": 35, "tick": 102960, "length": 60, "velocity": 112}, {"pitch": 38, "tick": 103200, "length": 60, "velocity": 112}, {"pitch": 42, "tick": 103440, "length": 60, "velocity": 96}, {"pitch": 35, "tick": 103680, "length": 60, "velocity": 112}, {"pitch": 42, "tick": 103920, "length": 60, "velocity": 96}, {"pitch": 38, "tick": 104160, "length": 60, "velocity": 112}, {"pitch": 42, "tick": 104400, "length": 60, "velocity": 96}, {"pitch": 35, "tick": 104400, "length": 60, "velocity": 112}, {"pitch": 42, "tick": 104880, "length": 60, "velocity": 96}, {"pitch": 35, "tick": 104880, "length": 60, "velocity": 112}, {"pitch": 38, "tick": 105120, "length": 60, "velocity": 112}, {"pitch": 42, "tick": 105360, "length": 60, "velocity": 96}, {"pitch": 35, "tick": 105600, "length": 60, "velocity": 112}, {"pitch": 42, "tick": 105840, "length": 60, "velocity": 96}, {"pitch": 38, "tick": 106080, "length": 60, "velocity": 112}, {"pitch": 42, "tick": 106320, "length": 60, "velocity": 96}, {"pitch": 35, "tick": 106320, "length": 60, "velocity": 112}, {"pitch": 42, "tick": 106800, "length": 60, "velocity": 96}, {"pitch": 35, "tick": 106800, "length": 60, "velocity": 112}, {"pitch": 38, "tick": 107040, "length": 60, "velocity": 112}, {"pitch": 42, "tick": 107280, "length": 60, "velocity": 96}, {"pitch": 35, "tick": 107520, "length": 60, "velocity": 112}, {"pitch": 42, "tick": 107760, "length": 60, "velocity": 96}, {"pitch": 38, "tick": 108000, "length": 60, "velocity": 112}, {"pitch": 42, "tick": 108240, "length": 60, "velocity": 96}, {"pitch": 35, "tick": 108240, "length": 60, "velocity": 112}, {"pitch": 42, "tick": 108720, "length": 60, "velocity": 96}, {"pitch": 35, "tick": 108720, "length": 60, "velocity": 112}, {"pitch": 38, "tick": 108960, "length": 60, "velocity": 112}, {"pitch": 42, "tick": 109200, "length": 60, "velocity": 96}, {"pitch": 35, "tick": 109440, "length": 60, "velocity": 112}, {"pitch": 42, "tick": 109680, "length": 60, "velocity": 96}, {"pitch": 38, "tick": 109920, "length": 60, "velocity": 112}, {"pitch": 42, "tick": 110160, "length": 60, "velocity": 96}, {"pitch": 35, "tick": 110160, "length": 60, "velocity": 112}, {"pitch": 42, "tick": 110640, "length": 60, "velocity": 96}, {"pitch": 35, "tick": 110640, "length": 60, "velocity": 112}, {"pitch": 38, "tick": 110880, "length": 60, "velocity": 112}, {"pitch": 42, "tick": 111120, "length": 60, "velocity": 96}, {"pitch": 35, "tick": 111360, "length": 60, "velocity": 112}, {"pitch": 42, "tick": 111600, "length": 60, "velocity": 96}, {"pitch": 38, "tick": 111840, "length": 60, "velocity": 112}, {"pitch": 42, "tick": 112080, "length": 60, "velocity": 96}, {"pitch": 35, "tick": 112080, "length": 60, "velocity": 112}, {"pitch": 42, "tick": 112560, "length": 60, "velocity": 96}, {"pitch": 35, "tick": 112560, "length": 60, "velocity": 112}, {"pitch": 38, "tick": 112800, "length": 60, "velocity": 112}, {"pitch": 42, "tick": 113040, "length": 60, "velocity": 96}, {"pitch": 35, "tick": 113280, "length": 60, "velocity": 112}, {"pitch": 42, "tick": 113520, "length": 60, "velocity": 96}, {"pitch": 38, "tick": 113760, "length": 60, "velocity": 112}, {"pitch": 42, "tick": 114000, "length": 60, "velocity": 96}, {"pitch": 35, "tick": 114000, "length": 60, "velocity": 112}, {"pitch": 42, "tick": 114480, "length": 60, "velocity": 96}, {"pitch": 35, "tick": 114480, "length": 60, "velocity": 112}, {"pitch": 38, "tick": 114720, "length": 60, "velocity": 112}, {"pitch": 42, "tick": 114960, "length": 60, "velocity": 96}, {"pitch": 35, "tick": 115200, "length": 60, "velocity": 112}, {"pitch": 42, "tick": 115440, "length": 60, "velocity": 96}, {"pitch": 38, "tick": 115680, "length": 60, "velocity": 112}, {"pitch": 42, "tick": 115920, "length": 60, "velocity": 96}, {"pitch": 35, "tick": 115920, "length": 60, "velocity": 112}, {"pitch": 42, "tick": 116400, "length": 60, "velocity": 96}, {"pitch": 35, "tick": 116400, "length": 60, "velocity": 112}, {"pitch": 38, "tick": 116640, "length": 60, "velocity": 112}, {"pitch": 42, "tick": 116880, "length": 60, "velocity": 96}, {"pitch": 35, "tick": 117120, "length": 60, "velocity": 112}, {"pitch": 42, "tick": 117360, "length": 60, "velocity": 96}, {"pitch": 38, "tick": 117600, "length": 60, "velocity": 112}, {"pitch": 42, "tick": 117840, "length": 60, "velocity": 96}, {"pitch": 35, "tick": 117840, "length": 60, "velocity": 112}, {"pitch": 42, "tick": 118320, "length": 60, "velocity": 96}, {"pitch": 35, "tick": 118320, "length": 60, "velocity": 112}, {"pitch": 38, "tick": 118560, "length": 60, "velocity": 112}, {"pitch": 42, "tick": 118800, "length": 60, "velocity": 96}, {"pitch": 35, "tick": 119040, "length": 60, "velocity": 112}, {"pitch": 42, "tick": 119280, "length": 60, "velocity": 96}, {"pitch": 38, "tick": 119520, "length": 60, "velocity": 112}, {"pitch": 42, "tick": 119760, "length": 60, "velocity": 96}, {"pitch": 35, "tick": 119760, "length": 60, "velocity": 112}, {"pitch": 42, "tick": 120240, "length": 60, "velocity": 96}, {"pitch": 35, "tick": 120240, "length": 60, "velocity": 112}, {"pitch": 38, "tick": 120480, "length": 60, "velocity": 112}, {"pitch": 42, "tick": 120720, "length": 60, "velocity": 96}, {"pitch": 35, "tick": 120960, "length": 60, "velocity": 112}, {"pitch": 42, "tick": 121200, "length": 60, "velocity": 96}, {"pitch": 38, "tick": 121440, "length": 60, "velocity": 112}, {"pitch": 42, "tick": 121680, "length": 60, "velocity": 96}, {"pitch": 35, "tick": 121680, "length": 60, "velocity": 112}, {"pitch": 42, "tick": 122160, "length": 60, "velocity": 96}, {"pitch": 35, "tick": 122160, "length": 60, "velocity": 112}, {"pitch": 38, "tick": 122400, "length": 60, "velocity": 112}, {"pitch": 42, "tick": 122640, "length": 60, "velocity": 96}, {"pitch": 35, "tick": 122880, "length": 60, "velocity": 112}, {"pitch": 42, "tick": 123120, "length": 60, "velocity": 96}, {"pitch": 38, "tick": 123360, "length": 60, "velocity": 112}, {"pitch": 42, "tick": 123600, "length": 60, "velocity": 96}, {"pitch": 35, "tick": 123600, "length": 60, "velocity": 112}, {"pitch": 42, "tick": 124080, "length": 60, "velocity": 96}, {"pitch": 35, "tick": 124080, "length": 60, "velocity": 112}, {"pitch": 38, "tick": 124320, "length": 60, "velocity": 112}, {"pitch": 42, "tick": 124560, "length": 60, "velocity": 96}, {"pitch": 35, "tick": 124800, "length": 60, "velocity": 112}, {"pitch": 42, "tick": 125040, "length": 60, "velocity": 96}, {"pitch": 38, "tick": 125280, "length": 60, "velocity": 112}, {"pitch": 42, "tick": 125520, "length": 60, "velocity": 96}, {"pitch": 35, "tick": 125520, "length": 60, "velocity": 112}, {"pitch": 42, "tick": 126000, "length": 60, "velocity": 96}, {"pitch": 35, "tick": 126000, "length": 60, "velocity": 112}, {"pitch": 38, "tick": 126240, "length": 60, "velocity": 112}, {"pitch": 42, "tick": 126480, "length": 60, "velocity": 96}, {"pitch": 35, "tick": 126720, "length": 60, "velocity": 112}, {"pitch": 42, "tick": 126960, "length": 60, "velocity": 96}, {"pitch": 38, "tick": 127200, "length": 60, "velocity": 112}, {"pitch": 42, "tick": 127440, "length": 60, "velocity": 96}, {"pitch": 35, "tick": 127440, "length": 60, "velocity": 112}, {"pitch": 42, "tick": 127920, "length": 60, "velocity": 96}, {"pitch": 35, "tick": 127920, "length": 60, "velocity": 112}, {"pitch": 38, "tick": 128160, "length": 60, "velocity": 112}, {"pitch": 42, "tick": 128400, "length": 60, "velocity": 96}, {"pitch": 35, "tick": 128640, "length": 60, "velocity": 112}, {"pitch": 42, "tick": 128880, "length": 60, "velocity": 96}, {"pitch": 38, "tick": 129120, "length": 60, "velocity": 112}, {"pitch": 42, "tick": 129360, "length": 60, "velocity": 96}, {"pitch": 35, "tick": 129360, "length": 60, "velocity": 112}, {"pitch": 42, "tick": 129840, "length": 60, "velocity": 96}, {"pitch": 35, "tick": 129840, "length": 60, "velocity": 112}, {"pitch": 38, "tick": 130080, "length": 60, "velocity": 112}, {"pitch": 42, "tick": 130320, "length": 60, "velocity": 96}, {"pitch": 35, "tick": 130560, "length": 60, "velocity": 112}, {"pitch": 42, "tick": 130800, "length": 60, "velocity": 96}, {"pitch": 38, "tick": 131040, "length": 60, "velocity": 112}, {"pitch": 42, "tick": 131280, "length": 60, "velocity": 96}, {"pitch": 35, "tick": 131280, "length": 60, "velocity": 112}, {"pitch": 42, "tick": 131760, "length": 60, "velocity": 96}, {"pitch": 35, "tick": 131760, "length": 60, "velocity": 112}, {"pitch": 38, "tick": 132000, "length": 60, "velocity": 112}, {"pitch": 42, "tick": 132240, "length": 60, "velocity": 96}, {"pitch": 35, "tick": 132480, "length": 60, "velocity": 112}, {"pitch": 42, "tick": 132720, "length": 60, "velocity": 96}, {"pitch": 38, "tick": 132960, "length": 60, "velocity": 112}, {"pitch": 42, "tick": 133200, "length": 60, "velocity": 96}, {"pitch": 35, "tick": 133200, "length": 60, "velocity": 112}, {"pitch": 42, "tick": 133680, "length": 60, "velocity": 96}, {"pitch": 35, "tick": 133680, "length": 60, "velocity": 112}, {"pitch": 38, "tick": 133920, "length": 60, "velocity": 112}, {"pitch": 42, "tick": 134160, "length": 60, "velocity": 96}, {"pitch": 35, "tick": 134400, "length": 60, "velocity": 112}, {"pitch": 42, "tick": 134640, "length": 60, "velocity": 96}, {"pitch": 38, "tick": 134880, "length": 60, "velocity": 112}, {"pitch": 42, "tick": 135120, "length": 60, "velocity": 96}, {"pitch": 35, "tick": 135120, "length": 60, "velocity": 112}, {"pitch": 42, "tick": 135600, "length": 60, "velocity": 96}, {"pitch": 35, "tick": 135600, "length": 60, "velocity": 112}, {"pitch": 38, "tick": 135840, "length": 60, "velocity": 112}, {"pitch": 42, "tick": 136080, "length": 60, "velocity": 96}, {"pitch": 35, "tick": 136320, "length": 60, "velocity": 112}, {"pitch": 42, "tick": 136560, "length": 60, "velocity": 96}, {"pitch": 38, "tick": 136800, "length": 60, "velocity": 112}, {"pitch": 42, "tick": 137040, "length": 60, "velocity": 96}, {"pitch": 35, "tick": 137040, "length": 60, "velocity": 112}, {"pitch": 42, "tick": 137520, "length": 60, "velocity": 96}, {"pitch": 35, "tick": 137520, "length": 60, "velocity": 112}, {"pitch": 38, "tick": 137760, "length": 60, "velocity": 112}, {"pitch": 42, "tick": 138000, "length": 60, "velocity": 96}, {"pitch": 35, "tick": 138240, "length": 60, "velocity": 112}, {"pitch": 42, "tick": 138480, "length": 60, "velocity": 96}, {"pitch": 38, "tick": 138720, "length": 60, "velocity": 112}, {"pitch": 42, "tick": 138960, "length": 60, "velocity": 96}, {"pitch": 35, "tick": 138960, "length": 60, "velocity": 112}, {"pitch": 42, "tick": 139440, "length": 60, "velocity": 96}, {"pitch": 35, "tick": 139440, "length": 60, "velocity": 112}, {"pitch": 38, "tick": 139680, "length": 60, "velocity": 112}, {"pitch": 42, "tick": 139920, "length": 60, "velocity": 96}, {"pitch": 35, "tick": 140160, "length": 60, "velocity": 112}, {"pitch": 42, "tick": 140400, "length": 60, "velocity": 96}, {"pitch": 38, "tick": 140640, "length": 60, "velocity": 112}, {"pitch": 42, "tick": 140880, "length": 60, "velocity": 96}, {"pitch": 35, "tick": 140880, "length": 60, "velocity": 112}, {"pitch": 42, "tick": 141360, "length": 60, "velocity": 96}, {"pitch": 35, "tick": 141360, "length": 60, "velocity": 112}, {"pitch": 38, "tick": 141600, "length": 60, "velocity": 112}, {"pitch": 42, "tick": 141840, "length": 60, "velocity": 96}, {"pitch": 35, "tick": 142080, "length": 60, "velocity": 112}, {"pitch": 42, "tick": 142320, "length": 60, "velocity": 96}, {"pitch": 38, "tick": 142560, "length": 60, "velocity": 112}, {"pitch": 42, "tick": 142800, "length": 60, "velocity": 96}, {"pitch": 35, "tick": 142800, "length": 60, "velocity": 112}, {"pitch": 42, "tick": 143280, "length": 60, "velocity": 96}, {"pitch": 35, "tick": 143280, "length": 60, "velocity": 112}, {"pitch": 38, "tick": 143520, "length": 60, "velocity": 112}, {"pitch": 42, "tick": 143760, "length": 60, "velocity": 96}, {"pitch": 35, "tick": 144000, "length": 60, "velocity": 112}, {"pitch": 42, "tick": 144240, "length": 60, "velocity": 96}, {"pitch": 38, "tick": 144480, "length": 60, "velocity": 112}, {"pitch": 42, "tick": 144720, "length": 60, "velocity": 96}, {"pitch": 35, "tick": 144720, "length": 60, "velocity": 112}, {"pitch": 42, "tick": 145200, "length": 60, "velocity": 96}, {"pitch": 35, "tick": 145200, "length": 60, "velocity": 112}, {"pitch": 38, "tick": 145440, "length": 60, "velocity": 112}, {"pitch": 42, "tick": 145680, "length": 60, "velocity": 96}, {"pitch": 35, "tick": 145920, "length": 60, "velocity": 112}, {"pitch": 42, "tick": 146160, "length": 60, "velocity": 96}, {"pitch": 38, "tick": 146400, "length": 60, "velocity": 112}, {"pitch": 42, "tick": 146640, "length": 60, "velocity": 96}, {"pitch": 35, "tick": 146640, "length": 60, "velocity": 112}, {"pitch": 42, "tick": 147120, "length": 60, "velocity": 96}, {"pitch": 35, "tick": 147120, "length": 60, "velocity": 112}, {"pitch": 38, "tick": 147360, "length": 60, "velocity": 112}, {"pitch": 42, "tick": 147600, "length": 60, "velocity": 96}, {"pitch": 35, "tick": 147840, "length": 60, "velocity": 112}, {"pitch": 42, "tick": 148080, "length": 60, "velocity": 96}, {"pitch": 42, "tick": 148560, "length": 60, "velocity": 96}, {"pitch": 35, "tick": 148560, "length": 60, "velocity": 112}, {"pitch": 42, "tick": 149040, "length": 60, "velocity": 96}, {"pitch": 35, "tick": 149040, "length": 60, "velocity": 112}, {"pitch": 42, "tick": 149520, "length": 60, "velocity": 96}, {"pitch": 35, "tick": 149520, "length": 60, "velocity": 112}, {"pitch": 35, "tick": 149760, "length": 60, "velocity": 112}, {"pitch": 42, "tick": 150000, "length": 60, "velocity": 96}, {"pitch": 42, "tick": 150480, "length": 60, "velocity": 96}, {"pitch": 35, "tick": 150480, "length": 60, "velocity": 112}, {"pitch": 42, "tick": 150960, "length": 60, "velocity": 96}, {"pitch": 35, "tick": 150960, "length": 60, "velocity": 112}, {"pitch": 42, "tick": 151440, "length": 60, "velocity": 96}, {"pitch": 35, "tick": 151440, "length": 60, "velocity": 112}, {"pitch": 35, "tick": 151680, "length": 60, "velocity": 112}, {"pitch": 42, "tick": 151920, "length": 60, "velocity": 96}, {"pitch": 35, "tick": 152160, "length": 60, "velocity": 112}, {"pitch": 42, "tick": 152400, "length": 60, "velocity": 96}, {"pitch": 35, "tick": 152640, "length": 60, "velocity": 112}, {"pitch": 42, "tick": 152880, "length": 60, "velocity": 96}, {"pitch": 35, "tick": 153120, "length": 60, "velocity": 112}, {"pitch": 42, "tick": 153360, "length": 60, "velocity": 96}, {"pitch": 35, "tick": 153600, "length": 60, "velocity": 112}, {"pitch": 42, "tick": 153840, "length": 60, "velocity": 96}, {"pitch": 35, "tick": 153840, "length": 60, "velocity": 112}, {"pitch": 38, "tick": 154080, "length": 60, "velocity": 112}, {"pitch": 35, "tick": 154080, "length": 60, "velocity": 112}, {"pitch": 42, "tick": 154320, "length": 60, "velocity": 96}, {"pitch": 35, "tick": 154320, "length": 60, "velocity": 112}, {"pitch": 38, "tick": 154560, "length": 60, "velocity": 112}, {"pitch": 42, "tick": 154800, "length": 60, "velocity": 96}, {"pitch": 35, "tick": 154800, "length": 60, "velocity": 112}, {"pitch": 35, "tick": 154920, "length": 60, "velocity": 112}, {"pitch": 38, "tick": 155040, "length": 60, "velocity": 112}, {"pitch": 35, "tick": 155040, "length": 60, "velocity": 112}, {"pitch": 35, "tick": 155200, "length": 60, "velocity": 112}, {"pitch": 42, "tick": 155280, "length": 60, "velocity": 96}, {"pitch": 35, "tick": 155360, "length": 60, "velocity": 112}, {"pitch": 35, "tick": 155520, "length": 60, "velocity": 112}, {"pitch": 42, "tick": 155760, "length": 60, "velocity": 96}, {"pitch": 38, "tick": 156000, "length": 60, "velocity": 112}, {"pitch": 42, "tick": 156240, "length": 60, "velocity": 96}, {"pitch": 35, "tick": 156240, "length": 60, "velocity": 112}, {"pitch": 42, "tick": 156720, "length": 60, "velocity": 96}, {"pitch": 35, "tick": 156720, "length": 60, "velocity": 112}, {"pitch": 38, "tick": 156960, "length": 60, "velocity": 112}, {"pitch": 42, "tick": 157200, "length": 60, "velocity": 96}, {"pitch": 35, "tick": 157440, "length": 60, "velocity": 112}, {"pitch": 42, "tick": 157680, "length": 60, "velocity": 96}, {"pitch": 38, "tick": 157920, "length": 60, "velocity": 112}, {"pitch": 42, "tick": 158160, "length": 60, "velocity": 96}, {"pitch": 35, "tick": 158160, "length": 60, "velocity": 112}, {"pitch": 42, "tick": 158640, "length": 60, "velocity": 96}, {"pitch": 35, "tick": 158640, "length": 60, "velocity": 112}, {"pitch": 38, "tick": 158880, "length": 60, "velocity": 112}, {"pitch": 42, "tick": 159120, "length": 60, "velocity": 96}, {"pitch": 35, "tick": 159360, "length": 60, "velocity": 112}, {"pitch": 42, "tick": 159600, "length": 60, "velocity": 96}, {"pitch": 38, "tick": 159840, "length": 60, "velocity": 112}, {"pitch": 42, "tick": 160080, "length": 60, "velocity": 96}, {"pitch": 35, "tick": 160080, "length": 60, "velocity": 112}, {"pitch": 42, "tick": 160560, "length": 60, "velocity": 96}, {"pitch": 35, "tick": 160560, "length": 60, "velocity": 112}, {"pitch": 38, "tick": 160800, "length": 60, "velocity": 112}, {"pitch": 42, "tick": 161040, "length": 60, "velocity": 96}, {"pitch": 35, "tick": 161280, "length": 60, "velocity": 112}, {"pitch": 42, "tick": 161520, "length": 60, "velocity": 96}, {"pitch": 38, "tick": 161760, "length": 60, "velocity": 112}, {"pitch": 42, "tick": 162000, "length": 60, "velocity": 96}, {"pitch": 35, "tick": 162000, "length": 60, "velocity": 112}, {"pitch": 42, "tick": 162480, "length": 60, "velocity": 96}, {"pitch": 35, "tick": 162480, "length": 60, "velocity": 112}, {"pitch": 38, "tick": 162720, "length": 60, "velocity": 112}, {"pitch": 42, "tick": 162960, "length": 60, "velocity": 96}, {"pitch": 35, "tick": 163200, "length": 60, "velocity": 112}, {"pitch": 42, "tick": 163440, "length": 60, "velocity": 96}, {"pitch": 38, "tick": 163680, "length": 60, "velocity": 112}, {"pitch": 42, "tick": 163920, "length": 60, "velocity": 96}, {"pitch": 35, "tick": 163920, "length": 60, "velocity": 112}, {"pitch": 42, "tick": 164400, "length": 60, "velocity": 96}, {"pitch": 35, "tick": 164400, "length": 60, "velocity": 112}, {"pitch": 38, "tick": 164640, "length": 60, "velocity": 112}, {"pitch": 42, "tick": 164880, "length": 60, "velocity": 96}, {"pitch": 35, "tick": 165120, "length": 60, "velocity": 112}, {"pitch": 42, "tick": 165360, "length": 60, "velocity": 96}, {"pitch": 38, "tick": 165600, "length": 60, "velocity": 112}, {"pitch": 42, "tick": 165840, "length": 60, "velocity": 96}, {"pitch": 35, "tick": 165840, "length": 60, "velocity": 112}, {"pitch": 42, "tick": 166320, "length": 60, "velocity": 96}, {"pitch": 35, "tick": 166320, "length": 60, "velocity": 112}, {"pitch": 38, "tick": 166560, "length": 60, "velocity": 112}, {"pitch": 42, "tick": 166800, "length": 60, "velocity": 96}, {"pitch": 35, "tick": 167040, "length": 60, "velocity": 112}, {"pitch": 42, "tick": 167280, "length": 60, "velocity": 96}, {"pitch": 38, "tick": 167520, "length": 60, "velocity": 112}, {"pitch": 42, "tick": 167760, "length": 60, "velocity": 96}, {"pitch": 35, "tick": 167760, "length": 60, "velocity": 112}, {"pitch": 42, "tick": 168240, "length": 60, "velocity": 96}, {"pitch": 35, "tick": 168240, "length": 60, "velocity": 112}, {"pitch": 38, "tick": 168480, "length": 60, "velocity": 112}, {"pitch": 42, "tick": 168720, "length": 60, "velocity": 96}, {"pitch": 35, "tick": 168960, "length": 60, "velocity": 112}, {"pitch": 42, "tick": 169200, "length": 60, "velocity": 96}, {"pitch": 38, "tick": 169440, "length": 60, "velocity": 112}, {"pitch": 42, "tick": 169680, "length": 60, "velocity": 96}, {"pitch": 35, "tick": 169680, "length": 60, "velocity": 112}, {"pitch": 42, "tick": 170160, "length": 60, "velocity": 96}, {"pitch": 35, "tick": 170160, "length": 60, "velocity": 112}, {"pitch": 38, "tick": 170400, "length": 60, "velocity": 112}, {"pitch": 42, "tick": 170640, "length": 60, "velocity": 96}, {"pitch": 35, "tick": 170880, "length": 60, "velocity": 112}, {"pitch": 42, "tick": 171120, "length": 60, "velocity": 96}, {"pitch": 38, "tick": 171360, "length": 60, "velocity": 112}, {"pitch": 42, "tick": 171600, "length": 60, "velocity": 96}, {"pitch": 35, "tick": 171600, "length": 60, "velocity": 112}, {"pitch": 42, "tick": 172080, "length": 60, "velocity": 96}, {"pitch": 35, "tick": 172080, "length": 60, "velocity": 112}, {"pitch": 38, "tick": 172320, "length": 60, "velocity": 112}, {"pitch": 42, "tick": 172560, "length": 60, "velocity": 96}, {"pitch": 35, "tick": 172800, "length": 60, "velocity": 112}, {"pitch": 42, "tick": 173040, "length": 60, "velocity": 96}, {"pitch": 38, "tick": 173280, "length": 60, "velocity": 112}, {"pitch": 42, "tick": 173520, "length": 60, "velocity": 96}, {"pitch": 35, "tick": 173520, "length": 60, "velocity": 112}, {"pitch": 42, "tick": 174000, "length": 60, "velocity": 96}, {"pitch": 35, "tick": 174000, "length": 60, "velocity": 112}, {"pitch": 38, "tick": 174240, "length": 60, "velocity": 112}, {"pitch": 42, "tick": 174480, "length": 60, "velocity": 96}, {"pitch": 35, "tick": 174720, "length": 60, "velocity": 112}, {"pitch": 42, "tick": 174960, "length": 60, "velocity": 96}, {"pitch": 38, "tick": 175200, "length": 60, "velocity": 112}, {"pitch": 42, "tick": 175440, "length": 60, "velocity": 96}, {"pitch": 35, "tick": 175440, "length": 60, "velocity": 112}, {"pitch": 42, "tick": 175920, "length": 60, "velocity": 96}, {"pitch": 35, "tick": 175920, "length": 60, "velocity": 112}, {"pitch": 38, "tick": 176160, "length": 60, "velocity": 112}, {"pitch": 42, "tick": 176400, "length": 60, "velocity": 96}, {"pitch": 35, "tick": 176640, "length": 60, "velocity": 112}, {"pitch": 42, "tick": 176880, "length": 60, "velocity": 96}, {"pitch": 38, "tick": 177120, "length": 60, "velocity": 112}, {"pitch": 42, "tick": 177360, "length": 60, "velocity": 96}, {"pitch": 35, "tick": 177360, "length": 60, "velocity": 112}, {"pitch": 42, "tick": 177840, "length": 60, "velocity": 96}, {"pitch": 35, "tick": 177840, "length": 60, "velocity": 112}, {"pitch": 38, "tick": 178080, "length": 60, "velocity": 112}, {"pitch": 42, "tick": 178320, "length": 60, "velocity": 96}, {"pitch": 35, "tick": 178560, "length": 60, "velocity": 112}, {"pitch": 42, "tick": 178800, "length": 60, "velocity": 96}, {"pitch": 38, "tick": 179040, "length": 60, "velocity": 112}, {"pitch": 42, "tick": 179280, "length": 60, "velocity": 96}, {"pitch": 35, "tick": 179280, "length": 60, "velocity": 112}, {"pitch": 42, "tick": 179760, "length": 60, "velocity": 96}, {"pitch": 35, "tick": 179760, "length": 60, "velocity": 112}, {"pitch": 38, "tick": 180000, "length": 60, "velocity": 112}, {"pitch": 42, "tick": 180240, "length": 60, "velocity": 96}, {"pitch": 35, "tick": 180480, "length": 60, "velocity": 112}, {"pitch": 42, "tick": 180720, "length": 60, "velocity": 96}, {"pitch": 38, "tick": 180960, "length": 60, "velocity": 112}, {"pitch": 42, "tick": 181200, "length": 60, "velocity": 96}, {"pitch": 35, "tick": 181200, "length": 60, "velocity": 112}, {"pitch": 42, "tick": 181680, "length": 60, "velocity": 96}, {"pitch": 35, "tick": 181680, "length": 60, "velocity": 112}, {"pitch": 38, "tick": 181920, "length": 60, "velocity": 112}, {"pitch": 42, "tick": 182160, "length": 60, "velocity": 96}, {"pitch": 35, "tick": 182400, "length": 60, "velocity": 112}, {"pitch": 42, "tick": 182640, "length": 60, "velocity": 96}, {"pitch": 38, "tick": 182880, "length": 60, "velocity": 112}, {"pitch": 42, "tick": 183120, "length": 60, "velocity": 96}, {"pitch": 35, "tick": 183120, "length": 60, "velocity": 112}, {"pitch": 42, "tick": 183600, "length": 60, "velocity": 96}, {"pitch": 35, "tick": 183600, "length": 60, "velocity": 112}, {"pitch": 38, "tick": 183840, "length": 60, "velocity": 112}, {"pitch": 42, "tick": 184080, "length": 60, "velocity": 96}, {"pitch": 35, "tick": 184080, "length": 60, "velocity": 112}, {"pitch": 35, "tick": 184320, "length": 60, "velocity": 112}, {"pitch": 42, "tick": 184560, "length": 60, "velocity": 96}, {"pitch": 35, "tick": 184560, "length": 60, "velocity": 112}, {"pitch": 38, "tick": 184800, "length": 60, "velocity": 112}, {"pitch": 42, "tick": 185040, "length": 60, "velocity": 96}, {"pitch": 35, "tick": 185040, "length": 60, "velocity": 112}, {"pitch": 35, "tick": 185160, "length": 60, "velocity": 112}, {"pitch": 38, "tick": 185280, "length": 60, "velocity": 112}, {"pitch": 42, "tick": 185520, "length": 60, "velocity": 96}, {"pitch": 35, "tick": 185520, "length": 60, "velocity": 112}, {"pitch": 35, "tick": 185640, "length": 60, "velocity": 112}, {"pitch": 38, "tick": 185760, "length": 60, "velocity": 112}, {"pitch": 42, "tick": 186000, "length": 60, "velocity": 96}, {"pitch": 35, "tick": 186240, "length": 60, "velocity": 112}, {"pitch": 42, "tick": 186480, "length": 60, "velocity": 96}, {"pitch": 38, "tick": 186720, "length": 60, "velocity": 112}, {"pitch": 42, "tick": 186960, "length": 60, "velocity": 96}, {"pitch": 35, "tick": 186960, "length": 60, "velocity": 112}, {"pitch": 42, "tick": 187440, "length": 60, "velocity": 96}, {"pitch": 35, "tick": 187440, "length": 60, "velocity": 112}, {"pitch": 38, "tick": 187680, "length": 60, "velocity": 112}, {"pitch": 42, "tick": 187920, "length": 60, "velocity": 96}, {"pitch": 35, "tick": 188160, "length": 60, "velocity": 112}, {"pitch": 42, "tick": 188400, "length": 60, "velocity": 96}, {"pitch": 38, "tick": 188640, "length": 60, "velocity": 112}, {"pitch": 42, "tick": 188880, "length": 60, "velocity": 96}, {"pitch": 35, "tick": 188880, "length": 60, "velocity": 112}, {"pitch": 42, "tick": 189360, "length": 60, "velocity": 96}, {"pitch": 35, "tick": 189360, "length": 60, "velocity": 112}, {"pitch": 38, "tick": 189600, "length": 60, "velocity": 112}, {"pitch": 42, "tick": 189840, "length": 60, "velocity": 96}, {"pitch": 35, "tick": 190080, "length": 60, "velocity": 112}, {"pitch": 42, "tick": 190320, "length": 60, "velocity": 96}, {"pitch": 38, "tick": 190560, "length": 60, "velocity": 112}, {"pitch": 42, "tick": 190800, "length": 60, "velocity": 96}, {"pitch": 35, "tick": 190800, "length": 60, "velocity": 112}, {"pitch": 42, "tick": 191280, "length": 60, "velocity": 96}, {"pitch": 35, "tick": 191280, "length": 60, "velocity": 112}, {"pitch": 38, "tick": 191520, "length": 60, "velocity": 112}, {"pitch": 42, "tick": 191760, "length": 60, "velocity": 96}, {"pitch": 35, "tick": 192000, "length": 60, "velocity": 112}, {"pitch": 42, "tick": 192240, "length": 60, "velocity": 96}, {"pitch": 38, "tick": 192480, "length": 60, "velocity": 112}, {"pitch": 42, "tick": 192720, "length": 60, "velocity": 96}, {"pitch": 35, "tick": 192720, "length": 60, "velocity": 112}, {"pitch": 42, "tick": 193200, "length": 60, "velocity": 96}, {"pitch": 35, "tick": 193200, "length": 60, "velocity": 112}, {"pitch": 38, "tick": 193440, "length": 60, "velocity": 112}, {"pitch": 42, "tick": 193680, "length": 60, "velocity": 96}, {"pitch": 35, "tick": 193920, "length": 60, "velocity": 112}, {"pitch": 42, "tick": 194160, "length": 60, "velocity": 96}, {"pitch": 38, "tick": 194400, "length": 60, "velocity": 112}, {"pitch": 42, "tick": 194640, "length": 60, "velocity": 96}, {"pitch": 35, "tick": 194640, "length": 60, "velocity": 112}, {"pitch": 42, "tick": 195120, "length": 60, "velocity": 96}, {"pitch": 35, "tick": 195120, "length": 60, "velocity": 112}, {"pitch": 38, "tick": 195360, "length": 60, "velocity": 112}, {"pitch": 42, "tick": 195600, "length": 60, "velocity": 96}, {"pitch": 35, "tick": 195840, "length": 60, "velocity": 112}, {"pitch": 42, "tick": 196080, "length": 60, "velocity": 96}, {"pitch": 38, "tick": 196320, "length": 60, "velocity": 112}, {"pitch": 42, "tick": 196560, "length": 60, "velocity": 96}, {"pitch": 35, "tick": 196560, "length": 60, "velocity": 112}, {"pitch": 42, "tick": 197040, "length": 60, "velocity": 96}, {"pitch": 35, "tick": 197040, "length": 60, "velocity": 112}, {"pitch": 38, "tick": 197280, "length": 60, "velocity": 112}, {"pitch": 42, "tick": 197520, "length": 60, "velocity": 96}, {"pitch": 35, "tick": 197760, "length": 60, "velocity": 112}, {"pitch": 42, "tick": 198000, "length": 60, "velocity": 96}, {"pitch": 38, "tick": 198240, "length": 60, "velocity": 112}, {"pitch": 42, "tick": 198480, "length": 60, "velocity": 96}, {"pitch": 35, "tick": 198480, "length": 60, "velocity": 112}, {"pitch": 42, "tick": 198960, "length": 60, "velocity": 96}, {"pitch": 35, "tick": 198960, "length": 60, "velocity": 112}, {"pitch": 38, "tick": 199200, "length": 60, "velocity": 112}, {"pitch": 42, "tick": 199440, "length": 60, "velocity": 96}, {"pitch": 35, "tick": 199680, "length": 60, "velocity": 112}, {"pitch": 42, "tick": 199920, "length": 60, "velocity": 96}, {"pitch": 38, "tick": 200160, "length": 60, "velocity": 112}, {"pitch": 42, "tick": 200400, "length": 60, "velocity": 96}, {"pitch": 35, "tick": 200400, "length": 60, "velocity": 112}, {"pitch": 42, "tick": 200880, "length": 60, "velocity": 96}, {"pitch": 35, "tick": 200880, "length": 60, "velocity": 112}, {"pitch": 38, "tick": 201120, "length": 60, "velocity": 112}, {"pitch": 42, "tick": 201360, "length": 60, "velocity": 96}, {"pitch": 35, "tick": 201600, "length": 60, "velocity": 112}, {"pitch": 42, "tick": 201840, "length": 60, "velocity": 96}, {"pitch": 38, "tick": 202080, "length": 60, "velocity": 112}, {"pitch": 42, "tick": 202320, "length": 60, "velocity": 96}, {"pitch": 35, "tick": 202320, "length": 60, "velocity": 112}, {"pitch": 42, "tick": 202800, "length": 60, "velocity": 96}, {"pitch": 35, "tick": 202800, "length": 60, "velocity": 112}, {"pitch": 38, "tick": 203040, "length": 60, "velocity": 112}, {"pitch": 42, "tick": 203280, "length": 60, "velocity": 96}, {"pitch": 35, "tick": 203520, "length": 60, "velocity": 112}, {"pitch": 42, "tick": 203760, "length": 60, "velocity": 96}, {"pitch": 38, "tick": 204000, "length": 60, "velocity": 112}, {"pitch": 42, "tick": 204240, "length": 60, "velocity": 96}, {"pitch": 35, "tick": 204240, "length": 60, "velocity": 112}, {"pitch": 42, "tick": 204720, "length": 60, "velocity": 96}, {"pitch": 35, "tick": 204720, "length": 60, "velocity": 112}, {"pitch": 38, "tick": 204960, "length": 60, "velocity": 112}, {"pitch": 42, "tick": 205200, "length": 60, "velocity": 96}, {"pitch": 35, "tick": 205440, "length": 60, "velocity": 112}, {"pitch": 42, "tick": 205680, "length": 60, "velocity": 96}, {"pitch": 38, "tick": 205920, "length": 60, "velocity": 112}, {"pitch": 42, "tick": 206160, "length": 60, "velocity": 96}, {"pitch": 35, "tick": 206160, "length": 60, "velocity": 112}, {"pitch": 42, "tick": 206640, "length": 60, "velocity": 96}, {"pitch": 35, "tick": 206640, "length": 60, "velocity": 112}, {"pitch": 38, "tick": 206880, "length": 60, "velocity": 112}, {"pitch": 42, "tick": 207120, "length": 60, "velocity": 96}, {"pitch": 35, "tick": 207360, "length": 60, "velocity": 112}, {"pitch": 42, "tick": 207600, "length": 60, "velocity": 96}, {"pitch": 38, "tick": 207840, "length": 60, "velocity": 112}, {"pitch": 42, "tick": 208080, "length": 60, "velocity": 96}, {"pitch": 35, "tick": 208080, "length": 60, "velocity": 112}, {"pitch": 42, "tick": 208560, "length": 60, "velocity": 96}, {"pitch": 35, "tick": 208560, "length": 60, "velocity": 112}, {"pitch": 38, "tick": 208800, "length": 60, "velocity": 112}, {"pitch": 42, "tick": 209040, "length": 60, "velocity": 96}, {"pitch": 35, "tick": 209280, "length": 60, "velocity": 112}, {"pitch": 42, "tick": 209520, "length": 60, "velocity": 96}, {"pitch": 42, "tick": 210000, "length": 60, "velocity": 96}, {"pitch": 35, "tick": 210000, "length": 60, "velocity": 112}, {"pitch": 42, "tick": 210480, "length": 60, "velocity": 96}, {"pitch": 35, "tick": 210480, "length": 60, "velocity": 112}, {"pitch": 42, "tick": 210960, "length": 60, "velocity": 96}, {"pitch": 35, "tick": 210960, "length": 60, "velocity": 112}, {"pitch": 35, "tick": 211200, "length": 60, "velocity": 112}, {"pitch": 42, "tick": 211440, "length": 60, "velocity": 96}, {"pitch": 42, "tick": 211920, "length": 60, "velocity": 96}, {"pitch": 35, "tick": 211920, "length": 60, "velocity": 112}, {"pitch": 42, "tick": 212400, "length": 60, "velocity": 96}, {"pitch": 35, "tick": 212400, "length": 60, "velocity": 112}, {"pitch": 42, "tick": 212880, "length": 60, "velocity": 96}, {"pitch": 35, "tick": 212880, "length": 60, "velocity": 112}, {"pitch": 35, "tick": 213120, "length": 60, "velocity": 112}, {"pitch": 42, "tick": 213360, "length": 60, "velocity": 96}, {"pitch": 35, "tick": 213600, "length": 60, "velocity": 112}, {"pitch": 42, "tick": 213840, "length": 60, "velocity": 96}, {"pitch": 35, "tick": 214080, "length": 60, "velocity": 112}, {"pitch": 42, "tick": 214320, "length": 60, "velocity": 96}, {"pitch": 35, "tick": 214560, "length": 60, "velocity": 112}, {"pitch": 42, "tick": 214800, "length": 60, "velocity": 96}, {"pitch": 35, "tick": 215040, "length": 60, "velocity": 112}, {"pitch": 42, "tick": 215280, "length": 60, "velocity": 96}, {"pitch": 35, "tick": 215280, "length": 60, "velocity": 112}, {"pitch": 38, "tick": 215520, "length": 60, "velocity": 112}, {"pitch": 35, "tick": 215520, "length": 60, "velocity": 112}, {"pitch": 42, "tick": 215760, "length": 60, "velocity": 96}, {"pitch": 35, "tick": 215760, "length": 60, "velocity": 112}, {"pitch": 38, "tick": 216000, "length": 60, "velocity": 112}, {"pitch": 42, "tick": 216240, "length": 60, "velocity": 96}, {"pitch": 35, "tick": 216240, "length": 60, "velocity": 112}, {"pitch": 35, "tick": 216360, "length": 60, "velocity": 112}, {"pitch": 38, "tick": 216480, "length": 60, "velocity": 112}, {"pitch": 35, "tick": 216480, "length": 60, "velocity": 112}, {"pitch": 37, "tick": 226560, "length": 60, "velocity": 112}, {"pitch": 35, "tick": 226560, "length": 60, "velocity": 112}, {"pitch": 37, "tick": 227280, "length": 60, "velocity": 112}, {"pitch": 35, "tick": 227280, "length": 60, "velocity": 112}, {"pitch": 35, "tick": 227520, "length": 60, "velocity": 112}, {"pitch": 37, "tick": 228000, "length": 60, "velocity": 112}, {"pitch": 35, "tick": 228240, "length": 60, "velocity": 112}, {"pitch": 35, "tick": 228480, "length": 60, "velocity": 112}, {"pitch": 37, "tick": 228960, "length": 60, "velocity": 112}, {"pitch": 35, "tick": 229200, "length": 60, "velocity": 112}, {"pitch": 35, "tick": 229440, "length": 60, "velocity": 112}, {"pitch": 37, "tick": 229680, "length": 60, "velocity": 112}, {"pitch": 35, "tick": 230160, "length": 60, "velocity": 112}, {"pitch": 37, "tick": 230400, "length": 60, "velocity": 112}, {"pitch": 35, "tick": 230400, "length": 60, "velocity": 112}, {"pitch": 37, "tick": 231120, "length": 60, "velocity": 112}, {"pitch": 35, "tick": 231120, "length": 60, "velocity": 112}, {"pitch": 35, "tick": 231360, "length": 60, "velocity": 112}, {"pitch": 37, "tick": 231840, "length": 60, "velocity": 112}, {"pitch": 35, "tick": 232080, "length": 60, "velocity": 112}, {"pitch": 35, "tick": 232320, "length": 60, "velocity": 112}, {"pitch": 37, "tick": 232800, "length": 60, "velocity": 112}, {"pitch": 35, "tick": 233040, "length": 60, "velocity": 112}, {"pitch": 35, "tick": 233280, "length": 60, "velocity": 112}, {"pitch": 37, "tick": 233520, "length": 60, "velocity": 112}, {"pitch": 35, "tick": 234000, "length": 60, "velocity": 112}, {"pitch": 37, "tick": 234240, "length": 60, "velocity": 112}, {"pitch": 35, "tick": 234240, "length": 60, "velocity": 112}, {"pitch": 37, "tick": 234960, "length": 60, "velocity": 112}, {"pitch": 35, "tick": 234960, "length": 60, "velocity": 112}, {"pitch": 35, "tick": 235200, "length": 60, "velocity": 112}, {"pitch": 37, "tick": 235680, "length": 60, "velocity": 112}, {"pitch": 35, "tick": 235920, "length": 60, "velocity": 112}, {"pitch": 35, "tick": 236160, "length": 60, "velocity": 112}, {"pitch": 37, "tick": 236640, "length": 60, "velocity": 112}, {"pitch": 35, "tick": 236880, "length": 60, "velocity": 112}, {"pitch": 35, "tick": 237120, "length": 60, "velocity": 112}, {"pitch": 37, "tick": 237360, "length": 60, "velocity": 112}, {"pitch": 35, "tick": 237840, "length": 60, "velocity": 112}, {"pitch": 37, "tick": 238080, "length": 60, "velocity": 112}, {"pitch": 35, "tick": 238080, "length": 60, "velocity": 112}, {"pitch": 37, "tick": 238800, "length": 60, "velocity": 112}, {"pitch": 35, "tick": 238800, "length": 60, "velocity": 112}, {"pitch": 35, "tick": 239040, "length": 60, "velocity": 112}, {"pitch": 37, "tick": 239520, "length": 60, "velocity": 112}, {"pitch": 35, "tick": 239760, "length": 60, "velocity": 112}, {"pitch": 35, "tick": 240000, "length": 60, "velocity": 112}, {"pitch": 37, "tick": 240480, "length": 60, "velocity": 112}, {"pitch": 35, "tick": 240720, "length": 60, "velocity": 112}, {"pitch": 35, "tick": 240960, "length": 60, "velocity": 112}, {"pitch": 37, "tick": 241200, "length": 60, "velocity": 112}, {"pitch": 35, "tick": 241680, "length": 60, "velocity": 112}, {"pitch": 37, "tick": 241920, "length": 60, "velocity": 112}, {"pitch": 35, "tick": 241920, "length": 60, "velocity": 112}, {"pitch": 37, "tick": 242640, "length": 60, "velocity": 112}, {"pitch": 35, "tick": 242640, "length": 60, "velocity": 112}, {"pitch": 35, "tick": 242880, "length": 60, "velocity": 112}, {"pitch": 37, "tick": 243360, "length": 60, "velocity": 112}, {"pitch": 35, "tick": 243600, "length": 60, "velocity": 112}, {"pitch": 35, "tick": 243840, "length": 60, "velocity": 112}, {"pitch": 37, "tick": 244320, "length": 60, "velocity": 112}, {"pitch": 35, "tick": 244560, "length": 60, "velocity": 112}, {"pitch": 35, "tick": 244800, "length": 60, "velocity": 112}, {"pitch": 37, "tick": 245040, "length": 60, "velocity": 112}, {"pitch": 35, "tick": 245520, "length": 60, "velocity": 112}, {"pitch": 37, "tick": 245760, "length": 60, "velocity": 112}, {"pitch": 35, "tick": 245760, "length": 60, "velocity": 112}, {"pitch": 37, "tick": 246480, "length": 60, "velocity": 112}, {"pitch": 35, "tick": 246480, "length": 60, "velocity": 112}, {"pitch": 35, "tick": 246720, "length": 60, "velocity": 112}, {"pitch": 37, "tick": 247200, "length": 60, "velocity": 112}, {"pitch": 35, "tick": 247440, "length": 60, "velocity": 112}, {"pitch": 35, "tick": 247680, "length": 60, "velocity": 112}, {"pitch": 37, "tick": 248160, "length": 60, "velocity": 112}, {"pitch": 35, "tick": 248400, "length": 60, "velocity": 112}, {"pitch": 35, "tick": 248640, "length": 60, "velocity": 112}, {"pitch": 37, "tick": 248880, "length": 60, "velocity": 112}, {"pitch": 35, "tick": 249360, "length": 60, "velocity": 112}, {"pitch": 37, "tick": 249600, "length": 60, "velocity": 112}, {"pitch": 35, "tick": 249600, "length": 60, "velocity": 112}, {"pitch": 37, "tick": 250320, "length": 60, "velocity": 112}, {"pitch": 35, "tick": 250320, "length": 60, "velocity": 112}, {"pitch": 35, "tick": 250560, "length": 60, "velocity": 112}, {"pitch": 37, "tick": 251040, "length": 60, "velocity": 112}, {"pitch": 35, "tick": 251280, "length": 60, "velocity": 112}, {"pitch": 35, "tick": 251520, "length": 60, "velocity": 112}, {"pitch": 37, "tick": 252000, "length": 60, "velocity": 112}, {"pitch": 35, "tick": 252240, "length": 60, "velocity": 112}, {"pitch": 35, "tick": 252480, "length": 60, "velocity": 112}, {"pitch": 37, "tick": 252720, "length": 60, "velocity": 112}, {"pitch": 35, "tick": 253200, "length": 60, "velocity": 112}, {"pitch": 37, "tick": 253440, "length": 60, "velocity": 112}, {"pitch": 35, "tick": 253440, "length": 60, "velocity": 112}, {"pitch": 37, "tick": 254160, "length": 60, "velocity": 112}, {"pitch": 35, "tick": 254160, "length": 60, "velocity": 112}, {"pitch": 35, "tick": 254400, "length": 60, "velocity": 112}, {"pitch": 37, "tick": 254880, "length": 60, "velocity": 112}, {"pitch": 35, "tick": 255120, "length": 60, "velocity": 112}, {"pitch": 35, "tick": 255360, "length": 60, "velocity": 112}, {"pitch": 37, "tick": 255840, "length": 60, "velocity": 112}, {"pitch": 35, "tick": 256080, "length": 60, "velocity": 112}, {"pitch": 35, "tick": 256320, "length": 60, "velocity": 112}, {"pitch": 37, "tick": 256560, "length": 60, "velocity": 112}, {"pitch": 35, "tick": 257040, "length": 60, "velocity": 112}, {"pitch": 37, "tick": 257280, "length": 60, "velocity": 112}, {"pitch": 35, "tick": 257280, "length": 60, "velocity": 112}, {"pitch": 37, "tick": 258000, "length": 60, "velocity": 112}, {"pitch": 35, "tick": 258000, "length": 60, "velocity": 112}, {"pitch": 35, "tick": 258240, "length": 60, "velocity": 112}, {"pitch": 37, "tick": 258720, "length": 60, "velocity": 112}, {"pitch": 35, "tick": 258960, "length": 60, "velocity": 112}, {"pitch": 35, "tick": 259200, "length": 60, "velocity": 112}, {"pitch": 37, "tick": 259680, "length": 60, "velocity": 112}, {"pitch": 35, "tick": 259920, "length": 60, "velocity": 112}, {"pitch": 35, "tick": 260160, "length": 60, "velocity": 112}, {"pitch": 37, "tick": 260400, "length": 60, "velocity": 112}, {"pitch": 35, "tick": 260880, "length": 60, "velocity": 112}, {"pitch": 37, "tick": 261120, "length": 60, "velocity": 112}, {"pitch": 35, "tick": 261120, "length": 60, "velocity": 112}, {"pitch": 37, "tick": 261840, "length": 60, "velocity": 112}, {"pitch": 35, "tick": 261840, "length": 60, "velocity": 112}, {"pitch": 35, "tick": 262080, "length": 60, "velocity": 112}, {"pitch": 37, "tick": 262560, "length": 60, "velocity": 112}, {"pitch": 35, "tick": 262800, "length": 60, "velocity": 112}, {"pitch": 35, "tick": 263040, "length": 60, "velocity": 112}, {"pitch": 37, "tick": 263520, "length": 60, "velocity": 112}, {"pitch": 35, "tick": 263760, "length": 60, "velocity": 112}, {"pitch": 35, "tick": 264000, "length": 60, "velocity": 112}, {"pitch": 37, "tick": 264240, "length": 60, "velocity": 112}, {"pitch": 35, "tick": 264720, "length": 60, "velocity": 112}, {"pitch": 37, "tick": 264960, "length": 60, "velocity": 112}, {"pitch": 35, "tick": 264960, "length": 60, "velocity": 112}, {"pitch": 37, "tick": 265680, "length": 60, "velocity": 112}, {"pitch": 35, "tick": 265680, "length": 60, "velocity": 112}, {"pitch": 35, "tick": 265920, "length": 60, "velocity": 112}, {"pitch": 37, "tick": 266400, "length": 60, "velocity": 112}, {"pitch": 35, "tick": 266640, "length": 60, "velocity": 112}, {"pitch": 35, "tick": 266880, "length": 60, "velocity": 112}, {"pitch": 37, "tick": 267360, "length": 60, "velocity": 112}, {"pitch": 35, "tick": 267600, "length": 60, "velocity": 112}, {"pitch": 35, "tick": 267840, "length": 60, "velocity": 112}, {"pitch": 37, "tick": 268080, "length": 60, "velocity": 112}, {"pitch": 35, "tick": 268560, "length": 60, "velocity": 112}, {"pitch": 37, "tick": 268800, "length": 60, "velocity": 112}, {"pitch": 35, "tick": 268800, "length": 60, "velocity": 112}, {"pitch": 37, "tick": 269520, "length": 60, "velocity": 112}, {"pitch": 35, "tick": 269520, "length": 60, "velocity": 112}, {"pitch": 35, "tick": 269760, "length": 60, "velocity": 112}, {"pitch": 37, "tick": 270240, "length": 60, "velocity": 112}, {"pitch": 35, "tick": 270480, "length": 60, "velocity": 112}, {"pitch": 35, "tick": 270720, "length": 60, "velocity": 112}, {"pitch": 37, "tick": 271200, "length": 60, "velocity": 112}, {"pitch": 35, "tick": 271440, "length": 60, "velocity": 112}, {"pitch": 35, "tick": 271680, "length": 60, "velocity": 112}, {"pitch": 37, "tick": 271920, "length": 60, "velocity": 112}, {"pitch": 35, "tick": 272400, "length": 60, "velocity": 112}, {"pitch": 37, "tick": 272640, "length": 60, "velocity": 112}, {"pitch": 35, "tick": 272640, "length": 60, "velocity": 112}, {"pitch": 37, "tick": 273360, "length": 60, "velocity": 112}, {"pitch": 35, "tick": 273360, "length": 60, "velocity": 112}, {"pitch": 35, "tick": 273600, "length": 60, "velocity": 112}, {"pitch": 37, "tick": 274080, "length": 60, "velocity": 112}, {"pitch": 35, "tick": 274320, "length": 60, "velocity": 112}, {"pitch": 35, "tick": 274560, "length": 60, "velocity": 112}, {"pitch": 37, "tick": 275040, "length": 60, "velocity": 112}, {"pitch": 35, "tick": 275280, "length": 60, "velocity": 112}, {"pitch": 35, "tick": 275520, "length": 60, "velocity": 112}, {"pitch": 37, "tick": 275760, "length": 60, "velocity": 112}, {"pitch": 35, "tick": 276240, "length": 60, "velocity": 112}, {"pitch": 37, "tick": 276480, "length": 60, "velocity": 112}, {"pitch": 35, "tick": 276480, "length": 60, "velocity": 112}, {"pitch": 37, "tick": 277200, "length": 60, "velocity": 112}, {"pitch": 35, "tick": 277200, "length": 60, "velocity": 112}, {"pitch": 35, "tick": 277440, "length": 60, "velocity": 112}, {"pitch": 37, "tick": 277920, "length": 60, "velocity": 112}, {"pitch": 35, "tick": 278160, "length": 60, "velocity": 112}, {"pitch": 35, "tick": 278400, "length": 60, "velocity": 112}, {"pitch": 35, "tick": 280320, "length": 60, "velocity": 112}, {"pitch": 35, "tick": 282240, "length": 60, "velocity": 112}, {"pitch": 35, "tick": 283200, "length": 60, "velocity": 112}, {"pitch": 35, "tick": 284160, "length": 60, "velocity": 112}, {"pitch": 35, "tick": 284640, "length": 60, "velocity": 112}, {"pitch": 35, "tick": 285120, "length": 60, "velocity": 112}, {"pitch": 35, "tick": 285360, "length": 60, "velocity": 112}, {"pitch": 35, "tick": 285600, "length": 60, "velocity": 112}, {"pitch": 35, "tick": 285720, "length": 60, "velocity": 112}, {"pitch": 35, "tick": 285840, "length": 60, "velocity": 112}, {"pitch": 35, "tick": 285960, "length": 60, "velocity": 112}, {"pitch": 35, "tick": 286080, "length": 60, "velocity": 112}, {"pitch": 42, "tick": 286320, "length": 60, "velocity": 96}, {"pitch": 38, "tick": 286560, "length": 60, "velocity": 112}, {"pitch": 42, "tick": 286800, "length": 60, "velocity": 96}, {"pitch": 35, "tick": 286800, "length": 60, "velocity": 112}, {"pitch": 42, "tick": 287280, "length": 60, "velocity": 96}, {"pitch": 35, "tick": 287280, "length": 60, "velocity": 112}, {"pitch": 38, "tick": 287520, "length": 60, "velocity": 112}, {"pitch": 42, "tick": 287760, "length": 60, "velocity": 96}, {"pitch": 35, "tick": 288000, "length": 60, "velocity": 112}, {"pitch": 42, "tick": 288240, "length": 60, "velocity": 96}, {"pitch": 38, "tick": 288480, "length": 60, "velocity": 112}, {"pitch": 42, "tick": 288720, "length": 60, "velocity": 96}, {"pitch": 35, "tick": 288720, "length": 60, "velocity": 112}, {"pitch": 42, "tick": 289200, "length": 60, "velocity": 96}, {"pitch": 35, "tick": 289200, "length": 60, "velocity": 112}, {"pitch": 38, "tick": 289440, "length": 60, "velocity": 112}, {"pitch": 42, "tick": 289680, "length": 60, "velocity": 96}, {"pitch": 35, "tick": 289920, "length": 60, "velocity": 112}, {"pitch": 42, "tick": 290160, "length": 60, "velocity": 96}, {"pitch": 38, "tick": 290400, "length": 60, "velocity": 112}, {"pitch": 42, "tick": 290640, "length": 60, "velocity": 96}, {"pitch": 35, "tick": 290640, "length": 60, "velocity": 112}, {"pitch": 42, "tick": 291120, "length": 60, "velocity": 96}, {"pitch": 35, "tick": 291120, "length": 60, "velocity": 112}, {"pitch": 38, "tick": 291360, "length": 60, "velocity": 112}, {"pitch": 42, "tick": 291600, "length": 60, "velocity": 96}, {"pitch": 35, "tick": 291840, "length": 60, "velocity": 112}, {"pitch": 42, "tick": 292080, "length": 60, "velocity": 96}, {"pitch": 38, "tick": 292320, "length": 60, "velocity": 112}, {"pitch": 42, "tick": 292560, "length": 60, "velocity": 96}, {"pitch": 35, "tick": 292560, "length": 60, "velocity": 112}, {"pitch": 42, "tick": 293040, "length": 60, "velocity": 96}, {"pitch": 35, "tick": 293040, "length": 60, "velocity": 112}, {"pitch": 38, "tick": 293280, "length": 60, "velocity": 112}, {"pitch": 42, "tick": 293520, "length": 60, "velocity": 96}, {"pitch": 35, "tick": 293760, "length": 60, "velocity": 112}, {"pitch": 42, "tick": 294000, "length": 60, "velocity": 96}, {"pitch": 38, "tick": 294240, "length": 60, "velocity": 112}, {"pitch": 42, "tick": 294480, "length": 60, "velocity": 96}, {"pitch": 35, "tick": 294480, "length": 60, "velocity": 112}, {"pitch": 42, "tick": 294960, "length": 60, "velocity": 96}, {"pitch": 35, "tick": 294960, "length": 60, "velocity": 112}, {"pitch": 38, "tick": 295200, "length": 60, "velocity": 112}, {"pitch": 42, "tick": 295440, "length": 60, "velocity": 96}, {"pitch": 35, "tick": 295680, "length": 60, "velocity": 112}, {"pitch": 42, "tick": 295920, "length": 60, "velocity": 96}, {"pitch": 38, "tick": 296160, "length": 60, "velocity": 112}, {"pitch": 42, "tick": 296400, "length": 60, "velocity": 96}, {"pitch": 35, "tick": 296400, "length": 60, "velocity": 112}, {"pitch": 42, "tick": 296880, "length": 60, "velocity": 96}, {"pitch": 35, "tick": 296880, "length": 60, "velocity": 112}, {"pitch": 38, "tick": 297120, "length": 60, "velocity": 112}, {"pitch": 42, "tick": 297360, "length": 60, "velocity": 96}, {"pitch": 35, "tick": 297600, "length": 60, "velocity": 112}, {"pitch": 42, "tick": 297840, "length": 60, "velocity": 96}, {"pitch": 38, "tick": 298080, "length": 60, "velocity": 112}, {"pitch": 42, "tick": 298320, "length": 60, "velocity": 96}, {"pitch": 35, "tick": 298320, "length": 60, "velocity": 112}, {"pitch": 42, "tick": 298800, "length": 60, "velocity": 96}, {"pitch": 35, "tick": 298800, "length": 60, "velocity": 112}, {"pitch": 38, "tick": 299040, "length": 60, "velocity": 112}, {"pitch": 42, "tick": 299280, "length": 60, "velocity": 96}, {"pitch": 35, "tick": 299520, "length": 60, "velocity": 112}, {"pitch": 42, "tick": 299760, "length": 60, "velocity": 96}, {"pitch": 38, "tick": 300000, "length": 60, "velocity": 112}, {"pitch": 42, "tick": 300240, "length": 60, "velocity": 96}, {"pitch": 35, "tick": 300240, "length": 60, "velocity": 112}, {"pitch": 42, "tick": 300720, "length": 60, "velocity": 96}, {"pitch": 35, "tick": 300720, "length": 60, "velocity": 112}, {"pitch": 38, "tick": 300960, "length": 60, "velocity": 112}, {"pitch": 42, "tick": 301200, "length": 60, "velocity": 96}, {"pitch": 35, "tick": 301440, "length": 60, "velocity": 112}, {"pitch": 42, "tick": 301680, "length": 60, "velocity": 96}, {"pitch": 38, "tick": 301920, "length": 60, "velocity": 112}, {"pitch": 42, "tick": 302160, "length": 60, "velocity": 96}, {"pitch": 35, "tick": 302160, "length": 60, "velocity": 112}, {"pitch": 42, "tick": 302640, "length": 60, "velocity": 96}, {"pitch": 35, "tick": 302640, "length": 60, "velocity": 112}, {"pitch": 38, "tick": 302880, "length": 60, "velocity": 112}, {"pitch": 42, "tick": 303120, "length": 60, "velocity": 96}, {"pitch": 35, "tick": 303360, "length": 60, "velocity": 112}, {"pitch": 42, "tick": 303600, "length": 60, "velocity": 96}, {"pitch": 38, "tick": 303840, "length": 60, "velocity": 112}, {"pitch": 42, "tick": 304080, "length": 60, "velocity": 96}, {"pitch": 35, "tick": 304080, "length": 60, "velocity": 112}, {"pitch": 42, "tick": 304560, "length": 60, "velocity": 96}, {"pitch": 35, "tick": 304560, "length": 60, "velocity": 112}, {"pitch": 38, "tick": 304800, "length": 60, "velocity": 112}, {"pitch": 42, "tick": 305040, "length": 60, "velocity": 96}, {"pitch": 35, "tick": 305280, "length": 60, "velocity": 112}, {"pitch": 42, "tick": 305520, "length": 60, "velocity": 96}, {"pitch": 38, "tick": 305760, "length": 60, "velocity": 112}, {"pitch": 42, "tick": 306000, "length": 60, "velocity": 96}, {"pitch": 35, "tick": 306000, "length": 60, "velocity": 112}, {"pitch": 42, "tick": 306480, "length": 60, "velocity": 96}, {"pitch": 35, "tick": 306480, "length": 60, "velocity": 112}, {"pitch": 38, "tick": 306720, "length": 60, "velocity": 112}, {"pitch": 42, "tick": 306960, "length": 60, "velocity": 96}, {"pitch": 35, "tick": 307200, "length": 60, "velocity": 112}, {"pitch": 42, "tick": 307440, "length": 60, "velocity": 96}, {"pitch": 38, "tick": 307680, "length": 60, "velocity": 112}, {"pitch": 42, "tick": 307920, "length": 60, "velocity": 96}, {"pitch": 35, "tick": 307920, "length": 60, "velocity": 112}, {"pitch": 42, "tick": 308400, "length": 60, "velocity": 96}, {"pitch": 35, "tick": 308400, "length": 60, "velocity": 112}, {"pitch": 38, "tick": 308640, "length": 60, "velocity": 112}, {"pitch": 42, "tick": 308880, "length": 60, "velocity": 96}, {"pitch": 35, "tick": 309120, "length": 60, "velocity": 112}, {"pitch": 42, "tick": 309360, "length": 60, "velocity": 96}, {"pitch": 38, "tick": 309600, "length": 60, "velocity": 112}, {"pitch": 42, "tick": 309840, "length": 60, "velocity": 96}, {"pitch": 35, "tick": 309840, "length": 60, "velocity": 112}, {"pitch": 42, "tick": 310320, "length": 60, "velocity": 96}, {"pitch": 35, "tick": 310320, "length": 60, "velocity": 112}, {"pitch": 38, "tick": 310560, "length": 60, "velocity": 112}, {"pitch": 42, "tick": 310800, "length": 60, "velocity": 96}, {"pitch": 35, "tick": 311040, "length": 60, "velocity": 112}, {"pitch": 42, "tick": 311280, "length": 60, "velocity": 96}, {"pitch": 38, "tick": 311520, "length": 60, "velocity": 112}, {"pitch": 42, "tick": 311760, "length": 60, "velocity": 96}, {"pitch": 35, "tick": 311760, "length": 60, "velocity": 112}, {"pitch": 42, "tick": 312240, "length": 60, "velocity": 96}, {"pitch": 35, "tick": 312240, "length": 60, "velocity": 112}, {"pitch": 38, "tick": 312480, "length": 60, "velocity": 112}, {"pitch": 42, "tick": 312720, "length": 60, "velocity": 96}, {"pitch": 35, "tick": 312960, "length": 60, "velocity": 112}, {"pitch": 42, "tick": 313200, "length": 60, "velocity": 96}, {"pitch": 38, "tick": 313440, "length": 60, "velocity": 112}, {"pitch": 42, "tick": 313680, "length": 60, "velocity": 96}, {"pitch": 35, "tick": 313680, "length": 60, "velocity": 112}, {"pitch": 42, "tick": 314160, "length": 60, "velocity": 96}, {"pitch": 35, "tick": 314160, "length": 60, "velocity": 112}, {"pitch": 38, "tick": 314400, "length": 60, "velocity": 112}, {"pitch": 42, "tick": 314640, "length": 60, "velocity": 96}, {"pitch": 35, "tick": 314640, "length": 60, "velocity": 112}, {"pitch": 35, "tick": 314880, "length": 60, "velocity": 112}, {"pitch": 42, "tick": 315120, "length": 60, "velocity": 96}, {"pitch": 35, "tick": 315120, "length": 60, "velocity": 112}, {"pitch": 38, "tick": 315360, "length": 60, "velocity": 112}, {"pitch": 42, "tick": 315600, "length": 60, "velocity": 96}, {"pitch": 35, "tick": 315600, "length": 60, "velocity": 112}, {"pitch": 35, "tick": 315720, "length": 60, "velocity": 112}, {"pitch": 38, "tick": 315840, "length": 60, "velocity": 112}, {"pitch": 42, "tick": 316080, "length": 60, "velocity": 96}, {"pitch": 35, "tick": 316080, "length": 60, "velocity": 112}, {"pitch": 35, "tick": 316200, "length": 60, "velocity": 112}, {"pitch": 38, "tick": 316320, "length": 60, "velocity": 112}, {"pitch": 42, "tick": 316560, "length": 60, "velocity": 96}, {"pitch": 35, "tick": 316800, "length": 60, "velocity": 112}, {"pitch": 42, "tick": 317040, "length": 60, "velocity": 96}, {"pitch": 38, "tick": 317280, "length": 60, "velocity": 112}, {"pitch": 42, "tick": 317520, "length": 60, "velocity": 96}, {"pitch": 35, "tick": 317520, "length": 60, "velocity": 112}, {"pitch": 42, "tick": 318000, "length": 60, "velocity": 96}, {"pitch": 35, "tick": 318000, "length": 60, "velocity": 112}, {"pitch": 38, "tick": 318240, "length": 60, "velocity": 112}, {"pitch": 42, "tick": 318480, "length": 60, "velocity": 96}, {"pitch": 35, "tick": 318720, "length": 60, "velocity": 112}, {"pitch": 42, "tick": 318960, "length": 60, "velocity": 96}, {"pitch": 38, "tick": 319200, "length": 60, "velocity": 112}, {"pitch": 42, "tick": 319440, "length": 60, "velocity": 96}, {"pitch": 35, "tick": 319440, "length": 60, "velocity": 112}, {"pitch": 42, "tick": 319920, "length": 60, "velocity": 96}, {"pitch": 35, "tick": 319920, "length": 60, "velocity": 112}, {"pitch": 38, "tick": 320160, "length": 60, "velocity": 112}, {"pitch": 42, "tick": 320400, "length": 60, "velocity": 96}, {"pitch": 35, "tick": 320640, "length": 60, "velocity": 112}, {"pitch": 42, "tick": 320880, "length": 60, "velocity": 96}, {"pitch": 38, "tick": 321120, "length": 60, "velocity": 112}, {"pitch": 42, "tick": 321360, "length": 60, "velocity": 96}, {"pitch": 35, "tick": 321360, "length": 60, "velocity": 112}, {"pitch": 42, "tick": 321840, "length": 60, "velocity": 96}, {"pitch": 35, "tick": 321840, "length": 60, "velocity": 112}, {"pitch": 38, "tick": 322080, "length": 60, "velocity": 112}, {"pitch": 42, "tick": 322320, "length": 60, "velocity": 96}, {"pitch": 35, "tick": 322560, "length": 60, "velocity": 112}, {"pitch": 42, "tick": 322800, "length": 60, "velocity": 96}, {"pitch": 38, "tick": 323040, "length": 60, "velocity": 112}, {"pitch": 42, "tick": 323280, "length": 60, "velocity": 96}, {"pitch": 35, "tick": 323280, "length": 60, "velocity": 112}, {"pitch": 42, "tick": 323760, "length": 60, "velocity": 96}, {"pitch": 35, "tick": 323760, "length": 60, "velocity": 112}, {"pitch": 38, "tick": 324000, "length": 60, "velocity": 112}, {"pitch": 42, "tick": 324240, "length": 60, "velocity": 96}, {"pitch": 35, "tick": 324480, "length": 60, "velocity": 112}, {"pitch": 42, "tick": 324720, "length": 60, "velocity": 96}, {"pitch": 38, "tick": 324960, "length": 60, "velocity": 112}, {"pitch": 42, "tick": 325200, "length": 60, "velocity": 96}, {"pitch": 35, "tick": 325200, "length": 60, "velocity": 112}, {"pitch": 42, "tick": 325680, "length": 60, "velocity": 96}, {"pitch": 35, "tick": 325680, "length": 60, "velocity": 112}, {"pitch": 38, "tick": 325920, "length": 60, "velocity": 112}, {"pitch": 42, "tick": 326160, "length": 60, "velocity": 96}, {"pitch": 35, "tick": 326400, "length": 60, "velocity": 112}, {"pitch": 42, "tick": 326640, "length": 60, "velocity": 96}, {"pitch": 38, "tick": 326880, "length": 60, "velocity": 112}, {"pitch": 42, "tick": 327120, "length": 60, "velocity": 96}, {"pitch": 35, "tick": 327120, "length": 60, "velocity": 112}, {"pitch": 42, "tick": 327600, "length": 60, "velocity": 96}, {"pitch": 35, "tick": 327600, "length": 60, "velocity": 112}, {"pitch": 38, "tick": 327840, "length": 60, "velocity": 112}, {"pitch": 42, "tick": 328080, "length": 60, "velocity": 96}, {"pitch": 35, "tick": 328320, "length": 60, "velocity": 112}, {"pitch": 42, "tick": 328560, "length": 60, "velocity": 96}, {"pitch": 38, "tick": 328800, "length": 60, "velocity": 112}, {"pitch": 42, "tick": 329040, "length": 60, "velocity": 96}, {"pitch": 35, "tick": 329040, "length": 60, "velocity": 112}, {"pitch": 42, "tick": 329520, "length": 60, "velocity": 96}, {"pitch": 35, "tick": 329520, "length": 60, "velocity": 112}, {"pitch": 38, "tick": 329760, "length": 60, "velocity": 112}, {"pitch": 42, "tick": 330000, "length": 60, "velocity": 96}, {"pitch": 35, "tick": 330240, "length": 60, "velocity": 112}, {"pitch": 42, "tick": 330480, "length": 60, "velocity": 96}, {"pitch": 38, "tick": 330720, "length": 60, "velocity": 112}, {"pitch": 42, "tick": 330960, "length": 60, "velocity": 96}, {"pitch": 35, "tick": 330960, "length": 60, "velocity": 112}, {"pitch": 42, "tick": 331440, "length": 60, "velocity": 96}, {"pitch": 35, "tick": 331440, "length": 60, "velocity": 112}, {"pitch": 38, "tick": 331680, "length": 60, "velocity": 112}, {"pitch": 42, "tick": 331920, "length": 60, "velocity": 96}, {"pitch": 35, "tick": 332160, "length": 60, "velocity": 112}, {"pitch": 42, "tick": 332400, "length": 60, "velocity": 96}, {"pitch": 38, "tick": 332640, "length": 60, "velocity": 112}, {"pitch": 42, "tick": 332880, "length": 60, "velocity": 96}, {"pitch": 35, "tick": 332880, "length": 60, "velocity": 112}, {"pitch": 42, "tick": 333360, "length": 60, "velocity": 96}, {"pitch": 35, "tick": 333360, "length": 60, "velocity": 112}, {"pitch": 38, "tick": 333600, "length": 60, "velocity": 112}, {"pitch": 42, "tick": 333840, "length": 60, "velocity": 96}, {"pitch": 35, "tick": 334080, "length": 60, "velocity": 112}, {"pitch": 42, "tick": 334320, "length": 60, "velocity": 96}, {"pitch": 38, "tick": 334560, "length": 60, "velocity": 112}, {"pitch": 42, "tick": 334800, "length": 60, "velocity": 96}, {"pitch": 35, "tick": 334800, "length": 60, "velocity": 112}, {"pitch": 42, "tick": 335280, "length": 60, "velocity": 96}, {"pitch": 35, "tick": 335280, "length": 60, "velocity": 112}, {"pitch": 38, "tick": 335520, "length": 60, "velocity": 112}, {"pitch": 42, "tick": 335760, "length": 60, "velocity": 96}, {"pitch": 35, "tick": 336000, "length": 60, "velocity": 112}, {"pitch": 42, "tick": 336240, "length": 60, "velocity": 96}, {"pitch": 38, "tick": 336480, "length": 60, "velocity": 112}, {"pitch": 42, "tick": 336720, "length": 60, "velocity": 96}, {"pitch": 35, "tick": 336720, "length": 60, "velocity": 112}, {"pitch": 42, "tick": 337200, "length": 60, "velocity": 96}, {"pitch": 35, "tick": 337200, "length": 60, "velocity": 112}, {"pitch": 38, "tick": 337440, "length": 60, "velocity": 112}, {"pitch": 42, "tick": 337680, "length": 60, "velocity": 96}, {"pitch": 35, "tick": 337920, "length": 60, "velocity": 112}, {"pitch": 42, "tick": 338160, "length": 60, "velocity": 96}, {"pitch": 38, "tick": 338400, "length": 60, "velocity": 112}, {"pitch": 42, "tick": 338640, "length": 60, "velocity": 96}, {"pitch": 35, "tick": 338640, "length": 60, "velocity": 112}, {"pitch": 42, "tick": 339120, "length": 60, "velocity": 96}, {"pitch": 35, "tick": 339120, "length": 60, "velocity": 112}, {"pitch": 38, "tick": 339360, "length": 60, "velocity": 112}, {"pitch": 42, "tick": 339600, "length": 60, "velocity": 96}, {"pitch": 35, "tick": 339840, "length": 60, "velocity": 112}, {"pitch": 42, "tick": 340080, "length": 60, "velocity": 96}, {"pitch": 38, "tick": 340320, "length": 60, "velocity": 112}, {"pitch": 42, "tick": 340560, "length": 60, "velocity": 96}, {"pitch": 35, "tick": 340560, "length": 60, "velocity": 112}, {"pitch": 42, "tick": 341040, "length": 60, "velocity": 96}, {"pitch": 35, "tick": 341040, "length": 60, "velocity": 112}, {"pitch": 38, "tick": 341280, "length": 60, "velocity": 112}, {"pitch": 42, "tick": 341520, "length": 60, "velocity": 96}, {"pitch": 35, "tick": 341760, "length": 60, "velocity": 112}, {"pitch": 42, "tick": 342000, "length": 60, "velocity": 96}, {"pitch": 38, "tick": 342240, "length": 60, "velocity": 112}, {"pitch": 42, "tick": 342480, "length": 60, "velocity": 96}, {"pitch": 35, "tick": 342480, "length": 60, "velocity": 112}, {"pitch": 42, "tick": 342960, "length": 60, "velocity": 96}, {"pitch": 35, "tick": 342960, "length": 60, "velocity": 112}, {"pitch": 38, "tick": 343200, "length": 60, "velocity": 112}, {"pitch": 42, "tick": 343440, "length": 60, "velocity": 96}, {"pitch": 35, "tick": 343680, "length": 60, "velocity": 112}, {"pitch": 42, "tick": 343920, "length": 60, "velocity": 96}, {"pitch": 38, "tick": 344160, "length": 60, "velocity": 112}, {"pitch": 42, "tick": 344400, "length": 60, "velocity": 96}, {"pitch": 35, "tick": 344400, "length": 60, "velocity": 112}, {"pitch": 42, "tick": 344880, "length": 60, "velocity": 96}, {"pitch": 35, "tick": 344880, "length": 60, "velocity": 112}, {"pitch": 38, "tick": 345120, "length": 60, "velocity": 112}, {"pitch": 42, "tick": 345360, "length": 60, "velocity": 96}, {"pitch": 35, "tick": 345360, "length": 60, "velocity": 112}, {"pitch": 35, "tick": 345600, "length": 60, "velocity": 112}, {"pitch": 42, "tick": 345840, "length": 60, "velocity": 96}, {"pitch": 35, "tick": 345840, "length": 60, "velocity": 112}, {"pitch": 38, "tick": 346080, "length": 60, "velocity": 112}, {"pitch": 42, "tick": 346320, "length": 60, "velocity": 96}, {"pitch": 35, "tick": 346320, "length": 60, "velocity": 112}, {"pitch": 35, "tick": 346440, "length": 60, "velocity": 112}, {"pitch": 38, "tick": 346560, "length": 60, "velocity": 112}, {"pitch": 42, "tick": 346800, "length": 60, "velocity": 96}, {"pitch": 35, "tick": 346800, "length": 60, "velocity": 112}, {"pitch": 35, "tick": 346920, "length": 60, "velocity": 112}, {"pitch": 38, "tick": 347040, "length": 60, "velocity": 112}, {"pitch": 42, "tick": 347280, "length": 60, "velocity": 96}, {"pitch": 35, "tick": 347520, "length": 60, "velocity": 112}, {"pitch": 42, "tick": 347760, "length": 60, "velocity": 96}, {"pitch": 38, "tick": 348000, "length": 60, "velocity": 112}, {"pitch": 42, "tick": 348240, "length": 60, "velocity": 96}, {"pitch": 35, "tick": 348240, "length": 60, "velocity": 112}, {"pitch": 42, "tick": 348720, "length": 60, "velocity": 96}, {"pitch": 35, "tick": 348720, "length": 60, "velocity": 112}, {"pitch": 38, "tick": 348960, "length": 60, "velocity": 112}, {"pitch": 42, "tick": 349200, "length": 60, "velocity": 96}, {"pitch": 35, "tick": 349440, "length": 60, "velocity": 112}, {"pitch": 42, "tick": 349680, "length": 60, "velocity": 96}, {"pitch": 38, "tick": 349920, "length": 60, "velocity": 112}, {"pitch": 42, "tick": 350160, "length": 60, "velocity": 96}, {"pitch": 35, "tick": 350160, "length": 60, "velocity": 112}, {"pitch": 42, "tick": 350640, "length": 60, "velocity": 96}, {"pitch": 35, "tick": 350640, "length": 60, "velocity": 112}, {"pitch": 38, "tick": 350880, "length": 60, "velocity": 112}, {"pitch": 42, "tick": 351120, "length": 60, "velocity": 96}, {"pitch": 35, "tick": 351360, "length": 60, "velocity": 112}, {"pitch": 42, "tick": 351600, "length": 60, "velocity": 96}, {"pitch": 38, "tick": 351840, "length": 60, "velocity": 112}, {"pitch": 42, "tick": 352080, "length": 60, "velocity": 96}, {"pitch": 35, "tick": 352080, "length": 60, "velocity": 112}, {"pitch": 42, "tick": 352560, "length": 60, "velocity": 96}, {"pitch": 35, "tick": 352560, "length": 60, "velocity": 112}, {"pitch": 38, "tick": 352800, "length": 60, "velocity": 112}, {"pitch": 42, "tick": 353040, "length": 60, "velocity": 96}, {"pitch": 35, "tick": 353280, "length": 60, "velocity": 112}, {"pitch": 42, "tick": 353520, "length": 60, "velocity": 96}, {"pitch": 38, "tick": 353760, "length": 60, "velocity": 112}, {"pitch": 42, "tick": 354000, "length": 60, "velocity": 96}, {"pitch": 35, "tick": 354000, "length": 60, "velocity": 112}, {"pitch": 42, "tick": 354480, "length": 60, "velocity": 96}, {"pitch": 35, "tick": 354480, "length": 60, "velocity": 112}, {"pitch": 38, "tick": 354720, "length": 60, "velocity": 112}, {"pitch": 42, "tick": 354960, "length": 60, "velocity": 96}, {"pitch": 35, "tick": 355200, "length": 60, "velocity": 112}, {"pitch": 42, "tick": 355440, "length": 60, "velocity": 96}, {"pitch": 38, "tick": 355680, "length": 60, "velocity": 112}, {"pitch": 42, "tick": 355920, "length": 60, "velocity": 96}, {"pitch": 35, "tick": 355920, "length": 60, "velocity": 112}, {"pitch": 42, "tick": 356400, "length": 60, "velocity": 96}, {"pitch": 35, "tick": 356400, "length": 60, "velocity": 112}, {"pitch": 38, "tick": 356640, "length": 60, "velocity": 112}, {"pitch": 42, "tick": 356880, "length": 60, "velocity": 96}, {"pitch": 35, "tick": 357120, "length": 60, "velocity": 112}, {"pitch": 42, "tick": 357360, "length": 60, "velocity": 96}, {"pitch": 38, "tick": 357600, "length": 60, "velocity": 112}, {"pitch": 42, "tick": 357840, "length": 60, "velocity": 96}, {"pitch": 35, "tick": 357840, "length": 60, "velocity": 112}, {"pitch": 42, "tick": 358320, "length": 60, "velocity": 96}, {"pitch": 35, "tick": 358320, "length": 60, "velocity": 112}, {"pitch": 38, "tick": 358560, "length": 60, "velocity": 112}, {"pitch": 42, "tick": 358800, "length": 60, "velocity": 96}, {"pitch": 35, "tick": 359040, "length": 60, "velocity": 112}, {"pitch": 42, "tick": 359280, "length": 60, "velocity": 96}, {"pitch": 38, "tick": 359520, "length": 60, "velocity": 112}, {"pitch": 42, "tick": 359760, "length": 60, "velocity": 96}, {"pitch": 35, "tick": 359760, "length": 60, "velocity": 112}, {"pitch": 42, "tick": 360240, "length": 60, "velocity": 96}, {"pitch": 35, "tick": 360240, "length": 60, "velocity": 112}, {"pitch": 38, "tick": 360480, "length": 60, "velocity": 112}, {"pitch": 42, "tick": 360720, "length": 60, "velocity": 96}, {"pitch": 35, "tick": 360960, "length": 60, "velocity": 112}, {"pitch": 42, "tick": 361200, "length": 60, "velocity": 96}, {"pitch": 38, "tick": 361440, "length": 60, "velocity": 112}, {"pitch": 42, "tick": 361680, "length": 60, "velocity": 96}, {"pitch": 35, "tick": 361680, "length": 60, "velocity": 112}, {"pitch": 42, "tick": 362160, "length": 60, "velocity": 96}, {"pitch": 35, "tick": 362160, "length": 60, "velocity": 112}, {"pitch": 38, "tick": 362400, "length": 60, "velocity": 112}, {"pitch": 42, "tick": 362640, "length": 60, "velocity": 96}, {"pitch": 35, "tick": 362880, "length": 60, "velocity": 112}, {"pitch": 42, "tick": 363120, "length": 60, "velocity": 96}, {"pitch": 38, "tick": 363360, "length": 60, "velocity": 112}, {"pitch": 42, "tick": 363600, "length": 60, "velocity": 96}, {"pitch": 35, "tick": 363600, "length": 60, "velocity": 112}, {"pitch": 42, "tick": 364080, "length": 60, "velocity": 96}, {"pitch": 35, "tick": 364080, "length": 60, "velocity": 112}, {"pitch": 38, "tick": 364320, "length": 60, "velocity": 112}, {"pitch": 42, "tick": 364560, "length": 60, "velocity": 96}, {"pitch": 35, "tick": 364800, "length": 60, "velocity": 112}, {"pitch": 42, "tick": 365040, "length": 60, "velocity": 96}, {"pitch": 38, "tick": 365280, "length": 60, "velocity": 112}, {"pitch": 42, "tick": 365520, "length": 60, "velocity": 96}, {"pitch": 35, "tick": 365520, "length": 60, "velocity": 112}, {"pitch": 42, "tick": 366000, "length": 60, "velocity": 96}, {"pitch": 35, "tick": 366000, "length": 60, "velocity": 112}, {"pitch": 38, "tick": 366240, "length": 60, "velocity": 112}, {"pitch": 42, "tick": 366480, "length": 60, "velocity": 96}, {"pitch": 35, "tick": 366720, "length": 60, "velocity": 112}, {"pitch": 42, "tick": 366960, "length": 60, "velocity": 96}, {"pitch": 38, "tick": 367200, "length": 60, "velocity": 112}, {"pitch": 42, "tick": 367440, "length": 60, "velocity": 96}, {"pitch": 35, "tick": 367440, "length": 60, "velocity": 112}, {"pitch": 42, "tick": 367920, "length": 60, "velocity": 96}, {"pitch": 35, "tick": 367920, "length": 60, "velocity": 112}, {"pitch": 38, "tick": 368160, "length": 60, "velocity": 112}, {"pitch": 42, "tick": 368400, "length": 60, "velocity": 96}, {"pitch": 35, "tick": 368640, "length": 60, "velocity": 112}, {"pitch": 42, "tick": 368880, "length": 60, "velocity": 96}, {"pitch": 38, "tick": 369120, "length": 60, "velocity": 112}, {"pitch": 42, "tick": 369360, "length": 60, "velocity": 96}, {"pitch": 35, "tick": 369360, "length": 60, "velocity": 112}, {"pitch": 42, "tick": 369840, "length": 60, "velocity": 96}, {"pitch": 35, "tick": 369840, "length": 60, "velocity": 112}, {"pitch": 38, "tick": 370080, "length": 60, "velocity": 112}, {"pitch": 42, "tick": 370320, "length": 60, "velocity": 96}, {"pitch": 35, "tick": 370560, "length": 60, "velocity": 112}, {"pitch": 42, "tick": 370800, "length": 60, "velocity": 96}, {"pitch": 38, "tick": 371040, "length": 60, "velocity": 112}, {"pitch": 42, "tick": 371280, "length": 60, "velocity": 96}, {"pitch": 35, "tick": 371280, "length": 60, "velocity": 112}, {"pitch": 42, "tick": 371760, "length": 60, "velocity": 96}, {"pitch": 35, "tick": 371760, "length": 60, "velocity": 112}, {"pitch": 38, "tick": 372000, "length": 60, "velocity": 112}, {"pitch": 42, "tick": 372240, "length": 60, "velocity": 96}, {"pitch": 35, "tick": 372480, "length": 60, "velocity": 112}, {"pitch": 42, "tick": 372720, "length": 60, "velocity": 96}, {"pitch": 38, "tick": 372960, "length": 60, "velocity": 112}, {"pitch": 42, "tick": 373200, "length": 60, "velocity": 96}, {"pitch": 35, "tick": 373200, "length": 60, "velocity": 112}, {"pitch": 42, "tick": 373680, "length": 60, "velocity": 96}, {"pitch": 35, "tick": 373680, "length": 60, "velocity": 112}, {"pitch": 38, "tick": 373920, "length": 60, "velocity": 112}, {"pitch": 42, "tick": 374160, "length": 60, "velocity": 96}, {"pitch": 35, "tick": 374400, "length": 60, "velocity": 112}, {"pitch": 42, "tick": 374640, "length": 60, "velocity": 96}, {"pitch": 38, "tick": 374880, "length": 60, "velocity": 112}, {"pitch": 42, "tick": 375120, "length": 60, "velocity": 96}, {"pitch": 35, "tick": 375120, "length": 60, "velocity": 112}, {"pitch": 42, "tick": 375600, "length": 60, "velocity": 96}, {"pitch": 35, "tick": 375600, "length": 60, "velocity": 112}, {"pitch": 38, "tick": 375840, "length": 60, "velocity": 112}, {"pitch": 42, "tick": 376080, "length": 60, "velocity": 96}, {"pitch": 35, "tick": 376080, "length": 60, "velocity": 112}, {"pitch": 35, "tick": 376320, "length": 60, "velocity": 112}, {"pitch": 42, "tick": 376560, "length": 60, "velocity": 96}, {"pitch": 35, "tick": 376560, "length": 60, "velocity": 112}, {"pitch": 38, "tick": 376800, "length": 60, "velocity": 112}, {"pitch": 42, "tick": 377040, "length": 60, "velocity": 96}, {"pitch": 35, "tick": 377040, "length": 60, "velocity": 112}, {"pitch": 35, "tick": 377160, "length": 60, "velocity": 112}, {"pitch": 38, "tick": 377280, "length": 60, "velocity": 112}, {"pitch": 42, "tick": 377520, "length": 60, "velocity": 96}, {"pitch": 35, "tick": 377520, "length": 60, "velocity": 112}, {"pitch": 35, "tick": 377640, "length": 60, "velocity": 112}, {"pitch": 38, "tick": 377760, "length": 60, "velocity": 112}, {"pitch": 42, "tick": 378000, "length": 60, "velocity": 96}, {"pitch": 35, "tick": 378240, "length": 60, "velocity": 112}, {"pitch": 42, "tick": 378480, "length": 60, "velocity": 96}, {"pitch": 38, "tick": 378720, "length": 60, "velocity": 112}, {"pitch": 42, "tick": 378960, "length": 60, "velocity": 96}, {"pitch": 35, "tick": 378960, "length": 60, "velocity": 112}, {"pitch": 42, "tick": 379440, "length": 60, "velocity": 96}, {"pitch": 35, "tick": 379440, "length": 60, "velocity": 112}, {"pitch": 38, "tick": 379680, "length": 60, "velocity": 112}, {"pitch": 42, "tick": 379920, "length": 60, "velocity": 96}, {"pitch": 35, "tick": 380160, "length": 60, "velocity": 112}, {"pitch": 42, "tick": 380400, "length": 60, "velocity": 96}, {"pitch": 38, "tick": 380640, "length": 60, "velocity": 112}, {"pitch": 42, "tick": 380880, "length": 60, "velocity": 96}, {"pitch": 35, "tick": 380880, "length": 60, "velocity": 112}, {"pitch": 42, "tick": 381360, "length": 60, "velocity": 96}, {"pitch": 35, "tick": 381360, "length": 60, "velocity": 112}, {"pitch": 38, "tick": 381600, "length": 60, "velocity": 112}, {"pitch": 42, "tick": 381840, "length": 60, "velocity": 96}, {"pitch": 35, "tick": 382080, "length": 60, "velocity": 112}, {"pitch": 42, "tick": 382320, "length": 60, "velocity": 96}, {"pitch": 38, "tick": 382560, "length": 60, "velocity": 112}, {"pitch": 42, "tick": 382800, "length": 60, "velocity": 96}, {"pitch": 35, "tick": 382800, "length": 60, "velocity": 112}, {"pitch": 42, "tick": 383280, "length": 60, "velocity": 96}, {"pitch": 35, "tick": 383280, "length": 60, "velocity": 112}, {"pitch": 38, "tick": 383520, "length": 60, "velocity": 112}, {"pitch": 42, "tick": 383760, "length": 60, "velocity": 96}, {"pitch": 35, "tick": 384000, "length": 60, "velocity": 112}, {"pitch": 42, "tick": 384240, "length": 60, "velocity": 96}, {"pitch": 38, "tick": 384480, "length": 60, "velocity": 112}, {"pitch": 42, "tick": 384720, "length": 60, "velocity": 96}, {"pitch": 35, "tick": 384720, "length": 60, "velocity": 112}, {"pitch": 42, "tick": 385200, "length": 60, "velocity": 96}, {"pitch": 35, "tick": 385200, "length": 60, "velocity": 112}, {"pitch": 38, "tick": 385440, "length": 60, "velocity": 112}, {"pitch": 42, "tick": 385680, "length": 60, "velocity": 96}, {"pitch": 35, "tick": 385920, "length": 60, "velocity": 112}, {"pitch": 42, "tick": 386160, "length": 60, "velocity": 96}, {"pitch": 38, "tick": 386400, "length": 60, "velocity": 112}, {"pitch": 42, "tick": 386640, "length": 60, "velocity": 96}, {"pitch": 35, "tick": 386640, "length": 60, "velocity": 112}, {"pitch": 42, "tick": 387120, "length": 60, "velocity": 96}, {"pitch": 35, "tick": 387120, "length": 60, "velocity": 112}, {"pitch": 38, "tick": 387360, "length": 60, "velocity": 112}, {"pitch": 42, "tick": 387600, "length": 60, "velocity": 96}, {"pitch": 35, "tick": 387840, "length": 60, "velocity": 112}, {"pitch": 42, "tick": 388080, "length": 60, "velocity": 96}, {"pitch": 38, "tick": 388320, "length": 60, "velocity": 112}, {"pitch": 42, "tick": 388560, "length": 60, "velocity": 96}, {"pitch": 35, "tick": 388560, "length": 60, "velocity": 112}, {"pitch": 42, "tick": 389040, "length": 60, "velocity": 96}, {"pitch": 35, "tick": 389040, "length": 60, "velocity": 112}, {"pitch": 38, "tick": 389280, "length": 60, "velocity": 112}, {"pitch": 42, "tick": 389520, "length": 60, "velocity": 96}, {"pitch": 35, "tick": 389760, "length": 60, "velocity": 112}, {"pitch": 42, "tick": 390000, "length": 60, "velocity": 96}, {"pitch": 38, "tick": 390240, "length": 60, "velocity": 112}, {"pitch": 42, "tick": 390480, "length": 60, "velocity": 96}, {"pitch": 35, "tick": 390480, "length": 60, "velocity": 112}, {"pitch": 42, "tick": 390960, "length": 60, "velocity": 96}, {"pitch": 35, "tick": 390960, "length": 60, "velocity": 112}, {"pitch": 38, "tick": 391200, "length": 60, "velocity": 112}, {"pitch": 42, "tick": 391440, "length": 60, "velocity": 96}, {"pitch": 35, "tick": 391680, "length": 60, "velocity": 112}, {"pitch": 42, "tick": 391920, "length": 60, "velocity": 96}, {"pitch": 38, "tick": 392160, "length": 60, "velocity": 112}, {"pitch": 42, "tick": 392400, "length": 60, "velocity": 96}, {"pitch": 35, "tick": 392400, "length": 60, "velocity": 112}, {"pitch": 42, "tick": 392880, "length": 60, "velocity": 96}, {"pitch": 35, "tick": 392880, "length": 60, "velocity": 112}, {"pitch": 38, "tick": 393120, "length": 60, "velocity": 112}, {"pitch": 42, "tick": 393360, "length": 60, "velocity": 96}, {"pitch": 35, "tick": 393600, "length": 60, "velocity": 112}, {"pitch": 42, "tick": 393840, "length": 60, "velocity": 96}, {"pitch": 38, "tick": 394080, "length": 60, "velocity": 112}, {"pitch": 42, "tick": 394320, "length": 60, "velocity": 96}, {"pitch": 35, "tick": 394320, "length": 60, "velocity": 112}, {"pitch": 42, "tick": 394800, "length": 60, "velocity": 96}, {"pitch": 35, "tick": 394800, "length": 60, "velocity": 112}, {"pitch": 38, "tick": 395040, "length": 60, "velocity": 112}, {"pitch": 42, "tick": 395280, "length": 60, "velocity": 96}, {"pitch": 35, "tick": 395520, "length": 60, "velocity": 112}, {"pitch": 42, "tick": 395760, "length": 60, "velocity": 96}, {"pitch": 38, "tick": 396000, "length": 60, "velocity": 112}, {"pitch": 42, "tick": 396240, "length": 60, "velocity": 96}, {"pitch": 35, "tick": 396240, "length": 60, "velocity": 112}, {"pitch": 42, "tick": 396720, "length": 60, "velocity": 96}, {"pitch": 35, "tick": 396720, "length": 60, "velocity": 112}, {"pitch": 38, "tick": 396960, "length": 60, "velocity": 112}, {"pitch": 42, "tick": 397200, "length": 60, "velocity": 96}, {"pitch": 35, "tick": 397440, "length": 60, "velocity": 112}, {"pitch": 42, "tick": 397680, "length": 60, "velocity": 96}, {"pitch": 38, "tick": 397920, "length": 60, "velocity": 112}, {"pitch": 42, "tick": 398160, "length": 60, "velocity": 96}, {"pitch": 35, "tick": 398160, "length": 60, "velocity": 112}, {"pitch": 42, "tick": 398640, "length": 60, "velocity": 96}, {"pitch": 35, "tick": 398640, "length": 60, "velocity": 112}, {"pitch": 38, "tick": 398880, "length": 60, "velocity": 112}, {"pitch": 42, "tick": 399120, "length": 60, "velocity": 96}, {"pitch": 35, "tick": 399360, "length": 60, "velocity": 112}, {"pitch": 42, "tick": 399600, "length": 60, "velocity": 96}, {"pitch": 38, "tick": 399840, "length": 60, "velocity": 112}, {"pitch": 42, "tick": 400080, "length": 60, "velocity": 96}, {"pitch": 35, "tick": 400080, "length": 60, "velocity": 112}, {"pitch": 42, "tick": 400560, "length": 60, "velocity": 96}, {"pitch": 35, "tick": 400560, "length": 60, "velocity": 112}, {"pitch": 38, "tick": 400800, "length": 60, "velocity": 112}, {"pitch": 42, "tick": 401040, "length": 60, "velocity": 96}, {"pitch": 35, "tick": 401280, "length": 60, "velocity": 112}, {"pitch": 42, "tick": 401520, "length": 60, "velocity": 96}, {"pitch": 42, "tick": 402000, "length": 60, "velocity": 96}, {"pitch": 35, "tick": 402000, "length": 60, "velocity": 112}, {"pitch": 42, "tick": 402480, "length": 60, "velocity": 96}, {"pitch": 35, "tick": 402480, "length": 60, "velocity": 112}, {"pitch": 42, "tick": 402960, "length": 60, "velocity": 96}, {"pitch": 35, "tick": 402960, "length": 60, "velocity": 112}, {"pitch": 35, "tick": 403200, "length": 60, "velocity": 112}, {"pitch": 42, "tick": 403440, "length": 60, "velocity": 96}, {"pitch": 42, "tick": 403920, "length": 60, "velocity": 96}, {"pitch": 35, "tick": 403920, "length": 60, "velocity": 112}, {"pitch": 42, "tick": 404400, "length": 60, "velocity": 96}, {"pitch": 35, "tick": 404400, "length": 60, "velocity": 112}, {"pitch": 42, "tick": 404880, "length": 60, "velocity": 96}, {"pitch": 35, "tick": 404880, "length": 60, "velocity": 112}, {"pitch": 35, "tick": 405120, "length": 60, "velocity": 112}, {"pitch": 42, "tick": 405360, "length": 60, "velocity": 96}, {"pitch": 35, "tick": 405600, "length": 60, "velocity": 112}, {"pitch": 42, "tick": 405840, "length": 60, "velocity": 96}, {"pitch": 35, "tick": 406080, "length": 60, "velocity": 112}, {"pitch": 42, "tick": 406320, "length": 60, "velocity": 96}, {"pitch": 35, "tick": 406560, "length": 60, "velocity": 112}, {"pitch": 42, "tick": 406800, "length": 60, "velocity": 96}, {"pitch": 35, "tick": 407040, "length": 60, "velocity": 112}, {"pitch": 42, "tick": 407280, "length": 60, "velocity": 96}, {"pitch": 35, "tick": 407280, "length": 60, "velocity": 112}, {"pitch": 38, "tick": 407520, "length": 60, "velocity": 112}, {"pitch": 35, "tick": 407520, "length": 60, "velocity": 112}, {"pitch": 42, "tick": 407760, "length": 60, "velocity": 96}, {"pitch": 35, "tick": 407760, "length": 60, "velocity": 112}, {"pitch": 38, "tick": 408000, "length": 60, "velocity": 112}, {"pitch": 42, "tick": 408240, "length": 60, "velocity": 96}, {"pitch": 35, "tick": 408240, "length": 60, "velocity": 112}, {"pitch": 35, "tick": 408360, "length": 60, "velocity": 112}, {"pitch": 38, "tick": 408480, "length": 60, "velocity": 112}, {"pitch": 35, "tick": 408480, "length": 60, "velocity": 112}, {"pitch": 35, "tick": 408640, "length": 60, "velocity": 112}, {"pitch": 42, "tick": 408720, "length": 60, "velocity": 96}, {"pitch": 35, "tick": 408800, "length": 60, "velocity": 112}, {"pitch": 35, "tick": 408960, "length": 60, "velocity": 112}, {"pitch": 42, "tick": 409200, "length": 60, "velocity": 96}, {"pitch": 38, "tick": 409440, "length": 60, "velocity": 112}, {"pitch": 42, "tick": 409680, "length": 60, "velocity": 96}, {"pitch": 35, "tick": 409680, "length": 60, "velocity": 112}, {"pitch": 42, "tick": 410160, "length": 60, "velocity": 96}, {"pitch": 35, "tick": 410160, "length": 60, "velocity": 112}, {"pitch": 38, "tick": 410400, "length": 60, "velocity": 112}, {"pitch": 42, "tick": 410640, "length": 60, "velocity": 96}, {"pitch": 35, "tick": 410880, "length": 60, "velocity": 112}, {"pitch": 42, "tick": 411120, "length": 60, "velocity": 96}, {"pitch": 38, "tick": 411360, "length": 60, "velocity": 112}, {"pitch": 42, "tick": 411600, "length": 60, "velocity": 96}, {"pitch": 35, "tick": 411600, "length": 60, "velocity": 112}, {"pitch": 42, "tick": 412080, "length": 60, "velocity": 96}, {"pitch": 35, "tick": 412080, "length": 60, "velocity": 112}, {"pitch": 38, "tick": 412320, "length": 60, "velocity": 112}, {"pitch": 42, "tick": 412560, "length": 60, "velocity": 96}, {"pitch": 35, "tick": 412800, "length": 60, "velocity": 112}, {"pitch": 42, "tick": 413040, "length": 60, "velocity": 96}, {"pitch": 38, "tick": 413280, "length": 60, "velocity": 112}, {"pitch": 42, "tick": 413520, "length": 60, "velocity": 96}, {"pitch": 35, "tick": 413520, "length": 60, "velocity": 112}, {"pitch": 42, "tick": 414000, "length": 60, "velocity": 96}, {"pitch": 35, "tick": 414000, "length": 60, "velocity": 112}, {"pitch": 38, "tick": 414240, "length": 60, "velocity": 112}, {"pitch": 42, "tick": 414480, "length": 60, "velocity": 96}, {"pitch": 35, "tick": 414720, "length": 60, "velocity": 112}, {"pitch": 42, "tick": 414960, "length": 60, "velocity": 96}, {"pitch": 38, "tick": 415200, "length": 60, "velocity": 112}, {"pitch": 42, "tick": 415440, "length": 60, "velocity": 96}, {"pitch": 35, "tick": 415440, "length": 60, "velocity": 112}, {"pitch": 42, "tick": 415920, "length": 60, "velocity": 96}, {"pitch": 35, "tick": 415920, "length": 60, "velocity": 112}, {"pitch": 38, "tick": 416160, "length": 60, "velocity": 112}, {"pitch": 42, "tick": 416400, "length": 60, "velocity": 96}, {"pitch": 35, "tick": 416640, "length": 60, "velocity": 112}, {"pitch": 42, "tick": 416880, "length": 60, "velocity": 96}, {"pitch": 38, "tick": 417120, "length": 60, "velocity": 112}, {"pitch": 42, "tick": 417360, "length": 60, "velocity": 96}, {"pitch": 35, "tick": 417360, "length": 60, "velocity": 112}, {"pitch": 42, "tick": 417840, "length": 60, "velocity": 96}, {"pitch": 35, "tick": 417840, "length": 60, "velocity": 112}, {"pitch": 38, "tick": 418080, "length": 60, "velocity": 112}, {"pitch": 42, "tick": 418320, "length": 60, "velocity": 96}, {"pitch": 35, "tick": 418560, "length": 60, "velocity": 112}, {"pitch": 42, "tick": 418800, "length": 60, "velocity": 96}, {"pitch": 38, "tick": 419040, "length": 60, "velocity": 112}, {"pitch": 42, "tick": 419280, "length": 60, "velocity": 96}, {"pitch": 35, "tick": 419280, "length": 60, "velocity": 112}, {"pitch": 42, "tick": 419760, "length": 60, "velocity": 96}, {"pitch": 35, "tick": 419760, "length": 60, "velocity": 112}, {"pitch": 38, "tick": 420000, "length": 60, "velocity": 112}, {"pitch": 42, "tick": 420240, "length": 60, "velocity": 96}, {"pitch": 35, "tick": 420480, "length": 60, "velocity": 112}, {"pitch": 42, "tick": 420720, "length": 60, "velocity": 96}, {"pitch": 38, "tick": 420960, "length": 60, "velocity": 112}, {"pitch": 42, "tick": 421200, "length": 60, "velocity": 96}, {"pitch": 35, "tick": 421200, "length": 60, "velocity": 112}, {"pitch": 42, "tick": 421680, "length": 60, "velocity": 96}, {"pitch": 35, "tick": 421680, "length": 60, "velocity": 112}, {"pitch": 38, "tick": 421920, "length": 60, "velocity": 112}, {"pitch": 42, "tick": 422160, "length": 60, "velocity": 96}, {"pitch": 35, "tick": 422400, "length": 60, "velocity": 112}, {"pitch": 42, "tick": 422640, "length": 60, "velocity": 96}, {"pitch": 38, "tick": 422880, "length": 60, "velocity": 112}, {"pitch": 42, "tick": 423120, "length": 60, "velocity": 96}, {"pitch": 35, "tick": 423120, "length": 60, "velocity": 112}, {"pitch": 42, "tick": 423600, "length": 60, "velocity": 96}, {"pitch": 35, "tick": 423600, "length": 60, "velocity": 112}, {"pitch": 38, "tick": 423840, "length": 60, "velocity": 112}, {"pitch": 42, "tick": 424080, "length": 60, "velocity": 96}, {"pitch": 35, "tick": 424320, "length": 60, "velocity": 112}, {"pitch": 42, "tick": 424560, "length": 60, "velocity": 96}, {"pitch": 38, "tick": 424800, "length": 60, "velocity": 112}, {"pitch": 42, "tick": 425040, "length": 60, "velocity": 96}, {"pitch": 35, "tick": 425040, "length": 60, "velocity": 112}, {"pitch": 42, "tick": 425520, "length": 60, "velocity": 96}, {"pitch": 35, "tick": 425520, "length": 60, "velocity": 112}, {"pitch": 38, "tick": 425760, "length": 60, "velocity": 112}, {"pitch": 42, "tick": 426000, "length": 60, "velocity": 96}, {"pitch": 35, "tick": 426240, "length": 60, "velocity": 112}, {"pitch": 42, "tick": 426480, "length": 60, "velocity": 96}, {"pitch": 38, "tick": 426720, "length": 60, "velocity": 112}, {"pitch": 42, "tick": 426960, "length": 60, "velocity": 96}, {"pitch": 35, "tick": 426960, "length": 60, "velocity": 112}, {"pitch": 42, "tick": 427440, "length": 60, "velocity": 96}, {"pitch": 35, "tick": 427440, "length": 60, "velocity": 112}, {"pitch": 38, "tick": 427680, "length": 60, "velocity": 112}, {"pitch": 42, "tick": 427920, "length": 60, "velocity": 96}, {"pitch": 35, "tick": 428160, "length": 60, "velocity": 112}, {"pitch": 42, "tick": 428400, "length": 60, "velocity": 96}, {"pitch": 38, "tick": 428640, "length": 60, "velocity": 112}, {"pitch": 42, "tick": 428880, "length": 60, "velocity": 96}, {"pitch": 35, "tick": 428880, "length": 60, "velocity": 112}, {"pitch": 42, "tick": 429360, "length": 60, "velocity": 96}, {"pitch": 35, "tick": 429360, "length": 60, "velocity": 112}, {"pitch": 38, "tick": 429600, "length": 60, "velocity": 112}, {"pitch": 42, "tick": 429840, "length": 60, "velocity": 96}, {"pitch": 35, "tick": 430080, "length": 60, "velocity": 112}, {"pitch": 42, "tick": 430320, "length": 60, "velocity": 96}, {"pitch": 38, "tick": 430560, "length": 60, "velocity": 112}, {"pitch": 42, "tick": 430800, "length": 60, "velocity": 96}, {"pitch": 35, "tick": 430800, "length": 60, "velocity": 112}, {"pitch": 42, "tick": 431280, "length": 60, "velocity": 96}, {"pitch": 35, "tick": 431280, "length": 60, "velocity": 112}, {"pitch": 38, "tick": 431520, "length": 60, "velocity": 112}, {"pitch": 42, "tick": 431760, "length": 60, "velocity": 96}, {"pitch": 35, "tick": 432000, "length": 60, "velocity": 112}, {"pitch": 42, "tick": 432240, "length": 60, "velocity": 96}, {"pitch": 38, "tick": 432480, "length": 60, "velocity": 112}, {"pitch": 42, "tick": 432720, "length": 60, "velocity": 96}, {"pitch": 35, "tick": 432720, "length": 60, "velocity": 112}, {"pitch": 42, "tick": 433200, "length": 60, "velocity": 96}, {"pitch": 35, "tick": 433200, "length": 60, "velocity": 112}, {"pitch": 38, "tick": 433440, "length": 60, "velocity": 112}, {"pitch": 42, "tick": 433680, "length": 60, "velocity": 96}, {"pitch": 35, "tick": 433920, "length": 60, "velocity": 112}, {"pitch": 42, "tick": 434160, "length": 60, "velocity": 96}, {"pitch": 38, "tick": 434400, "length": 60, "velocity": 112}, {"pitch": 42, "tick": 434640, "length": 60, "velocity": 96}, {"pitch": 35, "tick": 434640, "length": 60, "velocity": 112}, {"pitch": 42, "tick": 435120, "length": 60, "velocity": 96}, {"pitch": 35, "tick": 435120, "length": 60, "velocity": 112}, {"pitch": 38, "tick": 435360, "length": 60, "velocity": 112}, {"pitch": 42, "tick": 435600, "length": 60, "velocity": 96}, {"pitch": 35, "tick": 435840, "length": 60, "velocity": 112}, {"pitch": 42, "tick": 436080, "length": 60, "velocity": 96}, {"pitch": 38, "tick": 436320, "length": 60, "velocity": 112}, {"pitch": 42, "tick": 436560, "length": 60, "velocity": 96}, {"pitch": 35, "tick": 436560, "length": 60, "velocity": 112}, {"pitch": 42, "tick": 437040, "length": 60, "velocity": 96}, {"pitch": 35, "tick": 437040, "length": 60, "velocity": 112}, {"pitch": 38, "tick": 437280, "length": 60, "velocity": 112}, {"pitch": 42, "tick": 437520, "length": 60, "velocity": 96}, {"pitch": 35, "tick": 437520, "length": 60, "velocity": 112}, {"pitch": 35, "tick": 437760, "length": 60, "velocity": 112}, {"pitch": 42, "tick": 438000, "length": 60, "velocity": 96}, {"pitch": 35, "tick": 438000, "length": 60, "velocity": 112}, {"pitch": 38, "tick": 438240, "length": 60, "velocity": 112}, {"pitch": 42, "tick": 438480, "length": 60, "velocity": 96}, {"pitch": 35, "tick": 438480, "length": 60, "velocity": 112}, {"pitch": 35, "tick": 438600, "length": 60, "velocity": 112}, {"pitch": 38, "tick": 438720, "length": 60, "velocity": 112}, {"pitch": 42, "tick": 438960, "length": 60, "velocity": 96}, {"pitch": 35, "tick": 438960, "length": 60, "velocity": 112}, {"pitch": 35, "tick": 439080, "length": 60, "velocity": 112}, {"pitch": 38, "tick": 439200, "length": 60, "velocity": 112}, {"pitch": 42, "tick": 439440, "length": 60, "velocity": 96}, {"pitch": 35, "tick": 439680, "length": 60, "velocity": 112}, {"pitch": 42, "tick": 439920, "length": 60, "velocity": 96}, {"pitch": 38, "tick": 440160, "length": 60, "velocity": 112}, {"pitch": 42, "tick": 440400, "length": 60, "velocity": 96}, {"pitch": 35, "tick": 440400, "length": 60, "velocity": 112}, {"pitch": 42, "tick": 440880, "length": 60, "velocity": 96}, {"pitch": 35, "tick": 440880, "length": 60, "velocity": 112}, {"pitch": 38, "tick": 441120, "length": 60, "velocity": 112}, {"pitch": 42, "tick": 441360, "length": 60, "velocity": 96}, {"pitch": 35, "tick": 441600, "length": 60, "velocity": 112}, {"pitch": 42, "tick": 441840, "length": 60, "velocity": 96}, {"pitch": 38, "tick": 442080, "length": 60, "velocity": 112}, {"pitch": 42, "tick": 442320, "length": 60, "velocity": 96}, {"pitch": 35, "tick": 442320, "length": 60, "velocity": 112}, {"pitch": 42, "tick": 442800, "length": 60, "velocity": 96}, {"pitch": 35, "tick": 442800, "length": 60, "velocity": 112}, {"pitch": 38, "tick": 443040, "length": 60, "velocity": 112}, {"pitch": 42, "tick": 443280, "length": 60, "velocity": 96}, {"pitch": 35, "tick": 443520, "length": 60, "velocity": 112}, {"pitch": 42, "tick": 443760, "length": 60, "velocity": 96}, {"pitch": 38, "tick": 444000, "length": 60, "velocity": 112}, {"pitch": 42, "tick": 444240, "length": 60, "velocity": 96}, {"pitch": 35, "tick": 444240, "length": 60, "velocity": 112}, {"pitch": 42, "tick": 444720, "length": 60, "velocity": 96}, {"pitch": 35, "tick": 444720, "length": 60, "velocity": 112}, {"pitch": 38, "tick": 444960, "length": 60, "velocity": 112}, {"pitch": 42, "tick": 445200, "length": 60, "velocity": 96}, {"pitch": 35, "tick": 445440, "length": 60, "velocity": 112}, {"pitch": 42, "tick": 445680, "length": 60, "velocity": 96}, {"pitch": 38, "tick": 445920, "length": 60, "velocity": 112}, {"pitch": 42, "tick": 446160, "length": 60, "velocity": 96}, {"pitch": 35, "tick": 446160, "length": 60, "velocity": 112}, {"pitch": 42, "tick": 446640, "length": 60, "velocity": 96}, {"pitch": 35, "tick": 446640, "length": 60, "velocity": 112}, {"pitch": 38, "tick": 446880, "length": 60, "velocity": 112}, {"pitch": 42, "tick": 447120, "length": 60, "velocity": 96}, {"pitch": 35, "tick": 447360, "length": 60, "velocity": 112}, {"pitch": 42, "tick": 447600, "length": 60, "velocity": 96}, {"pitch": 38, "tick": 447840, "length": 60, "velocity": 112}, {"pitch": 42, "tick": 448080, "length": 60, "velocity": 96}, {"pitch": 35, "tick": 448080, "length": 60, "velocity": 112}, {"pitch": 42, "tick": 448560, "length": 60, "velocity": 96}, {"pitch": 35, "tick": 448560, "length": 60, "velocity": 112}, {"pitch": 38, "tick": 448800, "length": 60, "velocity": 112}, {"pitch": 42, "tick": 449040, "length": 60, "velocity": 96}, {"pitch": 35, "tick": 449280, "length": 60, "velocity": 112}, {"pitch": 42, "tick": 449520, "length": 60, "velocity": 96}, {"pitch": 38, "tick": 449760, "length": 60, "velocity": 112}, {"pitch": 42, "tick": 450000, "length": 60, "velocity": 96}, {"pitch": 35, "tick": 450000, "length": 60, "velocity": 112}, {"pitch": 42, "tick": 450480, "length": 60, "velocity": 96}, {"pitch": 35, "tick": 450480, "length": 60, "velocity": 112}, {"pitch": 38, "tick": 450720, "length": 60, "velocity": 112}, {"pitch": 42, "tick": 450960, "length": 60, "velocity": 96}, {"pitch": 35, "tick": 451200, "length": 60, "velocity": 112}, {"pitch": 42, "tick": 451440, "length": 60, "velocity": 96}, {"pitch": 38, "tick": 451680, "length": 60, "velocity": 112}, {"pitch": 42, "tick": 451920, "length": 60, "velocity": 96}, {"pitch": 35, "tick": 451920, "length": 60, "velocity": 112}, {"pitch": 42, "tick": 452400, "length": 60, "velocity": 96}, {"pitch": 35, "tick": 452400, "length": 60, "velocity": 112}, {"pitch": 38, "tick": 452640, "length": 60, "velocity": 112}, {"pitch": 42, "tick": 452880, "length": 60, "velocity": 96}, {"pitch": 35, "tick": 453120, "length": 60, "velocity": 112}, {"pitch": 42, "tick": 453360, "length": 60, "velocity": 96}, {"pitch": 38, "tick": 453600, "length": 60, "velocity": 112}, {"pitch": 42, "tick": 453840, "length": 60, "velocity": 96}, {"pitch": 35, "tick": 453840, "length": 60, "velocity": 112}, {"pitch": 42, "tick": 454320, "length": 60, "velocity": 96}, {"pitch": 35, "tick": 454320, "length": 60, "velocity": 112}, {"pitch": 38, "tick": 454560, "length": 60, "velocity": 112}, {"pitch": 42, "tick": 454800, "length": 60, "velocity": 96}, {"pitch": 35, "tick": 455040, "length": 60, "velocity": 112}, {"pitch": 42, "tick": 455280, "length": 60, "velocity": 96}, {"pitch": 38, "tick": 455520, "length": 60, "velocity": 112}, {"pitch": 42, "tick": 455760, "length": 60, "velocity": 96}, {"pitch": 35, "tick": 455760, "length": 60, "velocity": 112}, {"pitch": 42, "tick": 456240, "length": 60, "velocity": 96}, {"pitch": 35, "tick": 456240, "length": 60, "velocity": 112}, {"pitch": 38, "tick": 456480, "length": 60, "velocity": 112}, {"pitch": 42, "tick": 456720, "length": 60, "velocity": 96}, {"pitch": 35, "tick": 456960, "length": 60, "velocity": 112}, {"pitch": 42, "tick": 457200, "length": 60, "velocity": 96}, {"pitch": 38, "tick": 457440, "length": 60, "velocity": 112}, {"pitch": 42, "tick": 457680, "length": 60, "velocity": 96}, {"pitch": 35, "tick": 457680, "length": 60, "velocity": 112}, {"pitch": 42, "tick": 458160, "length": 60, "velocity": 96}, {"pitch": 35, "tick": 458160, "length": 60, "velocity": 112}, {"pitch": 38, "tick": 458400, "length": 60, "velocity": 112}, {"pitch": 42, "tick": 458640, "length": 60, "velocity": 96}, {"pitch": 35, "tick": 458880, "length": 60, "velocity": 112}, {"pitch": 42, "tick": 459120, "length": 60, "velocity": 96}, {"pitch": 38, "tick": 459360, "length": 60, "velocity": 112}, {"pitch": 42, "tick": 459600, "length": 60, "velocity": 96}, {"pitch": 35, "tick": 459600, "length": 60, "velocity": 112}, {"pitch": 42, "tick": 460080, "length": 60, "velocity": 96}, {"pitch": 35, "tick": 460080, "length": 60, "velocity": 112}, {"pitch": 38, "tick": 460320, "length": 60, "velocity": 112}, {"pitch": 42, "tick": 460560, "length": 60, "velocity": 96}, {"pitch": 35, "tick": 460800, "length": 60, "velocity": 112}, {"pitch": 42, "tick": 461040, "length": 60, "velocity": 96}, {"pitch": 38, "tick": 461280, "length": 60, "velocity": 112}, {"pitch": 42, "tick": 461520, "length": 60, "velocity": 96}, {"pitch": 35, "tick": 461520, "length": 60, "velocity": 112}, {"pitch": 42, "tick": 462000, "length": 60, "velocity": 96}, {"pitch": 35, "tick": 462000, "length": 60, "velocity": 112}, {"pitch": 38, "tick": 462240, "length": 60, "velocity": 112}, {"pitch": 42, "tick": 462480, "length": 60, "velocity": 96}, {"pitch": 35, "tick": 462720, "length": 60, "velocity": 112}, {"pitch": 42, "tick": 462960, "length": 60, "velocity": 96}, {"pitch": 38, "tick": 463200, "length": 60, "velocity": 112}, {"pitch": 42, "tick": 463440, "length": 60, "velocity": 96}, {"pitch": 35, "tick": 463440, "length": 60, "velocity": 112}, {"pitch": 42, "tick": 463920, "length": 60, "velocity": 96}, {"pitch": 35, "tick": 463920, "length": 60, "velocity": 112}, {"pitch": 38, "tick": 464160, "length": 60, "velocity": 112}, {"pitch": 42, "tick": 464400, "length": 60, "velocity": 96}, {"pitch": 35, "tick": 464640, "length": 60, "velocity": 112}, {"pitch": 42, "tick": 464880, "length": 60, "velocity": 96}, {"pitch": 38, "tick": 465120, "length": 60, "velocity": 112}, {"pitch": 42, "tick": 465360, "length": 60, "velocity": 96}, {"pitch": 35, "tick": 465360, "length": 60, "velocity": 112}, {"pitch": 42, "tick": 465840, "length": 60, "velocity": 96}, {"pitch": 35, "tick": 465840, "length": 60, "velocity": 112}, {"pitch": 38, "tick": 466080, "length": 60, "velocity": 112}, {"pitch": 42, "tick": 466320, "length": 60, "velocity": 96}, {"pitch": 35, "tick": 466560, "length": 60, "velocity": 112}, {"pitch": 42, "tick": 466800, "length": 60, "velocity": 96}, {"pitch": 38, "tick": 467040, "length": 60, "velocity": 112}, {"pitch": 42, "tick": 467280, "length": 60, "velocity": 96}, {"pitch": 35, "tick": 467280, "length": 60, "velocity": 112}, {"pitch": 42, "tick": 467760, "length": 60, "velocity": 96}, {"pitch": 35, "tick": 467760, "length": 60, "velocity": 112}, {"pitch": 38, "tick": 468000, "length": 60, "velocity": 112}, {"pitch": 42, "tick": 468240, "length": 60, "velocity": 96}, {"pitch": 35, "tick": 468240, "length": 60, "velocity": 112}, {"pitch": 35, "tick": 468480, "length": 60, "velocity": 112}, {"pitch": 42, "tick": 468720, "length": 60, "velocity": 96}, {"pitch": 35, "tick": 468720, "length": 60, "velocity": 112}, {"pitch": 38, "tick": 468960, "length": 60, "velocity": 112}, {"pitch": 42, "tick": 469200, "length": 60, "velocity": 96}, {"pitch": 35, "tick": 469200, "length": 60, "velocity": 112}, {"pitch": 35, "tick": 469320, "length": 60, "velocity": 112}, {"pitch": 38, "tick": 469440, "length": 60, "velocity": 112}, {"pitch": 42, "tick": 469680, "length": 60, "velocity": 96}, {"pitch": 35, "tick": 469680, "length": 60, "velocity": 112}, {"pitch": 35, "tick": 469800, "length": 60, "velocity": 112}, {"pitch": 38, "tick": 469920, "length": 60, "velocity": 112}, {"pitch": 42, "tick": 470160, "length": 60, "velocity": 96}, {"pitch": 35, "tick": 470400, "length": 60, "velocity": 112}, {"pitch": 42, "tick": 470640, "length": 60, "velocity": 96}, {"pitch": 38, "tick": 470880, "length": 60, "velocity": 112}, {"pitch": 42, "tick": 471120, "length": 60, "velocity": 96}, {"pitch": 35, "tick": 471120, "length": 60, "velocity": 112}, {"pitch": 42, "tick": 471600, "length": 60, "velocity": 96}, {"pitch": 35, "tick": 471600, "length": 60, "velocity": 112}, {"pitch": 38, "tick": 471840, "length": 60, "velocity": 112}, {"pitch": 42, "tick": 472080, "length": 60, "velocity": 96}, {"pitch": 35, "tick": 472320, "length": 60, "velocity": 112}, {"pitch": 42, "tick": 472560, "length": 60, "velocity": 96}, {"pitch": 38, "tick": 472800, "length": 60, "velocity": 112}, {"pitch": 42, "tick": 473040, "length": 60, "velocity": 96}, {"pitch": 35, "tick": 473040, "length": 60, "velocity": 112}, {"pitch": 42, "tick": 473520, "length": 60, "velocity": 96}, {"pitch": 35, "tick": 473520, "length": 60, "velocity": 112}, {"pitch": 38, "tick": 473760, "length": 60, "velocity": 112}, {"pitch": 42, "tick": 474000, "length": 60, "velocity": 96}, {"pitch": 35, "tick": 474240, "length": 60, "velocity": 112}, {"pitch": 42, "tick": 474480, "length": 60, "velocity": 96}, {"pitch": 38, "tick": 474720, "length": 60, "velocity": 112}, {"pitch": 42, "tick": 474960, "length": 60, "velocity": 96}, {"pitch": 35, "tick": 474960, "length": 60, "velocity": 112}, {"pitch": 42, "tick": 475440, "length": 60, "velocity": 96}, {"pitch": 35, "tick": 475440, "length": 60, "velocity": 112}, {"pitch": 38, "tick": 475680, "length": 60, "velocity": 112}, {"pitch": 42, "tick": 475920, "length": 60, "velocity": 96}, {"pitch": 35, "tick": 476160, "length": 60, "velocity": 112}, {"pitch": 42, "tick": 476400, "length": 60, "velocity": 96}, {"pitch": 38, "tick": 476640, "length": 60, "velocity": 112}, {"pitch": 42, "tick": 476880, "length": 60, "velocity": 96}, {"pitch": 35, "tick": 476880, "length": 60, "velocity": 112}, {"pitch": 42, "tick": 477360, "length": 60, "velocity": 96}, {"pitch": 35, "tick": 477360, "length": 60, "velocity": 112}, {"pitch": 38, "tick": 477600, "length": 60, "velocity": 112}, {"pitch": 42, "tick": 477840, "length": 60, "velocity": 96}, {"pitch": 35, "tick": 478080, "length": 60, "velocity": 112}, {"pitch": 42, "tick": 478320, "length": 60, "velocity": 96}, {"pitch": 38, "tick": 478560, "length": 60, "velocity": 112}, {"pitch": 42, "tick": 478800, "length": 60, "velocity": 96}, {"pitch": 35, "tick": 478800, "length": 60, "velocity": 112}, {"pitch": 42, "tick": 479280, "length": 60, "velocity": 96}, {"pitch": 35, "tick": 479280, "length": 60, "velocity": 112}, {"pitch": 38, "tick": 479520, "length": 60, "velocity": 112}, {"pitch": 42, "tick": 479760, "length": 60, "velocity": 96}, {"pitch": 35, "tick": 480000, "length": 60, "velocity": 112}, {"pitch": 42, "tick": 480240, "length": 60, "velocity": 96}, {"pitch": 38, "tick": 480480, "length": 60, "velocity": 112}, {"pitch": 42, "tick": 480720, "length": 60, "velocity": 96}, {"pitch": 35, "tick": 480720, "length": 60, "velocity": 112}, {"pitch": 42, "tick": 481200, "length": 60, "velocity": 96}, {"pitch": 35, "tick": 481200, "length": 60, "velocity": 112}, {"pitch": 38, "tick": 481440, "length": 60, "velocity": 112}, {"pitch": 42, "tick": 481680, "length": 60, "velocity": 96}, {"pitch": 35, "tick": 481920, "length": 60, "velocity": 112}, {"pitch": 42, "tick": 482160, "length": 60, "velocity": 96}, {"pitch": 38, "tick": 482400, "length": 60, "velocity": 112}, {"pitch": 42, "tick": 482640, "length": 60, "velocity": 96}, {"pitch": 35, "tick": 482640, "length": 60, "velocity": 112}, {"pitch": 42, "tick": 483120, "length": 60, "velocity": 96}, {"pitch": 35, "tick": 483120, "length": 60, "velocity": 112}, {"pitch": 38, "tick": 483360, "length": 60, "velocity": 112}, {"pitch": 42, "tick": 483600, "length": 60, "velocity": 96}, {"pitch": 35, "tick": 483840, "length": 60, "velocity": 112}, {"pitch": 42, "tick": 484080, "length": 60, "velocity": 96}, {"pitch": 38, "tick": 484320, "length": 60, "velocity": 112}, {"pitch": 42, "tick": 484560, "length": 60, "velocity": 96}, {"pitch": 35, "tick": 484560, "length": 60, "velocity": 112}, {"pitch": 42, "tick": 485040, "length": 60, "velocity": 96}, {"pitch": 35, "tick": 485040, "length": 60, "velocity": 112}, {"pitch": 38, "tick": 485280, "length": 60, "velocity": 112}, {"pitch": 42, "tick": 485520, "length": 60, "velocity": 96}, {"pitch": 35, "tick": 485760, "length": 60, "velocity": 112}, {"pitch": 42, "tick": 486000, "length": 60, "velocity": 96}, {"pitch": 38, "tick": 486240, "length": 60, "velocity": 112}, {"pitch": 42, "tick": 486480, "length": 60, "velocity": 96}, {"pitch": 35, "tick": 486480, "length": 60, "velocity": 112}, {"pitch": 42, "tick": 486960, "length": 60, "velocity": 96}, {"pitch": 35, "tick": 486960, "length": 60, "velocity": 112}, {"pitch": 38, "tick": 487200, "length": 60, "velocity": 112}, {"pitch": 42, "tick": 487440, "length": 60, "velocity": 96}, {"pitch": 35, "tick": 487680, "length": 60, "velocity": 112}, {"pitch": 42, "tick": 487920, "length": 60, "velocity": 96}, {"pitch": 38, "tick": 488160, "length": 60, "velocity": 112}, {"pitch": 42, "tick": 488400, "length": 60, "velocity": 96}, {"pitch": 35, "tick": 488400, "length": 60, "velocity": 112}, {"pitch": 42, "tick": 488880, "length": 60, "velocity": 96}, {"pitch": 35, "tick": 488880, "length": 60, "velocity": 112}, {"pitch": 38, "tick": 489120, "length": 60, "velocity": 112}, {"pitch": 42, "tick": 489360, "length": 60, "velocity": 96}, {"pitch": 35, "tick": 489600, "length": 60, "velocity": 112}, {"pitch": 42, "tick": 489840, "length": 60, "velocity": 96}, {"pitch": 38, "tick": 490080, "length": 60, "velocity": 112}, {"pitch": 42, "tick": 490320, "length": 60, "velocity": 96}, {"pitch": 35, "tick": 490320, "length": 60, "velocity": 112}, {"pitch": 42, "tick": 490800, "length": 60, "velocity": 96}, {"pitch": 35, "tick": 490800, "length": 60, "velocity": 112}, {"pitch": 38, "tick": 491040, "length": 60, "velocity": 112}, {"pitch": 42, "tick": 491280, "length": 60, "velocity": 96}, {"pitch": 35, "tick": 491520, "length": 60, "velocity": 112}, {"pitch": 42, "tick": 491760, "length": 60, "velocity": 96}, {"pitch": 38, "tick": 492000, "length": 60, "velocity": 112}, {"pitch": 42, "tick": 492240, "length": 60, "velocity": 96}, {"pitch": 35, "tick": 492240, "length": 60, "velocity": 112}, {"pitch": 42, "tick": 492720, "length": 60, "velocity": 96}, {"pitch": 35, "tick": 492720, "length": 60, "velocity": 112}, {"pitch": 38, "tick": 492960, "length": 60, "velocity": 112}, {"pitch": 42, "tick": 493200, "length": 60, "velocity": 96}, {"pitch": 35, "tick": 493440, "length": 60, "velocity": 112}, {"pitch": 42, "tick": 493680, "length": 60, "velocity": 96}, {"pitch": 38, "tick": 493920, "length": 60, "velocity": 112}, {"pitch": 42, "tick": 494160, "length": 60, "velocity": 96}, {"pitch": 35, "tick": 494160, "length": 60, "velocity": 112}, {"pitch": 42, "tick": 494640, "length": 60, "velocity": 96}, {"pitch": 35, "tick": 494640, "length": 60, "velocity": 112}, {"pitch": 38, "tick": 494880, "length": 60, "velocity": 112}, {"pitch": 42, "tick": 495120, "length": 60, "velocity": 96}, {"pitch": 35, "tick": 495360, "length": 60, "velocity": 112}, {"pitch": 42, "tick": 495600, "length": 60, "velocity": 96}, {"pitch": 38, "tick": 495840, "length": 60, "velocity": 112}, {"pitch": 42, "tick": 496080, "length": 60, "velocity": 96}, {"pitch": 35, "tick": 496080, "length": 60, "velocity": 112}, {"pitch": 42, "tick": 496560, "length": 60, "velocity": 96}, {"pitch": 35, "tick": 496560, "length": 60, "velocity": 112}, {"pitch": 38, "tick": 496800, "length": 60, "velocity": 112}, {"pitch": 42, "tick": 497040, "length": 60, "velocity": 96}, {"pitch": 35, "tick": 497280, "length": 60, "velocity": 112}, {"pitch": 42, "tick": 497520, "length": 60, "velocity": 96}, {"pitch": 38, "tick": 497760, "length": 60, "velocity": 112}, {"pitch": 42, "tick": 498000, "length": 60, "velocity": 96}, {"pitch": 35, "tick": 498000, "length": 60, "velocity": 112}, {"pitch": 42, "tick": 498480, "length": 60, "velocity": 96}, {"pitch": 35, "tick": 498480, "length": 60, "velocity": 112}, {"pitch": 38, "tick": 498720, "length": 60, "velocity": 112}, {"pitch": 42, "tick": 498960, "length": 60, "velocity": 96}, {"pitch": 35, "tick": 498960, "length": 60, "velocity": 112}, {"pitch": 35, "tick": 499200, "length": 60, "velocity": 112}, {"pitch": 42, "tick": 499440, "length": 60, "velocity": 96}, {"pitch": 35, "tick": 499440, "length": 60, "velocity": 112}, {"pitch": 38, "tick": 499680, "length": 60, "velocity": 112}, {"pitch": 42, "tick": 499920, "length": 60, "velocity": 96}, {"pitch": 35, "tick": 499920, "length": 60, "velocity": 112}, {"pitch": 35, "tick": 500040, "length": 60, "velocity": 112}, {"pitch": 38, "tick": 500160, "length": 60, "velocity": 112}, {"pitch": 42, "tick": 500400, "length": 60, "velocity": 96}, {"pitch": 35, "tick": 500400, "length": 60, "velocity": 112}, {"pitch": 35, "tick": 500520, "length": 60, "velocity": 112}, {"pitch": 38, "tick": 500640, "length": 60, "velocity": 112}, {"pitch": 42, "tick": 500880, "length": 60, "velocity": 96}, {"pitch": 35, "tick": 501120, "length": 60, "velocity": 112}, {"pitch": 42, "tick": 501360, "length": 60, "velocity": 96}, {"pitch": 38, "tick": 501600, "length": 60, "velocity": 112}, {"pitch": 42, "tick": 501840, "length": 60, "velocity": 96}, {"pitch": 35, "tick": 501840, "length": 60, "velocity": 112}, {"pitch": 42, "tick": 502320, "length": 60, "velocity": 96}, {"pitch": 35, "tick": 502320, "length": 60, "velocity": 112}, {"pitch": 38, "tick": 502560, "length": 60, "velocity": 112}, {"pitch": 42, "tick": 502800, "length": 60, "velocity": 96}, {"pitch": 35, "tick": 503040, "length": 60, "velocity": 112}, {"pitch": 42, "tick": 503280, "length": 60, "velocity": 96}, {"pitch": 38, "tick": 503520, "length": 60, "velocity": 112}, {"pitch": 42, "tick": 503760, "length": 60, "velocity": 96}, {"pitch": 35, "tick": 503760, "length": 60, "velocity": 112}, {"pitch": 42, "tick": 504240, "length": 60, "velocity": 96}, {"pitch": 35, "tick": 504240, "length": 60, "velocity": 112}, {"pitch": 38, "tick": 504480, "length": 60, "velocity": 112}, {"pitch": 42, "tick": 504720, "length": 60, "velocity": 96}, {"pitch": 35, "tick": 504960, "length": 60, "velocity": 112}, {"pitch": 42, "tick": 505200, "length": 60, "velocity": 96}, {"pitch": 38, "tick": 505440, "length": 60, "velocity": 112}, {"pitch": 42, "tick": 505680, "length": 60, "velocity": 96}, {"pitch": 35, "tick": 505680, "length": 60, "velocity": 112}, {"pitch": 42, "tick": 506160, "length": 60, "velocity": 96}, {"pitch": 35, "tick": 506160, "length": 60, "velocity": 112}, {"pitch": 38, "tick": 506400, "length": 60, "velocity": 112}, {"pitch": 42, "tick": 506640, "length": 60, "velocity": 96}, {"pitch": 35, "tick": 506880, "length": 60, "velocity": 112}, {"pitch": 42, "tick": 507120, "length": 60, "velocity": 96}, {"pitch": 38, "tick": 507360, "length": 60, "velocity": 112}, {"pitch": 42, "tick": 507600, "length": 60, "velocity": 96}, {"pitch": 35, "tick": 507600, "length": 60, "velocity": 112}, {"pitch": 42, "tick": 508080, "length": 60, "velocity": 96}, {"pitch": 35, "tick": 508080, "length": 60, "velocity": 112}, {"pitch": 38, "tick": 508320, "length": 60, "velocity": 112}, {"pitch": 42, "tick": 508560, "length": 60, "velocity": 96}, {"pitch": 35, "tick": 508800, "length": 60, "velocity": 112}, {"pitch": 42, "tick": 509040, "length": 60, "velocity": 96}, {"pitch": 38, "tick": 509280, "length": 60, "velocity": 112}, {"pitch": 42, "tick": 509520, "length": 60, "velocity": 96}, {"pitch": 35, "tick": 509520, "length": 60, "velocity": 112}, {"pitch": 42, "tick": 510000, "length": 60, "velocity": 96}, {"pitch": 35, "tick": 510000, "length": 60, "velocity": 112}, {"pitch": 38, "tick": 510240, "length": 60, "velocity": 112}, {"pitch": 42, "tick": 510480, "length": 60, "velocity": 96}, {"pitch": 35, "tick": 510720, "length": 60, "velocity": 112}, {"pitch": 42, "tick": 510960, "length": 60, "velocity": 96}, {"pitch": 38, "tick": 511200, "length": 60, "velocity": 112}, {"pitch": 42, "tick": 511440, "length": 60, "velocity": 96}, {"pitch": 35, "tick": 511440, "length": 60, "velocity": 112}, {"pitch": 42, "tick": 511920, "length": 60, "velocity": 96}, {"pitch": 35, "tick": 511920, "length": 60, "velocity": 112}, {"pitch": 38, "tick": 512160, "length": 60, "velocity": 112}, {"pitch": 42, "tick": 512400, "length": 60, "velocity": 96}, {"pitch": 35, "tick": 512640, "length": 60, "velocity": 112}, {"pitch": 42, "tick": 512880, "length": 60, "velocity": 96}, {"pitch": 38, "tick": 513120, "length": 60, "velocity": 112}, {"pitch": 42, "tick": 513360, "length": 60, "velocity": 96}, {"pitch": 35, "tick": 513360, "length": 60, "velocity": 112}, {"pitch": 42, "tick": 513840, "length": 60, "velocity": 96}, {"pitch": 35, "tick": 513840, "length": 60, "velocity": 112}, {"pitch": 38, "tick": 514080, "length": 60, "velocity": 112}, {"pitch": 42, "tick": 514320, "length": 60, "velocity": 96}, {"pitch": 35, "tick": 514560, "length": 60, "velocity": 112}, {"pitch": 42, "tick": 514800, "length": 60, "velocity": 96}, {"pitch": 38, "tick": 515040, "length": 60, "velocity": 112}, {"pitch": 42, "tick": 515280, "length": 60, "velocity": 96}, {"pitch": 35, "tick": 515280, "length": 60, "velocity": 112}, {"pitch": 42, "tick": 515760, "length": 60, "velocity": 96}, {"pitch": 35, "tick": 515760, "length": 60, "velocity": 112}, {"pitch": 38, "tick": 516000, "length": 60, "velocity": 112}, {"pitch": 42, "tick": 516240, "length": 60, "velocity": 96}, {"pitch": 35, "tick": 516480, "length": 60, "velocity": 112}, {"pitch": 42, "tick": 516720, "length": 60, "velocity": 96}, {"pitch": 38, "tick": 516960, "length": 60, "velocity": 112}, {"pitch": 42, "tick": 517200, "length": 60, "velocity": 96}, {"pitch": 35, "tick": 517200, "length": 60, "velocity": 112}, {"pitch": 42, "tick": 517680, "length": 60, "velocity": 96}, {"pitch": 35, "tick": 517680, "length": 60, "velocity": 112}, {"pitch": 38, "tick": 517920, "length": 60, "velocity": 112}, {"pitch": 42, "tick": 518160, "length": 60, "velocity": 96}, {"pitch": 35, "tick": 518400, "length": 60, "velocity": 112}, {"pitch": 42, "tick": 518640, "length": 60, "velocity": 96}, {"pitch": 38, "tick": 518880, "length": 60, "velocity": 112}, {"pitch": 42, "tick": 519120, "length": 60, "velocity": 96}, {"pitch": 35, "tick": 519120, "length": 60, "velocity": 112}, {"pitch": 42, "tick": 519600, "length": 60, "velocity": 96}, {"pitch": 35, "tick": 519600, "length": 60, "velocity": 112}, {"pitch": 38, "tick": 519840, "length": 60, "velocity": 112}, {"pitch": 42, "tick": 520080, "length": 60, "velocity": 96}, {"pitch": 35, "tick": 520320, "length": 60, "velocity": 112}, {"pitch": 42, "tick": 520560, "length": 60, "velocity": 96}, {"pitch": 38, "tick": 520800, "length": 60, "velocity": 112}, {"pitch": 42, "tick": 521040, "length": 60, "velocity": 96}, {"pitch": 35, "tick": 521040, "length": 60, "velocity": 112}, {"pitch": 42, "tick": 521520, "length": 60, "velocity": 96}, {"pitch": 35, "tick": 521520, "length": 60, "velocity": 112}, {"pitch": 38, "tick": 521760, "length": 60, "velocity": 112}, {"pitch": 42, "tick": 522000, "length": 60, "velocity": 96}, {"pitch": 35, "tick": 522240, "length": 60, "velocity": 112}, {"pitch": 42, "tick": 522480, "length": 60, "velocity": 96}, {"pitch": 38, "tick": 522720, "length": 60, "velocity": 112}, {"pitch": 42, "tick": 522960, "length": 60, "velocity": 96}, {"pitch": 35, "tick": 522960, "length": 60, "velocity": 112}, {"pitch": 42, "tick": 523440, "length": 60, "velocity": 96}, {"pitch": 35, "tick": 523440, "length": 60, "velocity": 112}, {"pitch": 38, "tick": 523680, "length": 60, "velocity": 112}, {"pitch": 42, "tick": 523920, "length": 60, "velocity": 96}, {"pitch": 35, "tick": 524160, "length": 60, "velocity": 112}, {"pitch": 42, "tick": 524400, "length": 60, "velocity": 96}, {"pitch": 38, "tick": 524640, "length": 60, "velocity": 112}, {"pitch": 42, "tick": 524880, "length": 60, "velocity": 96}, {"pitch": 35, "tick": 524880, "length": 60, "velocity": 112}, {"pitch": 42, "tick": 525360, "length": 60, "velocity": 96}, {"pitch": 35, "tick": 525360, "length": 60, "velocity": 112}, {"pitch": 38, "tick": 525600, "length": 60, "velocity": 112}, {"pitch": 42, "tick": 525840, "length": 60, "velocity": 96}, {"pitch": 35, "tick": 526080, "length": 60, "velocity": 112}, {"pitch": 42, "tick": 526320, "length": 60, "velocity": 96}, {"pitch": 38, "tick": 526560, "length": 60, "velocity": 112}, {"pitch": 42, "tick": 526800, "length": 60, "velocity": 96}, {"pitch": 35, "tick": 526800, "length": 60, "velocity": 112}, {"pitch": 42, "tick": 527280, "length": 60, "velocity": 96}, {"pitch": 35, "tick": 527280, "length": 60, "velocity": 112}, {"pitch": 38, "tick": 527520, "length": 60, "velocity": 112}, {"pitch": 42, "tick": 527760, "length": 60, "velocity": 96}, {"pitch": 35, "tick": 528000, "length": 60, "velocity": 112}, {"pitch": 42, "tick": 528240, "length": 60, "velocity": 96}, {"pitch": 38, "tick": 528480, "length": 60, "velocity": 112}, {"pitch": 42, "tick": 528720, "length": 60, "velocity": 96}, {"pitch": 35, "tick": 528720, "length": 60, "velocity": 112}, {"pitch": 42, "tick": 529200, "length": 60, "velocity": 96}, {"pitch": 35, "tick": 529200, "length": 60, "velocity": 112}, {"pitch": 38, "tick": 529440, "length": 60, "velocity": 112}, {"pitch": 42, "tick": 529680, "length": 60, "velocity": 96}, {"pitch": 35, "tick": 529680, "length": 60, "velocity": 112}, {"pitch": 35, "tick": 529920, "length": 60, "velocity": 112}, {"pitch": 42, "tick": 530160, "length": 60, "velocity": 96}, {"pitch": 35, "tick": 530160, "length": 60, "velocity": 112}, {"pitch": 38, "tick": 530400, "length": 60, "velocity": 112}, {"pitch": 42, "tick": 530640, "length": 60, "velocity": 96}, {"pitch": 35, "tick": 530640, "length": 60, "velocity": 112}, {"pitch": 35, "tick": 530760, "length": 60, "velocity": 112}, {"pitch": 38, "tick": 530880, "length": 60, "velocity": 112}, {"pitch": 42, "tick": 531120, "length": 60, "velocity": 96}, {"pitch": 35, "tick": 531120, "length": 60, "velocity": 112}, {"pitch": 35, "tick": 531240, "length": 60, "velocity": 112}, {"pitch": 38, "tick": 531360, "length": 60, "velocity": 112}]}, {"channel": 10, "length": 350400, "track_name": "\u0083V\u0083\u0093\u0083o\u0083\u008b", "events": [{"type": "track_name", "name": "\u0083V\u0083\u0093\u0083o\u0083\u008b", "tick": 0}, {"type": "midi_port", "port": 0, "tick": 0}, {"type": "control_change", "control": 0, "value": 120, "channel": 10, "tick": 480}, {"type": "control_change", "control": 32, "value": 0, "channel": 10, "tick": 480}, {"type": "program_change", "program": 24, "channel": 10, "tick": 480}, {"type": "sysex", "data": [65, 16, 0, 72, 18, 16, 0, 42, 63, 0, 7], "tick": 540}, {"type": "control_change", "control": 7, "value": 72, "channel": 10, "tick": 600}, {"type": "control_change", "control": 10, "value": 64, "channel": 10, "tick": 660}, {"type": "control_change", "control": 91, "value": 32, "channel": 10, "tick": 720}, {"type": "control_change", "control": 93, "value": 0, "channel": 10, "tick": 780}, {"type": "control_change", "control": 74, "value": 64, "channel": 10, "tick": 840}, {"type": "control_change", "control": 71, "value": 64, "channel": 10, "tick": 900}, {"type": "control_change", "control": 73, "value": 64, "channel": 10, "tick": 960}, {"type": "control_change", "control": 75, "value": 64, "channel": 10, "tick": 1020}, {"type": "control_change", "control": 72, "value": 64, "channel": 10, "tick": 1080}, {"type": "control_change", "control": 101, "value": 0, "channel": 10, "tick": 1140}, {"type": "control_change", "control": 100, "value": 0, "channel": 10, "tick": 1140}, {"type": "control_change", "control": 6, "value": 12, "channel": 10, "tick": 1140}, {"type": "control_change", "control": 38, "value": 0, "channel": 10, "tick": 1140}, {"type": "pitchwheel", "channel": 10, "pitch": 0, "tick": 1200}, {"type": "control_change", "control": 1, "value": 0, "channel": 10, "tick": 1260}, {"type": "control_change", "control": 11, "value": 127, "channel": 10, "tick": 1320}, {"type": "control_change", "control": 101, "value": 127, "channel": 10, "tick": 1380}, {"type": "control_change", "control": 100, "value": 127, "channel": 10, "tick": 1380}, {"type": "control_change", "control": 6, "value": 0, "channel": 10, "tick": 1380}, {"type": "control_change", "control": 38, "value": 0, "channel": 10, "tick": 1380}, {"type": "control_change", "control": 0, "value": 0, "channel": 10, "tick": 1440}, {"type": "sysex", "data": [127, 127, 10, 1, 10, 49, 10, 64], "tick": 1500}, {"type": "sysex", "data": [127, 127, 10, 1, 10, 52, 10, 64], "tick": 1560}, {"type": "sysex", "data": [127, 127, 10, 1, 10, 52, 91, 127], "tick": 1620}, {"type": "sysex", "data": [127, 127, 10, 1, 10, 49, 91, 0], "tick": 1680}, {"type": "control_change", "control": 11, "value": 0, "channel": 10, "tick": 250080}, {"type": "control_change", "control": 11, "value": 0, "channel": 10, "tick": 251400}, {"type": "control_change", "control": 11, "value": 8, "channel": 10, "tick": 251430}, {"type": "control_change", "control": 11, "value": 16, "channel": 10, "tick": 251460}, {"type": "control_change", "control": 11, "value": 24, "channel": 10, "tick": 251490}, {"type": "control_change", "control": 11, "value": 32, "channel": 10, "tick": 251520}, {"type": "control_change", "control": 11, "value": 40, "channel": 10, "tick": 251550}, {"type": "control_change", "control": 11, "value": 48, "channel": 10, "tick": 251580}, {"type": "control_change", "control": 11, "value": 56, "channel": 10, "tick": 251610}, {"type": "control_change", "control": 11, "value": 64, "channel": 10, "tick": 251640}, {"type": "control_change", "control": 11, "value": 72, "channel": 10, "tick": 251670}, {"type": "control_change", "control": 11, "value": 80, "channel": 10, "tick": 251700}, {"type": "control_change", "control": 11, "value": 88, "channel": 10, "tick": 251730}, {"type": "control_change", "control": 11, "value": 96, "channel": 10, "tick": 251760}, {"type": "control_change", "control": 11, "value": 99, "channel": 10, "tick": 251820}, {"type": "control_change", "control": 11, "value": 101, "channel": 10, "tick": 251880}, {"type": "control_change", "control": 11, "value": 104, "channel": 10, "tick": 251940}, {"type": "control_change", "control": 11, "value": 106, "channel": 10, "tick": 252000}, {"type": "control_change", "control": 11, "value": 109, "channel": 10, "tick": 252060}, {"type": "control_change", "control": 11, "value": 112, "channel": 10, "tick": 252120}, {"type": "control_change", "control": 11, "value": 114, "channel": 10, "tick": 252180}, {"type": "control_change", "control": 11, "value": 117, "channel": 10, "tick": 252240}, {"type": "control_change", "control": 11, "value": 119, "channel": 10, "tick": 252300}, {"type": "control_change", "control": 11, "value": 122, "channel": 10, "tick": 252360}, {"type": "control_change", "control": 11, "value": 124, "channel": 10, "tick": 252420}, {"type": "control_change", "control": 11, "value": 127, "channel": 10, "tick": 252480}, {"type": "control_change", "control": 11, "value": 0, "channel": 10, "tick": 252960}, {"type": "control_change", "control": 11, "value": 127, "channel": 10, "tick": 255360}, {"type": "control_change", "control": 7, "value": 88, "channel": 10, "tick": 276960}, {"type": "control_change", "control": 7, "value": 127, "channel": 10, "tick": 344160}, {"type": "control_change", "control": 11, "value": 0, "channel": 10, "tick": 344400}, {"type": "control_change", "control": 11, "value": 0, "channel": 10, "tick": 345600}, {"type": "control_change", "control": 11, "value": 12, "channel": 10, "tick": 345630}, {"type": "control_change", "control": 11, "value": 24, "channel": 10, "tick": 345660}, {"type": "control_change", "control": 11, "value": 36, "channel": 10, "tick": 345690}, {"type": "control_change", "control": 11, "value": 48, "channel": 10, "tick": 345720}, {"type": "control_change", "control": 11, "value": 60, "channel": 10, "tick": 345750}, {"type": "control_change", "control": 11, "value": 72, "channel": 10, "tick": 345780}, {"type": "control_change", "control": 11, "value": 84, "channel": 10, "tick": 345810}, {"type": "control_change", "control": 11, "value": 96, "channel": 10, "tick": 345840}, {"type": "control_change", "control": 11, "value": 98, "channel": 10, "tick": 345960}, {"type": "control_change", "control": 11, "value": 100, "channel": 10, "tick": 346080}, {"type": "control_change", "control": 11, "value": 103, "channel": 10, "tick": 346200}, {"type": "control_change", "control": 11, "value": 105, "channel": 10, "tick": 346320}, {"type": "control_change", "control": 11, "value": 107, "channel": 10, "tick": 346440}, {"type": "control_change", "control": 11, "value": 109, "channel": 10, "tick": 346560}, {"type": "control_change", "control": 11, "value": 112, "channel": 10, "tick": 346680}, {"type": "control_change", "control": 11, "value": 114, "channel": 10, "tick": 346800}, {"type": "control_change", "control": 11, "value": 116, "channel": 10, "tick": 346920}, {"type": "control_change", "control": 11, "value": 118, "channel": 10, "tick": 347040}, {"type": "control_change", "control": 11, "value": 120, "channel": 10, "tick": 347160}, {"type": "control_change", "control": 11, "value": 123, "channel": 10, "tick": 347280}, {"type": "control_change", "control": 11, "value": 125, "channel": 10, "tick": 347400}, {"type": "control_change", "control": 7, "value": 96, "channel": 10, "tick": 347520}, {"type": "control_change", "control": 11, "value": 127, "channel": 10, "tick": 347520}, {"type": "end_of_track", "tick": 350400}], "notes": [{"pitch": 52, "tick": 250080, "length": 2880, "velocity": 96}, {"pitch": 49, "tick": 278400, "length": 60, "velocity": 112}, {"pitch": 49, "tick": 279360, "length": 60, "velocity": 80}, {"pitch": 49, "tick": 280320, "length": 60, "velocity": 112}, {"pitch": 49, "tick": 281280, "length": 60, "velocity": 80}, {"pitch": 49, "tick": 282240, "length": 60, "velocity": 112}, {"pitch": 49, "tick": 282720, "length": 60, "velocity": 80}, {"pitch": 49, "tick": 283200, "length": 60, "velocity": 112}, {"pitch": 49, "tick": 283680, "length": 60, "velocity": 80}, {"pitch": 49, "tick": 284160, "length": 60, "velocity": 112}, {"pitch": 49, "tick": 284640, "length": 60, "velocity": 112}, {"pitch": 49, "tick": 285120, "length": 60, "velocity": 112}, {"pitch": 49, "tick": 285360, "length": 60, "velocity": 112}, {"pitch": 49, "tick": 285600, "length": 60, "velocity": 112}, {"pitch": 49, "tick": 285720, "length": 60, "velocity": 112}, {"pitch": 49, "tick": 285840, "length": 60, "velocity": 112}, {"pitch": 49, "tick": 285960, "length": 60, "velocity": 112}, {"pitch": 49, "tick": 286080, "length": 60, "velocity": 112}, {"pitch": 52, "tick": 344490, "length": 3030, "velocity": 127}, {"pitch": 49, "tick": 347520, "length": 2880, "velocity": 112}]}, {"channel": 11, "length": 409200, "track_name": "\u0082\u00b5\u0082\u00ce\u0082\u00dc\u0081u\u0082\u00bd!\u0081v", "events": [{"type": "track_name", "name": "\u0082\u00b5\u0082\u00ce\u0082\u00dc\u0081u\u0082\u00bd!\u0081v", "tick": 0}, {"type": "midi_port", "port": 0, "tick": 0}, {"type": "control_change", "control": 0, "value": 121, "channel": 11, "tick": 480}, {"type": "control_change", "control": 32, "value": 0, "channel": 11, "tick": 480}, {"type": "program_change", "program": 106, "channel": 11, "tick": 480}, {"type": "sysex", "data": [65, 16, 0, 72, 18, 16, 0, 43, 63, 0, 6], "tick": 540}, {"type": "control_change", "control": 7, "value": 96, "channel": 11, "tick": 600}, {"type": "control_change", "control": 10, "value": 64, "channel": 11, "tick": 660}, {"type": "control_change", "control": 91, "value": 0, "channel": 11, "tick": 720}, {"type": "control_change", "control": 93, "value": 0, "channel": 11, "tick": 780}, {"type": "control_change", "control": 74, "value": 64, "channel": 11, "tick": 840}, {"type": "control_change", "control": 71, "value": 64, "channel": 11, "tick": 900}, {"type": "control_change", "control": 73, "value": 64, "channel": 11, "tick": 960}, {"type": "control_change", "control": 75, "value": 52, "channel": 11, "tick": 1020}, {"type": "control_change", "control": 72, "value": 44, "channel": 11, "tick": 1080}, {"type": "control_change", "control": 101, "value": 0, "channel": 11, "tick": 1140}, {"type": "control_change", "control": 100, "value": 0, "channel": 11, "tick": 1140}, {"type": "control_change", "control": 6, "value": 12, "channel": 11, "tick": 1140}, {"type": "control_change", "control": 38, "value": 0, "channel": 11, "tick": 1140}, {"type": "pitchwheel", "channel": 11, "pitch": 0, "tick": 1200}, {"type": "control_change", "control": 1, "value": 0, "channel": 11, "tick": 1260}, {"type": "control_change", "control": 11, "value": 127, "channel": 11, "tick": 1320}, {"type": "control_change", "control": 101, "value": 127, "channel": 11, "tick": 1380}, {"type": "control_change", "control": 100, "value": 127, "channel": 11, "tick": 1380}, {"type": "control_change", "control": 6, "value": 0, "channel": 11, "tick": 1380}, {"type": "control_change", "control": 38, "value": 0, "channel": 11, "tick": 1380}, {"type": "control_change", "control": 0, "value": 121, "channel": 11, "tick": 94320}, {"type": "control_change", "control": 32, "value": 0, "channel": 11, "tick": 94320}, {"type": "program_change", "program": 105, "channel": 11, "tick": 94320}, {"type": "control_change", "control": 75, "value": 44, "channel": 11, "tick": 94320}, {"type": "control_change", "control": 10, "value": 32, "channel": 11, "tick": 94320}, {"type": "control_change", "control": 72, "value": 51, "channel": 11, "tick": 94320}, {"type": "control_change", "control": 10, "value": 96, "channel": 11, "tick": 94800}, {"type": "control_change", "control": 10, "value": 32, "channel": 11, "tick": 95280}, {"type": "control_change", "control": 10, "value": 96, "channel": 11, "tick": 95760}, {"type": "control_change", "control": 10, "value": 32, "channel": 11, "tick": 96240}, {"type": "control_change", "control": 10, "value": 96, "channel": 11, "tick": 96720}, {"type": "control_change", "control": 10, "value": 32, "channel": 11, "tick": 97200}, {"type": "control_change", "control": 10, "value": 96, "channel": 11, "tick": 97680}, {"type": "control_change", "control": 10, "value": 32, "channel": 11, "tick": 98160}, {"type": "control_change", "control": 10, "value": 96, "channel": 11, "tick": 98640}, {"type": "control_change", "control": 10, "value": 32, "channel": 11, "tick": 99120}, {"type": "control_change", "control": 10, "value": 96, "channel": 11, "tick": 99600}, {"type": "control_change", "control": 10, "value": 32, "channel": 11, "tick": 100080}, {"type": "control_change", "control": 10, "value": 96, "channel": 11, "tick": 100560}, {"type": "control_change", "control": 10, "value": 32, "channel": 11, "tick": 101040}, {"type": "control_change", "control": 10, "value": 96, "channel": 11, "tick": 101520}, {"type": "control_change", "control": 10, "value": 32, "channel": 11, "tick": 102000}, {"type": "control_change", "control": 10, "value": 96, "channel": 11, "tick": 102480}, {"type": "control_change", "control": 10, "value": 32, "channel": 11, "tick": 102960}, {"type": "control_change", "control": 10, "value": 96, "channel": 11, "tick": 103440}, {"type": "control_change", "control": 10, "value": 32, "channel": 11, "tick": 103920}, {"type": "control_change", "control": 10, "value": 96, "channel": 11, "tick": 104400}, {"type": "control_change", "control": 10, "value": 32, "channel": 11, "tick": 104880}, {"type": "control_change", "control": 10, "value": 96, "channel": 11, "tick": 105360}, {"type": "control_change", "control": 10, "value": 32, "channel": 11, "tick": 105840}, {"type": "control_change", "control": 10, "value": 96, "channel": 11, "tick": 106320}, {"type": "control_change", "control": 10, "value": 32, "channel": 11, "tick": 106800}, {"type": "control_change", "control": 10, "value": 96, "channel": 11, "tick": 107280}, {"type": "control_change", "control": 10, "value": 32, "channel": 11, "tick": 107760}, {"type": "control_change", "control": 10, "value": 96, "channel": 11, "tick": 108240}, {"type": "control_change", "control": 10, "value": 32, "channel": 11, "tick": 108720}, {"type": "control_change", "control": 10, "value": 96, "channel": 11, "tick": 109200}, {"type": "control_change", "control": 10, "value": 32, "channel": 11, "tick": 109680}, {"type": "control_change", "control": 10, "value": 96, "channel": 11, "tick": 110160}, {"type": "control_change", "control": 10, "value": 32, "channel": 11, "tick": 110640}, {"type": "control_change", "control": 10, "value": 96, "channel": 11, "tick": 111120}, {"type": "control_change", "control": 10, "value": 32, "channel": 11, "tick": 111600}, {"type": "control_change", "control": 10, "value": 96, "channel": 11, "tick": 112080}, {"type": "control_change", "control": 10, "value": 32, "channel": 11, "tick": 112560}, {"type": "control_change", "control": 10, "value": 96, "channel": 11, "tick": 113040}, {"type": "control_change", "control": 10, "value": 32, "channel": 11, "tick": 113520}, {"type": "control_change", "control": 10, "value": 96, "channel": 11, "tick": 114000}, {"type": "control_change", "control": 10, "value": 32, "channel": 11, "tick": 114480}, {"type": "control_change", "control": 10, "value": 96, "channel": 11, "tick": 114960}, {"type": "control_change", "control": 10, "value": 32, "channel": 11, "tick": 115440}, {"type": "control_change", "control": 10, "value": 96, "channel": 11, "tick": 115920}, {"type": "control_change", "control": 10, "value": 32, "channel": 11, "tick": 116400}, {"type": "control_change", "control": 10, "value": 96, "channel": 11, "tick": 116880}, {"type": "control_change", "control": 10, "value": 32, "channel": 11, "tick": 117360}, {"type": "control_change", "control": 10, "value": 96, "channel": 11, "tick": 117840}, {"type": "control_change", "control": 10, "value": 32, "channel": 11, "tick": 118320}, {"type": "control_change", "control": 10, "value": 96, "channel": 11, "tick": 118800}, {"type": "control_change", "control": 10, "value": 32, "channel": 11, "tick": 119280}, {"type": "control_change", "control": 10, "value": 96, "channel": 11, "tick": 119760}, {"type": "control_change", "control": 10, "value": 32, "channel": 11, "tick": 120240}, {"type": "control_change", "control": 10, "value": 96, "channel": 11, "tick": 120720}, {"type": "control_change", "control": 10, "value": 32, "channel": 11, "tick": 121200}, {"type": "control_change", "control": 10, "value": 96, "channel": 11, "tick": 121680}, {"type": "control_change", "control": 10, "value": 32, "channel": 11, "tick": 122160}, {"type": "control_change", "control": 10, "value": 96, "channel": 11, "tick": 122640}, {"type": "control_change", "control": 10, "value": 32, "channel": 11, "tick": 123120}, {"type": "control_change", "control": 10, "value": 96, "channel": 11, "tick": 123600}, {"type": "control_change", "control": 10, "value": 32, "channel": 11, "tick": 124080}, {"type": "control_change", "control": 10, "value": 96, "channel": 11, "tick": 124560}, {"type": "control_change", "control": 10, "value": 32, "channel": 11, "tick": 125040}, {"type": "control_change", "control": 10, "value": 96, "channel": 11, "tick": 125520}, {"type": "control_change", "control": 10, "value": 32, "channel": 11, "tick": 126000}, {"type": "control_change", "control": 10, "value": 96, "channel": 11, "tick": 126480}, {"type": "control_change", "control": 10, "value": 32, "channel": 11, "tick": 126960}, {"type": "control_change", "control": 10, "value": 96, "channel": 11, "tick": 127440}, {"type": "control_change", "control": 10, "value": 32, "channel": 11, "tick": 127920}, {"type": "control_change", "control": 10, "value": 96, "channel": 11, "tick": 128400}, {"type": "control_change", "control": 10, "value": 32, "channel": 11, "tick": 128880}, {"type": "control_change", "control": 10, "value": 96, "channel": 11, "tick": 129360}, {"type": "control_change", "control": 10, "value": 32, "channel": 11, "tick": 129840}, {"type": "control_change", "control": 10, "value": 96, "channel": 11, "tick": 130320}, {"type": "control_change", "control": 10, "value": 32, "channel": 11, "tick": 130800}, {"type": "control_change", "control": 10, "value": 96, "channel": 11, "tick": 131280}, {"type": "control_change", "control": 10, "value": 32, "channel": 11, "tick": 131760}, {"type": "control_change", "control": 10, "value": 96, "channel": 11, "tick": 132240}, {"type": "control_change", "control": 10, "value": 32, "channel": 11, "tick": 132720}, {"type": "control_change", "control": 10, "value": 96, "channel": 11, "tick": 133200}, {"type": "control_change", "control": 10, "value": 32, "channel": 11, "tick": 133680}, {"type": "control_change", "control": 10, "value": 96, "channel": 11, "tick": 134160}, {"type": "control_change", "control": 10, "value": 32, "channel": 11, "tick": 134640}, {"type": "control_change", "control": 10, "value": 96, "channel": 11, "tick": 135120}, {"type": "control_change", "control": 10, "value": 32, "channel": 11, "tick": 135600}, {"type": "control_change", "control": 10, "value": 96, "channel": 11, "tick": 136080}, {"type": "control_change", "control": 10, "value": 32, "channel": 11, "tick": 136560}, {"type": "control_change", "control": 10, "value": 96, "channel": 11, "tick": 137040}, {"type": "control_change", "control": 10, "value": 32, "channel": 11, "tick": 137520}, {"type": "control_change", "control": 10, "value": 96, "channel": 11, "tick": 138000}, {"type": "control_change", "control": 10, "value": 32, "channel": 11, "tick": 138480}, {"type": "control_change", "control": 10, "value": 96, "channel": 11, "tick": 138960}, {"type": "control_change", "control": 10, "value": 32, "channel": 11, "tick": 139440}, {"type": "control_change", "control": 10, "value": 96, "channel": 11, "tick": 139920}, {"type": "control_change", "control": 10, "value": 32, "channel": 11, "tick": 140400}, {"type": "control_change", "control": 10, "value": 96, "channel": 11, "tick": 140880}, {"type": "control_change", "control": 10, "value": 32, "channel": 11, "tick": 141360}, {"type": "control_change", "control": 10, "value": 96, "channel": 11, "tick": 141840}, {"type": "control_change", "control": 10, "value": 32, "channel": 11, "tick": 142320}, {"type": "control_change", "control": 10, "value": 96, "channel": 11, "tick": 142800}, {"type": "control_change", "control": 10, "value": 32, "channel": 11, "tick": 143280}, {"type": "control_change", "control": 10, "value": 96, "channel": 11, "tick": 143760}, {"type": "control_change", "control": 10, "value": 32, "channel": 11, "tick": 144240}, {"type": "control_change", "control": 10, "value": 96, "channel": 11, "tick": 144720}, {"type": "control_change", "control": 10, "value": 32, "channel": 11, "tick": 145200}, {"type": "control_change", "control": 10, "value": 96, "channel": 11, "tick": 145680}, {"type": "control_change", "control": 10, "value": 32, "channel": 11, "tick": 146160}, {"type": "control_change", "control": 10, "value": 96, "channel": 11, "tick": 146640}, {"type": "control_change", "control": 10, "value": 32, "channel": 11, "tick": 147120}, {"type": "control_change", "control": 10, "value": 96, "channel": 11, "tick": 147600}, {"type": "control_change", "control": 10, "value": 32, "channel": 11, "tick": 148080}, {"type": "control_change", "control": 10, "value": 96, "channel": 11, "tick": 148560}, {"type": "control_change", "control": 10, "value": 32, "channel": 11, "tick": 149040}, {"type": "control_change", "control": 10, "value": 96, "channel": 11, "tick": 149520}, {"type": "control_change", "control": 10, "value": 32, "channel": 11, "tick": 150000}, {"type": "control_change", "control": 10, "value": 96, "channel": 11, "tick": 150480}, {"type": "control_change", "control": 10, "value": 32, "channel": 11, "tick": 150960}, {"type": "control_change", "control": 10, "value": 96, "channel": 11, "tick": 151440}, {"type": "control_change", "control": 10, "value": 32, "channel": 11, "tick": 151920}, {"type": "control_change", "control": 10, "value": 96, "channel": 11, "tick": 152400}, {"type": "control_change", "control": 10, "value": 32, "channel": 11, "tick": 152880}, {"type": "control_change", "control": 10, "value": 96, "channel": 11, "tick": 153360}, {"type": "control_change", "control": 10, "value": 32, "channel": 11, "tick": 153840}, {"type": "control_change", "control": 10, "value": 96, "channel": 11, "tick": 154320}, {"type": "control_change", "control": 10, "value": 32, "channel": 11, "tick": 154800}, {"type": "control_change", "control": 10, "value": 96, "channel": 11, "tick": 154920}, {"type": "control_change", "control": 10, "value": 32, "channel": 11, "tick": 155040}, {"type": "control_change", "control": 10, "value": 96, "channel": 11, "tick": 155280}, {"type": "control_change", "control": 10, "value": 32, "channel": 11, "tick": 155760}, {"type": "control_change", "control": 10, "value": 96, "channel": 11, "tick": 156240}, {"type": "control_change", "control": 10, "value": 32, "channel": 11, "tick": 156720}, {"type": "control_change", "control": 10, "value": 96, "channel": 11, "tick": 157200}, {"type": "control_change", "control": 10, "value": 32, "channel": 11, "tick": 157680}, {"type": "control_change", "control": 10, "value": 96, "channel": 11, "tick": 158160}, {"type": "control_change", "control": 10, "value": 32, "channel": 11, "tick": 158640}, {"type": "control_change", "control": 10, "value": 96, "channel": 11, "tick": 159120}, {"type": "control_change", "control": 10, "value": 32, "channel": 11, "tick": 159600}, {"type": "control_change", "control": 10, "value": 96, "channel": 11, "tick": 160080}, {"type": "control_change", "control": 10, "value": 32, "channel": 11, "tick": 160560}, {"type": "control_change", "control": 10, "value": 96, "channel": 11, "tick": 161040}, {"type": "control_change", "control": 10, "value": 32, "channel": 11, "tick": 161520}, {"type": "control_change", "control": 10, "value": 96, "channel": 11, "tick": 162000}, {"type": "control_change", "control": 10, "value": 32, "channel": 11, "tick": 162480}, {"type": "control_change", "control": 10, "value": 96, "channel": 11, "tick": 162960}, {"type": "control_change", "control": 10, "value": 32, "channel": 11, "tick": 163440}, {"type": "control_change", "control": 10, "value": 96, "channel": 11, "tick": 163920}, {"type": "control_change", "control": 10, "value": 32, "channel": 11, "tick": 164400}, {"type": "control_change", "control": 10, "value": 96, "channel": 11, "tick": 164880}, {"type": "control_change", "control": 10, "value": 32, "channel": 11, "tick": 165360}, {"type": "control_change", "control": 10, "value": 96, "channel": 11, "tick": 165840}, {"type": "control_change", "control": 10, "value": 32, "channel": 11, "tick": 166320}, {"type": "control_change", "control": 10, "value": 96, "channel": 11, "tick": 166800}, {"type": "control_change", "control": 10, "value": 32, "channel": 11, "tick": 167280}, {"type": "control_change", "control": 10, "value": 96, "channel": 11, "tick": 167760}, {"type": "control_change", "control": 10, "value": 32, "channel": 11, "tick": 168240}, {"type": "control_change", "control": 10, "value": 96, "channel": 11, "tick": 168720}, {"type": "control_change", "control": 10, "value": 32, "channel": 11, "tick": 169200}, {"type": "control_change", "control": 10, "value": 96, "channel": 11, "tick": 169680}, {"type": "control_change", "control": 10, "value": 32, "channel": 11, "tick": 170160}, {"type": "control_change", "control": 10, "value": 96, "channel": 11, "tick": 170280}, {"type": "control_change", "control": 10, "value": 32, "channel": 11, "tick": 170400}, {"type": "control_change", "control": 10, "value": 96, "channel": 11, "tick": 170640}, {"type": "control_change", "control": 10, "value": 32, "channel": 11, "tick": 171120}, {"type": "control_change", "control": 10, "value": 96, "channel": 11, "tick": 171600}, {"type": "control_change", "control": 10, "value": 32, "channel": 11, "tick": 172080}, {"type": "control_change", "control": 10, "value": 96, "channel": 11, "tick": 172560}, {"type": "control_change", "control": 10, "value": 32, "channel": 11, "tick": 173040}, {"type": "control_change", "control": 10, "value": 96, "channel": 11, "tick": 173520}, {"type": "control_change", "control": 10, "value": 32, "channel": 11, "tick": 174000}, {"type": "control_change", "control": 10, "value": 96, "channel": 11, "tick": 174480}, {"type": "control_change", "control": 10, "value": 32, "channel": 11, "tick": 174960}, {"type": "control_change", "control": 10, "value": 96, "channel": 11, "tick": 175440}, {"type": "control_change", "control": 10, "value": 32, "channel": 11, "tick": 175920}, {"type": "control_change", "control": 10, "value": 96, "channel": 11, "tick": 176400}, {"type": "control_change", "control": 10, "value": 32, "channel": 11, "tick": 176880}, {"type": "control_change", "control": 10, "value": 96, "channel": 11, "tick": 177360}, {"type": "control_change", "control": 10, "value": 32, "channel": 11, "tick": 177840}, {"type": "control_change", "control": 10, "value": 96, "channel": 11, "tick": 178320}, {"type": "control_change", "control": 10, "value": 32, "channel": 11, "tick": 178800}, {"type": "control_change", "control": 10, "value": 96, "channel": 11, "tick": 179280}, {"type": "control_change", "control": 10, "value": 32, "channel": 11, "tick": 179760}, {"type": "control_change", "control": 10, "value": 96, "channel": 11, "tick": 180240}, {"type": "control_change", "control": 10, "value": 32, "channel": 11, "tick": 180720}, {"type": "control_change", "control": 10, "value": 96, "channel": 11, "tick": 181200}, {"type": "control_change", "control": 10, "value": 32, "channel": 11, "tick": 181680}, {"type": "control_change", "control": 10, "value": 96, "channel": 11, "tick": 182160}, {"type": "control_change", "control": 10, "value": 32, "channel": 11, "tick": 182640}, {"type": "control_change", "control": 10, "value": 96, "channel": 11, "tick": 183120}, {"type": "control_change", "control": 10, "value": 32, "channel": 11, "tick": 183600}, {"type": "control_change", "control": 10, "value": 96, "channel": 11, "tick": 184080}, {"type": "control_change", "control": 10, "value": 32, "channel": 11, "tick": 184560}, {"type": "control_change", "control": 10, "value": 96, "channel": 11, "tick": 185040}, {"type": "control_change", "control": 10, "value": 32, "channel": 11, "tick": 185520}, {"type": "control_change", "control": 10, "value": 96, "channel": 11, "tick": 185640}, {"type": "control_change", "control": 10, "value": 32, "channel": 11, "tick": 185760}, {"type": "control_change", "control": 10, "value": 96, "channel": 11, "tick": 186000}, {"type": "control_change", "control": 10, "value": 32, "channel": 11, "tick": 186480}, {"type": "control_change", "control": 10, "value": 96, "channel": 11, "tick": 186960}, {"type": "control_change", "control": 10, "value": 32, "channel": 11, "tick": 187440}, {"type": "control_change", "control": 10, "value": 96, "channel": 11, "tick": 187920}, {"type": "control_change", "control": 10, "value": 32, "channel": 11, "tick": 188400}, {"type": "control_change", "control": 10, "value": 96, "channel": 11, "tick": 188880}, {"type": "control_change", "control": 10, "value": 32, "channel": 11, "tick": 189360}, {"type": "control_change", "control": 10, "value": 96, "channel": 11, "tick": 189840}, {"type": "control_change", "control": 10, "value": 32, "channel": 11, "tick": 190320}, {"type": "control_change", "control": 10, "value": 96, "channel": 11, "tick": 190800}, {"type": "control_change", "control": 10, "value": 32, "channel": 11, "tick": 191280}, {"type": "control_change", "control": 10, "value": 96, "channel": 11, "tick": 191760}, {"type": "control_change", "control": 10, "value": 32, "channel": 11, "tick": 192240}, {"type": "control_change", "control": 10, "value": 96, "channel": 11, "tick": 192720}, {"type": "control_change", "control": 10, "value": 32, "channel": 11, "tick": 193200}, {"type": "control_change", "control": 10, "value": 96, "channel": 11, "tick": 193680}, {"type": "control_change", "control": 10, "value": 32, "channel": 11, "tick": 194160}, {"type": "control_change", "control": 10, "value": 96, "channel": 11, "tick": 194640}, {"type": "control_change", "control": 10, "value": 32, "channel": 11, "tick": 195120}, {"type": "control_change", "control": 10, "value": 96, "channel": 11, "tick": 195600}, {"type": "control_change", "control": 10, "value": 32, "channel": 11, "tick": 196080}, {"type": "control_change", "control": 10, "value": 96, "channel": 11, "tick": 196560}, {"type": "control_change", "control": 10, "value": 32, "channel": 11, "tick": 197040}, {"type": "control_change", "control": 10, "value": 96, "channel": 11, "tick": 197520}, {"type": "control_change", "control": 10, "value": 32, "channel": 11, "tick": 198000}, {"type": "control_change", "control": 10, "value": 96, "channel": 11, "tick": 198480}, {"type": "control_change", "control": 10, "value": 32, "channel": 11, "tick": 198960}, {"type": "control_change", "control": 10, "value": 96, "channel": 11, "tick": 199440}, {"type": "control_change", "control": 10, "value": 32, "channel": 11, "tick": 199920}, {"type": "control_change", "control": 10, "value": 96, "channel": 11, "tick": 200400}, {"type": "control_change", "control": 10, "value": 32, "channel": 11, "tick": 200880}, {"type": "control_change", "control": 10, "value": 96, "channel": 11, "tick": 201000}, {"type": "control_change", "control": 10, "value": 32, "channel": 11, "tick": 201120}, {"type": "control_change", "control": 10, "value": 96, "channel": 11, "tick": 201360}, {"type": "control_change", "control": 10, "value": 32, "channel": 11, "tick": 201840}, {"type": "control_change", "control": 10, "value": 96, "channel": 11, "tick": 202320}, {"type": "control_change", "control": 10, "value": 32, "channel": 11, "tick": 202800}, {"type": "control_change", "control": 10, "value": 96, "channel": 11, "tick": 203280}, {"type": "control_change", "control": 10, "value": 32, "channel": 11, "tick": 203760}, {"type": "control_change", "control": 10, "value": 96, "channel": 11, "tick": 204240}, {"type": "control_change", "control": 10, "value": 32, "channel": 11, "tick": 204720}, {"type": "control_change", "control": 10, "value": 96, "channel": 11, "tick": 205200}, {"type": "control_change", "control": 10, "value": 32, "channel": 11, "tick": 205680}, {"type": "control_change", "control": 10, "value": 96, "channel": 11, "tick": 206160}, {"type": "control_change", "control": 10, "value": 32, "channel": 11, "tick": 206640}, {"type": "control_change", "control": 10, "value": 96, "channel": 11, "tick": 207120}, {"type": "control_change", "control": 10, "value": 32, "channel": 11, "tick": 207600}, {"type": "control_change", "control": 10, "value": 96, "channel": 11, "tick": 208080}, {"type": "control_change", "control": 10, "value": 32, "channel": 11, "tick": 208560}, {"type": "control_change", "control": 10, "value": 96, "channel": 11, "tick": 209040}, {"type": "control_change", "control": 10, "value": 32, "channel": 11, "tick": 209520}, {"type": "control_change", "control": 10, "value": 96, "channel": 11, "tick": 210000}, {"type": "control_change", "control": 10, "value": 32, "channel": 11, "tick": 210480}, {"type": "control_change", "control": 10, "value": 96, "channel": 11, "tick": 210960}, {"type": "control_change", "control": 10, "value": 32, "channel": 11, "tick": 211440}, {"type": "control_change", "control": 10, "value": 96, "channel": 11, "tick": 211920}, {"type": "control_change", "control": 10, "value": 32, "channel": 11, "tick": 212400}, {"type": "control_change", "control": 10, "value": 96, "channel": 11, "tick": 212880}, {"type": "control_change", "control": 10, "value": 32, "channel": 11, "tick": 213360}, {"type": "control_change", "control": 10, "value": 96, "channel": 11, "tick": 213840}, {"type": "control_change", "control": 10, "value": 32, "channel": 11, "tick": 214320}, {"type": "control_change", "control": 10, "value": 96, "channel": 11, "tick": 214800}, {"type": "control_change", "control": 10, "value": 32, "channel": 11, "tick": 215280}, {"type": "control_change", "control": 10, "value": 96, "channel": 11, "tick": 215760}, {"type": "control_change", "control": 10, "value": 32, "channel": 11, "tick": 216240}, {"type": "control_change", "control": 10, "value": 96, "channel": 11, "tick": 216360}, {"type": "control_change", "control": 10, "value": 32, "channel": 11, "tick": 216480}, {"type": "control_change", "control": 10, "value": 96, "channel": 11, "tick": 216720}, {"type": "control_change", "control": 10, "value": 32, "channel": 11, "tick": 286320}, {"type": "control_change", "control": 10, "value": 96, "channel": 11, "tick": 286800}, {"type": "control_change", "control": 10, "value": 32, "channel": 11, "tick": 287280}, {"type": "control_change", "control": 10, "value": 96, "channel": 11, "tick": 287760}, {"type": "control_change", "control": 10, "value": 32, "channel": 11, "tick": 288240}, {"type": "control_change", "control": 10, "value": 96, "channel": 11, "tick": 288720}, {"type": "control_change", "control": 10, "value": 32, "channel": 11, "tick": 289200}, {"type": "control_change", "control": 10, "value": 96, "channel": 11, "tick": 289680}, {"type": "control_change", "control": 10, "value": 32, "channel": 11, "tick": 290160}, {"type": "control_change", "control": 10, "value": 96, "channel": 11, "tick": 290640}, {"type": "control_change", "control": 10, "value": 32, "channel": 11, "tick": 291120}, {"type": "control_change", "control": 10, "value": 96, "channel": 11, "tick": 291600}, {"type": "control_change", "control": 10, "value": 32, "channel": 11, "tick": 292080}, {"type": "control_change", "control": 10, "value": 96, "channel": 11, "tick": 292560}, {"type": "control_change", "control": 10, "value": 32, "channel": 11, "tick": 293040}, {"type": "control_change", "control": 10, "value": 96, "channel": 11, "tick": 293520}, {"type": "control_change", "control": 10, "value": 32, "channel": 11, "tick": 294000}, {"type": "control_change", "control": 10, "value": 96, "channel": 11, "tick": 294480}, {"type": "control_change", "control": 10, "value": 32, "channel": 11, "tick": 294960}, {"type": "control_change", "control": 10, "value": 96, "channel": 11, "tick": 295440}, {"type": "control_change", "control": 10, "value": 32, "channel": 11, "tick": 295920}, {"type": "control_change", "control": 10, "value": 96, "channel": 11, "tick": 296400}, {"type": "control_change", "control": 10, "value": 32, "channel": 11, "tick": 296880}, {"type": "control_change", "control": 10, "value": 96, "channel": 11, "tick": 297360}, {"type": "control_change", "control": 10, "value": 32, "channel": 11, "tick": 297840}, {"type": "control_change", "control": 10, "value": 96, "channel": 11, "tick": 298320}, {"type": "control_change", "control": 10, "value": 32, "channel": 11, "tick": 298800}, {"type": "control_change", "control": 10, "value": 96, "channel": 11, "tick": 299280}, {"type": "control_change", "control": 10, "value": 32, "channel": 11, "tick": 299760}, {"type": "control_change", "control": 10, "value": 96, "channel": 11, "tick": 300240}, {"type": "control_change", "control": 10, "value": 32, "channel": 11, "tick": 300720}, {"type": "control_change", "control": 10, "value": 96, "channel": 11, "tick": 300840}, {"type": "control_change", "control": 10, "value": 32, "channel": 11, "tick": 300960}, {"type": "control_change", "control": 10, "value": 96, "channel": 11, "tick": 301200}, {"type": "control_change", "control": 10, "value": 32, "channel": 11, "tick": 301680}, {"type": "control_change", "control": 10, "value": 96, "channel": 11, "tick": 302160}, {"type": "control_change", "control": 10, "value": 32, "channel": 11, "tick": 302640}, {"type": "control_change", "control": 10, "value": 96, "channel": 11, "tick": 303120}, {"type": "control_change", "control": 10, "value": 32, "channel": 11, "tick": 303600}, {"type": "control_change", "control": 10, "value": 96, "channel": 11, "tick": 304080}, {"type": "control_change", "control": 10, "value": 32, "channel": 11, "tick": 304560}, {"type": "control_change", "control": 10, "value": 96, "channel": 11, "tick": 305040}, {"type": "control_change", "control": 10, "value": 32, "channel": 11, "tick": 305520}, {"type": "control_change", "control": 10, "value": 96, "channel": 11, "tick": 306000}, {"type": "control_change", "control": 10, "value": 32, "channel": 11, "tick": 306480}, {"type": "control_change", "control": 10, "value": 96, "channel": 11, "tick": 306960}, {"type": "control_change", "control": 10, "value": 32, "channel": 11, "tick": 307440}, {"type": "control_change", "control": 10, "value": 96, "channel": 11, "tick": 307920}, {"type": "control_change", "control": 10, "value": 32, "channel": 11, "tick": 308400}, {"type": "control_change", "control": 10, "value": 96, "channel": 11, "tick": 308880}, {"type": "control_change", "control": 10, "value": 32, "channel": 11, "tick": 309360}, {"type": "control_change", "control": 10, "value": 96, "channel": 11, "tick": 309840}, {"type": "control_change", "control": 10, "value": 32, "channel": 11, "tick": 310320}, {"type": "control_change", "control": 10, "value": 96, "channel": 11, "tick": 310800}, {"type": "control_change", "control": 10, "value": 32, "channel": 11, "tick": 311280}, {"type": "control_change", "control": 10, "value": 96, "channel": 11, "tick": 311760}, {"type": "control_change", "control": 10, "value": 32, "channel": 11, "tick": 312240}, {"type": "control_change", "control": 10, "value": 96, "channel": 11, "tick": 312720}, {"type": "control_change", "control": 10, "value": 32, "channel": 11, "tick": 313200}, {"type": "control_change", "control": 10, "value": 96, "channel": 11, "tick": 313680}, {"type": "control_change", "control": 10, "value": 32, "channel": 11, "tick": 314160}, {"type": "control_change", "control": 10, "value": 96, "channel": 11, "tick": 314640}, {"type": "control_change", "control": 10, "value": 32, "channel": 11, "tick": 315120}, {"type": "control_change", "control": 10, "value": 96, "channel": 11, "tick": 315600}, {"type": "control_change", "control": 10, "value": 32, "channel": 11, "tick": 316080}, {"type": "control_change", "control": 10, "value": 96, "channel": 11, "tick": 316200}, {"type": "control_change", "control": 10, "value": 32, "channel": 11, "tick": 316320}, {"type": "control_change", "control": 10, "value": 96, "channel": 11, "tick": 316560}, {"type": "control_change", "control": 10, "value": 32, "channel": 11, "tick": 317040}, {"type": "control_change", "control": 10, "value": 96, "channel": 11, "tick": 317520}, {"type": "control_change", "control": 10, "value": 32, "channel": 11, "tick": 318000}, {"type": "control_change", "control": 10, "value": 96, "channel": 11, "tick": 318480}, {"type": "control_change", "control": 10, "value": 32, "channel": 11, "tick": 318960}, {"type": "control_change", "control": 10, "value": 96, "channel": 11, "tick": 319440}, {"type": "control_change", "control": 10, "value": 32, "channel": 11, "tick": 319920}, {"type": "control_change", "control": 10, "value": 96, "channel": 11, "tick": 320400}, {"type": "control_change", "control": 10, "value": 32, "channel": 11, "tick": 320880}, {"type": "control_change", "control": 10, "value": 96, "channel": 11, "tick": 321360}, {"type": "control_change", "control": 10, "value": 32, "channel": 11, "tick": 321840}, {"type": "control_change", "control": 10, "value": 96, "channel": 11, "tick": 322320}, {"type": "control_change", "control": 10, "value": 32, "channel": 11, "tick": 322800}, {"type": "control_change", "control": 10, "value": 96, "channel": 11, "tick": 323280}, {"type": "control_change", "control": 10, "value": 32, "channel": 11, "tick": 323760}, {"type": "control_change", "control": 10, "value": 96, "channel": 11, "tick": 324240}, {"type": "control_change", "control": 10, "value": 32, "channel": 11, "tick": 324720}, {"type": "control_change", "control": 10, "value": 96, "channel": 11, "tick": 325200}, {"type": "control_change", "control": 10, "value": 32, "channel": 11, "tick": 325680}, {"type": "control_change", "control": 10, "value": 96, "channel": 11, "tick": 326160}, {"type": "control_change", "control": 10, "value": 32, "channel": 11, "tick": 326640}, {"type": "control_change", "control": 10, "value": 96, "channel": 11, "tick": 327120}, {"type": "control_change", "control": 10, "value": 32, "channel": 11, "tick": 327600}, {"type": "control_change", "control": 10, "value": 96, "channel": 11, "tick": 328080}, {"type": "control_change", "control": 10, "value": 32, "channel": 11, "tick": 328560}, {"type": "control_change", "control": 10, "value": 96, "channel": 11, "tick": 329040}, {"type": "control_change", "control": 10, "value": 32, "channel": 11, "tick": 329520}, {"type": "control_change", "control": 10, "value": 96, "channel": 11, "tick": 330000}, {"type": "control_change", "control": 10, "value": 32, "channel": 11, "tick": 330480}, {"type": "control_change", "control": 10, "value": 96, "channel": 11, "tick": 330960}, {"type": "control_change", "control": 10, "value": 32, "channel": 11, "tick": 331440}, {"type": "control_change", "control": 10, "value": 96, "channel": 11, "tick": 331560}, {"type": "control_change", "control": 10, "value": 32, "channel": 11, "tick": 331680}, {"type": "control_change", "control": 10, "value": 96, "channel": 11, "tick": 331920}, {"type": "control_change", "control": 10, "value": 32, "channel": 11, "tick": 332400}, {"type": "control_change", "control": 10, "value": 96, "channel": 11, "tick": 332880}, {"type": "control_change", "control": 10, "value": 32, "channel": 11, "tick": 333360}, {"type": "control_change", "control": 10, "value": 96, "channel": 11, "tick": 333840}, {"type": "control_change", "control": 10, "value": 32, "channel": 11, "tick": 334320}, {"type": "control_change", "control": 10, "value": 96, "channel": 11, "tick": 334800}, {"type": "control_change", "control": 10, "value": 32, "channel": 11, "tick": 335280}, {"type": "control_change", "control": 10, "value": 96, "channel": 11, "tick": 335760}, {"type": "control_change", "control": 10, "value": 32, "channel": 11, "tick": 336240}, {"type": "control_change", "control": 10, "value": 96, "channel": 11, "tick": 336720}, {"type": "control_change", "control": 10, "value": 32, "channel": 11, "tick": 337200}, {"type": "control_change", "control": 10, "value": 96, "channel": 11, "tick": 337680}, {"type": "control_change", "control": 10, "value": 32, "channel": 11, "tick": 338160}, {"type": "control_change", "control": 10, "value": 96, "channel": 11, "tick": 338640}, {"type": "control_change", "control": 10, "value": 32, "channel": 11, "tick": 339120}, {"type": "control_change", "control": 10, "value": 96, "channel": 11, "tick": 339600}, {"type": "control_change", "control": 10, "value": 32, "channel": 11, "tick": 340080}, {"type": "control_change", "control": 10, "value": 96, "channel": 11, "tick": 340560}, {"type": "control_change", "control": 10, "value": 32, "channel": 11, "tick": 341040}, {"type": "control_change", "control": 10, "value": 96, "channel": 11, "tick": 341520}, {"type": "control_change", "control": 10, "value": 32, "channel": 11, "tick": 342000}, {"type": "control_change", "control": 10, "value": 96, "channel": 11, "tick": 342480}, {"type": "control_change", "control": 10, "value": 32, "channel": 11, "tick": 342960}, {"type": "control_change", "control": 10, "value": 96, "channel": 11, "tick": 343440}, {"type": "control_change", "control": 10, "value": 32, "channel": 11, "tick": 343920}, {"type": "control_change", "control": 10, "value": 96, "channel": 11, "tick": 344400}, {"type": "control_change", "control": 10, "value": 32, "channel": 11, "tick": 344880}, {"type": "control_change", "control": 10, "value": 96, "channel": 11, "tick": 345360}, {"type": "control_change", "control": 10, "value": 32, "channel": 11, "tick": 345840}, {"type": "control_change", "control": 10, "value": 96, "channel": 11, "tick": 346320}, {"type": "control_change", "control": 10, "value": 32, "channel": 11, "tick": 346800}, {"type": "control_change", "control": 10, "value": 96, "channel": 11, "tick": 346920}, {"type": "control_change", "control": 10, "value": 32, "channel": 11, "tick": 347040}, {"type": "control_change", "control": 10, "value": 96, "channel": 11, "tick": 347280}, {"type": "control_change", "control": 10, "value": 32, "channel": 11, "tick": 347760}, {"type": "control_change", "control": 10, "value": 96, "channel": 11, "tick": 348240}, {"type": "control_change", "control": 10, "value": 32, "channel": 11, "tick": 348720}, {"type": "control_change", "control": 10, "value": 96, "channel": 11, "tick": 349200}, {"type": "control_change", "control": 10, "value": 32, "channel": 11, "tick": 349680}, {"type": "control_change", "control": 10, "value": 96, "channel": 11, "tick": 350160}, {"type": "control_change", "control": 10, "value": 32, "channel": 11, "tick": 350640}, {"type": "control_change", "control": 10, "value": 96, "channel": 11, "tick": 351120}, {"type": "control_change", "control": 10, "value": 32, "channel": 11, "tick": 351600}, {"type": "control_change", "control": 10, "value": 96, "channel": 11, "tick": 352080}, {"type": "control_change", "control": 10, "value": 32, "channel": 11, "tick": 352560}, {"type": "control_change", "control": 10, "value": 96, "channel": 11, "tick": 353040}, {"type": "control_change", "control": 10, "value": 32, "channel": 11, "tick": 353520}, {"type": "control_change", "control": 10, "value": 96, "channel": 11, "tick": 354000}, {"type": "control_change", "control": 10, "value": 32, "channel": 11, "tick": 354480}, {"type": "control_change", "control": 10, "value": 96, "channel": 11, "tick": 354960}, {"type": "control_change", "control": 10, "value": 32, "channel": 11, "tick": 355440}, {"type": "control_change", "control": 10, "value": 96, "channel": 11, "tick": 355920}, {"type": "control_change", "control": 10, "value": 32, "channel": 11, "tick": 356400}, {"type": "control_change", "control": 10, "value": 96, "channel": 11, "tick": 356880}, {"type": "control_change", "control": 10, "value": 32, "channel": 11, "tick": 357360}, {"type": "control_change", "control": 10, "value": 96, "channel": 11, "tick": 357840}, {"type": "control_change", "control": 10, "value": 32, "channel": 11, "tick": 358320}, {"type": "control_change", "control": 10, "value": 96, "channel": 11, "tick": 358800}, {"type": "control_change", "control": 10, "value": 32, "channel": 11, "tick": 359280}, {"type": "control_change", "control": 10, "value": 96, "channel": 11, "tick": 359760}, {"type": "control_change", "control": 10, "value": 32, "channel": 11, "tick": 360240}, {"type": "control_change", "control": 10, "value": 96, "channel": 11, "tick": 360720}, {"type": "control_change", "control": 10, "value": 32, "channel": 11, "tick": 361200}, {"type": "control_change", "control": 10, "value": 96, "channel": 11, "tick": 361680}, {"type": "control_change", "control": 10, "value": 32, "channel": 11, "tick": 362160}, {"type": "control_change", "control": 10, "value": 96, "channel": 11, "tick": 362280}, {"type": "control_change", "control": 10, "value": 32, "channel": 11, "tick": 362400}, {"type": "control_change", "control": 10, "value": 96, "channel": 11, "tick": 362640}, {"type": "control_change", "control": 10, "value": 32, "channel": 11, "tick": 363120}, {"type": "control_change", "control": 10, "value": 96, "channel": 11, "tick": 363600}, {"type": "control_change", "control": 10, "value": 32, "channel": 11, "tick": 364080}, {"type": "control_change", "control": 10, "value": 96, "channel": 11, "tick": 364560}, {"type": "control_change", "control": 10, "value": 32, "channel": 11, "tick": 365040}, {"type": "control_change", "control": 10, "value": 96, "channel": 11, "tick": 365520}, {"type": "control_change", "control": 10, "value": 32, "channel": 11, "tick": 366000}, {"type": "control_change", "control": 10, "value": 96, "channel": 11, "tick": 366480}, {"type": "control_change", "control": 10, "value": 32, "channel": 11, "tick": 366960}, {"type": "control_change", "control": 10, "value": 96, "channel": 11, "tick": 367440}, {"type": "control_change", "control": 10, "value": 32, "channel": 11, "tick": 367920}, {"type": "control_change", "control": 10, "value": 96, "channel": 11, "tick": 368400}, {"type": "control_change", "control": 10, "value": 32, "channel": 11, "tick": 368880}, {"type": "control_change", "control": 10, "value": 96, "channel": 11, "tick": 369360}, {"type": "control_change", "control": 10, "value": 32, "channel": 11, "tick": 369840}, {"type": "control_change", "control": 10, "value": 96, "channel": 11, "tick": 370320}, {"type": "control_change", "control": 10, "value": 32, "channel": 11, "tick": 370800}, {"type": "control_change", "control": 10, "value": 96, "channel": 11, "tick": 371280}, {"type": "control_change", "control": 10, "value": 32, "channel": 11, "tick": 371760}, {"type": "control_change", "control": 10, "value": 96, "channel": 11, "tick": 372240}, {"type": "control_change", "control": 10, "value": 32, "channel": 11, "tick": 372720}, {"type": "control_change", "control": 10, "value": 96, "channel": 11, "tick": 373200}, {"type": "control_change", "control": 10, "value": 32, "channel": 11, "tick": 373680}, {"type": "control_change", "control": 10, "value": 96, "channel": 11, "tick": 374160}, {"type": "control_change", "control": 10, "value": 32, "channel": 11, "tick": 374640}, {"type": "control_change", "control": 10, "value": 96, "channel": 11, "tick": 375120}, {"type": "control_change", "control": 10, "value": 32, "channel": 11, "tick": 375600}, {"type": "control_change", "control": 10, "value": 96, "channel": 11, "tick": 376080}, {"type": "control_change", "control": 10, "value": 32, "channel": 11, "tick": 376560}, {"type": "control_change", "control": 10, "value": 96, "channel": 11, "tick": 377040}, {"type": "control_change", "control": 10, "value": 32, "channel": 11, "tick": 377520}, {"type": "control_change", "control": 10, "value": 96, "channel": 11, "tick": 377640}, {"type": "control_change", "control": 10, "value": 32, "channel": 11, "tick": 377760}, {"type": "control_change", "control": 10, "value": 96, "channel": 11, "tick": 378000}, {"type": "control_change", "control": 10, "value": 32, "channel": 11, "tick": 378480}, {"type": "control_change", "control": 10, "value": 96, "channel": 11, "tick": 378960}, {"type": "control_change", "control": 10, "value": 32, "channel": 11, "tick": 379440}, {"type": "control_change", "control": 10, "value": 96, "channel": 11, "tick": 379920}, {"type": "control_change", "control": 10, "value": 32, "channel": 11, "tick": 380400}, {"type": "control_change", "control": 10, "value": 96, "channel": 11, "tick": 380880}, {"type": "control_change", "control": 10, "value": 32, "channel": 11, "tick": 381360}, {"type": "control_change", "control": 10, "value": 96, "channel": 11, "tick": 381840}, {"type": "control_change", "control": 10, "value": 32, "channel": 11, "tick": 382320}, {"type": "control_change", "control": 10, "value": 96, "channel": 11, "tick": 382800}, {"type": "control_change", "control": 10, "value": 32, "channel": 11, "tick": 383280}, {"type": "control_change", "control": 10, "value": 96, "channel": 11, "tick": 383760}, {"type": "control_change", "control": 10, "value": 32, "channel": 11, "tick": 384240}, {"type": "control_change", "control": 10, "value": 96, "channel": 11, "tick": 384720}, {"type": "control_change", "control": 10, "value": 32, "channel": 11, "tick": 385200}, {"type": "control_change", "control": 10, "value": 96, "channel": 11, "tick": 385680}, {"type": "control_change", "control": 10, "value": 32, "channel": 11, "tick": 386160}, {"type": "control_change", "control": 10, "value": 96, "channel": 11, "tick": 386640}, {"type": "control_change", "control": 10, "value": 32, "channel": 11, "tick": 387120}, {"type": "control_change", "control": 10, "value": 96, "channel": 11, "tick": 387600}, {"type": "control_change", "control": 10, "value": 32, "channel": 11, "tick": 388080}, {"type": "control_change", "control": 10, "value": 96, "channel": 11, "tick": 388560}, {"type": "control_change", "control": 10, "value": 32, "channel": 11, "tick": 389040}, {"type": "control_change", "control": 10, "value": 96, "channel": 11, "tick": 389520}, {"type": "control_change", "control": 10, "value": 32, "channel": 11, "tick": 390000}, {"type": "control_change", "control": 10, "value": 96, "channel": 11, "tick": 390480}, {"type": "control_change", "control": 10, "value": 32, "channel": 11, "tick": 390960}, {"type": "control_change", "control": 10, "value": 96, "channel": 11, "tick": 391440}, {"type": "control_change", "control": 10, "value": 32, "channel": 11, "tick": 391920}, {"type": "control_change", "control": 10, "value": 96, "channel": 11, "tick": 392400}, {"type": "control_change", "control": 10, "value": 32, "channel": 11, "tick": 392880}, {"type": "control_change", "control": 10, "value": 96, "channel": 11, "tick": 393000}, {"type": "control_change", "control": 10, "value": 32, "channel": 11, "tick": 393120}, {"type": "control_change", "control": 10, "value": 96, "channel": 11, "tick": 393360}, {"type": "control_change", "control": 10, "value": 32, "channel": 11, "tick": 393840}, {"type": "control_change", "control": 10, "value": 96, "channel": 11, "tick": 394320}, {"type": "control_change", "control": 10, "value": 32, "channel": 11, "tick": 394800}, {"type": "control_change", "control": 10, "value": 96, "channel": 11, "tick": 395280}, {"type": "control_change", "control": 10, "value": 32, "channel": 11, "tick": 395760}, {"type": "control_change", "control": 10, "value": 96, "channel": 11, "tick": 396240}, {"type": "control_change", "control": 10, "value": 32, "channel": 11, "tick": 396720}, {"type": "control_change", "control": 10, "value": 96, "channel": 11, "tick": 397200}, {"type": "control_change", "control": 10, "value": 32, "channel": 11, "tick": 397680}, {"type": "control_change", "control": 10, "value": 96, "channel": 11, "tick": 398160}, {"type": "control_change", "control": 10, "value": 32, "channel": 11, "tick": 398640}, {"type": "control_change", "control": 10, "value": 96, "channel": 11, "tick": 399120}, {"type": "control_change", "control": 10, "value": 32, "channel": 11, "tick": 399600}, {"type": "control_change", "control": 10, "value": 96, "channel": 11, "tick": 400080}, {"type": "control_change", "control": 10, "value": 32, "channel": 11, "tick": 400560}, {"type": "control_change", "control": 10, "value": 96, "channel": 11, "tick": 401040}, {"type": "control_change", "control": 10, "value": 32, "channel": 11, "tick": 401520}, {"type": "control_change", "control": 10, "value": 96, "channel": 11, "tick": 402000}, {"type": "control_change", "control": 10, "value": 32, "channel": 11, "tick": 402480}, {"type": "control_change", "control": 10, "value": 96, "channel": 11, "tick": 402960}, {"type": "control_change", "control": 10, "value": 32, "channel": 11, "tick": 403440}, {"type": "control_change", "control": 10, "value": 96, "channel": 11, "tick": 403920}, {"type": "control_change", "control": 10, "value": 32, "channel": 11, "tick": 404400}, {"type": "control_change", "control": 10, "value": 96, "channel": 11, "tick": 404880}, {"type": "control_change", "control": 10, "value": 32, "channel": 11, "tick": 405360}, {"type": "control_change", "control": 10, "value": 96, "channel": 11, "tick": 405840}, {"type": "control_change", "control": 10, "value": 32, "channel": 11, "tick": 406320}, {"type": "control_change", "control": 10, "value": 96, "channel": 11, "tick": 406800}, {"type": "control_change", "control": 10, "value": 32, "channel": 11, "tick": 407280}, {"type": "control_change", "control": 10, "value": 96, "channel": 11, "tick": 407760}, {"type": "control_change", "control": 10, "value": 32, "channel": 11, "tick": 408240}, {"type": "control_change", "control": 10, "value": 96, "channel": 11, "tick": 408360}, {"type": "control_change", "control": 10, "value": 32, "channel": 11, "tick": 408480}, {"type": "control_change", "control": 10, "value": 96, "channel": 11, "tick": 408720}, {"type": "end_of_track", "tick": 409200}], "notes": [{"pitch": 65, "tick": 63360, "length": 480, "velocity": 96}, {"pitch": 65, "tick": 63840, "length": 480, "velocity": 96}, {"pitch": 65, "tick": 64320, "length": 240, "velocity": 96}, {"pitch": 65, "tick": 64560, "length": 480, "velocity": 96}, {"pitch": 65, "tick": 65040, "length": 480, "velocity": 96}, {"pitch": 65, "tick": 65520, "length": 240, "velocity": 96}, {"pitch": 65, "tick": 65760, "length": 480, "velocity": 96}, {"pitch": 65, "tick": 66240, "length": 480, "velocity": 96}, {"pitch": 65, "tick": 66720, "length": 240, "velocity": 96}, {"pitch": 65, "tick": 66960, "length": 240, "velocity": 96}, {"pitch": 65, "tick": 67200, "length": 480, "velocity": 96}, {"pitch": 65, "tick": 67680, "length": 480, "velocity": 96}, {"pitch": 65, "tick": 68160, "length": 240, "velocity": 96}, {"pitch": 65, "tick": 68400, "length": 480, "velocity": 96}, {"pitch": 65, "tick": 68880, "length": 480, "velocity": 96}, {"pitch": 65, "tick": 69360, "length": 240, "velocity": 96}, {"pitch": 65, "tick": 69600, "length": 240, "velocity": 96}, {"pitch": 65, "tick": 69840, "length": 90, "velocity": 96}, {"pitch": 65, "tick": 69960, "length": 90, "velocity": 96}, {"pitch": 65, "tick": 70080, "length": 240, "velocity": 96}, {"pitch": 65, "tick": 70320, "length": 240, "velocity": 96}, {"pitch": 65, "tick": 70560, "length": 240, "velocity": 96}, {"pitch": 65, "tick": 70800, "length": 240, "velocity": 96}, {"pitch": 65, "tick": 71040, "length": 480, "velocity": 96}, {"pitch": 65, "tick": 71520, "length": 480, "velocity": 96}, {"pitch": 65, "tick": 72000, "length": 240, "velocity": 96}, {"pitch": 65, "tick": 72240, "length": 480, "velocity": 96}, {"pitch": 65, "tick": 72720, "length": 480, "velocity": 96}, {"pitch": 65, "tick": 73200, "length": 240, "velocity": 96}, {"pitch": 65, "tick": 73440, "length": 480, "velocity": 96}, {"pitch": 65, "tick": 73920, "length": 480, "velocity": 96}, {"pitch": 65, "tick": 74400, "length": 240, "velocity": 96}, {"pitch": 65, "tick": 74640, "length": 240, "velocity": 96}, {"pitch": 65, "tick": 74880, "length": 480, "velocity": 96}, {"pitch": 65, "tick": 75360, "length": 480, "velocity": 96}, {"pitch": 65, "tick": 75840, "length": 240, "velocity": 96}, {"pitch": 65, "tick": 76080, "length": 480, "velocity": 96}, {"pitch": 65, "tick": 76560, "length": 480, "velocity": 96}, {"pitch": 65, "tick": 77040, "length": 240, "velocity": 96}, {"pitch": 65, "tick": 77280, "length": 240, "velocity": 96}, {"pitch": 65, "tick": 77520, "length": 90, "velocity": 96}, {"pitch": 65, "tick": 77640, "length": 90, "velocity": 96}, {"pitch": 65, "tick": 77760, "length": 150, "velocity": 96}, {"pitch": 65, "tick": 78000, "length": 90, "velocity": 96}, {"pitch": 65, "tick": 78120, "length": 90, "velocity": 96}, {"pitch": 65, "tick": 78240, "length": 150, "velocity": 96}, {"pitch": 65, "tick": 78480, "length": 150, "velocity": 96}, {"pitch": 65, "tick": 78720, "length": 480, "velocity": 96}, {"pitch": 65, "tick": 79200, "length": 480, "velocity": 96}, {"pitch": 65, "tick": 79680, "length": 240, "velocity": 96}, {"pitch": 65, "tick": 79920, "length": 480, "velocity": 96}, {"pitch": 65, "tick": 80400, "length": 480, "velocity": 96}, {"pitch": 65, "tick": 80880, "length": 240, "velocity": 96}, {"pitch": 65, "tick": 81120, "length": 480, "velocity": 96}, {"pitch": 65, "tick": 81600, "length": 480, "velocity": 96}, {"pitch": 65, "tick": 82080, "length": 480, "velocity": 96}, {"pitch": 65, "tick": 82560, "length": 480, "velocity": 96}, {"pitch": 65, "tick": 83040, "length": 480, "velocity": 96}, {"pitch": 65, "tick": 83520, "length": 240, "velocity": 96}, {"pitch": 65, "tick": 83760, "length": 480, "velocity": 96}, {"pitch": 65, "tick": 84240, "length": 480, "velocity": 96}, {"pitch": 65, "tick": 84720, "length": 90, "velocity": 96}, {"pitch": 65, "tick": 84840, "length": 90, "velocity": 96}, {"pitch": 65, "tick": 84960, "length": 150, "velocity": 96}, {"pitch": 65, "tick": 85200, "length": 150, "velocity": 96}, {"pitch": 65, "tick": 85440, "length": 240, "velocity": 96}, {"pitch": 65, "tick": 85680, "length": 240, "velocity": 96}, {"pitch": 65, "tick": 85920, "length": 150, "velocity": 96}, {"pitch": 65, "tick": 86160, "length": 150, "velocity": 96}, {"pitch": 65, "tick": 86400, "length": 480, "velocity": 96}, {"pitch": 65, "tick": 86880, "length": 480, "velocity": 96}, {"pitch": 65, "tick": 87360, "length": 240, "velocity": 96}, {"pitch": 65, "tick": 87600, "length": 240, "velocity": 96}, {"pitch": 65, "tick": 87840, "length": 240, "velocity": 96}, {"pitch": 65, "tick": 88080, "length": 480, "velocity": 96}, {"pitch": 65, "tick": 88560, "length": 240, "velocity": 96}, {"pitch": 65, "tick": 88800, "length": 480, "velocity": 96}, {"pitch": 65, "tick": 89280, "length": 240, "velocity": 96}, {"pitch": 65, "tick": 89520, "length": 120, "velocity": 96}, {"pitch": 65, "tick": 89640, "length": 120, "velocity": 96}, {"pitch": 65, "tick": 89760, "length": 240, "velocity": 96}, {"pitch": 65, "tick": 90000, "length": 240, "velocity": 96}, {"pitch": 65, "tick": 90240, "length": 480, "velocity": 96}, {"pitch": 65, "tick": 90720, "length": 480, "velocity": 96}, {"pitch": 65, "tick": 91200, "length": 240, "velocity": 96}, {"pitch": 65, "tick": 91440, "length": 480, "velocity": 96}, {"pitch": 65, "tick": 91920, "length": 480, "velocity": 96}, {"pitch": 65, "tick": 92400, "length": 240, "velocity": 96}, {"pitch": 65, "tick": 92640, "length": 480, "velocity": 96}, {"pitch": 65, "tick": 93120, "length": 480, "velocity": 96}, {"pitch": 65, "tick": 94080, "length": 240, "velocity": 104}, {"pitch": 65, "tick": 94320, "length": 480, "velocity": 104}, {"pitch": 65, "tick": 94800, "length": 480, "velocity": 104}, {"pitch": 65, "tick": 95280, "length": 480, "velocity": 104}, {"pitch": 65, "tick": 95760, "length": 480, "velocity": 104}, {"pitch": 65, "tick": 96240, "length": 480, "velocity": 104}, {"pitch": 65, "tick": 96720, "length": 480, "velocity": 104}, {"pitch": 65, "tick": 97200, "length": 480, "velocity": 104}, {"pitch": 65, "tick": 97680, "length": 480, "velocity": 104}, {"pitch": 65, "tick": 98160, "length": 480, "velocity": 104}, {"pitch": 65, "tick": 98640, "length": 480, "velocity": 104}, {"pitch": 65, "tick": 99120, "length": 480, "velocity": 104}, {"pitch": 65, "tick": 99600, "length": 480, "velocity": 104}, {"pitch": 65, "tick": 100080, "length": 480, "velocity": 104}, {"pitch": 65, "tick": 100560, "length": 480, "velocity": 104}, {"pitch": 65, "tick": 101040, "length": 480, "velocity": 104}, {"pitch": 65, "tick": 101520, "length": 480, "velocity": 104}, {"pitch": 65, "tick": 102000, "length": 480, "velocity": 104}, {"pitch": 65, "tick": 102480, "length": 480, "velocity": 104}, {"pitch": 65, "tick": 102960, "length": 480, "velocity": 104}, {"pitch": 65, "tick": 103440, "length": 480, "velocity": 104}, {"pitch": 65, "tick": 103920, "length": 480, "velocity": 104}, {"pitch": 65, "tick": 104400, "length": 480, "velocity": 104}, {"pitch": 65, "tick": 104880, "length": 480, "velocity": 104}, {"pitch": 65, "tick": 105360, "length": 480, "velocity": 104}, {"pitch": 65, "tick": 105840, "length": 480, "velocity": 104}, {"pitch": 65, "tick": 106320, "length": 480, "velocity": 104}, {"pitch": 65, "tick": 106800, "length": 480, "velocity": 104}, {"pitch": 65, "tick": 107280, "length": 480, "velocity": 104}, {"pitch": 65, "tick": 107760, "length": 480, "velocity": 104}, {"pitch": 65, "tick": 108240, "length": 480, "velocity": 104}, {"pitch": 65, "tick": 108720, "length": 480, "velocity": 104}, {"pitch": 65, "tick": 109200, "length": 480, "velocity": 104}, {"pitch": 65, "tick": 109680, "length": 480, "velocity": 104}, {"pitch": 65, "tick": 110160, "length": 480, "velocity": 104}, {"pitch": 65, "tick": 110640, "length": 480, "velocity": 104}, {"pitch": 65, "tick": 111120, "length": 480, "velocity": 104}, {"pitch": 65, "tick": 111600, "length": 480, "velocity": 104}, {"pitch": 65, "tick": 112080, "length": 480, "velocity": 104}, {"pitch": 65, "tick": 112560, "length": 480, "velocity": 104}, {"pitch": 65, "tick": 113040, "length": 480, "velocity": 104}, {"pitch": 65, "tick": 113520, "length": 480, "velocity": 104}, {"pitch": 65, "tick": 114000, "length": 480, "velocity": 104}, {"pitch": 65, "tick": 114480, "length": 480, "velocity": 104}, {"pitch": 65, "tick": 114960, "length": 480, "velocity": 104}, {"pitch": 65, "tick": 115440, "length": 480, "velocity": 104}, {"pitch": 65, "tick": 115920, "length": 480, "velocity": 104}, {"pitch": 65, "tick": 116400, "length": 480, "velocity": 104}, {"pitch": 65, "tick": 116880, "length": 480, "velocity": 104}, {"pitch": 65, "tick": 117360, "length": 480, "velocity": 104}, {"pitch": 65, "tick": 117840, "length": 480, "velocity": 104}, {"pitch": 65, "tick": 118320, "length": 480, "velocity": 104}, {"pitch": 65, "tick": 118800, "length": 480, "velocity": 104}, {"pitch": 65, "tick": 119280, "length": 480, "velocity": 104}, {"pitch": 65, "tick": 119760, "length": 480, "velocity": 104}, {"pitch": 65, "tick": 120240, "length": 480, "velocity": 104}, {"pitch": 65, "tick": 120720, "length": 480, "velocity": 104}, {"pitch": 65, "tick": 121200, "length": 480, "velocity": 104}, {"pitch": 65, "tick": 121680, "length": 480, "velocity": 104}, {"pitch": 65, "tick": 122160, "length": 480, "velocity": 104}, {"pitch": 65, "tick": 122640, "length": 480, "velocity": 104}, {"pitch": 65, "tick": 123120, "length": 480, "velocity": 104}, {"pitch": 65, "tick": 123600, "length": 480, "velocity": 104}, {"pitch": 65, "tick": 124080, "length": 480, "velocity": 104}, {"pitch": 65, "tick": 124560, "length": 480, "velocity": 104}, {"pitch": 65, "tick": 125040, "length": 480, "velocity": 104}, {"pitch": 65, "tick": 125520, "length": 480, "velocity": 104}, {"pitch": 65, "tick": 126000, "length": 480, "velocity": 104}, {"pitch": 65, "tick": 126480, "length": 480, "velocity": 104}, {"pitch": 65, "tick": 126960, "length": 480, "velocity": 104}, {"pitch": 65, "tick": 127440, "length": 480, "velocity": 104}, {"pitch": 65, "tick": 127920, "length": 480, "velocity": 104}, {"pitch": 65, "tick": 128400, "length": 480, "velocity": 104}, {"pitch": 65, "tick": 128880, "length": 480, "velocity": 104}, {"pitch": 65, "tick": 129360, "length": 480, "velocity": 104}, {"pitch": 65, "tick": 129840, "length": 480, "velocity": 104}, {"pitch": 65, "tick": 130320, "length": 480, "velocity": 104}, {"pitch": 65, "tick": 130800, "length": 480, "velocity": 104}, {"pitch": 65, "tick": 131280, "length": 480, "velocity": 104}, {"pitch": 65, "tick": 131760, "length": 480, "velocity": 104}, {"pitch": 65, "tick": 132240, "length": 480, "velocity": 104}, {"pitch": 65, "tick": 132720, "length": 480, "velocity": 104}, {"pitch": 65, "tick": 133200, "length": 480, "velocity": 104}, {"pitch": 65, "tick": 133680, "length": 480, "velocity": 104}, {"pitch": 65, "tick": 134160, "length": 480, "velocity": 104}, {"pitch": 65, "tick": 134640, "length": 480, "velocity": 104}, {"pitch": 65, "tick": 135120, "length": 480, "velocity": 104}, {"pitch": 65, "tick": 135600, "length": 480, "velocity": 104}, {"pitch": 65, "tick": 136080, "length": 480, "velocity": 104}, {"pitch": 65, "tick": 136560, "length": 480, "velocity": 104}, {"pitch": 65, "tick": 137040, "length": 480, "velocity": 104}, {"pitch": 65, "tick": 137520, "length": 480, "velocity": 104}, {"pitch": 65, "tick": 138000, "length": 480, "velocity": 104}, {"pitch": 65, "tick": 138480, "length": 480, "velocity": 104}, {"pitch": 65, "tick": 138960, "length": 480, "velocity": 104}, {"pitch": 65, "tick": 139440, "length": 480, "velocity": 104}, {"pitch": 65, "tick": 139920, "length": 480, "velocity": 104}, {"pitch": 65, "tick": 140400, "length": 480, "velocity": 104}, {"pitch": 65, "tick": 140880, "length": 480, "velocity": 104}, {"pitch": 65, "tick": 141360, "length": 480, "velocity": 104}, {"pitch": 65, "tick": 141840, "length": 480, "velocity": 104}, {"pitch": 65, "tick": 142320, "length": 480, "velocity": 104}, {"pitch": 65, "tick": 142800, "length": 480, "velocity": 104}, {"pitch": 65, "tick": 143280, "length": 480, "velocity": 104}, {"pitch": 65, "tick": 143760, "length": 480, "velocity": 104}, {"pitch": 65, "tick": 144240, "length": 480, "velocity": 104}, {"pitch": 65, "tick": 144720, "length": 480, "velocity": 104}, {"pitch": 65, "tick": 145200, "length": 480, "velocity": 104}, {"pitch": 65, "tick": 145680, "length": 480, "velocity": 104}, {"pitch": 65, "tick": 146160, "length": 480, "velocity": 104}, {"pitch": 65, "tick": 146640, "length": 480, "velocity": 104}, {"pitch": 65, "tick": 147120, "length": 480, "velocity": 104}, {"pitch": 65, "tick": 147600, "length": 480, "velocity": 104}, {"pitch": 65, "tick": 148080, "length": 480, "velocity": 104}, {"pitch": 65, "tick": 148560, "length": 480, "velocity": 104}, {"pitch": 65, "tick": 149040, "length": 480, "velocity": 104}, {"pitch": 65, "tick": 149520, "length": 480, "velocity": 104}, {"pitch": 65, "tick": 150000, "length": 480, "velocity": 104}, {"pitch": 65, "tick": 150480, "length": 480, "velocity": 104}, {"pitch": 65, "tick": 150960, "length": 480, "velocity": 104}, {"pitch": 65, "tick": 151440, "length": 480, "velocity": 104}, {"pitch": 65, "tick": 151920, "length": 480, "velocity": 104}, {"pitch": 65, "tick": 152400, "length": 480, "velocity": 104}, {"pitch": 65, "tick": 152880, "length": 480, "velocity": 104}, {"pitch": 65, "tick": 153360, "length": 480, "velocity": 104}, {"pitch": 65, "tick": 153840, "length": 480, "velocity": 104}, {"pitch": 65, "tick": 154320, "length": 480, "velocity": 104}, {"pitch": 65, "tick": 154800, "length": 120, "velocity": 104}, {"pitch": 65, "tick": 154920, "length": 120, "velocity": 104}, {"pitch": 65, "tick": 155040, "length": 240, "velocity": 104}, {"pitch": 65, "tick": 155280, "length": 480, "velocity": 104}, {"pitch": 65, "tick": 155760, "length": 480, "velocity": 104}, {"pitch": 65, "tick": 156240, "length": 480, "velocity": 104}, {"pitch": 65, "tick": 156720, "length": 480, "velocity": 104}, {"pitch": 65, "tick": 157200, "length": 480, "velocity": 104}, {"pitch": 65, "tick": 157680, "length": 480, "velocity": 104}, {"pitch": 65, "tick": 158160, "length": 480, "velocity": 104}, {"pitch": 65, "tick": 158640, "length": 480, "velocity": 104}, {"pitch": 65, "tick": 159120, "length": 480, "velocity": 104}, {"pitch": 65, "tick": 159600, "length": 480, "velocity": 104}, {"pitch": 65, "tick": 160080, "length": 480, "velocity": 104}, {"pitch": 65, "tick": 160560, "length": 480, "velocity": 104}, {"pitch": 65, "tick": 161040, "length": 480, "velocity": 104}, {"pitch": 65, "tick": 161520, "length": 480, "velocity": 104}, {"pitch": 65, "tick": 162000, "length": 480, "velocity": 104}, {"pitch": 65, "tick": 162480, "length": 480, "velocity": 104}, {"pitch": 65, "tick": 162960, "length": 480, "velocity": 104}, {"pitch": 65, "tick": 163440, "length": 480, "velocity": 104}, {"pitch": 65, "tick": 163920, "length": 480, "velocity": 104}, {"pitch": 65, "tick": 164400, "length": 480, "velocity": 104}, {"pitch": 65, "tick": 164880, "length": 480, "velocity": 104}, {"pitch": 65, "tick": 165360, "length": 480, "velocity": 104}, {"pitch": 65, "tick": 165840, "length": 480, "velocity": 104}, {"pitch": 65, "tick": 166320, "length": 480, "velocity": 104}, {"pitch": 65, "tick": 166800, "length": 480, "velocity": 104}, {"pitch": 65, "tick": 167280, "length": 480, "velocity": 104}, {"pitch": 65, "tick": 167760, "length": 480, "velocity": 104}, {"pitch": 65, "tick": 168240, "length": 480, "velocity": 104}, {"pitch": 65, "tick": 168720, "length": 480, "velocity": 104}, {"pitch": 65, "tick": 169200, "length": 480, "velocity": 104}, {"pitch": 65, "tick": 169680, "length": 480, "velocity": 104}, {"pitch": 65, "tick": 170160, "length": 120, "velocity": 104}, {"pitch": 65, "tick": 170280, "length": 120, "velocity": 104}, {"pitch": 65, "tick": 170400, "length": 240, "velocity": 104}, {"pitch": 65, "tick": 170640, "length": 480, "velocity": 104}, {"pitch": 65, "tick": 171120, "length": 480, "velocity": 104}, {"pitch": 65, "tick": 171600, "length": 480, "velocity": 104}, {"pitch": 65, "tick": 172080, "length": 480, "velocity": 104}, {"pitch": 65, "tick": 172560, "length": 480, "velocity": 104}, {"pitch": 65, "tick": 173040, "length": 480, "velocity": 104}, {"pitch": 65, "tick": 173520, "length": 480, "velocity": 104}, {"pitch": 65, "tick": 174000, "length": 480, "velocity": 104}, {"pitch": 65, "tick": 174480, "length": 480, "velocity": 104}, {"pitch": 65, "tick": 174960, "length": 480, "velocity": 104}, {"pitch": 65, "tick": 175440, "length": 480, "velocity": 104}, {"pitch": 65, "tick": 175920, "length": 480, "velocity": 104}, {"pitch": 65, "tick": 176400, "length": 480, "velocity": 104}, {"pitch": 65, "tick": 176880, "length": 480, "velocity": 104}, {"pitch": 65, "tick": 177360, "length": 480, "velocity": 104}, {"pitch": 65, "tick": 177840, "length": 480, "velocity": 104}, {"pitch": 65, "tick": 178320, "length": 480, "velocity": 104}, {"pitch": 65, "tick": 178800, "length": 480, "velocity": 104}, {"pitch": 65, "tick": 179280, "length": 480, "velocity": 104}, {"pitch": 65, "tick": 179760, "length": 480, "velocity": 104}, {"pitch": 65, "tick": 180240, "length": 480, "velocity": 104}, {"pitch": 65, "tick": 180720, "length": 480, "velocity": 104}, {"pitch": 65, "tick": 181200, "length": 480, "velocity": 104}, {"pitch": 65, "tick": 181680, "length": 480, "velocity": 104}, {"pitch": 65, "tick": 182160, "length": 480, "velocity": 104}, {"pitch": 65, "tick": 182640, "length": 480, "velocity": 104}, {"pitch": 65, "tick": 183120, "length": 480, "velocity": 104}, {"pitch": 65, "tick": 183600, "length": 480, "velocity": 104}, {"pitch": 65, "tick": 184080, "length": 480, "velocity": 104}, {"pitch": 65, "tick": 184560, "length": 480, "velocity": 104}, {"pitch": 65, "tick": 185040, "length": 480, "velocity": 104}, {"pitch": 65, "tick": 185520, "length": 120, "velocity": 104}, {"pitch": 65, "tick": 185640, "length": 120, "velocity": 104}, {"pitch": 65, "tick": 185760, "length": 240, "velocity": 104}, {"pitch": 65, "tick": 186000, "length": 480, "velocity": 104}, {"pitch": 65, "tick": 186480, "length": 480, "velocity": 104}, {"pitch": 65, "tick": 186960, "length": 480, "velocity": 104}, {"pitch": 65, "tick": 187440, "length": 480, "velocity": 104}, {"pitch": 65, "tick": 187920, "length": 480, "velocity": 104}, {"pitch": 65, "tick": 188400, "length": 480, "velocity": 104}, {"pitch": 65, "tick": 188880, "length": 480, "velocity": 104}, {"pitch": 65, "tick": 189360, "length": 480, "velocity": 104}, {"pitch": 65, "tick": 189840, "length": 480, "velocity": 104}, {"pitch": 65, "tick": 190320, "length": 480, "velocity": 104}, {"pitch": 65, "tick": 190800, "length": 480, "velocity": 104}, {"pitch": 65, "tick": 191280, "length": 480, "velocity": 104}, {"pitch": 65, "tick": 191760, "length": 480, "velocity": 104}, {"pitch": 65, "tick": 192240, "length": 480, "velocity": 104}, {"pitch": 65, "tick": 192720, "length": 480, "velocity": 104}, {"pitch": 65, "tick": 193200, "length": 480, "velocity": 104}, {"pitch": 65, "tick": 193680, "length": 480, "velocity": 104}, {"pitch": 65, "tick": 194160, "length": 480, "velocity": 104}, {"pitch": 65, "tick": 194640, "length": 480, "velocity": 104}, {"pitch": 65, "tick": 195120, "length": 480, "velocity": 104}, {"pitch": 65, "tick": 195600, "length": 480, "velocity": 104}, {"pitch": 65, "tick": 196080, "length": 480, "velocity": 104}, {"pitch": 65, "tick": 196560, "length": 480, "velocity": 104}, {"pitch": 65, "tick": 197040, "length": 480, "velocity": 104}, {"pitch": 65, "tick": 197520, "length": 480, "velocity": 104}, {"pitch": 65, "tick": 198000, "length": 480, "velocity": 104}, {"pitch": 65, "tick": 198480, "length": 480, "velocity": 104}, {"pitch": 65, "tick": 198960, "length": 480, "velocity": 104}, {"pitch": 65, "tick": 199440, "length": 480, "velocity": 104}, {"pitch": 65, "tick": 199920, "length": 480, "velocity": 104}, {"pitch": 65, "tick": 200400, "length": 480, "velocity": 104}, {"pitch": 65, "tick": 200880, "length": 120, "velocity": 104}, {"pitch": 65, "tick": 201000, "length": 120, "velocity": 104}, {"pitch": 65, "tick": 201120, "length": 240, "velocity": 104}, {"pitch": 65, "tick": 201360, "length": 480, "velocity": 104}, {"pitch": 65, "tick": 201840, "length": 480, "velocity": 104}, {"pitch": 65, "tick": 202320, "length": 480, "velocity": 104}, {"pitch": 65, "tick": 202800, "length": 480, "velocity": 104}, {"pitch": 65, "tick": 203280, "length": 480, "velocity": 104}, {"pitch": 65, "tick": 203760, "length": 480, "velocity": 104}, {"pitch": 65, "tick": 204240, "length": 480, "velocity": 104}, {"pitch": 65, "tick": 204720, "length": 480, "velocity": 104}, {"pitch": 65, "tick": 205200, "length": 480, "velocity": 104}, {"pitch": 65, "tick": 205680, "length": 480, "velocity": 104}, {"pitch": 65, "tick": 206160, "length": 480, "velocity": 104}, {"pitch": 65, "tick": 206640, "length": 480, "velocity": 104}, {"pitch": 65, "tick": 207120, "length": 480, "velocity": 104}, {"pitch": 65, "tick": 207600, "length": 480, "velocity": 104}, {"pitch": 65, "tick": 208080, "length": 480, "velocity": 104}, {"pitch": 65, "tick": 208560, "length": 480, "velocity": 104}, {"pitch": 65, "tick": 209040, "length": 480, "velocity": 104}, {"pitch": 65, "tick": 209520, "length": 480, "velocity": 104}, {"pitch": 65, "tick": 210000, "length": 480, "velocity": 104}, {"pitch": 65, "tick": 210480, "length": 480, "velocity": 104}, {"pitch": 65, "tick": 210960, "length": 480, "velocity": 104}, {"pitch": 65, "tick": 211440, "length": 480, "velocity": 104}, {"pitch": 65, "tick": 211920, "length": 480, "velocity": 104}, {"pitch": 65, "tick": 212400, "length": 480, "velocity": 104}, {"pitch": 65, "tick": 212880, "length": 480, "velocity": 104}, {"pitch": 65, "tick": 213360, "length": 480, "velocity": 104}, {"pitch": 65, "tick": 213840, "length": 480, "velocity": 104}, {"pitch": 65, "tick": 214320, "length": 480, "velocity": 104}, {"pitch": 65, "tick": 214800, "length": 480, "velocity": 104}, {"pitch": 65, "tick": 215280, "length": 480, "velocity": 104}, {"pitch": 65, "tick": 215760, "length": 480, "velocity": 104}, {"pitch": 65, "tick": 216240, "length": 120, "velocity": 104}, {"pitch": 65, "tick": 216360, "length": 120, "velocity": 104}, {"pitch": 65, "tick": 216480, "length": 240, "velocity": 104}, {"pitch": 65, "tick": 216720, "length": 480, "velocity": 104}, {"pitch": 65, "tick": 286320, "length": 480, "velocity": 104}, {"pitch": 65, "tick": 286800, "length": 480, "velocity": 104}, {"pitch": 65, "tick": 287280, "length": 480, "velocity": 104}, {"pitch": 65, "tick": 287760, "length": 480, "velocity": 104}, {"pitch": 65, "tick": 288240, "length": 480, "velocity": 104}, {"pitch": 65, "tick": 288720, "length": 480, "velocity": 104}, {"pitch": 65, "tick": 289200, "length": 480, "velocity": 104}, {"pitch": 65, "tick": 289680, "length": 480, "velocity": 104}, {"pitch": 65, "tick": 290160, "length": 480, "velocity": 104}, {"pitch": 65, "tick": 290640, "length": 480, "velocity": 104}, {"pitch": 65, "tick": 291120, "length": 480, "velocity": 104}, {"pitch": 65, "tick": 291600, "length": 480, "velocity": 104}, {"pitch": 65, "tick": 292080, "length": 480, "velocity": 104}, {"pitch": 65, "tick": 292560, "length": 480, "velocity": 104}, {"pitch": 65, "tick": 293040, "length": 480, "velocity": 104}, {"pitch": 65, "tick": 293520, "length": 480, "velocity": 104}, {"pitch": 65, "tick": 294000, "length": 480, "velocity": 104}, {"pitch": 65, "tick": 294480, "length": 480, "velocity": 104}, {"pitch": 65, "tick": 294960, "length": 480, "velocity": 104}, {"pitch": 65, "tick": 295440, "length": 480, "velocity": 104}, {"pitch": 65, "tick": 295920, "length": 480, "velocity": 104}, {"pitch": 65, "tick": 296400, "length": 480, "velocity": 104}, {"pitch": 65, "tick": 296880, "length": 480, "velocity": 104}, {"pitch": 65, "tick": 297360, "length": 480, "velocity": 104}, {"pitch": 65, "tick": 297840, "length": 480, "velocity": 104}, {"pitch": 65, "tick": 298320, "length": 480, "velocity": 104}, {"pitch": 65, "tick": 298800, "length": 480, "velocity": 104}, {"pitch": 65, "tick": 299280, "length": 480, "velocity": 104}, {"pitch": 65, "tick": 299760, "length": 480, "velocity": 104}, {"pitch": 65, "tick": 300240, "length": 480, "velocity": 104}, {"pitch": 65, "tick": 300720, "length": 120, "velocity": 104}, {"pitch": 65, "tick": 300840, "length": 120, "velocity": 104}, {"pitch": 65, "tick": 300960, "length": 240, "velocity": 104}, {"pitch": 65, "tick": 301200, "length": 480, "velocity": 104}, {"pitch": 65, "tick": 301680, "length": 480, "velocity": 104}, {"pitch": 65, "tick": 302160, "length": 480, "velocity": 104}, {"pitch": 65, "tick": 302640, "length": 480, "velocity": 104}, {"pitch": 65, "tick": 303120, "length": 480, "velocity": 104}, {"pitch": 65, "tick": 303600, "length": 480, "velocity": 104}, {"pitch": 65, "tick": 304080, "length": 480, "velocity": 104}, {"pitch": 65, "tick": 304560, "length": 480, "velocity": 104}, {"pitch": 65, "tick": 305040, "length": 480, "velocity": 104}, {"pitch": 65, "tick": 305520, "length": 480, "velocity": 104}, {"pitch": 65, "tick": 306000, "length": 480, "velocity": 104}, {"pitch": 65, "tick": 306480, "length": 480, "velocity": 104}, {"pitch": 65, "tick": 306960, "length": 480, "velocity": 104}, {"pitch": 65, "tick": 307440, "length": 480, "velocity": 104}, {"pitch": 65, "tick": 307920, "length": 480, "velocity": 104}, {"pitch": 65, "tick": 308400, "length": 480, "velocity": 104}, {"pitch": 65, "tick": 308880, "length": 480, "velocity": 104}, {"pitch": 65, "tick": 309360, "length": 480, "velocity": 104}, {"pitch": 65, "tick": 309840, "length": 480, "velocity": 104}, {"pitch": 65, "tick": 310320, "length": 480, "velocity": 104}, {"pitch": 65, "tick": 310800, "length": 480, "velocity": 104}, {"pitch": 65, "tick": 311280, "length": 480, "velocity": 104}, {"pitch": 65, "tick": 311760, "length": 480, "velocity": 104}, {"pitch": 65, "tick": 312240, "length": 480, "velocity": 104}, {"pitch": 65, "tick": 312720, "length": 480, "velocity": 104}, {"pitch": 65, "tick": 313200, "length": 480, "velocity": 104}, {"pitch": 65, "tick": 313680, "length": 480, "velocity": 104}, {"pitch": 65, "tick": 314160, "length": 480, "velocity": 104}, {"pitch": 65, "tick": 314640, "length": 480, "velocity": 104}, {"pitch": 65, "tick": 315120, "length": 480, "velocity": 104}, {"pitch": 65, "tick": 315600, "length": 480, "velocity": 104}, {"pitch": 65, "tick": 316080, "length": 120, "velocity": 104}, {"pitch": 65, "tick": 316200, "length": 120, "velocity": 104}, {"pitch": 65, "tick": 316320, "length": 240, "velocity": 104}, {"pitch": 65, "tick": 316560, "length": 480, "velocity": 104}, {"pitch": 65, "tick": 317040, "length": 480, "velocity": 104}, {"pitch": 65, "tick": 317520, "length": 480, "velocity": 104}, {"pitch": 65, "tick": 318000, "length": 480, "velocity": 104}, {"pitch": 65, "tick": 318480, "length": 480, "velocity": 104}, {"pitch": 65, "tick": 318960, "length": 480, "velocity": 104}, {"pitch": 65, "tick": 319440, "length": 480, "velocity": 104}, {"pitch": 65, "tick": 319920, "length": 480, "velocity": 104}, {"pitch": 65, "tick": 320400, "length": 480, "velocity": 104}, {"pitch": 65, "tick": 320880, "length": 480, "velocity": 104}, {"pitch": 65, "tick": 321360, "length": 480, "velocity": 104}, {"pitch": 65, "tick": 321840, "length": 480, "velocity": 104}, {"pitch": 65, "tick": 322320, "length": 480, "velocity": 104}, {"pitch": 65, "tick": 322800, "length": 480, "velocity": 104}, {"pitch": 65, "tick": 323280, "length": 480, "velocity": 104}, {"pitch": 65, "tick": 323760, "length": 480, "velocity": 104}, {"pitch": 65, "tick": 324240, "length": 480, "velocity": 104}, {"pitch": 65, "tick": 324720, "length": 480, "velocity": 104}, {"pitch": 65, "tick": 325200, "length": 480, "velocity": 104}, {"pitch": 65, "tick": 325680, "length": 480, "velocity": 104}, {"pitch": 65, "tick": 326160, "length": 480, "velocity": 104}, {"pitch": 65, "tick": 326640, "length": 480, "velocity": 104}, {"pitch": 65, "tick": 327120, "length": 480, "velocity": 104}, {"pitch": 65, "tick": 327600, "length": 480, "velocity": 104}, {"pitch": 65, "tick": 328080, "length": 480, "velocity": 104}, {"pitch": 65, "tick": 328560, "length": 480, "velocity": 104}, {"pitch": 65, "tick": 329040, "length": 480, "velocity": 104}, {"pitch": 65, "tick": 329520, "length": 480, "velocity": 104}, {"pitch": 65, "tick": 330000, "length": 480, "velocity": 104}, {"pitch": 65, "tick": 330480, "length": 480, "velocity": 104}, {"pitch": 65, "tick": 330960, "length": 480, "velocity": 104}, {"pitch": 65, "tick": 331440, "length": 120, "velocity": 104}, {"pitch": 65, "tick": 331560, "length": 120, "velocity": 104}, {"pitch": 65, "tick": 331680, "length": 240, "velocity": 104}, {"pitch": 65, "tick": 331920, "length": 480, "velocity": 104}, {"pitch": 65, "tick": 332400, "length": 480, "velocity": 104}, {"pitch": 65, "tick": 332880, "length": 480, "velocity": 104}, {"pitch": 65, "tick": 333360, "length": 480, "velocity": 104}, {"pitch": 65, "tick": 333840, "length": 480, "velocity": 104}, {"pitch": 65, "tick": 334320, "length": 480, "velocity": 104}, {"pitch": 65, "tick": 334800, "length": 480, "velocity": 104}, {"pitch": 65, "tick": 335280, "length": 480, "velocity": 104}, {"pitch": 65, "tick": 335760, "length": 480, "velocity": 104}, {"pitch": 65, "tick": 336240, "length": 480, "velocity": 104}, {"pitch": 65, "tick": 336720, "length": 480, "velocity": 104}, {"pitch": 65, "tick": 337200, "length": 480, "velocity": 104}, {"pitch": 65, "tick": 337680, "length": 480, "velocity": 104}, {"pitch": 65, "tick": 338160, "length": 480, "velocity": 104}, {"pitch": 65, "tick": 338640, "length": 480, "velocity": 104}, {"pitch": 65, "tick": 339120, "length": 480, "velocity": 104}, {"pitch": 65, "tick": 339600, "length": 480, "velocity": 104}, {"pitch": 65, "tick": 340080, "length": 480, "velocity": 104}, {"pitch": 65, "tick": 340560, "length": 480, "velocity": 104}, {"pitch": 65, "tick": 341040, "length": 480, "velocity": 104}, {"pitch": 65, "tick": 341520, "length": 480, "velocity": 104}, {"pitch": 65, "tick": 342000, "length": 480, "velocity": 104}, {"pitch": 65, "tick": 342480, "length": 480, "velocity": 104}, {"pitch": 65, "tick": 342960, "length": 480, "velocity": 104}, {"pitch": 65, "tick": 343440, "length": 480, "velocity": 104}, {"pitch": 65, "tick": 343920, "length": 480, "velocity": 104}, {"pitch": 65, "tick": 344400, "length": 480, "velocity": 104}, {"pitch": 65, "tick": 344880, "length": 480, "velocity": 104}, {"pitch": 65, "tick": 345360, "length": 480, "velocity": 104}, {"pitch": 65, "tick": 345840, "length": 480, "velocity": 104}, {"pitch": 65, "tick": 346320, "length": 480, "velocity": 104}, {"pitch": 65, "tick": 346800, "length": 120, "velocity": 104}, {"pitch": 65, "tick": 346920, "length": 120, "velocity": 104}, {"pitch": 65, "tick": 347040, "length": 240, "velocity": 104}, {"pitch": 65, "tick": 347280, "length": 480, "velocity": 104}, {"pitch": 65, "tick": 347760, "length": 480, "velocity": 104}, {"pitch": 65, "tick": 348240, "length": 480, "velocity": 104}, {"pitch": 65, "tick": 348720, "length": 480, "velocity": 104}, {"pitch": 65, "tick": 349200, "length": 480, "velocity": 104}, {"pitch": 65, "tick": 349680, "length": 480, "velocity": 104}, {"pitch": 65, "tick": 350160, "length": 480, "velocity": 104}, {"pitch": 65, "tick": 350640, "length": 480, "velocity": 104}, {"pitch": 65, "tick": 351120, "length": 480, "velocity": 104}, {"pitch": 65, "tick": 351600, "length": 480, "velocity": 104}, {"pitch": 65, "tick": 352080, "length": 480, "velocity": 104}, {"pitch": 65, "tick": 352560, "length": 480, "velocity": 104}, {"pitch": 65, "tick": 353040, "length": 480, "velocity": 104}, {"pitch": 65, "tick": 353520, "length": 480, "velocity": 104}, {"pitch": 65, "tick": 354000, "length": 480, "velocity": 104}, {"pitch": 65, "tick": 354480, "length": 480, "velocity": 104}, {"pitch": 65, "tick": 354960, "length": 480, "velocity": 104}, {"pitch": 65, "tick": 355440, "length": 480, "velocity": 104}, {"pitch": 65, "tick": 355920, "length": 480, "velocity": 104}, {"pitch": 65, "tick": 356400, "length": 480, "velocity": 104}, {"pitch": 65, "tick": 356880, "length": 480, "velocity": 104}, {"pitch": 65, "tick": 357360, "length": 480, "velocity": 104}, {"pitch": 65, "tick": 357840, "length": 480, "velocity": 104}, {"pitch": 65, "tick": 358320, "length": 480, "velocity": 104}, {"pitch": 65, "tick": 358800, "length": 480, "velocity": 104}, {"pitch": 65, "tick": 359280, "length": 480, "velocity": 104}, {"pitch": 65, "tick": 359760, "length": 480, "velocity": 104}, {"pitch": 65, "tick": 360240, "length": 480, "velocity": 104}, {"pitch": 65, "tick": 360720, "length": 480, "velocity": 104}, {"pitch": 65, "tick": 361200, "length": 480, "velocity": 104}, {"pitch": 65, "tick": 361680, "length": 480, "velocity": 104}, {"pitch": 65, "tick": 362160, "length": 120, "velocity": 104}, {"pitch": 65, "tick": 362280, "length": 120, "velocity": 104}, {"pitch": 65, "tick": 362400, "length": 240, "velocity": 104}, {"pitch": 65, "tick": 362640, "length": 480, "velocity": 104}, {"pitch": 65, "tick": 363120, "length": 480, "velocity": 104}, {"pitch": 65, "tick": 363600, "length": 480, "velocity": 104}, {"pitch": 65, "tick": 364080, "length": 480, "velocity": 104}, {"pitch": 65, "tick": 364560, "length": 480, "velocity": 104}, {"pitch": 65, "tick": 365040, "length": 480, "velocity": 104}, {"pitch": 65, "tick": 365520, "length": 480, "velocity": 104}, {"pitch": 65, "tick": 366000, "length": 480, "velocity": 104}, {"pitch": 65, "tick": 366480, "length": 480, "velocity": 104}, {"pitch": 65, "tick": 366960, "length": 480, "velocity": 104}, {"pitch": 65, "tick": 367440, "length": 480, "velocity": 104}, {"pitch": 65, "tick": 367920, "length": 480, "velocity": 104}, {"pitch": 65, "tick": 368400, "length": 480, "velocity": 104}, {"pitch": 65, "tick": 368880, "length": 480, "velocity": 104}, {"pitch": 65, "tick": 369360, "length": 480, "velocity": 104}, {"pitch": 65, "tick": 369840, "length": 480, "velocity": 104}, {"pitch": 65, "tick": 370320, "length": 480, "velocity": 104}, {"pitch": 65, "tick": 370800, "length": 480, "velocity": 104}, {"pitch": 65, "tick": 371280, "length": 480, "velocity": 104}, {"pitch": 65, "tick": 371760, "length": 480, "velocity": 104}, {"pitch": 65, "tick": 372240, "length": 480, "velocity": 104}, {"pitch": 65, "tick": 372720, "length": 480, "velocity": 104}, {"pitch": 65, "tick": 373200, "length": 480, "velocity": 104}, {"pitch": 65, "tick": 373680, "length": 480, "velocity": 104}, {"pitch": 65, "tick": 374160, "length": 480, "velocity": 104}, {"pitch": 65, "tick": 374640, "length": 480, "velocity": 104}, {"pitch": 65, "tick": 375120, "length": 480, "velocity": 104}, {"pitch": 65, "tick": 375600, "length": 480, "velocity": 104}, {"pitch": 65, "tick": 376080, "length": 480, "velocity": 104}, {"pitch": 65, "tick": 376560, "length": 480, "velocity": 104}, {"pitch": 65, "tick": 377040, "length": 480, "velocity": 104}, {"pitch": 65, "tick": 377520, "length": 120, "velocity": 104}, {"pitch": 65, "tick": 377640, "length": 120, "velocity": 104}, {"pitch": 65, "tick": 377760, "length": 240, "velocity": 104}, {"pitch": 65, "tick": 378000, "length": 480, "velocity": 104}, {"pitch": 65, "tick": 378480, "length": 480, "velocity": 104}, {"pitch": 65, "tick": 378960, "length": 480, "velocity": 104}, {"pitch": 65, "tick": 379440, "length": 480, "velocity": 104}, {"pitch": 65, "tick": 379920, "length": 480, "velocity": 104}, {"pitch": 65, "tick": 380400, "length": 480, "velocity": 104}, {"pitch": 65, "tick": 380880, "length": 480, "velocity": 104}, {"pitch": 65, "tick": 381360, "length": 480, "velocity": 104}, {"pitch": 65, "tick": 381840, "length": 480, "velocity": 104}, {"pitch": 65, "tick": 382320, "length": 480, "velocity": 104}, {"pitch": 65, "tick": 382800, "length": 480, "velocity": 104}, {"pitch": 65, "tick": 383280, "length": 480, "velocity": 104}, {"pitch": 65, "tick": 383760, "length": 480, "velocity": 104}, {"pitch": 65, "tick": 384240, "length": 480, "velocity": 104}, {"pitch": 65, "tick": 384720, "length": 480, "velocity": 104}, {"pitch": 65, "tick": 385200, "length": 480, "velocity": 104}, {"pitch": 65, "tick": 385680, "length": 480, "velocity": 104}, {"pitch": 65, "tick": 386160, "length": 480, "velocity": 104}, {"pitch": 65, "tick": 386640, "length": 480, "velocity": 104}, {"pitch": 65, "tick": 387120, "length": 480, "velocity": 104}, {"pitch": 65, "tick": 387600, "length": 480, "velocity": 104}, {"pitch": 65, "tick": 388080, "length": 480, "velocity": 104}, {"pitch": 65, "tick": 388560, "length": 480, "velocity": 104}, {"pitch": 65, "tick": 389040, "length": 480, "velocity": 104}, {"pitch": 65, "tick": 389520, "length": 480, "velocity": 104}, {"pitch": 65, "tick": 390000, "length": 480, "velocity": 104}, {"pitch": 65, "tick": 390480, "length": 480, "velocity": 104}, {"pitch": 65, "tick": 390960, "length": 480, "velocity": 104}, {"pitch": 65, "tick": 391440, "length": 480, "velocity": 104}, {"pitch": 65, "tick": 391920, "length": 480, "velocity": 104}, {"pitch": 65, "tick": 392400, "length": 480, "velocity": 104}, {"pitch": 65, "tick": 392880, "length": 120, "velocity": 104}, {"pitch": 65, "tick": 393000, "length": 120, "velocity": 104}, {"pitch": 65, "tick": 393120, "length": 240, "velocity": 104}, {"pitch": 65, "tick": 393360, "length": 480, "velocity": 104}, {"pitch": 65, "tick": 393840, "length": 480, "velocity": 104}, {"pitch": 65, "tick": 394320, "length": 480, "velocity": 104}, {"pitch": 65, "tick": 394800, "length": 480, "velocity": 104}, {"pitch": 65, "tick": 395280, "length": 480, "velocity": 104}, {"pitch": 65, "tick": 395760, "length": 480, "velocity": 104}, {"pitch": 65, "tick": 396240, "length": 480, "velocity": 104}, {"pitch": 65, "tick": 396720, "length": 480, "velocity": 104}, {"pitch": 65, "tick": 397200, "length": 480, "velocity": 104}, {"pitch": 65, "tick": 397680, "length": 480, "velocity": 104}, {"pitch": 65, "tick": 398160, "length": 480, "velocity": 104}, {"pitch": 65, "tick": 398640, "length": 480, "velocity": 104}, {"pitch": 65, "tick": 399120, "length": 480, "velocity": 104}, {"pitch": 65, "tick": 399600, "length": 480, "velocity": 104}, {"pitch": 65, "tick": 400080, "length": 480, "velocity": 104}, {"pitch": 65, "tick": 400560, "length": 480, "velocity": 104}, {"pitch": 65, "tick": 401040, "length": 480, "velocity": 104}, {"pitch": 65, "tick": 401520, "length": 480, "velocity": 104}, {"pitch": 65, "tick": 402000, "length": 480, "velocity": 104}, {"pitch": 65, "tick": 402480, "length": 480, "velocity": 104}, {"pitch": 65, "tick": 402960, "length": 480, "velocity": 104}, {"pitch": 65, "tick": 403440, "length": 480, "velocity": 104}, {"pitch": 65, "tick": 403920, "length": 480, "velocity": 104}, {"pitch": 65, "tick": 404400, "length": 480, "velocity": 104}, {"pitch": 65, "tick": 404880, "length": 480, "velocity": 104}, {"pitch": 65, "tick": 405360, "length": 480, "velocity": 104}, {"pitch": 65, "tick": 405840, "length": 480, "velocity": 104}, {"pitch": 65, "tick": 406320, "length": 480, "velocity": 104}, {"pitch": 65, "tick": 406800, "length": 480, "velocity": 104}, {"pitch": 65, "tick": 407280, "length": 480, "velocity": 104}, {"pitch": 65, "tick": 407760, "length": 480, "velocity": 104}, {"pitch": 65, "tick": 408240, "length": 120, "velocity": 104}, {"pitch": 65, "tick": 408360, "length": 120, "velocity": 104}, {"pitch": 65, "tick": 408480, "length": 240, "velocity": 104}, {"pitch": 65, "tick": 408720, "length": 480, "velocity": 104}]}, {"channel": 12, "length": 470400, "track_name": "\u0082\u00a8\u0092c\u008eq\u0082\u00f0\u0082\u00bf\u0082\u00ac\u0082\u00c1\u0082\u00c4\u0082\u00e9\u0090l", "events": [{"type": "track_name", "name": "\u0082\u00a8\u0092c\u008eq\u0082\u00f0\u0082\u00bf\u0082\u00ac\u0082\u00c1\u0082\u00c4\u0082\u00e9\u0090l", "tick": 0}, {"type": "midi_port", "port": 0, "tick": 0}, {"type": "control_change", "control": 0, "value": 121, "channel": 12, "tick": 480}, {"type": "control_change", "control": 32, "value": 0, "channel": 12, "tick": 480}, {"type": "program_change", "program": 41, "channel": 12, "tick": 480}, {"type": "sysex", "data": [65, 16, 0, 72, 18, 16, 0, 44, 63, 0, 5], "tick": 540}, {"type": "control_change", "control": 7, "value": 56, "channel": 12, "tick": 600}, {"type": "control_change", "control": 10, "value": 64, "channel": 12, "tick": 660}, {"type": "control_change", "control": 91, "value": 0, "channel": 12, "tick": 720}, {"type": "control_change", "control": 93, "value": 127, "channel": 12, "tick": 780}, {"type": "control_change", "control": 74, "value": 64, "channel": 12, "tick": 840}, {"type": "control_change", "control": 71, "value": 64, "channel": 12, "tick": 900}, {"type": "control_change", "control": 73, "value": 64, "channel": 12, "tick": 960}, {"type": "control_change", "control": 75, "value": 64, "channel": 12, "tick": 1020}, {"type": "control_change", "control": 72, "value": 56, "channel": 12, "tick": 1080}, {"type": "control_change", "control": 101, "value": 0, "channel": 12, "tick": 1140}, {"type": "control_change", "control": 100, "value": 0, "channel": 12, "tick": 1140}, {"type": "control_change", "control": 6, "value": 12, "channel": 12, "tick": 1140}, {"type": "control_change", "control": 38, "value": 0, "channel": 12, "tick": 1140}, {"type": "pitchwheel", "channel": 12, "pitch": 0, "tick": 1200}, {"type": "control_change", "control": 1, "value": 0, "channel": 12, "tick": 1260}, {"type": "control_change", "control": 11, "value": 127, "channel": 12, "tick": 1320}, {"type": "control_change", "control": 101, "value": 127, "channel": 12, "tick": 1380}, {"type": "control_change", "control": 100, "value": 127, "channel": 12, "tick": 1380}, {"type": "control_change", "control": 6, "value": 0, "channel": 12, "tick": 1380}, {"type": "control_change", "control": 38, "value": 0, "channel": 12, "tick": 1380}, {"type": "end_of_track", "tick": 470400}], "notes": [{"pitch": 62, "tick": 94560, "length": 240, "velocity": 80}, {"pitch": 55, "tick": 94800, "length": 240, "velocity": 80}, {"pitch": 62, "tick": 95520, "length": 240, "velocity": 80}, {"pitch": 55, "tick": 95760, "length": 240, "velocity": 80}, {"pitch": 62, "tick": 96480, "length": 240, "velocity": 80}, {"pitch": 55, "tick": 96720, "length": 240, "velocity": 80}, {"pitch": 62, "tick": 97440, "length": 240, "velocity": 80}, {"pitch": 55, "tick": 97680, "length": 240, "velocity": 80}, {"pitch": 62, "tick": 98400, "length": 240, "velocity": 80}, {"pitch": 55, "tick": 98640, "length": 240, "velocity": 80}, {"pitch": 62, "tick": 99360, "length": 240, "velocity": 80}, {"pitch": 55, "tick": 99600, "length": 240, "velocity": 80}, {"pitch": 62, "tick": 100320, "length": 240, "velocity": 80}, {"pitch": 55, "tick": 100560, "length": 240, "velocity": 80}, {"pitch": 62, "tick": 101280, "length": 240, "velocity": 80}, {"pitch": 55, "tick": 101520, "length": 240, "velocity": 80}, {"pitch": 62, "tick": 102240, "length": 240, "velocity": 80}, {"pitch": 55, "tick": 102480, "length": 240, "velocity": 80}, {"pitch": 62, "tick": 103200, "length": 240, "velocity": 80}, {"pitch": 55, "tick": 103440, "length": 240, "velocity": 80}, {"pitch": 62, "tick": 104160, "length": 240, "velocity": 80}, {"pitch": 55, "tick": 104400, "length": 240, "velocity": 80}, {"pitch": 62, "tick": 105120, "length": 240, "velocity": 80}, {"pitch": 55, "tick": 105360, "length": 240, "velocity": 80}, {"pitch": 62, "tick": 106080, "length": 240, "velocity": 80}, {"pitch": 55, "tick": 106320, "length": 240, "velocity": 80}, {"pitch": 62, "tick": 107040, "length": 240, "velocity": 80}, {"pitch": 55, "tick": 107280, "length": 240, "velocity": 80}, {"pitch": 62, "tick": 108000, "length": 240, "velocity": 80}, {"pitch": 55, "tick": 108240, "length": 240, "velocity": 80}, {"pitch": 62, "tick": 108960, "length": 240, "velocity": 80}, {"pitch": 55, "tick": 109200, "length": 240, "velocity": 80}, {"pitch": 62, "tick": 109920, "length": 240, "velocity": 80}, {"pitch": 55, "tick": 110160, "length": 240, "velocity": 80}, {"pitch": 62, "tick": 110880, "length": 240, "velocity": 80}, {"pitch": 55, "tick": 111120, "length": 240, "velocity": 80}, {"pitch": 62, "tick": 111840, "length": 240, "velocity": 80}, {"pitch": 55, "tick": 112080, "length": 240, "velocity": 80}, {"pitch": 62, "tick": 112800, "length": 240, "velocity": 80}, {"pitch": 55, "tick": 113040, "length": 240, "velocity": 80}, {"pitch": 62, "tick": 113760, "length": 240, "velocity": 80}, {"pitch": 55, "tick": 114000, "length": 240, "velocity": 80}, {"pitch": 62, "tick": 114720, "length": 240, "velocity": 80}, {"pitch": 55, "tick": 114960, "length": 240, "velocity": 80}, {"pitch": 62, "tick": 115680, "length": 240, "velocity": 80}, {"pitch": 55, "tick": 115920, "length": 240, "velocity": 80}, {"pitch": 62, "tick": 116640, "length": 240, "velocity": 80}, {"pitch": 55, "tick": 116880, "length": 240, "velocity": 80}, {"pitch": 62, "tick": 117600, "length": 240, "velocity": 80}, {"pitch": 55, "tick": 117840, "length": 240, "velocity": 80}, {"pitch": 62, "tick": 118560, "length": 240, "velocity": 80}, {"pitch": 55, "tick": 118800, "length": 240, "velocity": 80}, {"pitch": 62, "tick": 119520, "length": 240, "velocity": 80}, {"pitch": 55, "tick": 119760, "length": 240, "velocity": 80}, {"pitch": 62, "tick": 120480, "length": 240, "velocity": 80}, {"pitch": 55, "tick": 120720, "length": 240, "velocity": 80}, {"pitch": 62, "tick": 121440, "length": 240, "velocity": 80}, {"pitch": 55, "tick": 121680, "length": 240, "velocity": 80}, {"pitch": 62, "tick": 122400, "length": 240, "velocity": 80}, {"pitch": 55, "tick": 122640, "length": 240, "velocity": 80}, {"pitch": 62, "tick": 123360, "length": 240, "velocity": 80}, {"pitch": 55, "tick": 123600, "length": 240, "velocity": 80}, {"pitch": 62, "tick": 124320, "length": 240, "velocity": 80}, {"pitch": 55, "tick": 124560, "length": 240, "velocity": 80}, {"pitch": 62, "tick": 125280, "length": 240, "velocity": 80}, {"pitch": 55, "tick": 125520, "length": 240, "velocity": 80}, {"pitch": 62, "tick": 126240, "length": 240, "velocity": 80}, {"pitch": 55, "tick": 126480, "length": 240, "velocity": 80}, {"pitch": 62, "tick": 127200, "length": 240, "velocity": 80}, {"pitch": 55, "tick": 127440, "length": 240, "velocity": 80}, {"pitch": 62, "tick": 128160, "length": 240, "velocity": 80}, {"pitch": 55, "tick": 128400, "length": 240, "velocity": 80}, {"pitch": 62, "tick": 129120, "length": 240, "velocity": 80}, {"pitch": 55, "tick": 129360, "length": 240, "velocity": 80}, {"pitch": 62, "tick": 130080, "length": 240, "velocity": 80}, {"pitch": 55, "tick": 130320, "length": 240, "velocity": 80}, {"pitch": 62, "tick": 131040, "length": 240, "velocity": 80}, {"pitch": 55, "tick": 131280, "length": 240, "velocity": 80}, {"pitch": 62, "tick": 132000, "length": 240, "velocity": 80}, {"pitch": 55, "tick": 132240, "length": 240, "velocity": 80}, {"pitch": 62, "tick": 132960, "length": 240, "velocity": 80}, {"pitch": 55, "tick": 133200, "length": 240, "velocity": 80}, {"pitch": 62, "tick": 133920, "length": 240, "velocity": 80}, {"pitch": 55, "tick": 134160, "length": 240, "velocity": 80}, {"pitch": 62, "tick": 134880, "length": 240, "velocity": 80}, {"pitch": 55, "tick": 135120, "length": 240, "velocity": 80}, {"pitch": 62, "tick": 135840, "length": 240, "velocity": 80}, {"pitch": 55, "tick": 136080, "length": 240, "velocity": 80}, {"pitch": 62, "tick": 136800, "length": 240, "velocity": 80}, {"pitch": 55, "tick": 137040, "length": 240, "velocity": 80}, {"pitch": 62, "tick": 137760, "length": 240, "velocity": 80}, {"pitch": 55, "tick": 138000, "length": 240, "velocity": 80}, {"pitch": 62, "tick": 138720, "length": 240, "velocity": 80}, {"pitch": 55, "tick": 138960, "length": 240, "velocity": 80}, {"pitch": 62, "tick": 139680, "length": 240, "velocity": 80}, {"pitch": 55, "tick": 139920, "length": 240, "velocity": 80}, {"pitch": 62, "tick": 140640, "length": 240, "velocity": 80}, {"pitch": 55, "tick": 140880, "length": 240, "velocity": 80}, {"pitch": 62, "tick": 141600, "length": 240, "velocity": 80}, {"pitch": 55, "tick": 141840, "length": 240, "velocity": 80}, {"pitch": 62, "tick": 142560, "length": 240, "velocity": 80}, {"pitch": 55, "tick": 142800, "length": 240, "velocity": 80}, {"pitch": 62, "tick": 143520, "length": 240, "velocity": 80}, {"pitch": 55, "tick": 143760, "length": 240, "velocity": 80}, {"pitch": 62, "tick": 144480, "length": 240, "velocity": 80}, {"pitch": 55, "tick": 144720, "length": 240, "velocity": 80}, {"pitch": 62, "tick": 145440, "length": 240, "velocity": 80}, {"pitch": 55, "tick": 145680, "length": 240, "velocity": 80}, {"pitch": 62, "tick": 146400, "length": 240, "velocity": 80}, {"pitch": 55, "tick": 146640, "length": 240, "velocity": 80}, {"pitch": 62, "tick": 147360, "length": 240, "velocity": 80}, {"pitch": 55, "tick": 147600, "length": 240, "velocity": 80}, {"pitch": 62, "tick": 148320, "length": 240, "velocity": 80}, {"pitch": 55, "tick": 148560, "length": 240, "velocity": 80}, {"pitch": 62, "tick": 149280, "length": 240, "velocity": 80}, {"pitch": 55, "tick": 149520, "length": 240, "velocity": 80}, {"pitch": 62, "tick": 150240, "length": 240, "velocity": 80}, {"pitch": 55, "tick": 150480, "length": 240, "velocity": 80}, {"pitch": 62, "tick": 151200, "length": 240, "velocity": 80}, {"pitch": 55, "tick": 151440, "length": 240, "velocity": 80}, {"pitch": 62, "tick": 152160, "length": 240, "velocity": 80}, {"pitch": 55, "tick": 152400, "length": 240, "velocity": 80}, {"pitch": 62, "tick": 153120, "length": 240, "velocity": 80}, {"pitch": 55, "tick": 153360, "length": 240, "velocity": 80}, {"pitch": 62, "tick": 154080, "length": 240, "velocity": 80}, {"pitch": 55, "tick": 154320, "length": 240, "velocity": 80}, {"pitch": 62, "tick": 155040, "length": 240, "velocity": 80}, {"pitch": 55, "tick": 155280, "length": 240, "velocity": 80}, {"pitch": 67, "tick": 155520, "length": 240, "velocity": 96}, {"pitch": 62, "tick": 156000, "length": 240, "velocity": 80}, {"pitch": 55, "tick": 156240, "length": 240, "velocity": 80}, {"pitch": 67, "tick": 156480, "length": 240, "velocity": 96}, {"pitch": 62, "tick": 156960, "length": 240, "velocity": 80}, {"pitch": 67, "tick": 156960, "length": 240, "velocity": 96}, {"pitch": 55, "tick": 157200, "length": 240, "velocity": 80}, {"pitch": 67, "tick": 157440, "length": 240, "velocity": 96}, {"pitch": 62, "tick": 157920, "length": 240, "velocity": 80}, {"pitch": 55, "tick": 158160, "length": 240, "velocity": 80}, {"pitch": 67, "tick": 158400, "length": 240, "velocity": 96}, {"pitch": 62, "tick": 158880, "length": 240, "velocity": 80}, {"pitch": 67, "tick": 158880, "length": 240, "velocity": 96}, {"pitch": 55, "tick": 159120, "length": 240, "velocity": 80}, {"pitch": 67, "tick": 159360, "length": 240, "velocity": 96}, {"pitch": 62, "tick": 159840, "length": 240, "velocity": 80}, {"pitch": 55, "tick": 160080, "length": 240, "velocity": 80}, {"pitch": 67, "tick": 160320, "length": 240, "velocity": 96}, {"pitch": 62, "tick": 160800, "length": 240, "velocity": 80}, {"pitch": 67, "tick": 160800, "length": 240, "velocity": 96}, {"pitch": 55, "tick": 161040, "length": 240, "velocity": 80}, {"pitch": 67, "tick": 161280, "length": 240, "velocity": 96}, {"pitch": 62, "tick": 161760, "length": 240, "velocity": 80}, {"pitch": 55, "tick": 162000, "length": 240, "velocity": 80}, {"pitch": 67, "tick": 162240, "length": 240, "velocity": 96}, {"pitch": 62, "tick": 162720, "length": 240, "velocity": 80}, {"pitch": 67, "tick": 162720, "length": 240, "velocity": 96}, {"pitch": 55, "tick": 162960, "length": 240, "velocity": 80}, {"pitch": 67, "tick": 163200, "length": 240, "velocity": 96}, {"pitch": 62, "tick": 163680, "length": 240, "velocity": 80}, {"pitch": 55, "tick": 163920, "length": 240, "velocity": 80}, {"pitch": 67, "tick": 164160, "length": 240, "velocity": 96}, {"pitch": 62, "tick": 164640, "length": 240, "velocity": 80}, {"pitch": 67, "tick": 164640, "length": 240, "velocity": 96}, {"pitch": 55, "tick": 164880, "length": 240, "velocity": 80}, {"pitch": 67, "tick": 165120, "length": 240, "velocity": 96}, {"pitch": 62, "tick": 165600, "length": 240, "velocity": 80}, {"pitch": 55, "tick": 165840, "length": 240, "velocity": 80}, {"pitch": 67, "tick": 166080, "length": 240, "velocity": 96}, {"pitch": 62, "tick": 166560, "length": 240, "velocity": 80}, {"pitch": 67, "tick": 166560, "length": 240, "velocity": 96}, {"pitch": 55, "tick": 166800, "length": 240, "velocity": 80}, {"pitch": 67, "tick": 167040, "length": 240, "velocity": 96}, {"pitch": 62, "tick": 167520, "length": 240, "velocity": 80}, {"pitch": 55, "tick": 167760, "length": 240, "velocity": 80}, {"pitch": 67, "tick": 168000, "length": 240, "velocity": 96}, {"pitch": 62, "tick": 168480, "length": 240, "velocity": 80}, {"pitch": 67, "tick": 168480, "length": 240, "velocity": 96}, {"pitch": 55, "tick": 168720, "length": 240, "velocity": 80}, {"pitch": 67, "tick": 168960, "length": 240, "velocity": 96}, {"pitch": 62, "tick": 169440, "length": 240, "velocity": 80}, {"pitch": 55, "tick": 169680, "length": 240, "velocity": 80}, {"pitch": 67, "tick": 169920, "length": 240, "velocity": 96}, {"pitch": 62, "tick": 170400, "length": 240, "velocity": 80}, {"pitch": 67, "tick": 170400, "length": 240, "velocity": 96}, {"pitch": 55, "tick": 170640, "length": 240, "velocity": 80}, {"pitch": 67, "tick": 170880, "length": 240, "velocity": 96}, {"pitch": 62, "tick": 171360, "length": 240, "velocity": 80}, {"pitch": 55, "tick": 171600, "length": 240, "velocity": 80}, {"pitch": 67, "tick": 171840, "length": 240, "velocity": 96}, {"pitch": 62, "tick": 172320, "length": 240, "velocity": 80}, {"pitch": 67, "tick": 172320, "length": 240, "velocity": 96}, {"pitch": 55, "tick": 172560, "length": 240, "velocity": 80}, {"pitch": 67, "tick": 172800, "length": 240, "velocity": 96}, {"pitch": 62, "tick": 173280, "length": 240, "velocity": 80}, {"pitch": 55, "tick": 173520, "length": 240, "velocity": 80}, {"pitch": 67, "tick": 173760, "length": 240, "velocity": 96}, {"pitch": 62, "tick": 174240, "length": 240, "velocity": 80}, {"pitch": 67, "tick": 174240, "length": 240, "velocity": 96}, {"pitch": 55, "tick": 174480, "length": 240, "velocity": 80}, {"pitch": 67, "tick": 174720, "length": 240, "velocity": 96}, {"pitch": 62, "tick": 175200, "length": 240, "velocity": 80}, {"pitch": 55, "tick": 175440, "length": 240, "velocity": 80}, {"pitch": 67, "tick": 175680, "length": 240, "velocity": 96}, {"pitch": 62, "tick": 176160, "length": 240, "velocity": 80}, {"pitch": 67, "tick": 176160, "length": 240, "velocity": 96}, {"pitch": 55, "tick": 176400, "length": 240, "velocity": 80}, {"pitch": 67, "tick": 176640, "length": 240, "velocity": 96}, {"pitch": 62, "tick": 177120, "length": 240, "velocity": 80}, {"pitch": 55, "tick": 177360, "length": 240, "velocity": 80}, {"pitch": 67, "tick": 177600, "length": 240, "velocity": 96}, {"pitch": 62, "tick": 178080, "length": 240, "velocity": 80}, {"pitch": 67, "tick": 178080, "length": 240, "velocity": 96}, {"pitch": 55, "tick": 178320, "length": 240, "velocity": 80}, {"pitch": 67, "tick": 178560, "length": 240, "velocity": 96}, {"pitch": 62, "tick": 179040, "length": 240, "velocity": 80}, {"pitch": 55, "tick": 179280, "length": 240, "velocity": 80}, {"pitch": 67, "tick": 179520, "length": 240, "velocity": 96}, {"pitch": 62, "tick": 180000, "length": 240, "velocity": 80}, {"pitch": 67, "tick": 180000, "length": 240, "velocity": 96}, {"pitch": 55, "tick": 180240, "length": 240, "velocity": 80}, {"pitch": 67, "tick": 180480, "length": 240, "velocity": 96}, {"pitch": 62, "tick": 180960, "length": 240, "velocity": 80}, {"pitch": 55, "tick": 181200, "length": 240, "velocity": 80}, {"pitch": 67, "tick": 181440, "length": 240, "velocity": 96}, {"pitch": 62, "tick": 181920, "length": 240, "velocity": 80}, {"pitch": 67, "tick": 181920, "length": 240, "velocity": 96}, {"pitch": 55, "tick": 182160, "length": 240, "velocity": 80}, {"pitch": 67, "tick": 182400, "length": 240, "velocity": 96}, {"pitch": 62, "tick": 182880, "length": 240, "velocity": 80}, {"pitch": 55, "tick": 183120, "length": 240, "velocity": 80}, {"pitch": 67, "tick": 183360, "length": 240, "velocity": 96}, {"pitch": 62, "tick": 183840, "length": 240, "velocity": 80}, {"pitch": 67, "tick": 183840, "length": 240, "velocity": 96}, {"pitch": 55, "tick": 184080, "length": 240, "velocity": 80}, {"pitch": 67, "tick": 184320, "length": 240, "velocity": 96}, {"pitch": 62, "tick": 184800, "length": 240, "velocity": 80}, {"pitch": 55, "tick": 185040, "length": 240, "velocity": 80}, {"pitch": 67, "tick": 185280, "length": 240, "velocity": 96}, {"pitch": 62, "tick": 185760, "length": 240, "velocity": 80}, {"pitch": 67, "tick": 185760, "length": 240, "velocity": 96}, {"pitch": 55, "tick": 186000, "length": 240, "velocity": 80}, {"pitch": 67, "tick": 186240, "length": 240, "velocity": 96}, {"pitch": 62, "tick": 186720, "length": 240, "velocity": 80}, {"pitch": 55, "tick": 186960, "length": 240, "velocity": 80}, {"pitch": 67, "tick": 187200, "length": 240, "velocity": 96}, {"pitch": 62, "tick": 187680, "length": 240, "velocity": 80}, {"pitch": 67, "tick": 187680, "length": 240, "velocity": 96}, {"pitch": 55, "tick": 187920, "length": 240, "velocity": 80}, {"pitch": 67, "tick": 188160, "length": 240, "velocity": 96}, {"pitch": 62, "tick": 188640, "length": 240, "velocity": 80}, {"pitch": 55, "tick": 188880, "length": 240, "velocity": 80}, {"pitch": 67, "tick": 189120, "length": 240, "velocity": 96}, {"pitch": 62, "tick": 189600, "length": 240, "velocity": 80}, {"pitch": 67, "tick": 189600, "length": 240, "velocity": 96}, {"pitch": 55, "tick": 189840, "length": 240, "velocity": 80}, {"pitch": 67, "tick": 190080, "length": 240, "velocity": 96}, {"pitch": 62, "tick": 190560, "length": 240, "velocity": 80}, {"pitch": 55, "tick": 190800, "length": 240, "velocity": 80}, {"pitch": 67, "tick": 191040, "length": 240, "velocity": 96}, {"pitch": 62, "tick": 191520, "length": 240, "velocity": 80}, {"pitch": 67, "tick": 191520, "length": 240, "velocity": 96}, {"pitch": 55, "tick": 191760, "length": 240, "velocity": 80}, {"pitch": 67, "tick": 192000, "length": 240, "velocity": 96}, {"pitch": 62, "tick": 192480, "length": 240, "velocity": 80}, {"pitch": 55, "tick": 192720, "length": 240, "velocity": 80}, {"pitch": 67, "tick": 192960, "length": 240, "velocity": 96}, {"pitch": 62, "tick": 193440, "length": 240, "velocity": 80}, {"pitch": 67, "tick": 193440, "length": 240, "velocity": 96}, {"pitch": 55, "tick": 193680, "length": 240, "velocity": 80}, {"pitch": 67, "tick": 193920, "length": 240, "velocity": 96}, {"pitch": 62, "tick": 194400, "length": 240, "velocity": 80}, {"pitch": 55, "tick": 194640, "length": 240, "velocity": 80}, {"pitch": 67, "tick": 194880, "length": 240, "velocity": 96}, {"pitch": 62, "tick": 195360, "length": 240, "velocity": 80}, {"pitch": 67, "tick": 195360, "length": 240, "velocity": 96}, {"pitch": 55, "tick": 195600, "length": 240, "velocity": 80}, {"pitch": 67, "tick": 195840, "length": 240, "velocity": 96}, {"pitch": 62, "tick": 196320, "length": 240, "velocity": 80}, {"pitch": 55, "tick": 196560, "length": 240, "velocity": 80}, {"pitch": 67, "tick": 196800, "length": 240, "velocity": 96}, {"pitch": 62, "tick": 197280, "length": 240, "velocity": 80}, {"pitch": 67, "tick": 197280, "length": 240, "velocity": 96}, {"pitch": 55, "tick": 197520, "length": 240, "velocity": 80}, {"pitch": 67, "tick": 197760, "length": 240, "velocity": 96}, {"pitch": 62, "tick": 198240, "length": 240, "velocity": 80}, {"pitch": 55, "tick": 198480, "length": 240, "velocity": 80}, {"pitch": 67, "tick": 198720, "length": 240, "velocity": 96}, {"pitch": 62, "tick": 199200, "length": 240, "velocity": 80}, {"pitch": 67, "tick": 199200, "length": 240, "velocity": 96}, {"pitch": 55, "tick": 199440, "length": 240, "velocity": 80}, {"pitch": 67, "tick": 199680, "length": 240, "velocity": 96}, {"pitch": 62, "tick": 200160, "length": 240, "velocity": 80}, {"pitch": 55, "tick": 200400, "length": 240, "velocity": 80}, {"pitch": 67, "tick": 200640, "length": 240, "velocity": 96}, {"pitch": 62, "tick": 201120, "length": 240, "velocity": 80}, {"pitch": 67, "tick": 201120, "length": 240, "velocity": 96}, {"pitch": 55, "tick": 201360, "length": 240, "velocity": 80}, {"pitch": 67, "tick": 201600, "length": 240, "velocity": 96}, {"pitch": 62, "tick": 202080, "length": 240, "velocity": 80}, {"pitch": 55, "tick": 202320, "length": 240, "velocity": 80}, {"pitch": 67, "tick": 202560, "length": 240, "velocity": 96}, {"pitch": 62, "tick": 203040, "length": 240, "velocity": 80}, {"pitch": 67, "tick": 203040, "length": 240, "velocity": 96}, {"pitch": 55, "tick": 203280, "length": 240, "velocity": 80}, {"pitch": 67, "tick": 203520, "length": 240, "velocity": 96}, {"pitch": 62, "tick": 204000, "length": 240, "velocity": 80}, {"pitch": 55, "tick": 204240, "length": 240, "velocity": 80}, {"pitch": 67, "tick": 204480, "length": 240, "velocity": 96}, {"pitch": 62, "tick": 204960, "length": 240, "velocity": 80}, {"pitch": 67, "tick": 204960, "length": 240, "velocity": 96}, {"pitch": 55, "tick": 205200, "length": 240, "velocity": 80}, {"pitch": 67, "tick": 205440, "length": 240, "velocity": 96}, {"pitch": 62, "tick": 205920, "length": 240, "velocity": 80}, {"pitch": 55, "tick": 206160, "length": 240, "velocity": 80}, {"pitch": 67, "tick": 206400, "length": 240, "velocity": 96}, {"pitch": 62, "tick": 206880, "length": 240, "velocity": 80}, {"pitch": 67, "tick": 206880, "length": 240, "velocity": 96}, {"pitch": 55, "tick": 207120, "length": 240, "velocity": 80}, {"pitch": 67, "tick": 207360, "length": 240, "velocity": 96}, {"pitch": 62, "tick": 207840, "length": 240, "velocity": 80}, {"pitch": 55, "tick": 208080, "length": 240, "velocity": 80}, {"pitch": 67, "tick": 208320, "length": 240, "velocity": 96}, {"pitch": 62, "tick": 208800, "length": 240, "velocity": 80}, {"pitch": 67, "tick": 208800, "length": 240, "velocity": 96}, {"pitch": 55, "tick": 209040, "length": 240, "velocity": 80}, {"pitch": 67, "tick": 209280, "length": 240, "velocity": 96}, {"pitch": 62, "tick": 209760, "length": 240, "velocity": 80}, {"pitch": 55, "tick": 210000, "length": 240, "velocity": 80}, {"pitch": 67, "tick": 210240, "length": 240, "velocity": 96}, {"pitch": 62, "tick": 210720, "length": 240, "velocity": 80}, {"pitch": 67, "tick": 210720, "length": 240, "velocity": 96}, {"pitch": 55, "tick": 210960, "length": 240, "velocity": 80}, {"pitch": 67, "tick": 211200, "length": 240, "velocity": 96}, {"pitch": 62, "tick": 211680, "length": 240, "velocity": 80}, {"pitch": 55, "tick": 211920, "length": 240, "velocity": 80}, {"pitch": 67, "tick": 212160, "length": 240, "velocity": 96}, {"pitch": 62, "tick": 212640, "length": 240, "velocity": 80}, {"pitch": 67, "tick": 212640, "length": 240, "velocity": 96}, {"pitch": 55, "tick": 212880, "length": 240, "velocity": 80}, {"pitch": 67, "tick": 213120, "length": 240, "velocity": 96}, {"pitch": 62, "tick": 213600, "length": 240, "velocity": 80}, {"pitch": 55, "tick": 213840, "length": 240, "velocity": 80}, {"pitch": 67, "tick": 214080, "length": 240, "velocity": 96}, {"pitch": 62, "tick": 214560, "length": 240, "velocity": 80}, {"pitch": 67, "tick": 214560, "length": 240, "velocity": 96}, {"pitch": 55, "tick": 214800, "length": 240, "velocity": 80}, {"pitch": 67, "tick": 215040, "length": 240, "velocity": 96}, {"pitch": 62, "tick": 215520, "length": 240, "velocity": 80}, {"pitch": 55, "tick": 215760, "length": 240, "velocity": 80}, {"pitch": 67, "tick": 216000, "length": 240, "velocity": 96}, {"pitch": 62, "tick": 216480, "length": 240, "velocity": 80}, {"pitch": 67, "tick": 216480, "length": 240, "velocity": 96}, {"pitch": 55, "tick": 216720, "length": 240, "velocity": 80}, {"pitch": 67, "tick": 286080, "length": 240, "velocity": 96}, {"pitch": 62, "tick": 286560, "length": 240, "velocity": 80}, {"pitch": 55, "tick": 286800, "length": 240, "velocity": 80}, {"pitch": 67, "tick": 287040, "length": 240, "velocity": 96}, {"pitch": 62, "tick": 287520, "length": 240, "velocity": 80}, {"pitch": 67, "tick": 287520, "length": 240, "velocity": 96}, {"pitch": 55, "tick": 287760, "length": 240, "velocity": 80}, {"pitch": 67, "tick": 288000, "length": 240, "velocity": 96}, {"pitch": 62, "tick": 288480, "length": 240, "velocity": 80}, {"pitch": 55, "tick": 288720, "length": 240, "velocity": 80}, {"pitch": 67, "tick": 288960, "length": 240, "velocity": 96}, {"pitch": 62, "tick": 289440, "length": 240, "velocity": 80}, {"pitch": 67, "tick": 289440, "length": 240, "velocity": 96}, {"pitch": 55, "tick": 289680, "length": 240, "velocity": 80}, {"pitch": 67, "tick": 289920, "length": 240, "velocity": 96}, {"pitch": 62, "tick": 290400, "length": 240, "velocity": 80}, {"pitch": 55, "tick": 290640, "length": 240, "velocity": 80}, {"pitch": 67, "tick": 290880, "length": 240, "velocity": 96}, {"pitch": 62, "tick": 291360, "length": 240, "velocity": 80}, {"pitch": 67, "tick": 291360, "length": 240, "velocity": 96}, {"pitch": 55, "tick": 291600, "length": 240, "velocity": 80}, {"pitch": 67, "tick": 291840, "length": 240, "velocity": 96}, {"pitch": 62, "tick": 292320, "length": 240, "velocity": 80}, {"pitch": 55, "tick": 292560, "length": 240, "velocity": 80}, {"pitch": 67, "tick": 292800, "length": 240, "velocity": 96}, {"pitch": 62, "tick": 293280, "length": 240, "velocity": 80}, {"pitch": 67, "tick": 293280, "length": 240, "velocity": 96}, {"pitch": 55, "tick": 293520, "length": 240, "velocity": 80}, {"pitch": 67, "tick": 293760, "length": 240, "velocity": 96}, {"pitch": 62, "tick": 294240, "length": 240, "velocity": 80}, {"pitch": 55, "tick": 294480, "length": 240, "velocity": 80}, {"pitch": 67, "tick": 294720, "length": 240, "velocity": 96}, {"pitch": 62, "tick": 295200, "length": 240, "velocity": 80}, {"pitch": 67, "tick": 295200, "length": 240, "velocity": 96}, {"pitch": 55, "tick": 295440, "length": 240, "velocity": 80}, {"pitch": 67, "tick": 295680, "length": 240, "velocity": 96}, {"pitch": 62, "tick": 296160, "length": 240, "velocity": 80}, {"pitch": 55, "tick": 296400, "length": 240, "velocity": 80}, {"pitch": 67, "tick": 296640, "length": 240, "velocity": 96}, {"pitch": 62, "tick": 297120, "length": 240, "velocity": 80}, {"pitch": 67, "tick": 297120, "length": 240, "velocity": 96}, {"pitch": 55, "tick": 297360, "length": 240, "velocity": 80}, {"pitch": 67, "tick": 297600, "length": 240, "velocity": 96}, {"pitch": 62, "tick": 298080, "length": 240, "velocity": 80}, {"pitch": 55, "tick": 298320, "length": 240, "velocity": 80}, {"pitch": 67, "tick": 298560, "length": 240, "velocity": 96}, {"pitch": 62, "tick": 299040, "length": 240, "velocity": 80}, {"pitch": 67, "tick": 299040, "length": 240, "velocity": 96}, {"pitch": 55, "tick": 299280, "length": 240, "velocity": 80}, {"pitch": 67, "tick": 299520, "length": 240, "velocity": 96}, {"pitch": 62, "tick": 300000, "length": 240, "velocity": 80}, {"pitch": 55, "tick": 300240, "length": 240, "velocity": 80}, {"pitch": 67, "tick": 300480, "length": 240, "velocity": 96}, {"pitch": 62, "tick": 300960, "length": 240, "velocity": 80}, {"pitch": 67, "tick": 300960, "length": 240, "velocity": 96}, {"pitch": 55, "tick": 301200, "length": 240, "velocity": 80}, {"pitch": 67, "tick": 301440, "length": 240, "velocity": 96}, {"pitch": 62, "tick": 301920, "length": 240, "velocity": 80}, {"pitch": 55, "tick": 302160, "length": 240, "velocity": 80}, {"pitch": 67, "tick": 302400, "length": 240, "velocity": 96}, {"pitch": 62, "tick": 302880, "length": 240, "velocity": 80}, {"pitch": 67, "tick": 302880, "length": 240, "velocity": 96}, {"pitch": 55, "tick": 303120, "length": 240, "velocity": 80}, {"pitch": 67, "tick": 303360, "length": 240, "velocity": 96}, {"pitch": 62, "tick": 303840, "length": 240, "velocity": 80}, {"pitch": 55, "tick": 304080, "length": 240, "velocity": 80}, {"pitch": 67, "tick": 304320, "length": 240, "velocity": 96}, {"pitch": 62, "tick": 304800, "length": 240, "velocity": 80}, {"pitch": 67, "tick": 304800, "length": 240, "velocity": 96}, {"pitch": 55, "tick": 305040, "length": 240, "velocity": 80}, {"pitch": 67, "tick": 305280, "length": 240, "velocity": 96}, {"pitch": 62, "tick": 305760, "length": 240, "velocity": 80}, {"pitch": 55, "tick": 306000, "length": 240, "velocity": 80}, {"pitch": 67, "tick": 306240, "length": 240, "velocity": 96}, {"pitch": 62, "tick": 306720, "length": 240, "velocity": 80}, {"pitch": 67, "tick": 306720, "length": 240, "velocity": 96}, {"pitch": 55, "tick": 306960, "length": 240, "velocity": 80}, {"pitch": 67, "tick": 307200, "length": 240, "velocity": 96}, {"pitch": 62, "tick": 307680, "length": 240, "velocity": 80}, {"pitch": 55, "tick": 307920, "length": 240, "velocity": 80}, {"pitch": 67, "tick": 308160, "length": 240, "velocity": 96}, {"pitch": 62, "tick": 308640, "length": 240, "velocity": 80}, {"pitch": 67, "tick": 308640, "length": 240, "velocity": 96}, {"pitch": 55, "tick": 308880, "length": 240, "velocity": 80}, {"pitch": 67, "tick": 309120, "length": 240, "velocity": 96}, {"pitch": 62, "tick": 309600, "length": 240, "velocity": 80}, {"pitch": 55, "tick": 309840, "length": 240, "velocity": 80}, {"pitch": 67, "tick": 310080, "length": 240, "velocity": 96}, {"pitch": 62, "tick": 310560, "length": 240, "velocity": 80}, {"pitch": 67, "tick": 310560, "length": 240, "velocity": 96}, {"pitch": 55, "tick": 310800, "length": 240, "velocity": 80}, {"pitch": 67, "tick": 311040, "length": 240, "velocity": 96}, {"pitch": 62, "tick": 311520, "length": 240, "velocity": 80}, {"pitch": 55, "tick": 311760, "length": 240, "velocity": 80}, {"pitch": 67, "tick": 312000, "length": 240, "velocity": 96}, {"pitch": 62, "tick": 312480, "length": 240, "velocity": 80}, {"pitch": 67, "tick": 312480, "length": 240, "velocity": 96}, {"pitch": 55, "tick": 312720, "length": 240, "velocity": 80}, {"pitch": 67, "tick": 312960, "length": 240, "velocity": 96}, {"pitch": 62, "tick": 313440, "length": 240, "velocity": 80}, {"pitch": 55, "tick": 313680, "length": 240, "velocity": 80}, {"pitch": 67, "tick": 313920, "length": 240, "velocity": 96}, {"pitch": 62, "tick": 314400, "length": 240, "velocity": 80}, {"pitch": 67, "tick": 314400, "length": 240, "velocity": 96}, {"pitch": 55, "tick": 314640, "length": 240, "velocity": 80}, {"pitch": 67, "tick": 314880, "length": 240, "velocity": 96}, {"pitch": 62, "tick": 315360, "length": 240, "velocity": 80}, {"pitch": 55, "tick": 315600, "length": 240, "velocity": 80}, {"pitch": 67, "tick": 315840, "length": 240, "velocity": 96}, {"pitch": 62, "tick": 316320, "length": 240, "velocity": 80}, {"pitch": 67, "tick": 316320, "length": 240, "velocity": 96}, {"pitch": 55, "tick": 316560, "length": 240, "velocity": 80}, {"pitch": 67, "tick": 316800, "length": 240, "velocity": 96}, {"pitch": 62, "tick": 317280, "length": 240, "velocity": 80}, {"pitch": 55, "tick": 317520, "length": 240, "velocity": 80}, {"pitch": 67, "tick": 317760, "length": 240, "velocity": 96}, {"pitch": 62, "tick": 318240, "length": 240, "velocity": 80}, {"pitch": 67, "tick": 318240, "length": 240, "velocity": 96}, {"pitch": 55, "tick": 318480, "length": 240, "velocity": 80}, {"pitch": 67, "tick": 318720, "length": 240, "velocity": 96}, {"pitch": 62, "tick": 319200, "length": 240, "velocity": 80}, {"pitch": 55, "tick": 319440, "length": 240, "velocity": 80}, {"pitch": 67, "tick": 319680, "length": 240, "velocity": 96}, {"pitch": 62, "tick": 320160, "length": 240, "velocity": 80}, {"pitch": 67, "tick": 320160, "length": 240, "velocity": 96}, {"pitch": 55, "tick": 320400, "length": 240, "velocity": 80}, {"pitch": 67, "tick": 320640, "length": 240, "velocity": 96}, {"pitch": 62, "tick": 321120, "length": 240, "velocity": 80}, {"pitch": 55, "tick": 321360, "length": 240, "velocity": 80}, {"pitch": 67, "tick": 321600, "length": 240, "velocity": 96}, {"pitch": 62, "tick": 322080, "length": 240, "velocity": 80}, {"pitch": 67, "tick": 322080, "length": 240, "velocity": 96}, {"pitch": 55, "tick": 322320, "length": 240, "velocity": 80}, {"pitch": 67, "tick": 322560, "length": 240, "velocity": 96}, {"pitch": 62, "tick": 323040, "length": 240, "velocity": 80}, {"pitch": 55, "tick": 323280, "length": 240, "velocity": 80}, {"pitch": 67, "tick": 323520, "length": 240, "velocity": 96}, {"pitch": 62, "tick": 324000, "length": 240, "velocity": 80}, {"pitch": 67, "tick": 324000, "length": 240, "velocity": 96}, {"pitch": 55, "tick": 324240, "length": 240, "velocity": 80}, {"pitch": 67, "tick": 324480, "length": 240, "velocity": 96}, {"pitch": 62, "tick": 324960, "length": 240, "velocity": 80}, {"pitch": 55, "tick": 325200, "length": 240, "velocity": 80}, {"pitch": 67, "tick": 325440, "length": 240, "velocity": 96}, {"pitch": 62, "tick": 325920, "length": 240, "velocity": 80}, {"pitch": 67, "tick": 325920, "length": 240, "velocity": 96}, {"pitch": 55, "tick": 326160, "length": 240, "velocity": 80}, {"pitch": 67, "tick": 326400, "length": 240, "velocity": 96}, {"pitch": 62, "tick": 326880, "length": 240, "velocity": 80}, {"pitch": 55, "tick": 327120, "length": 240, "velocity": 80}, {"pitch": 67, "tick": 327360, "length": 240, "velocity": 96}, {"pitch": 62, "tick": 327840, "length": 240, "velocity": 80}, {"pitch": 67, "tick": 327840, "length": 240, "velocity": 96}, {"pitch": 55, "tick": 328080, "length": 240, "velocity": 80}, {"pitch": 67, "tick": 328320, "length": 240, "velocity": 96}, {"pitch": 62, "tick": 328800, "length": 240, "velocity": 80}, {"pitch": 55, "tick": 329040, "length": 240, "velocity": 80}, {"pitch": 67, "tick": 329280, "length": 240, "velocity": 96}, {"pitch": 62, "tick": 329760, "length": 240, "velocity": 80}, {"pitch": 67, "tick": 329760, "length": 240, "velocity": 96}, {"pitch": 55, "tick": 330000, "length": 240, "velocity": 80}, {"pitch": 67, "tick": 330240, "length": 240, "velocity": 96}, {"pitch": 62, "tick": 330720, "length": 240, "velocity": 80}, {"pitch": 55, "tick": 330960, "length": 240, "velocity": 80}, {"pitch": 67, "tick": 331200, "length": 240, "velocity": 96}, {"pitch": 62, "tick": 331680, "length": 240, "velocity": 80}, {"pitch": 67, "tick": 331680, "length": 240, "velocity": 96}, {"pitch": 55, "tick": 331920, "length": 240, "velocity": 80}, {"pitch": 67, "tick": 332160, "length": 240, "velocity": 96}, {"pitch": 62, "tick": 332640, "length": 240, "velocity": 80}, {"pitch": 55, "tick": 332880, "length": 240, "velocity": 80}, {"pitch": 67, "tick": 333120, "length": 240, "velocity": 96}, {"pitch": 62, "tick": 333600, "length": 240, "velocity": 80}, {"pitch": 67, "tick": 333600, "length": 240, "velocity": 96}, {"pitch": 55, "tick": 333840, "length": 240, "velocity": 80}, {"pitch": 67, "tick": 334080, "length": 240, "velocity": 96}, {"pitch": 62, "tick": 334560, "length": 240, "velocity": 80}, {"pitch": 55, "tick": 334800, "length": 240, "velocity": 80}, {"pitch": 67, "tick": 335040, "length": 240, "velocity": 96}, {"pitch": 62, "tick": 335520, "length": 240, "velocity": 80}, {"pitch": 67, "tick": 335520, "length": 240, "velocity": 96}, {"pitch": 55, "tick": 335760, "length": 240, "velocity": 80}, {"pitch": 67, "tick": 336000, "length": 240, "velocity": 96}, {"pitch": 62, "tick": 336480, "length": 240, "velocity": 80}, {"pitch": 55, "tick": 336720, "length": 240, "velocity": 80}, {"pitch": 67, "tick": 336960, "length": 240, "velocity": 96}, {"pitch": 62, "tick": 337440, "length": 240, "velocity": 80}, {"pitch": 67, "tick": 337440, "length": 240, "velocity": 96}, {"pitch": 55, "tick": 337680, "length": 240, "velocity": 80}, {"pitch": 67, "tick": 337920, "length": 240, "velocity": 96}, {"pitch": 62, "tick": 338400, "length": 240, "velocity": 80}, {"pitch": 55, "tick": 338640, "length": 240, "velocity": 80}, {"pitch": 67, "tick": 338880, "length": 240, "velocity": 96}, {"pitch": 62, "tick": 339360, "length": 240, "velocity": 80}, {"pitch": 67, "tick": 339360, "length": 240, "velocity": 96}, {"pitch": 55, "tick": 339600, "length": 240, "velocity": 80}, {"pitch": 67, "tick": 339840, "length": 240, "velocity": 96}, {"pitch": 62, "tick": 340320, "length": 240, "velocity": 80}, {"pitch": 55, "tick": 340560, "length": 240, "velocity": 80}, {"pitch": 67, "tick": 340800, "length": 240, "velocity": 96}, {"pitch": 62, "tick": 341280, "length": 240, "velocity": 80}, {"pitch": 67, "tick": 341280, "length": 240, "velocity": 96}, {"pitch": 55, "tick": 341520, "length": 240, "velocity": 80}, {"pitch": 67, "tick": 341760, "length": 240, "velocity": 96}, {"pitch": 62, "tick": 342240, "length": 240, "velocity": 80}, {"pitch": 55, "tick": 342480, "length": 240, "velocity": 80}, {"pitch": 67, "tick": 342720, "length": 240, "velocity": 96}, {"pitch": 62, "tick": 343200, "length": 240, "velocity": 80}, {"pitch": 67, "tick": 343200, "length": 240, "velocity": 96}, {"pitch": 55, "tick": 343440, "length": 240, "velocity": 80}, {"pitch": 67, "tick": 343680, "length": 240, "velocity": 96}, {"pitch": 62, "tick": 344160, "length": 240, "velocity": 80}, {"pitch": 55, "tick": 344400, "length": 240, "velocity": 80}, {"pitch": 67, "tick": 344640, "length": 240, "velocity": 96}, {"pitch": 62, "tick": 345120, "length": 240, "velocity": 80}, {"pitch": 67, "tick": 345120, "length": 240, "velocity": 96}, {"pitch": 55, "tick": 345360, "length": 240, "velocity": 80}, {"pitch": 67, "tick": 345600, "length": 240, "velocity": 96}, {"pitch": 62, "tick": 346080, "length": 240, "velocity": 80}, {"pitch": 55, "tick": 346320, "length": 240, "velocity": 80}, {"pitch": 67, "tick": 346560, "length": 240, "velocity": 96}, {"pitch": 62, "tick": 347040, "length": 240, "velocity": 80}, {"pitch": 67, "tick": 347040, "length": 240, "velocity": 96}, {"pitch": 55, "tick": 347280, "length": 240, "velocity": 80}, {"pitch": 67, "tick": 347520, "length": 240, "velocity": 96}, {"pitch": 62, "tick": 348000, "length": 240, "velocity": 80}, {"pitch": 55, "tick": 348240, "length": 240, "velocity": 80}, {"pitch": 67, "tick": 348480, "length": 240, "velocity": 96}, {"pitch": 62, "tick": 348960, "length": 240, "velocity": 80}, {"pitch": 67, "tick": 348960, "length": 240, "velocity": 96}, {"pitch": 55, "tick": 349200, "length": 240, "velocity": 80}, {"pitch": 67, "tick": 349440, "length": 240, "velocity": 96}, {"pitch": 62, "tick": 349920, "length": 240, "velocity": 80}, {"pitch": 55, "tick": 350160, "length": 240, "velocity": 80}, {"pitch": 67, "tick": 350400, "length": 240, "velocity": 96}, {"pitch": 62, "tick": 350880, "length": 240, "velocity": 80}, {"pitch": 67, "tick": 350880, "length": 240, "velocity": 96}, {"pitch": 55, "tick": 351120, "length": 240, "velocity": 80}, {"pitch": 67, "tick": 351360, "length": 240, "velocity": 96}, {"pitch": 62, "tick": 351840, "length": 240, "velocity": 80}, {"pitch": 55, "tick": 352080, "length": 240, "velocity": 80}, {"pitch": 67, "tick": 352320, "length": 240, "velocity": 96}, {"pitch": 62, "tick": 352800, "length": 240, "velocity": 80}, {"pitch": 67, "tick": 352800, "length": 240, "velocity": 96}, {"pitch": 55, "tick": 353040, "length": 240, "velocity": 80}, {"pitch": 67, "tick": 353280, "length": 240, "velocity": 96}, {"pitch": 62, "tick": 353760, "length": 240, "velocity": 80}, {"pitch": 55, "tick": 354000, "length": 240, "velocity": 80}, {"pitch": 67, "tick": 354240, "length": 240, "velocity": 96}, {"pitch": 62, "tick": 354720, "length": 240, "velocity": 80}, {"pitch": 67, "tick": 354720, "length": 240, "velocity": 96}, {"pitch": 55, "tick": 354960, "length": 240, "velocity": 80}, {"pitch": 67, "tick": 355200, "length": 240, "velocity": 96}, {"pitch": 62, "tick": 355680, "length": 240, "velocity": 80}, {"pitch": 55, "tick": 355920, "length": 240, "velocity": 80}, {"pitch": 67, "tick": 356160, "length": 240, "velocity": 96}, {"pitch": 62, "tick": 356640, "length": 240, "velocity": 80}, {"pitch": 67, "tick": 356640, "length": 240, "velocity": 96}, {"pitch": 55, "tick": 356880, "length": 240, "velocity": 80}, {"pitch": 67, "tick": 357120, "length": 240, "velocity": 96}, {"pitch": 62, "tick": 357600, "length": 240, "velocity": 80}, {"pitch": 55, "tick": 357840, "length": 240, "velocity": 80}, {"pitch": 67, "tick": 358080, "length": 240, "velocity": 96}, {"pitch": 62, "tick": 358560, "length": 240, "velocity": 80}, {"pitch": 67, "tick": 358560, "length": 240, "velocity": 96}, {"pitch": 55, "tick": 358800, "length": 240, "velocity": 80}, {"pitch": 67, "tick": 359040, "length": 240, "velocity": 96}, {"pitch": 62, "tick": 359520, "length": 240, "velocity": 80}, {"pitch": 55, "tick": 359760, "length": 240, "velocity": 80}, {"pitch": 67, "tick": 360000, "length": 240, "velocity": 96}, {"pitch": 62, "tick": 360480, "length": 240, "velocity": 80}, {"pitch": 67, "tick": 360480, "length": 240, "velocity": 96}, {"pitch": 55, "tick": 360720, "length": 240, "velocity": 80}, {"pitch": 67, "tick": 360960, "length": 240, "velocity": 96}, {"pitch": 62, "tick": 361440, "length": 240, "velocity": 80}, {"pitch": 55, "tick": 361680, "length": 240, "velocity": 80}, {"pitch": 67, "tick": 361920, "length": 240, "velocity": 96}, {"pitch": 62, "tick": 362400, "length": 240, "velocity": 80}, {"pitch": 67, "tick": 362400, "length": 240, "velocity": 96}, {"pitch": 55, "tick": 362640, "length": 240, "velocity": 80}, {"pitch": 67, "tick": 362880, "length": 240, "velocity": 96}, {"pitch": 62, "tick": 363360, "length": 240, "velocity": 80}, {"pitch": 55, "tick": 363600, "length": 240, "velocity": 80}, {"pitch": 67, "tick": 363840, "length": 240, "velocity": 96}, {"pitch": 62, "tick": 364320, "length": 240, "velocity": 80}, {"pitch": 67, "tick": 364320, "length": 240, "velocity": 96}, {"pitch": 55, "tick": 364560, "length": 240, "velocity": 80}, {"pitch": 67, "tick": 364800, "length": 240, "velocity": 96}, {"pitch": 62, "tick": 365280, "length": 240, "velocity": 80}, {"pitch": 55, "tick": 365520, "length": 240, "velocity": 80}, {"pitch": 67, "tick": 365760, "length": 240, "velocity": 96}, {"pitch": 62, "tick": 366240, "length": 240, "velocity": 80}, {"pitch": 67, "tick": 366240, "length": 240, "velocity": 96}, {"pitch": 55, "tick": 366480, "length": 240, "velocity": 80}, {"pitch": 67, "tick": 366720, "length": 240, "velocity": 96}, {"pitch": 62, "tick": 367200, "length": 240, "velocity": 80}, {"pitch": 55, "tick": 367440, "length": 240, "velocity": 80}, {"pitch": 67, "tick": 367680, "length": 240, "velocity": 96}, {"pitch": 62, "tick": 368160, "length": 240, "velocity": 80}, {"pitch": 67, "tick": 368160, "length": 240, "velocity": 96}, {"pitch": 55, "tick": 368400, "length": 240, "velocity": 80}, {"pitch": 67, "tick": 368640, "length": 240, "velocity": 96}, {"pitch": 62, "tick": 369120, "length": 240, "velocity": 80}, {"pitch": 55, "tick": 369360, "length": 240, "velocity": 80}, {"pitch": 67, "tick": 369600, "length": 240, "velocity": 96}, {"pitch": 62, "tick": 370080, "length": 240, "velocity": 80}, {"pitch": 67, "tick": 370080, "length": 240, "velocity": 96}, {"pitch": 55, "tick": 370320, "length": 240, "velocity": 80}, {"pitch": 67, "tick": 370560, "length": 240, "velocity": 96}, {"pitch": 62, "tick": 371040, "length": 240, "velocity": 80}, {"pitch": 55, "tick": 371280, "length": 240, "velocity": 80}, {"pitch": 67, "tick": 371520, "length": 240, "velocity": 96}, {"pitch": 62, "tick": 372000, "length": 240, "velocity": 80}, {"pitch": 67, "tick": 372000, "length": 240, "velocity": 96}, {"pitch": 55, "tick": 372240, "length": 240, "velocity": 80}, {"pitch": 67, "tick": 372480, "length": 240, "velocity": 96}, {"pitch": 62, "tick": 372960, "length": 240, "velocity": 80}, {"pitch": 55, "tick": 373200, "length": 240, "velocity": 80}, {"pitch": 67, "tick": 373440, "length": 240, "velocity": 96}, {"pitch": 62, "tick": 373920, "length": 240, "velocity": 80}, {"pitch": 67, "tick": 373920, "length": 240, "velocity": 96}, {"pitch": 55, "tick": 374160, "length": 240, "velocity": 80}, {"pitch": 67, "tick": 374400, "length": 240, "velocity": 96}, {"pitch": 62, "tick": 374880, "length": 240, "velocity": 80}, {"pitch": 55, "tick": 375120, "length": 240, "velocity": 80}, {"pitch": 67, "tick": 375360, "length": 240, "velocity": 96}, {"pitch": 62, "tick": 375840, "length": 240, "velocity": 80}, {"pitch": 67, "tick": 375840, "length": 240, "velocity": 96}, {"pitch": 55, "tick": 376080, "length": 240, "velocity": 80}, {"pitch": 67, "tick": 376320, "length": 240, "velocity": 96}, {"pitch": 62, "tick": 376800, "length": 240, "velocity": 80}, {"pitch": 55, "tick": 377040, "length": 240, "velocity": 80}, {"pitch": 67, "tick": 377280, "length": 240, "velocity": 96}, {"pitch": 62, "tick": 377760, "length": 240, "velocity": 80}, {"pitch": 67, "tick": 377760, "length": 240, "velocity": 96}, {"pitch": 55, "tick": 378000, "length": 240, "velocity": 80}, {"pitch": 67, "tick": 378240, "length": 240, "velocity": 96}, {"pitch": 62, "tick": 378720, "length": 240, "velocity": 80}, {"pitch": 55, "tick": 378960, "length": 240, "velocity": 80}, {"pitch": 67, "tick": 379200, "length": 240, "velocity": 96}, {"pitch": 62, "tick": 379680, "length": 240, "velocity": 80}, {"pitch": 67, "tick": 379680, "length": 240, "velocity": 96}, {"pitch": 55, "tick": 379920, "length": 240, "velocity": 80}, {"pitch": 67, "tick": 380160, "length": 240, "velocity": 96}, {"pitch": 62, "tick": 380640, "length": 240, "velocity": 80}, {"pitch": 55, "tick": 380880, "length": 240, "velocity": 80}, {"pitch": 67, "tick": 381120, "length": 240, "velocity": 96}, {"pitch": 62, "tick": 381600, "length": 240, "velocity": 80}, {"pitch": 67, "tick": 381600, "length": 240, "velocity": 96}, {"pitch": 55, "tick": 381840, "length": 240, "velocity": 80}, {"pitch": 67, "tick": 382080, "length": 240, "velocity": 96}, {"pitch": 62, "tick": 382560, "length": 240, "velocity": 80}, {"pitch": 55, "tick": 382800, "length": 240, "velocity": 80}, {"pitch": 67, "tick": 383040, "length": 240, "velocity": 96}, {"pitch": 62, "tick": 383520, "length": 240, "velocity": 80}, {"pitch": 67, "tick": 383520, "length": 240, "velocity": 96}, {"pitch": 55, "tick": 383760, "length": 240, "velocity": 80}, {"pitch": 67, "tick": 384000, "length": 240, "velocity": 96}, {"pitch": 62, "tick": 384480, "length": 240, "velocity": 80}, {"pitch": 55, "tick": 384720, "length": 240, "velocity": 80}, {"pitch": 67, "tick": 384960, "length": 240, "velocity": 96}, {"pitch": 62, "tick": 385440, "length": 240, "velocity": 80}, {"pitch": 67, "tick": 385440, "length": 240, "velocity": 96}, {"pitch": 55, "tick": 385680, "length": 240, "velocity": 80}, {"pitch": 67, "tick": 385920, "length": 240, "velocity": 96}, {"pitch": 62, "tick": 386400, "length": 240, "velocity": 80}, {"pitch": 55, "tick": 386640, "length": 240, "velocity": 80}, {"pitch": 67, "tick": 386880, "length": 240, "velocity": 96}, {"pitch": 62, "tick": 387360, "length": 240, "velocity": 80}, {"pitch": 67, "tick": 387360, "length": 240, "velocity": 96}, {"pitch": 55, "tick": 387600, "length": 240, "velocity": 80}, {"pitch": 67, "tick": 387840, "length": 240, "velocity": 96}, {"pitch": 62, "tick": 388320, "length": 240, "velocity": 80}, {"pitch": 55, "tick": 388560, "length": 240, "velocity": 80}, {"pitch": 67, "tick": 388800, "length": 240, "velocity": 96}, {"pitch": 62, "tick": 389280, "length": 240, "velocity": 80}, {"pitch": 67, "tick": 389280, "length": 240, "velocity": 96}, {"pitch": 55, "tick": 389520, "length": 240, "velocity": 80}, {"pitch": 67, "tick": 389760, "length": 240, "velocity": 96}, {"pitch": 62, "tick": 390240, "length": 240, "velocity": 80}, {"pitch": 55, "tick": 390480, "length": 240, "velocity": 80}, {"pitch": 67, "tick": 390720, "length": 240, "velocity": 96}, {"pitch": 62, "tick": 391200, "length": 240, "velocity": 80}, {"pitch": 67, "tick": 391200, "length": 240, "velocity": 96}, {"pitch": 55, "tick": 391440, "length": 240, "velocity": 80}, {"pitch": 67, "tick": 391680, "length": 240, "velocity": 96}, {"pitch": 62, "tick": 392160, "length": 240, "velocity": 80}, {"pitch": 55, "tick": 392400, "length": 240, "velocity": 80}, {"pitch": 67, "tick": 392640, "length": 240, "velocity": 96}, {"pitch": 62, "tick": 393120, "length": 240, "velocity": 80}, {"pitch": 67, "tick": 393120, "length": 240, "velocity": 96}, {"pitch": 55, "tick": 393360, "length": 240, "velocity": 80}, {"pitch": 67, "tick": 393600, "length": 240, "velocity": 96}, {"pitch": 62, "tick": 394080, "length": 240, "velocity": 80}, {"pitch": 55, "tick": 394320, "length": 240, "velocity": 80}, {"pitch": 67, "tick": 394560, "length": 240, "velocity": 96}, {"pitch": 62, "tick": 395040, "length": 240, "velocity": 80}, {"pitch": 67, "tick": 395040, "length": 240, "velocity": 96}, {"pitch": 55, "tick": 395280, "length": 240, "velocity": 80}, {"pitch": 67, "tick": 395520, "length": 240, "velocity": 96}, {"pitch": 62, "tick": 396000, "length": 240, "velocity": 80}, {"pitch": 55, "tick": 396240, "length": 240, "velocity": 80}, {"pitch": 67, "tick": 396480, "length": 240, "velocity": 96}, {"pitch": 62, "tick": 396960, "length": 240, "velocity": 80}, {"pitch": 67, "tick": 396960, "length": 240, "velocity": 96}, {"pitch": 55, "tick": 397200, "length": 240, "velocity": 80}, {"pitch": 67, "tick": 397440, "length": 240, "velocity": 96}, {"pitch": 62, "tick": 397920, "length": 240, "velocity": 80}, {"pitch": 55, "tick": 398160, "length": 240, "velocity": 80}, {"pitch": 67, "tick": 398400, "length": 240, "velocity": 96}, {"pitch": 62, "tick": 398880, "length": 240, "velocity": 80}, {"pitch": 67, "tick": 398880, "length": 240, "velocity": 96}, {"pitch": 55, "tick": 399120, "length": 240, "velocity": 80}, {"pitch": 67, "tick": 399360, "length": 240, "velocity": 96}, {"pitch": 62, "tick": 399840, "length": 240, "velocity": 80}, {"pitch": 55, "tick": 400080, "length": 240, "velocity": 80}, {"pitch": 67, "tick": 400320, "length": 240, "velocity": 96}, {"pitch": 62, "tick": 400800, "length": 240, "velocity": 80}, {"pitch": 67, "tick": 400800, "length": 240, "velocity": 96}, {"pitch": 55, "tick": 401040, "length": 240, "velocity": 80}, {"pitch": 67, "tick": 401280, "length": 240, "velocity": 96}, {"pitch": 62, "tick": 401760, "length": 240, "velocity": 80}, {"pitch": 55, "tick": 402000, "length": 240, "velocity": 80}, {"pitch": 67, "tick": 402240, "length": 240, "velocity": 96}, {"pitch": 62, "tick": 402720, "length": 240, "velocity": 80}, {"pitch": 67, "tick": 402720, "length": 240, "velocity": 96}, {"pitch": 55, "tick": 402960, "length": 240, "velocity": 80}, {"pitch": 67, "tick": 403200, "length": 240, "velocity": 96}, {"pitch": 62, "tick": 403680, "length": 240, "velocity": 80}, {"pitch": 55, "tick": 403920, "length": 240, "velocity": 80}, {"pitch": 67, "tick": 404160, "length": 240, "velocity": 96}, {"pitch": 62, "tick": 404640, "length": 240, "velocity": 80}, {"pitch": 67, "tick": 404640, "length": 240, "velocity": 96}, {"pitch": 55, "tick": 404880, "length": 240, "velocity": 80}, {"pitch": 67, "tick": 405120, "length": 240, "velocity": 96}, {"pitch": 62, "tick": 405600, "length": 240, "velocity": 80}, {"pitch": 55, "tick": 405840, "length": 240, "velocity": 80}, {"pitch": 67, "tick": 406080, "length": 240, "velocity": 96}, {"pitch": 62, "tick": 406560, "length": 240, "velocity": 80}, {"pitch": 67, "tick": 406560, "length": 240, "velocity": 96}, {"pitch": 55, "tick": 406800, "length": 240, "velocity": 80}, {"pitch": 67, "tick": 407040, "length": 240, "velocity": 96}, {"pitch": 62, "tick": 407520, "length": 240, "velocity": 80}, {"pitch": 55, "tick": 407760, "length": 240, "velocity": 80}, {"pitch": 67, "tick": 408000, "length": 240, "velocity": 96}, {"pitch": 62, "tick": 408480, "length": 240, "velocity": 80}, {"pitch": 67, "tick": 408480, "length": 240, "velocity": 96}, {"pitch": 55, "tick": 408720, "length": 240, "velocity": 80}, {"pitch": 62, "tick": 409440, "length": 240, "velocity": 80}, {"pitch": 55, "tick": 409680, "length": 240, "velocity": 80}, {"pitch": 62, "tick": 410400, "length": 240, "velocity": 80}, {"pitch": 55, "tick": 410640, "length": 240, "velocity": 80}, {"pitch": 62, "tick": 411360, "length": 240, "velocity": 80}, {"pitch": 55, "tick": 411600, "length": 240, "velocity": 80}, {"pitch": 62, "tick": 412320, "length": 240, "velocity": 80}, {"pitch": 55, "tick": 412560, "length": 240, "velocity": 80}, {"pitch": 62, "tick": 413280, "length": 240, "velocity": 80}, {"pitch": 55, "tick": 413520, "length": 240, "velocity": 80}, {"pitch": 62, "tick": 414240, "length": 240, "velocity": 80}, {"pitch": 55, "tick": 414480, "length": 240, "velocity": 80}, {"pitch": 62, "tick": 415200, "length": 240, "velocity": 80}, {"pitch": 55, "tick": 415440, "length": 240, "velocity": 80}, {"pitch": 62, "tick": 416160, "length": 240, "velocity": 80}, {"pitch": 55, "tick": 416400, "length": 240, "velocity": 80}, {"pitch": 62, "tick": 417120, "length": 240, "velocity": 80}, {"pitch": 55, "tick": 417360, "length": 240, "velocity": 80}, {"pitch": 62, "tick": 418080, "length": 240, "velocity": 80}, {"pitch": 55, "tick": 418320, "length": 240, "velocity": 80}, {"pitch": 62, "tick": 419040, "length": 240, "velocity": 80}, {"pitch": 55, "tick": 419280, "length": 240, "velocity": 80}, {"pitch": 62, "tick": 420000, "length": 240, "velocity": 80}, {"pitch": 55, "tick": 420240, "length": 240, "velocity": 80}, {"pitch": 62, "tick": 420960, "length": 240, "velocity": 80}, {"pitch": 55, "tick": 421200, "length": 240, "velocity": 80}, {"pitch": 62, "tick": 421920, "length": 240, "velocity": 80}, {"pitch": 55, "tick": 422160, "length": 240, "velocity": 80}, {"pitch": 62, "tick": 422880, "length": 240, "velocity": 80}, {"pitch": 55, "tick": 423120, "length": 240, "velocity": 80}, {"pitch": 62, "tick": 423840, "length": 240, "velocity": 80}, {"pitch": 55, "tick": 424080, "length": 240, "velocity": 80}, {"pitch": 62, "tick": 424800, "length": 240, "velocity": 80}, {"pitch": 55, "tick": 425040, "length": 240, "velocity": 80}, {"pitch": 62, "tick": 425760, "length": 240, "velocity": 80}, {"pitch": 55, "tick": 426000, "length": 240, "velocity": 80}, {"pitch": 62, "tick": 426720, "length": 240, "velocity": 80}, {"pitch": 55, "tick": 426960, "length": 240, "velocity": 80}, {"pitch": 62, "tick": 427680, "length": 240, "velocity": 80}, {"pitch": 55, "tick": 427920, "length": 240, "velocity": 80}, {"pitch": 62, "tick": 428640, "length": 240, "velocity": 80}, {"pitch": 55, "tick": 428880, "length": 240, "velocity": 80}, {"pitch": 62, "tick": 429600, "length": 240, "velocity": 80}, {"pitch": 55, "tick": 429840, "length": 240, "velocity": 80}, {"pitch": 62, "tick": 430560, "length": 240, "velocity": 80}, {"pitch": 55, "tick": 430800, "length": 240, "velocity": 80}, {"pitch": 62, "tick": 431520, "length": 240, "velocity": 80}, {"pitch": 55, "tick": 431760, "length": 240, "velocity": 80}, {"pitch": 62, "tick": 432480, "length": 240, "velocity": 80}, {"pitch": 55, "tick": 432720, "length": 240, "velocity": 80}, {"pitch": 62, "tick": 433440, "length": 240, "velocity": 80}, {"pitch": 55, "tick": 433680, "length": 240, "velocity": 80}, {"pitch": 62, "tick": 434400, "length": 240, "velocity": 80}, {"pitch": 55, "tick": 434640, "length": 240, "velocity": 80}, {"pitch": 62, "tick": 435360, "length": 240, "velocity": 80}, {"pitch": 55, "tick": 435600, "length": 240, "velocity": 80}, {"pitch": 62, "tick": 436320, "length": 240, "velocity": 80}, {"pitch": 55, "tick": 436560, "length": 240, "velocity": 80}, {"pitch": 62, "tick": 437280, "length": 240, "velocity": 80}, {"pitch": 55, "tick": 437520, "length": 240, "velocity": 80}, {"pitch": 62, "tick": 438240, "length": 240, "velocity": 80}, {"pitch": 55, "tick": 438480, "length": 240, "velocity": 80}, {"pitch": 62, "tick": 439200, "length": 240, "velocity": 80}, {"pitch": 55, "tick": 439440, "length": 240, "velocity": 80}]}, {"channel": 13, "length": 542400, "track_name": "\u0097\u00f1\u008e\u00d4", "events": [{"type": "track_name", "name": "\u0097\u00f1\u008e\u00d4", "tick": 0}, {"type": "midi_port", "port": 0, "tick": 0}, {"type": "control_change", "control": 0, "value": 121, "channel": 13, "tick": 480}, {"type": "control_change", "control": 32, "value": 6, "channel": 13, "tick": 480}, {"type": "program_change", "program": 125, "channel": 13, "tick": 480}, {"type": "sysex", "data": [65, 16, 0, 72, 18, 16, 0, 45, 63, 0, 4], "tick": 540}, {"type": "control_change", "control": 7, "value": 32, "channel": 13, "tick": 600}, {"type": "control_change", "control": 10, "value": 64, "channel": 13, "tick": 660}, {"type": "control_change", "control": 91, "value": 0, "channel": 13, "tick": 720}, {"type": "control_change", "control": 93, "value": 127, "channel": 13, "tick": 780}, {"type": "control_change", "control": 74, "value": 64, "channel": 13, "tick": 840}, {"type": "control_change", "control": 71, "value": 64, "channel": 13, "tick": 900}, {"type": "control_change", "control": 73, "value": 0, "channel": 13, "tick": 960}, {"type": "control_change", "control": 75, "value": 64, "channel": 13, "tick": 1020}, {"type": "control_change", "control": 72, "value": 32, "channel": 13, "tick": 1080}, {"type": "control_change", "control": 101, "value": 0, "channel": 13, "tick": 1140}, {"type": "control_change", "control": 100, "value": 0, "channel": 13, "tick": 1140}, {"type": "control_change", "control": 6, "value": 12, "channel": 13, "tick": 1140}, {"type": "control_change", "control": 38, "value": 0, "channel": 13, "tick": 1140}, {"type": "pitchwheel", "channel": 13, "pitch": 4096, "tick": 1200}, {"type": "control_change", "control": 1, "value": 0, "channel": 13, "tick": 1260}, {"type": "control_change", "control": 11, "value": 127, "channel": 13, "tick": 1320}, {"type": "control_change", "control": 101, "value": 127, "channel": 13, "tick": 1380}, {"type": "control_change", "control": 100, "value": 127, "channel": 13, "tick": 1380}, {"type": "control_change", "control": 6, "value": 0, "channel": 13, "tick": 1380}, {"type": "control_change", "control": 38, "value": 0, "channel": 13, "tick": 1380}, {"type": "control_change", "control": 11, "value": 0, "channel": 13, "tick": 15120}, {"type": "control_change", "control": 11, "value": 10, "channel": 13, "tick": 15180}, {"type": "control_change", "control": 11, "value": 20, "channel": 13, "tick": 15240}, {"type": "control_change", "control": 11, "value": 30, "channel": 13, "tick": 15300}, {"type": "control_change", "control": 11, "value": 40, "channel": 13, "tick": 15360}, {"type": "control_change", "control": 11, "value": 50, "channel": 13, "tick": 15420}, {"type": "control_change", "control": 11, "value": 60, "channel": 13, "tick": 15480}, {"type": "control_change", "control": 11, "value": 70, "channel": 13, "tick": 15540}, {"type": "control_change", "control": 11, "value": 80, "channel": 13, "tick": 15600}, {"type": "control_change", "control": 11, "value": 83, "channel": 13, "tick": 15720}, {"type": "control_change", "control": 11, "value": 87, "channel": 13, "tick": 15840}, {"type": "control_change", "control": 11, "value": 90, "channel": 13, "tick": 15960}, {"type": "control_change", "control": 11, "value": 93, "channel": 13, "tick": 16080}, {"type": "control_change", "control": 11, "value": 97, "channel": 13, "tick": 16200}, {"type": "control_change", "control": 11, "value": 100, "channel": 13, "tick": 16320}, {"type": "control_change", "control": 11, "value": 104, "channel": 13, "tick": 16440}, {"type": "control_change", "control": 11, "value": 107, "channel": 13, "tick": 16560}, {"type": "control_change", "control": 11, "value": 110, "channel": 13, "tick": 16680}, {"type": "control_change", "control": 11, "value": 114, "channel": 13, "tick": 16800}, {"type": "control_change", "control": 11, "value": 117, "channel": 13, "tick": 16920}, {"type": "control_change", "control": 11, "value": 120, "channel": 13, "tick": 17040}, {"type": "control_change", "control": 11, "value": 124, "channel": 13, "tick": 17160}, {"type": "control_change", "control": 11, "value": 127, "channel": 13, "tick": 17280}, {"type": "control_change", "control": 11, "value": 127, "channel": 13, "tick": 18240}, {"type": "control_change", "control": 11, "value": 123, "channel": 13, "tick": 18360}, {"type": "control_change", "control": 11, "value": 119, "channel": 13, "tick": 18480}, {"type": "control_change", "control": 11, "value": 115, "channel": 13, "tick": 18600}, {"type": "control_change", "control": 11, "value": 111, "channel": 13, "tick": 18720}, {"type": "control_change", "control": 11, "value": 107, "channel": 13, "tick": 18840}, {"type": "control_change", "control": 11, "value": 103, "channel": 13, "tick": 18960}, {"type": "control_change", "control": 11, "value": 99, "channel": 13, "tick": 19080}, {"type": "control_change", "control": 11, "value": 96, "channel": 13, "tick": 19200}, {"type": "control_change", "control": 11, "value": 92, "channel": 13, "tick": 19320}, {"type": "control_change", "control": 11, "value": 88, "channel": 13, "tick": 19440}, {"type": "control_change", "control": 11, "value": 84, "channel": 13, "tick": 19560}, {"type": "control_change", "control": 11, "value": 80, "channel": 13, "tick": 19680}, {"type": "control_change", "control": 11, "value": 76, "channel": 13, "tick": 19800}, {"type": "control_change", "control": 11, "value": 72, "channel": 13, "tick": 19920}, {"type": "control_change", "control": 11, "value": 68, "channel": 13, "tick": 20040}, {"type": "control_change", "control": 11, "value": 64, "channel": 13, "tick": 20160}, {"type": "control_change", "control": 11, "value": 60, "channel": 13, "tick": 20220}, {"type": "control_change", "control": 11, "value": 56, "channel": 13, "tick": 20280}, {"type": "control_change", "control": 11, "value": 52, "channel": 13, "tick": 20340}, {"type": "control_change", "control": 11, "value": 48, "channel": 13, "tick": 20400}, {"type": "control_change", "control": 11, "value": 44, "channel": 13, "tick": 20460}, {"type": "control_change", "control": 11, "value": 40, "channel": 13, "tick": 20520}, {"type": "control_change", "control": 11, "value": 36, "channel": 13, "tick": 20580}, {"type": "control_change", "control": 11, "value": 32, "channel": 13, "tick": 20640}, {"type": "control_change", "control": 11, "value": 28, "channel": 13, "tick": 20700}, {"type": "control_change", "control": 11, "value": 24, "channel": 13, "tick": 20760}, {"type": "control_change", "control": 11, "value": 20, "channel": 13, "tick": 20820}, {"type": "control_change", "control": 11, "value": 16, "channel": 13, "tick": 20880}, {"type": "control_change", "control": 11, "value": 12, "channel": 13, "tick": 20940}, {"type": "control_change", "control": 11, "value": 8, "channel": 13, "tick": 21000}, {"type": "control_change", "control": 11, "value": 4, "channel": 13, "tick": 21060}, {"type": "control_change", "control": 11, "value": 0, "channel": 13, "tick": 21120}, {"type": "control_change", "control": 11, "value": 127, "channel": 13, "tick": 32640}, {"type": "control_change", "control": 11, "value": 127, "channel": 13, "tick": 33600}, {"type": "control_change", "control": 11, "value": 123, "channel": 13, "tick": 33720}, {"type": "control_change", "control": 11, "value": 119, "channel": 13, "tick": 33840}, {"type": "control_change", "control": 11, "value": 115, "channel": 13, "tick": 33960}, {"type": "control_change", "control": 11, "value": 111, "channel": 13, "tick": 34080}, {"type": "control_change", "control": 11, "value": 107, "channel": 13, "tick": 34200}, {"type": "control_change", "control": 11, "value": 103, "channel": 13, "tick": 34320}, {"type": "control_change", "control": 11, "value": 99, "channel": 13, "tick": 34440}, {"type": "control_change", "control": 11, "value": 96, "channel": 13, "tick": 34560}, {"type": "control_change", "control": 11, "value": 92, "channel": 13, "tick": 34680}, {"type": "control_change", "control": 11, "value": 88, "channel": 13, "tick": 34800}, {"type": "control_change", "control": 11, "value": 84, "channel": 13, "tick": 34920}, {"type": "control_change", "control": 11, "value": 80, "channel": 13, "tick": 35040}, {"type": "control_change", "control": 11, "value": 76, "channel": 13, "tick": 35160}, {"type": "control_change", "control": 11, "value": 72, "channel": 13, "tick": 35280}, {"type": "control_change", "control": 11, "value": 68, "channel": 13, "tick": 35400}, {"type": "control_change", "control": 11, "value": 64, "channel": 13, "tick": 35520}, {"type": "control_change", "control": 11, "value": 60, "channel": 13, "tick": 35580}, {"type": "control_change", "control": 11, "value": 56, "channel": 13, "tick": 35640}, {"type": "control_change", "control": 11, "value": 52, "channel": 13, "tick": 35700}, {"type": "control_change", "control": 11, "value": 48, "channel": 13, "tick": 35760}, {"type": "control_change", "control": 11, "value": 44, "channel": 13, "tick": 35820}, {"type": "control_change", "control": 11, "value": 40, "channel": 13, "tick": 35880}, {"type": "control_change", "control": 11, "value": 36, "channel": 13, "tick": 35940}, {"type": "control_change", "control": 11, "value": 32, "channel": 13, "tick": 36000}, {"type": "control_change", "control": 11, "value": 28, "channel": 13, "tick": 36060}, {"type": "control_change", "control": 11, "value": 24, "channel": 13, "tick": 36120}, {"type": "control_change", "control": 11, "value": 20, "channel": 13, "tick": 36180}, {"type": "control_change", "control": 11, "value": 16, "channel": 13, "tick": 36240}, {"type": "control_change", "control": 11, "value": 12, "channel": 13, "tick": 36300}, {"type": "control_change", "control": 11, "value": 8, "channel": 13, "tick": 36360}, {"type": "control_change", "control": 11, "value": 4, "channel": 13, "tick": 36420}, {"type": "control_change", "control": 11, "value": 0, "channel": 13, "tick": 36480}, {"type": "control_change", "control": 11, "value": 127, "channel": 13, "tick": 48000}, {"type": "control_change", "control": 11, "value": 127, "channel": 13, "tick": 48960}, {"type": "control_change", "control": 11, "value": 123, "channel": 13, "tick": 49080}, {"type": "control_change", "control": 11, "value": 119, "channel": 13, "tick": 49200}, {"type": "control_change", "control": 11, "value": 115, "channel": 13, "tick": 49320}, {"type": "control_change", "control": 11, "value": 111, "channel": 13, "tick": 49440}, {"type": "control_change", "control": 11, "value": 107, "channel": 13, "tick": 49560}, {"type": "control_change", "control": 11, "value": 103, "channel": 13, "tick": 49680}, {"type": "control_change", "control": 11, "value": 99, "channel": 13, "tick": 49800}, {"type": "control_change", "control": 11, "value": 96, "channel": 13, "tick": 49920}, {"type": "control_change", "control": 11, "value": 92, "channel": 13, "tick": 50040}, {"type": "control_change", "control": 11, "value": 88, "channel": 13, "tick": 50160}, {"type": "control_change", "control": 11, "value": 84, "channel": 13, "tick": 50280}, {"type": "control_change", "control": 11, "value": 80, "channel": 13, "tick": 50400}, {"type": "control_change", "control": 11, "value": 76, "channel": 13, "tick": 50520}, {"type": "control_change", "control": 11, "value": 72, "channel": 13, "tick": 50640}, {"type": "control_change", "control": 11, "value": 68, "channel": 13, "tick": 50760}, {"type": "control_change", "control": 11, "value": 64, "channel": 13, "tick": 50880}, {"type": "control_change", "control": 11, "value": 60, "channel": 13, "tick": 50940}, {"type": "control_change", "control": 11, "value": 56, "channel": 13, "tick": 51000}, {"type": "control_change", "control": 11, "value": 52, "channel": 13, "tick": 51060}, {"type": "control_change", "control": 11, "value": 48, "channel": 13, "tick": 51120}, {"type": "control_change", "control": 11, "value": 44, "channel": 13, "tick": 51180}, {"type": "control_change", "control": 11, "value": 40, "channel": 13, "tick": 51240}, {"type": "control_change", "control": 11, "value": 36, "channel": 13, "tick": 51300}, {"type": "control_change", "control": 11, "value": 32, "channel": 13, "tick": 51360}, {"type": "control_change", "control": 11, "value": 28, "channel": 13, "tick": 51420}, {"type": "control_change", "control": 11, "value": 24, "channel": 13, "tick": 51480}, {"type": "control_change", "control": 11, "value": 20, "channel": 13, "tick": 51540}, {"type": "control_change", "control": 11, "value": 16, "channel": 13, "tick": 51600}, {"type": "control_change", "control": 11, "value": 12, "channel": 13, "tick": 51660}, {"type": "control_change", "control": 11, "value": 8, "channel": 13, "tick": 51720}, {"type": "control_change", "control": 11, "value": 4, "channel": 13, "tick": 51780}, {"type": "control_change", "control": 11, "value": 0, "channel": 13, "tick": 51840}, {"type": "control_change", "control": 11, "value": 0, "channel": 13, "tick": 61200}, {"type": "control_change", "control": 11, "value": 10, "channel": 13, "tick": 61260}, {"type": "control_change", "control": 11, "value": 20, "channel": 13, "tick": 61320}, {"type": "control_change", "control": 11, "value": 30, "channel": 13, "tick": 61380}, {"type": "control_change", "control": 11, "value": 40, "channel": 13, "tick": 61440}, {"type": "control_change", "control": 11, "value": 50, "channel": 13, "tick": 61500}, {"type": "control_change", "control": 11, "value": 60, "channel": 13, "tick": 61560}, {"type": "control_change", "control": 11, "value": 70, "channel": 13, "tick": 61620}, {"type": "control_change", "control": 11, "value": 80, "channel": 13, "tick": 61680}, {"type": "control_change", "control": 11, "value": 83, "channel": 13, "tick": 61800}, {"type": "control_change", "control": 11, "value": 87, "channel": 13, "tick": 61920}, {"type": "control_change", "control": 11, "value": 90, "channel": 13, "tick": 62040}, {"type": "control_change", "control": 11, "value": 93, "channel": 13, "tick": 62160}, {"type": "control_change", "control": 11, "value": 97, "channel": 13, "tick": 62280}, {"type": "control_change", "control": 11, "value": 100, "channel": 13, "tick": 62400}, {"type": "control_change", "control": 11, "value": 104, "channel": 13, "tick": 62520}, {"type": "control_change", "control": 11, "value": 107, "channel": 13, "tick": 62640}, {"type": "control_change", "control": 11, "value": 110, "channel": 13, "tick": 62760}, {"type": "control_change", "control": 11, "value": 114, "channel": 13, "tick": 62880}, {"type": "control_change", "control": 11, "value": 117, "channel": 13, "tick": 63000}, {"type": "control_change", "control": 11, "value": 120, "channel": 13, "tick": 63120}, {"type": "control_change", "control": 11, "value": 124, "channel": 13, "tick": 63240}, {"type": "control_change", "control": 11, "value": 127, "channel": 13, "tick": 63360}, {"type": "control_change", "control": 11, "value": 127, "channel": 13, "tick": 64320}, {"type": "control_change", "control": 11, "value": 123, "channel": 13, "tick": 64440}, {"type": "control_change", "control": 11, "value": 119, "channel": 13, "tick": 64560}, {"type": "control_change", "control": 11, "value": 115, "channel": 13, "tick": 64680}, {"type": "control_change", "control": 11, "value": 111, "channel": 13, "tick": 64800}, {"type": "control_change", "control": 11, "value": 107, "channel": 13, "tick": 64920}, {"type": "control_change", "control": 11, "value": 103, "channel": 13, "tick": 65040}, {"type": "control_change", "control": 11, "value": 99, "channel": 13, "tick": 65160}, {"type": "control_change", "control": 11, "value": 96, "channel": 13, "tick": 65280}, {"type": "control_change", "control": 11, "value": 92, "channel": 13, "tick": 65400}, {"type": "control_change", "control": 11, "value": 88, "channel": 13, "tick": 65520}, {"type": "control_change", "control": 11, "value": 84, "channel": 13, "tick": 65640}, {"type": "control_change", "control": 11, "value": 80, "channel": 13, "tick": 65760}, {"type": "control_change", "control": 11, "value": 76, "channel": 13, "tick": 65880}, {"type": "control_change", "control": 11, "value": 72, "channel": 13, "tick": 66000}, {"type": "control_change", "control": 11, "value": 68, "channel": 13, "tick": 66120}, {"type": "control_change", "control": 11, "value": 64, "channel": 13, "tick": 66240}, {"type": "control_change", "control": 11, "value": 60, "channel": 13, "tick": 66300}, {"type": "control_change", "control": 11, "value": 56, "channel": 13, "tick": 66360}, {"type": "control_change", "control": 11, "value": 52, "channel": 13, "tick": 66420}, {"type": "control_change", "control": 11, "value": 48, "channel": 13, "tick": 66480}, {"type": "control_change", "control": 11, "value": 44, "channel": 13, "tick": 66540}, {"type": "control_change", "control": 11, "value": 40, "channel": 13, "tick": 66600}, {"type": "control_change", "control": 11, "value": 36, "channel": 13, "tick": 66660}, {"type": "control_change", "control": 11, "value": 32, "channel": 13, "tick": 66720}, {"type": "control_change", "control": 11, "value": 28, "channel": 13, "tick": 66780}, {"type": "control_change", "control": 11, "value": 24, "channel": 13, "tick": 66840}, {"type": "control_change", "control": 11, "value": 20, "channel": 13, "tick": 66900}, {"type": "control_change", "control": 11, "value": 16, "channel": 13, "tick": 66960}, {"type": "control_change", "control": 11, "value": 12, "channel": 13, "tick": 67020}, {"type": "control_change", "control": 11, "value": 8, "channel": 13, "tick": 67080}, {"type": "control_change", "control": 11, "value": 4, "channel": 13, "tick": 67140}, {"type": "control_change", "control": 11, "value": 0, "channel": 13, "tick": 67200}, {"type": "control_change", "control": 11, "value": 127, "channel": 13, "tick": 78720}, {"type": "control_change", "control": 11, "value": 127, "channel": 13, "tick": 79680}, {"type": "control_change", "control": 11, "value": 123, "channel": 13, "tick": 79800}, {"type": "control_change", "control": 11, "value": 119, "channel": 13, "tick": 79920}, {"type": "control_change", "control": 11, "value": 115, "channel": 13, "tick": 80040}, {"type": "control_change", "control": 11, "value": 111, "channel": 13, "tick": 80160}, {"type": "control_change", "control": 11, "value": 107, "channel": 13, "tick": 80280}, {"type": "control_change", "control": 11, "value": 103, "channel": 13, "tick": 80400}, {"type": "control_change", "control": 11, "value": 99, "channel": 13, "tick": 80520}, {"type": "control_change", "control": 11, "value": 96, "channel": 13, "tick": 80640}, {"type": "control_change", "control": 11, "value": 92, "channel": 13, "tick": 80760}, {"type": "control_change", "control": 11, "value": 88, "channel": 13, "tick": 80880}, {"type": "control_change", "control": 11, "value": 84, "channel": 13, "tick": 81000}, {"type": "control_change", "control": 11, "value": 80, "channel": 13, "tick": 81120}, {"type": "control_change", "control": 11, "value": 76, "channel": 13, "tick": 81240}, {"type": "control_change", "control": 11, "value": 72, "channel": 13, "tick": 81360}, {"type": "control_change", "control": 11, "value": 68, "channel": 13, "tick": 81480}, {"type": "control_change", "control": 11, "value": 64, "channel": 13, "tick": 81600}, {"type": "control_change", "control": 11, "value": 60, "channel": 13, "tick": 81660}, {"type": "control_change", "control": 11, "value": 56, "channel": 13, "tick": 81720}, {"type": "control_change", "control": 11, "value": 52, "channel": 13, "tick": 81780}, {"type": "control_change", "control": 11, "value": 48, "channel": 13, "tick": 81840}, {"type": "control_change", "control": 11, "value": 44, "channel": 13, "tick": 81900}, {"type": "control_change", "control": 11, "value": 40, "channel": 13, "tick": 81960}, {"type": "control_change", "control": 11, "value": 36, "channel": 13, "tick": 82020}, {"type": "control_change", "control": 11, "value": 32, "channel": 13, "tick": 82080}, {"type": "control_change", "control": 11, "value": 28, "channel": 13, "tick": 82140}, {"type": "control_change", "control": 11, "value": 24, "channel": 13, "tick": 82200}, {"type": "control_change", "control": 11, "value": 20, "channel": 13, "tick": 82260}, {"type": "control_change", "control": 11, "value": 16, "channel": 13, "tick": 82320}, {"type": "control_change", "control": 11, "value": 12, "channel": 13, "tick": 82380}, {"type": "control_change", "control": 11, "value": 8, "channel": 13, "tick": 82440}, {"type": "control_change", "control": 11, "value": 4, "channel": 13, "tick": 82500}, {"type": "control_change", "control": 11, "value": 0, "channel": 13, "tick": 82560}, {"type": "control_change", "control": 11, "value": 127, "channel": 13, "tick": 94080}, {"type": "control_change", "control": 11, "value": 127, "channel": 13, "tick": 95040}, {"type": "control_change", "control": 11, "value": 123, "channel": 13, "tick": 95160}, {"type": "control_change", "control": 11, "value": 119, "channel": 13, "tick": 95280}, {"type": "control_change", "control": 11, "value": 115, "channel": 13, "tick": 95400}, {"type": "control_change", "control": 11, "value": 111, "channel": 13, "tick": 95520}, {"type": "control_change", "control": 11, "value": 107, "channel": 13, "tick": 95640}, {"type": "control_change", "control": 11, "value": 103, "channel": 13, "tick": 95760}, {"type": "control_change", "control": 11, "value": 99, "channel": 13, "tick": 95880}, {"type": "control_change", "control": 11, "value": 96, "channel": 13, "tick": 96000}, {"type": "control_change", "control": 11, "value": 92, "channel": 13, "tick": 96120}, {"type": "control_change", "control": 11, "value": 88, "channel": 13, "tick": 96240}, {"type": "control_change", "control": 11, "value": 84, "channel": 13, "tick": 96360}, {"type": "control_change", "control": 11, "value": 80, "channel": 13, "tick": 96480}, {"type": "control_change", "control": 11, "value": 76, "channel": 13, "tick": 96600}, {"type": "control_change", "control": 11, "value": 72, "channel": 13, "tick": 96720}, {"type": "control_change", "control": 11, "value": 68, "channel": 13, "tick": 96840}, {"type": "control_change", "control": 11, "value": 64, "channel": 13, "tick": 96960}, {"type": "control_change", "control": 11, "value": 60, "channel": 13, "tick": 97020}, {"type": "control_change", "control": 11, "value": 56, "channel": 13, "tick": 97080}, {"type": "control_change", "control": 11, "value": 52, "channel": 13, "tick": 97140}, {"type": "control_change", "control": 11, "value": 48, "channel": 13, "tick": 97200}, {"type": "control_change", "control": 11, "value": 44, "channel": 13, "tick": 97260}, {"type": "control_change", "control": 11, "value": 40, "channel": 13, "tick": 97320}, {"type": "control_change", "control": 11, "value": 36, "channel": 13, "tick": 97380}, {"type": "control_change", "control": 11, "value": 32, "channel": 13, "tick": 97440}, {"type": "control_change", "control": 11, "value": 28, "channel": 13, "tick": 97500}, {"type": "control_change", "control": 11, "value": 24, "channel": 13, "tick": 97560}, {"type": "control_change", "control": 11, "value": 20, "channel": 13, "tick": 97620}, {"type": "control_change", "control": 11, "value": 16, "channel": 13, "tick": 97680}, {"type": "control_change", "control": 11, "value": 12, "channel": 13, "tick": 97740}, {"type": "control_change", "control": 11, "value": 8, "channel": 13, "tick": 97800}, {"type": "control_change", "control": 11, "value": 4, "channel": 13, "tick": 97860}, {"type": "control_change", "control": 11, "value": 0, "channel": 13, "tick": 97920}, {"type": "control_change", "control": 11, "value": 127, "channel": 13, "tick": 109440}, {"type": "control_change", "control": 11, "value": 127, "channel": 13, "tick": 110400}, {"type": "control_change", "control": 11, "value": 123, "channel": 13, "tick": 110520}, {"type": "control_change", "control": 11, "value": 119, "channel": 13, "tick": 110640}, {"type": "control_change", "control": 11, "value": 115, "channel": 13, "tick": 110760}, {"type": "control_change", "control": 11, "value": 111, "channel": 13, "tick": 110880}, {"type": "control_change", "control": 11, "value": 107, "channel": 13, "tick": 111000}, {"type": "control_change", "control": 11, "value": 103, "channel": 13, "tick": 111120}, {"type": "control_change", "control": 11, "value": 99, "channel": 13, "tick": 111240}, {"type": "control_change", "control": 11, "value": 96, "channel": 13, "tick": 111360}, {"type": "control_change", "control": 11, "value": 92, "channel": 13, "tick": 111480}, {"type": "control_change", "control": 11, "value": 88, "channel": 13, "tick": 111600}, {"type": "control_change", "control": 11, "value": 84, "channel": 13, "tick": 111720}, {"type": "control_change", "control": 11, "value": 80, "channel": 13, "tick": 111840}, {"type": "control_change", "control": 11, "value": 76, "channel": 13, "tick": 111960}, {"type": "control_change", "control": 11, "value": 72, "channel": 13, "tick": 112080}, {"type": "control_change", "control": 11, "value": 68, "channel": 13, "tick": 112200}, {"type": "control_change", "control": 11, "value": 64, "channel": 13, "tick": 112320}, {"type": "control_change", "control": 11, "value": 60, "channel": 13, "tick": 112380}, {"type": "control_change", "control": 11, "value": 56, "channel": 13, "tick": 112440}, {"type": "control_change", "control": 11, "value": 52, "channel": 13, "tick": 112500}, {"type": "control_change", "control": 11, "value": 48, "channel": 13, "tick": 112560}, {"type": "control_change", "control": 11, "value": 44, "channel": 13, "tick": 112620}, {"type": "control_change", "control": 11, "value": 40, "channel": 13, "tick": 112680}, {"type": "control_change", "control": 11, "value": 36, "channel": 13, "tick": 112740}, {"type": "control_change", "control": 11, "value": 32, "channel": 13, "tick": 112800}, {"type": "control_change", "control": 11, "value": 28, "channel": 13, "tick": 112860}, {"type": "control_change", "control": 11, "value": 24, "channel": 13, "tick": 112920}, {"type": "control_change", "control": 11, "value": 20, "channel": 13, "tick": 112980}, {"type": "control_change", "control": 11, "value": 16, "channel": 13, "tick": 113040}, {"type": "control_change", "control": 11, "value": 12, "channel": 13, "tick": 113100}, {"type": "control_change", "control": 11, "value": 8, "channel": 13, "tick": 113160}, {"type": "control_change", "control": 11, "value": 4, "channel": 13, "tick": 113220}, {"type": "control_change", "control": 11, "value": 0, "channel": 13, "tick": 113280}, {"type": "control_change", "control": 11, "value": 127, "channel": 13, "tick": 124800}, {"type": "control_change", "control": 11, "value": 127, "channel": 13, "tick": 125760}, {"type": "control_change", "control": 11, "value": 123, "channel": 13, "tick": 125880}, {"type": "control_change", "control": 11, "value": 119, "channel": 13, "tick": 126000}, {"type": "control_change", "control": 11, "value": 115, "channel": 13, "tick": 126120}, {"type": "control_change", "control": 11, "value": 111, "channel": 13, "tick": 126240}, {"type": "control_change", "control": 11, "value": 107, "channel": 13, "tick": 126360}, {"type": "control_change", "control": 11, "value": 103, "channel": 13, "tick": 126480}, {"type": "control_change", "control": 11, "value": 99, "channel": 13, "tick": 126600}, {"type": "control_change", "control": 11, "value": 96, "channel": 13, "tick": 126720}, {"type": "control_change", "control": 11, "value": 92, "channel": 13, "tick": 126840}, {"type": "control_change", "control": 11, "value": 88, "channel": 13, "tick": 126960}, {"type": "control_change", "control": 11, "value": 84, "channel": 13, "tick": 127080}, {"type": "control_change", "control": 11, "value": 80, "channel": 13, "tick": 127200}, {"type": "control_change", "control": 11, "value": 76, "channel": 13, "tick": 127320}, {"type": "control_change", "control": 11, "value": 72, "channel": 13, "tick": 127440}, {"type": "control_change", "control": 11, "value": 68, "channel": 13, "tick": 127560}, {"type": "control_change", "control": 11, "value": 64, "channel": 13, "tick": 127680}, {"type": "control_change", "control": 11, "value": 60, "channel": 13, "tick": 127740}, {"type": "control_change", "control": 11, "value": 56, "channel": 13, "tick": 127800}, {"type": "control_change", "control": 11, "value": 52, "channel": 13, "tick": 127860}, {"type": "control_change", "control": 11, "value": 48, "channel": 13, "tick": 127920}, {"type": "control_change", "control": 11, "value": 44, "channel": 13, "tick": 127980}, {"type": "control_change", "control": 11, "value": 40, "channel": 13, "tick": 128040}, {"type": "control_change", "control": 11, "value": 36, "channel": 13, "tick": 128100}, {"type": "control_change", "control": 11, "value": 32, "channel": 13, "tick": 128160}, {"type": "control_change", "control": 11, "value": 28, "channel": 13, "tick": 128220}, {"type": "control_change", "control": 11, "value": 24, "channel": 13, "tick": 128280}, {"type": "control_change", "control": 11, "value": 20, "channel": 13, "tick": 128340}, {"type": "control_change", "control": 11, "value": 16, "channel": 13, "tick": 128400}, {"type": "control_change", "control": 11, "value": 12, "channel": 13, "tick": 128460}, {"type": "control_change", "control": 11, "value": 8, "channel": 13, "tick": 128520}, {"type": "control_change", "control": 11, "value": 4, "channel": 13, "tick": 128580}, {"type": "control_change", "control": 11, "value": 0, "channel": 13, "tick": 128640}, {"type": "control_change", "control": 11, "value": 127, "channel": 13, "tick": 140160}, {"type": "control_change", "control": 11, "value": 127, "channel": 13, "tick": 141120}, {"type": "control_change", "control": 11, "value": 123, "channel": 13, "tick": 141240}, {"type": "control_change", "control": 11, "value": 119, "channel": 13, "tick": 141360}, {"type": "control_change", "control": 11, "value": 115, "channel": 13, "tick": 141480}, {"type": "control_change", "control": 11, "value": 111, "channel": 13, "tick": 141600}, {"type": "control_change", "control": 11, "value": 107, "channel": 13, "tick": 141720}, {"type": "control_change", "control": 11, "value": 103, "channel": 13, "tick": 141840}, {"type": "control_change", "control": 11, "value": 99, "channel": 13, "tick": 141960}, {"type": "control_change", "control": 11, "value": 96, "channel": 13, "tick": 142080}, {"type": "control_change", "control": 11, "value": 92, "channel": 13, "tick": 142200}, {"type": "control_change", "control": 11, "value": 88, "channel": 13, "tick": 142320}, {"type": "control_change", "control": 11, "value": 84, "channel": 13, "tick": 142440}, {"type": "control_change", "control": 11, "value": 80, "channel": 13, "tick": 142560}, {"type": "control_change", "control": 11, "value": 76, "channel": 13, "tick": 142680}, {"type": "control_change", "control": 11, "value": 72, "channel": 13, "tick": 142800}, {"type": "control_change", "control": 11, "value": 68, "channel": 13, "tick": 142920}, {"type": "control_change", "control": 11, "value": 64, "channel": 13, "tick": 143040}, {"type": "control_change", "control": 11, "value": 60, "channel": 13, "tick": 143100}, {"type": "control_change", "control": 11, "value": 56, "channel": 13, "tick": 143160}, {"type": "control_change", "control": 11, "value": 52, "channel": 13, "tick": 143220}, {"type": "control_change", "control": 11, "value": 48, "channel": 13, "tick": 143280}, {"type": "control_change", "control": 11, "value": 44, "channel": 13, "tick": 143340}, {"type": "control_change", "control": 11, "value": 40, "channel": 13, "tick": 143400}, {"type": "control_change", "control": 11, "value": 36, "channel": 13, "tick": 143460}, {"type": "control_change", "control": 11, "value": 32, "channel": 13, "tick": 143520}, {"type": "control_change", "control": 11, "value": 28, "channel": 13, "tick": 143580}, {"type": "control_change", "control": 11, "value": 24, "channel": 13, "tick": 143640}, {"type": "control_change", "control": 11, "value": 20, "channel": 13, "tick": 143700}, {"type": "control_change", "control": 11, "value": 16, "channel": 13, "tick": 143760}, {"type": "control_change", "control": 11, "value": 12, "channel": 13, "tick": 143820}, {"type": "control_change", "control": 11, "value": 8, "channel": 13, "tick": 143880}, {"type": "control_change", "control": 11, "value": 4, "channel": 13, "tick": 143940}, {"type": "control_change", "control": 11, "value": 0, "channel": 13, "tick": 144000}, {"type": "control_change", "control": 11, "value": 127, "channel": 13, "tick": 155520}, {"type": "control_change", "control": 11, "value": 127, "channel": 13, "tick": 156480}, {"type": "control_change", "control": 11, "value": 123, "channel": 13, "tick": 156600}, {"type": "control_change", "control": 11, "value": 119, "channel": 13, "tick": 156720}, {"type": "control_change", "control": 11, "value": 115, "channel": 13, "tick": 156840}, {"type": "control_change", "control": 11, "value": 111, "channel": 13, "tick": 156960}, {"type": "control_change", "control": 11, "value": 107, "channel": 13, "tick": 157080}, {"type": "control_change", "control": 11, "value": 103, "channel": 13, "tick": 157200}, {"type": "control_change", "control": 11, "value": 99, "channel": 13, "tick": 157320}, {"type": "control_change", "control": 11, "value": 96, "channel": 13, "tick": 157440}, {"type": "control_change", "control": 11, "value": 92, "channel": 13, "tick": 157560}, {"type": "control_change", "control": 11, "value": 88, "channel": 13, "tick": 157680}, {"type": "control_change", "control": 11, "value": 84, "channel": 13, "tick": 157800}, {"type": "control_change", "control": 11, "value": 80, "channel": 13, "tick": 157920}, {"type": "control_change", "control": 11, "value": 76, "channel": 13, "tick": 158040}, {"type": "control_change", "control": 11, "value": 72, "channel": 13, "tick": 158160}, {"type": "control_change", "control": 11, "value": 68, "channel": 13, "tick": 158280}, {"type": "control_change", "control": 11, "value": 64, "channel": 13, "tick": 158400}, {"type": "control_change", "control": 11, "value": 60, "channel": 13, "tick": 158460}, {"type": "control_change", "control": 11, "value": 56, "channel": 13, "tick": 158520}, {"type": "control_change", "control": 11, "value": 52, "channel": 13, "tick": 158580}, {"type": "control_change", "control": 11, "value": 48, "channel": 13, "tick": 158640}, {"type": "control_change", "control": 11, "value": 44, "channel": 13, "tick": 158700}, {"type": "control_change", "control": 11, "value": 40, "channel": 13, "tick": 158760}, {"type": "control_change", "control": 11, "value": 36, "channel": 13, "tick": 158820}, {"type": "control_change", "control": 11, "value": 32, "channel": 13, "tick": 158880}, {"type": "control_change", "control": 11, "value": 28, "channel": 13, "tick": 158940}, {"type": "control_change", "control": 11, "value": 24, "channel": 13, "tick": 159000}, {"type": "control_change", "control": 11, "value": 20, "channel": 13, "tick": 159060}, {"type": "control_change", "control": 11, "value": 16, "channel": 13, "tick": 159120}, {"type": "control_change", "control": 11, "value": 12, "channel": 13, "tick": 159180}, {"type": "control_change", "control": 11, "value": 8, "channel": 13, "tick": 159240}, {"type": "control_change", "control": 11, "value": 4, "channel": 13, "tick": 159300}, {"type": "control_change", "control": 11, "value": 0, "channel": 13, "tick": 159360}, {"type": "control_change", "control": 11, "value": 0, "channel": 13, "tick": 159360}, {"type": "control_change", "control": 11, "value": 127, "channel": 13, "tick": 170880}, {"type": "control_change", "control": 11, "value": 127, "channel": 13, "tick": 171840}, {"type": "control_change", "control": 11, "value": 123, "channel": 13, "tick": 171960}, {"type": "control_change", "control": 11, "value": 119, "channel": 13, "tick": 172080}, {"type": "control_change", "control": 11, "value": 115, "channel": 13, "tick": 172200}, {"type": "control_change", "control": 11, "value": 111, "channel": 13, "tick": 172320}, {"type": "control_change", "control": 11, "value": 107, "channel": 13, "tick": 172440}, {"type": "control_change", "control": 11, "value": 103, "channel": 13, "tick": 172560}, {"type": "control_change", "control": 11, "value": 99, "channel": 13, "tick": 172680}, {"type": "control_change", "control": 11, "value": 96, "channel": 13, "tick": 172800}, {"type": "control_change", "control": 11, "value": 92, "channel": 13, "tick": 172920}, {"type": "control_change", "control": 11, "value": 88, "channel": 13, "tick": 173040}, {"type": "control_change", "control": 11, "value": 84, "channel": 13, "tick": 173160}, {"type": "control_change", "control": 11, "value": 80, "channel": 13, "tick": 173280}, {"type": "control_change", "control": 11, "value": 76, "channel": 13, "tick": 173400}, {"type": "control_change", "control": 11, "value": 72, "channel": 13, "tick": 173520}, {"type": "control_change", "control": 11, "value": 68, "channel": 13, "tick": 173640}, {"type": "control_change", "control": 11, "value": 64, "channel": 13, "tick": 173760}, {"type": "control_change", "control": 11, "value": 60, "channel": 13, "tick": 173820}, {"type": "control_change", "control": 11, "value": 56, "channel": 13, "tick": 173880}, {"type": "control_change", "control": 11, "value": 52, "channel": 13, "tick": 173940}, {"type": "control_change", "control": 11, "value": 48, "channel": 13, "tick": 174000}, {"type": "control_change", "control": 11, "value": 44, "channel": 13, "tick": 174060}, {"type": "control_change", "control": 11, "value": 40, "channel": 13, "tick": 174120}, {"type": "control_change", "control": 11, "value": 36, "channel": 13, "tick": 174180}, {"type": "control_change", "control": 11, "value": 32, "channel": 13, "tick": 174240}, {"type": "control_change", "control": 11, "value": 28, "channel": 13, "tick": 174300}, {"type": "control_change", "control": 11, "value": 24, "channel": 13, "tick": 174360}, {"type": "control_change", "control": 11, "value": 20, "channel": 13, "tick": 174420}, {"type": "control_change", "control": 11, "value": 16, "channel": 13, "tick": 174480}, {"type": "control_change", "control": 11, "value": 12, "channel": 13, "tick": 174540}, {"type": "control_change", "control": 11, "value": 8, "channel": 13, "tick": 174600}, {"type": "control_change", "control": 11, "value": 4, "channel": 13, "tick": 174660}, {"type": "control_change", "control": 11, "value": 0, "channel": 13, "tick": 174720}, {"type": "control_change", "control": 11, "value": 127, "channel": 13, "tick": 186240}, {"type": "control_change", "control": 11, "value": 127, "channel": 13, "tick": 187200}, {"type": "control_change", "control": 11, "value": 123, "channel": 13, "tick": 187320}, {"type": "control_change", "control": 11, "value": 119, "channel": 13, "tick": 187440}, {"type": "control_change", "control": 11, "value": 115, "channel": 13, "tick": 187560}, {"type": "control_change", "control": 11, "value": 111, "channel": 13, "tick": 187680}, {"type": "control_change", "control": 11, "value": 107, "channel": 13, "tick": 187800}, {"type": "control_change", "control": 11, "value": 103, "channel": 13, "tick": 187920}, {"type": "control_change", "control": 11, "value": 99, "channel": 13, "tick": 188040}, {"type": "control_change", "control": 11, "value": 96, "channel": 13, "tick": 188160}, {"type": "control_change", "control": 11, "value": 92, "channel": 13, "tick": 188280}, {"type": "control_change", "control": 11, "value": 88, "channel": 13, "tick": 188400}, {"type": "control_change", "control": 11, "value": 84, "channel": 13, "tick": 188520}, {"type": "control_change", "control": 11, "value": 80, "channel": 13, "tick": 188640}, {"type": "control_change", "control": 11, "value": 76, "channel": 13, "tick": 188760}, {"type": "control_change", "control": 11, "value": 72, "channel": 13, "tick": 188880}, {"type": "control_change", "control": 11, "value": 68, "channel": 13, "tick": 189000}, {"type": "control_change", "control": 11, "value": 64, "channel": 13, "tick": 189120}, {"type": "control_change", "control": 11, "value": 60, "channel": 13, "tick": 189180}, {"type": "control_change", "control": 11, "value": 56, "channel": 13, "tick": 189240}, {"type": "control_change", "control": 11, "value": 52, "channel": 13, "tick": 189300}, {"type": "control_change", "control": 11, "value": 48, "channel": 13, "tick": 189360}, {"type": "control_change", "control": 11, "value": 44, "channel": 13, "tick": 189420}, {"type": "control_change", "control": 11, "value": 40, "channel": 13, "tick": 189480}, {"type": "control_change", "control": 11, "value": 36, "channel": 13, "tick": 189540}, {"type": "control_change", "control": 11, "value": 32, "channel": 13, "tick": 189600}, {"type": "control_change", "control": 11, "value": 28, "channel": 13, "tick": 189660}, {"type": "control_change", "control": 11, "value": 24, "channel": 13, "tick": 189720}, {"type": "control_change", "control": 11, "value": 20, "channel": 13, "tick": 189780}, {"type": "control_change", "control": 11, "value": 16, "channel": 13, "tick": 189840}, {"type": "control_change", "control": 11, "value": 12, "channel": 13, "tick": 189900}, {"type": "control_change", "control": 11, "value": 8, "channel": 13, "tick": 189960}, {"type": "control_change", "control": 11, "value": 4, "channel": 13, "tick": 190020}, {"type": "control_change", "control": 11, "value": 0, "channel": 13, "tick": 190080}, {"type": "control_change", "control": 11, "value": 127, "channel": 13, "tick": 201600}, {"type": "control_change", "control": 11, "value": 127, "channel": 13, "tick": 202560}, {"type": "control_change", "control": 11, "value": 123, "channel": 13, "tick": 202680}, {"type": "control_change", "control": 11, "value": 119, "channel": 13, "tick": 202800}, {"type": "control_change", "control": 11, "value": 115, "channel": 13, "tick": 202920}, {"type": "control_change", "control": 11, "value": 111, "channel": 13, "tick": 203040}, {"type": "control_change", "control": 11, "value": 107, "channel": 13, "tick": 203160}, {"type": "control_change", "control": 11, "value": 103, "channel": 13, "tick": 203280}, {"type": "control_change", "control": 11, "value": 99, "channel": 13, "tick": 203400}, {"type": "control_change", "control": 11, "value": 96, "channel": 13, "tick": 203520}, {"type": "control_change", "control": 11, "value": 92, "channel": 13, "tick": 203640}, {"type": "control_change", "control": 11, "value": 88, "channel": 13, "tick": 203760}, {"type": "control_change", "control": 11, "value": 84, "channel": 13, "tick": 203880}, {"type": "control_change", "control": 11, "value": 80, "channel": 13, "tick": 204000}, {"type": "control_change", "control": 11, "value": 76, "channel": 13, "tick": 204120}, {"type": "control_change", "control": 11, "value": 72, "channel": 13, "tick": 204240}, {"type": "control_change", "control": 11, "value": 68, "channel": 13, "tick": 204360}, {"type": "control_change", "control": 11, "value": 64, "channel": 13, "tick": 204480}, {"type": "control_change", "control": 11, "value": 60, "channel": 13, "tick": 204540}, {"type": "control_change", "control": 11, "value": 56, "channel": 13, "tick": 204600}, {"type": "control_change", "control": 11, "value": 52, "channel": 13, "tick": 204660}, {"type": "control_change", "control": 11, "value": 48, "channel": 13, "tick": 204720}, {"type": "control_change", "control": 11, "value": 44, "channel": 13, "tick": 204780}, {"type": "control_change", "control": 11, "value": 40, "channel": 13, "tick": 204840}, {"type": "control_change", "control": 11, "value": 36, "channel": 13, "tick": 204900}, {"type": "control_change", "control": 11, "value": 32, "channel": 13, "tick": 204960}, {"type": "control_change", "control": 11, "value": 28, "channel": 13, "tick": 205020}, {"type": "control_change", "control": 11, "value": 24, "channel": 13, "tick": 205080}, {"type": "control_change", "control": 11, "value": 20, "channel": 13, "tick": 205140}, {"type": "control_change", "control": 11, "value": 16, "channel": 13, "tick": 205200}, {"type": "control_change", "control": 11, "value": 12, "channel": 13, "tick": 205260}, {"type": "control_change", "control": 11, "value": 8, "channel": 13, "tick": 205320}, {"type": "control_change", "control": 11, "value": 4, "channel": 13, "tick": 205380}, {"type": "control_change", "control": 11, "value": 0, "channel": 13, "tick": 205440}, {"type": "control_change", "control": 11, "value": 0, "channel": 13, "tick": 212640}, {"type": "control_change", "control": 11, "value": 5, "channel": 13, "tick": 212760}, {"type": "control_change", "control": 11, "value": 10, "channel": 13, "tick": 212880}, {"type": "control_change", "control": 11, "value": 15, "channel": 13, "tick": 213000}, {"type": "control_change", "control": 11, "value": 20, "channel": 13, "tick": 213120}, {"type": "control_change", "control": 11, "value": 25, "channel": 13, "tick": 213240}, {"type": "control_change", "control": 11, "value": 30, "channel": 13, "tick": 213360}, {"type": "control_change", "control": 11, "value": 35, "channel": 13, "tick": 213480}, {"type": "control_change", "control": 11, "value": 40, "channel": 13, "tick": 213600}, {"type": "control_change", "control": 11, "value": 45, "channel": 13, "tick": 213720}, {"type": "control_change", "control": 11, "value": 50, "channel": 13, "tick": 213840}, {"type": "control_change", "control": 11, "value": 55, "channel": 13, "tick": 213960}, {"type": "control_change", "control": 11, "value": 60, "channel": 13, "tick": 214080}, {"type": "control_change", "control": 11, "value": 65, "channel": 13, "tick": 214200}, {"type": "control_change", "control": 11, "value": 70, "channel": 13, "tick": 214320}, {"type": "control_change", "control": 11, "value": 75, "channel": 13, "tick": 214440}, {"type": "control_change", "control": 11, "value": 80, "channel": 13, "tick": 214560}, {"type": "control_change", "control": 11, "value": 83, "channel": 13, "tick": 214680}, {"type": "control_change", "control": 11, "value": 86, "channel": 13, "tick": 214800}, {"type": "control_change", "control": 11, "value": 89, "channel": 13, "tick": 214920}, {"type": "control_change", "control": 11, "value": 92, "channel": 13, "tick": 215040}, {"type": "control_change", "control": 11, "value": 95, "channel": 13, "tick": 215160}, {"type": "control_change", "control": 11, "value": 98, "channel": 13, "tick": 215280}, {"type": "control_change", "control": 11, "value": 101, "channel": 13, "tick": 215400}, {"type": "control_change", "control": 11, "value": 104, "channel": 13, "tick": 215520}, {"type": "control_change", "control": 11, "value": 106, "channel": 13, "tick": 215640}, {"type": "control_change", "control": 11, "value": 109, "channel": 13, "tick": 215760}, {"type": "control_change", "control": 11, "value": 112, "channel": 13, "tick": 215880}, {"type": "control_change", "control": 11, "value": 115, "channel": 13, "tick": 216000}, {"type": "control_change", "control": 11, "value": 118, "channel": 13, "tick": 216120}, {"type": "control_change", "control": 11, "value": 121, "channel": 13, "tick": 216240}, {"type": "control_change", "control": 11, "value": 124, "channel": 13, "tick": 216360}, {"type": "control_change", "control": 11, "value": 127, "channel": 13, "tick": 216480}, {"type": "control_change", "control": 11, "value": 127, "channel": 13, "tick": 219360}, {"type": "control_change", "control": 11, "value": 125, "channel": 13, "tick": 219480}, {"type": "control_change", "control": 11, "value": 123, "channel": 13, "tick": 219600}, {"type": "control_change", "control": 11, "value": 120, "channel": 13, "tick": 219720}, {"type": "control_change", "control": 11, "value": 118, "channel": 13, "tick": 219840}, {"type": "control_change", "control": 11, "value": 116, "channel": 13, "tick": 219960}, {"type": "control_change", "control": 11, "value": 114, "channel": 13, "tick": 220080}, {"type": "control_change", "control": 11, "value": 111, "channel": 13, "tick": 220200}, {"type": "control_change", "control": 11, "value": 109, "channel": 13, "tick": 220320}, {"type": "control_change", "control": 11, "value": 107, "channel": 13, "tick": 220440}, {"type": "control_change", "control": 11, "value": 105, "channel": 13, "tick": 220560}, {"type": "control_change", "control": 11, "value": 102, "channel": 13, "tick": 220680}, {"type": "control_change", "control": 11, "value": 100, "channel": 13, "tick": 220800}, {"type": "control_change", "control": 11, "value": 98, "channel": 13, "tick": 220920}, {"type": "control_change", "control": 11, "value": 96, "channel": 13, "tick": 221040}, {"type": "control_change", "control": 11, "value": 93, "channel": 13, "tick": 221160}, {"type": "control_change", "control": 11, "value": 91, "channel": 13, "tick": 221280}, {"type": "control_change", "control": 11, "value": 89, "channel": 13, "tick": 221400}, {"type": "control_change", "control": 11, "value": 87, "channel": 13, "tick": 221520}, {"type": "control_change", "control": 11, "value": 84, "channel": 13, "tick": 221640}, {"type": "control_change", "control": 11, "value": 82, "channel": 13, "tick": 221760}, {"type": "control_change", "control": 11, "value": 80, "channel": 13, "tick": 221880}, {"type": "control_change", "control": 11, "value": 78, "channel": 13, "tick": 222000}, {"type": "control_change", "control": 11, "value": 75, "channel": 13, "tick": 222120}, {"type": "control_change", "control": 11, "value": 73, "channel": 13, "tick": 222240}, {"type": "control_change", "control": 11, "value": 71, "channel": 13, "tick": 222360}, {"type": "control_change", "control": 11, "value": 69, "channel": 13, "tick": 222480}, {"type": "control_change", "control": 11, "value": 66, "channel": 13, "tick": 222600}, {"type": "control_change", "control": 11, "value": 64, "channel": 13, "tick": 222720}, {"type": "control_change", "control": 11, "value": 59, "channel": 13, "tick": 222840}, {"type": "control_change", "control": 11, "value": 53, "channel": 13, "tick": 222960}, {"type": "control_change", "control": 11, "value": 48, "channel": 13, "tick": 223080}, {"type": "control_change", "control": 11, "value": 43, "channel": 13, "tick": 223200}, {"type": "control_change", "control": 11, "value": 37, "channel": 13, "tick": 223320}, {"type": "control_change", "control": 11, "value": 32, "channel": 13, "tick": 223440}, {"type": "control_change", "control": 11, "value": 27, "channel": 13, "tick": 223560}, {"type": "control_change", "control": 11, "value": 21, "channel": 13, "tick": 223680}, {"type": "control_change", "control": 11, "value": 16, "channel": 13, "tick": 223800}, {"type": "control_change", "control": 11, "value": 11, "channel": 13, "tick": 223920}, {"type": "control_change", "control": 11, "value": 5, "channel": 13, "tick": 224040}, {"type": "control_change", "control": 11, "value": 0, "channel": 13, "tick": 224160}, {"type": "control_change", "control": 11, "value": 0, "channel": 13, "tick": 283920}, {"type": "control_change", "control": 11, "value": 10, "channel": 13, "tick": 283980}, {"type": "control_change", "control": 11, "value": 20, "channel": 13, "tick": 284040}, {"type": "control_change", "control": 11, "value": 30, "channel": 13, "tick": 284100}, {"type": "control_change", "control": 11, "value": 40, "channel": 13, "tick": 284160}, {"type": "control_change", "control": 11, "value": 50, "channel": 13, "tick": 284220}, {"type": "control_change", "control": 11, "value": 60, "channel": 13, "tick": 284280}, {"type": "control_change", "control": 11, "value": 70, "channel": 13, "tick": 284340}, {"type": "control_change", "control": 11, "value": 80, "channel": 13, "tick": 284400}, {"type": "control_change", "control": 11, "value": 83, "channel": 13, "tick": 284520}, {"type": "control_change", "control": 11, "value": 87, "channel": 13, "tick": 284640}, {"type": "control_change", "control": 11, "value": 90, "channel": 13, "tick": 284760}, {"type": "control_change", "control": 11, "value": 93, "channel": 13, "tick": 284880}, {"type": "control_change", "control": 11, "value": 97, "channel": 13, "tick": 285000}, {"type": "control_change", "control": 11, "value": 100, "channel": 13, "tick": 285120}, {"type": "control_change", "control": 11, "value": 104, "channel": 13, "tick": 285240}, {"type": "control_change", "control": 11, "value": 107, "channel": 13, "tick": 285360}, {"type": "control_change", "control": 11, "value": 110, "channel": 13, "tick": 285480}, {"type": "control_change", "control": 11, "value": 114, "channel": 13, "tick": 285600}, {"type": "control_change", "control": 11, "value": 117, "channel": 13, "tick": 285720}, {"type": "control_change", "control": 11, "value": 120, "channel": 13, "tick": 285840}, {"type": "control_change", "control": 11, "value": 124, "channel": 13, "tick": 285960}, {"type": "control_change", "control": 11, "value": 127, "channel": 13, "tick": 286080}, {"type": "control_change", "control": 11, "value": 127, "channel": 13, "tick": 287040}, {"type": "control_change", "control": 11, "value": 123, "channel": 13, "tick": 287160}, {"type": "control_change", "control": 11, "value": 119, "channel": 13, "tick": 287280}, {"type": "control_change", "control": 11, "value": 115, "channel": 13, "tick": 287400}, {"type": "control_change", "control": 11, "value": 111, "channel": 13, "tick": 287520}, {"type": "control_change", "control": 11, "value": 107, "channel": 13, "tick": 287640}, {"type": "control_change", "control": 11, "value": 103, "channel": 13, "tick": 287760}, {"type": "control_change", "control": 11, "value": 99, "channel": 13, "tick": 287880}, {"type": "control_change", "control": 11, "value": 96, "channel": 13, "tick": 288000}, {"type": "control_change", "control": 11, "value": 92, "channel": 13, "tick": 288120}, {"type": "control_change", "control": 11, "value": 88, "channel": 13, "tick": 288240}, {"type": "control_change", "control": 11, "value": 84, "channel": 13, "tick": 288360}, {"type": "control_change", "control": 11, "value": 80, "channel": 13, "tick": 288480}, {"type": "control_change", "control": 11, "value": 76, "channel": 13, "tick": 288600}, {"type": "control_change", "control": 11, "value": 72, "channel": 13, "tick": 288720}, {"type": "control_change", "control": 11, "value": 68, "channel": 13, "tick": 288840}, {"type": "control_change", "control": 11, "value": 64, "channel": 13, "tick": 288960}, {"type": "control_change", "control": 11, "value": 60, "channel": 13, "tick": 289020}, {"type": "control_change", "control": 11, "value": 56, "channel": 13, "tick": 289080}, {"type": "control_change", "control": 11, "value": 52, "channel": 13, "tick": 289140}, {"type": "control_change", "control": 11, "value": 48, "channel": 13, "tick": 289200}, {"type": "control_change", "control": 11, "value": 44, "channel": 13, "tick": 289260}, {"type": "control_change", "control": 11, "value": 40, "channel": 13, "tick": 289320}, {"type": "control_change", "control": 11, "value": 36, "channel": 13, "tick": 289380}, {"type": "control_change", "control": 11, "value": 32, "channel": 13, "tick": 289440}, {"type": "control_change", "control": 11, "value": 28, "channel": 13, "tick": 289500}, {"type": "control_change", "control": 11, "value": 24, "channel": 13, "tick": 289560}, {"type": "control_change", "control": 11, "value": 20, "channel": 13, "tick": 289620}, {"type": "control_change", "control": 11, "value": 16, "channel": 13, "tick": 289680}, {"type": "control_change", "control": 11, "value": 12, "channel": 13, "tick": 289740}, {"type": "control_change", "control": 11, "value": 8, "channel": 13, "tick": 289800}, {"type": "control_change", "control": 11, "value": 4, "channel": 13, "tick": 289860}, {"type": "control_change", "control": 11, "value": 0, "channel": 13, "tick": 289920}, {"type": "control_change", "control": 11, "value": 127, "channel": 13, "tick": 301440}, {"type": "control_change", "control": 11, "value": 127, "channel": 13, "tick": 302400}, {"type": "control_change", "control": 11, "value": 123, "channel": 13, "tick": 302520}, {"type": "control_change", "control": 11, "value": 119, "channel": 13, "tick": 302640}, {"type": "control_change", "control": 11, "value": 115, "channel": 13, "tick": 302760}, {"type": "control_change", "control": 11, "value": 111, "channel": 13, "tick": 302880}, {"type": "control_change", "control": 11, "value": 107, "channel": 13, "tick": 303000}, {"type": "control_change", "control": 11, "value": 103, "channel": 13, "tick": 303120}, {"type": "control_change", "control": 11, "value": 99, "channel": 13, "tick": 303240}, {"type": "control_change", "control": 11, "value": 96, "channel": 13, "tick": 303360}, {"type": "control_change", "control": 11, "value": 92, "channel": 13, "tick": 303480}, {"type": "control_change", "control": 11, "value": 88, "channel": 13, "tick": 303600}, {"type": "control_change", "control": 11, "value": 84, "channel": 13, "tick": 303720}, {"type": "control_change", "control": 11, "value": 80, "channel": 13, "tick": 303840}, {"type": "control_change", "control": 11, "value": 76, "channel": 13, "tick": 303960}, {"type": "control_change", "control": 11, "value": 72, "channel": 13, "tick": 304080}, {"type": "control_change", "control": 11, "value": 68, "channel": 13, "tick": 304200}, {"type": "control_change", "control": 11, "value": 64, "channel": 13, "tick": 304320}, {"type": "control_change", "control": 11, "value": 60, "channel": 13, "tick": 304380}, {"type": "control_change", "control": 11, "value": 56, "channel": 13, "tick": 304440}, {"type": "control_change", "control": 11, "value": 52, "channel": 13, "tick": 304500}, {"type": "control_change", "control": 11, "value": 48, "channel": 13, "tick": 304560}, {"type": "control_change", "control": 11, "value": 44, "channel": 13, "tick": 304620}, {"type": "control_change", "control": 11, "value": 40, "channel": 13, "tick": 304680}, {"type": "control_change", "control": 11, "value": 36, "channel": 13, "tick": 304740}, {"type": "control_change", "control": 11, "value": 32, "channel": 13, "tick": 304800}, {"type": "control_change", "control": 11, "value": 28, "channel": 13, "tick": 304860}, {"type": "control_change", "control": 11, "value": 24, "channel": 13, "tick": 304920}, {"type": "control_change", "control": 11, "value": 20, "channel": 13, "tick": 304980}, {"type": "control_change", "control": 11, "value": 16, "channel": 13, "tick": 305040}, {"type": "control_change", "control": 11, "value": 12, "channel": 13, "tick": 305100}, {"type": "control_change", "control": 11, "value": 8, "channel": 13, "tick": 305160}, {"type": "control_change", "control": 11, "value": 4, "channel": 13, "tick": 305220}, {"type": "control_change", "control": 11, "value": 0, "channel": 13, "tick": 305280}, {"type": "control_change", "control": 11, "value": 127, "channel": 13, "tick": 316800}, {"type": "control_change", "control": 11, "value": 127, "channel": 13, "tick": 317760}, {"type": "control_change", "control": 11, "value": 123, "channel": 13, "tick": 317880}, {"type": "control_change", "control": 11, "value": 119, "channel": 13, "tick": 318000}, {"type": "control_change", "control": 11, "value": 115, "channel": 13, "tick": 318120}, {"type": "control_change", "control": 11, "value": 111, "channel": 13, "tick": 318240}, {"type": "control_change", "control": 11, "value": 107, "channel": 13, "tick": 318360}, {"type": "control_change", "control": 11, "value": 103, "channel": 13, "tick": 318480}, {"type": "control_change", "control": 11, "value": 99, "channel": 13, "tick": 318600}, {"type": "control_change", "control": 11, "value": 96, "channel": 13, "tick": 318720}, {"type": "control_change", "control": 11, "value": 92, "channel": 13, "tick": 318840}, {"type": "control_change", "control": 11, "value": 88, "channel": 13, "tick": 318960}, {"type": "control_change", "control": 11, "value": 84, "channel": 13, "tick": 319080}, {"type": "control_change", "control": 11, "value": 80, "channel": 13, "tick": 319200}, {"type": "control_change", "control": 11, "value": 76, "channel": 13, "tick": 319320}, {"type": "control_change", "control": 11, "value": 72, "channel": 13, "tick": 319440}, {"type": "control_change", "control": 11, "value": 68, "channel": 13, "tick": 319560}, {"type": "control_change", "control": 11, "value": 64, "channel": 13, "tick": 319680}, {"type": "control_change", "control": 11, "value": 60, "channel": 13, "tick": 319740}, {"type": "control_change", "control": 11, "value": 56, "channel": 13, "tick": 319800}, {"type": "control_change", "control": 11, "value": 52, "channel": 13, "tick": 319860}, {"type": "control_change", "control": 11, "value": 48, "channel": 13, "tick": 319920}, {"type": "control_change", "control": 11, "value": 44, "channel": 13, "tick": 319980}, {"type": "control_change", "control": 11, "value": 40, "channel": 13, "tick": 320040}, {"type": "control_change", "control": 11, "value": 36, "channel": 13, "tick": 320100}, {"type": "control_change", "control": 11, "value": 32, "channel": 13, "tick": 320160}, {"type": "control_change", "control": 11, "value": 28, "channel": 13, "tick": 320220}, {"type": "control_change", "control": 11, "value": 24, "channel": 13, "tick": 320280}, {"type": "control_change", "control": 11, "value": 20, "channel": 13, "tick": 320340}, {"type": "control_change", "control": 11, "value": 16, "channel": 13, "tick": 320400}, {"type": "control_change", "control": 11, "value": 12, "channel": 13, "tick": 320460}, {"type": "control_change", "control": 11, "value": 8, "channel": 13, "tick": 320520}, {"type": "control_change", "control": 11, "value": 4, "channel": 13, "tick": 320580}, {"type": "control_change", "control": 11, "value": 0, "channel": 13, "tick": 320640}, {"type": "control_change", "control": 11, "value": 127, "channel": 13, "tick": 332160}, {"type": "control_change", "control": 11, "value": 127, "channel": 13, "tick": 333120}, {"type": "control_change", "control": 11, "value": 123, "channel": 13, "tick": 333240}, {"type": "control_change", "control": 11, "value": 119, "channel": 13, "tick": 333360}, {"type": "control_change", "control": 11, "value": 115, "channel": 13, "tick": 333480}, {"type": "control_change", "control": 11, "value": 111, "channel": 13, "tick": 333600}, {"type": "control_change", "control": 11, "value": 107, "channel": 13, "tick": 333720}, {"type": "control_change", "control": 11, "value": 103, "channel": 13, "tick": 333840}, {"type": "control_change", "control": 11, "value": 99, "channel": 13, "tick": 333960}, {"type": "control_change", "control": 11, "value": 96, "channel": 13, "tick": 334080}, {"type": "control_change", "control": 11, "value": 92, "channel": 13, "tick": 334200}, {"type": "control_change", "control": 11, "value": 88, "channel": 13, "tick": 334320}, {"type": "control_change", "control": 11, "value": 84, "channel": 13, "tick": 334440}, {"type": "control_change", "control": 11, "value": 80, "channel": 13, "tick": 334560}, {"type": "control_change", "control": 11, "value": 76, "channel": 13, "tick": 334680}, {"type": "control_change", "control": 11, "value": 72, "channel": 13, "tick": 334800}, {"type": "control_change", "control": 11, "value": 68, "channel": 13, "tick": 334920}, {"type": "control_change", "control": 11, "value": 64, "channel": 13, "tick": 335040}, {"type": "control_change", "control": 11, "value": 60, "channel": 13, "tick": 335100}, {"type": "control_change", "control": 11, "value": 56, "channel": 13, "tick": 335160}, {"type": "control_change", "control": 11, "value": 52, "channel": 13, "tick": 335220}, {"type": "control_change", "control": 11, "value": 48, "channel": 13, "tick": 335280}, {"type": "control_change", "control": 11, "value": 44, "channel": 13, "tick": 335340}, {"type": "control_change", "control": 11, "value": 40, "channel": 13, "tick": 335400}, {"type": "control_change", "control": 11, "value": 36, "channel": 13, "tick": 335460}, {"type": "control_change", "control": 11, "value": 32, "channel": 13, "tick": 335520}, {"type": "control_change", "control": 11, "value": 28, "channel": 13, "tick": 335580}, {"type": "control_change", "control": 11, "value": 24, "channel": 13, "tick": 335640}, {"type": "control_change", "control": 11, "value": 20, "channel": 13, "tick": 335700}, {"type": "control_change", "control": 11, "value": 16, "channel": 13, "tick": 335760}, {"type": "control_change", "control": 11, "value": 12, "channel": 13, "tick": 335820}, {"type": "control_change", "control": 11, "value": 8, "channel": 13, "tick": 335880}, {"type": "control_change", "control": 11, "value": 4, "channel": 13, "tick": 335940}, {"type": "control_change", "control": 11, "value": 0, "channel": 13, "tick": 336000}, {"type": "control_change", "control": 11, "value": 0, "channel": 13, "tick": 345360}, {"type": "control_change", "control": 11, "value": 10, "channel": 13, "tick": 345420}, {"type": "control_change", "control": 11, "value": 20, "channel": 13, "tick": 345480}, {"type": "control_change", "control": 11, "value": 30, "channel": 13, "tick": 345540}, {"type": "control_change", "control": 11, "value": 40, "channel": 13, "tick": 345600}, {"type": "control_change", "control": 11, "value": 50, "channel": 13, "tick": 345660}, {"type": "control_change", "control": 11, "value": 60, "channel": 13, "tick": 345720}, {"type": "control_change", "control": 11, "value": 70, "channel": 13, "tick": 345780}, {"type": "control_change", "control": 11, "value": 80, "channel": 13, "tick": 345840}, {"type": "control_change", "control": 11, "value": 83, "channel": 13, "tick": 345960}, {"type": "control_change", "control": 11, "value": 87, "channel": 13, "tick": 346080}, {"type": "control_change", "control": 11, "value": 90, "channel": 13, "tick": 346200}, {"type": "control_change", "control": 11, "value": 93, "channel": 13, "tick": 346320}, {"type": "control_change", "control": 11, "value": 97, "channel": 13, "tick": 346440}, {"type": "control_change", "control": 11, "value": 100, "channel": 13, "tick": 346560}, {"type": "control_change", "control": 11, "value": 104, "channel": 13, "tick": 346680}, {"type": "control_change", "control": 11, "value": 107, "channel": 13, "tick": 346800}, {"type": "control_change", "control": 11, "value": 110, "channel": 13, "tick": 346920}, {"type": "control_change", "control": 11, "value": 114, "channel": 13, "tick": 347040}, {"type": "control_change", "control": 11, "value": 117, "channel": 13, "tick": 347160}, {"type": "control_change", "control": 11, "value": 120, "channel": 13, "tick": 347280}, {"type": "control_change", "control": 11, "value": 124, "channel": 13, "tick": 347400}, {"type": "control_change", "control": 11, "value": 127, "channel": 13, "tick": 347520}, {"type": "control_change", "control": 11, "value": 127, "channel": 13, "tick": 348480}, {"type": "control_change", "control": 11, "value": 123, "channel": 13, "tick": 348600}, {"type": "control_change", "control": 11, "value": 119, "channel": 13, "tick": 348720}, {"type": "control_change", "control": 11, "value": 115, "channel": 13, "tick": 348840}, {"type": "control_change", "control": 11, "value": 111, "channel": 13, "tick": 348960}, {"type": "control_change", "control": 11, "value": 107, "channel": 13, "tick": 349080}, {"type": "control_change", "control": 11, "value": 103, "channel": 13, "tick": 349200}, {"type": "control_change", "control": 11, "value": 99, "channel": 13, "tick": 349320}, {"type": "control_change", "control": 11, "value": 96, "channel": 13, "tick": 349440}, {"type": "control_change", "control": 11, "value": 92, "channel": 13, "tick": 349560}, {"type": "control_change", "control": 11, "value": 88, "channel": 13, "tick": 349680}, {"type": "control_change", "control": 11, "value": 84, "channel": 13, "tick": 349800}, {"type": "control_change", "control": 11, "value": 80, "channel": 13, "tick": 349920}, {"type": "control_change", "control": 11, "value": 76, "channel": 13, "tick": 350040}, {"type": "control_change", "control": 11, "value": 72, "channel": 13, "tick": 350160}, {"type": "control_change", "control": 11, "value": 68, "channel": 13, "tick": 350280}, {"type": "control_change", "control": 11, "value": 64, "channel": 13, "tick": 350400}, {"type": "control_change", "control": 11, "value": 60, "channel": 13, "tick": 350460}, {"type": "control_change", "control": 11, "value": 56, "channel": 13, "tick": 350520}, {"type": "control_change", "control": 11, "value": 52, "channel": 13, "tick": 350580}, {"type": "control_change", "control": 11, "value": 48, "channel": 13, "tick": 350640}, {"type": "control_change", "control": 11, "value": 44, "channel": 13, "tick": 350700}, {"type": "control_change", "control": 11, "value": 40, "channel": 13, "tick": 350760}, {"type": "control_change", "control": 11, "value": 36, "channel": 13, "tick": 350820}, {"type": "control_change", "control": 11, "value": 32, "channel": 13, "tick": 350880}, {"type": "control_change", "control": 11, "value": 28, "channel": 13, "tick": 350940}, {"type": "control_change", "control": 11, "value": 24, "channel": 13, "tick": 351000}, {"type": "control_change", "control": 11, "value": 20, "channel": 13, "tick": 351060}, {"type": "control_change", "control": 11, "value": 16, "channel": 13, "tick": 351120}, {"type": "control_change", "control": 11, "value": 12, "channel": 13, "tick": 351180}, {"type": "control_change", "control": 11, "value": 8, "channel": 13, "tick": 351240}, {"type": "control_change", "control": 11, "value": 4, "channel": 13, "tick": 351300}, {"type": "control_change", "control": 11, "value": 0, "channel": 13, "tick": 351360}, {"type": "control_change", "control": 11, "value": 127, "channel": 13, "tick": 362880}, {"type": "control_change", "control": 11, "value": 127, "channel": 13, "tick": 363840}, {"type": "control_change", "control": 11, "value": 123, "channel": 13, "tick": 363960}, {"type": "control_change", "control": 11, "value": 119, "channel": 13, "tick": 364080}, {"type": "control_change", "control": 11, "value": 115, "channel": 13, "tick": 364200}, {"type": "control_change", "control": 11, "value": 111, "channel": 13, "tick": 364320}, {"type": "control_change", "control": 11, "value": 107, "channel": 13, "tick": 364440}, {"type": "control_change", "control": 11, "value": 103, "channel": 13, "tick": 364560}, {"type": "control_change", "control": 11, "value": 99, "channel": 13, "tick": 364680}, {"type": "control_change", "control": 11, "value": 96, "channel": 13, "tick": 364800}, {"type": "control_change", "control": 11, "value": 92, "channel": 13, "tick": 364920}, {"type": "control_change", "control": 11, "value": 88, "channel": 13, "tick": 365040}, {"type": "control_change", "control": 11, "value": 84, "channel": 13, "tick": 365160}, {"type": "control_change", "control": 11, "value": 80, "channel": 13, "tick": 365280}, {"type": "control_change", "control": 11, "value": 76, "channel": 13, "tick": 365400}, {"type": "control_change", "control": 11, "value": 72, "channel": 13, "tick": 365520}, {"type": "control_change", "control": 11, "value": 68, "channel": 13, "tick": 365640}, {"type": "control_change", "control": 11, "value": 64, "channel": 13, "tick": 365760}, {"type": "control_change", "control": 11, "value": 60, "channel": 13, "tick": 365820}, {"type": "control_change", "control": 11, "value": 56, "channel": 13, "tick": 365880}, {"type": "control_change", "control": 11, "value": 52, "channel": 13, "tick": 365940}, {"type": "control_change", "control": 11, "value": 48, "channel": 13, "tick": 366000}, {"type": "control_change", "control": 11, "value": 44, "channel": 13, "tick": 366060}, {"type": "control_change", "control": 11, "value": 40, "channel": 13, "tick": 366120}, {"type": "control_change", "control": 11, "value": 36, "channel": 13, "tick": 366180}, {"type": "control_change", "control": 11, "value": 32, "channel": 13, "tick": 366240}, {"type": "control_change", "control": 11, "value": 28, "channel": 13, "tick": 366300}, {"type": "control_change", "control": 11, "value": 24, "channel": 13, "tick": 366360}, {"type": "control_change", "control": 11, "value": 20, "channel": 13, "tick": 366420}, {"type": "control_change", "control": 11, "value": 16, "channel": 13, "tick": 366480}, {"type": "control_change", "control": 11, "value": 12, "channel": 13, "tick": 366540}, {"type": "control_change", "control": 11, "value": 8, "channel": 13, "tick": 366600}, {"type": "control_change", "control": 11, "value": 4, "channel": 13, "tick": 366660}, {"type": "control_change", "control": 11, "value": 0, "channel": 13, "tick": 366720}, {"type": "control_change", "control": 11, "value": 127, "channel": 13, "tick": 378240}, {"type": "control_change", "control": 11, "value": 127, "channel": 13, "tick": 379200}, {"type": "control_change", "control": 11, "value": 123, "channel": 13, "tick": 379320}, {"type": "control_change", "control": 11, "value": 119, "channel": 13, "tick": 379440}, {"type": "control_change", "control": 11, "value": 115, "channel": 13, "tick": 379560}, {"type": "control_change", "control": 11, "value": 111, "channel": 13, "tick": 379680}, {"type": "control_change", "control": 11, "value": 107, "channel": 13, "tick": 379800}, {"type": "control_change", "control": 11, "value": 103, "channel": 13, "tick": 379920}, {"type": "control_change", "control": 11, "value": 99, "channel": 13, "tick": 380040}, {"type": "control_change", "control": 11, "value": 96, "channel": 13, "tick": 380160}, {"type": "control_change", "control": 11, "value": 92, "channel": 13, "tick": 380280}, {"type": "control_change", "control": 11, "value": 88, "channel": 13, "tick": 380400}, {"type": "control_change", "control": 11, "value": 84, "channel": 13, "tick": 380520}, {"type": "control_change", "control": 11, "value": 80, "channel": 13, "tick": 380640}, {"type": "control_change", "control": 11, "value": 76, "channel": 13, "tick": 380760}, {"type": "control_change", "control": 11, "value": 72, "channel": 13, "tick": 380880}, {"type": "control_change", "control": 11, "value": 68, "channel": 13, "tick": 381000}, {"type": "control_change", "control": 11, "value": 64, "channel": 13, "tick": 381120}, {"type": "control_change", "control": 11, "value": 60, "channel": 13, "tick": 381180}, {"type": "control_change", "control": 11, "value": 56, "channel": 13, "tick": 381240}, {"type": "control_change", "control": 11, "value": 52, "channel": 13, "tick": 381300}, {"type": "control_change", "control": 11, "value": 48, "channel": 13, "tick": 381360}, {"type": "control_change", "control": 11, "value": 44, "channel": 13, "tick": 381420}, {"type": "control_change", "control": 11, "value": 40, "channel": 13, "tick": 381480}, {"type": "control_change", "control": 11, "value": 36, "channel": 13, "tick": 381540}, {"type": "control_change", "control": 11, "value": 32, "channel": 13, "tick": 381600}, {"type": "control_change", "control": 11, "value": 28, "channel": 13, "tick": 381660}, {"type": "control_change", "control": 11, "value": 24, "channel": 13, "tick": 381720}, {"type": "control_change", "control": 11, "value": 20, "channel": 13, "tick": 381780}, {"type": "control_change", "control": 11, "value": 16, "channel": 13, "tick": 381840}, {"type": "control_change", "control": 11, "value": 12, "channel": 13, "tick": 381900}, {"type": "control_change", "control": 11, "value": 8, "channel": 13, "tick": 381960}, {"type": "control_change", "control": 11, "value": 4, "channel": 13, "tick": 382020}, {"type": "control_change", "control": 11, "value": 0, "channel": 13, "tick": 382080}, {"type": "control_change", "control": 11, "value": 127, "channel": 13, "tick": 393600}, {"type": "control_change", "control": 11, "value": 127, "channel": 13, "tick": 394560}, {"type": "control_change", "control": 11, "value": 123, "channel": 13, "tick": 394680}, {"type": "control_change", "control": 11, "value": 119, "channel": 13, "tick": 394800}, {"type": "control_change", "control": 11, "value": 115, "channel": 13, "tick": 394920}, {"type": "control_change", "control": 11, "value": 111, "channel": 13, "tick": 395040}, {"type": "control_change", "control": 11, "value": 107, "channel": 13, "tick": 395160}, {"type": "control_change", "control": 11, "value": 103, "channel": 13, "tick": 395280}, {"type": "control_change", "control": 11, "value": 99, "channel": 13, "tick": 395400}, {"type": "control_change", "control": 11, "value": 96, "channel": 13, "tick": 395520}, {"type": "control_change", "control": 11, "value": 92, "channel": 13, "tick": 395640}, {"type": "control_change", "control": 11, "value": 88, "channel": 13, "tick": 395760}, {"type": "control_change", "control": 11, "value": 84, "channel": 13, "tick": 395880}, {"type": "control_change", "control": 11, "value": 80, "channel": 13, "tick": 396000}, {"type": "control_change", "control": 11, "value": 76, "channel": 13, "tick": 396120}, {"type": "control_change", "control": 11, "value": 72, "channel": 13, "tick": 396240}, {"type": "control_change", "control": 11, "value": 68, "channel": 13, "tick": 396360}, {"type": "control_change", "control": 11, "value": 64, "channel": 13, "tick": 396480}, {"type": "control_change", "control": 11, "value": 60, "channel": 13, "tick": 396540}, {"type": "control_change", "control": 11, "value": 56, "channel": 13, "tick": 396600}, {"type": "control_change", "control": 11, "value": 52, "channel": 13, "tick": 396660}, {"type": "control_change", "control": 11, "value": 48, "channel": 13, "tick": 396720}, {"type": "control_change", "control": 11, "value": 44, "channel": 13, "tick": 396780}, {"type": "control_change", "control": 11, "value": 40, "channel": 13, "tick": 396840}, {"type": "control_change", "control": 11, "value": 36, "channel": 13, "tick": 396900}, {"type": "control_change", "control": 11, "value": 32, "channel": 13, "tick": 396960}, {"type": "control_change", "control": 11, "value": 28, "channel": 13, "tick": 397020}, {"type": "control_change", "control": 11, "value": 24, "channel": 13, "tick": 397080}, {"type": "control_change", "control": 11, "value": 20, "channel": 13, "tick": 397140}, {"type": "control_change", "control": 11, "value": 16, "channel": 13, "tick": 397200}, {"type": "control_change", "control": 11, "value": 12, "channel": 13, "tick": 397260}, {"type": "control_change", "control": 11, "value": 8, "channel": 13, "tick": 397320}, {"type": "control_change", "control": 11, "value": 4, "channel": 13, "tick": 397380}, {"type": "control_change", "control": 11, "value": 0, "channel": 13, "tick": 397440}, {"type": "control_change", "control": 11, "value": 0, "channel": 13, "tick": 406800}, {"type": "control_change", "control": 11, "value": 10, "channel": 13, "tick": 406860}, {"type": "control_change", "control": 11, "value": 20, "channel": 13, "tick": 406920}, {"type": "control_change", "control": 11, "value": 30, "channel": 13, "tick": 406980}, {"type": "control_change", "control": 11, "value": 40, "channel": 13, "tick": 407040}, {"type": "control_change", "control": 11, "value": 50, "channel": 13, "tick": 407100}, {"type": "control_change", "control": 11, "value": 60, "channel": 13, "tick": 407160}, {"type": "control_change", "control": 11, "value": 70, "channel": 13, "tick": 407220}, {"type": "control_change", "control": 11, "value": 80, "channel": 13, "tick": 407280}, {"type": "control_change", "control": 11, "value": 83, "channel": 13, "tick": 407400}, {"type": "control_change", "control": 11, "value": 87, "channel": 13, "tick": 407520}, {"type": "control_change", "control": 11, "value": 90, "channel": 13, "tick": 407640}, {"type": "control_change", "control": 11, "value": 93, "channel": 13, "tick": 407760}, {"type": "control_change", "control": 11, "value": 97, "channel": 13, "tick": 407880}, {"type": "control_change", "control": 11, "value": 100, "channel": 13, "tick": 408000}, {"type": "control_change", "control": 11, "value": 104, "channel": 13, "tick": 408120}, {"type": "control_change", "control": 11, "value": 107, "channel": 13, "tick": 408240}, {"type": "control_change", "control": 11, "value": 110, "channel": 13, "tick": 408360}, {"type": "control_change", "control": 11, "value": 114, "channel": 13, "tick": 408480}, {"type": "control_change", "control": 11, "value": 117, "channel": 13, "tick": 408600}, {"type": "control_change", "control": 11, "value": 120, "channel": 13, "tick": 408720}, {"type": "control_change", "control": 11, "value": 124, "channel": 13, "tick": 408840}, {"type": "control_change", "control": 11, "value": 127, "channel": 13, "tick": 408960}, {"type": "control_change", "control": 11, "value": 127, "channel": 13, "tick": 409920}, {"type": "control_change", "control": 11, "value": 123, "channel": 13, "tick": 410040}, {"type": "control_change", "control": 11, "value": 119, "channel": 13, "tick": 410160}, {"type": "control_change", "control": 11, "value": 115, "channel": 13, "tick": 410280}, {"type": "control_change", "control": 11, "value": 111, "channel": 13, "tick": 410400}, {"type": "control_change", "control": 11, "value": 107, "channel": 13, "tick": 410520}, {"type": "control_change", "control": 11, "value": 103, "channel": 13, "tick": 410640}, {"type": "control_change", "control": 11, "value": 99, "channel": 13, "tick": 410760}, {"type": "control_change", "control": 11, "value": 96, "channel": 13, "tick": 410880}, {"type": "control_change", "control": 11, "value": 92, "channel": 13, "tick": 411000}, {"type": "control_change", "control": 11, "value": 88, "channel": 13, "tick": 411120}, {"type": "control_change", "control": 11, "value": 84, "channel": 13, "tick": 411240}, {"type": "control_change", "control": 11, "value": 80, "channel": 13, "tick": 411360}, {"type": "control_change", "control": 11, "value": 76, "channel": 13, "tick": 411480}, {"type": "control_change", "control": 11, "value": 72, "channel": 13, "tick": 411600}, {"type": "control_change", "control": 11, "value": 68, "channel": 13, "tick": 411720}, {"type": "control_change", "control": 11, "value": 64, "channel": 13, "tick": 411840}, {"type": "control_change", "control": 11, "value": 60, "channel": 13, "tick": 411900}, {"type": "control_change", "control": 11, "value": 56, "channel": 13, "tick": 411960}, {"type": "control_change", "control": 11, "value": 52, "channel": 13, "tick": 412020}, {"type": "control_change", "control": 11, "value": 48, "channel": 13, "tick": 412080}, {"type": "control_change", "control": 11, "value": 44, "channel": 13, "tick": 412140}, {"type": "control_change", "control": 11, "value": 40, "channel": 13, "tick": 412200}, {"type": "control_change", "control": 11, "value": 36, "channel": 13, "tick": 412260}, {"type": "control_change", "control": 11, "value": 32, "channel": 13, "tick": 412320}, {"type": "control_change", "control": 11, "value": 28, "channel": 13, "tick": 412380}, {"type": "control_change", "control": 11, "value": 24, "channel": 13, "tick": 412440}, {"type": "control_change", "control": 11, "value": 20, "channel": 13, "tick": 412500}, {"type": "control_change", "control": 11, "value": 16, "channel": 13, "tick": 412560}, {"type": "control_change", "control": 11, "value": 12, "channel": 13, "tick": 412620}, {"type": "control_change", "control": 11, "value": 8, "channel": 13, "tick": 412680}, {"type": "control_change", "control": 11, "value": 4, "channel": 13, "tick": 412740}, {"type": "control_change", "control": 11, "value": 0, "channel": 13, "tick": 412800}, {"type": "control_change", "control": 11, "value": 127, "channel": 13, "tick": 531840}, {"type": "control_change", "control": 11, "value": 127, "channel": 13, "tick": 534720}, {"type": "control_change", "control": 11, "value": 123, "channel": 13, "tick": 534960}, {"type": "control_change", "control": 11, "value": 119, "channel": 13, "tick": 535200}, {"type": "control_change", "control": 11, "value": 115, "channel": 13, "tick": 535440}, {"type": "control_change", "control": 11, "value": 111, "channel": 13, "tick": 535680}, {"type": "control_change", "control": 11, "value": 107, "channel": 13, "tick": 535920}, {"type": "control_change", "control": 11, "value": 103, "channel": 13, "tick": 536160}, {"type": "control_change", "control": 11, "value": 99, "channel": 13, "tick": 536400}, {"type": "control_change", "control": 11, "value": 95, "channel": 13, "tick": 536640}, {"type": "control_change", "control": 11, "value": 91, "channel": 13, "tick": 536880}, {"type": "control_change", "control": 11, "value": 87, "channel": 13, "tick": 537120}, {"type": "control_change", "control": 11, "value": 83, "channel": 13, "tick": 537360}, {"type": "control_change", "control": 11, "value": 79, "channel": 13, "tick": 537600}, {"type": "control_change", "control": 11, "value": 75, "channel": 13, "tick": 537840}, {"type": "control_change", "control": 11, "value": 71, "channel": 13, "tick": 538080}, {"type": "control_change", "control": 11, "value": 67, "channel": 13, "tick": 538320}, {"type": "control_change", "control": 11, "value": 64, "channel": 13, "tick": 538560}, {"type": "control_change", "control": 11, "value": 60, "channel": 13, "tick": 538800}, {"type": "control_change", "control": 11, "value": 56, "channel": 13, "tick": 539040}, {"type": "control_change", "control": 11, "value": 52, "channel": 13, "tick": 539280}, {"type": "control_change", "control": 11, "value": 48, "channel": 13, "tick": 539520}, {"type": "control_change", "control": 11, "value": 44, "channel": 13, "tick": 539760}, {"type": "control_change", "control": 11, "value": 40, "channel": 13, "tick": 540000}, {"type": "control_change", "control": 11, "value": 36, "channel": 13, "tick": 540240}, {"type": "control_change", "control": 11, "value": 32, "channel": 13, "tick": 540480}, {"type": "control_change", "control": 11, "value": 28, "channel": 13, "tick": 540720}, {"type": "control_change", "control": 11, "value": 24, "channel": 13, "tick": 540960}, {"type": "control_change", "control": 11, "value": 20, "channel": 13, "tick": 541200}, {"type": "control_change", "control": 11, "value": 16, "channel": 13, "tick": 541440}, {"type": "control_change", "control": 11, "value": 12, "channel": 13, "tick": 541680}, {"type": "control_change", "control": 11, "value": 8, "channel": 13, "tick": 541920}, {"type": "control_change", "control": 11, "value": 4, "channel": 13, "tick": 542160}, {"type": "control_change", "control": 11, "value": 0, "channel": 13, "tick": 542400}, {"type": "end_of_track", "tick": 542400}], "notes": [{"pitch": 96, "tick": 15120, "length": 2160, "velocity": 96}, {"pitch": 67, "tick": 17280, "length": 3840, "velocity": 96}, {"pitch": 67, "tick": 32640, "length": 3840, "velocity": 96}, {"pitch": 67, "tick": 48000, "length": 3840, "velocity": 96}, {"pitch": 96, "tick": 61200, "length": 2160, "velocity": 96}, {"pitch": 67, "tick": 63360, "length": 3840, "velocity": 96}, {"pitch": 67, "tick": 78720, "length": 3840, "velocity": 96}, {"pitch": 67, "tick": 94080, "length": 3840, "velocity": 96}, {"pitch": 67, "tick": 109440, "length": 3840, "velocity": 96}, {"pitch": 67, "tick": 124800, "length": 3840, "velocity": 96}, {"pitch": 67, "tick": 140160, "length": 3840, "velocity": 96}, {"pitch": 67, "tick": 155520, "length": 3840, "velocity": 96}, {"pitch": 67, "tick": 170880, "length": 3840, "velocity": 96}, {"pitch": 67, "tick": 186240, "length": 3840, "velocity": 96}, {"pitch": 67, "tick": 201600, "length": 3840, "velocity": 96}, {"pitch": 96, "tick": 212640, "length": 3840, "velocity": 96}, {"pitch": 67, "tick": 216480, "length": 7680, "velocity": 96}, {"pitch": 96, "tick": 283920, "length": 2160, "velocity": 96}, {"pitch": 67, "tick": 286080, "length": 3840, "velocity": 96}, {"pitch": 67, "tick": 301440, "length": 3840, "velocity": 96}, {"pitch": 67, "tick": 316800, "length": 3840, "velocity": 96}, {"pitch": 67, "tick": 332160, "length": 3840, "velocity": 96}, {"pitch": 96, "tick": 345360, "length": 2160, "velocity": 96}, {"pitch": 67, "tick": 347520, "length": 3840, "velocity": 96}, {"pitch": 67, "tick": 362880, "length": 3840, "velocity": 96}, {"pitch": 67, "tick": 378240, "length": 3840, "velocity": 96}, {"pitch": 67, "tick": 393600, "length": 3840, "velocity": 96}, {"pitch": 96, "tick": 406800, "length": 2160, "velocity": 96}, {"pitch": 67, "tick": 408960, "length": 3840, "velocity": 96}, {"pitch": 48, "tick": 531840, "length": 10560, "velocity": 96}]}, {"channel": 14, "length": 542400, "track_name": "\u0083Z\u0083~/\u008c\u00f8\u0089\u00ca\u0089\u00b9\u0083V\u0083\u0093\u0083Z", "events": [{"type": "track_name", "name": "\u0083Z\u0083~/\u008c\u00f8\u0089\u00ca\u0089\u00b9\u0083V\u0083\u0093\u0083Z", "tick": 0}, {"type": "midi_port", "port": 0, "tick": 0}, {"type": "control_change", "control": 0, "value": 121, "channel": 14, "tick": 480}, {"type": "control_change", "control": 32, "value": 1, "channel": 14, "tick": 480}, {"type": "program_change", "program": 122, "channel": 14, "tick": 480}, {"type": "sysex", "data": [65, 16, 0, 72, 18, 16, 0, 46, 63, 0, 3], "tick": 540}, {"type": "control_change", "control": 7, "value": 80, "channel": 14, "tick": 600}, {"type": "control_change", "control": 10, "value": 64, "channel": 14, "tick": 660}, {"type": "control_change", "control": 91, "value": 0, "channel": 14, "tick": 720}, {"type": "control_change", "control": 93, "value": 127, "channel": 14, "tick": 780}, {"type": "control_change", "control": 74, "value": 64, "channel": 14, "tick": 840}, {"type": "control_change", "control": 71, "value": 96, "channel": 14, "tick": 900}, {"type": "control_change", "control": 73, "value": 0, "channel": 14, "tick": 960}, {"type": "control_change", "control": 75, "value": 64, "channel": 14, "tick": 1020}, {"type": "control_change", "control": 72, "value": 28, "channel": 14, "tick": 1080}, {"type": "control_change", "control": 101, "value": 0, "channel": 14, "tick": 1140}, {"type": "control_change", "control": 100, "value": 0, "channel": 14, "tick": 1140}, {"type": "control_change", "control": 6, "value": 12, "channel": 14, "tick": 1140}, {"type": "control_change", "control": 38, "value": 0, "channel": 14, "tick": 1140}, {"type": "pitchwheel", "channel": 14, "pitch": 0, "tick": 1200}, {"type": "control_change", "control": 1, "value": 0, "channel": 14, "tick": 1260}, {"type": "control_change", "control": 11, "value": 127, "channel": 14, "tick": 1320}, {"type": "control_change", "control": 101, "value": 127, "channel": 14, "tick": 1380}, {"type": "control_change", "control": 100, "value": 127, "channel": 14, "tick": 1380}, {"type": "control_change", "control": 6, "value": 0, "channel": 14, "tick": 1380}, {"type": "control_change", "control": 38, "value": 0, "channel": 14, "tick": 1380}, {"type": "control_change", "control": 11, "value": 0, "channel": 14, "tick": 28800}, {"type": "control_change", "control": 11, "value": 6, "channel": 14, "tick": 28860}, {"type": "control_change", "control": 11, "value": 13, "channel": 14, "tick": 28920}, {"type": "control_change", "control": 11, "value": 19, "channel": 14, "tick": 28980}, {"type": "control_change", "control": 11, "value": 26, "channel": 14, "tick": 29040}, {"type": "control_change", "control": 11, "value": 32, "channel": 14, "tick": 29100}, {"type": "control_change", "control": 11, "value": 38, "channel": 14, "tick": 29160}, {"type": "control_change", "control": 11, "value": 45, "channel": 14, "tick": 29220}, {"type": "control_change", "control": 11, "value": 51, "channel": 14, "tick": 29280}, {"type": "control_change", "control": 11, "value": 58, "channel": 14, "tick": 29340}, {"type": "control_change", "control": 11, "value": 64, "channel": 14, "tick": 29400}, {"type": "control_change", "control": 11, "value": 69, "channel": 14, "tick": 29520}, {"type": "control_change", "control": 11, "value": 72, "channel": 14, "tick": 29640}, {"type": "control_change", "control": 11, "value": 75, "channel": 14, "tick": 29760}, {"type": "control_change", "control": 11, "value": 77, "channel": 14, "tick": 29880}, {"type": "control_change", "control": 11, "value": 80, "channel": 14, "tick": 30000}, {"type": "control_change", "control": 11, "value": 82, "channel": 14, "tick": 30120}, {"type": "control_change", "control": 11, "value": 85, "channel": 14, "tick": 30240}, {"type": "control_change", "control": 11, "value": 88, "channel": 14, "tick": 30360}, {"type": "control_change", "control": 11, "value": 90, "channel": 14, "tick": 30480}, {"type": "control_change", "control": 11, "value": 93, "channel": 14, "tick": 30600}, {"type": "control_change", "control": 11, "value": 96, "channel": 14, "tick": 30720}, {"type": "control_change", "control": 11, "value": 98, "channel": 14, "tick": 30840}, {"type": "control_change", "control": 11, "value": 101, "channel": 14, "tick": 30960}, {"type": "control_change", "control": 11, "value": 103, "channel": 14, "tick": 31080}, {"type": "control_change", "control": 11, "value": 106, "channel": 14, "tick": 31200}, {"type": "control_change", "control": 11, "value": 109, "channel": 14, "tick": 31320}, {"type": "control_change", "control": 11, "value": 111, "channel": 14, "tick": 31440}, {"type": "control_change", "control": 11, "value": 114, "channel": 14, "tick": 31560}, {"type": "control_change", "control": 11, "value": 117, "channel": 14, "tick": 31680}, {"type": "control_change", "control": 11, "value": 119, "channel": 14, "tick": 31800}, {"type": "control_change", "control": 11, "value": 122, "channel": 14, "tick": 31920}, {"type": "control_change", "control": 11, "value": 124, "channel": 14, "tick": 32040}, {"type": "control_change", "control": 11, "value": 127, "channel": 14, "tick": 32160}, {"type": "control_change", "control": 11, "value": 0, "channel": 14, "tick": 151680}, {"type": "control_change", "control": 11, "value": 6, "channel": 14, "tick": 151740}, {"type": "control_change", "control": 11, "value": 13, "channel": 14, "tick": 151800}, {"type": "control_change", "control": 11, "value": 19, "channel": 14, "tick": 151860}, {"type": "control_change", "control": 11, "value": 26, "channel": 14, "tick": 151920}, {"type": "control_change", "control": 11, "value": 32, "channel": 14, "tick": 151980}, {"type": "control_change", "control": 11, "value": 38, "channel": 14, "tick": 152040}, {"type": "control_change", "control": 11, "value": 45, "channel": 14, "tick": 152100}, {"type": "control_change", "control": 11, "value": 51, "channel": 14, "tick": 152160}, {"type": "control_change", "control": 11, "value": 58, "channel": 14, "tick": 152220}, {"type": "control_change", "control": 11, "value": 64, "channel": 14, "tick": 152280}, {"type": "control_change", "control": 11, "value": 69, "channel": 14, "tick": 152400}, {"type": "control_change", "control": 11, "value": 72, "channel": 14, "tick": 152520}, {"type": "control_change", "control": 11, "value": 75, "channel": 14, "tick": 152640}, {"type": "control_change", "control": 11, "value": 77, "channel": 14, "tick": 152760}, {"type": "control_change", "control": 11, "value": 80, "channel": 14, "tick": 152880}, {"type": "control_change", "control": 11, "value": 82, "channel": 14, "tick": 153000}, {"type": "control_change", "control": 11, "value": 85, "channel": 14, "tick": 153120}, {"type": "control_change", "control": 11, "value": 88, "channel": 14, "tick": 153240}, {"type": "control_change", "control": 11, "value": 90, "channel": 14, "tick": 153360}, {"type": "control_change", "control": 11, "value": 93, "channel": 14, "tick": 153480}, {"type": "control_change", "control": 11, "value": 96, "channel": 14, "tick": 153600}, {"type": "control_change", "control": 11, "value": 98, "channel": 14, "tick": 153720}, {"type": "control_change", "control": 11, "value": 101, "channel": 14, "tick": 153840}, {"type": "control_change", "control": 11, "value": 103, "channel": 14, "tick": 153960}, {"type": "control_change", "control": 11, "value": 106, "channel": 14, "tick": 154080}, {"type": "control_change", "control": 11, "value": 109, "channel": 14, "tick": 154200}, {"type": "control_change", "control": 11, "value": 111, "channel": 14, "tick": 154320}, {"type": "control_change", "control": 11, "value": 114, "channel": 14, "tick": 154440}, {"type": "control_change", "control": 11, "value": 117, "channel": 14, "tick": 154560}, {"type": "control_change", "control": 11, "value": 119, "channel": 14, "tick": 154680}, {"type": "control_change", "control": 11, "value": 122, "channel": 14, "tick": 154800}, {"type": "control_change", "control": 11, "value": 124, "channel": 14, "tick": 154920}, {"type": "control_change", "control": 11, "value": 127, "channel": 14, "tick": 155040}, {"type": "control_change", "control": 11, "value": 96, "channel": 14, "tick": 216480}, {"type": "control_change", "control": 11, "value": 100, "channel": 14, "tick": 216600}, {"type": "control_change", "control": 11, "value": 104, "channel": 14, "tick": 216720}, {"type": "control_change", "control": 11, "value": 108, "channel": 14, "tick": 216840}, {"type": "control_change", "control": 11, "value": 112, "channel": 14, "tick": 216960}, {"type": "control_change", "control": 11, "value": 115, "channel": 14, "tick": 217080}, {"type": "control_change", "control": 11, "value": 119, "channel": 14, "tick": 217200}, {"type": "control_change", "control": 11, "value": 123, "channel": 14, "tick": 217320}, {"type": "control_change", "control": 11, "value": 127, "channel": 14, "tick": 217440}, {"type": "control_change", "control": 11, "value": 127, "channel": 14, "tick": 218880}, {"type": "control_change", "control": 11, "value": 124, "channel": 14, "tick": 219120}, {"type": "control_change", "control": 11, "value": 121, "channel": 14, "tick": 219360}, {"type": "control_change", "control": 11, "value": 118, "channel": 14, "tick": 219600}, {"type": "control_change", "control": 11, "value": 115, "channel": 14, "tick": 219840}, {"type": "control_change", "control": 11, "value": 112, "channel": 14, "tick": 220080}, {"type": "control_change", "control": 11, "value": 109, "channel": 14, "tick": 220320}, {"type": "control_change", "control": 11, "value": 106, "channel": 14, "tick": 220560}, {"type": "control_change", "control": 11, "value": 103, "channel": 14, "tick": 220800}, {"type": "control_change", "control": 11, "value": 100, "channel": 14, "tick": 221040}, {"type": "control_change", "control": 11, "value": 97, "channel": 14, "tick": 221280}, {"type": "control_change", "control": 11, "value": 94, "channel": 14, "tick": 221520}, {"type": "control_change", "control": 11, "value": 91, "channel": 14, "tick": 221760}, {"type": "control_change", "control": 11, "value": 88, "channel": 14, "tick": 222000}, {"type": "control_change", "control": 11, "value": 85, "channel": 14, "tick": 222240}, {"type": "control_change", "control": 11, "value": 82, "channel": 14, "tick": 222480}, {"type": "control_change", "control": 11, "value": 80, "channel": 14, "tick": 222720}, {"type": "control_change", "control": 11, "value": 77, "channel": 14, "tick": 222960}, {"type": "control_change", "control": 11, "value": 74, "channel": 14, "tick": 223200}, {"type": "control_change", "control": 11, "value": 71, "channel": 14, "tick": 223440}, {"type": "control_change", "control": 11, "value": 68, "channel": 14, "tick": 223680}, {"type": "control_change", "control": 11, "value": 65, "channel": 14, "tick": 223920}, {"type": "control_change", "control": 11, "value": 62, "channel": 14, "tick": 224160}, {"type": "control_change", "control": 11, "value": 59, "channel": 14, "tick": 224400}, {"type": "control_change", "control": 11, "value": 56, "channel": 14, "tick": 224640}, {"type": "control_change", "control": 11, "value": 53, "channel": 14, "tick": 224880}, {"type": "control_change", "control": 11, "value": 50, "channel": 14, "tick": 225120}, {"type": "control_change", "control": 11, "value": 47, "channel": 14, "tick": 225360}, {"type": "control_change", "control": 11, "value": 44, "channel": 14, "tick": 225600}, {"type": "control_change", "control": 11, "value": 41, "channel": 14, "tick": 225840}, {"type": "control_change", "control": 11, "value": 38, "channel": 14, "tick": 226080}, {"type": "control_change", "control": 11, "value": 35, "channel": 14, "tick": 226320}, {"type": "control_change", "control": 11, "value": 32, "channel": 14, "tick": 226560}, {"type": "control_change", "control": 11, "value": 28, "channel": 14, "tick": 226680}, {"type": "control_change", "control": 11, "value": 24, "channel": 14, "tick": 226800}, {"type": "control_change", "control": 11, "value": 20, "channel": 14, "tick": 226920}, {"type": "control_change", "control": 11, "value": 16, "channel": 14, "tick": 227040}, {"type": "control_change", "control": 11, "value": 12, "channel": 14, "tick": 227160}, {"type": "control_change", "control": 11, "value": 8, "channel": 14, "tick": 227280}, {"type": "control_change", "control": 11, "value": 4, "channel": 14, "tick": 227400}, {"type": "control_change", "control": 11, "value": 0, "channel": 14, "tick": 227520}, {"type": "control_change", "control": 11, "value": 127, "channel": 14, "tick": 286080}, {"type": "control_change", "control": 74, "value": 72, "channel": 14, "tick": 286080}, {"type": "control_change", "control": 74, "value": 71, "channel": 14, "tick": 286177}, {"type": "control_change", "control": 74, "value": 70, "channel": 14, "tick": 286369}, {"type": "control_change", "control": 74, "value": 69, "channel": 14, "tick": 286561}, {"type": "control_change", "control": 74, "value": 68, "channel": 14, "tick": 286753}, {"type": "control_change", "control": 74, "value": 67, "channel": 14, "tick": 286945}, {"type": "control_change", "control": 74, "value": 66, "channel": 14, "tick": 287137}, {"type": "control_change", "control": 74, "value": 65, "channel": 14, "tick": 287329}, {"type": "control_change", "control": 74, "value": 64, "channel": 14, "tick": 287521}, {"type": "control_change", "control": 74, "value": 63, "channel": 14, "tick": 287712}, {"type": "control_change", "control": 74, "value": 62, "channel": 14, "tick": 287904}, {"type": "control_change", "control": 74, "value": 61, "channel": 14, "tick": 288096}, {"type": "control_change", "control": 74, "value": 60, "channel": 14, "tick": 288288}, {"type": "control_change", "control": 74, "value": 59, "channel": 14, "tick": 288480}, {"type": "control_change", "control": 74, "value": 58, "channel": 14, "tick": 288672}, {"type": "control_change", "control": 74, "value": 57, "channel": 14, "tick": 288864}, {"type": "control_change", "control": 74, "value": 56, "channel": 14, "tick": 289056}, {"type": "control_change", "control": 74, "value": 55, "channel": 14, "tick": 289248}, {"type": "control_change", "control": 74, "value": 54, "channel": 14, "tick": 289440}, {"type": "control_change", "control": 74, "value": 53, "channel": 14, "tick": 289632}, {"type": "control_change", "control": 74, "value": 52, "channel": 14, "tick": 289824}, {"type": "control_change", "control": 11, "value": 127, "channel": 14, "tick": 289920}, {"type": "control_change", "control": 74, "value": 51, "channel": 14, "tick": 290016}, {"type": "control_change", "control": 11, "value": 123, "channel": 14, "tick": 290040}, {"type": "control_change", "control": 11, "value": 119, "channel": 14, "tick": 290160}, {"type": "control_change", "control": 74, "value": 50, "channel": 14, "tick": 290208}, {"type": "control_change", "control": 11, "value": 115, "channel": 14, "tick": 290280}, {"type": "control_change", "control": 74, "value": 49, "channel": 14, "tick": 290400}, {"type": "control_change", "control": 11, "value": 111, "channel": 14, "tick": 290400}, {"type": "control_change", "control": 11, "value": 107, "channel": 14, "tick": 290520}, {"type": "control_change", "control": 74, "value": 48, "channel": 14, "tick": 290592}, {"type": "control_change", "control": 11, "value": 103, "channel": 14, "tick": 290640}, {"type": "control_change", "control": 11, "value": 99, "channel": 14, "tick": 290760}, {"type": "control_change", "control": 74, "value": 47, "channel": 14, "tick": 290784}, {"type": "control_change", "control": 11, "value": 95, "channel": 14, "tick": 290880}, {"type": "control_change", "control": 74, "value": 46, "channel": 14, "tick": 290976}, {"type": "control_change", "control": 11, "value": 91, "channel": 14, "tick": 291000}, {"type": "control_change", "control": 11, "value": 87, "channel": 14, "tick": 291120}, {"type": "control_change", "control": 74, "value": 45, "channel": 14, "tick": 291168}, {"type": "control_change", "control": 11, "value": 83, "channel": 14, "tick": 291240}, {"type": "control_change", "control": 74, "value": 44, "channel": 14, "tick": 291360}, {"type": "control_change", "control": 11, "value": 79, "channel": 14, "tick": 291360}, {"type": "control_change", "control": 11, "value": 75, "channel": 14, "tick": 291480}, {"type": "control_change", "control": 74, "value": 43, "channel": 14, "tick": 291552}, {"type": "control_change", "control": 11, "value": 71, "channel": 14, "tick": 291600}, {"type": "control_change", "control": 11, "value": 67, "channel": 14, "tick": 291720}, {"type": "control_change", "control": 74, "value": 42, "channel": 14, "tick": 291744}, {"type": "control_change", "control": 11, "value": 64, "channel": 14, "tick": 291840}, {"type": "control_change", "control": 74, "value": 41, "channel": 14, "tick": 291936}, {"type": "control_change", "control": 11, "value": 60, "channel": 14, "tick": 291960}, {"type": "control_change", "control": 11, "value": 56, "channel": 14, "tick": 292080}, {"type": "control_change", "control": 74, "value": 40, "channel": 14, "tick": 292128}, {"type": "control_change", "control": 11, "value": 52, "channel": 14, "tick": 292200}, {"type": "control_change", "control": 74, "value": 39, "channel": 14, "tick": 292320}, {"type": "control_change", "control": 11, "value": 48, "channel": 14, "tick": 292320}, {"type": "control_change", "control": 11, "value": 44, "channel": 14, "tick": 292440}, {"type": "control_change", "control": 74, "value": 38, "channel": 14, "tick": 292512}, {"type": "control_change", "control": 11, "value": 40, "channel": 14, "tick": 292560}, {"type": "control_change", "control": 11, "value": 36, "channel": 14, "tick": 292680}, {"type": "control_change", "control": 74, "value": 37, "channel": 14, "tick": 292704}, {"type": "control_change", "control": 11, "value": 32, "channel": 14, "tick": 292800}, {"type": "control_change", "control": 74, "value": 36, "channel": 14, "tick": 292896}, {"type": "control_change", "control": 11, "value": 28, "channel": 14, "tick": 292920}, {"type": "control_change", "control": 11, "value": 24, "channel": 14, "tick": 293040}, {"type": "control_change", "control": 74, "value": 35, "channel": 14, "tick": 293088}, {"type": "control_change", "control": 11, "value": 20, "channel": 14, "tick": 293160}, {"type": "control_change", "control": 74, "value": 34, "channel": 14, "tick": 293280}, {"type": "control_change", "control": 11, "value": 16, "channel": 14, "tick": 293280}, {"type": "control_change", "control": 11, "value": 12, "channel": 14, "tick": 293400}, {"type": "control_change", "control": 74, "value": 33, "channel": 14, "tick": 293472}, {"type": "control_change", "control": 11, "value": 8, "channel": 14, "tick": 293520}, {"type": "control_change", "control": 11, "value": 4, "channel": 14, "tick": 293640}, {"type": "control_change", "control": 74, "value": 32, "channel": 14, "tick": 293664}, {"type": "control_change", "control": 11, "value": 0, "channel": 14, "tick": 293760}, {"type": "control_change", "control": 11, "value": 127, "channel": 14, "tick": 347520}, {"type": "control_change", "control": 74, "value": 72, "channel": 14, "tick": 347520}, {"type": "control_change", "control": 74, "value": 71, "channel": 14, "tick": 347617}, {"type": "control_change", "control": 74, "value": 70, "channel": 14, "tick": 347809}, {"type": "control_change", "control": 74, "value": 69, "channel": 14, "tick": 348001}, {"type": "control_change", "control": 74, "value": 68, "channel": 14, "tick": 348193}, {"type": "control_change", "control": 74, "value": 67, "channel": 14, "tick": 348385}, {"type": "control_change", "control": 74, "value": 66, "channel": 14, "tick": 348577}, {"type": "control_change", "control": 74, "value": 65, "channel": 14, "tick": 348769}, {"type": "control_change", "control": 74, "value": 64, "channel": 14, "tick": 348961}, {"type": "control_change", "control": 74, "value": 63, "channel": 14, "tick": 349152}, {"type": "control_change", "control": 74, "value": 62, "channel": 14, "tick": 349344}, {"type": "control_change", "control": 74, "value": 61, "channel": 14, "tick": 349536}, {"type": "control_change", "control": 74, "value": 60, "channel": 14, "tick": 349728}, {"type": "control_change", "control": 74, "value": 59, "channel": 14, "tick": 349920}, {"type": "control_change", "control": 74, "value": 58, "channel": 14, "tick": 350112}, {"type": "control_change", "control": 74, "value": 57, "channel": 14, "tick": 350304}, {"type": "control_change", "control": 74, "value": 56, "channel": 14, "tick": 350496}, {"type": "control_change", "control": 74, "value": 55, "channel": 14, "tick": 350688}, {"type": "control_change", "control": 74, "value": 54, "channel": 14, "tick": 350880}, {"type": "control_change", "control": 74, "value": 53, "channel": 14, "tick": 351072}, {"type": "control_change", "control": 74, "value": 52, "channel": 14, "tick": 351264}, {"type": "control_change", "control": 11, "value": 127, "channel": 14, "tick": 351360}, {"type": "control_change", "control": 74, "value": 51, "channel": 14, "tick": 351456}, {"type": "control_change", "control": 11, "value": 123, "channel": 14, "tick": 351480}, {"type": "control_change", "control": 11, "value": 119, "channel": 14, "tick": 351600}, {"type": "control_change", "control": 74, "value": 50, "channel": 14, "tick": 351648}, {"type": "control_change", "control": 11, "value": 115, "channel": 14, "tick": 351720}, {"type": "control_change", "control": 74, "value": 49, "channel": 14, "tick": 351840}, {"type": "control_change", "control": 11, "value": 111, "channel": 14, "tick": 351840}, {"type": "control_change", "control": 11, "value": 107, "channel": 14, "tick": 351960}, {"type": "control_change", "control": 74, "value": 48, "channel": 14, "tick": 352032}, {"type": "control_change", "control": 11, "value": 103, "channel": 14, "tick": 352080}, {"type": "control_change", "control": 11, "value": 99, "channel": 14, "tick": 352200}, {"type": "control_change", "control": 74, "value": 47, "channel": 14, "tick": 352224}, {"type": "control_change", "control": 11, "value": 95, "channel": 14, "tick": 352320}, {"type": "control_change", "control": 74, "value": 46, "channel": 14, "tick": 352416}, {"type": "control_change", "control": 11, "value": 91, "channel": 14, "tick": 352440}, {"type": "control_change", "control": 11, "value": 87, "channel": 14, "tick": 352560}, {"type": "control_change", "control": 74, "value": 45, "channel": 14, "tick": 352608}, {"type": "control_change", "control": 11, "value": 83, "channel": 14, "tick": 352680}, {"type": "control_change", "control": 74, "value": 44, "channel": 14, "tick": 352800}, {"type": "control_change", "control": 11, "value": 79, "channel": 14, "tick": 352800}, {"type": "control_change", "control": 11, "value": 75, "channel": 14, "tick": 352920}, {"type": "control_change", "control": 74, "value": 43, "channel": 14, "tick": 352992}, {"type": "control_change", "control": 11, "value": 71, "channel": 14, "tick": 353040}, {"type": "control_change", "control": 11, "value": 67, "channel": 14, "tick": 353160}, {"type": "control_change", "control": 74, "value": 42, "channel": 14, "tick": 353184}, {"type": "control_change", "control": 11, "value": 64, "channel": 14, "tick": 353280}, {"type": "control_change", "control": 74, "value": 41, "channel": 14, "tick": 353376}, {"type": "control_change", "control": 11, "value": 60, "channel": 14, "tick": 353400}, {"type": "control_change", "control": 11, "value": 56, "channel": 14, "tick": 353520}, {"type": "control_change", "control": 74, "value": 40, "channel": 14, "tick": 353568}, {"type": "control_change", "control": 11, "value": 52, "channel": 14, "tick": 353640}, {"type": "control_change", "control": 74, "value": 39, "channel": 14, "tick": 353760}, {"type": "control_change", "control": 11, "value": 48, "channel": 14, "tick": 353760}, {"type": "control_change", "control": 11, "value": 44, "channel": 14, "tick": 353880}, {"type": "control_change", "control": 74, "value": 38, "channel": 14, "tick": 353952}, {"type": "control_change", "control": 11, "value": 40, "channel": 14, "tick": 354000}, {"type": "control_change", "control": 11, "value": 36, "channel": 14, "tick": 354120}, {"type": "control_change", "control": 74, "value": 37, "channel": 14, "tick": 354144}, {"type": "control_change", "control": 11, "value": 32, "channel": 14, "tick": 354240}, {"type": "control_change", "control": 74, "value": 36, "channel": 14, "tick": 354336}, {"type": "control_change", "control": 11, "value": 28, "channel": 14, "tick": 354360}, {"type": "control_change", "control": 11, "value": 24, "channel": 14, "tick": 354480}, {"type": "control_change", "control": 74, "value": 35, "channel": 14, "tick": 354528}, {"type": "control_change", "control": 11, "value": 20, "channel": 14, "tick": 354600}, {"type": "control_change", "control": 74, "value": 34, "channel": 14, "tick": 354720}, {"type": "control_change", "control": 11, "value": 16, "channel": 14, "tick": 354720}, {"type": "control_change", "control": 11, "value": 12, "channel": 14, "tick": 354840}, {"type": "control_change", "control": 74, "value": 33, "channel": 14, "tick": 354912}, {"type": "control_change", "control": 11, "value": 8, "channel": 14, "tick": 354960}, {"type": "control_change", "control": 11, "value": 4, "channel": 14, "tick": 355080}, {"type": "control_change", "control": 74, "value": 32, "channel": 14, "tick": 355104}, {"type": "control_change", "control": 11, "value": 0, "channel": 14, "tick": 355200}, {"type": "control_change", "control": 74, "value": 64, "channel": 14, "tick": 407520}, {"type": "control_change", "control": 11, "value": 96, "channel": 14, "tick": 408960}, {"type": "control_change", "control": 11, "value": 100, "channel": 14, "tick": 409080}, {"type": "control_change", "control": 11, "value": 104, "channel": 14, "tick": 409200}, {"type": "control_change", "control": 11, "value": 108, "channel": 14, "tick": 409320}, {"type": "control_change", "control": 11, "value": 112, "channel": 14, "tick": 409440}, {"type": "control_change", "control": 11, "value": 115, "channel": 14, "tick": 409560}, {"type": "control_change", "control": 11, "value": 119, "channel": 14, "tick": 409680}, {"type": "control_change", "control": 11, "value": 123, "channel": 14, "tick": 409800}, {"type": "control_change", "control": 11, "value": 127, "channel": 14, "tick": 409920}, {"type": "control_change", "control": 11, "value": 127, "channel": 14, "tick": 411360}, {"type": "control_change", "control": 11, "value": 124, "channel": 14, "tick": 411600}, {"type": "control_change", "control": 11, "value": 121, "channel": 14, "tick": 411840}, {"type": "control_change", "control": 11, "value": 118, "channel": 14, "tick": 412080}, {"type": "control_change", "control": 11, "value": 115, "channel": 14, "tick": 412320}, {"type": "control_change", "control": 11, "value": 112, "channel": 14, "tick": 412560}, {"type": "control_change", "control": 11, "value": 109, "channel": 14, "tick": 412800}, {"type": "control_change", "control": 11, "value": 106, "channel": 14, "tick": 413040}, {"type": "control_change", "control": 11, "value": 103, "channel": 14, "tick": 413280}, {"type": "control_change", "control": 11, "value": 100, "channel": 14, "tick": 413520}, {"type": "control_change", "control": 11, "value": 97, "channel": 14, "tick": 413760}, {"type": "control_change", "control": 11, "value": 95, "channel": 14, "tick": 414000}, {"type": "control_change", "control": 11, "value": 92, "channel": 14, "tick": 414240}, {"type": "control_change", "control": 11, "value": 89, "channel": 14, "tick": 414480}, {"type": "control_change", "control": 11, "value": 86, "channel": 14, "tick": 414720}, {"type": "control_change", "control": 11, "value": 83, "channel": 14, "tick": 414960}, {"type": "control_change", "control": 11, "value": 80, "channel": 14, "tick": 415200}, {"type": "control_change", "control": 11, "value": 77, "channel": 14, "tick": 415440}, {"type": "control_change", "control": 11, "value": 74, "channel": 14, "tick": 415680}, {"type": "control_change", "control": 11, "value": 71, "channel": 14, "tick": 415920}, {"type": "control_change", "control": 11, "value": 68, "channel": 14, "tick": 416160}, {"type": "control_change", "control": 11, "value": 65, "channel": 14, "tick": 416400}, {"type": "control_change", "control": 11, "value": 62, "channel": 14, "tick": 416640}, {"type": "control_change", "control": 11, "value": 59, "channel": 14, "tick": 416880}, {"type": "control_change", "control": 11, "value": 56, "channel": 14, "tick": 417120}, {"type": "control_change", "control": 11, "value": 53, "channel": 14, "tick": 417360}, {"type": "control_change", "control": 11, "value": 50, "channel": 14, "tick": 417600}, {"type": "control_change", "control": 11, "value": 47, "channel": 14, "tick": 417840}, {"type": "control_change", "control": 11, "value": 44, "channel": 14, "tick": 418080}, {"type": "control_change", "control": 11, "value": 41, "channel": 14, "tick": 418320}, {"type": "control_change", "control": 11, "value": 38, "channel": 14, "tick": 418560}, {"type": "control_change", "control": 11, "value": 35, "channel": 14, "tick": 418800}, {"type": "control_change", "control": 11, "value": 32, "channel": 14, "tick": 419040}, {"type": "control_change", "control": 11, "value": 30, "channel": 14, "tick": 419280}, {"type": "control_change", "control": 11, "value": 27, "channel": 14, "tick": 419520}, {"type": "control_change", "control": 11, "value": 24, "channel": 14, "tick": 419760}, {"type": "control_change", "control": 11, "value": 21, "channel": 14, "tick": 420000}, {"type": "control_change", "control": 11, "value": 18, "channel": 14, "tick": 420240}, {"type": "control_change", "control": 11, "value": 15, "channel": 14, "tick": 420480}, {"type": "control_change", "control": 11, "value": 12, "channel": 14, "tick": 420720}, {"type": "control_change", "control": 11, "value": 9, "channel": 14, "tick": 420960}, {"type": "control_change", "control": 11, "value": 6, "channel": 14, "tick": 421200}, {"type": "control_change", "control": 11, "value": 3, "channel": 14, "tick": 421440}, {"type": "control_change", "control": 11, "value": 0, "channel": 14, "tick": 421680}, {"type": "control_change", "control": 11, "value": 96, "channel": 14, "tick": 531360}, {"type": "control_change", "control": 11, "value": 100, "channel": 14, "tick": 531480}, {"type": "control_change", "control": 11, "value": 104, "channel": 14, "tick": 531600}, {"type": "control_change", "control": 11, "value": 108, "channel": 14, "tick": 531720}, {"type": "control_change", "control": 11, "value": 112, "channel": 14, "tick": 531840}, {"type": "control_change", "control": 11, "value": 115, "channel": 14, "tick": 531960}, {"type": "control_change", "control": 11, "value": 119, "channel": 14, "tick": 532080}, {"type": "control_change", "control": 11, "value": 123, "channel": 14, "tick": 532200}, {"type": "control_change", "control": 11, "value": 127, "channel": 14, "tick": 532320}, {"type": "control_change", "control": 11, "value": 127, "channel": 14, "tick": 533760}, {"type": "control_change", "control": 11, "value": 124, "channel": 14, "tick": 534000}, {"type": "control_change", "control": 11, "value": 121, "channel": 14, "tick": 534240}, {"type": "control_change", "control": 11, "value": 118, "channel": 14, "tick": 534480}, {"type": "control_change", "control": 11, "value": 115, "channel": 14, "tick": 534720}, {"type": "control_change", "control": 11, "value": 112, "channel": 14, "tick": 534960}, {"type": "control_change", "control": 11, "value": 109, "channel": 14, "tick": 535200}, {"type": "control_change", "control": 11, "value": 106, "channel": 14, "tick": 535440}, {"type": "control_change", "control": 11, "value": 103, "channel": 14, "tick": 535680}, {"type": "control_change", "control": 11, "value": 100, "channel": 14, "tick": 535920}, {"type": "control_change", "control": 11, "value": 97, "channel": 14, "tick": 536160}, {"type": "control_change", "control": 11, "value": 95, "channel": 14, "tick": 536400}, {"type": "control_change", "control": 11, "value": 92, "channel": 14, "tick": 536640}, {"type": "control_change", "control": 11, "value": 89, "channel": 14, "tick": 536880}, {"type": "control_change", "control": 11, "value": 86, "channel": 14, "tick": 537120}, {"type": "control_change", "control": 11, "value": 83, "channel": 14, "tick": 537360}, {"type": "control_change", "control": 11, "value": 80, "channel": 14, "tick": 537600}, {"type": "control_change", "control": 11, "value": 77, "channel": 14, "tick": 537840}, {"type": "control_change", "control": 11, "value": 74, "channel": 14, "tick": 538080}, {"type": "control_change", "control": 11, "value": 71, "channel": 14, "tick": 538320}, {"type": "control_change", "control": 11, "value": 68, "channel": 14, "tick": 538560}, {"type": "control_change", "control": 11, "value": 65, "channel": 14, "tick": 538800}, {"type": "control_change", "control": 11, "value": 62, "channel": 14, "tick": 539040}, {"type": "control_change", "control": 11, "value": 59, "channel": 14, "tick": 539280}, {"type": "control_change", "control": 11, "value": 56, "channel": 14, "tick": 539520}, {"type": "control_change", "control": 11, "value": 53, "channel": 14, "tick": 539760}, {"type": "control_change", "control": 11, "value": 50, "channel": 14, "tick": 540000}, {"type": "control_change", "control": 11, "value": 47, "channel": 14, "tick": 540240}, {"type": "control_change", "control": 11, "value": 44, "channel": 14, "tick": 540480}, {"type": "control_change", "control": 11, "value": 41, "channel": 14, "tick": 540720}, {"type": "control_change", "control": 11, "value": 38, "channel": 14, "tick": 540960}, {"type": "control_change", "control": 11, "value": 35, "channel": 14, "tick": 541200}, {"type": "control_change", "control": 11, "value": 32, "channel": 14, "tick": 541440}, {"type": "control_change", "control": 11, "value": 30, "channel": 14, "tick": 541680}, {"type": "control_change", "control": 11, "value": 27, "channel": 14, "tick": 541920}, {"type": "control_change", "control": 11, "value": 24, "channel": 14, "tick": 542160}, {"type": "end_of_track", "tick": 542400}], "notes": [{"pitch": 60, "tick": 28800, "length": 3360, "velocity": 112}, {"pitch": 60, "tick": 151680, "length": 3360, "velocity": 112}, {"pitch": 60, "tick": 216480, "length": 11040, "velocity": 64}, {"pitch": 60, "tick": 286080, "length": 7680, "velocity": 112}, {"pitch": 60, "tick": 347520, "length": 7680, "velocity": 112}, {"pitch": 60, "tick": 408960, "length": 12720, "velocity": 96}, {"pitch": 60, "tick": 531360, "length": 11040, "velocity": 80}]}, {"channel": 15, "length": 542400, "track_name": "\u008f\u00e0", "events": [{"type": "track_name", "name": "\u008f\u00e0", "tick": 0}, {"type": "midi_port", "port": 0, "tick": 0}, {"type": "control_change", "control": 0, "value": 121, "channel": 15, "tick": 480}, {"type": "control_change", "control": 32, "value": 0, "channel": 15, "tick": 480}, {"type": "program_change", "program": 14, "channel": 15, "tick": 480}, {"type": "sysex", "data": [65, 16, 0, 72, 18, 16, 0, 47, 63, 0, 2], "tick": 540}, {"type": "control_change", "control": 7, "value": 80, "channel": 15, "tick": 600}, {"type": "control_change", "control": 10, "value": 64, "channel": 15, "tick": 660}, {"type": "control_change", "control": 91, "value": 8, "channel": 15, "tick": 720}, {"type": "control_change", "control": 93, "value": 0, "channel": 15, "tick": 780}, {"type": "control_change", "control": 74, "value": 64, "channel": 15, "tick": 840}, {"type": "control_change", "control": 71, "value": 64, "channel": 15, "tick": 900}, {"type": "control_change", "control": 73, "value": 64, "channel": 15, "tick": 960}, {"type": "control_change", "control": 75, "value": 68, "channel": 15, "tick": 1020}, {"type": "control_change", "control": 72, "value": 64, "channel": 15, "tick": 1080}, {"type": "control_change", "control": 101, "value": 0, "channel": 15, "tick": 1140}, {"type": "control_change", "control": 100, "value": 0, "channel": 15, "tick": 1140}, {"type": "control_change", "control": 6, "value": 12, "channel": 15, "tick": 1140}, {"type": "control_change", "control": 38, "value": 0, "channel": 15, "tick": 1140}, {"type": "pitchwheel", "channel": 15, "pitch": -230, "tick": 1200}, {"type": "control_change", "control": 1, "value": 0, "channel": 15, "tick": 1260}, {"type": "control_change", "control": 11, "value": 127, "channel": 15, "tick": 1320}, {"type": "control_change", "control": 101, "value": 127, "channel": 15, "tick": 1380}, {"type": "control_change", "control": 100, "value": 127, "channel": 15, "tick": 1380}, {"type": "control_change", "control": 6, "value": 0, "channel": 15, "tick": 1380}, {"type": "control_change", "control": 38, "value": 0, "channel": 15, "tick": 1380}, {"type": "end_of_track", "tick": 542400}], "notes": [{"pitch": 50, "tick": 216480, "length": 7680, "velocity": 112}, {"pitch": 50, "tick": 408960, "length": 7680, "velocity": 96}, {"pitch": 50, "tick": 531360, "length": 11040, "velocity": 112}]}], "beat_length": 20, "format": 0, "length": 542400, "name": "(\u8033\u30b3\u30d4)\u67f4\u53c8.mid", "path": "C:/Ipota/programs/ongaku/b0/Sibamata.comcom", "start": 1920, "tempo": 312500, "resolution": 480, "selected_track": 0}